G75*
%MOIN*%
%OFA0B0*%
%FSLAX25Y25*%
%IPPOS*%
%LPD*%
%AMOC8*
5,1,8,0,0,1.08239X$1,22.5*
%
%ADD10C,0.08400*%
%ADD11C,0.07150*%
%ADD12C,0.09150*%
%ADD13OC8,0.06706*%
%ADD14C,0.08200*%
%ADD15OC8,0.08200*%
%ADD16C,0.13398*%
%ADD17C,0.07800*%
%ADD18OC8,0.18517*%
%ADD19OC8,0.08400*%
%ADD20C,0.07400*%
%ADD21OC8,0.06400*%
%ADD22OC8,0.40170*%
D10*
X0252438Y0021885D03*
X0252438Y0047476D03*
X0292438Y0047476D03*
X0292438Y0021885D03*
D11*
X0449145Y0091531D02*
X0455494Y0091531D01*
X0455494Y0101531D02*
X0449145Y0101531D01*
X0449145Y0111531D02*
X0455494Y0111531D01*
X0455494Y0121531D02*
X0449145Y0121531D01*
X0479145Y0121531D02*
X0485494Y0121531D01*
X0485494Y0111531D02*
X0479145Y0111531D01*
X0479145Y0101531D02*
X0485494Y0101531D01*
X0485494Y0091531D02*
X0479145Y0091531D01*
X0481557Y0245074D02*
X0475208Y0245074D01*
X0475208Y0255074D02*
X0481557Y0255074D01*
X0481557Y0265074D02*
X0475208Y0265074D01*
X0475208Y0275074D02*
X0481557Y0275074D01*
X0451557Y0275074D02*
X0445208Y0275074D01*
X0445208Y0265074D02*
X0451557Y0265074D01*
X0451557Y0255074D02*
X0445208Y0255074D01*
X0445208Y0245074D02*
X0451557Y0245074D01*
D12*
X0414227Y0035902D02*
X0414227Y0027553D01*
X0394427Y0027553D02*
X0394427Y0035902D01*
X0357141Y0035902D02*
X0357141Y0027553D01*
X0337341Y0027553D02*
X0337341Y0035902D01*
D13*
X0439760Y0085625D03*
X0447635Y0070350D03*
X0462162Y0071098D03*
X0462162Y0055350D03*
X0462162Y0039602D03*
X0447635Y0040350D03*
X0462162Y0023854D03*
X0492162Y0023854D03*
X0492162Y0039602D03*
X0492162Y0055350D03*
X0492162Y0071098D03*
X0439760Y0115625D03*
X0452320Y0136058D03*
X0482320Y0136058D03*
X0487005Y0201767D03*
X0468383Y0224641D03*
X0458383Y0224641D03*
X0487005Y0231767D03*
X0478383Y0297476D03*
X0478383Y0319129D03*
X0448383Y0319129D03*
X0448383Y0297476D03*
X0428107Y0297476D03*
X0408107Y0297476D03*
X0351178Y0145153D03*
X0329524Y0145153D03*
X0329524Y0115153D03*
X0351178Y0115153D03*
X0285469Y0122279D03*
X0255469Y0122279D03*
X0055902Y0134838D03*
X0055902Y0164838D03*
X0053934Y0182082D03*
X0053934Y0212082D03*
X0055902Y0229326D03*
X0055902Y0259326D03*
D14*
X0124312Y0263224D03*
X0134312Y0263224D03*
X0144312Y0263224D03*
X0154312Y0263224D03*
X0164312Y0263224D03*
X0174312Y0263224D03*
X0184312Y0263224D03*
X0194312Y0263224D03*
X0210312Y0263224D03*
X0220312Y0263224D03*
X0230312Y0263224D03*
X0240312Y0263224D03*
X0250312Y0263224D03*
X0260312Y0263224D03*
X0270312Y0263224D03*
X0280312Y0263224D03*
X0300312Y0263224D03*
X0310312Y0263224D03*
X0320312Y0263224D03*
X0330312Y0263224D03*
X0340312Y0263224D03*
X0350312Y0263224D03*
X0360312Y0263224D03*
X0370312Y0263224D03*
X0400312Y0263224D03*
X0410312Y0263224D03*
X0410312Y0093224D03*
X0400312Y0093224D03*
X0390312Y0073224D03*
X0380312Y0073224D03*
X0370312Y0073224D03*
X0360312Y0073224D03*
X0350312Y0073224D03*
X0340312Y0073224D03*
X0330312Y0073224D03*
X0320312Y0073224D03*
X0300312Y0073224D03*
X0290312Y0073224D03*
X0280312Y0073224D03*
X0270312Y0073224D03*
X0260312Y0073224D03*
X0250312Y0073224D03*
X0240312Y0073224D03*
X0230312Y0073224D03*
X0210312Y0073224D03*
X0200312Y0073224D03*
X0190312Y0073224D03*
X0180312Y0073224D03*
X0170312Y0073224D03*
X0160312Y0073224D03*
D15*
X0400312Y0103224D03*
X0410312Y0103224D03*
X0410312Y0113224D03*
X0400312Y0113224D03*
X0400312Y0123224D03*
X0410312Y0123224D03*
X0410312Y0133224D03*
X0410312Y0143224D03*
X0400312Y0143224D03*
X0400312Y0133224D03*
X0400312Y0153224D03*
X0410312Y0153224D03*
X0410312Y0163224D03*
X0400312Y0163224D03*
X0400312Y0173224D03*
X0400312Y0183224D03*
X0410312Y0183224D03*
X0410312Y0173224D03*
X0410312Y0193224D03*
X0400312Y0193224D03*
X0400312Y0203224D03*
X0410312Y0203224D03*
X0410312Y0213224D03*
X0400312Y0213224D03*
X0400312Y0223224D03*
X0400312Y0233224D03*
X0410312Y0233224D03*
X0410312Y0223224D03*
X0410312Y0243224D03*
X0400312Y0243224D03*
X0400312Y0253224D03*
X0410312Y0253224D03*
D16*
X0385312Y0263224D03*
X0290312Y0203224D03*
X0290312Y0093224D03*
X0410312Y0073224D03*
X0090312Y0263224D03*
X0085312Y0073224D03*
D17*
X0101772Y0075507D02*
X0108772Y0075507D01*
X0108772Y0085507D02*
X0101772Y0085507D01*
X0101772Y0095507D02*
X0108772Y0095507D01*
X0108772Y0105507D02*
X0101772Y0105507D01*
X0101772Y0115507D02*
X0108772Y0115507D01*
X0108772Y0125507D02*
X0101772Y0125507D01*
X0101772Y0135507D02*
X0108772Y0135507D01*
X0108772Y0145507D02*
X0101772Y0145507D01*
X0101772Y0155507D02*
X0108772Y0155507D01*
X0108772Y0165507D02*
X0101772Y0165507D01*
X0101772Y0175507D02*
X0108772Y0175507D01*
X0108772Y0185507D02*
X0101772Y0185507D01*
X0101772Y0195507D02*
X0108772Y0195507D01*
X0108772Y0065507D02*
X0101772Y0065507D01*
X0101772Y0055507D02*
X0108772Y0055507D01*
X0108772Y0045507D02*
X0101772Y0045507D01*
D18*
X0105272Y0024011D03*
X0227005Y0024011D03*
X0227005Y0318972D03*
X0105272Y0318972D03*
D19*
X0198540Y0321098D03*
X0208540Y0321098D03*
X0208540Y0021885D03*
X0198540Y0021885D03*
D20*
X0079524Y0096531D03*
X0079524Y0106531D03*
X0079524Y0116531D03*
D21*
X0146453Y0053381D03*
X0124800Y0047476D03*
X0301965Y0057318D03*
X0319682Y0051413D03*
X0303934Y0033696D03*
X0378737Y0059287D03*
X0429918Y0051413D03*
X0455509Y0065192D03*
X0477162Y0080940D03*
X0488973Y0080940D03*
X0492910Y0124247D03*
X0449603Y0149838D03*
X0449603Y0195113D03*
X0418107Y0236452D03*
X0465351Y0258106D03*
X0490942Y0250231D03*
X0490942Y0287633D03*
D22*
X0055902Y0035665D03*
X0055902Y0299444D03*
X0477162Y0171491D03*
M02*
