G75*
%MOIN*%
%OFA0B0*%
%FSLAX25Y25*%
%IPPOS*%
%LPD*%
%AMOC8*
5,1,8,0,0,1.08239X$1,22.5*
%
%ADD10C,0.01000*%
%ADD11C,0.00000*%
D10*
X0030312Y0010074D02*
X0030312Y0332909D01*
X0508658Y0332909D01*
X0508658Y0010074D01*
X0030312Y0010074D01*
D11*
X0079013Y0073224D02*
X0079015Y0073382D01*
X0079021Y0073540D01*
X0079031Y0073698D01*
X0079045Y0073856D01*
X0079063Y0074013D01*
X0079084Y0074170D01*
X0079110Y0074326D01*
X0079140Y0074482D01*
X0079173Y0074637D01*
X0079211Y0074790D01*
X0079252Y0074943D01*
X0079297Y0075095D01*
X0079346Y0075246D01*
X0079399Y0075395D01*
X0079455Y0075543D01*
X0079515Y0075689D01*
X0079579Y0075834D01*
X0079647Y0075977D01*
X0079718Y0076119D01*
X0079792Y0076259D01*
X0079870Y0076396D01*
X0079952Y0076532D01*
X0080036Y0076666D01*
X0080125Y0076797D01*
X0080216Y0076926D01*
X0080311Y0077053D01*
X0080408Y0077178D01*
X0080509Y0077300D01*
X0080613Y0077419D01*
X0080720Y0077536D01*
X0080830Y0077650D01*
X0080943Y0077761D01*
X0081058Y0077870D01*
X0081176Y0077975D01*
X0081297Y0078077D01*
X0081420Y0078177D01*
X0081546Y0078273D01*
X0081674Y0078366D01*
X0081804Y0078456D01*
X0081937Y0078542D01*
X0082072Y0078626D01*
X0082208Y0078705D01*
X0082347Y0078782D01*
X0082488Y0078854D01*
X0082630Y0078924D01*
X0082774Y0078989D01*
X0082920Y0079051D01*
X0083067Y0079109D01*
X0083216Y0079164D01*
X0083366Y0079215D01*
X0083517Y0079262D01*
X0083669Y0079305D01*
X0083822Y0079344D01*
X0083977Y0079380D01*
X0084132Y0079411D01*
X0084288Y0079439D01*
X0084444Y0079463D01*
X0084601Y0079483D01*
X0084759Y0079499D01*
X0084916Y0079511D01*
X0085075Y0079519D01*
X0085233Y0079523D01*
X0085391Y0079523D01*
X0085549Y0079519D01*
X0085708Y0079511D01*
X0085865Y0079499D01*
X0086023Y0079483D01*
X0086180Y0079463D01*
X0086336Y0079439D01*
X0086492Y0079411D01*
X0086647Y0079380D01*
X0086802Y0079344D01*
X0086955Y0079305D01*
X0087107Y0079262D01*
X0087258Y0079215D01*
X0087408Y0079164D01*
X0087557Y0079109D01*
X0087704Y0079051D01*
X0087850Y0078989D01*
X0087994Y0078924D01*
X0088136Y0078854D01*
X0088277Y0078782D01*
X0088416Y0078705D01*
X0088552Y0078626D01*
X0088687Y0078542D01*
X0088820Y0078456D01*
X0088950Y0078366D01*
X0089078Y0078273D01*
X0089204Y0078177D01*
X0089327Y0078077D01*
X0089448Y0077975D01*
X0089566Y0077870D01*
X0089681Y0077761D01*
X0089794Y0077650D01*
X0089904Y0077536D01*
X0090011Y0077419D01*
X0090115Y0077300D01*
X0090216Y0077178D01*
X0090313Y0077053D01*
X0090408Y0076926D01*
X0090499Y0076797D01*
X0090588Y0076666D01*
X0090672Y0076532D01*
X0090754Y0076396D01*
X0090832Y0076259D01*
X0090906Y0076119D01*
X0090977Y0075977D01*
X0091045Y0075834D01*
X0091109Y0075689D01*
X0091169Y0075543D01*
X0091225Y0075395D01*
X0091278Y0075246D01*
X0091327Y0075095D01*
X0091372Y0074943D01*
X0091413Y0074790D01*
X0091451Y0074637D01*
X0091484Y0074482D01*
X0091514Y0074326D01*
X0091540Y0074170D01*
X0091561Y0074013D01*
X0091579Y0073856D01*
X0091593Y0073698D01*
X0091603Y0073540D01*
X0091609Y0073382D01*
X0091611Y0073224D01*
X0091609Y0073066D01*
X0091603Y0072908D01*
X0091593Y0072750D01*
X0091579Y0072592D01*
X0091561Y0072435D01*
X0091540Y0072278D01*
X0091514Y0072122D01*
X0091484Y0071966D01*
X0091451Y0071811D01*
X0091413Y0071658D01*
X0091372Y0071505D01*
X0091327Y0071353D01*
X0091278Y0071202D01*
X0091225Y0071053D01*
X0091169Y0070905D01*
X0091109Y0070759D01*
X0091045Y0070614D01*
X0090977Y0070471D01*
X0090906Y0070329D01*
X0090832Y0070189D01*
X0090754Y0070052D01*
X0090672Y0069916D01*
X0090588Y0069782D01*
X0090499Y0069651D01*
X0090408Y0069522D01*
X0090313Y0069395D01*
X0090216Y0069270D01*
X0090115Y0069148D01*
X0090011Y0069029D01*
X0089904Y0068912D01*
X0089794Y0068798D01*
X0089681Y0068687D01*
X0089566Y0068578D01*
X0089448Y0068473D01*
X0089327Y0068371D01*
X0089204Y0068271D01*
X0089078Y0068175D01*
X0088950Y0068082D01*
X0088820Y0067992D01*
X0088687Y0067906D01*
X0088552Y0067822D01*
X0088416Y0067743D01*
X0088277Y0067666D01*
X0088136Y0067594D01*
X0087994Y0067524D01*
X0087850Y0067459D01*
X0087704Y0067397D01*
X0087557Y0067339D01*
X0087408Y0067284D01*
X0087258Y0067233D01*
X0087107Y0067186D01*
X0086955Y0067143D01*
X0086802Y0067104D01*
X0086647Y0067068D01*
X0086492Y0067037D01*
X0086336Y0067009D01*
X0086180Y0066985D01*
X0086023Y0066965D01*
X0085865Y0066949D01*
X0085708Y0066937D01*
X0085549Y0066929D01*
X0085391Y0066925D01*
X0085233Y0066925D01*
X0085075Y0066929D01*
X0084916Y0066937D01*
X0084759Y0066949D01*
X0084601Y0066965D01*
X0084444Y0066985D01*
X0084288Y0067009D01*
X0084132Y0067037D01*
X0083977Y0067068D01*
X0083822Y0067104D01*
X0083669Y0067143D01*
X0083517Y0067186D01*
X0083366Y0067233D01*
X0083216Y0067284D01*
X0083067Y0067339D01*
X0082920Y0067397D01*
X0082774Y0067459D01*
X0082630Y0067524D01*
X0082488Y0067594D01*
X0082347Y0067666D01*
X0082208Y0067743D01*
X0082072Y0067822D01*
X0081937Y0067906D01*
X0081804Y0067992D01*
X0081674Y0068082D01*
X0081546Y0068175D01*
X0081420Y0068271D01*
X0081297Y0068371D01*
X0081176Y0068473D01*
X0081058Y0068578D01*
X0080943Y0068687D01*
X0080830Y0068798D01*
X0080720Y0068912D01*
X0080613Y0069029D01*
X0080509Y0069148D01*
X0080408Y0069270D01*
X0080311Y0069395D01*
X0080216Y0069522D01*
X0080125Y0069651D01*
X0080036Y0069782D01*
X0079952Y0069916D01*
X0079870Y0070052D01*
X0079792Y0070189D01*
X0079718Y0070329D01*
X0079647Y0070471D01*
X0079579Y0070614D01*
X0079515Y0070759D01*
X0079455Y0070905D01*
X0079399Y0071053D01*
X0079346Y0071202D01*
X0079297Y0071353D01*
X0079252Y0071505D01*
X0079211Y0071658D01*
X0079173Y0071811D01*
X0079140Y0071966D01*
X0079110Y0072122D01*
X0079084Y0072278D01*
X0079063Y0072435D01*
X0079045Y0072592D01*
X0079031Y0072750D01*
X0079021Y0072908D01*
X0079015Y0073066D01*
X0079013Y0073224D01*
X0284013Y0093224D02*
X0284015Y0093382D01*
X0284021Y0093540D01*
X0284031Y0093698D01*
X0284045Y0093856D01*
X0284063Y0094013D01*
X0284084Y0094170D01*
X0284110Y0094326D01*
X0284140Y0094482D01*
X0284173Y0094637D01*
X0284211Y0094790D01*
X0284252Y0094943D01*
X0284297Y0095095D01*
X0284346Y0095246D01*
X0284399Y0095395D01*
X0284455Y0095543D01*
X0284515Y0095689D01*
X0284579Y0095834D01*
X0284647Y0095977D01*
X0284718Y0096119D01*
X0284792Y0096259D01*
X0284870Y0096396D01*
X0284952Y0096532D01*
X0285036Y0096666D01*
X0285125Y0096797D01*
X0285216Y0096926D01*
X0285311Y0097053D01*
X0285408Y0097178D01*
X0285509Y0097300D01*
X0285613Y0097419D01*
X0285720Y0097536D01*
X0285830Y0097650D01*
X0285943Y0097761D01*
X0286058Y0097870D01*
X0286176Y0097975D01*
X0286297Y0098077D01*
X0286420Y0098177D01*
X0286546Y0098273D01*
X0286674Y0098366D01*
X0286804Y0098456D01*
X0286937Y0098542D01*
X0287072Y0098626D01*
X0287208Y0098705D01*
X0287347Y0098782D01*
X0287488Y0098854D01*
X0287630Y0098924D01*
X0287774Y0098989D01*
X0287920Y0099051D01*
X0288067Y0099109D01*
X0288216Y0099164D01*
X0288366Y0099215D01*
X0288517Y0099262D01*
X0288669Y0099305D01*
X0288822Y0099344D01*
X0288977Y0099380D01*
X0289132Y0099411D01*
X0289288Y0099439D01*
X0289444Y0099463D01*
X0289601Y0099483D01*
X0289759Y0099499D01*
X0289916Y0099511D01*
X0290075Y0099519D01*
X0290233Y0099523D01*
X0290391Y0099523D01*
X0290549Y0099519D01*
X0290708Y0099511D01*
X0290865Y0099499D01*
X0291023Y0099483D01*
X0291180Y0099463D01*
X0291336Y0099439D01*
X0291492Y0099411D01*
X0291647Y0099380D01*
X0291802Y0099344D01*
X0291955Y0099305D01*
X0292107Y0099262D01*
X0292258Y0099215D01*
X0292408Y0099164D01*
X0292557Y0099109D01*
X0292704Y0099051D01*
X0292850Y0098989D01*
X0292994Y0098924D01*
X0293136Y0098854D01*
X0293277Y0098782D01*
X0293416Y0098705D01*
X0293552Y0098626D01*
X0293687Y0098542D01*
X0293820Y0098456D01*
X0293950Y0098366D01*
X0294078Y0098273D01*
X0294204Y0098177D01*
X0294327Y0098077D01*
X0294448Y0097975D01*
X0294566Y0097870D01*
X0294681Y0097761D01*
X0294794Y0097650D01*
X0294904Y0097536D01*
X0295011Y0097419D01*
X0295115Y0097300D01*
X0295216Y0097178D01*
X0295313Y0097053D01*
X0295408Y0096926D01*
X0295499Y0096797D01*
X0295588Y0096666D01*
X0295672Y0096532D01*
X0295754Y0096396D01*
X0295832Y0096259D01*
X0295906Y0096119D01*
X0295977Y0095977D01*
X0296045Y0095834D01*
X0296109Y0095689D01*
X0296169Y0095543D01*
X0296225Y0095395D01*
X0296278Y0095246D01*
X0296327Y0095095D01*
X0296372Y0094943D01*
X0296413Y0094790D01*
X0296451Y0094637D01*
X0296484Y0094482D01*
X0296514Y0094326D01*
X0296540Y0094170D01*
X0296561Y0094013D01*
X0296579Y0093856D01*
X0296593Y0093698D01*
X0296603Y0093540D01*
X0296609Y0093382D01*
X0296611Y0093224D01*
X0296609Y0093066D01*
X0296603Y0092908D01*
X0296593Y0092750D01*
X0296579Y0092592D01*
X0296561Y0092435D01*
X0296540Y0092278D01*
X0296514Y0092122D01*
X0296484Y0091966D01*
X0296451Y0091811D01*
X0296413Y0091658D01*
X0296372Y0091505D01*
X0296327Y0091353D01*
X0296278Y0091202D01*
X0296225Y0091053D01*
X0296169Y0090905D01*
X0296109Y0090759D01*
X0296045Y0090614D01*
X0295977Y0090471D01*
X0295906Y0090329D01*
X0295832Y0090189D01*
X0295754Y0090052D01*
X0295672Y0089916D01*
X0295588Y0089782D01*
X0295499Y0089651D01*
X0295408Y0089522D01*
X0295313Y0089395D01*
X0295216Y0089270D01*
X0295115Y0089148D01*
X0295011Y0089029D01*
X0294904Y0088912D01*
X0294794Y0088798D01*
X0294681Y0088687D01*
X0294566Y0088578D01*
X0294448Y0088473D01*
X0294327Y0088371D01*
X0294204Y0088271D01*
X0294078Y0088175D01*
X0293950Y0088082D01*
X0293820Y0087992D01*
X0293687Y0087906D01*
X0293552Y0087822D01*
X0293416Y0087743D01*
X0293277Y0087666D01*
X0293136Y0087594D01*
X0292994Y0087524D01*
X0292850Y0087459D01*
X0292704Y0087397D01*
X0292557Y0087339D01*
X0292408Y0087284D01*
X0292258Y0087233D01*
X0292107Y0087186D01*
X0291955Y0087143D01*
X0291802Y0087104D01*
X0291647Y0087068D01*
X0291492Y0087037D01*
X0291336Y0087009D01*
X0291180Y0086985D01*
X0291023Y0086965D01*
X0290865Y0086949D01*
X0290708Y0086937D01*
X0290549Y0086929D01*
X0290391Y0086925D01*
X0290233Y0086925D01*
X0290075Y0086929D01*
X0289916Y0086937D01*
X0289759Y0086949D01*
X0289601Y0086965D01*
X0289444Y0086985D01*
X0289288Y0087009D01*
X0289132Y0087037D01*
X0288977Y0087068D01*
X0288822Y0087104D01*
X0288669Y0087143D01*
X0288517Y0087186D01*
X0288366Y0087233D01*
X0288216Y0087284D01*
X0288067Y0087339D01*
X0287920Y0087397D01*
X0287774Y0087459D01*
X0287630Y0087524D01*
X0287488Y0087594D01*
X0287347Y0087666D01*
X0287208Y0087743D01*
X0287072Y0087822D01*
X0286937Y0087906D01*
X0286804Y0087992D01*
X0286674Y0088082D01*
X0286546Y0088175D01*
X0286420Y0088271D01*
X0286297Y0088371D01*
X0286176Y0088473D01*
X0286058Y0088578D01*
X0285943Y0088687D01*
X0285830Y0088798D01*
X0285720Y0088912D01*
X0285613Y0089029D01*
X0285509Y0089148D01*
X0285408Y0089270D01*
X0285311Y0089395D01*
X0285216Y0089522D01*
X0285125Y0089651D01*
X0285036Y0089782D01*
X0284952Y0089916D01*
X0284870Y0090052D01*
X0284792Y0090189D01*
X0284718Y0090329D01*
X0284647Y0090471D01*
X0284579Y0090614D01*
X0284515Y0090759D01*
X0284455Y0090905D01*
X0284399Y0091053D01*
X0284346Y0091202D01*
X0284297Y0091353D01*
X0284252Y0091505D01*
X0284211Y0091658D01*
X0284173Y0091811D01*
X0284140Y0091966D01*
X0284110Y0092122D01*
X0284084Y0092278D01*
X0284063Y0092435D01*
X0284045Y0092592D01*
X0284031Y0092750D01*
X0284021Y0092908D01*
X0284015Y0093066D01*
X0284013Y0093224D01*
X0404013Y0073224D02*
X0404015Y0073382D01*
X0404021Y0073540D01*
X0404031Y0073698D01*
X0404045Y0073856D01*
X0404063Y0074013D01*
X0404084Y0074170D01*
X0404110Y0074326D01*
X0404140Y0074482D01*
X0404173Y0074637D01*
X0404211Y0074790D01*
X0404252Y0074943D01*
X0404297Y0075095D01*
X0404346Y0075246D01*
X0404399Y0075395D01*
X0404455Y0075543D01*
X0404515Y0075689D01*
X0404579Y0075834D01*
X0404647Y0075977D01*
X0404718Y0076119D01*
X0404792Y0076259D01*
X0404870Y0076396D01*
X0404952Y0076532D01*
X0405036Y0076666D01*
X0405125Y0076797D01*
X0405216Y0076926D01*
X0405311Y0077053D01*
X0405408Y0077178D01*
X0405509Y0077300D01*
X0405613Y0077419D01*
X0405720Y0077536D01*
X0405830Y0077650D01*
X0405943Y0077761D01*
X0406058Y0077870D01*
X0406176Y0077975D01*
X0406297Y0078077D01*
X0406420Y0078177D01*
X0406546Y0078273D01*
X0406674Y0078366D01*
X0406804Y0078456D01*
X0406937Y0078542D01*
X0407072Y0078626D01*
X0407208Y0078705D01*
X0407347Y0078782D01*
X0407488Y0078854D01*
X0407630Y0078924D01*
X0407774Y0078989D01*
X0407920Y0079051D01*
X0408067Y0079109D01*
X0408216Y0079164D01*
X0408366Y0079215D01*
X0408517Y0079262D01*
X0408669Y0079305D01*
X0408822Y0079344D01*
X0408977Y0079380D01*
X0409132Y0079411D01*
X0409288Y0079439D01*
X0409444Y0079463D01*
X0409601Y0079483D01*
X0409759Y0079499D01*
X0409916Y0079511D01*
X0410075Y0079519D01*
X0410233Y0079523D01*
X0410391Y0079523D01*
X0410549Y0079519D01*
X0410708Y0079511D01*
X0410865Y0079499D01*
X0411023Y0079483D01*
X0411180Y0079463D01*
X0411336Y0079439D01*
X0411492Y0079411D01*
X0411647Y0079380D01*
X0411802Y0079344D01*
X0411955Y0079305D01*
X0412107Y0079262D01*
X0412258Y0079215D01*
X0412408Y0079164D01*
X0412557Y0079109D01*
X0412704Y0079051D01*
X0412850Y0078989D01*
X0412994Y0078924D01*
X0413136Y0078854D01*
X0413277Y0078782D01*
X0413416Y0078705D01*
X0413552Y0078626D01*
X0413687Y0078542D01*
X0413820Y0078456D01*
X0413950Y0078366D01*
X0414078Y0078273D01*
X0414204Y0078177D01*
X0414327Y0078077D01*
X0414448Y0077975D01*
X0414566Y0077870D01*
X0414681Y0077761D01*
X0414794Y0077650D01*
X0414904Y0077536D01*
X0415011Y0077419D01*
X0415115Y0077300D01*
X0415216Y0077178D01*
X0415313Y0077053D01*
X0415408Y0076926D01*
X0415499Y0076797D01*
X0415588Y0076666D01*
X0415672Y0076532D01*
X0415754Y0076396D01*
X0415832Y0076259D01*
X0415906Y0076119D01*
X0415977Y0075977D01*
X0416045Y0075834D01*
X0416109Y0075689D01*
X0416169Y0075543D01*
X0416225Y0075395D01*
X0416278Y0075246D01*
X0416327Y0075095D01*
X0416372Y0074943D01*
X0416413Y0074790D01*
X0416451Y0074637D01*
X0416484Y0074482D01*
X0416514Y0074326D01*
X0416540Y0074170D01*
X0416561Y0074013D01*
X0416579Y0073856D01*
X0416593Y0073698D01*
X0416603Y0073540D01*
X0416609Y0073382D01*
X0416611Y0073224D01*
X0416609Y0073066D01*
X0416603Y0072908D01*
X0416593Y0072750D01*
X0416579Y0072592D01*
X0416561Y0072435D01*
X0416540Y0072278D01*
X0416514Y0072122D01*
X0416484Y0071966D01*
X0416451Y0071811D01*
X0416413Y0071658D01*
X0416372Y0071505D01*
X0416327Y0071353D01*
X0416278Y0071202D01*
X0416225Y0071053D01*
X0416169Y0070905D01*
X0416109Y0070759D01*
X0416045Y0070614D01*
X0415977Y0070471D01*
X0415906Y0070329D01*
X0415832Y0070189D01*
X0415754Y0070052D01*
X0415672Y0069916D01*
X0415588Y0069782D01*
X0415499Y0069651D01*
X0415408Y0069522D01*
X0415313Y0069395D01*
X0415216Y0069270D01*
X0415115Y0069148D01*
X0415011Y0069029D01*
X0414904Y0068912D01*
X0414794Y0068798D01*
X0414681Y0068687D01*
X0414566Y0068578D01*
X0414448Y0068473D01*
X0414327Y0068371D01*
X0414204Y0068271D01*
X0414078Y0068175D01*
X0413950Y0068082D01*
X0413820Y0067992D01*
X0413687Y0067906D01*
X0413552Y0067822D01*
X0413416Y0067743D01*
X0413277Y0067666D01*
X0413136Y0067594D01*
X0412994Y0067524D01*
X0412850Y0067459D01*
X0412704Y0067397D01*
X0412557Y0067339D01*
X0412408Y0067284D01*
X0412258Y0067233D01*
X0412107Y0067186D01*
X0411955Y0067143D01*
X0411802Y0067104D01*
X0411647Y0067068D01*
X0411492Y0067037D01*
X0411336Y0067009D01*
X0411180Y0066985D01*
X0411023Y0066965D01*
X0410865Y0066949D01*
X0410708Y0066937D01*
X0410549Y0066929D01*
X0410391Y0066925D01*
X0410233Y0066925D01*
X0410075Y0066929D01*
X0409916Y0066937D01*
X0409759Y0066949D01*
X0409601Y0066965D01*
X0409444Y0066985D01*
X0409288Y0067009D01*
X0409132Y0067037D01*
X0408977Y0067068D01*
X0408822Y0067104D01*
X0408669Y0067143D01*
X0408517Y0067186D01*
X0408366Y0067233D01*
X0408216Y0067284D01*
X0408067Y0067339D01*
X0407920Y0067397D01*
X0407774Y0067459D01*
X0407630Y0067524D01*
X0407488Y0067594D01*
X0407347Y0067666D01*
X0407208Y0067743D01*
X0407072Y0067822D01*
X0406937Y0067906D01*
X0406804Y0067992D01*
X0406674Y0068082D01*
X0406546Y0068175D01*
X0406420Y0068271D01*
X0406297Y0068371D01*
X0406176Y0068473D01*
X0406058Y0068578D01*
X0405943Y0068687D01*
X0405830Y0068798D01*
X0405720Y0068912D01*
X0405613Y0069029D01*
X0405509Y0069148D01*
X0405408Y0069270D01*
X0405311Y0069395D01*
X0405216Y0069522D01*
X0405125Y0069651D01*
X0405036Y0069782D01*
X0404952Y0069916D01*
X0404870Y0070052D01*
X0404792Y0070189D01*
X0404718Y0070329D01*
X0404647Y0070471D01*
X0404579Y0070614D01*
X0404515Y0070759D01*
X0404455Y0070905D01*
X0404399Y0071053D01*
X0404346Y0071202D01*
X0404297Y0071353D01*
X0404252Y0071505D01*
X0404211Y0071658D01*
X0404173Y0071811D01*
X0404140Y0071966D01*
X0404110Y0072122D01*
X0404084Y0072278D01*
X0404063Y0072435D01*
X0404045Y0072592D01*
X0404031Y0072750D01*
X0404021Y0072908D01*
X0404015Y0073066D01*
X0404013Y0073224D01*
X0284013Y0203224D02*
X0284015Y0203382D01*
X0284021Y0203540D01*
X0284031Y0203698D01*
X0284045Y0203856D01*
X0284063Y0204013D01*
X0284084Y0204170D01*
X0284110Y0204326D01*
X0284140Y0204482D01*
X0284173Y0204637D01*
X0284211Y0204790D01*
X0284252Y0204943D01*
X0284297Y0205095D01*
X0284346Y0205246D01*
X0284399Y0205395D01*
X0284455Y0205543D01*
X0284515Y0205689D01*
X0284579Y0205834D01*
X0284647Y0205977D01*
X0284718Y0206119D01*
X0284792Y0206259D01*
X0284870Y0206396D01*
X0284952Y0206532D01*
X0285036Y0206666D01*
X0285125Y0206797D01*
X0285216Y0206926D01*
X0285311Y0207053D01*
X0285408Y0207178D01*
X0285509Y0207300D01*
X0285613Y0207419D01*
X0285720Y0207536D01*
X0285830Y0207650D01*
X0285943Y0207761D01*
X0286058Y0207870D01*
X0286176Y0207975D01*
X0286297Y0208077D01*
X0286420Y0208177D01*
X0286546Y0208273D01*
X0286674Y0208366D01*
X0286804Y0208456D01*
X0286937Y0208542D01*
X0287072Y0208626D01*
X0287208Y0208705D01*
X0287347Y0208782D01*
X0287488Y0208854D01*
X0287630Y0208924D01*
X0287774Y0208989D01*
X0287920Y0209051D01*
X0288067Y0209109D01*
X0288216Y0209164D01*
X0288366Y0209215D01*
X0288517Y0209262D01*
X0288669Y0209305D01*
X0288822Y0209344D01*
X0288977Y0209380D01*
X0289132Y0209411D01*
X0289288Y0209439D01*
X0289444Y0209463D01*
X0289601Y0209483D01*
X0289759Y0209499D01*
X0289916Y0209511D01*
X0290075Y0209519D01*
X0290233Y0209523D01*
X0290391Y0209523D01*
X0290549Y0209519D01*
X0290708Y0209511D01*
X0290865Y0209499D01*
X0291023Y0209483D01*
X0291180Y0209463D01*
X0291336Y0209439D01*
X0291492Y0209411D01*
X0291647Y0209380D01*
X0291802Y0209344D01*
X0291955Y0209305D01*
X0292107Y0209262D01*
X0292258Y0209215D01*
X0292408Y0209164D01*
X0292557Y0209109D01*
X0292704Y0209051D01*
X0292850Y0208989D01*
X0292994Y0208924D01*
X0293136Y0208854D01*
X0293277Y0208782D01*
X0293416Y0208705D01*
X0293552Y0208626D01*
X0293687Y0208542D01*
X0293820Y0208456D01*
X0293950Y0208366D01*
X0294078Y0208273D01*
X0294204Y0208177D01*
X0294327Y0208077D01*
X0294448Y0207975D01*
X0294566Y0207870D01*
X0294681Y0207761D01*
X0294794Y0207650D01*
X0294904Y0207536D01*
X0295011Y0207419D01*
X0295115Y0207300D01*
X0295216Y0207178D01*
X0295313Y0207053D01*
X0295408Y0206926D01*
X0295499Y0206797D01*
X0295588Y0206666D01*
X0295672Y0206532D01*
X0295754Y0206396D01*
X0295832Y0206259D01*
X0295906Y0206119D01*
X0295977Y0205977D01*
X0296045Y0205834D01*
X0296109Y0205689D01*
X0296169Y0205543D01*
X0296225Y0205395D01*
X0296278Y0205246D01*
X0296327Y0205095D01*
X0296372Y0204943D01*
X0296413Y0204790D01*
X0296451Y0204637D01*
X0296484Y0204482D01*
X0296514Y0204326D01*
X0296540Y0204170D01*
X0296561Y0204013D01*
X0296579Y0203856D01*
X0296593Y0203698D01*
X0296603Y0203540D01*
X0296609Y0203382D01*
X0296611Y0203224D01*
X0296609Y0203066D01*
X0296603Y0202908D01*
X0296593Y0202750D01*
X0296579Y0202592D01*
X0296561Y0202435D01*
X0296540Y0202278D01*
X0296514Y0202122D01*
X0296484Y0201966D01*
X0296451Y0201811D01*
X0296413Y0201658D01*
X0296372Y0201505D01*
X0296327Y0201353D01*
X0296278Y0201202D01*
X0296225Y0201053D01*
X0296169Y0200905D01*
X0296109Y0200759D01*
X0296045Y0200614D01*
X0295977Y0200471D01*
X0295906Y0200329D01*
X0295832Y0200189D01*
X0295754Y0200052D01*
X0295672Y0199916D01*
X0295588Y0199782D01*
X0295499Y0199651D01*
X0295408Y0199522D01*
X0295313Y0199395D01*
X0295216Y0199270D01*
X0295115Y0199148D01*
X0295011Y0199029D01*
X0294904Y0198912D01*
X0294794Y0198798D01*
X0294681Y0198687D01*
X0294566Y0198578D01*
X0294448Y0198473D01*
X0294327Y0198371D01*
X0294204Y0198271D01*
X0294078Y0198175D01*
X0293950Y0198082D01*
X0293820Y0197992D01*
X0293687Y0197906D01*
X0293552Y0197822D01*
X0293416Y0197743D01*
X0293277Y0197666D01*
X0293136Y0197594D01*
X0292994Y0197524D01*
X0292850Y0197459D01*
X0292704Y0197397D01*
X0292557Y0197339D01*
X0292408Y0197284D01*
X0292258Y0197233D01*
X0292107Y0197186D01*
X0291955Y0197143D01*
X0291802Y0197104D01*
X0291647Y0197068D01*
X0291492Y0197037D01*
X0291336Y0197009D01*
X0291180Y0196985D01*
X0291023Y0196965D01*
X0290865Y0196949D01*
X0290708Y0196937D01*
X0290549Y0196929D01*
X0290391Y0196925D01*
X0290233Y0196925D01*
X0290075Y0196929D01*
X0289916Y0196937D01*
X0289759Y0196949D01*
X0289601Y0196965D01*
X0289444Y0196985D01*
X0289288Y0197009D01*
X0289132Y0197037D01*
X0288977Y0197068D01*
X0288822Y0197104D01*
X0288669Y0197143D01*
X0288517Y0197186D01*
X0288366Y0197233D01*
X0288216Y0197284D01*
X0288067Y0197339D01*
X0287920Y0197397D01*
X0287774Y0197459D01*
X0287630Y0197524D01*
X0287488Y0197594D01*
X0287347Y0197666D01*
X0287208Y0197743D01*
X0287072Y0197822D01*
X0286937Y0197906D01*
X0286804Y0197992D01*
X0286674Y0198082D01*
X0286546Y0198175D01*
X0286420Y0198271D01*
X0286297Y0198371D01*
X0286176Y0198473D01*
X0286058Y0198578D01*
X0285943Y0198687D01*
X0285830Y0198798D01*
X0285720Y0198912D01*
X0285613Y0199029D01*
X0285509Y0199148D01*
X0285408Y0199270D01*
X0285311Y0199395D01*
X0285216Y0199522D01*
X0285125Y0199651D01*
X0285036Y0199782D01*
X0284952Y0199916D01*
X0284870Y0200052D01*
X0284792Y0200189D01*
X0284718Y0200329D01*
X0284647Y0200471D01*
X0284579Y0200614D01*
X0284515Y0200759D01*
X0284455Y0200905D01*
X0284399Y0201053D01*
X0284346Y0201202D01*
X0284297Y0201353D01*
X0284252Y0201505D01*
X0284211Y0201658D01*
X0284173Y0201811D01*
X0284140Y0201966D01*
X0284110Y0202122D01*
X0284084Y0202278D01*
X0284063Y0202435D01*
X0284045Y0202592D01*
X0284031Y0202750D01*
X0284021Y0202908D01*
X0284015Y0203066D01*
X0284013Y0203224D01*
X0379013Y0263224D02*
X0379015Y0263382D01*
X0379021Y0263540D01*
X0379031Y0263698D01*
X0379045Y0263856D01*
X0379063Y0264013D01*
X0379084Y0264170D01*
X0379110Y0264326D01*
X0379140Y0264482D01*
X0379173Y0264637D01*
X0379211Y0264790D01*
X0379252Y0264943D01*
X0379297Y0265095D01*
X0379346Y0265246D01*
X0379399Y0265395D01*
X0379455Y0265543D01*
X0379515Y0265689D01*
X0379579Y0265834D01*
X0379647Y0265977D01*
X0379718Y0266119D01*
X0379792Y0266259D01*
X0379870Y0266396D01*
X0379952Y0266532D01*
X0380036Y0266666D01*
X0380125Y0266797D01*
X0380216Y0266926D01*
X0380311Y0267053D01*
X0380408Y0267178D01*
X0380509Y0267300D01*
X0380613Y0267419D01*
X0380720Y0267536D01*
X0380830Y0267650D01*
X0380943Y0267761D01*
X0381058Y0267870D01*
X0381176Y0267975D01*
X0381297Y0268077D01*
X0381420Y0268177D01*
X0381546Y0268273D01*
X0381674Y0268366D01*
X0381804Y0268456D01*
X0381937Y0268542D01*
X0382072Y0268626D01*
X0382208Y0268705D01*
X0382347Y0268782D01*
X0382488Y0268854D01*
X0382630Y0268924D01*
X0382774Y0268989D01*
X0382920Y0269051D01*
X0383067Y0269109D01*
X0383216Y0269164D01*
X0383366Y0269215D01*
X0383517Y0269262D01*
X0383669Y0269305D01*
X0383822Y0269344D01*
X0383977Y0269380D01*
X0384132Y0269411D01*
X0384288Y0269439D01*
X0384444Y0269463D01*
X0384601Y0269483D01*
X0384759Y0269499D01*
X0384916Y0269511D01*
X0385075Y0269519D01*
X0385233Y0269523D01*
X0385391Y0269523D01*
X0385549Y0269519D01*
X0385708Y0269511D01*
X0385865Y0269499D01*
X0386023Y0269483D01*
X0386180Y0269463D01*
X0386336Y0269439D01*
X0386492Y0269411D01*
X0386647Y0269380D01*
X0386802Y0269344D01*
X0386955Y0269305D01*
X0387107Y0269262D01*
X0387258Y0269215D01*
X0387408Y0269164D01*
X0387557Y0269109D01*
X0387704Y0269051D01*
X0387850Y0268989D01*
X0387994Y0268924D01*
X0388136Y0268854D01*
X0388277Y0268782D01*
X0388416Y0268705D01*
X0388552Y0268626D01*
X0388687Y0268542D01*
X0388820Y0268456D01*
X0388950Y0268366D01*
X0389078Y0268273D01*
X0389204Y0268177D01*
X0389327Y0268077D01*
X0389448Y0267975D01*
X0389566Y0267870D01*
X0389681Y0267761D01*
X0389794Y0267650D01*
X0389904Y0267536D01*
X0390011Y0267419D01*
X0390115Y0267300D01*
X0390216Y0267178D01*
X0390313Y0267053D01*
X0390408Y0266926D01*
X0390499Y0266797D01*
X0390588Y0266666D01*
X0390672Y0266532D01*
X0390754Y0266396D01*
X0390832Y0266259D01*
X0390906Y0266119D01*
X0390977Y0265977D01*
X0391045Y0265834D01*
X0391109Y0265689D01*
X0391169Y0265543D01*
X0391225Y0265395D01*
X0391278Y0265246D01*
X0391327Y0265095D01*
X0391372Y0264943D01*
X0391413Y0264790D01*
X0391451Y0264637D01*
X0391484Y0264482D01*
X0391514Y0264326D01*
X0391540Y0264170D01*
X0391561Y0264013D01*
X0391579Y0263856D01*
X0391593Y0263698D01*
X0391603Y0263540D01*
X0391609Y0263382D01*
X0391611Y0263224D01*
X0391609Y0263066D01*
X0391603Y0262908D01*
X0391593Y0262750D01*
X0391579Y0262592D01*
X0391561Y0262435D01*
X0391540Y0262278D01*
X0391514Y0262122D01*
X0391484Y0261966D01*
X0391451Y0261811D01*
X0391413Y0261658D01*
X0391372Y0261505D01*
X0391327Y0261353D01*
X0391278Y0261202D01*
X0391225Y0261053D01*
X0391169Y0260905D01*
X0391109Y0260759D01*
X0391045Y0260614D01*
X0390977Y0260471D01*
X0390906Y0260329D01*
X0390832Y0260189D01*
X0390754Y0260052D01*
X0390672Y0259916D01*
X0390588Y0259782D01*
X0390499Y0259651D01*
X0390408Y0259522D01*
X0390313Y0259395D01*
X0390216Y0259270D01*
X0390115Y0259148D01*
X0390011Y0259029D01*
X0389904Y0258912D01*
X0389794Y0258798D01*
X0389681Y0258687D01*
X0389566Y0258578D01*
X0389448Y0258473D01*
X0389327Y0258371D01*
X0389204Y0258271D01*
X0389078Y0258175D01*
X0388950Y0258082D01*
X0388820Y0257992D01*
X0388687Y0257906D01*
X0388552Y0257822D01*
X0388416Y0257743D01*
X0388277Y0257666D01*
X0388136Y0257594D01*
X0387994Y0257524D01*
X0387850Y0257459D01*
X0387704Y0257397D01*
X0387557Y0257339D01*
X0387408Y0257284D01*
X0387258Y0257233D01*
X0387107Y0257186D01*
X0386955Y0257143D01*
X0386802Y0257104D01*
X0386647Y0257068D01*
X0386492Y0257037D01*
X0386336Y0257009D01*
X0386180Y0256985D01*
X0386023Y0256965D01*
X0385865Y0256949D01*
X0385708Y0256937D01*
X0385549Y0256929D01*
X0385391Y0256925D01*
X0385233Y0256925D01*
X0385075Y0256929D01*
X0384916Y0256937D01*
X0384759Y0256949D01*
X0384601Y0256965D01*
X0384444Y0256985D01*
X0384288Y0257009D01*
X0384132Y0257037D01*
X0383977Y0257068D01*
X0383822Y0257104D01*
X0383669Y0257143D01*
X0383517Y0257186D01*
X0383366Y0257233D01*
X0383216Y0257284D01*
X0383067Y0257339D01*
X0382920Y0257397D01*
X0382774Y0257459D01*
X0382630Y0257524D01*
X0382488Y0257594D01*
X0382347Y0257666D01*
X0382208Y0257743D01*
X0382072Y0257822D01*
X0381937Y0257906D01*
X0381804Y0257992D01*
X0381674Y0258082D01*
X0381546Y0258175D01*
X0381420Y0258271D01*
X0381297Y0258371D01*
X0381176Y0258473D01*
X0381058Y0258578D01*
X0380943Y0258687D01*
X0380830Y0258798D01*
X0380720Y0258912D01*
X0380613Y0259029D01*
X0380509Y0259148D01*
X0380408Y0259270D01*
X0380311Y0259395D01*
X0380216Y0259522D01*
X0380125Y0259651D01*
X0380036Y0259782D01*
X0379952Y0259916D01*
X0379870Y0260052D01*
X0379792Y0260189D01*
X0379718Y0260329D01*
X0379647Y0260471D01*
X0379579Y0260614D01*
X0379515Y0260759D01*
X0379455Y0260905D01*
X0379399Y0261053D01*
X0379346Y0261202D01*
X0379297Y0261353D01*
X0379252Y0261505D01*
X0379211Y0261658D01*
X0379173Y0261811D01*
X0379140Y0261966D01*
X0379110Y0262122D01*
X0379084Y0262278D01*
X0379063Y0262435D01*
X0379045Y0262592D01*
X0379031Y0262750D01*
X0379021Y0262908D01*
X0379015Y0263066D01*
X0379013Y0263224D01*
X0084013Y0263224D02*
X0084015Y0263382D01*
X0084021Y0263540D01*
X0084031Y0263698D01*
X0084045Y0263856D01*
X0084063Y0264013D01*
X0084084Y0264170D01*
X0084110Y0264326D01*
X0084140Y0264482D01*
X0084173Y0264637D01*
X0084211Y0264790D01*
X0084252Y0264943D01*
X0084297Y0265095D01*
X0084346Y0265246D01*
X0084399Y0265395D01*
X0084455Y0265543D01*
X0084515Y0265689D01*
X0084579Y0265834D01*
X0084647Y0265977D01*
X0084718Y0266119D01*
X0084792Y0266259D01*
X0084870Y0266396D01*
X0084952Y0266532D01*
X0085036Y0266666D01*
X0085125Y0266797D01*
X0085216Y0266926D01*
X0085311Y0267053D01*
X0085408Y0267178D01*
X0085509Y0267300D01*
X0085613Y0267419D01*
X0085720Y0267536D01*
X0085830Y0267650D01*
X0085943Y0267761D01*
X0086058Y0267870D01*
X0086176Y0267975D01*
X0086297Y0268077D01*
X0086420Y0268177D01*
X0086546Y0268273D01*
X0086674Y0268366D01*
X0086804Y0268456D01*
X0086937Y0268542D01*
X0087072Y0268626D01*
X0087208Y0268705D01*
X0087347Y0268782D01*
X0087488Y0268854D01*
X0087630Y0268924D01*
X0087774Y0268989D01*
X0087920Y0269051D01*
X0088067Y0269109D01*
X0088216Y0269164D01*
X0088366Y0269215D01*
X0088517Y0269262D01*
X0088669Y0269305D01*
X0088822Y0269344D01*
X0088977Y0269380D01*
X0089132Y0269411D01*
X0089288Y0269439D01*
X0089444Y0269463D01*
X0089601Y0269483D01*
X0089759Y0269499D01*
X0089916Y0269511D01*
X0090075Y0269519D01*
X0090233Y0269523D01*
X0090391Y0269523D01*
X0090549Y0269519D01*
X0090708Y0269511D01*
X0090865Y0269499D01*
X0091023Y0269483D01*
X0091180Y0269463D01*
X0091336Y0269439D01*
X0091492Y0269411D01*
X0091647Y0269380D01*
X0091802Y0269344D01*
X0091955Y0269305D01*
X0092107Y0269262D01*
X0092258Y0269215D01*
X0092408Y0269164D01*
X0092557Y0269109D01*
X0092704Y0269051D01*
X0092850Y0268989D01*
X0092994Y0268924D01*
X0093136Y0268854D01*
X0093277Y0268782D01*
X0093416Y0268705D01*
X0093552Y0268626D01*
X0093687Y0268542D01*
X0093820Y0268456D01*
X0093950Y0268366D01*
X0094078Y0268273D01*
X0094204Y0268177D01*
X0094327Y0268077D01*
X0094448Y0267975D01*
X0094566Y0267870D01*
X0094681Y0267761D01*
X0094794Y0267650D01*
X0094904Y0267536D01*
X0095011Y0267419D01*
X0095115Y0267300D01*
X0095216Y0267178D01*
X0095313Y0267053D01*
X0095408Y0266926D01*
X0095499Y0266797D01*
X0095588Y0266666D01*
X0095672Y0266532D01*
X0095754Y0266396D01*
X0095832Y0266259D01*
X0095906Y0266119D01*
X0095977Y0265977D01*
X0096045Y0265834D01*
X0096109Y0265689D01*
X0096169Y0265543D01*
X0096225Y0265395D01*
X0096278Y0265246D01*
X0096327Y0265095D01*
X0096372Y0264943D01*
X0096413Y0264790D01*
X0096451Y0264637D01*
X0096484Y0264482D01*
X0096514Y0264326D01*
X0096540Y0264170D01*
X0096561Y0264013D01*
X0096579Y0263856D01*
X0096593Y0263698D01*
X0096603Y0263540D01*
X0096609Y0263382D01*
X0096611Y0263224D01*
X0096609Y0263066D01*
X0096603Y0262908D01*
X0096593Y0262750D01*
X0096579Y0262592D01*
X0096561Y0262435D01*
X0096540Y0262278D01*
X0096514Y0262122D01*
X0096484Y0261966D01*
X0096451Y0261811D01*
X0096413Y0261658D01*
X0096372Y0261505D01*
X0096327Y0261353D01*
X0096278Y0261202D01*
X0096225Y0261053D01*
X0096169Y0260905D01*
X0096109Y0260759D01*
X0096045Y0260614D01*
X0095977Y0260471D01*
X0095906Y0260329D01*
X0095832Y0260189D01*
X0095754Y0260052D01*
X0095672Y0259916D01*
X0095588Y0259782D01*
X0095499Y0259651D01*
X0095408Y0259522D01*
X0095313Y0259395D01*
X0095216Y0259270D01*
X0095115Y0259148D01*
X0095011Y0259029D01*
X0094904Y0258912D01*
X0094794Y0258798D01*
X0094681Y0258687D01*
X0094566Y0258578D01*
X0094448Y0258473D01*
X0094327Y0258371D01*
X0094204Y0258271D01*
X0094078Y0258175D01*
X0093950Y0258082D01*
X0093820Y0257992D01*
X0093687Y0257906D01*
X0093552Y0257822D01*
X0093416Y0257743D01*
X0093277Y0257666D01*
X0093136Y0257594D01*
X0092994Y0257524D01*
X0092850Y0257459D01*
X0092704Y0257397D01*
X0092557Y0257339D01*
X0092408Y0257284D01*
X0092258Y0257233D01*
X0092107Y0257186D01*
X0091955Y0257143D01*
X0091802Y0257104D01*
X0091647Y0257068D01*
X0091492Y0257037D01*
X0091336Y0257009D01*
X0091180Y0256985D01*
X0091023Y0256965D01*
X0090865Y0256949D01*
X0090708Y0256937D01*
X0090549Y0256929D01*
X0090391Y0256925D01*
X0090233Y0256925D01*
X0090075Y0256929D01*
X0089916Y0256937D01*
X0089759Y0256949D01*
X0089601Y0256965D01*
X0089444Y0256985D01*
X0089288Y0257009D01*
X0089132Y0257037D01*
X0088977Y0257068D01*
X0088822Y0257104D01*
X0088669Y0257143D01*
X0088517Y0257186D01*
X0088366Y0257233D01*
X0088216Y0257284D01*
X0088067Y0257339D01*
X0087920Y0257397D01*
X0087774Y0257459D01*
X0087630Y0257524D01*
X0087488Y0257594D01*
X0087347Y0257666D01*
X0087208Y0257743D01*
X0087072Y0257822D01*
X0086937Y0257906D01*
X0086804Y0257992D01*
X0086674Y0258082D01*
X0086546Y0258175D01*
X0086420Y0258271D01*
X0086297Y0258371D01*
X0086176Y0258473D01*
X0086058Y0258578D01*
X0085943Y0258687D01*
X0085830Y0258798D01*
X0085720Y0258912D01*
X0085613Y0259029D01*
X0085509Y0259148D01*
X0085408Y0259270D01*
X0085311Y0259395D01*
X0085216Y0259522D01*
X0085125Y0259651D01*
X0085036Y0259782D01*
X0084952Y0259916D01*
X0084870Y0260052D01*
X0084792Y0260189D01*
X0084718Y0260329D01*
X0084647Y0260471D01*
X0084579Y0260614D01*
X0084515Y0260759D01*
X0084455Y0260905D01*
X0084399Y0261053D01*
X0084346Y0261202D01*
X0084297Y0261353D01*
X0084252Y0261505D01*
X0084211Y0261658D01*
X0084173Y0261811D01*
X0084140Y0261966D01*
X0084110Y0262122D01*
X0084084Y0262278D01*
X0084063Y0262435D01*
X0084045Y0262592D01*
X0084031Y0262750D01*
X0084021Y0262908D01*
X0084015Y0263066D01*
X0084013Y0263224D01*
M02*
