%
M48
M72
T01C0.02362
T02C0.02756
T03C0.03150
T04C0.03200
T05C0.03543
T06C0.04000
T07C0.04331
T08C0.05200
T09C0.11811
T10C0.12598
T11C0.19685
%
T01
X124800Y47476
X146453Y53381
X301965Y57318
X319682Y51413
X303934Y33696
X378737Y59287
X429918Y51413
X455509Y65192
X477162Y80940
X488973Y80940
X492910Y124247
X449603Y149838
X449603Y195113
X418107Y236452
X465351Y258106
X490942Y250231
X490942Y287633
T02
X478383Y297476
X478383Y319129
X448383Y319129
X448383Y297476
X428107Y297476
X408107Y297476
X487005Y231767
X468383Y224641
X458383Y224641
X487005Y201767
X482320Y136058
X452320Y136058
X439760Y115625
X439760Y85625
X447635Y70350
X462162Y71098
X462162Y55350
X462162Y39602
X447635Y40350
X462162Y23854
X492162Y23854
X492162Y39602
X492162Y55350
X492162Y71098
X351178Y115153
X329524Y115153
X329524Y145153
X351178Y145153
X285469Y122279
X255469Y122279
X79524Y116531
X79524Y106531
X79524Y96531
X55902Y134838
X55902Y164838
X53934Y182082
X53934Y212082
X55902Y229326
X55902Y259326
T03
X105272Y195507
X105272Y185507
X105272Y175507
X105272Y165507
X105272Y155507
X105272Y145507
X105272Y135507
X105272Y125507
X105272Y115507
X105272Y105507
X105272Y95507
X105272Y85507
X105272Y75507
X105272Y65507
X105272Y55507
X105272Y45507
T04
X448383Y245074
X448383Y255074
X448383Y265074
X448383Y275074
X478383Y275074
X478383Y265074
X478383Y255074
X478383Y245074
X482320Y121531
X482320Y111531
X482320Y101531
X482320Y91531
X452320Y91531
X452320Y101531
X452320Y111531
X452320Y121531
T05
X208540Y21885
X198540Y21885
X198540Y321098
X208540Y321098
T06
X210312Y263224
X220312Y263224
X230312Y263224
X240312Y263224
X250312Y263224
X260312Y263224
X270312Y263224
X280312Y263224
X300312Y263224
X310312Y263224
X320312Y263224
X330312Y263224
X340312Y263224
X350312Y263224
X360312Y263224
X370312Y263224
X400312Y263224
X410312Y263224
X410312Y253224
X400312Y253224
X400312Y243224
X410312Y243224
X410312Y233224
X400312Y233224
X400312Y223224
X410312Y223224
X410312Y213224
X400312Y213224
X400312Y203224
X410312Y203224
X410312Y193224
X400312Y193224
X400312Y183224
X410312Y183224
X410312Y173224
X400312Y173224
X400312Y163224
X410312Y163224
X410312Y153224
X400312Y153224
X400312Y143224
X410312Y143224
X410312Y133224
X400312Y133224
X400312Y123224
X410312Y123224
X410312Y113224
X400312Y113224
X400312Y103224
X410312Y103224
X410312Y93224
X400312Y93224
X390312Y73224
X380312Y73224
X370312Y73224
X360312Y73224
X350312Y73224
X340312Y73224
X330312Y73224
X320312Y73224
X300312Y73224
X290312Y73224
X280312Y73224
X270312Y73224
X260312Y73224
X250312Y73224
X240312Y73224
X230312Y73224
X210312Y73224
X200312Y73224
X190312Y73224
X180312Y73224
X170312Y73224
X160312Y73224
X164312Y263224
X174312Y263224
X184312Y263224
X194312Y263224
X154312Y263224
X144312Y263224
X134312Y263224
X124312Y263224
T07
X252438Y47476
X252438Y21885
X292438Y21885
X292438Y47476
T08
X337341Y31728
X357141Y31728
X394427Y31728
X414227Y31728
T09
X227005Y24011
X105272Y24011
X105272Y318972
X227005Y318972
T10
X90312Y263224
X290312Y203224
X385312Y263224
X290312Y93224
X410312Y73224
X85312Y73224
T11
X55902Y35665
X55902Y299444
X477162Y171491
M30
