G75*
%MOIN*%
%OFA0B0*%
%FSLAX25Y25*%
%IPPOS*%
%LPD*%
%AMOC8*
5,1,8,0,0,1.08239X$1,22.5*
%
%ADD10C,0.07600*%
%ADD11C,0.06350*%
%ADD12C,0.08350*%
%ADD13OC8,0.05906*%
%ADD14C,0.07400*%
%ADD15OC8,0.07400*%
%ADD16C,0.07000*%
%ADD17OC8,0.17717*%
%ADD18OC8,0.07600*%
%ADD19C,0.06600*%
%ADD20C,0.02400*%
%ADD21OC8,0.05600*%
%ADD22C,0.04000*%
%ADD23C,0.03200*%
%ADD24OC8,0.39370*%
D10*
X0252438Y0021885D03*
X0252438Y0047476D03*
X0292438Y0047476D03*
X0292438Y0021885D03*
D11*
X0449145Y0091531D02*
X0455494Y0091531D01*
X0455494Y0101531D02*
X0449145Y0101531D01*
X0449145Y0111531D02*
X0455494Y0111531D01*
X0455494Y0121531D02*
X0449145Y0121531D01*
X0479145Y0121531D02*
X0485494Y0121531D01*
X0485494Y0111531D02*
X0479145Y0111531D01*
X0479145Y0101531D02*
X0485494Y0101531D01*
X0485494Y0091531D02*
X0479145Y0091531D01*
X0481557Y0245074D02*
X0475208Y0245074D01*
X0475208Y0255074D02*
X0481557Y0255074D01*
X0481557Y0265074D02*
X0475208Y0265074D01*
X0475208Y0275074D02*
X0481557Y0275074D01*
X0451557Y0275074D02*
X0445208Y0275074D01*
X0445208Y0265074D02*
X0451557Y0265074D01*
X0451557Y0255074D02*
X0445208Y0255074D01*
X0445208Y0245074D02*
X0451557Y0245074D01*
D12*
X0414227Y0035902D02*
X0414227Y0027553D01*
X0394427Y0027553D02*
X0394427Y0035902D01*
X0357141Y0035902D02*
X0357141Y0027553D01*
X0337341Y0027553D02*
X0337341Y0035902D01*
D13*
X0439760Y0085625D03*
X0447635Y0070350D03*
X0462162Y0071098D03*
X0462162Y0055350D03*
X0462162Y0039602D03*
X0447635Y0040350D03*
X0462162Y0023854D03*
X0492162Y0023854D03*
X0492162Y0039602D03*
X0492162Y0055350D03*
X0492162Y0071098D03*
X0439760Y0115625D03*
X0452320Y0136058D03*
X0482320Y0136058D03*
X0487005Y0201767D03*
X0468383Y0224641D03*
X0458383Y0224641D03*
X0487005Y0231767D03*
X0478383Y0297476D03*
X0478383Y0319129D03*
X0448383Y0319129D03*
X0448383Y0297476D03*
X0428107Y0297476D03*
X0408107Y0297476D03*
X0351178Y0145153D03*
X0329524Y0145153D03*
X0329524Y0115153D03*
X0351178Y0115153D03*
X0285469Y0122279D03*
X0255469Y0122279D03*
X0055902Y0134838D03*
X0055902Y0164838D03*
X0053934Y0182082D03*
X0053934Y0212082D03*
X0055902Y0229326D03*
X0055902Y0259326D03*
D14*
X0124312Y0263224D03*
X0134312Y0263224D03*
X0144312Y0263224D03*
X0154312Y0263224D03*
X0164312Y0263224D03*
X0174312Y0263224D03*
X0184312Y0263224D03*
X0194312Y0263224D03*
X0210312Y0263224D03*
X0220312Y0263224D03*
X0230312Y0263224D03*
X0240312Y0263224D03*
X0250312Y0263224D03*
X0260312Y0263224D03*
X0270312Y0263224D03*
X0280312Y0263224D03*
X0300312Y0263224D03*
X0310312Y0263224D03*
X0320312Y0263224D03*
X0330312Y0263224D03*
X0340312Y0263224D03*
X0350312Y0263224D03*
X0360312Y0263224D03*
X0370312Y0263224D03*
X0400312Y0263224D03*
X0410312Y0263224D03*
X0410312Y0093224D03*
X0400312Y0093224D03*
X0390312Y0073224D03*
X0380312Y0073224D03*
X0370312Y0073224D03*
X0360312Y0073224D03*
X0350312Y0073224D03*
X0340312Y0073224D03*
X0330312Y0073224D03*
X0320312Y0073224D03*
X0300312Y0073224D03*
X0290312Y0073224D03*
X0280312Y0073224D03*
X0270312Y0073224D03*
X0260312Y0073224D03*
X0250312Y0073224D03*
X0240312Y0073224D03*
X0230312Y0073224D03*
X0210312Y0073224D03*
X0200312Y0073224D03*
X0190312Y0073224D03*
X0180312Y0073224D03*
X0170312Y0073224D03*
X0160312Y0073224D03*
D15*
X0400312Y0103224D03*
X0410312Y0103224D03*
X0410312Y0113224D03*
X0400312Y0113224D03*
X0400312Y0123224D03*
X0410312Y0123224D03*
X0410312Y0133224D03*
X0410312Y0143224D03*
X0400312Y0143224D03*
X0400312Y0133224D03*
X0400312Y0153224D03*
X0410312Y0153224D03*
X0410312Y0163224D03*
X0400312Y0163224D03*
X0400312Y0173224D03*
X0400312Y0183224D03*
X0410312Y0183224D03*
X0410312Y0173224D03*
X0410312Y0193224D03*
X0400312Y0193224D03*
X0400312Y0203224D03*
X0410312Y0203224D03*
X0410312Y0213224D03*
X0400312Y0213224D03*
X0400312Y0223224D03*
X0400312Y0233224D03*
X0410312Y0233224D03*
X0410312Y0223224D03*
X0410312Y0243224D03*
X0400312Y0243224D03*
X0400312Y0253224D03*
X0410312Y0253224D03*
D16*
X0108772Y0195507D02*
X0101772Y0195507D01*
X0101772Y0185507D02*
X0108772Y0185507D01*
X0108772Y0175507D02*
X0101772Y0175507D01*
X0101772Y0165507D02*
X0108772Y0165507D01*
X0108772Y0155507D02*
X0101772Y0155507D01*
X0101772Y0145507D02*
X0108772Y0145507D01*
X0108772Y0135507D02*
X0101772Y0135507D01*
X0101772Y0125507D02*
X0108772Y0125507D01*
X0108772Y0115507D02*
X0101772Y0115507D01*
X0101772Y0105507D02*
X0108772Y0105507D01*
X0108772Y0095507D02*
X0101772Y0095507D01*
X0101772Y0085507D02*
X0108772Y0085507D01*
X0108772Y0075507D02*
X0101772Y0075507D01*
X0101772Y0065507D02*
X0108772Y0065507D01*
X0108772Y0055507D02*
X0101772Y0055507D01*
X0101772Y0045507D02*
X0108772Y0045507D01*
D17*
X0105272Y0024011D03*
X0227005Y0024011D03*
X0227005Y0318972D03*
X0105272Y0318972D03*
D18*
X0198540Y0321098D03*
X0208540Y0321098D03*
X0208540Y0021885D03*
X0198540Y0021885D03*
D19*
X0079524Y0096531D03*
X0079524Y0106531D03*
X0079524Y0116531D03*
D20*
X0079524Y0123031D01*
X0079098Y0123031D01*
X0078253Y0122919D01*
X0077430Y0122699D01*
X0076643Y0122373D01*
X0075905Y0121947D01*
X0075229Y0121428D01*
X0074627Y0120826D01*
X0074108Y0120150D01*
X0073682Y0119412D01*
X0073356Y0118625D01*
X0073135Y0117802D01*
X0073024Y0116957D01*
X0073024Y0116531D01*
X0079524Y0116531D01*
X0079524Y0116531D01*
X0079524Y0116531D01*
X0079524Y0123031D01*
X0079950Y0123031D01*
X0080795Y0122919D01*
X0081618Y0122699D01*
X0082405Y0122373D01*
X0083143Y0121947D01*
X0083819Y0121428D01*
X0084422Y0120826D01*
X0084940Y0120150D01*
X0085366Y0119412D01*
X0085693Y0118625D01*
X0085913Y0117802D01*
X0086024Y0116957D01*
X0086024Y0116531D01*
X0079524Y0116531D01*
X0073024Y0116531D01*
X0073024Y0116105D01*
X0073135Y0115260D01*
X0073356Y0114437D01*
X0073682Y0113650D01*
X0074026Y0113054D01*
X0072318Y0111346D01*
X0071024Y0108221D01*
X0071024Y0104840D01*
X0072318Y0101716D01*
X0072503Y0101531D01*
X0072318Y0101346D01*
X0071024Y0098221D01*
X0071024Y0094840D01*
X0072318Y0091716D01*
X0074709Y0089325D01*
X0077834Y0088031D01*
X0081215Y0088031D01*
X0084339Y0089325D01*
X0086730Y0091716D01*
X0088024Y0094840D01*
X0088024Y0098221D01*
X0086730Y0101346D01*
X0086545Y0101531D01*
X0086730Y0101716D01*
X0088024Y0104840D01*
X0088024Y0108221D01*
X0086730Y0111346D01*
X0085022Y0113054D01*
X0085366Y0113650D01*
X0085693Y0114437D01*
X0085913Y0115260D01*
X0086024Y0116105D01*
X0086024Y0116531D01*
X0079524Y0116531D01*
X0079524Y0116531D01*
X0079524Y0118007D02*
X0079524Y0118007D01*
X0079524Y0120406D02*
X0079524Y0120406D01*
X0079524Y0122804D02*
X0079524Y0122804D01*
X0077823Y0122804D02*
X0036012Y0122804D01*
X0036012Y0120406D02*
X0074304Y0120406D01*
X0073191Y0118007D02*
X0036012Y0118007D01*
X0036012Y0115609D02*
X0073090Y0115609D01*
X0073936Y0113210D02*
X0036012Y0113210D01*
X0036012Y0110811D02*
X0072097Y0110811D01*
X0071104Y0108413D02*
X0036012Y0108413D01*
X0036012Y0106014D02*
X0071024Y0106014D01*
X0071531Y0103616D02*
X0036012Y0103616D01*
X0036012Y0101217D02*
X0072265Y0101217D01*
X0071272Y0098819D02*
X0036012Y0098819D01*
X0036012Y0096420D02*
X0071024Y0096420D01*
X0071363Y0094022D02*
X0036012Y0094022D01*
X0036012Y0091623D02*
X0072411Y0091623D01*
X0074950Y0089225D02*
X0036012Y0089225D01*
X0036012Y0086826D02*
X0093072Y0086826D01*
X0093072Y0087238D02*
X0093072Y0083777D01*
X0094397Y0080579D01*
X0094469Y0080507D01*
X0094397Y0080435D01*
X0094387Y0080411D01*
X0092372Y0082425D01*
X0089750Y0083939D01*
X0086826Y0084723D01*
X0083798Y0084723D01*
X0080873Y0083939D01*
X0078251Y0082425D01*
X0076110Y0080284D01*
X0074596Y0077662D01*
X0073812Y0074738D01*
X0073812Y0071710D01*
X0074596Y0068785D01*
X0076110Y0066163D01*
X0078251Y0064022D01*
X0080873Y0062508D01*
X0083798Y0061724D01*
X0086826Y0061724D01*
X0089750Y0062508D01*
X0092372Y0064022D01*
X0093072Y0064722D01*
X0093072Y0063777D01*
X0094397Y0060579D01*
X0094469Y0060507D01*
X0094397Y0060435D01*
X0093072Y0057238D01*
X0093072Y0053777D01*
X0094397Y0050579D01*
X0096024Y0048951D01*
X0095750Y0048477D01*
X0095414Y0047665D01*
X0095187Y0046817D01*
X0095072Y0045946D01*
X0095072Y0045507D01*
X0095072Y0045068D01*
X0095187Y0044197D01*
X0095414Y0043349D01*
X0095750Y0042537D01*
X0096190Y0041777D01*
X0096724Y0041080D01*
X0097345Y0040459D01*
X0098042Y0039924D01*
X0098803Y0039485D01*
X0099614Y0039149D01*
X0100462Y0038922D01*
X0101333Y0038807D01*
X0105272Y0038807D01*
X0105272Y0045507D01*
X0095072Y0045507D01*
X0105272Y0045507D01*
X0105272Y0045507D01*
X0105272Y0045507D01*
X0105272Y0038807D01*
X0109211Y0038807D01*
X0110082Y0038922D01*
X0110931Y0039149D01*
X0111742Y0039485D01*
X0112503Y0039924D01*
X0113199Y0040459D01*
X0113820Y0041080D01*
X0114355Y0041777D01*
X0114794Y0042537D01*
X0115130Y0043349D01*
X0115358Y0044197D01*
X0115472Y0045068D01*
X0115472Y0045507D01*
X0105272Y0045507D01*
X0105272Y0045507D01*
X0115472Y0045507D01*
X0115472Y0045946D01*
X0115358Y0046817D01*
X0115130Y0047665D01*
X0114794Y0048477D01*
X0114520Y0048951D01*
X0116148Y0050579D01*
X0117472Y0053777D01*
X0117472Y0057238D01*
X0116148Y0060435D01*
X0116076Y0060507D01*
X0116148Y0060579D01*
X0117472Y0063777D01*
X0117472Y0067238D01*
X0116148Y0070435D01*
X0116076Y0070507D01*
X0116148Y0070579D01*
X0117472Y0073777D01*
X0117472Y0077238D01*
X0116148Y0080435D01*
X0116076Y0080507D01*
X0116148Y0080579D01*
X0117472Y0083777D01*
X0117472Y0087238D01*
X0116148Y0090435D01*
X0116076Y0090507D01*
X0116148Y0090579D01*
X0117472Y0093777D01*
X0117472Y0097238D01*
X0116148Y0100435D01*
X0116076Y0100507D01*
X0116148Y0100579D01*
X0117472Y0103777D01*
X0117472Y0107238D01*
X0116148Y0110435D01*
X0116076Y0110507D01*
X0116148Y0110579D01*
X0117472Y0113777D01*
X0117472Y0117238D01*
X0116148Y0120435D01*
X0116076Y0120507D01*
X0116148Y0120579D01*
X0117472Y0123777D01*
X0117472Y0127238D01*
X0116148Y0130435D01*
X0116076Y0130507D01*
X0116148Y0130579D01*
X0117472Y0133777D01*
X0117472Y0137238D01*
X0116148Y0140435D01*
X0116076Y0140507D01*
X0116148Y0140579D01*
X0117472Y0143777D01*
X0117472Y0147238D01*
X0116148Y0150435D01*
X0116076Y0150507D01*
X0116148Y0150579D01*
X0117472Y0153777D01*
X0117472Y0157238D01*
X0116148Y0160435D01*
X0116076Y0160507D01*
X0116148Y0160579D01*
X0117472Y0163777D01*
X0117472Y0167238D01*
X0116148Y0170435D01*
X0116076Y0170507D01*
X0116148Y0170579D01*
X0117472Y0173777D01*
X0117472Y0177238D01*
X0116148Y0180435D01*
X0116076Y0180507D01*
X0116148Y0180579D01*
X0117472Y0183777D01*
X0117472Y0187238D01*
X0116148Y0190435D01*
X0114520Y0192063D01*
X0114794Y0192537D01*
X0115130Y0193349D01*
X0115358Y0194197D01*
X0115472Y0195068D01*
X0115472Y0195507D01*
X0105272Y0195507D01*
X0095072Y0195507D01*
X0095072Y0195068D01*
X0095187Y0194197D01*
X0095414Y0193349D01*
X0095750Y0192537D01*
X0096024Y0192063D01*
X0094397Y0190435D01*
X0093072Y0187238D01*
X0093072Y0183777D01*
X0094397Y0180579D01*
X0094469Y0180507D01*
X0094397Y0180435D01*
X0093072Y0177238D01*
X0093072Y0173777D01*
X0094397Y0170579D01*
X0094469Y0170507D01*
X0094397Y0170435D01*
X0093072Y0167238D01*
X0093072Y0163777D01*
X0094397Y0160579D01*
X0094469Y0160507D01*
X0094397Y0160435D01*
X0093072Y0157238D01*
X0093072Y0153777D01*
X0094397Y0150579D01*
X0094469Y0150507D01*
X0094397Y0150435D01*
X0093072Y0147238D01*
X0093072Y0143777D01*
X0094397Y0140579D01*
X0094469Y0140507D01*
X0094397Y0140435D01*
X0093072Y0137238D01*
X0093072Y0133777D01*
X0094397Y0130579D01*
X0094469Y0130507D01*
X0094397Y0130435D01*
X0093072Y0127238D01*
X0093072Y0123777D01*
X0094397Y0120579D01*
X0094469Y0120507D01*
X0094397Y0120435D01*
X0093072Y0117238D01*
X0093072Y0113777D01*
X0094397Y0110579D01*
X0094469Y0110507D01*
X0094397Y0110435D01*
X0093072Y0107238D01*
X0093072Y0103777D01*
X0094397Y0100579D01*
X0094469Y0100507D01*
X0094397Y0100435D01*
X0093072Y0097238D01*
X0093072Y0093777D01*
X0094397Y0090579D01*
X0094469Y0090507D01*
X0094397Y0090435D01*
X0093072Y0087238D01*
X0093895Y0089225D02*
X0084098Y0089225D01*
X0086638Y0091623D02*
X0093964Y0091623D01*
X0093072Y0094022D02*
X0087685Y0094022D01*
X0088024Y0096420D02*
X0093072Y0096420D01*
X0093727Y0098819D02*
X0087777Y0098819D01*
X0086783Y0101217D02*
X0094132Y0101217D01*
X0093139Y0103616D02*
X0087517Y0103616D01*
X0088024Y0106014D02*
X0093072Y0106014D01*
X0093559Y0108413D02*
X0087945Y0108413D01*
X0086951Y0110811D02*
X0094300Y0110811D01*
X0093307Y0113210D02*
X0085113Y0113210D01*
X0085959Y0115609D02*
X0093072Y0115609D01*
X0093391Y0118007D02*
X0085858Y0118007D01*
X0084744Y0120406D02*
X0094385Y0120406D01*
X0093475Y0122804D02*
X0081226Y0122804D01*
X0093072Y0125203D02*
X0036012Y0125203D01*
X0036012Y0127601D02*
X0051609Y0127601D01*
X0052525Y0126685D02*
X0047749Y0131461D01*
X0047749Y0138215D01*
X0052525Y0142991D01*
X0059279Y0142991D01*
X0064055Y0138215D01*
X0064055Y0131461D01*
X0059279Y0126685D01*
X0052525Y0126685D01*
X0049211Y0130000D02*
X0036012Y0130000D01*
X0036012Y0132398D02*
X0047749Y0132398D01*
X0047749Y0134797D02*
X0036012Y0134797D01*
X0036012Y0137195D02*
X0047749Y0137195D01*
X0049128Y0139594D02*
X0036012Y0139594D01*
X0036012Y0141992D02*
X0051527Y0141992D01*
X0060278Y0141992D02*
X0093811Y0141992D01*
X0094048Y0139594D02*
X0062676Y0139594D01*
X0064055Y0137195D02*
X0093072Y0137195D01*
X0093072Y0134797D02*
X0064055Y0134797D01*
X0064055Y0132398D02*
X0093643Y0132398D01*
X0094216Y0130000D02*
X0062594Y0130000D01*
X0060195Y0127601D02*
X0093223Y0127601D01*
X0093072Y0144391D02*
X0036012Y0144391D01*
X0036012Y0146789D02*
X0093072Y0146789D01*
X0093880Y0149188D02*
X0036012Y0149188D01*
X0036012Y0151586D02*
X0093980Y0151586D01*
X0093072Y0153985D02*
X0036012Y0153985D01*
X0036012Y0156383D02*
X0093072Y0156383D01*
X0093712Y0158782D02*
X0061376Y0158782D01*
X0059279Y0156685D02*
X0052525Y0156685D01*
X0047749Y0161461D01*
X0047749Y0163940D01*
X0038666Y0173023D01*
X0037691Y0175376D01*
X0037691Y0239694D01*
X0038666Y0242046D01*
X0040466Y0243846D01*
X0048340Y0251720D01*
X0050692Y0252694D01*
X0051004Y0252694D01*
X0047749Y0255949D01*
X0047749Y0262703D01*
X0052525Y0267479D01*
X0059279Y0267479D01*
X0064055Y0262703D01*
X0064055Y0255949D01*
X0060800Y0252694D01*
X0061125Y0252694D01*
X0065250Y0256819D01*
X0065250Y0273158D01*
X0065831Y0274559D01*
X0045595Y0274559D01*
X0036012Y0284142D01*
X0036012Y0050967D01*
X0045595Y0060550D01*
X0066210Y0060550D01*
X0080787Y0045972D01*
X0080787Y0025357D01*
X0071204Y0015774D01*
X0093628Y0015774D01*
X0091214Y0018188D01*
X0091214Y0029834D01*
X0099449Y0038069D01*
X0111095Y0038069D01*
X0119331Y0029834D01*
X0119331Y0018188D01*
X0116917Y0015774D01*
X0191923Y0015774D01*
X0189540Y0018157D01*
X0189540Y0025613D01*
X0194360Y0030433D01*
X0160769Y0030433D01*
X0158123Y0031529D01*
X0144271Y0045381D01*
X0143140Y0045381D01*
X0138453Y0050067D01*
X0138453Y0056695D01*
X0143140Y0061381D01*
X0149767Y0061381D01*
X0154453Y0056695D01*
X0154453Y0055563D01*
X0165184Y0044833D01*
X0243791Y0044833D01*
X0243438Y0045685D01*
X0243438Y0049266D01*
X0244808Y0052574D01*
X0247340Y0055105D01*
X0250647Y0056476D01*
X0254228Y0056476D01*
X0257536Y0055105D01*
X0260067Y0052574D01*
X0261438Y0049266D01*
X0261438Y0045685D01*
X0261085Y0044833D01*
X0285955Y0044833D01*
X0285795Y0045221D01*
X0285557Y0046107D01*
X0285438Y0047017D01*
X0285438Y0047476D01*
X0292438Y0047476D01*
X0292438Y0047476D01*
X0292438Y0054476D01*
X0292896Y0054476D01*
X0293806Y0054356D01*
X0294693Y0054118D01*
X0295540Y0053767D01*
X0296335Y0053308D01*
X0297063Y0052750D01*
X0297712Y0052101D01*
X0298270Y0051373D01*
X0298729Y0050578D01*
X0299080Y0049730D01*
X0299318Y0048844D01*
X0299438Y0047934D01*
X0299438Y0047476D01*
X0292438Y0047476D01*
X0292438Y0047476D01*
X0292438Y0054476D01*
X0291979Y0054476D01*
X0291069Y0054356D01*
X0290183Y0054118D01*
X0289335Y0053767D01*
X0288540Y0053308D01*
X0287812Y0052750D01*
X0287163Y0052101D01*
X0286605Y0051373D01*
X0286146Y0050578D01*
X0285795Y0049730D01*
X0285557Y0048844D01*
X0285438Y0047934D01*
X0285438Y0047476D01*
X0292438Y0047476D01*
X0299438Y0047476D01*
X0299438Y0047017D01*
X0299318Y0046107D01*
X0299080Y0045221D01*
X0298920Y0044833D01*
X0301429Y0044833D01*
X0304075Y0043737D01*
X0306101Y0041712D01*
X0306116Y0041696D01*
X0307247Y0041696D01*
X0311934Y0037010D01*
X0311934Y0030382D01*
X0307247Y0025696D01*
X0300620Y0025696D01*
X0295934Y0030382D01*
X0295934Y0030433D01*
X0255319Y0030433D01*
X0257536Y0029515D01*
X0260067Y0026983D01*
X0261438Y0023675D01*
X0261438Y0020095D01*
X0260067Y0016787D01*
X0259055Y0015774D01*
X0289022Y0015774D01*
X0288540Y0016052D01*
X0287812Y0016611D01*
X0287163Y0017260D01*
X0286605Y0017988D01*
X0286146Y0018782D01*
X0285795Y0019630D01*
X0285557Y0020516D01*
X0285438Y0021426D01*
X0285438Y0021885D01*
X0292438Y0021885D01*
X0292438Y0021885D01*
X0299438Y0021885D01*
X0299438Y0022344D01*
X0299318Y0023254D01*
X0299080Y0024140D01*
X0298729Y0024988D01*
X0298270Y0025782D01*
X0297712Y0026510D01*
X0297063Y0027159D01*
X0296335Y0027718D01*
X0295540Y0028177D01*
X0294693Y0028528D01*
X0293806Y0028765D01*
X0292896Y0028885D01*
X0292438Y0028885D01*
X0292438Y0021885D01*
X0299438Y0021885D01*
X0299438Y0021426D01*
X0299318Y0020516D01*
X0299080Y0019630D01*
X0298729Y0018782D01*
X0298270Y0017988D01*
X0297712Y0017260D01*
X0297063Y0016611D01*
X0296335Y0016052D01*
X0295853Y0015774D01*
X0375797Y0015774D01*
X0367406Y0024165D01*
X0366516Y0026314D01*
X0366516Y0025688D01*
X0365088Y0022242D01*
X0362451Y0019605D01*
X0359006Y0018178D01*
X0355276Y0018178D01*
X0351830Y0019605D01*
X0349193Y0022242D01*
X0347766Y0025688D01*
X0347766Y0037767D01*
X0349193Y0041213D01*
X0351830Y0043850D01*
X0355276Y0045277D01*
X0359006Y0045277D01*
X0362451Y0043850D01*
X0365088Y0041213D01*
X0366431Y0037970D01*
X0366431Y0054654D01*
X0367406Y0057006D01*
X0369206Y0058807D01*
X0369206Y0058807D01*
X0370737Y0060338D01*
X0370737Y0062600D01*
X0372728Y0064591D01*
X0372082Y0064324D01*
X0368541Y0064324D01*
X0365312Y0065661D01*
X0362082Y0064324D01*
X0358541Y0064324D01*
X0355312Y0065661D01*
X0352082Y0064324D01*
X0348541Y0064324D01*
X0345312Y0065661D01*
X0342082Y0064324D01*
X0338541Y0064324D01*
X0335312Y0065661D01*
X0332082Y0064324D01*
X0328541Y0064324D01*
X0325312Y0065661D01*
X0322082Y0064324D01*
X0318541Y0064324D01*
X0315270Y0065679D01*
X0314271Y0066678D01*
X0314271Y0065875D01*
X0320733Y0059413D01*
X0322995Y0059413D01*
X0327682Y0054726D01*
X0327682Y0048099D01*
X0322995Y0043413D01*
X0316368Y0043413D01*
X0311682Y0048099D01*
X0311682Y0050362D01*
X0304245Y0057798D01*
X0302445Y0059598D01*
X0301471Y0061951D01*
X0301471Y0064324D01*
X0298541Y0064324D01*
X0295312Y0065661D01*
X0292082Y0064324D01*
X0288541Y0064324D01*
X0285312Y0065661D01*
X0282082Y0064324D01*
X0278541Y0064324D01*
X0275312Y0065661D01*
X0272082Y0064324D01*
X0268541Y0064324D01*
X0265312Y0065661D01*
X0262082Y0064324D01*
X0258541Y0064324D01*
X0255312Y0065661D01*
X0252082Y0064324D01*
X0248541Y0064324D01*
X0245312Y0065661D01*
X0242082Y0064324D01*
X0238541Y0064324D01*
X0235312Y0065661D01*
X0232082Y0064324D01*
X0228541Y0064324D01*
X0225270Y0065679D01*
X0222767Y0068182D01*
X0221412Y0071453D01*
X0221412Y0074994D01*
X0222767Y0078265D01*
X0225270Y0080769D01*
X0228541Y0082124D01*
X0232082Y0082124D01*
X0235312Y0080786D01*
X0238541Y0082124D01*
X0242082Y0082124D01*
X0245312Y0080786D01*
X0248541Y0082124D01*
X0252082Y0082124D01*
X0255312Y0080786D01*
X0258541Y0082124D01*
X0262082Y0082124D01*
X0265312Y0080786D01*
X0268541Y0082124D01*
X0272082Y0082124D01*
X0275312Y0080786D01*
X0278541Y0082124D01*
X0282082Y0082124D01*
X0285312Y0080786D01*
X0288057Y0081923D01*
X0285873Y0082508D01*
X0283251Y0084022D01*
X0281110Y0086163D01*
X0279596Y0088785D01*
X0278812Y0091710D01*
X0278812Y0094738D01*
X0279596Y0097662D01*
X0281110Y0100284D01*
X0283251Y0102425D01*
X0285873Y0103939D01*
X0288798Y0104723D01*
X0291826Y0104723D01*
X0294750Y0103939D01*
X0297372Y0102425D01*
X0299513Y0100284D01*
X0301027Y0097662D01*
X0301471Y0096007D01*
X0301471Y0107817D01*
X0293409Y0115879D01*
X0290599Y0115879D01*
X0288846Y0114126D01*
X0282092Y0114126D01*
X0277316Y0118902D01*
X0277316Y0125656D01*
X0282092Y0130431D01*
X0288846Y0130431D01*
X0290599Y0128679D01*
X0297333Y0128679D01*
X0299685Y0127704D01*
X0301485Y0125904D01*
X0313296Y0114093D01*
X0314271Y0111741D01*
X0314271Y0079769D01*
X0315270Y0080769D01*
X0318541Y0082124D01*
X0322082Y0082124D01*
X0325312Y0080786D01*
X0328541Y0082124D01*
X0332082Y0082124D01*
X0335312Y0080786D01*
X0338541Y0082124D01*
X0342082Y0082124D01*
X0345312Y0080786D01*
X0348541Y0082124D01*
X0352082Y0082124D01*
X0355312Y0080786D01*
X0358541Y0082124D01*
X0362082Y0082124D01*
X0365312Y0080786D01*
X0368541Y0082124D01*
X0372082Y0082124D01*
X0375312Y0080786D01*
X0378541Y0082124D01*
X0382082Y0082124D01*
X0385312Y0080786D01*
X0388291Y0082020D01*
X0361558Y0108753D01*
X0356308Y0108753D01*
X0354555Y0107000D01*
X0347801Y0107000D01*
X0343025Y0111776D01*
X0343025Y0114255D01*
X0324099Y0133181D01*
X0323124Y0135533D01*
X0323124Y0140023D01*
X0321372Y0141776D01*
X0321372Y0148530D01*
X0326147Y0153305D01*
X0332901Y0153305D01*
X0337677Y0148530D01*
X0337677Y0141776D01*
X0335924Y0140023D01*
X0335924Y0139457D01*
X0352076Y0123305D01*
X0354555Y0123305D01*
X0356308Y0121553D01*
X0365482Y0121553D01*
X0367835Y0120578D01*
X0393595Y0094818D01*
X0393764Y0095446D01*
X0394110Y0096282D01*
X0394314Y0096635D01*
X0391412Y0099537D01*
X0391412Y0106910D01*
X0392725Y0108224D01*
X0391412Y0109537D01*
X0391412Y0116910D01*
X0392725Y0118224D01*
X0391412Y0119537D01*
X0391412Y0126910D01*
X0392725Y0128224D01*
X0391412Y0129537D01*
X0391412Y0136910D01*
X0392725Y0138224D01*
X0391412Y0139537D01*
X0391412Y0146910D01*
X0392725Y0148224D01*
X0391412Y0149537D01*
X0391412Y0156910D01*
X0392725Y0158224D01*
X0391412Y0159537D01*
X0391412Y0166910D01*
X0392725Y0168224D01*
X0391412Y0169537D01*
X0391412Y0176910D01*
X0392725Y0178224D01*
X0391412Y0179537D01*
X0391412Y0186910D01*
X0392725Y0188224D01*
X0391412Y0189537D01*
X0391412Y0196910D01*
X0392725Y0198224D01*
X0391412Y0199537D01*
X0391412Y0206910D01*
X0392725Y0208224D01*
X0391412Y0209537D01*
X0391412Y0216910D01*
X0392725Y0218224D01*
X0391412Y0219537D01*
X0391412Y0226910D01*
X0392725Y0228224D01*
X0391412Y0229537D01*
X0391412Y0236910D01*
X0392725Y0238224D01*
X0391412Y0239537D01*
X0391412Y0246910D01*
X0392725Y0248224D01*
X0391412Y0249537D01*
X0391412Y0253467D01*
X0389750Y0252508D01*
X0386826Y0251724D01*
X0383798Y0251724D01*
X0380873Y0252508D01*
X0378251Y0254022D01*
X0376110Y0256163D01*
X0376010Y0256336D01*
X0375353Y0255679D01*
X0372082Y0254324D01*
X0368541Y0254324D01*
X0365312Y0255661D01*
X0362082Y0254324D01*
X0358541Y0254324D01*
X0355312Y0255661D01*
X0352082Y0254324D01*
X0348541Y0254324D01*
X0345312Y0255661D01*
X0342082Y0254324D01*
X0338541Y0254324D01*
X0335312Y0255661D01*
X0332082Y0254324D01*
X0328541Y0254324D01*
X0325312Y0255661D01*
X0322082Y0254324D01*
X0318541Y0254324D01*
X0315312Y0255661D01*
X0312082Y0254324D01*
X0308541Y0254324D01*
X0305312Y0255661D01*
X0302082Y0254324D01*
X0298541Y0254324D01*
X0295270Y0255679D01*
X0292767Y0258182D01*
X0291412Y0261453D01*
X0291412Y0264994D01*
X0292767Y0268265D01*
X0295270Y0270769D01*
X0298541Y0272124D01*
X0302082Y0272124D01*
X0305312Y0270786D01*
X0308541Y0272124D01*
X0312082Y0272124D01*
X0315312Y0270786D01*
X0318541Y0272124D01*
X0322082Y0272124D01*
X0325312Y0270786D01*
X0328541Y0272124D01*
X0332082Y0272124D01*
X0335312Y0270786D01*
X0338541Y0272124D01*
X0342082Y0272124D01*
X0345312Y0270786D01*
X0348541Y0272124D01*
X0352082Y0272124D01*
X0355312Y0270786D01*
X0358541Y0272124D01*
X0362082Y0272124D01*
X0365312Y0270786D01*
X0368541Y0272124D01*
X0372082Y0272124D01*
X0375353Y0270769D01*
X0376010Y0270112D01*
X0376110Y0270284D01*
X0378251Y0272425D01*
X0380873Y0273939D01*
X0383798Y0274723D01*
X0386826Y0274723D01*
X0389750Y0273939D01*
X0392372Y0272425D01*
X0394513Y0270284D01*
X0394613Y0270112D01*
X0395270Y0270769D01*
X0398541Y0272124D01*
X0402082Y0272124D01*
X0405312Y0270786D01*
X0408541Y0272124D01*
X0412082Y0272124D01*
X0415353Y0270769D01*
X0417857Y0268265D01*
X0419212Y0264994D01*
X0419212Y0261453D01*
X0417881Y0258241D01*
X0419212Y0256910D01*
X0419212Y0249537D01*
X0417898Y0248224D01*
X0419212Y0246910D01*
X0419212Y0244452D01*
X0421421Y0244452D01*
X0426107Y0239766D01*
X0426107Y0233138D01*
X0421421Y0228452D01*
X0418127Y0228452D01*
X0417898Y0228224D01*
X0419212Y0226910D01*
X0419212Y0219537D01*
X0417898Y0218224D01*
X0419212Y0216910D01*
X0419212Y0209537D01*
X0417898Y0208224D01*
X0419212Y0206910D01*
X0419212Y0199537D01*
X0417898Y0198224D01*
X0419212Y0196910D01*
X0419212Y0189537D01*
X0417898Y0188224D01*
X0419212Y0186910D01*
X0419212Y0179537D01*
X0417898Y0178224D01*
X0419212Y0176910D01*
X0419212Y0169537D01*
X0417898Y0168224D01*
X0419212Y0166910D01*
X0419212Y0159537D01*
X0417898Y0158224D01*
X0419212Y0156910D01*
X0419212Y0149537D01*
X0417898Y0148224D01*
X0419212Y0146910D01*
X0419212Y0139537D01*
X0417898Y0138224D01*
X0419212Y0136910D01*
X0419212Y0129537D01*
X0417898Y0128224D01*
X0419212Y0126910D01*
X0419212Y0119537D01*
X0417898Y0118224D01*
X0419212Y0116910D01*
X0419212Y0109537D01*
X0417898Y0108224D01*
X0419212Y0106910D01*
X0419212Y0099537D01*
X0416310Y0096635D01*
X0416513Y0096282D01*
X0416859Y0095446D01*
X0417094Y0094573D01*
X0417212Y0093676D01*
X0417212Y0093224D01*
X0410312Y0093224D01*
X0410312Y0093224D01*
X0417212Y0093224D01*
X0417212Y0092771D01*
X0417094Y0091875D01*
X0416859Y0091001D01*
X0416513Y0090165D01*
X0416061Y0089382D01*
X0415510Y0088664D01*
X0414871Y0088025D01*
X0414153Y0087474D01*
X0413370Y0087022D01*
X0412534Y0086676D01*
X0411661Y0086442D01*
X0410764Y0086324D01*
X0410312Y0086324D01*
X0410312Y0093223D01*
X0410312Y0093223D01*
X0410312Y0086324D01*
X0409859Y0086324D01*
X0408963Y0086442D01*
X0408089Y0086676D01*
X0407253Y0087022D01*
X0406470Y0087474D01*
X0405752Y0088025D01*
X0405312Y0088466D01*
X0404871Y0088025D01*
X0404153Y0087474D01*
X0403370Y0087022D01*
X0402534Y0086676D01*
X0401892Y0086504D01*
X0402853Y0084182D01*
X0402853Y0082028D01*
X0403251Y0082425D01*
X0405873Y0083939D01*
X0408798Y0084723D01*
X0411826Y0084723D01*
X0414750Y0083939D01*
X0417372Y0082425D01*
X0419513Y0080284D01*
X0421027Y0077662D01*
X0421811Y0074738D01*
X0421811Y0071710D01*
X0421027Y0068785D01*
X0419513Y0066163D01*
X0417372Y0064022D01*
X0414750Y0062508D01*
X0411826Y0061724D01*
X0408798Y0061724D01*
X0405873Y0062508D01*
X0403251Y0064022D01*
X0402853Y0064420D01*
X0402853Y0056032D01*
X0406978Y0051907D01*
X0421918Y0051907D01*
X0421918Y0054726D01*
X0426604Y0059413D01*
X0428867Y0059413D01*
X0433360Y0063906D01*
X0433360Y0080495D01*
X0431608Y0082248D01*
X0431608Y0089002D01*
X0436384Y0093778D01*
X0441011Y0093778D01*
X0442045Y0096275D01*
X0442301Y0096531D01*
X0442045Y0096787D01*
X0440770Y0099865D01*
X0440770Y0103197D01*
X0442045Y0106275D01*
X0442301Y0106531D01*
X0442045Y0106787D01*
X0441761Y0107472D01*
X0436384Y0107472D01*
X0431608Y0112248D01*
X0431608Y0119002D01*
X0436384Y0123778D01*
X0441011Y0123778D01*
X0441209Y0124256D01*
X0440072Y0124727D01*
X0438272Y0126527D01*
X0432366Y0132433D01*
X0431392Y0134785D01*
X0431392Y0257259D01*
X0411680Y0275328D01*
X0117608Y0275328D01*
X0115452Y0273171D01*
X0115452Y0265091D01*
X0116767Y0268265D01*
X0119270Y0270769D01*
X0122541Y0272124D01*
X0126082Y0272124D01*
X0129353Y0270769D01*
X0130900Y0269221D01*
X0131253Y0269425D01*
X0132089Y0269771D01*
X0132963Y0270006D01*
X0133859Y0270124D01*
X0134312Y0270124D01*
X0134312Y0263224D01*
X0134312Y0263224D01*
X0134312Y0270124D01*
X0134764Y0270124D01*
X0135661Y0270006D01*
X0136534Y0269771D01*
X0137370Y0269425D01*
X0137723Y0269221D01*
X0139270Y0270769D01*
X0142541Y0272124D01*
X0146082Y0272124D01*
X0149312Y0270786D01*
X0152541Y0272124D01*
X0156082Y0272124D01*
X0159312Y0270786D01*
X0162541Y0272124D01*
X0166082Y0272124D01*
X0169312Y0270786D01*
X0172541Y0272124D01*
X0176082Y0272124D01*
X0179312Y0270786D01*
X0182541Y0272124D01*
X0186082Y0272124D01*
X0189312Y0270786D01*
X0192541Y0272124D01*
X0196082Y0272124D01*
X0199353Y0270769D01*
X0201857Y0268265D01*
X0202312Y0267167D01*
X0202767Y0268265D01*
X0205270Y0270769D01*
X0208541Y0272124D01*
X0212082Y0272124D01*
X0215312Y0270786D01*
X0218541Y0272124D01*
X0222082Y0272124D01*
X0225312Y0270786D01*
X0228541Y0272124D01*
X0232082Y0272124D01*
X0235312Y0270786D01*
X0238541Y0272124D01*
X0242082Y0272124D01*
X0245312Y0270786D01*
X0248541Y0272124D01*
X0252082Y0272124D01*
X0255312Y0270786D01*
X0258541Y0272124D01*
X0262082Y0272124D01*
X0265312Y0270786D01*
X0268541Y0272124D01*
X0272082Y0272124D01*
X0275312Y0270786D01*
X0278541Y0272124D01*
X0282082Y0272124D01*
X0285353Y0270769D01*
X0287857Y0268265D01*
X0289212Y0264994D01*
X0289212Y0261453D01*
X0287857Y0258182D01*
X0285353Y0255679D01*
X0282082Y0254324D01*
X0278541Y0254324D01*
X0275312Y0255661D01*
X0272082Y0254324D01*
X0268541Y0254324D01*
X0265312Y0255661D01*
X0262082Y0254324D01*
X0258541Y0254324D01*
X0255312Y0255661D01*
X0252082Y0254324D01*
X0248541Y0254324D01*
X0245312Y0255661D01*
X0242082Y0254324D01*
X0238541Y0254324D01*
X0235312Y0255661D01*
X0232082Y0254324D01*
X0228541Y0254324D01*
X0225312Y0255661D01*
X0222082Y0254324D01*
X0218541Y0254324D01*
X0215312Y0255661D01*
X0212082Y0254324D01*
X0208541Y0254324D01*
X0205270Y0255679D01*
X0202767Y0258182D01*
X0202312Y0259281D01*
X0201857Y0258182D01*
X0199353Y0255679D01*
X0196082Y0254324D01*
X0192541Y0254324D01*
X0189312Y0255661D01*
X0186082Y0254324D01*
X0182541Y0254324D01*
X0179312Y0255661D01*
X0176082Y0254324D01*
X0172541Y0254324D01*
X0169312Y0255661D01*
X0166082Y0254324D01*
X0162541Y0254324D01*
X0159312Y0255661D01*
X0156082Y0254324D01*
X0152541Y0254324D01*
X0149312Y0255661D01*
X0146082Y0254324D01*
X0142541Y0254324D01*
X0139270Y0255679D01*
X0137723Y0257226D01*
X0137370Y0257022D01*
X0136534Y0256676D01*
X0135661Y0256442D01*
X0134764Y0256324D01*
X0134312Y0256324D01*
X0134312Y0263223D01*
X0134312Y0263223D01*
X0134312Y0256324D01*
X0133859Y0256324D01*
X0132963Y0256442D01*
X0132089Y0256676D01*
X0131253Y0257022D01*
X0130900Y0257226D01*
X0129353Y0255679D01*
X0126082Y0254324D01*
X0122541Y0254324D01*
X0119270Y0255679D01*
X0116767Y0258182D01*
X0115452Y0261356D01*
X0115452Y0246990D01*
X0114477Y0244638D01*
X0112677Y0242837D01*
X0091024Y0221184D01*
X0088671Y0220209D01*
X0057346Y0220209D01*
X0057329Y0220216D01*
X0062086Y0215459D01*
X0062086Y0208705D01*
X0057311Y0203929D01*
X0050557Y0203929D01*
X0050491Y0203995D01*
X0050491Y0190169D01*
X0050557Y0190235D01*
X0057311Y0190235D01*
X0062086Y0185459D01*
X0062086Y0178705D01*
X0057311Y0173929D01*
X0055862Y0173929D01*
X0056800Y0172991D01*
X0059279Y0172991D01*
X0064055Y0168215D01*
X0064055Y0161461D01*
X0059279Y0156685D01*
X0063774Y0161180D02*
X0094148Y0161180D01*
X0093154Y0163579D02*
X0064055Y0163579D01*
X0064055Y0165977D02*
X0093072Y0165977D01*
X0093544Y0168376D02*
X0063894Y0168376D01*
X0061495Y0170774D02*
X0094316Y0170774D01*
X0093322Y0173173D02*
X0056618Y0173173D01*
X0058953Y0175571D02*
X0093072Y0175571D01*
X0093376Y0177970D02*
X0061351Y0177970D01*
X0062086Y0180368D02*
X0094369Y0180368D01*
X0093491Y0182767D02*
X0062086Y0182767D01*
X0062086Y0185165D02*
X0093072Y0185165D01*
X0093207Y0187564D02*
X0059981Y0187564D01*
X0057583Y0189962D02*
X0094201Y0189962D01*
X0095852Y0192361D02*
X0050491Y0192361D01*
X0050491Y0194759D02*
X0095113Y0194759D01*
X0095072Y0195507D02*
X0105272Y0195507D01*
X0105272Y0195507D01*
X0105272Y0202207D01*
X0101333Y0202207D01*
X0100462Y0202092D01*
X0099614Y0201865D01*
X0098803Y0201529D01*
X0098042Y0201090D01*
X0097345Y0200555D01*
X0096724Y0199934D01*
X0096190Y0199237D01*
X0095750Y0198477D01*
X0095414Y0197665D01*
X0095187Y0196817D01*
X0095072Y0195946D01*
X0095072Y0195507D01*
X0095278Y0197158D02*
X0050491Y0197158D01*
X0050491Y0199556D02*
X0096434Y0199556D01*
X0099949Y0201955D02*
X0050491Y0201955D01*
X0057735Y0204353D02*
X0278812Y0204353D01*
X0278812Y0204738D02*
X0278812Y0201710D01*
X0279596Y0198785D01*
X0281110Y0196163D01*
X0283251Y0194022D01*
X0285873Y0192508D01*
X0288798Y0191724D01*
X0291826Y0191724D01*
X0294750Y0192508D01*
X0297372Y0194022D01*
X0299513Y0196163D01*
X0301027Y0198785D01*
X0301811Y0201710D01*
X0301811Y0204738D01*
X0301027Y0207662D01*
X0299513Y0210284D01*
X0297372Y0212425D01*
X0294750Y0213939D01*
X0291826Y0214723D01*
X0288798Y0214723D01*
X0285873Y0213939D01*
X0283251Y0212425D01*
X0281110Y0210284D01*
X0279596Y0207662D01*
X0278812Y0204738D01*
X0279352Y0206752D02*
X0060134Y0206752D01*
X0062086Y0209150D02*
X0280455Y0209150D01*
X0282375Y0211549D02*
X0062086Y0211549D01*
X0062086Y0213947D02*
X0285904Y0213947D01*
X0294719Y0213947D02*
X0391412Y0213947D01*
X0391412Y0211549D02*
X0298249Y0211549D01*
X0300168Y0209150D02*
X0391798Y0209150D01*
X0391412Y0206752D02*
X0301271Y0206752D01*
X0301811Y0204353D02*
X0391412Y0204353D01*
X0391412Y0201955D02*
X0301811Y0201955D01*
X0301234Y0199556D02*
X0391412Y0199556D01*
X0391659Y0197158D02*
X0300088Y0197158D01*
X0298110Y0194759D02*
X0391412Y0194759D01*
X0391412Y0192361D02*
X0294201Y0192361D01*
X0286422Y0192361D02*
X0114692Y0192361D01*
X0115432Y0194759D02*
X0282514Y0194759D01*
X0280536Y0197158D02*
X0115266Y0197158D01*
X0115358Y0196817D02*
X0115130Y0197665D01*
X0114794Y0198477D01*
X0114355Y0199237D01*
X0113820Y0199934D01*
X0113199Y0200555D01*
X0112503Y0201090D01*
X0111742Y0201529D01*
X0110931Y0201865D01*
X0110082Y0202092D01*
X0109211Y0202207D01*
X0105272Y0202207D01*
X0105272Y0195507D01*
X0105272Y0195507D01*
X0105272Y0195507D01*
X0115472Y0195507D01*
X0115472Y0195946D01*
X0115358Y0196817D01*
X0114110Y0199556D02*
X0279389Y0199556D01*
X0278812Y0201955D02*
X0110595Y0201955D01*
X0105272Y0201955D02*
X0105272Y0201955D01*
X0105272Y0199556D02*
X0105272Y0199556D01*
X0105272Y0197158D02*
X0105272Y0197158D01*
X0116344Y0189962D02*
X0391412Y0189962D01*
X0392065Y0187564D02*
X0117337Y0187564D01*
X0117472Y0185165D02*
X0391412Y0185165D01*
X0391412Y0182767D02*
X0117054Y0182767D01*
X0116176Y0180368D02*
X0391412Y0180368D01*
X0392471Y0177970D02*
X0117169Y0177970D01*
X0117472Y0175571D02*
X0391412Y0175571D01*
X0391412Y0173173D02*
X0117222Y0173173D01*
X0116229Y0170774D02*
X0391412Y0170774D01*
X0392573Y0168376D02*
X0117001Y0168376D01*
X0117472Y0165977D02*
X0391412Y0165977D01*
X0391412Y0163579D02*
X0117390Y0163579D01*
X0116397Y0161180D02*
X0391412Y0161180D01*
X0392167Y0158782D02*
X0116833Y0158782D01*
X0117472Y0156383D02*
X0391412Y0156383D01*
X0391412Y0153985D02*
X0117472Y0153985D01*
X0116565Y0151586D02*
X0324428Y0151586D01*
X0322029Y0149188D02*
X0116665Y0149188D01*
X0117472Y0146789D02*
X0321372Y0146789D01*
X0321372Y0144391D02*
X0117472Y0144391D01*
X0116733Y0141992D02*
X0321372Y0141992D01*
X0323124Y0139594D02*
X0116496Y0139594D01*
X0117472Y0137195D02*
X0323124Y0137195D01*
X0323429Y0134797D02*
X0117472Y0134797D01*
X0116901Y0132398D02*
X0324881Y0132398D01*
X0327280Y0130000D02*
X0289278Y0130000D01*
X0281660Y0130000D02*
X0259278Y0130000D01*
X0258846Y0130431D02*
X0252092Y0130431D01*
X0247316Y0125656D01*
X0247316Y0118902D01*
X0252092Y0114126D01*
X0258846Y0114126D01*
X0263622Y0118902D01*
X0263622Y0125656D01*
X0258846Y0130431D01*
X0261677Y0127601D02*
X0279262Y0127601D01*
X0277316Y0125203D02*
X0263622Y0125203D01*
X0263622Y0122804D02*
X0277316Y0122804D01*
X0277316Y0120406D02*
X0263622Y0120406D01*
X0262727Y0118007D02*
X0278211Y0118007D01*
X0280610Y0115609D02*
X0260329Y0115609D01*
X0250610Y0115609D02*
X0117472Y0115609D01*
X0117238Y0113210D02*
X0296077Y0113210D01*
X0293679Y0115609D02*
X0290329Y0115609D01*
X0285469Y0122279D02*
X0296060Y0122279D01*
X0307871Y0110468D01*
X0307871Y0063224D01*
X0319682Y0051413D01*
X0326762Y0055646D02*
X0366842Y0055646D01*
X0366431Y0053247D02*
X0327682Y0053247D01*
X0327682Y0050849D02*
X0366431Y0050849D01*
X0366431Y0048450D02*
X0327682Y0048450D01*
X0325635Y0046052D02*
X0366431Y0046052D01*
X0366431Y0043653D02*
X0362648Y0043653D01*
X0365046Y0041255D02*
X0366431Y0041255D01*
X0366431Y0038856D02*
X0366065Y0038856D01*
X0372831Y0027791D02*
X0384642Y0015980D01*
X0496847Y0015980D01*
X0502753Y0021885D01*
X0502753Y0049444D01*
X0496847Y0055350D01*
X0492162Y0055350D01*
X0487005Y0047476D02*
X0483068Y0051413D01*
X0483068Y0075035D01*
X0488973Y0080940D01*
X0494879Y0073066D02*
X0494879Y0122279D01*
X0492910Y0124247D01*
X0487005Y0130153D01*
X0443698Y0130153D01*
X0437792Y0136058D01*
X0437792Y0260074D01*
X0414170Y0281728D01*
X0114957Y0281728D01*
X0109052Y0275822D01*
X0109052Y0248263D01*
X0087398Y0226609D01*
X0058619Y0226609D01*
X0055902Y0229326D01*
X0058801Y0218745D02*
X0392204Y0218745D01*
X0391412Y0221143D02*
X0090925Y0221143D01*
X0093381Y0223542D02*
X0391412Y0223542D01*
X0391412Y0225940D02*
X0095780Y0225940D01*
X0098178Y0228339D02*
X0392610Y0228339D01*
X0391412Y0230737D02*
X0100577Y0230737D01*
X0102975Y0233136D02*
X0391412Y0233136D01*
X0391412Y0235534D02*
X0105374Y0235534D01*
X0107772Y0237933D02*
X0392434Y0237933D01*
X0391412Y0240331D02*
X0110171Y0240331D01*
X0112569Y0242730D02*
X0391412Y0242730D01*
X0391412Y0245128D02*
X0114681Y0245128D01*
X0115452Y0247527D02*
X0392028Y0247527D01*
X0391412Y0249925D02*
X0115452Y0249925D01*
X0115452Y0252324D02*
X0381561Y0252324D01*
X0377551Y0254722D02*
X0373044Y0254722D01*
X0367579Y0254722D02*
X0363044Y0254722D01*
X0357579Y0254722D02*
X0353044Y0254722D01*
X0347579Y0254722D02*
X0343044Y0254722D01*
X0337579Y0254722D02*
X0333044Y0254722D01*
X0327579Y0254722D02*
X0323044Y0254722D01*
X0317579Y0254722D02*
X0313044Y0254722D01*
X0307579Y0254722D02*
X0303044Y0254722D01*
X0297579Y0254722D02*
X0283044Y0254722D01*
X0286795Y0257121D02*
X0293828Y0257121D01*
X0292213Y0259519D02*
X0288411Y0259519D01*
X0289212Y0261918D02*
X0291412Y0261918D01*
X0291412Y0264316D02*
X0289212Y0264316D01*
X0288499Y0266715D02*
X0292124Y0266715D01*
X0293615Y0269113D02*
X0287009Y0269113D01*
X0283559Y0271512D02*
X0297064Y0271512D01*
X0303559Y0271512D02*
X0307064Y0271512D01*
X0313559Y0271512D02*
X0317064Y0271512D01*
X0323559Y0271512D02*
X0327064Y0271512D01*
X0333559Y0271512D02*
X0337064Y0271512D01*
X0343559Y0271512D02*
X0347064Y0271512D01*
X0353559Y0271512D02*
X0357064Y0271512D01*
X0363559Y0271512D02*
X0367064Y0271512D01*
X0373559Y0271512D02*
X0377337Y0271512D01*
X0380823Y0273910D02*
X0116191Y0273910D01*
X0115452Y0271512D02*
X0121064Y0271512D01*
X0117615Y0269113D02*
X0115452Y0269113D01*
X0115452Y0266715D02*
X0116124Y0266715D01*
X0116213Y0259519D02*
X0115452Y0259519D01*
X0115452Y0257121D02*
X0117828Y0257121D01*
X0115452Y0254722D02*
X0121579Y0254722D01*
X0127044Y0254722D02*
X0141579Y0254722D01*
X0137828Y0257121D02*
X0137541Y0257121D01*
X0134312Y0257121D02*
X0134312Y0257121D01*
X0134312Y0259519D02*
X0134312Y0259519D01*
X0134312Y0261918D02*
X0134312Y0261918D01*
X0134312Y0264316D02*
X0134312Y0264316D01*
X0134312Y0266715D02*
X0134312Y0266715D01*
X0134312Y0269113D02*
X0134312Y0269113D01*
X0141064Y0271512D02*
X0127559Y0271512D01*
X0130795Y0257121D02*
X0131082Y0257121D01*
X0147044Y0254722D02*
X0151579Y0254722D01*
X0157044Y0254722D02*
X0161579Y0254722D01*
X0167044Y0254722D02*
X0171579Y0254722D01*
X0177044Y0254722D02*
X0181579Y0254722D01*
X0187044Y0254722D02*
X0191579Y0254722D01*
X0197044Y0254722D02*
X0207579Y0254722D01*
X0203828Y0257121D02*
X0200795Y0257121D01*
X0201009Y0269113D02*
X0203615Y0269113D01*
X0207064Y0271512D02*
X0197559Y0271512D01*
X0191064Y0271512D02*
X0187559Y0271512D01*
X0181064Y0271512D02*
X0177559Y0271512D01*
X0171064Y0271512D02*
X0167559Y0271512D01*
X0161064Y0271512D02*
X0157559Y0271512D01*
X0151064Y0271512D02*
X0147559Y0271512D01*
X0125482Y0298950D02*
X0116446Y0289913D01*
X0114660Y0288128D01*
X0414031Y0288128D01*
X0415164Y0288177D01*
X0415299Y0288128D01*
X0415443Y0288128D01*
X0416491Y0287694D01*
X0417556Y0287306D01*
X0417662Y0287208D01*
X0417795Y0287153D01*
X0418597Y0286351D01*
X0437702Y0268838D01*
X0438108Y0269818D01*
X0438364Y0270074D01*
X0438108Y0270330D01*
X0436833Y0273408D01*
X0436833Y0276740D01*
X0438108Y0279818D01*
X0440464Y0282174D01*
X0443542Y0283449D01*
X0453046Y0283449D01*
X0453046Y0290609D01*
X0451760Y0289323D01*
X0445006Y0289323D01*
X0440230Y0294099D01*
X0440230Y0298950D01*
X0436260Y0298950D01*
X0436260Y0294099D01*
X0431484Y0289323D01*
X0424730Y0289323D01*
X0419954Y0294099D01*
X0419954Y0298950D01*
X0414260Y0298950D01*
X0414260Y0297476D01*
X0408107Y0297476D01*
X0408107Y0297476D01*
X0408107Y0297476D01*
X0401954Y0297476D01*
X0401954Y0298950D01*
X0125482Y0298950D01*
X0124428Y0297895D02*
X0401954Y0297895D01*
X0401954Y0297476D02*
X0401954Y0294927D01*
X0405558Y0291323D01*
X0408107Y0291323D01*
X0410655Y0291323D01*
X0414260Y0294927D01*
X0414260Y0297476D01*
X0408107Y0297476D01*
X0401954Y0297476D01*
X0401954Y0295497D02*
X0122030Y0295497D01*
X0119631Y0293098D02*
X0403783Y0293098D01*
X0408107Y0293098D02*
X0408107Y0293098D01*
X0408107Y0291323D02*
X0408107Y0297475D01*
X0408107Y0297475D01*
X0408107Y0291323D01*
X0408107Y0295497D02*
X0408107Y0295497D01*
X0412431Y0293098D02*
X0420954Y0293098D01*
X0419954Y0295497D02*
X0414260Y0295497D01*
X0414260Y0297895D02*
X0419954Y0297895D01*
X0423353Y0290700D02*
X0117233Y0290700D01*
X0114834Y0288301D02*
X0453046Y0288301D01*
X0453046Y0285903D02*
X0419086Y0285903D01*
X0421703Y0283504D02*
X0453046Y0283504D01*
X0443629Y0290700D02*
X0432861Y0290700D01*
X0435259Y0293098D02*
X0441230Y0293098D01*
X0440230Y0295497D02*
X0436260Y0295497D01*
X0436260Y0297895D02*
X0440230Y0297895D01*
X0453540Y0305350D02*
X0122831Y0305350D01*
X0111020Y0293539D01*
X0093304Y0293539D01*
X0071650Y0271885D01*
X0071650Y0254169D01*
X0063776Y0246294D01*
X0051965Y0246294D01*
X0044091Y0238420D01*
X0044091Y0176649D01*
X0055902Y0164838D01*
X0050429Y0158782D02*
X0036012Y0158782D01*
X0036012Y0161180D02*
X0048030Y0161180D01*
X0047749Y0163579D02*
X0036012Y0163579D01*
X0036012Y0165977D02*
X0045712Y0165977D01*
X0043313Y0168376D02*
X0036012Y0168376D01*
X0036012Y0170774D02*
X0040915Y0170774D01*
X0038604Y0173173D02*
X0036012Y0173173D01*
X0036012Y0175571D02*
X0037691Y0175571D01*
X0037691Y0177970D02*
X0036012Y0177970D01*
X0036012Y0180368D02*
X0037691Y0180368D01*
X0037691Y0182767D02*
X0036012Y0182767D01*
X0036012Y0185165D02*
X0037691Y0185165D01*
X0037691Y0187564D02*
X0036012Y0187564D01*
X0036012Y0189962D02*
X0037691Y0189962D01*
X0037691Y0192361D02*
X0036012Y0192361D01*
X0036012Y0194759D02*
X0037691Y0194759D01*
X0037691Y0197158D02*
X0036012Y0197158D01*
X0036012Y0199556D02*
X0037691Y0199556D01*
X0037691Y0201955D02*
X0036012Y0201955D01*
X0036012Y0204353D02*
X0037691Y0204353D01*
X0037691Y0206752D02*
X0036012Y0206752D01*
X0036012Y0209150D02*
X0037691Y0209150D01*
X0037691Y0211549D02*
X0036012Y0211549D01*
X0036012Y0213947D02*
X0037691Y0213947D01*
X0037691Y0216346D02*
X0036012Y0216346D01*
X0036012Y0218745D02*
X0037691Y0218745D01*
X0037691Y0221143D02*
X0036012Y0221143D01*
X0036012Y0223542D02*
X0037691Y0223542D01*
X0037691Y0225940D02*
X0036012Y0225940D01*
X0036012Y0228339D02*
X0037691Y0228339D01*
X0037691Y0230737D02*
X0036012Y0230737D01*
X0036012Y0233136D02*
X0037691Y0233136D01*
X0037691Y0235534D02*
X0036012Y0235534D01*
X0036012Y0237933D02*
X0037691Y0237933D01*
X0037955Y0240331D02*
X0036012Y0240331D01*
X0036012Y0242730D02*
X0039349Y0242730D01*
X0041748Y0245128D02*
X0036012Y0245128D01*
X0036012Y0247527D02*
X0044146Y0247527D01*
X0046545Y0249925D02*
X0036012Y0249925D01*
X0036012Y0252324D02*
X0049797Y0252324D01*
X0048976Y0254722D02*
X0036012Y0254722D01*
X0036012Y0257121D02*
X0047749Y0257121D01*
X0047749Y0259519D02*
X0036012Y0259519D01*
X0036012Y0261918D02*
X0047749Y0261918D01*
X0049363Y0264316D02*
X0036012Y0264316D01*
X0036012Y0266715D02*
X0051761Y0266715D01*
X0060043Y0266715D02*
X0065250Y0266715D01*
X0065250Y0269113D02*
X0036012Y0269113D01*
X0036012Y0271512D02*
X0065250Y0271512D01*
X0065562Y0273910D02*
X0036012Y0273910D01*
X0036012Y0276309D02*
X0043845Y0276309D01*
X0041446Y0278707D02*
X0036012Y0278707D01*
X0036012Y0281106D02*
X0039048Y0281106D01*
X0036649Y0283504D02*
X0036012Y0283504D01*
X0062442Y0264316D02*
X0065250Y0264316D01*
X0065250Y0261918D02*
X0064055Y0261918D01*
X0064055Y0259519D02*
X0065250Y0259519D01*
X0065250Y0257121D02*
X0064055Y0257121D01*
X0063153Y0254722D02*
X0062828Y0254722D01*
X0061199Y0216346D02*
X0391412Y0216346D01*
X0418419Y0218745D02*
X0431392Y0218745D01*
X0431392Y0221143D02*
X0419212Y0221143D01*
X0419212Y0223542D02*
X0431392Y0223542D01*
X0431392Y0225940D02*
X0419212Y0225940D01*
X0418013Y0228339D02*
X0431392Y0228339D01*
X0431392Y0230737D02*
X0423706Y0230737D01*
X0426104Y0233136D02*
X0431392Y0233136D01*
X0431392Y0235534D02*
X0426107Y0235534D01*
X0426107Y0237933D02*
X0431392Y0237933D01*
X0431392Y0240331D02*
X0425541Y0240331D01*
X0423143Y0242730D02*
X0431392Y0242730D01*
X0431392Y0245128D02*
X0419212Y0245128D01*
X0418595Y0247527D02*
X0431392Y0247527D01*
X0431392Y0249925D02*
X0419212Y0249925D01*
X0419212Y0252324D02*
X0431392Y0252324D01*
X0431392Y0254722D02*
X0419212Y0254722D01*
X0419001Y0257121D02*
X0431392Y0257121D01*
X0428926Y0259519D02*
X0418411Y0259519D01*
X0419212Y0261918D02*
X0426309Y0261918D01*
X0423693Y0264316D02*
X0419212Y0264316D01*
X0418499Y0266715D02*
X0421076Y0266715D01*
X0418460Y0269113D02*
X0417009Y0269113D01*
X0415843Y0271512D02*
X0413559Y0271512D01*
X0413227Y0273910D02*
X0389800Y0273910D01*
X0393286Y0271512D02*
X0397064Y0271512D01*
X0403559Y0271512D02*
X0407064Y0271512D01*
X0424320Y0281106D02*
X0439396Y0281106D01*
X0437648Y0278707D02*
X0426936Y0278707D01*
X0429553Y0276309D02*
X0436833Y0276309D01*
X0436833Y0273910D02*
X0432169Y0273910D01*
X0434786Y0271512D02*
X0437618Y0271512D01*
X0437816Y0269113D02*
X0437402Y0269113D01*
X0463383Y0260074D02*
X0465351Y0258106D01*
X0465351Y0236452D01*
X0470036Y0231767D01*
X0487005Y0231767D01*
X0490942Y0250231D02*
X0490942Y0287633D01*
X0459446Y0299444D02*
X0453540Y0305350D01*
X0459446Y0299444D02*
X0459446Y0238420D01*
X0453540Y0232515D01*
X0447635Y0232515D01*
X0443698Y0228578D01*
X0443698Y0145901D01*
X0452320Y0137279D01*
X0452320Y0136058D01*
X0439597Y0125203D02*
X0419212Y0125203D01*
X0419212Y0122804D02*
X0435410Y0122804D01*
X0433011Y0120406D02*
X0419212Y0120406D01*
X0418115Y0118007D02*
X0431608Y0118007D01*
X0431608Y0115609D02*
X0419212Y0115609D01*
X0419212Y0113210D02*
X0431608Y0113210D01*
X0433044Y0110811D02*
X0419212Y0110811D01*
X0418088Y0108413D02*
X0435443Y0108413D01*
X0441937Y0106014D02*
X0419212Y0106014D01*
X0419212Y0103616D02*
X0440944Y0103616D01*
X0440770Y0101217D02*
X0419212Y0101217D01*
X0418493Y0098819D02*
X0441203Y0098819D01*
X0442191Y0096420D02*
X0416433Y0096420D01*
X0417166Y0094022D02*
X0441112Y0094022D01*
X0434229Y0091623D02*
X0417026Y0091623D01*
X0415941Y0089225D02*
X0431830Y0089225D01*
X0431608Y0086826D02*
X0412898Y0086826D01*
X0412926Y0084428D02*
X0431608Y0084428D01*
X0431827Y0082029D02*
X0417768Y0082029D01*
X0419891Y0079631D02*
X0433360Y0079631D01*
X0433360Y0077232D02*
X0421142Y0077232D01*
X0421785Y0074834D02*
X0433360Y0074834D01*
X0433360Y0072435D02*
X0421811Y0072435D01*
X0421363Y0070037D02*
X0433360Y0070037D01*
X0433360Y0067638D02*
X0420365Y0067638D01*
X0418590Y0065240D02*
X0433360Y0065240D01*
X0432296Y0062841D02*
X0415327Y0062841D01*
X0425236Y0058044D02*
X0402853Y0058044D01*
X0402853Y0060443D02*
X0429897Y0060443D01*
X0422837Y0055646D02*
X0403240Y0055646D01*
X0405638Y0053247D02*
X0421918Y0053247D01*
X0429918Y0051413D02*
X0439760Y0061255D01*
X0439760Y0085625D01*
X0455272Y0066458D02*
X0458506Y0063224D01*
X0454009Y0058727D01*
X0454009Y0051973D01*
X0458785Y0047197D01*
X0465539Y0047197D01*
X0466825Y0048483D01*
X0466825Y0043640D01*
X0464711Y0045754D01*
X0462162Y0045754D01*
X0459614Y0045754D01*
X0456009Y0042150D01*
X0456009Y0039602D01*
X0462162Y0039602D01*
X0462162Y0045754D01*
X0462162Y0039602D01*
X0462162Y0039602D01*
X0462162Y0039602D01*
X0456009Y0039602D01*
X0456009Y0037053D01*
X0456903Y0036159D01*
X0452145Y0036159D01*
X0453787Y0037801D01*
X0453787Y0040350D01*
X0453787Y0042898D01*
X0450183Y0046502D01*
X0447635Y0046502D01*
X0447635Y0040350D01*
X0453787Y0040350D01*
X0447635Y0040350D01*
X0447635Y0040350D01*
X0447634Y0040350D01*
X0447634Y0046502D01*
X0445086Y0046502D01*
X0441482Y0042898D01*
X0441482Y0041026D01*
X0436163Y0046344D01*
X0437918Y0048099D01*
X0437918Y0050362D01*
X0445186Y0057630D01*
X0446160Y0059982D01*
X0446160Y0062197D01*
X0451011Y0062197D01*
X0455272Y0066458D01*
X0455509Y0065192D02*
X0455509Y0047476D01*
X0448383Y0040350D01*
X0447635Y0040350D01*
X0447634Y0041255D02*
X0447635Y0041255D01*
X0447634Y0043653D02*
X0447635Y0043653D01*
X0447634Y0046052D02*
X0447635Y0046052D01*
X0450634Y0046052D02*
X0466825Y0046052D01*
X0466792Y0048450D02*
X0466825Y0048450D01*
X0466812Y0043653D02*
X0466825Y0043653D01*
X0462162Y0043653D02*
X0462162Y0043653D01*
X0462162Y0041255D02*
X0462162Y0041255D01*
X0457512Y0043653D02*
X0453032Y0043653D01*
X0453787Y0041255D02*
X0456009Y0041255D01*
X0456009Y0038856D02*
X0453787Y0038856D01*
X0452444Y0036458D02*
X0456605Y0036458D01*
X0457532Y0048450D02*
X0437918Y0048450D01*
X0438405Y0050849D02*
X0455133Y0050849D01*
X0454009Y0053247D02*
X0440804Y0053247D01*
X0443202Y0055646D02*
X0454009Y0055646D01*
X0454009Y0058044D02*
X0445358Y0058044D01*
X0446160Y0060443D02*
X0455726Y0060443D01*
X0458124Y0062841D02*
X0451656Y0062841D01*
X0454054Y0065240D02*
X0456490Y0065240D01*
X0462162Y0071098D02*
X0467320Y0071098D01*
X0473225Y0065192D01*
X0477162Y0069129D01*
X0477162Y0080940D01*
X0492162Y0071098D02*
X0492910Y0071098D01*
X0494879Y0073066D01*
X0473225Y0065192D02*
X0473225Y0043539D01*
X0477162Y0039602D01*
X0492162Y0039602D01*
X0498816Y0043539D02*
X0494879Y0047476D01*
X0487005Y0047476D01*
X0498816Y0043539D02*
X0498816Y0031728D01*
X0496847Y0029759D01*
X0443698Y0029759D01*
X0427949Y0045507D01*
X0404327Y0045507D01*
X0396453Y0053381D01*
X0396453Y0082909D01*
X0364209Y0115153D01*
X0351178Y0115153D01*
X0329524Y0136806D01*
X0329524Y0145153D01*
X0337019Y0149188D02*
X0346511Y0149188D01*
X0345025Y0147701D02*
X0345025Y0145153D01*
X0351178Y0145153D01*
X0351178Y0145153D01*
X0351178Y0151305D01*
X0353726Y0151305D01*
X0357331Y0147701D01*
X0357331Y0145153D01*
X0351178Y0145153D01*
X0351178Y0145153D01*
X0351178Y0151305D01*
X0348629Y0151305D01*
X0345025Y0147701D01*
X0345025Y0146789D02*
X0337677Y0146789D01*
X0337677Y0144391D02*
X0345025Y0144391D01*
X0345025Y0145153D02*
X0345025Y0142604D01*
X0348629Y0139000D01*
X0351178Y0139000D01*
X0353726Y0139000D01*
X0357331Y0142604D01*
X0357331Y0145153D01*
X0351178Y0145153D01*
X0351178Y0145153D01*
X0351178Y0139000D01*
X0351178Y0145153D01*
X0351178Y0145153D01*
X0345025Y0145153D01*
X0345637Y0141992D02*
X0337677Y0141992D01*
X0335924Y0139594D02*
X0348036Y0139594D01*
X0351178Y0139594D02*
X0351178Y0139594D01*
X0351178Y0141992D02*
X0351178Y0141992D01*
X0351178Y0144391D02*
X0351178Y0144391D01*
X0351178Y0146789D02*
X0351178Y0146789D01*
X0351178Y0149188D02*
X0351178Y0149188D01*
X0355844Y0149188D02*
X0391761Y0149188D01*
X0391412Y0151586D02*
X0334621Y0151586D01*
X0338186Y0137195D02*
X0391697Y0137195D01*
X0391412Y0134797D02*
X0340585Y0134797D01*
X0342983Y0132398D02*
X0391412Y0132398D01*
X0391412Y0130000D02*
X0345382Y0130000D01*
X0347780Y0127601D02*
X0392103Y0127601D01*
X0391412Y0125203D02*
X0350179Y0125203D01*
X0355056Y0122804D02*
X0391412Y0122804D01*
X0391412Y0120406D02*
X0368007Y0120406D01*
X0370406Y0118007D02*
X0392509Y0118007D01*
X0391412Y0115609D02*
X0372805Y0115609D01*
X0375203Y0113210D02*
X0391412Y0113210D01*
X0391412Y0110811D02*
X0377602Y0110811D01*
X0380000Y0108413D02*
X0392536Y0108413D01*
X0391412Y0106014D02*
X0382399Y0106014D01*
X0384797Y0103616D02*
X0391412Y0103616D01*
X0391412Y0101217D02*
X0387196Y0101217D01*
X0389594Y0098819D02*
X0392130Y0098819D01*
X0391993Y0096420D02*
X0394190Y0096420D01*
X0400312Y0093224D02*
X0410312Y0093224D01*
X0410312Y0093224D01*
X0403412Y0093224D01*
X0400312Y0093224D01*
X0400312Y0093224D01*
X0402898Y0086826D02*
X0407725Y0086826D01*
X0407697Y0084428D02*
X0402751Y0084428D01*
X0402853Y0082029D02*
X0402855Y0082029D01*
X0410312Y0086826D02*
X0410312Y0086826D01*
X0410312Y0089225D02*
X0410312Y0089225D01*
X0410312Y0091623D02*
X0410312Y0091623D01*
X0388282Y0082029D02*
X0382310Y0082029D01*
X0378314Y0082029D02*
X0372310Y0082029D01*
X0368314Y0082029D02*
X0362310Y0082029D01*
X0358314Y0082029D02*
X0352310Y0082029D01*
X0348314Y0082029D02*
X0342310Y0082029D01*
X0338314Y0082029D02*
X0332310Y0082029D01*
X0328314Y0082029D02*
X0322310Y0082029D01*
X0318314Y0082029D02*
X0314271Y0082029D01*
X0314271Y0084428D02*
X0385883Y0084428D01*
X0383485Y0086826D02*
X0314271Y0086826D01*
X0314271Y0089225D02*
X0381086Y0089225D01*
X0378688Y0091623D02*
X0314271Y0091623D01*
X0314271Y0094022D02*
X0376289Y0094022D01*
X0373891Y0096420D02*
X0314271Y0096420D01*
X0314271Y0098819D02*
X0371492Y0098819D01*
X0369094Y0101217D02*
X0314271Y0101217D01*
X0314271Y0103616D02*
X0366695Y0103616D01*
X0364297Y0106014D02*
X0314271Y0106014D01*
X0314271Y0108413D02*
X0324734Y0108413D01*
X0326147Y0107000D02*
X0321372Y0111776D01*
X0321372Y0118530D01*
X0326147Y0123305D01*
X0332901Y0123305D01*
X0337677Y0118530D01*
X0337677Y0111776D01*
X0332901Y0107000D01*
X0326147Y0107000D01*
X0322336Y0110811D02*
X0314271Y0110811D01*
X0313662Y0113210D02*
X0321372Y0113210D01*
X0321372Y0115609D02*
X0311781Y0115609D01*
X0309382Y0118007D02*
X0321372Y0118007D01*
X0323247Y0120406D02*
X0306984Y0120406D01*
X0304585Y0122804D02*
X0325646Y0122804D01*
X0329679Y0127601D02*
X0299788Y0127601D01*
X0302187Y0125203D02*
X0332077Y0125203D01*
X0333403Y0122804D02*
X0334476Y0122804D01*
X0335801Y0120406D02*
X0336874Y0120406D01*
X0337677Y0118007D02*
X0339273Y0118007D01*
X0337677Y0115609D02*
X0341671Y0115609D01*
X0343025Y0113210D02*
X0337677Y0113210D01*
X0336713Y0110811D02*
X0343989Y0110811D01*
X0346388Y0108413D02*
X0334314Y0108413D01*
X0355968Y0108413D02*
X0361898Y0108413D01*
X0354320Y0139594D02*
X0391412Y0139594D01*
X0391412Y0141992D02*
X0356719Y0141992D01*
X0357331Y0144391D02*
X0391412Y0144391D01*
X0391412Y0146789D02*
X0357331Y0146789D01*
X0300874Y0108413D02*
X0116985Y0108413D01*
X0117472Y0106014D02*
X0301471Y0106014D01*
X0301471Y0103616D02*
X0295310Y0103616D01*
X0298580Y0101217D02*
X0301471Y0101217D01*
X0301471Y0098819D02*
X0300359Y0098819D01*
X0301360Y0096420D02*
X0301471Y0096420D01*
X0285313Y0103616D02*
X0117406Y0103616D01*
X0116412Y0101217D02*
X0282043Y0101217D01*
X0280264Y0098819D02*
X0116817Y0098819D01*
X0117472Y0096420D02*
X0279263Y0096420D01*
X0278812Y0094022D02*
X0117472Y0094022D01*
X0116580Y0091623D02*
X0278836Y0091623D01*
X0279478Y0089225D02*
X0116649Y0089225D01*
X0117472Y0086826D02*
X0280727Y0086826D01*
X0282845Y0084428D02*
X0117472Y0084428D01*
X0116749Y0082029D02*
X0158314Y0082029D01*
X0158541Y0082124D02*
X0155270Y0080769D01*
X0152767Y0078265D01*
X0151412Y0074994D01*
X0151412Y0071453D01*
X0152767Y0068182D01*
X0155270Y0065679D01*
X0158541Y0064324D01*
X0162082Y0064324D01*
X0165312Y0065661D01*
X0168541Y0064324D01*
X0172082Y0064324D01*
X0175312Y0065661D01*
X0178541Y0064324D01*
X0182082Y0064324D01*
X0185312Y0065661D01*
X0188541Y0064324D01*
X0192082Y0064324D01*
X0195312Y0065661D01*
X0198541Y0064324D01*
X0202082Y0064324D01*
X0205312Y0065661D01*
X0208541Y0064324D01*
X0212082Y0064324D01*
X0215353Y0065679D01*
X0217857Y0068182D01*
X0219212Y0071453D01*
X0219212Y0074994D01*
X0217857Y0078265D01*
X0215353Y0080769D01*
X0212082Y0082124D01*
X0208541Y0082124D01*
X0205312Y0080786D01*
X0202082Y0082124D01*
X0198541Y0082124D01*
X0195312Y0080786D01*
X0192082Y0082124D01*
X0188541Y0082124D01*
X0185312Y0080786D01*
X0182082Y0082124D01*
X0178541Y0082124D01*
X0175312Y0080786D01*
X0172082Y0082124D01*
X0168541Y0082124D01*
X0165312Y0080786D01*
X0162082Y0082124D01*
X0158541Y0082124D01*
X0162310Y0082029D02*
X0168314Y0082029D01*
X0172310Y0082029D02*
X0178314Y0082029D01*
X0182310Y0082029D02*
X0188314Y0082029D01*
X0192310Y0082029D02*
X0198314Y0082029D01*
X0202310Y0082029D02*
X0208314Y0082029D01*
X0212310Y0082029D02*
X0228314Y0082029D01*
X0232310Y0082029D02*
X0238314Y0082029D01*
X0242310Y0082029D02*
X0248314Y0082029D01*
X0252310Y0082029D02*
X0258314Y0082029D01*
X0262310Y0082029D02*
X0268314Y0082029D01*
X0272310Y0082029D02*
X0278314Y0082029D01*
X0282310Y0082029D02*
X0287660Y0082029D01*
X0286330Y0065240D02*
X0284294Y0065240D01*
X0276330Y0065240D02*
X0274294Y0065240D01*
X0266330Y0065240D02*
X0264294Y0065240D01*
X0256330Y0065240D02*
X0254294Y0065240D01*
X0246330Y0065240D02*
X0244294Y0065240D01*
X0236330Y0065240D02*
X0234294Y0065240D01*
X0226330Y0065240D02*
X0214294Y0065240D01*
X0217313Y0067638D02*
X0223311Y0067638D01*
X0221998Y0070037D02*
X0218625Y0070037D01*
X0219212Y0072435D02*
X0221412Y0072435D01*
X0221412Y0074834D02*
X0219212Y0074834D01*
X0218284Y0077232D02*
X0222339Y0077232D01*
X0224132Y0079631D02*
X0216491Y0079631D01*
X0206330Y0065240D02*
X0204294Y0065240D01*
X0196330Y0065240D02*
X0194294Y0065240D01*
X0186330Y0065240D02*
X0184294Y0065240D01*
X0176330Y0065240D02*
X0174294Y0065240D01*
X0166330Y0065240D02*
X0164294Y0065240D01*
X0156330Y0065240D02*
X0117472Y0065240D01*
X0117306Y0067638D02*
X0153311Y0067638D01*
X0151998Y0070037D02*
X0116313Y0070037D01*
X0116917Y0072435D02*
X0151412Y0072435D01*
X0151412Y0074834D02*
X0117472Y0074834D01*
X0117472Y0077232D02*
X0152339Y0077232D01*
X0154132Y0079631D02*
X0116481Y0079631D01*
X0128737Y0067161D02*
X0124800Y0063224D01*
X0124800Y0047476D01*
X0116260Y0050849D02*
X0138453Y0050849D01*
X0138453Y0053247D02*
X0117253Y0053247D01*
X0117472Y0055646D02*
X0138453Y0055646D01*
X0139803Y0058044D02*
X0117138Y0058044D01*
X0116140Y0060443D02*
X0142201Y0060443D01*
X0150705Y0060443D02*
X0302095Y0060443D01*
X0301471Y0062841D02*
X0117085Y0062841D01*
X0128737Y0067161D02*
X0150390Y0067161D01*
X0160233Y0057318D01*
X0301965Y0057318D01*
X0303999Y0058044D02*
X0153104Y0058044D01*
X0154453Y0055646D02*
X0248644Y0055646D01*
X0245481Y0053247D02*
X0156770Y0053247D01*
X0159168Y0050849D02*
X0244093Y0050849D01*
X0243438Y0048450D02*
X0161567Y0048450D01*
X0163965Y0046052D02*
X0243438Y0046052D01*
X0256231Y0055646D02*
X0306398Y0055646D01*
X0308796Y0053247D02*
X0296415Y0053247D01*
X0298573Y0050849D02*
X0311195Y0050849D01*
X0311682Y0048450D02*
X0299370Y0048450D01*
X0299303Y0046052D02*
X0313729Y0046052D01*
X0316127Y0043653D02*
X0304159Y0043653D01*
X0307689Y0041255D02*
X0332264Y0041255D01*
X0332468Y0041459D02*
X0331784Y0040775D01*
X0331196Y0040008D01*
X0330712Y0039171D01*
X0330342Y0038278D01*
X0330092Y0037344D01*
X0329966Y0036386D01*
X0329966Y0031828D01*
X0337241Y0031828D01*
X0337241Y0043277D01*
X0336857Y0043277D01*
X0335899Y0043151D01*
X0334965Y0042901D01*
X0334072Y0042531D01*
X0333235Y0042047D01*
X0332468Y0041459D01*
X0330582Y0038856D02*
X0310087Y0038856D01*
X0311934Y0036458D02*
X0329975Y0036458D01*
X0329966Y0034059D02*
X0311934Y0034059D01*
X0311934Y0031661D02*
X0337241Y0031661D01*
X0337241Y0031628D02*
X0329966Y0031628D01*
X0329966Y0027069D01*
X0330092Y0026111D01*
X0330342Y0025177D01*
X0330712Y0024284D01*
X0331196Y0023447D01*
X0331784Y0022680D01*
X0332468Y0021996D01*
X0333235Y0021408D01*
X0334072Y0020924D01*
X0334965Y0020554D01*
X0335899Y0020304D01*
X0336857Y0020178D01*
X0337241Y0020178D01*
X0337241Y0031627D01*
X0337441Y0031627D01*
X0337441Y0020178D01*
X0337824Y0020178D01*
X0338783Y0020304D01*
X0339716Y0020554D01*
X0340610Y0020924D01*
X0341447Y0021408D01*
X0342214Y0021996D01*
X0342897Y0022680D01*
X0343486Y0023447D01*
X0343969Y0024284D01*
X0344339Y0025177D01*
X0344589Y0026111D01*
X0344716Y0027069D01*
X0344716Y0031628D01*
X0337441Y0031628D01*
X0337441Y0031828D01*
X0337241Y0031828D01*
X0337241Y0031628D01*
X0337441Y0031661D02*
X0347766Y0031661D01*
X0347766Y0034059D02*
X0344716Y0034059D01*
X0344716Y0031828D02*
X0337441Y0031828D01*
X0337441Y0043277D01*
X0337824Y0043277D01*
X0338783Y0043151D01*
X0339716Y0042901D01*
X0340610Y0042531D01*
X0341447Y0042047D01*
X0342214Y0041459D01*
X0342897Y0040775D01*
X0343486Y0040008D01*
X0343969Y0039171D01*
X0344339Y0038278D01*
X0344589Y0037344D01*
X0344716Y0036386D01*
X0344716Y0031828D01*
X0344716Y0029262D02*
X0347766Y0029262D01*
X0347766Y0026864D02*
X0344689Y0026864D01*
X0344044Y0024465D02*
X0348273Y0024465D01*
X0349369Y0022067D02*
X0342284Y0022067D01*
X0337441Y0022067D02*
X0337241Y0022067D01*
X0337241Y0024465D02*
X0337441Y0024465D01*
X0337441Y0026864D02*
X0337241Y0026864D01*
X0337241Y0029262D02*
X0337441Y0029262D01*
X0337441Y0034059D02*
X0337241Y0034059D01*
X0337241Y0036458D02*
X0337441Y0036458D01*
X0337441Y0038856D02*
X0337241Y0038856D01*
X0337241Y0041255D02*
X0337441Y0041255D01*
X0342418Y0041255D02*
X0349235Y0041255D01*
X0348217Y0038856D02*
X0344100Y0038856D01*
X0344706Y0036458D02*
X0347766Y0036458D01*
X0351634Y0043653D02*
X0323236Y0043653D01*
X0324364Y0058044D02*
X0368444Y0058044D01*
X0370737Y0060443D02*
X0319703Y0060443D01*
X0317304Y0062841D02*
X0370978Y0062841D01*
X0366330Y0065240D02*
X0364294Y0065240D01*
X0356330Y0065240D02*
X0354294Y0065240D01*
X0346330Y0065240D02*
X0344294Y0065240D01*
X0336330Y0065240D02*
X0334294Y0065240D01*
X0326330Y0065240D02*
X0324294Y0065240D01*
X0316330Y0065240D02*
X0314906Y0065240D01*
X0296330Y0065240D02*
X0294294Y0065240D01*
X0292438Y0053247D02*
X0292438Y0053247D01*
X0292438Y0050849D02*
X0292438Y0050849D01*
X0292438Y0048450D02*
X0292438Y0048450D01*
X0292438Y0047476D02*
X0292438Y0047476D01*
X0285506Y0048450D02*
X0261438Y0048450D01*
X0261438Y0046052D02*
X0285572Y0046052D01*
X0286302Y0050849D02*
X0260782Y0050849D01*
X0259394Y0053247D02*
X0288461Y0053247D01*
X0291979Y0028885D02*
X0291069Y0028765D01*
X0290183Y0028528D01*
X0289335Y0028177D01*
X0288540Y0027718D01*
X0287812Y0027159D01*
X0287163Y0026510D01*
X0286605Y0025782D01*
X0286146Y0024988D01*
X0285795Y0024140D01*
X0285557Y0023254D01*
X0285438Y0022344D01*
X0285438Y0021885D01*
X0292438Y0021885D01*
X0292438Y0021885D01*
X0292438Y0028885D01*
X0291979Y0028885D01*
X0292438Y0026864D02*
X0292438Y0026864D01*
X0292438Y0024465D02*
X0292438Y0024465D01*
X0292438Y0022067D02*
X0292438Y0022067D01*
X0292438Y0021885D02*
X0292438Y0021885D01*
X0297359Y0026864D02*
X0299452Y0026864D01*
X0298946Y0024465D02*
X0330637Y0024465D01*
X0329993Y0026864D02*
X0308415Y0026864D01*
X0310813Y0029262D02*
X0329966Y0029262D01*
X0332397Y0022067D02*
X0299438Y0022067D01*
X0299091Y0019668D02*
X0351768Y0019668D01*
X0362514Y0019668D02*
X0371903Y0019668D01*
X0374301Y0017270D02*
X0297719Y0017270D01*
X0287156Y0017270D02*
X0260267Y0017270D01*
X0261261Y0019668D02*
X0285785Y0019668D01*
X0285438Y0022067D02*
X0261438Y0022067D01*
X0261110Y0024465D02*
X0285930Y0024465D01*
X0287517Y0026864D02*
X0260117Y0026864D01*
X0257788Y0029262D02*
X0297054Y0029262D01*
X0364913Y0022067D02*
X0369504Y0022067D01*
X0367281Y0024465D02*
X0366009Y0024465D01*
X0372831Y0027791D02*
X0372831Y0053381D01*
X0378737Y0059287D01*
X0402853Y0062841D02*
X0405296Y0062841D01*
X0436456Y0046052D02*
X0444635Y0046052D01*
X0442237Y0043653D02*
X0438854Y0043653D01*
X0441253Y0041255D02*
X0441482Y0041255D01*
X0437198Y0127601D02*
X0418521Y0127601D01*
X0419212Y0130000D02*
X0434800Y0130000D01*
X0432401Y0132398D02*
X0419212Y0132398D01*
X0419212Y0134797D02*
X0431392Y0134797D01*
X0431392Y0137195D02*
X0418927Y0137195D01*
X0419212Y0139594D02*
X0431392Y0139594D01*
X0431392Y0141992D02*
X0419212Y0141992D01*
X0419212Y0144391D02*
X0431392Y0144391D01*
X0431392Y0146789D02*
X0419212Y0146789D01*
X0418862Y0149188D02*
X0431392Y0149188D01*
X0431392Y0151586D02*
X0419212Y0151586D01*
X0419212Y0153985D02*
X0431392Y0153985D01*
X0431392Y0156383D02*
X0419212Y0156383D01*
X0418456Y0158782D02*
X0431392Y0158782D01*
X0431392Y0161180D02*
X0419212Y0161180D01*
X0419212Y0163579D02*
X0431392Y0163579D01*
X0431392Y0165977D02*
X0419212Y0165977D01*
X0418050Y0168376D02*
X0431392Y0168376D01*
X0431392Y0170774D02*
X0419212Y0170774D01*
X0419212Y0173173D02*
X0431392Y0173173D01*
X0431392Y0175571D02*
X0419212Y0175571D01*
X0418152Y0177970D02*
X0431392Y0177970D01*
X0431392Y0180368D02*
X0419212Y0180368D01*
X0419212Y0182767D02*
X0431392Y0182767D01*
X0431392Y0185165D02*
X0419212Y0185165D01*
X0418558Y0187564D02*
X0431392Y0187564D01*
X0431392Y0189962D02*
X0419212Y0189962D01*
X0419212Y0192361D02*
X0431392Y0192361D01*
X0431392Y0194759D02*
X0419212Y0194759D01*
X0418964Y0197158D02*
X0431392Y0197158D01*
X0431392Y0199556D02*
X0419212Y0199556D01*
X0419212Y0201955D02*
X0431392Y0201955D01*
X0431392Y0204353D02*
X0419212Y0204353D01*
X0419212Y0206752D02*
X0431392Y0206752D01*
X0431392Y0209150D02*
X0418825Y0209150D01*
X0419212Y0211549D02*
X0431392Y0211549D01*
X0431392Y0213947D02*
X0419212Y0213947D01*
X0419212Y0216346D02*
X0431392Y0216346D01*
X0391412Y0252324D02*
X0389062Y0252324D01*
X0463383Y0260074D02*
X0463383Y0313224D01*
X0469288Y0319129D01*
X0478383Y0319129D01*
X0473253Y0325529D02*
X0468015Y0325529D01*
X0465663Y0324555D01*
X0459757Y0318649D01*
X0457957Y0316849D01*
X0456983Y0314497D01*
X0456983Y0310851D01*
X0454813Y0311750D01*
X0239664Y0311750D01*
X0241063Y0313149D01*
X0241063Y0324795D01*
X0238649Y0327209D01*
X0474932Y0327209D01*
X0473253Y0325529D01*
X0474401Y0326678D02*
X0239180Y0326678D01*
X0241063Y0324279D02*
X0444831Y0324279D01*
X0445834Y0325282D02*
X0442230Y0321678D01*
X0442230Y0319129D01*
X0442230Y0316581D01*
X0445834Y0312976D01*
X0448382Y0312976D01*
X0448382Y0319129D01*
X0442230Y0319129D01*
X0448382Y0319129D01*
X0448382Y0319129D01*
X0448383Y0319129D01*
X0448383Y0319129D01*
X0454535Y0319129D01*
X0454535Y0316581D01*
X0450931Y0312976D01*
X0448383Y0312976D01*
X0448383Y0319129D01*
X0454535Y0319129D01*
X0454535Y0321678D01*
X0450931Y0325282D01*
X0448383Y0325282D01*
X0448383Y0319129D01*
X0448382Y0319129D01*
X0448382Y0325282D01*
X0445834Y0325282D01*
X0448382Y0324279D02*
X0448383Y0324279D01*
X0448382Y0321880D02*
X0448383Y0321880D01*
X0448382Y0319482D02*
X0448383Y0319482D01*
X0448382Y0317083D02*
X0448383Y0317083D01*
X0448382Y0314685D02*
X0448383Y0314685D01*
X0452640Y0314685D02*
X0457061Y0314685D01*
X0456983Y0312286D02*
X0240201Y0312286D01*
X0241063Y0314685D02*
X0444125Y0314685D01*
X0442230Y0317083D02*
X0241063Y0317083D01*
X0241063Y0319482D02*
X0442230Y0319482D01*
X0442433Y0321880D02*
X0241063Y0321880D01*
X0243559Y0271512D02*
X0247064Y0271512D01*
X0253559Y0271512D02*
X0257064Y0271512D01*
X0263559Y0271512D02*
X0267064Y0271512D01*
X0273559Y0271512D02*
X0277064Y0271512D01*
X0277579Y0254722D02*
X0273044Y0254722D01*
X0267579Y0254722D02*
X0263044Y0254722D01*
X0257579Y0254722D02*
X0253044Y0254722D01*
X0247579Y0254722D02*
X0243044Y0254722D01*
X0237579Y0254722D02*
X0233044Y0254722D01*
X0227579Y0254722D02*
X0223044Y0254722D01*
X0217579Y0254722D02*
X0213044Y0254722D01*
X0213559Y0271512D02*
X0217064Y0271512D01*
X0223559Y0271512D02*
X0227064Y0271512D01*
X0233559Y0271512D02*
X0237064Y0271512D01*
X0251660Y0130000D02*
X0116328Y0130000D01*
X0117322Y0127601D02*
X0249262Y0127601D01*
X0247316Y0125203D02*
X0117472Y0125203D01*
X0117069Y0122804D02*
X0247316Y0122804D01*
X0247316Y0120406D02*
X0116160Y0120406D01*
X0117154Y0118007D02*
X0248211Y0118007D01*
X0298476Y0110811D02*
X0116244Y0110811D01*
X0093072Y0084428D02*
X0087926Y0084428D01*
X0082697Y0084428D02*
X0036012Y0084428D01*
X0036012Y0082029D02*
X0077855Y0082029D01*
X0075733Y0079631D02*
X0036012Y0079631D01*
X0036012Y0077232D02*
X0074481Y0077232D01*
X0073838Y0074834D02*
X0036012Y0074834D01*
X0036012Y0072435D02*
X0073812Y0072435D01*
X0074261Y0070037D02*
X0036012Y0070037D01*
X0036012Y0067638D02*
X0075258Y0067638D01*
X0077033Y0065240D02*
X0036012Y0065240D01*
X0036012Y0062841D02*
X0080296Y0062841D01*
X0090327Y0062841D02*
X0093460Y0062841D01*
X0094404Y0060443D02*
X0066317Y0060443D01*
X0068715Y0058044D02*
X0093406Y0058044D01*
X0093072Y0055646D02*
X0071114Y0055646D01*
X0073512Y0053247D02*
X0093292Y0053247D01*
X0094285Y0050849D02*
X0075911Y0050849D01*
X0078309Y0048450D02*
X0095739Y0048450D01*
X0095086Y0046052D02*
X0080708Y0046052D01*
X0080787Y0043653D02*
X0095333Y0043653D01*
X0096590Y0041255D02*
X0080787Y0041255D01*
X0080787Y0038856D02*
X0100960Y0038856D01*
X0097838Y0036458D02*
X0080787Y0036458D01*
X0080787Y0034059D02*
X0095439Y0034059D01*
X0093041Y0031661D02*
X0080787Y0031661D01*
X0080787Y0029262D02*
X0091214Y0029262D01*
X0091214Y0026864D02*
X0080787Y0026864D01*
X0079895Y0024465D02*
X0091214Y0024465D01*
X0091214Y0022067D02*
X0077497Y0022067D01*
X0075098Y0019668D02*
X0091214Y0019668D01*
X0092132Y0017270D02*
X0072700Y0017270D01*
X0105272Y0038856D02*
X0105272Y0038856D01*
X0105272Y0041255D02*
X0105272Y0041255D01*
X0105272Y0043653D02*
X0105272Y0043653D01*
X0113954Y0041255D02*
X0148398Y0041255D01*
X0150796Y0038856D02*
X0109584Y0038856D01*
X0112707Y0036458D02*
X0153195Y0036458D01*
X0155593Y0034059D02*
X0115106Y0034059D01*
X0117504Y0031661D02*
X0157992Y0031661D01*
X0145999Y0043653D02*
X0115212Y0043653D01*
X0115458Y0046052D02*
X0142469Y0046052D01*
X0140071Y0048450D02*
X0114805Y0048450D01*
X0119331Y0029262D02*
X0193189Y0029262D01*
X0190791Y0026864D02*
X0119331Y0026864D01*
X0119331Y0024465D02*
X0189540Y0024465D01*
X0189540Y0022067D02*
X0119331Y0022067D01*
X0119331Y0019668D02*
X0189540Y0019668D01*
X0190428Y0017270D02*
X0118412Y0017270D01*
X0045488Y0060443D02*
X0036012Y0060443D01*
X0036012Y0058044D02*
X0043089Y0058044D01*
X0040691Y0055646D02*
X0036012Y0055646D01*
X0036012Y0053247D02*
X0038292Y0053247D01*
X0092768Y0082029D02*
X0093796Y0082029D01*
X0454535Y0317083D02*
X0458191Y0317083D01*
X0459757Y0318649D02*
X0459757Y0318649D01*
X0460590Y0319482D02*
X0454535Y0319482D01*
X0454332Y0321880D02*
X0462988Y0321880D01*
X0465387Y0324279D02*
X0451934Y0324279D01*
D21*
X0490942Y0287633D03*
X0465351Y0258106D03*
X0490942Y0250231D03*
X0418107Y0236452D03*
X0449603Y0195113D03*
X0449603Y0149838D03*
X0492910Y0124247D03*
X0488973Y0080940D03*
X0477162Y0080940D03*
X0455509Y0065192D03*
X0429918Y0051413D03*
X0378737Y0059287D03*
X0319682Y0051413D03*
X0301965Y0057318D03*
X0303934Y0033696D03*
X0146453Y0053381D03*
X0124800Y0047476D03*
D22*
X0146453Y0053381D02*
X0162201Y0037633D01*
X0299997Y0037633D01*
X0303934Y0033696D01*
D23*
X0449603Y0149838D02*
X0449603Y0195113D01*
X0449603Y0202987D01*
X0453540Y0206924D01*
X0473225Y0206924D01*
X0478383Y0201767D01*
X0487005Y0201767D01*
D24*
X0055902Y0035665D03*
X0055902Y0299444D03*
X0477162Y0171491D03*
M02*
