G75*
%MOIN*%
%OFA0B0*%
%FSLAX25Y25*%
%IPPOS*%
%LPD*%
%AMOC8*
5,1,8,0,0,1.08239X$1,22.5*
%
%ADD10C,0.00700*%
%ADD11C,0.00600*%
%ADD12R,0.02000X0.10000*%
%ADD13R,0.07500X0.03000*%
%ADD14C,0.00500*%
%ADD15R,0.03000X0.15000*%
%ADD16C,0.02000*%
%ADD17R,0.01500X0.02000*%
%ADD18C,0.00800*%
%ADD19C,0.01200*%
%ADD20C,0.00900*%
%ADD21C,0.00787*%
%ADD22R,0.02000X0.01500*%
%ADD23C,0.01000*%
%ADD24C,0.00197*%
D10*
X0085349Y0139361D02*
X0091655Y0139361D01*
X0091655Y0143565D01*
X0090604Y0145807D02*
X0086400Y0145807D01*
X0085349Y0146857D01*
X0085349Y0148959D01*
X0086400Y0150010D01*
X0085349Y0152252D02*
X0085349Y0155405D01*
X0086400Y0156456D01*
X0090604Y0156456D01*
X0091655Y0155405D01*
X0091655Y0152252D01*
X0085349Y0152252D01*
X0090604Y0150010D02*
X0091655Y0148959D01*
X0091655Y0146857D01*
X0090604Y0145807D01*
X0091655Y0158698D02*
X0091655Y0162901D01*
X0091655Y0160799D02*
X0085349Y0160799D01*
X0087451Y0158698D01*
X0286567Y0316593D02*
X0287618Y0315542D01*
X0289720Y0315542D01*
X0290771Y0316593D01*
X0293013Y0316593D02*
X0294064Y0315542D01*
X0296165Y0315542D01*
X0297216Y0316593D01*
X0297216Y0320797D01*
X0296165Y0321848D01*
X0294064Y0321848D01*
X0293013Y0320797D01*
X0293013Y0316593D01*
X0290771Y0320797D02*
X0289720Y0321848D01*
X0287618Y0321848D01*
X0286567Y0320797D01*
X0286567Y0316593D01*
X0299458Y0315542D02*
X0299458Y0321848D01*
X0303662Y0315542D01*
X0303662Y0321848D01*
X0305904Y0321848D02*
X0310107Y0321848D01*
X0308005Y0321848D02*
X0308005Y0315542D01*
X0312349Y0315542D02*
X0312349Y0321848D01*
X0315502Y0321848D01*
X0316553Y0320797D01*
X0316553Y0318695D01*
X0315502Y0317644D01*
X0312349Y0317644D01*
X0314451Y0317644D02*
X0316553Y0315542D01*
X0318795Y0316593D02*
X0319846Y0315542D01*
X0321947Y0315542D01*
X0322998Y0316593D01*
X0322998Y0320797D01*
X0321947Y0321848D01*
X0319846Y0321848D01*
X0318795Y0320797D01*
X0318795Y0316593D01*
X0325240Y0315542D02*
X0329444Y0315542D01*
X0331686Y0315542D02*
X0331686Y0319746D01*
X0333787Y0321848D01*
X0335889Y0319746D01*
X0335889Y0315542D01*
X0338131Y0315542D02*
X0341284Y0315542D01*
X0342335Y0316593D01*
X0342335Y0320797D01*
X0341284Y0321848D01*
X0338131Y0321848D01*
X0338131Y0315542D01*
X0335889Y0318695D02*
X0331686Y0318695D01*
X0325240Y0321848D02*
X0325240Y0315542D01*
X0344577Y0316593D02*
X0345628Y0315542D01*
X0347729Y0315542D01*
X0348780Y0316593D01*
X0348780Y0320797D01*
X0347729Y0321848D01*
X0345628Y0321848D01*
X0344577Y0320797D01*
X0344577Y0316593D01*
X0351022Y0315542D02*
X0351022Y0321848D01*
X0354175Y0321848D01*
X0355226Y0320797D01*
X0355226Y0318695D01*
X0354175Y0317644D01*
X0351022Y0317644D01*
X0353124Y0317644D02*
X0355226Y0315542D01*
X0363913Y0315542D02*
X0363913Y0321848D01*
X0367066Y0321848D01*
X0368117Y0320797D01*
X0368117Y0318695D01*
X0367066Y0317644D01*
X0363913Y0317644D01*
X0370359Y0315542D02*
X0372460Y0315542D01*
X0371410Y0315542D02*
X0371410Y0321848D01*
X0372460Y0321848D02*
X0370359Y0321848D01*
X0374656Y0321848D02*
X0377808Y0321848D01*
X0378859Y0320797D01*
X0378859Y0316593D01*
X0377808Y0315542D01*
X0374656Y0315542D01*
X0374656Y0321848D01*
X0387547Y0321848D02*
X0387547Y0315542D01*
X0390699Y0315542D01*
X0391750Y0316593D01*
X0391750Y0320797D01*
X0390699Y0321848D01*
X0387547Y0321848D01*
X0393992Y0321848D02*
X0396094Y0321848D01*
X0395043Y0321848D02*
X0395043Y0315542D01*
X0393992Y0315542D02*
X0396094Y0315542D01*
X0398289Y0316593D02*
X0399340Y0315542D01*
X0401442Y0315542D01*
X0402493Y0316593D01*
X0402493Y0318695D01*
X0400391Y0318695D01*
X0402493Y0320797D02*
X0401442Y0321848D01*
X0399340Y0321848D01*
X0398289Y0320797D01*
X0398289Y0316593D01*
X0404735Y0315542D02*
X0406836Y0315542D01*
X0405786Y0315542D02*
X0405786Y0321848D01*
X0406836Y0321848D02*
X0404735Y0321848D01*
X0409032Y0321848D02*
X0413235Y0321848D01*
X0411133Y0321848D02*
X0411133Y0315542D01*
X0415477Y0315542D02*
X0415477Y0319746D01*
X0417579Y0321848D01*
X0419681Y0319746D01*
X0419681Y0315542D01*
X0421923Y0315542D02*
X0426126Y0315542D01*
X0421923Y0315542D02*
X0421923Y0321848D01*
X0419681Y0318695D02*
X0415477Y0318695D01*
X0414491Y0055005D02*
X0413440Y0053954D01*
X0414491Y0055005D02*
X0416593Y0055005D01*
X0417644Y0053954D01*
X0417644Y0052903D01*
X0413440Y0048700D01*
X0417644Y0048700D01*
X0419885Y0050801D02*
X0421987Y0048700D01*
X0424089Y0050801D01*
X0424089Y0055005D01*
X0419885Y0055005D02*
X0419885Y0050801D01*
X0411198Y0048700D02*
X0406994Y0048700D01*
X0409096Y0048700D02*
X0409096Y0055005D01*
X0406994Y0052903D01*
X0404753Y0051852D02*
X0400549Y0051852D01*
X0398690Y0049927D02*
X0398690Y0054131D01*
X0402651Y0053954D02*
X0402651Y0049751D01*
X0398690Y0049927D02*
X0396588Y0047826D01*
X0394486Y0049927D01*
X0394486Y0054131D01*
X0392244Y0053080D02*
X0391194Y0054131D01*
X0389092Y0054131D01*
X0388041Y0053080D01*
X0392244Y0053080D02*
X0392244Y0052029D01*
X0388041Y0047826D01*
X0392244Y0047826D01*
X0385799Y0047826D02*
X0381595Y0047826D01*
X0383697Y0047826D02*
X0383697Y0054131D01*
X0381595Y0052029D01*
X0379353Y0050978D02*
X0375150Y0050978D01*
X0366654Y0049927D02*
X0366654Y0054131D01*
X0362450Y0054131D02*
X0362450Y0049927D01*
X0364552Y0047826D01*
X0366654Y0049927D01*
X0360208Y0050978D02*
X0360208Y0048876D01*
X0359158Y0047826D01*
X0357056Y0047826D01*
X0356005Y0048876D01*
X0356005Y0050978D02*
X0358107Y0052029D01*
X0359158Y0052029D01*
X0360208Y0050978D01*
X0360208Y0054131D02*
X0356005Y0054131D01*
X0356005Y0050978D01*
X0353763Y0050978D02*
X0349559Y0050978D01*
X0351661Y0053080D02*
X0351661Y0048876D01*
X0345000Y0048876D02*
X0345000Y0053080D01*
X0343949Y0054131D01*
X0340797Y0054131D01*
X0340797Y0047826D01*
X0343949Y0047826D01*
X0345000Y0048876D01*
X0338555Y0047826D02*
X0338555Y0054131D01*
X0334351Y0054131D02*
X0338555Y0047826D01*
X0334351Y0047826D02*
X0334351Y0054131D01*
X0332109Y0053080D02*
X0331058Y0054131D01*
X0328957Y0054131D01*
X0327906Y0053080D01*
X0327906Y0048876D01*
X0328957Y0047826D01*
X0331058Y0047826D01*
X0332109Y0048876D01*
X0332109Y0050978D01*
X0330008Y0050978D01*
X0324816Y0036725D02*
X0322714Y0034624D01*
X0322714Y0035674D02*
X0322714Y0032522D01*
X0324816Y0032522D02*
X0318511Y0032522D01*
X0318511Y0035674D01*
X0319562Y0036725D01*
X0321663Y0036725D01*
X0322714Y0035674D01*
X0324816Y0030280D02*
X0318511Y0030280D01*
X0318511Y0026076D02*
X0324816Y0026076D01*
X0322714Y0028178D01*
X0324816Y0030280D01*
X0321663Y0023834D02*
X0319562Y0023834D01*
X0318511Y0022784D01*
X0318511Y0019631D01*
X0324816Y0019631D01*
X0322714Y0019631D02*
X0322714Y0022784D01*
X0321663Y0023834D01*
X0428078Y0023543D02*
X0428078Y0020390D01*
X0434383Y0020390D01*
X0432281Y0020390D02*
X0432281Y0023543D01*
X0431230Y0024594D01*
X0429128Y0024594D01*
X0428078Y0023543D01*
X0428078Y0026836D02*
X0434383Y0026836D01*
X0432281Y0028937D01*
X0434383Y0031039D01*
X0428078Y0031039D01*
X0428078Y0033281D02*
X0428078Y0036434D01*
X0429128Y0037485D01*
X0431230Y0037485D01*
X0432281Y0036434D01*
X0432281Y0033281D01*
X0432281Y0035383D02*
X0434383Y0037485D01*
X0434383Y0039727D02*
X0434383Y0043930D01*
X0434383Y0041828D02*
X0428078Y0041828D01*
X0430179Y0039727D01*
X0428078Y0033281D02*
X0434383Y0033281D01*
D11*
X0424327Y0040228D02*
X0424327Y0023228D01*
X0384327Y0023228D01*
X0384327Y0040228D01*
X0384327Y0045728D01*
X0424327Y0045728D01*
X0424327Y0040228D01*
X0384327Y0040228D01*
X0367241Y0040228D02*
X0367241Y0023228D01*
X0327241Y0023228D01*
X0327241Y0040228D01*
X0327241Y0045728D01*
X0367241Y0045728D01*
X0367241Y0040228D01*
X0327241Y0040228D01*
X0327241Y0023228D02*
X0327241Y0016228D01*
X0367241Y0016228D01*
X0367241Y0019728D01*
X0367241Y0023228D01*
X0369241Y0023728D01*
X0369241Y0019228D01*
X0367241Y0019728D01*
X0355141Y0019728D02*
X0355143Y0019817D01*
X0355149Y0019906D01*
X0355159Y0019995D01*
X0355173Y0020083D01*
X0355190Y0020170D01*
X0355212Y0020256D01*
X0355238Y0020342D01*
X0355267Y0020426D01*
X0355300Y0020509D01*
X0355336Y0020590D01*
X0355377Y0020670D01*
X0355420Y0020747D01*
X0355467Y0020823D01*
X0355518Y0020896D01*
X0355571Y0020967D01*
X0355628Y0021036D01*
X0355688Y0021102D01*
X0355751Y0021166D01*
X0355816Y0021226D01*
X0355884Y0021284D01*
X0355955Y0021338D01*
X0356028Y0021389D01*
X0356103Y0021437D01*
X0356180Y0021482D01*
X0356259Y0021523D01*
X0356340Y0021560D01*
X0356422Y0021594D01*
X0356506Y0021625D01*
X0356591Y0021651D01*
X0356677Y0021674D01*
X0356764Y0021692D01*
X0356852Y0021707D01*
X0356941Y0021718D01*
X0357030Y0021725D01*
X0357119Y0021728D01*
X0357208Y0021727D01*
X0357297Y0021722D01*
X0357385Y0021713D01*
X0357474Y0021700D01*
X0357561Y0021683D01*
X0357648Y0021663D01*
X0357734Y0021638D01*
X0357818Y0021610D01*
X0357901Y0021578D01*
X0357983Y0021542D01*
X0358063Y0021503D01*
X0358141Y0021460D01*
X0358217Y0021414D01*
X0358291Y0021364D01*
X0358363Y0021311D01*
X0358432Y0021255D01*
X0358499Y0021196D01*
X0358563Y0021134D01*
X0358624Y0021070D01*
X0358683Y0021002D01*
X0358738Y0020932D01*
X0358790Y0020860D01*
X0358839Y0020785D01*
X0358884Y0020709D01*
X0358926Y0020630D01*
X0358964Y0020550D01*
X0358999Y0020468D01*
X0359030Y0020384D01*
X0359058Y0020299D01*
X0359081Y0020213D01*
X0359101Y0020126D01*
X0359117Y0020039D01*
X0359129Y0019950D01*
X0359137Y0019862D01*
X0359141Y0019773D01*
X0359141Y0019683D01*
X0359137Y0019594D01*
X0359129Y0019506D01*
X0359117Y0019417D01*
X0359101Y0019330D01*
X0359081Y0019243D01*
X0359058Y0019157D01*
X0359030Y0019072D01*
X0358999Y0018988D01*
X0358964Y0018906D01*
X0358926Y0018826D01*
X0358884Y0018747D01*
X0358839Y0018671D01*
X0358790Y0018596D01*
X0358738Y0018524D01*
X0358683Y0018454D01*
X0358624Y0018386D01*
X0358563Y0018322D01*
X0358499Y0018260D01*
X0358432Y0018201D01*
X0358363Y0018145D01*
X0358291Y0018092D01*
X0358217Y0018042D01*
X0358141Y0017996D01*
X0358063Y0017953D01*
X0357983Y0017914D01*
X0357901Y0017878D01*
X0357818Y0017846D01*
X0357734Y0017818D01*
X0357648Y0017793D01*
X0357561Y0017773D01*
X0357474Y0017756D01*
X0357385Y0017743D01*
X0357297Y0017734D01*
X0357208Y0017729D01*
X0357119Y0017728D01*
X0357030Y0017731D01*
X0356941Y0017738D01*
X0356852Y0017749D01*
X0356764Y0017764D01*
X0356677Y0017782D01*
X0356591Y0017805D01*
X0356506Y0017831D01*
X0356422Y0017862D01*
X0356340Y0017896D01*
X0356259Y0017933D01*
X0356180Y0017974D01*
X0356103Y0018019D01*
X0356028Y0018067D01*
X0355955Y0018118D01*
X0355884Y0018172D01*
X0355816Y0018230D01*
X0355751Y0018290D01*
X0355688Y0018354D01*
X0355628Y0018420D01*
X0355571Y0018489D01*
X0355518Y0018560D01*
X0355467Y0018633D01*
X0355420Y0018709D01*
X0355377Y0018786D01*
X0355336Y0018866D01*
X0355300Y0018947D01*
X0355267Y0019030D01*
X0355238Y0019114D01*
X0355212Y0019200D01*
X0355190Y0019286D01*
X0355173Y0019373D01*
X0355159Y0019461D01*
X0355149Y0019550D01*
X0355143Y0019639D01*
X0355141Y0019728D01*
X0335341Y0019728D02*
X0335343Y0019817D01*
X0335349Y0019906D01*
X0335359Y0019995D01*
X0335373Y0020083D01*
X0335390Y0020170D01*
X0335412Y0020256D01*
X0335438Y0020342D01*
X0335467Y0020426D01*
X0335500Y0020509D01*
X0335536Y0020590D01*
X0335577Y0020670D01*
X0335620Y0020747D01*
X0335667Y0020823D01*
X0335718Y0020896D01*
X0335771Y0020967D01*
X0335828Y0021036D01*
X0335888Y0021102D01*
X0335951Y0021166D01*
X0336016Y0021226D01*
X0336084Y0021284D01*
X0336155Y0021338D01*
X0336228Y0021389D01*
X0336303Y0021437D01*
X0336380Y0021482D01*
X0336459Y0021523D01*
X0336540Y0021560D01*
X0336622Y0021594D01*
X0336706Y0021625D01*
X0336791Y0021651D01*
X0336877Y0021674D01*
X0336964Y0021692D01*
X0337052Y0021707D01*
X0337141Y0021718D01*
X0337230Y0021725D01*
X0337319Y0021728D01*
X0337408Y0021727D01*
X0337497Y0021722D01*
X0337585Y0021713D01*
X0337674Y0021700D01*
X0337761Y0021683D01*
X0337848Y0021663D01*
X0337934Y0021638D01*
X0338018Y0021610D01*
X0338101Y0021578D01*
X0338183Y0021542D01*
X0338263Y0021503D01*
X0338341Y0021460D01*
X0338417Y0021414D01*
X0338491Y0021364D01*
X0338563Y0021311D01*
X0338632Y0021255D01*
X0338699Y0021196D01*
X0338763Y0021134D01*
X0338824Y0021070D01*
X0338883Y0021002D01*
X0338938Y0020932D01*
X0338990Y0020860D01*
X0339039Y0020785D01*
X0339084Y0020709D01*
X0339126Y0020630D01*
X0339164Y0020550D01*
X0339199Y0020468D01*
X0339230Y0020384D01*
X0339258Y0020299D01*
X0339281Y0020213D01*
X0339301Y0020126D01*
X0339317Y0020039D01*
X0339329Y0019950D01*
X0339337Y0019862D01*
X0339341Y0019773D01*
X0339341Y0019683D01*
X0339337Y0019594D01*
X0339329Y0019506D01*
X0339317Y0019417D01*
X0339301Y0019330D01*
X0339281Y0019243D01*
X0339258Y0019157D01*
X0339230Y0019072D01*
X0339199Y0018988D01*
X0339164Y0018906D01*
X0339126Y0018826D01*
X0339084Y0018747D01*
X0339039Y0018671D01*
X0338990Y0018596D01*
X0338938Y0018524D01*
X0338883Y0018454D01*
X0338824Y0018386D01*
X0338763Y0018322D01*
X0338699Y0018260D01*
X0338632Y0018201D01*
X0338563Y0018145D01*
X0338491Y0018092D01*
X0338417Y0018042D01*
X0338341Y0017996D01*
X0338263Y0017953D01*
X0338183Y0017914D01*
X0338101Y0017878D01*
X0338018Y0017846D01*
X0337934Y0017818D01*
X0337848Y0017793D01*
X0337761Y0017773D01*
X0337674Y0017756D01*
X0337585Y0017743D01*
X0337497Y0017734D01*
X0337408Y0017729D01*
X0337319Y0017728D01*
X0337230Y0017731D01*
X0337141Y0017738D01*
X0337052Y0017749D01*
X0336964Y0017764D01*
X0336877Y0017782D01*
X0336791Y0017805D01*
X0336706Y0017831D01*
X0336622Y0017862D01*
X0336540Y0017896D01*
X0336459Y0017933D01*
X0336380Y0017974D01*
X0336303Y0018019D01*
X0336228Y0018067D01*
X0336155Y0018118D01*
X0336084Y0018172D01*
X0336016Y0018230D01*
X0335951Y0018290D01*
X0335888Y0018354D01*
X0335828Y0018420D01*
X0335771Y0018489D01*
X0335718Y0018560D01*
X0335667Y0018633D01*
X0335620Y0018709D01*
X0335577Y0018786D01*
X0335536Y0018866D01*
X0335500Y0018947D01*
X0335467Y0019030D01*
X0335438Y0019114D01*
X0335412Y0019200D01*
X0335390Y0019286D01*
X0335373Y0019373D01*
X0335359Y0019461D01*
X0335349Y0019550D01*
X0335343Y0019639D01*
X0335341Y0019728D01*
X0384327Y0016228D02*
X0384327Y0023228D01*
X0384327Y0016228D02*
X0424327Y0016228D01*
X0424327Y0019728D01*
X0424327Y0023228D01*
X0426327Y0023728D01*
X0426327Y0019228D01*
X0424327Y0019728D01*
X0412227Y0019728D02*
X0412229Y0019817D01*
X0412235Y0019906D01*
X0412245Y0019995D01*
X0412259Y0020083D01*
X0412276Y0020170D01*
X0412298Y0020256D01*
X0412324Y0020342D01*
X0412353Y0020426D01*
X0412386Y0020509D01*
X0412422Y0020590D01*
X0412463Y0020670D01*
X0412506Y0020747D01*
X0412553Y0020823D01*
X0412604Y0020896D01*
X0412657Y0020967D01*
X0412714Y0021036D01*
X0412774Y0021102D01*
X0412837Y0021166D01*
X0412902Y0021226D01*
X0412970Y0021284D01*
X0413041Y0021338D01*
X0413114Y0021389D01*
X0413189Y0021437D01*
X0413266Y0021482D01*
X0413345Y0021523D01*
X0413426Y0021560D01*
X0413508Y0021594D01*
X0413592Y0021625D01*
X0413677Y0021651D01*
X0413763Y0021674D01*
X0413850Y0021692D01*
X0413938Y0021707D01*
X0414027Y0021718D01*
X0414116Y0021725D01*
X0414205Y0021728D01*
X0414294Y0021727D01*
X0414383Y0021722D01*
X0414471Y0021713D01*
X0414560Y0021700D01*
X0414647Y0021683D01*
X0414734Y0021663D01*
X0414820Y0021638D01*
X0414904Y0021610D01*
X0414987Y0021578D01*
X0415069Y0021542D01*
X0415149Y0021503D01*
X0415227Y0021460D01*
X0415303Y0021414D01*
X0415377Y0021364D01*
X0415449Y0021311D01*
X0415518Y0021255D01*
X0415585Y0021196D01*
X0415649Y0021134D01*
X0415710Y0021070D01*
X0415769Y0021002D01*
X0415824Y0020932D01*
X0415876Y0020860D01*
X0415925Y0020785D01*
X0415970Y0020709D01*
X0416012Y0020630D01*
X0416050Y0020550D01*
X0416085Y0020468D01*
X0416116Y0020384D01*
X0416144Y0020299D01*
X0416167Y0020213D01*
X0416187Y0020126D01*
X0416203Y0020039D01*
X0416215Y0019950D01*
X0416223Y0019862D01*
X0416227Y0019773D01*
X0416227Y0019683D01*
X0416223Y0019594D01*
X0416215Y0019506D01*
X0416203Y0019417D01*
X0416187Y0019330D01*
X0416167Y0019243D01*
X0416144Y0019157D01*
X0416116Y0019072D01*
X0416085Y0018988D01*
X0416050Y0018906D01*
X0416012Y0018826D01*
X0415970Y0018747D01*
X0415925Y0018671D01*
X0415876Y0018596D01*
X0415824Y0018524D01*
X0415769Y0018454D01*
X0415710Y0018386D01*
X0415649Y0018322D01*
X0415585Y0018260D01*
X0415518Y0018201D01*
X0415449Y0018145D01*
X0415377Y0018092D01*
X0415303Y0018042D01*
X0415227Y0017996D01*
X0415149Y0017953D01*
X0415069Y0017914D01*
X0414987Y0017878D01*
X0414904Y0017846D01*
X0414820Y0017818D01*
X0414734Y0017793D01*
X0414647Y0017773D01*
X0414560Y0017756D01*
X0414471Y0017743D01*
X0414383Y0017734D01*
X0414294Y0017729D01*
X0414205Y0017728D01*
X0414116Y0017731D01*
X0414027Y0017738D01*
X0413938Y0017749D01*
X0413850Y0017764D01*
X0413763Y0017782D01*
X0413677Y0017805D01*
X0413592Y0017831D01*
X0413508Y0017862D01*
X0413426Y0017896D01*
X0413345Y0017933D01*
X0413266Y0017974D01*
X0413189Y0018019D01*
X0413114Y0018067D01*
X0413041Y0018118D01*
X0412970Y0018172D01*
X0412902Y0018230D01*
X0412837Y0018290D01*
X0412774Y0018354D01*
X0412714Y0018420D01*
X0412657Y0018489D01*
X0412604Y0018560D01*
X0412553Y0018633D01*
X0412506Y0018709D01*
X0412463Y0018786D01*
X0412422Y0018866D01*
X0412386Y0018947D01*
X0412353Y0019030D01*
X0412324Y0019114D01*
X0412298Y0019200D01*
X0412276Y0019286D01*
X0412259Y0019373D01*
X0412245Y0019461D01*
X0412235Y0019550D01*
X0412229Y0019639D01*
X0412227Y0019728D01*
X0392427Y0019728D02*
X0392429Y0019817D01*
X0392435Y0019906D01*
X0392445Y0019995D01*
X0392459Y0020083D01*
X0392476Y0020170D01*
X0392498Y0020256D01*
X0392524Y0020342D01*
X0392553Y0020426D01*
X0392586Y0020509D01*
X0392622Y0020590D01*
X0392663Y0020670D01*
X0392706Y0020747D01*
X0392753Y0020823D01*
X0392804Y0020896D01*
X0392857Y0020967D01*
X0392914Y0021036D01*
X0392974Y0021102D01*
X0393037Y0021166D01*
X0393102Y0021226D01*
X0393170Y0021284D01*
X0393241Y0021338D01*
X0393314Y0021389D01*
X0393389Y0021437D01*
X0393466Y0021482D01*
X0393545Y0021523D01*
X0393626Y0021560D01*
X0393708Y0021594D01*
X0393792Y0021625D01*
X0393877Y0021651D01*
X0393963Y0021674D01*
X0394050Y0021692D01*
X0394138Y0021707D01*
X0394227Y0021718D01*
X0394316Y0021725D01*
X0394405Y0021728D01*
X0394494Y0021727D01*
X0394583Y0021722D01*
X0394671Y0021713D01*
X0394760Y0021700D01*
X0394847Y0021683D01*
X0394934Y0021663D01*
X0395020Y0021638D01*
X0395104Y0021610D01*
X0395187Y0021578D01*
X0395269Y0021542D01*
X0395349Y0021503D01*
X0395427Y0021460D01*
X0395503Y0021414D01*
X0395577Y0021364D01*
X0395649Y0021311D01*
X0395718Y0021255D01*
X0395785Y0021196D01*
X0395849Y0021134D01*
X0395910Y0021070D01*
X0395969Y0021002D01*
X0396024Y0020932D01*
X0396076Y0020860D01*
X0396125Y0020785D01*
X0396170Y0020709D01*
X0396212Y0020630D01*
X0396250Y0020550D01*
X0396285Y0020468D01*
X0396316Y0020384D01*
X0396344Y0020299D01*
X0396367Y0020213D01*
X0396387Y0020126D01*
X0396403Y0020039D01*
X0396415Y0019950D01*
X0396423Y0019862D01*
X0396427Y0019773D01*
X0396427Y0019683D01*
X0396423Y0019594D01*
X0396415Y0019506D01*
X0396403Y0019417D01*
X0396387Y0019330D01*
X0396367Y0019243D01*
X0396344Y0019157D01*
X0396316Y0019072D01*
X0396285Y0018988D01*
X0396250Y0018906D01*
X0396212Y0018826D01*
X0396170Y0018747D01*
X0396125Y0018671D01*
X0396076Y0018596D01*
X0396024Y0018524D01*
X0395969Y0018454D01*
X0395910Y0018386D01*
X0395849Y0018322D01*
X0395785Y0018260D01*
X0395718Y0018201D01*
X0395649Y0018145D01*
X0395577Y0018092D01*
X0395503Y0018042D01*
X0395427Y0017996D01*
X0395349Y0017953D01*
X0395269Y0017914D01*
X0395187Y0017878D01*
X0395104Y0017846D01*
X0395020Y0017818D01*
X0394934Y0017793D01*
X0394847Y0017773D01*
X0394760Y0017756D01*
X0394671Y0017743D01*
X0394583Y0017734D01*
X0394494Y0017729D01*
X0394405Y0017728D01*
X0394316Y0017731D01*
X0394227Y0017738D01*
X0394138Y0017749D01*
X0394050Y0017764D01*
X0393963Y0017782D01*
X0393877Y0017805D01*
X0393792Y0017831D01*
X0393708Y0017862D01*
X0393626Y0017896D01*
X0393545Y0017933D01*
X0393466Y0017974D01*
X0393389Y0018019D01*
X0393314Y0018067D01*
X0393241Y0018118D01*
X0393170Y0018172D01*
X0393102Y0018230D01*
X0393037Y0018290D01*
X0392974Y0018354D01*
X0392914Y0018420D01*
X0392857Y0018489D01*
X0392804Y0018560D01*
X0392753Y0018633D01*
X0392706Y0018709D01*
X0392663Y0018786D01*
X0392622Y0018866D01*
X0392586Y0018947D01*
X0392553Y0019030D01*
X0392524Y0019114D01*
X0392498Y0019200D01*
X0392476Y0019286D01*
X0392459Y0019373D01*
X0392445Y0019461D01*
X0392435Y0019550D01*
X0392429Y0019639D01*
X0392427Y0019728D01*
X0443635Y0046350D02*
X0443635Y0047850D01*
X0444135Y0048350D01*
X0444135Y0062350D01*
X0443635Y0062850D01*
X0443635Y0064350D01*
X0443637Y0064410D01*
X0443642Y0064471D01*
X0443651Y0064530D01*
X0443664Y0064589D01*
X0443680Y0064648D01*
X0443700Y0064705D01*
X0443723Y0064760D01*
X0443750Y0064815D01*
X0443779Y0064867D01*
X0443812Y0064918D01*
X0443848Y0064967D01*
X0443886Y0065013D01*
X0443928Y0065057D01*
X0443972Y0065099D01*
X0444018Y0065137D01*
X0444067Y0065173D01*
X0444118Y0065206D01*
X0444170Y0065235D01*
X0444225Y0065262D01*
X0444280Y0065285D01*
X0444337Y0065305D01*
X0444396Y0065321D01*
X0444455Y0065334D01*
X0444514Y0065343D01*
X0444575Y0065348D01*
X0444635Y0065350D01*
X0450635Y0065350D01*
X0450695Y0065348D01*
X0450756Y0065343D01*
X0450815Y0065334D01*
X0450874Y0065321D01*
X0450933Y0065305D01*
X0450990Y0065285D01*
X0451045Y0065262D01*
X0451100Y0065235D01*
X0451152Y0065206D01*
X0451203Y0065173D01*
X0451252Y0065137D01*
X0451298Y0065099D01*
X0451342Y0065057D01*
X0451384Y0065013D01*
X0451422Y0064967D01*
X0451458Y0064918D01*
X0451491Y0064867D01*
X0451520Y0064815D01*
X0451547Y0064760D01*
X0451570Y0064705D01*
X0451590Y0064648D01*
X0451606Y0064589D01*
X0451619Y0064530D01*
X0451628Y0064471D01*
X0451633Y0064410D01*
X0451635Y0064350D01*
X0451635Y0062850D01*
X0451135Y0062350D01*
X0451135Y0048350D01*
X0451635Y0047850D01*
X0451635Y0046350D01*
X0451633Y0046290D01*
X0451628Y0046229D01*
X0451619Y0046170D01*
X0451606Y0046111D01*
X0451590Y0046052D01*
X0451570Y0045995D01*
X0451547Y0045940D01*
X0451520Y0045885D01*
X0451491Y0045833D01*
X0451458Y0045782D01*
X0451422Y0045733D01*
X0451384Y0045687D01*
X0451342Y0045643D01*
X0451298Y0045601D01*
X0451252Y0045563D01*
X0451203Y0045527D01*
X0451152Y0045494D01*
X0451100Y0045465D01*
X0451045Y0045438D01*
X0450990Y0045415D01*
X0450933Y0045395D01*
X0450874Y0045379D01*
X0450815Y0045366D01*
X0450756Y0045357D01*
X0450695Y0045352D01*
X0450635Y0045350D01*
X0444635Y0045350D01*
X0444575Y0045352D01*
X0444514Y0045357D01*
X0444455Y0045366D01*
X0444396Y0045379D01*
X0444337Y0045395D01*
X0444280Y0045415D01*
X0444225Y0045438D01*
X0444170Y0045465D01*
X0444118Y0045494D01*
X0444067Y0045527D01*
X0444018Y0045563D01*
X0443972Y0045601D01*
X0443928Y0045643D01*
X0443886Y0045687D01*
X0443848Y0045733D01*
X0443812Y0045782D01*
X0443779Y0045833D01*
X0443750Y0045885D01*
X0443723Y0045940D01*
X0443700Y0045995D01*
X0443680Y0046052D01*
X0443664Y0046111D01*
X0443651Y0046170D01*
X0443642Y0046229D01*
X0443637Y0046290D01*
X0443635Y0046350D01*
X0467162Y0042602D02*
X0467162Y0036602D01*
X0467164Y0036542D01*
X0467169Y0036481D01*
X0467178Y0036422D01*
X0467191Y0036363D01*
X0467207Y0036304D01*
X0467227Y0036247D01*
X0467250Y0036192D01*
X0467277Y0036137D01*
X0467306Y0036085D01*
X0467339Y0036034D01*
X0467375Y0035985D01*
X0467413Y0035939D01*
X0467455Y0035895D01*
X0467499Y0035853D01*
X0467545Y0035815D01*
X0467594Y0035779D01*
X0467645Y0035746D01*
X0467697Y0035717D01*
X0467752Y0035690D01*
X0467807Y0035667D01*
X0467864Y0035647D01*
X0467923Y0035631D01*
X0467982Y0035618D01*
X0468041Y0035609D01*
X0468102Y0035604D01*
X0468162Y0035602D01*
X0469662Y0035602D01*
X0470162Y0036102D01*
X0484162Y0036102D01*
X0484662Y0035602D01*
X0486162Y0035602D01*
X0486222Y0035604D01*
X0486283Y0035609D01*
X0486342Y0035618D01*
X0486401Y0035631D01*
X0486460Y0035647D01*
X0486517Y0035667D01*
X0486572Y0035690D01*
X0486627Y0035717D01*
X0486679Y0035746D01*
X0486730Y0035779D01*
X0486779Y0035815D01*
X0486825Y0035853D01*
X0486869Y0035895D01*
X0486911Y0035939D01*
X0486949Y0035985D01*
X0486985Y0036034D01*
X0487018Y0036085D01*
X0487047Y0036137D01*
X0487074Y0036192D01*
X0487097Y0036247D01*
X0487117Y0036304D01*
X0487133Y0036363D01*
X0487146Y0036422D01*
X0487155Y0036481D01*
X0487160Y0036542D01*
X0487162Y0036602D01*
X0487162Y0042602D01*
X0487160Y0042662D01*
X0487155Y0042723D01*
X0487146Y0042782D01*
X0487133Y0042841D01*
X0487117Y0042900D01*
X0487097Y0042957D01*
X0487074Y0043012D01*
X0487047Y0043067D01*
X0487018Y0043119D01*
X0486985Y0043170D01*
X0486949Y0043219D01*
X0486911Y0043265D01*
X0486869Y0043309D01*
X0486825Y0043351D01*
X0486779Y0043389D01*
X0486730Y0043425D01*
X0486679Y0043458D01*
X0486627Y0043487D01*
X0486572Y0043514D01*
X0486517Y0043537D01*
X0486460Y0043557D01*
X0486401Y0043573D01*
X0486342Y0043586D01*
X0486283Y0043595D01*
X0486222Y0043600D01*
X0486162Y0043602D01*
X0484662Y0043602D01*
X0484162Y0043102D01*
X0470162Y0043102D01*
X0469662Y0043602D01*
X0468162Y0043602D01*
X0468102Y0043600D01*
X0468041Y0043595D01*
X0467982Y0043586D01*
X0467923Y0043573D01*
X0467864Y0043557D01*
X0467807Y0043537D01*
X0467752Y0043514D01*
X0467697Y0043487D01*
X0467645Y0043458D01*
X0467594Y0043425D01*
X0467545Y0043389D01*
X0467499Y0043351D01*
X0467455Y0043309D01*
X0467413Y0043265D01*
X0467375Y0043219D01*
X0467339Y0043170D01*
X0467306Y0043119D01*
X0467277Y0043067D01*
X0467250Y0043012D01*
X0467227Y0042957D01*
X0467207Y0042900D01*
X0467191Y0042841D01*
X0467178Y0042782D01*
X0467169Y0042723D01*
X0467164Y0042662D01*
X0467162Y0042602D01*
X0468162Y0051350D02*
X0469662Y0051350D01*
X0470162Y0051850D01*
X0484162Y0051850D01*
X0484662Y0051350D01*
X0486162Y0051350D01*
X0486222Y0051352D01*
X0486283Y0051357D01*
X0486342Y0051366D01*
X0486401Y0051379D01*
X0486460Y0051395D01*
X0486517Y0051415D01*
X0486572Y0051438D01*
X0486627Y0051465D01*
X0486679Y0051494D01*
X0486730Y0051527D01*
X0486779Y0051563D01*
X0486825Y0051601D01*
X0486869Y0051643D01*
X0486911Y0051687D01*
X0486949Y0051733D01*
X0486985Y0051782D01*
X0487018Y0051833D01*
X0487047Y0051885D01*
X0487074Y0051940D01*
X0487097Y0051995D01*
X0487117Y0052052D01*
X0487133Y0052111D01*
X0487146Y0052170D01*
X0487155Y0052229D01*
X0487160Y0052290D01*
X0487162Y0052350D01*
X0487162Y0058350D01*
X0487160Y0058410D01*
X0487155Y0058471D01*
X0487146Y0058530D01*
X0487133Y0058589D01*
X0487117Y0058648D01*
X0487097Y0058705D01*
X0487074Y0058760D01*
X0487047Y0058815D01*
X0487018Y0058867D01*
X0486985Y0058918D01*
X0486949Y0058967D01*
X0486911Y0059013D01*
X0486869Y0059057D01*
X0486825Y0059099D01*
X0486779Y0059137D01*
X0486730Y0059173D01*
X0486679Y0059206D01*
X0486627Y0059235D01*
X0486572Y0059262D01*
X0486517Y0059285D01*
X0486460Y0059305D01*
X0486401Y0059321D01*
X0486342Y0059334D01*
X0486283Y0059343D01*
X0486222Y0059348D01*
X0486162Y0059350D01*
X0484662Y0059350D01*
X0484162Y0058850D01*
X0470162Y0058850D01*
X0469662Y0059350D01*
X0468162Y0059350D01*
X0468102Y0059348D01*
X0468041Y0059343D01*
X0467982Y0059334D01*
X0467923Y0059321D01*
X0467864Y0059305D01*
X0467807Y0059285D01*
X0467752Y0059262D01*
X0467697Y0059235D01*
X0467645Y0059206D01*
X0467594Y0059173D01*
X0467545Y0059137D01*
X0467499Y0059099D01*
X0467455Y0059057D01*
X0467413Y0059013D01*
X0467375Y0058967D01*
X0467339Y0058918D01*
X0467306Y0058867D01*
X0467277Y0058815D01*
X0467250Y0058760D01*
X0467227Y0058705D01*
X0467207Y0058648D01*
X0467191Y0058589D01*
X0467178Y0058530D01*
X0467169Y0058471D01*
X0467164Y0058410D01*
X0467162Y0058350D01*
X0467162Y0052350D01*
X0467164Y0052290D01*
X0467169Y0052229D01*
X0467178Y0052170D01*
X0467191Y0052111D01*
X0467207Y0052052D01*
X0467227Y0051995D01*
X0467250Y0051940D01*
X0467277Y0051885D01*
X0467306Y0051833D01*
X0467339Y0051782D01*
X0467375Y0051733D01*
X0467413Y0051687D01*
X0467455Y0051643D01*
X0467499Y0051601D01*
X0467545Y0051563D01*
X0467594Y0051527D01*
X0467645Y0051494D01*
X0467697Y0051465D01*
X0467752Y0051438D01*
X0467807Y0051415D01*
X0467864Y0051395D01*
X0467923Y0051379D01*
X0467982Y0051366D01*
X0468041Y0051357D01*
X0468102Y0051352D01*
X0468162Y0051350D01*
X0468162Y0067098D02*
X0469662Y0067098D01*
X0470162Y0067598D01*
X0484162Y0067598D01*
X0484662Y0067098D01*
X0486162Y0067098D01*
X0486222Y0067100D01*
X0486283Y0067105D01*
X0486342Y0067114D01*
X0486401Y0067127D01*
X0486460Y0067143D01*
X0486517Y0067163D01*
X0486572Y0067186D01*
X0486627Y0067213D01*
X0486679Y0067242D01*
X0486730Y0067275D01*
X0486779Y0067311D01*
X0486825Y0067349D01*
X0486869Y0067391D01*
X0486911Y0067435D01*
X0486949Y0067481D01*
X0486985Y0067530D01*
X0487018Y0067581D01*
X0487047Y0067633D01*
X0487074Y0067688D01*
X0487097Y0067743D01*
X0487117Y0067800D01*
X0487133Y0067859D01*
X0487146Y0067918D01*
X0487155Y0067977D01*
X0487160Y0068038D01*
X0487162Y0068098D01*
X0487162Y0074098D01*
X0487160Y0074158D01*
X0487155Y0074219D01*
X0487146Y0074278D01*
X0487133Y0074337D01*
X0487117Y0074396D01*
X0487097Y0074453D01*
X0487074Y0074508D01*
X0487047Y0074563D01*
X0487018Y0074615D01*
X0486985Y0074666D01*
X0486949Y0074715D01*
X0486911Y0074761D01*
X0486869Y0074805D01*
X0486825Y0074847D01*
X0486779Y0074885D01*
X0486730Y0074921D01*
X0486679Y0074954D01*
X0486627Y0074983D01*
X0486572Y0075010D01*
X0486517Y0075033D01*
X0486460Y0075053D01*
X0486401Y0075069D01*
X0486342Y0075082D01*
X0486283Y0075091D01*
X0486222Y0075096D01*
X0486162Y0075098D01*
X0484662Y0075098D01*
X0484162Y0074598D01*
X0470162Y0074598D01*
X0469662Y0075098D01*
X0468162Y0075098D01*
X0468102Y0075096D01*
X0468041Y0075091D01*
X0467982Y0075082D01*
X0467923Y0075069D01*
X0467864Y0075053D01*
X0467807Y0075033D01*
X0467752Y0075010D01*
X0467697Y0074983D01*
X0467645Y0074954D01*
X0467594Y0074921D01*
X0467545Y0074885D01*
X0467499Y0074847D01*
X0467455Y0074805D01*
X0467413Y0074761D01*
X0467375Y0074715D01*
X0467339Y0074666D01*
X0467306Y0074615D01*
X0467277Y0074563D01*
X0467250Y0074508D01*
X0467227Y0074453D01*
X0467207Y0074396D01*
X0467191Y0074337D01*
X0467178Y0074278D01*
X0467169Y0074219D01*
X0467164Y0074158D01*
X0467162Y0074098D01*
X0467162Y0068098D01*
X0467164Y0068038D01*
X0467169Y0067977D01*
X0467178Y0067918D01*
X0467191Y0067859D01*
X0467207Y0067800D01*
X0467227Y0067743D01*
X0467250Y0067688D01*
X0467277Y0067633D01*
X0467306Y0067581D01*
X0467339Y0067530D01*
X0467375Y0067481D01*
X0467413Y0067435D01*
X0467455Y0067391D01*
X0467499Y0067349D01*
X0467545Y0067311D01*
X0467594Y0067275D01*
X0467645Y0067242D01*
X0467697Y0067213D01*
X0467752Y0067186D01*
X0467807Y0067163D01*
X0467864Y0067143D01*
X0467923Y0067127D01*
X0467982Y0067114D01*
X0468041Y0067105D01*
X0468102Y0067100D01*
X0468162Y0067098D01*
X0471320Y0086531D02*
X0471318Y0086657D01*
X0471312Y0086782D01*
X0471302Y0086907D01*
X0471288Y0087032D01*
X0471271Y0087157D01*
X0471249Y0087281D01*
X0471224Y0087404D01*
X0471194Y0087526D01*
X0471161Y0087647D01*
X0471124Y0087767D01*
X0471084Y0087886D01*
X0471039Y0088003D01*
X0470991Y0088120D01*
X0470939Y0088234D01*
X0470884Y0088347D01*
X0470825Y0088458D01*
X0470763Y0088567D01*
X0470697Y0088674D01*
X0470628Y0088779D01*
X0470556Y0088882D01*
X0470481Y0088983D01*
X0470402Y0089081D01*
X0470320Y0089176D01*
X0470236Y0089269D01*
X0470148Y0089359D01*
X0470058Y0089447D01*
X0469965Y0089531D01*
X0469870Y0089613D01*
X0469772Y0089692D01*
X0469671Y0089767D01*
X0469568Y0089839D01*
X0469463Y0089908D01*
X0469356Y0089974D01*
X0469247Y0090036D01*
X0469136Y0090095D01*
X0469023Y0090150D01*
X0468909Y0090202D01*
X0468792Y0090250D01*
X0468675Y0090295D01*
X0468556Y0090335D01*
X0468436Y0090372D01*
X0468315Y0090405D01*
X0468193Y0090435D01*
X0468070Y0090460D01*
X0467946Y0090482D01*
X0467821Y0090499D01*
X0467696Y0090513D01*
X0467571Y0090523D01*
X0467446Y0090529D01*
X0467320Y0090531D01*
X0467194Y0090529D01*
X0467069Y0090523D01*
X0466944Y0090513D01*
X0466819Y0090499D01*
X0466694Y0090482D01*
X0466570Y0090460D01*
X0466447Y0090435D01*
X0466325Y0090405D01*
X0466204Y0090372D01*
X0466084Y0090335D01*
X0465965Y0090295D01*
X0465848Y0090250D01*
X0465731Y0090202D01*
X0465617Y0090150D01*
X0465504Y0090095D01*
X0465393Y0090036D01*
X0465284Y0089974D01*
X0465177Y0089908D01*
X0465072Y0089839D01*
X0464969Y0089767D01*
X0464868Y0089692D01*
X0464770Y0089613D01*
X0464675Y0089531D01*
X0464582Y0089447D01*
X0464492Y0089359D01*
X0464404Y0089269D01*
X0464320Y0089176D01*
X0464238Y0089081D01*
X0464159Y0088983D01*
X0464084Y0088882D01*
X0464012Y0088779D01*
X0463943Y0088674D01*
X0463877Y0088567D01*
X0463815Y0088458D01*
X0463756Y0088347D01*
X0463701Y0088234D01*
X0463649Y0088120D01*
X0463601Y0088003D01*
X0463556Y0087886D01*
X0463516Y0087767D01*
X0463479Y0087647D01*
X0463446Y0087526D01*
X0463416Y0087404D01*
X0463391Y0087281D01*
X0463369Y0087157D01*
X0463352Y0087032D01*
X0463338Y0086907D01*
X0463328Y0086782D01*
X0463322Y0086657D01*
X0463320Y0086531D01*
X0455820Y0086531D01*
X0455820Y0126531D01*
X0478820Y0126531D01*
X0478820Y0086531D01*
X0471320Y0086531D01*
X0443760Y0091625D02*
X0443760Y0093125D01*
X0443260Y0093625D01*
X0443260Y0107625D01*
X0443760Y0108125D01*
X0443760Y0109625D01*
X0443758Y0109685D01*
X0443753Y0109746D01*
X0443744Y0109805D01*
X0443731Y0109864D01*
X0443715Y0109923D01*
X0443695Y0109980D01*
X0443672Y0110035D01*
X0443645Y0110090D01*
X0443616Y0110142D01*
X0443583Y0110193D01*
X0443547Y0110242D01*
X0443509Y0110288D01*
X0443467Y0110332D01*
X0443423Y0110374D01*
X0443377Y0110412D01*
X0443328Y0110448D01*
X0443277Y0110481D01*
X0443225Y0110510D01*
X0443170Y0110537D01*
X0443115Y0110560D01*
X0443058Y0110580D01*
X0442999Y0110596D01*
X0442940Y0110609D01*
X0442881Y0110618D01*
X0442820Y0110623D01*
X0442760Y0110625D01*
X0436760Y0110625D01*
X0436700Y0110623D01*
X0436639Y0110618D01*
X0436580Y0110609D01*
X0436521Y0110596D01*
X0436462Y0110580D01*
X0436405Y0110560D01*
X0436350Y0110537D01*
X0436295Y0110510D01*
X0436243Y0110481D01*
X0436192Y0110448D01*
X0436143Y0110412D01*
X0436097Y0110374D01*
X0436053Y0110332D01*
X0436011Y0110288D01*
X0435973Y0110242D01*
X0435937Y0110193D01*
X0435904Y0110142D01*
X0435875Y0110090D01*
X0435848Y0110035D01*
X0435825Y0109980D01*
X0435805Y0109923D01*
X0435789Y0109864D01*
X0435776Y0109805D01*
X0435767Y0109746D01*
X0435762Y0109685D01*
X0435760Y0109625D01*
X0435760Y0108125D01*
X0436260Y0107625D01*
X0436260Y0093625D01*
X0435760Y0093125D01*
X0435760Y0091625D01*
X0435762Y0091565D01*
X0435767Y0091504D01*
X0435776Y0091445D01*
X0435789Y0091386D01*
X0435805Y0091327D01*
X0435825Y0091270D01*
X0435848Y0091215D01*
X0435875Y0091160D01*
X0435904Y0091108D01*
X0435937Y0091057D01*
X0435973Y0091008D01*
X0436011Y0090962D01*
X0436053Y0090918D01*
X0436097Y0090876D01*
X0436143Y0090838D01*
X0436192Y0090802D01*
X0436243Y0090769D01*
X0436295Y0090740D01*
X0436350Y0090713D01*
X0436405Y0090690D01*
X0436462Y0090670D01*
X0436521Y0090654D01*
X0436580Y0090641D01*
X0436639Y0090632D01*
X0436700Y0090627D01*
X0436760Y0090625D01*
X0442760Y0090625D01*
X0442820Y0090627D01*
X0442881Y0090632D01*
X0442940Y0090641D01*
X0442999Y0090654D01*
X0443058Y0090670D01*
X0443115Y0090690D01*
X0443170Y0090713D01*
X0443225Y0090740D01*
X0443277Y0090769D01*
X0443328Y0090802D01*
X0443377Y0090838D01*
X0443423Y0090876D01*
X0443467Y0090918D01*
X0443509Y0090962D01*
X0443547Y0091008D01*
X0443583Y0091057D01*
X0443616Y0091108D01*
X0443645Y0091160D01*
X0443672Y0091215D01*
X0443695Y0091270D01*
X0443715Y0091327D01*
X0443731Y0091386D01*
X0443744Y0091445D01*
X0443753Y0091504D01*
X0443758Y0091565D01*
X0443760Y0091625D01*
X0427747Y0091191D02*
X0427747Y0093459D01*
X0427179Y0094027D01*
X0425478Y0094027D01*
X0425478Y0090624D01*
X0427179Y0090624D01*
X0427747Y0091191D01*
X0424063Y0090624D02*
X0424063Y0094027D01*
X0421795Y0094027D02*
X0424063Y0090624D01*
X0421795Y0090624D02*
X0421795Y0094027D01*
X0420380Y0093459D02*
X0419813Y0094027D01*
X0418679Y0094027D01*
X0418112Y0093459D01*
X0418112Y0091191D01*
X0418679Y0090624D01*
X0419813Y0090624D01*
X0420380Y0091191D01*
X0420380Y0092325D01*
X0419246Y0092325D01*
X0412812Y0098224D02*
X0415312Y0100724D01*
X0415312Y0105724D01*
X0412812Y0108224D01*
X0397812Y0108224D01*
X0395312Y0110724D01*
X0395312Y0115724D01*
X0397812Y0118224D01*
X0412812Y0118224D01*
X0415312Y0120724D01*
X0415312Y0125724D01*
X0412812Y0128224D01*
X0397812Y0128224D01*
X0395312Y0130724D01*
X0395312Y0135724D01*
X0397812Y0138224D01*
X0412812Y0138224D01*
X0415312Y0140724D01*
X0415312Y0145724D01*
X0412812Y0148224D01*
X0397812Y0148224D01*
X0395312Y0150724D01*
X0395312Y0155724D01*
X0397812Y0158224D01*
X0412812Y0158224D01*
X0415312Y0160724D01*
X0415312Y0165724D01*
X0412812Y0168224D01*
X0397812Y0168224D01*
X0395312Y0170724D01*
X0395312Y0175724D01*
X0397812Y0178224D01*
X0412812Y0178224D01*
X0415312Y0175724D01*
X0415312Y0170724D01*
X0412812Y0168224D01*
X0412812Y0158224D02*
X0415312Y0155724D01*
X0415312Y0150724D01*
X0412812Y0148224D01*
X0412812Y0138224D02*
X0415312Y0135724D01*
X0415312Y0130724D01*
X0412812Y0128224D01*
X0412812Y0118224D02*
X0415312Y0115724D01*
X0415312Y0110724D01*
X0412812Y0108224D01*
X0397812Y0108224D02*
X0395312Y0105724D01*
X0395312Y0100724D01*
X0397812Y0098224D01*
X0397812Y0118224D02*
X0395312Y0120724D01*
X0395312Y0125724D01*
X0397812Y0128224D01*
X0397812Y0138224D02*
X0395312Y0140724D01*
X0395312Y0145724D01*
X0397812Y0148224D01*
X0397812Y0158224D02*
X0395312Y0160724D01*
X0395312Y0165724D01*
X0397812Y0168224D01*
X0397812Y0178224D02*
X0395312Y0180724D01*
X0395312Y0185724D01*
X0397812Y0188224D01*
X0412812Y0188224D01*
X0415312Y0190724D01*
X0415312Y0195724D01*
X0412812Y0198224D01*
X0397812Y0198224D01*
X0395312Y0200724D01*
X0395312Y0205724D01*
X0397812Y0208224D01*
X0412812Y0208224D01*
X0415312Y0210724D01*
X0415312Y0215724D01*
X0412812Y0218224D01*
X0397812Y0218224D01*
X0395312Y0220724D01*
X0395312Y0225724D01*
X0397812Y0228224D01*
X0412812Y0228224D01*
X0415312Y0230724D01*
X0415312Y0235724D01*
X0412812Y0238224D01*
X0397812Y0238224D01*
X0395312Y0240724D01*
X0395312Y0245724D01*
X0397812Y0248224D01*
X0412812Y0248224D01*
X0415312Y0245724D01*
X0415312Y0240724D01*
X0412812Y0238224D01*
X0412812Y0248224D02*
X0415312Y0250724D01*
X0415312Y0255724D01*
X0412812Y0258224D01*
X0397812Y0258224D02*
X0395312Y0255724D01*
X0395312Y0250724D01*
X0397812Y0248224D01*
X0397812Y0238224D02*
X0395312Y0235724D01*
X0395312Y0230724D01*
X0397812Y0228224D01*
X0397812Y0218224D02*
X0395312Y0215724D01*
X0395312Y0210724D01*
X0397812Y0208224D01*
X0397812Y0198224D02*
X0395312Y0195724D01*
X0395312Y0190724D01*
X0397812Y0188224D01*
X0412812Y0188224D02*
X0415312Y0185724D01*
X0415312Y0180724D01*
X0412812Y0178224D01*
X0412812Y0198224D02*
X0415312Y0200724D01*
X0415312Y0205724D01*
X0412812Y0208224D01*
X0412812Y0218224D02*
X0415312Y0220724D01*
X0415312Y0225724D01*
X0412812Y0228224D01*
X0451883Y0240074D02*
X0459383Y0240074D01*
X0459385Y0240200D01*
X0459391Y0240325D01*
X0459401Y0240450D01*
X0459415Y0240575D01*
X0459432Y0240700D01*
X0459454Y0240824D01*
X0459479Y0240947D01*
X0459509Y0241069D01*
X0459542Y0241190D01*
X0459579Y0241310D01*
X0459619Y0241429D01*
X0459664Y0241546D01*
X0459712Y0241663D01*
X0459764Y0241777D01*
X0459819Y0241890D01*
X0459878Y0242001D01*
X0459940Y0242110D01*
X0460006Y0242217D01*
X0460075Y0242322D01*
X0460147Y0242425D01*
X0460222Y0242526D01*
X0460301Y0242624D01*
X0460383Y0242719D01*
X0460467Y0242812D01*
X0460555Y0242902D01*
X0460645Y0242990D01*
X0460738Y0243074D01*
X0460833Y0243156D01*
X0460931Y0243235D01*
X0461032Y0243310D01*
X0461135Y0243382D01*
X0461240Y0243451D01*
X0461347Y0243517D01*
X0461456Y0243579D01*
X0461567Y0243638D01*
X0461680Y0243693D01*
X0461794Y0243745D01*
X0461911Y0243793D01*
X0462028Y0243838D01*
X0462147Y0243878D01*
X0462267Y0243915D01*
X0462388Y0243948D01*
X0462510Y0243978D01*
X0462633Y0244003D01*
X0462757Y0244025D01*
X0462882Y0244042D01*
X0463007Y0244056D01*
X0463132Y0244066D01*
X0463257Y0244072D01*
X0463383Y0244074D01*
X0463509Y0244072D01*
X0463634Y0244066D01*
X0463759Y0244056D01*
X0463884Y0244042D01*
X0464009Y0244025D01*
X0464133Y0244003D01*
X0464256Y0243978D01*
X0464378Y0243948D01*
X0464499Y0243915D01*
X0464619Y0243878D01*
X0464738Y0243838D01*
X0464855Y0243793D01*
X0464972Y0243745D01*
X0465086Y0243693D01*
X0465199Y0243638D01*
X0465310Y0243579D01*
X0465419Y0243517D01*
X0465526Y0243451D01*
X0465631Y0243382D01*
X0465734Y0243310D01*
X0465835Y0243235D01*
X0465933Y0243156D01*
X0466028Y0243074D01*
X0466121Y0242990D01*
X0466211Y0242902D01*
X0466299Y0242812D01*
X0466383Y0242719D01*
X0466465Y0242624D01*
X0466544Y0242526D01*
X0466619Y0242425D01*
X0466691Y0242322D01*
X0466760Y0242217D01*
X0466826Y0242110D01*
X0466888Y0242001D01*
X0466947Y0241890D01*
X0467002Y0241777D01*
X0467054Y0241663D01*
X0467102Y0241546D01*
X0467147Y0241429D01*
X0467187Y0241310D01*
X0467224Y0241190D01*
X0467257Y0241069D01*
X0467287Y0240947D01*
X0467312Y0240824D01*
X0467334Y0240700D01*
X0467351Y0240575D01*
X0467365Y0240450D01*
X0467375Y0240325D01*
X0467381Y0240200D01*
X0467383Y0240074D01*
X0474883Y0240074D01*
X0474883Y0280074D01*
X0451883Y0280074D01*
X0451883Y0240074D01*
X0454883Y0229641D02*
X0471883Y0229641D01*
X0471943Y0229639D01*
X0472004Y0229634D01*
X0472063Y0229625D01*
X0472122Y0229612D01*
X0472181Y0229596D01*
X0472238Y0229576D01*
X0472293Y0229553D01*
X0472348Y0229526D01*
X0472400Y0229497D01*
X0472451Y0229464D01*
X0472500Y0229428D01*
X0472546Y0229390D01*
X0472590Y0229348D01*
X0472632Y0229304D01*
X0472670Y0229258D01*
X0472706Y0229209D01*
X0472739Y0229158D01*
X0472768Y0229106D01*
X0472795Y0229051D01*
X0472818Y0228996D01*
X0472838Y0228939D01*
X0472854Y0228880D01*
X0472867Y0228821D01*
X0472876Y0228762D01*
X0472881Y0228701D01*
X0472883Y0228641D01*
X0472883Y0220641D01*
X0472881Y0220581D01*
X0472876Y0220520D01*
X0472867Y0220461D01*
X0472854Y0220402D01*
X0472838Y0220343D01*
X0472818Y0220286D01*
X0472795Y0220231D01*
X0472768Y0220176D01*
X0472739Y0220124D01*
X0472706Y0220073D01*
X0472670Y0220024D01*
X0472632Y0219978D01*
X0472590Y0219934D01*
X0472546Y0219892D01*
X0472500Y0219854D01*
X0472451Y0219818D01*
X0472400Y0219785D01*
X0472348Y0219756D01*
X0472293Y0219729D01*
X0472238Y0219706D01*
X0472181Y0219686D01*
X0472122Y0219670D01*
X0472063Y0219657D01*
X0472004Y0219648D01*
X0471943Y0219643D01*
X0471883Y0219641D01*
X0454883Y0219641D01*
X0454823Y0219643D01*
X0454762Y0219648D01*
X0454703Y0219657D01*
X0454644Y0219670D01*
X0454585Y0219686D01*
X0454528Y0219706D01*
X0454473Y0219729D01*
X0454418Y0219756D01*
X0454366Y0219785D01*
X0454315Y0219818D01*
X0454266Y0219854D01*
X0454220Y0219892D01*
X0454176Y0219934D01*
X0454134Y0219978D01*
X0454096Y0220024D01*
X0454060Y0220073D01*
X0454027Y0220124D01*
X0453998Y0220176D01*
X0453971Y0220231D01*
X0453948Y0220286D01*
X0453928Y0220343D01*
X0453912Y0220402D01*
X0453899Y0220461D01*
X0453890Y0220520D01*
X0453885Y0220581D01*
X0453883Y0220641D01*
X0453883Y0228641D01*
X0453885Y0228701D01*
X0453890Y0228762D01*
X0453899Y0228821D01*
X0453912Y0228880D01*
X0453928Y0228939D01*
X0453948Y0228996D01*
X0453971Y0229051D01*
X0453998Y0229106D01*
X0454027Y0229158D01*
X0454060Y0229209D01*
X0454096Y0229258D01*
X0454134Y0229304D01*
X0454176Y0229348D01*
X0454220Y0229390D01*
X0454266Y0229428D01*
X0454315Y0229464D01*
X0454366Y0229497D01*
X0454418Y0229526D01*
X0454473Y0229553D01*
X0454528Y0229576D01*
X0454585Y0229596D01*
X0454644Y0229612D01*
X0454703Y0229625D01*
X0454762Y0229634D01*
X0454823Y0229639D01*
X0454883Y0229641D01*
X0461883Y0224641D02*
X0462383Y0224641D01*
X0464383Y0224641D02*
X0464883Y0224641D01*
X0483005Y0224267D02*
X0483005Y0225767D01*
X0483007Y0225827D01*
X0483012Y0225888D01*
X0483021Y0225947D01*
X0483034Y0226006D01*
X0483050Y0226065D01*
X0483070Y0226122D01*
X0483093Y0226177D01*
X0483120Y0226232D01*
X0483149Y0226284D01*
X0483182Y0226335D01*
X0483218Y0226384D01*
X0483256Y0226430D01*
X0483298Y0226474D01*
X0483342Y0226516D01*
X0483388Y0226554D01*
X0483437Y0226590D01*
X0483488Y0226623D01*
X0483540Y0226652D01*
X0483595Y0226679D01*
X0483650Y0226702D01*
X0483707Y0226722D01*
X0483766Y0226738D01*
X0483825Y0226751D01*
X0483884Y0226760D01*
X0483945Y0226765D01*
X0484005Y0226767D01*
X0490005Y0226767D01*
X0490065Y0226765D01*
X0490126Y0226760D01*
X0490185Y0226751D01*
X0490244Y0226738D01*
X0490303Y0226722D01*
X0490360Y0226702D01*
X0490415Y0226679D01*
X0490470Y0226652D01*
X0490522Y0226623D01*
X0490573Y0226590D01*
X0490622Y0226554D01*
X0490668Y0226516D01*
X0490712Y0226474D01*
X0490754Y0226430D01*
X0490792Y0226384D01*
X0490828Y0226335D01*
X0490861Y0226284D01*
X0490890Y0226232D01*
X0490917Y0226177D01*
X0490940Y0226122D01*
X0490960Y0226065D01*
X0490976Y0226006D01*
X0490989Y0225947D01*
X0490998Y0225888D01*
X0491003Y0225827D01*
X0491005Y0225767D01*
X0491005Y0224267D01*
X0490505Y0223767D01*
X0490505Y0209767D01*
X0491005Y0209267D01*
X0491005Y0207767D01*
X0491003Y0207707D01*
X0490998Y0207646D01*
X0490989Y0207587D01*
X0490976Y0207528D01*
X0490960Y0207469D01*
X0490940Y0207412D01*
X0490917Y0207357D01*
X0490890Y0207302D01*
X0490861Y0207250D01*
X0490828Y0207199D01*
X0490792Y0207150D01*
X0490754Y0207104D01*
X0490712Y0207060D01*
X0490668Y0207018D01*
X0490622Y0206980D01*
X0490573Y0206944D01*
X0490522Y0206911D01*
X0490470Y0206882D01*
X0490415Y0206855D01*
X0490360Y0206832D01*
X0490303Y0206812D01*
X0490244Y0206796D01*
X0490185Y0206783D01*
X0490126Y0206774D01*
X0490065Y0206769D01*
X0490005Y0206767D01*
X0484005Y0206767D01*
X0483945Y0206769D01*
X0483884Y0206774D01*
X0483825Y0206783D01*
X0483766Y0206796D01*
X0483707Y0206812D01*
X0483650Y0206832D01*
X0483595Y0206855D01*
X0483540Y0206882D01*
X0483488Y0206911D01*
X0483437Y0206944D01*
X0483388Y0206980D01*
X0483342Y0207018D01*
X0483298Y0207060D01*
X0483256Y0207104D01*
X0483218Y0207150D01*
X0483182Y0207199D01*
X0483149Y0207250D01*
X0483120Y0207302D01*
X0483093Y0207357D01*
X0483070Y0207412D01*
X0483050Y0207469D01*
X0483034Y0207528D01*
X0483021Y0207587D01*
X0483012Y0207646D01*
X0483007Y0207707D01*
X0483005Y0207767D01*
X0483005Y0209267D01*
X0483505Y0209767D01*
X0483505Y0223767D01*
X0483005Y0224267D01*
X0472383Y0293476D02*
X0470883Y0293476D01*
X0470383Y0293976D01*
X0456383Y0293976D01*
X0455883Y0293476D01*
X0454383Y0293476D01*
X0454323Y0293478D01*
X0454262Y0293483D01*
X0454203Y0293492D01*
X0454144Y0293505D01*
X0454085Y0293521D01*
X0454028Y0293541D01*
X0453973Y0293564D01*
X0453918Y0293591D01*
X0453866Y0293620D01*
X0453815Y0293653D01*
X0453766Y0293689D01*
X0453720Y0293727D01*
X0453676Y0293769D01*
X0453634Y0293813D01*
X0453596Y0293859D01*
X0453560Y0293908D01*
X0453527Y0293959D01*
X0453498Y0294011D01*
X0453471Y0294066D01*
X0453448Y0294121D01*
X0453428Y0294178D01*
X0453412Y0294237D01*
X0453399Y0294296D01*
X0453390Y0294355D01*
X0453385Y0294416D01*
X0453383Y0294476D01*
X0453383Y0300476D01*
X0453385Y0300536D01*
X0453390Y0300597D01*
X0453399Y0300656D01*
X0453412Y0300715D01*
X0453428Y0300774D01*
X0453448Y0300831D01*
X0453471Y0300886D01*
X0453498Y0300941D01*
X0453527Y0300993D01*
X0453560Y0301044D01*
X0453596Y0301093D01*
X0453634Y0301139D01*
X0453676Y0301183D01*
X0453720Y0301225D01*
X0453766Y0301263D01*
X0453815Y0301299D01*
X0453866Y0301332D01*
X0453918Y0301361D01*
X0453973Y0301388D01*
X0454028Y0301411D01*
X0454085Y0301431D01*
X0454144Y0301447D01*
X0454203Y0301460D01*
X0454262Y0301469D01*
X0454323Y0301474D01*
X0454383Y0301476D01*
X0455883Y0301476D01*
X0456383Y0300976D01*
X0470383Y0300976D01*
X0470883Y0301476D01*
X0472383Y0301476D01*
X0472443Y0301474D01*
X0472504Y0301469D01*
X0472563Y0301460D01*
X0472622Y0301447D01*
X0472681Y0301431D01*
X0472738Y0301411D01*
X0472793Y0301388D01*
X0472848Y0301361D01*
X0472900Y0301332D01*
X0472951Y0301299D01*
X0473000Y0301263D01*
X0473046Y0301225D01*
X0473090Y0301183D01*
X0473132Y0301139D01*
X0473170Y0301093D01*
X0473206Y0301044D01*
X0473239Y0300993D01*
X0473268Y0300941D01*
X0473295Y0300886D01*
X0473318Y0300831D01*
X0473338Y0300774D01*
X0473354Y0300715D01*
X0473367Y0300656D01*
X0473376Y0300597D01*
X0473381Y0300536D01*
X0473383Y0300476D01*
X0473383Y0294476D01*
X0473381Y0294416D01*
X0473376Y0294355D01*
X0473367Y0294296D01*
X0473354Y0294237D01*
X0473338Y0294178D01*
X0473318Y0294121D01*
X0473295Y0294066D01*
X0473268Y0294011D01*
X0473239Y0293959D01*
X0473206Y0293908D01*
X0473170Y0293859D01*
X0473132Y0293813D01*
X0473090Y0293769D01*
X0473046Y0293727D01*
X0473000Y0293689D01*
X0472951Y0293653D01*
X0472900Y0293620D01*
X0472848Y0293591D01*
X0472793Y0293564D01*
X0472738Y0293541D01*
X0472681Y0293521D01*
X0472622Y0293505D01*
X0472563Y0293492D01*
X0472504Y0293483D01*
X0472443Y0293478D01*
X0472383Y0293476D01*
X0472383Y0315129D02*
X0470883Y0315129D01*
X0470383Y0315629D01*
X0456383Y0315629D01*
X0455883Y0315129D01*
X0454383Y0315129D01*
X0454323Y0315131D01*
X0454262Y0315136D01*
X0454203Y0315145D01*
X0454144Y0315158D01*
X0454085Y0315174D01*
X0454028Y0315194D01*
X0453973Y0315217D01*
X0453918Y0315244D01*
X0453866Y0315273D01*
X0453815Y0315306D01*
X0453766Y0315342D01*
X0453720Y0315380D01*
X0453676Y0315422D01*
X0453634Y0315466D01*
X0453596Y0315512D01*
X0453560Y0315561D01*
X0453527Y0315612D01*
X0453498Y0315664D01*
X0453471Y0315719D01*
X0453448Y0315774D01*
X0453428Y0315831D01*
X0453412Y0315890D01*
X0453399Y0315949D01*
X0453390Y0316008D01*
X0453385Y0316069D01*
X0453383Y0316129D01*
X0453383Y0322129D01*
X0453385Y0322189D01*
X0453390Y0322250D01*
X0453399Y0322309D01*
X0453412Y0322368D01*
X0453428Y0322427D01*
X0453448Y0322484D01*
X0453471Y0322539D01*
X0453498Y0322594D01*
X0453527Y0322646D01*
X0453560Y0322697D01*
X0453596Y0322746D01*
X0453634Y0322792D01*
X0453676Y0322836D01*
X0453720Y0322878D01*
X0453766Y0322916D01*
X0453815Y0322952D01*
X0453866Y0322985D01*
X0453918Y0323014D01*
X0453973Y0323041D01*
X0454028Y0323064D01*
X0454085Y0323084D01*
X0454144Y0323100D01*
X0454203Y0323113D01*
X0454262Y0323122D01*
X0454323Y0323127D01*
X0454383Y0323129D01*
X0455883Y0323129D01*
X0456383Y0322629D01*
X0470383Y0322629D01*
X0470883Y0323129D01*
X0472383Y0323129D01*
X0472443Y0323127D01*
X0472504Y0323122D01*
X0472563Y0323113D01*
X0472622Y0323100D01*
X0472681Y0323084D01*
X0472738Y0323064D01*
X0472793Y0323041D01*
X0472848Y0323014D01*
X0472900Y0322985D01*
X0472951Y0322952D01*
X0473000Y0322916D01*
X0473046Y0322878D01*
X0473090Y0322836D01*
X0473132Y0322792D01*
X0473170Y0322746D01*
X0473206Y0322697D01*
X0473239Y0322646D01*
X0473268Y0322594D01*
X0473295Y0322539D01*
X0473318Y0322484D01*
X0473338Y0322427D01*
X0473354Y0322368D01*
X0473367Y0322309D01*
X0473376Y0322250D01*
X0473381Y0322189D01*
X0473383Y0322129D01*
X0473383Y0316129D01*
X0473381Y0316069D01*
X0473376Y0316008D01*
X0473367Y0315949D01*
X0473354Y0315890D01*
X0473338Y0315831D01*
X0473318Y0315774D01*
X0473295Y0315719D01*
X0473268Y0315664D01*
X0473239Y0315612D01*
X0473206Y0315561D01*
X0473170Y0315512D01*
X0473132Y0315466D01*
X0473090Y0315422D01*
X0473046Y0315380D01*
X0473000Y0315342D01*
X0472951Y0315306D01*
X0472900Y0315273D01*
X0472848Y0315244D01*
X0472793Y0315217D01*
X0472738Y0315194D01*
X0472681Y0315174D01*
X0472622Y0315158D01*
X0472563Y0315145D01*
X0472504Y0315136D01*
X0472443Y0315131D01*
X0472383Y0315129D01*
X0432607Y0302476D02*
X0432607Y0292476D01*
X0432605Y0292416D01*
X0432600Y0292355D01*
X0432591Y0292296D01*
X0432578Y0292237D01*
X0432562Y0292178D01*
X0432542Y0292121D01*
X0432519Y0292066D01*
X0432492Y0292011D01*
X0432463Y0291959D01*
X0432430Y0291908D01*
X0432394Y0291859D01*
X0432356Y0291813D01*
X0432314Y0291769D01*
X0432270Y0291727D01*
X0432224Y0291689D01*
X0432175Y0291653D01*
X0432124Y0291620D01*
X0432072Y0291591D01*
X0432017Y0291564D01*
X0431962Y0291541D01*
X0431905Y0291521D01*
X0431846Y0291505D01*
X0431787Y0291492D01*
X0431728Y0291483D01*
X0431667Y0291478D01*
X0431607Y0291476D01*
X0404607Y0291476D01*
X0404547Y0291478D01*
X0404486Y0291483D01*
X0404427Y0291492D01*
X0404368Y0291505D01*
X0404309Y0291521D01*
X0404252Y0291541D01*
X0404197Y0291564D01*
X0404142Y0291591D01*
X0404090Y0291620D01*
X0404039Y0291653D01*
X0403990Y0291689D01*
X0403944Y0291727D01*
X0403900Y0291769D01*
X0403858Y0291813D01*
X0403820Y0291859D01*
X0403784Y0291908D01*
X0403751Y0291959D01*
X0403722Y0292011D01*
X0403695Y0292066D01*
X0403672Y0292121D01*
X0403652Y0292178D01*
X0403636Y0292237D01*
X0403623Y0292296D01*
X0403614Y0292355D01*
X0403609Y0292416D01*
X0403607Y0292476D01*
X0403607Y0302476D01*
X0403609Y0302536D01*
X0403614Y0302597D01*
X0403623Y0302656D01*
X0403636Y0302715D01*
X0403652Y0302774D01*
X0403672Y0302831D01*
X0403695Y0302886D01*
X0403722Y0302941D01*
X0403751Y0302993D01*
X0403784Y0303044D01*
X0403820Y0303093D01*
X0403858Y0303139D01*
X0403900Y0303183D01*
X0403944Y0303225D01*
X0403990Y0303263D01*
X0404039Y0303299D01*
X0404090Y0303332D01*
X0404142Y0303361D01*
X0404197Y0303388D01*
X0404252Y0303411D01*
X0404309Y0303431D01*
X0404368Y0303447D01*
X0404427Y0303460D01*
X0404486Y0303469D01*
X0404547Y0303474D01*
X0404607Y0303476D01*
X0431607Y0303476D01*
X0431667Y0303474D01*
X0431728Y0303469D01*
X0431787Y0303460D01*
X0431846Y0303447D01*
X0431905Y0303431D01*
X0431962Y0303411D01*
X0432017Y0303388D01*
X0432072Y0303361D01*
X0432124Y0303332D01*
X0432175Y0303299D01*
X0432224Y0303263D01*
X0432270Y0303225D01*
X0432314Y0303183D01*
X0432356Y0303139D01*
X0432394Y0303093D01*
X0432430Y0303044D01*
X0432463Y0302993D01*
X0432492Y0302941D01*
X0432519Y0302886D01*
X0432542Y0302831D01*
X0432562Y0302774D01*
X0432578Y0302715D01*
X0432591Y0302656D01*
X0432600Y0302597D01*
X0432605Y0302536D01*
X0432607Y0302476D01*
X0424107Y0297476D02*
X0419307Y0297476D01*
X0416807Y0297476D02*
X0412107Y0297476D01*
X0371512Y0241159D02*
X0371512Y0238890D01*
X0368109Y0238890D01*
X0368676Y0237475D02*
X0368109Y0236908D01*
X0368109Y0235774D01*
X0368676Y0235207D01*
X0370945Y0235207D01*
X0371512Y0235774D01*
X0371512Y0236908D01*
X0370945Y0237475D01*
X0370945Y0233792D02*
X0371512Y0233225D01*
X0371512Y0232091D01*
X0370945Y0231524D01*
X0369810Y0232091D02*
X0369810Y0233225D01*
X0370377Y0233792D01*
X0370945Y0233792D01*
X0369810Y0232091D02*
X0369243Y0231524D01*
X0368676Y0231524D01*
X0368109Y0232091D01*
X0368109Y0233225D01*
X0368676Y0233792D01*
X0361512Y0233225D02*
X0361512Y0232091D01*
X0360945Y0231524D01*
X0359810Y0232091D02*
X0359810Y0233225D01*
X0360377Y0233792D01*
X0360945Y0233792D01*
X0361512Y0233225D01*
X0361512Y0235207D02*
X0361512Y0236908D01*
X0360945Y0237475D01*
X0358676Y0237475D01*
X0358109Y0236908D01*
X0358109Y0235207D01*
X0361512Y0235207D01*
X0358676Y0233792D02*
X0358109Y0233225D01*
X0358109Y0232091D01*
X0358676Y0231524D01*
X0359243Y0231524D01*
X0359810Y0232091D01*
X0359810Y0238890D02*
X0359810Y0241159D01*
X0359243Y0241159D02*
X0361512Y0241159D01*
X0359243Y0241159D02*
X0358109Y0240024D01*
X0359243Y0238890D01*
X0361512Y0238890D01*
X0351512Y0238890D02*
X0351512Y0241159D01*
X0351512Y0240024D02*
X0348109Y0240024D01*
X0349243Y0238890D01*
X0348109Y0237475D02*
X0351512Y0235207D01*
X0351512Y0233792D02*
X0350377Y0232658D01*
X0350377Y0233225D02*
X0350377Y0231524D01*
X0351512Y0231524D02*
X0348109Y0231524D01*
X0348109Y0233225D01*
X0348676Y0233792D01*
X0349810Y0233792D01*
X0350377Y0233225D01*
X0348109Y0235207D02*
X0351512Y0237475D01*
X0341512Y0237475D02*
X0338109Y0235207D01*
X0338109Y0233792D02*
X0338109Y0231524D01*
X0338109Y0232658D02*
X0341512Y0232658D01*
X0341512Y0235207D02*
X0338109Y0237475D01*
X0339243Y0238890D02*
X0338109Y0240024D01*
X0341512Y0240024D01*
X0341512Y0238890D02*
X0341512Y0241159D01*
X0331512Y0241159D02*
X0331512Y0238890D01*
X0329243Y0241159D01*
X0328676Y0241159D01*
X0328109Y0240591D01*
X0328109Y0239457D01*
X0328676Y0238890D01*
X0328109Y0237475D02*
X0331512Y0235207D01*
X0331512Y0233792D02*
X0330377Y0232658D01*
X0330377Y0233225D02*
X0330377Y0231524D01*
X0331512Y0231524D02*
X0328109Y0231524D01*
X0328109Y0233225D01*
X0328676Y0233792D01*
X0329810Y0233792D01*
X0330377Y0233225D01*
X0328109Y0235207D02*
X0331512Y0237475D01*
X0321512Y0237475D02*
X0318109Y0235207D01*
X0318109Y0233792D02*
X0318109Y0231524D01*
X0318109Y0232658D02*
X0321512Y0232658D01*
X0321512Y0235207D02*
X0318109Y0237475D01*
X0318676Y0238890D02*
X0318109Y0239457D01*
X0318109Y0240591D01*
X0318676Y0241159D01*
X0319243Y0241159D01*
X0321512Y0238890D01*
X0321512Y0241159D01*
X0311512Y0240591D02*
X0311512Y0239457D01*
X0310945Y0238890D01*
X0311512Y0237475D02*
X0308109Y0235207D01*
X0308676Y0233792D02*
X0309810Y0233792D01*
X0310377Y0233225D01*
X0310377Y0231524D01*
X0310377Y0232658D02*
X0311512Y0233792D01*
X0311512Y0235207D02*
X0308109Y0237475D01*
X0308676Y0238890D02*
X0308109Y0239457D01*
X0308109Y0240591D01*
X0308676Y0241159D01*
X0309243Y0241159D01*
X0309810Y0240591D01*
X0310377Y0241159D01*
X0310945Y0241159D01*
X0311512Y0240591D01*
X0309810Y0240591D02*
X0309810Y0240024D01*
X0308676Y0233792D02*
X0308109Y0233225D01*
X0308109Y0231524D01*
X0311512Y0231524D01*
X0301512Y0232658D02*
X0298109Y0232658D01*
X0298109Y0231524D02*
X0298109Y0233792D01*
X0298109Y0235207D02*
X0301512Y0237475D01*
X0300945Y0238890D02*
X0301512Y0239457D01*
X0301512Y0240591D01*
X0300945Y0241159D01*
X0300377Y0241159D01*
X0299810Y0240591D01*
X0299810Y0240024D01*
X0299810Y0240591D02*
X0299243Y0241159D01*
X0298676Y0241159D01*
X0298109Y0240591D01*
X0298109Y0239457D01*
X0298676Y0238890D01*
X0298109Y0237475D02*
X0301512Y0235207D01*
X0281512Y0235207D02*
X0278109Y0237475D01*
X0278676Y0238890D02*
X0278109Y0239457D01*
X0278109Y0240591D01*
X0278676Y0241159D01*
X0280945Y0238890D01*
X0281512Y0239457D01*
X0281512Y0240591D01*
X0280945Y0241159D01*
X0278676Y0241159D01*
X0278676Y0238890D02*
X0280945Y0238890D01*
X0281512Y0237475D02*
X0278109Y0235207D01*
X0278676Y0233792D02*
X0279810Y0233792D01*
X0280377Y0233225D01*
X0280377Y0231524D01*
X0280377Y0232658D02*
X0281512Y0233792D01*
X0281512Y0231524D02*
X0278109Y0231524D01*
X0278109Y0233225D01*
X0278676Y0233792D01*
X0271512Y0232658D02*
X0268109Y0232658D01*
X0268109Y0231524D02*
X0268109Y0233792D01*
X0268109Y0235207D02*
X0271512Y0237475D01*
X0270945Y0238890D02*
X0268676Y0241159D01*
X0270945Y0241159D01*
X0271512Y0240591D01*
X0271512Y0239457D01*
X0270945Y0238890D01*
X0268676Y0238890D01*
X0268109Y0239457D01*
X0268109Y0240591D01*
X0268676Y0241159D01*
X0268109Y0237475D02*
X0271512Y0235207D01*
X0212540Y0316098D02*
X0204540Y0316098D01*
X0203540Y0317098D01*
X0202540Y0316098D01*
X0194540Y0316098D01*
X0193540Y0317098D01*
X0193540Y0325098D01*
X0194540Y0326098D01*
X0202540Y0326098D01*
X0203540Y0325098D01*
X0204540Y0326098D01*
X0212540Y0326098D01*
X0213540Y0325098D01*
X0213540Y0317098D01*
X0212540Y0316098D01*
X0059902Y0253326D02*
X0059902Y0251826D01*
X0059402Y0251326D01*
X0059402Y0237326D01*
X0059902Y0236826D01*
X0059902Y0235326D01*
X0059900Y0235266D01*
X0059895Y0235205D01*
X0059886Y0235146D01*
X0059873Y0235087D01*
X0059857Y0235028D01*
X0059837Y0234971D01*
X0059814Y0234916D01*
X0059787Y0234861D01*
X0059758Y0234809D01*
X0059725Y0234758D01*
X0059689Y0234709D01*
X0059651Y0234663D01*
X0059609Y0234619D01*
X0059565Y0234577D01*
X0059519Y0234539D01*
X0059470Y0234503D01*
X0059419Y0234470D01*
X0059367Y0234441D01*
X0059312Y0234414D01*
X0059257Y0234391D01*
X0059200Y0234371D01*
X0059141Y0234355D01*
X0059082Y0234342D01*
X0059023Y0234333D01*
X0058962Y0234328D01*
X0058902Y0234326D01*
X0052902Y0234326D01*
X0052842Y0234328D01*
X0052781Y0234333D01*
X0052722Y0234342D01*
X0052663Y0234355D01*
X0052604Y0234371D01*
X0052547Y0234391D01*
X0052492Y0234414D01*
X0052437Y0234441D01*
X0052385Y0234470D01*
X0052334Y0234503D01*
X0052285Y0234539D01*
X0052239Y0234577D01*
X0052195Y0234619D01*
X0052153Y0234663D01*
X0052115Y0234709D01*
X0052079Y0234758D01*
X0052046Y0234809D01*
X0052017Y0234861D01*
X0051990Y0234916D01*
X0051967Y0234971D01*
X0051947Y0235028D01*
X0051931Y0235087D01*
X0051918Y0235146D01*
X0051909Y0235205D01*
X0051904Y0235266D01*
X0051902Y0235326D01*
X0051902Y0236826D01*
X0052402Y0237326D01*
X0052402Y0251326D01*
X0051902Y0251826D01*
X0051902Y0253326D01*
X0051904Y0253386D01*
X0051909Y0253447D01*
X0051918Y0253506D01*
X0051931Y0253565D01*
X0051947Y0253624D01*
X0051967Y0253681D01*
X0051990Y0253736D01*
X0052017Y0253791D01*
X0052046Y0253843D01*
X0052079Y0253894D01*
X0052115Y0253943D01*
X0052153Y0253989D01*
X0052195Y0254033D01*
X0052239Y0254075D01*
X0052285Y0254113D01*
X0052334Y0254149D01*
X0052385Y0254182D01*
X0052437Y0254211D01*
X0052492Y0254238D01*
X0052547Y0254261D01*
X0052604Y0254281D01*
X0052663Y0254297D01*
X0052722Y0254310D01*
X0052781Y0254319D01*
X0052842Y0254324D01*
X0052902Y0254326D01*
X0058902Y0254326D01*
X0058962Y0254324D01*
X0059023Y0254319D01*
X0059082Y0254310D01*
X0059141Y0254297D01*
X0059200Y0254281D01*
X0059257Y0254261D01*
X0059312Y0254238D01*
X0059367Y0254211D01*
X0059419Y0254182D01*
X0059470Y0254149D01*
X0059519Y0254113D01*
X0059565Y0254075D01*
X0059609Y0254033D01*
X0059651Y0253989D01*
X0059689Y0253943D01*
X0059725Y0253894D01*
X0059758Y0253843D01*
X0059787Y0253791D01*
X0059814Y0253736D01*
X0059837Y0253681D01*
X0059857Y0253624D01*
X0059873Y0253565D01*
X0059886Y0253506D01*
X0059895Y0253447D01*
X0059900Y0253386D01*
X0059902Y0253326D01*
X0056934Y0207082D02*
X0050934Y0207082D01*
X0050874Y0207080D01*
X0050813Y0207075D01*
X0050754Y0207066D01*
X0050695Y0207053D01*
X0050636Y0207037D01*
X0050579Y0207017D01*
X0050524Y0206994D01*
X0050469Y0206967D01*
X0050417Y0206938D01*
X0050366Y0206905D01*
X0050317Y0206869D01*
X0050271Y0206831D01*
X0050227Y0206789D01*
X0050185Y0206745D01*
X0050147Y0206699D01*
X0050111Y0206650D01*
X0050078Y0206599D01*
X0050049Y0206547D01*
X0050022Y0206492D01*
X0049999Y0206437D01*
X0049979Y0206380D01*
X0049963Y0206321D01*
X0049950Y0206262D01*
X0049941Y0206203D01*
X0049936Y0206142D01*
X0049934Y0206082D01*
X0049934Y0204582D01*
X0050434Y0204082D01*
X0050434Y0190082D01*
X0049934Y0189582D01*
X0049934Y0188082D01*
X0049936Y0188022D01*
X0049941Y0187961D01*
X0049950Y0187902D01*
X0049963Y0187843D01*
X0049979Y0187784D01*
X0049999Y0187727D01*
X0050022Y0187672D01*
X0050049Y0187617D01*
X0050078Y0187565D01*
X0050111Y0187514D01*
X0050147Y0187465D01*
X0050185Y0187419D01*
X0050227Y0187375D01*
X0050271Y0187333D01*
X0050317Y0187295D01*
X0050366Y0187259D01*
X0050417Y0187226D01*
X0050469Y0187197D01*
X0050524Y0187170D01*
X0050579Y0187147D01*
X0050636Y0187127D01*
X0050695Y0187111D01*
X0050754Y0187098D01*
X0050813Y0187089D01*
X0050874Y0187084D01*
X0050934Y0187082D01*
X0056934Y0187082D01*
X0056994Y0187084D01*
X0057055Y0187089D01*
X0057114Y0187098D01*
X0057173Y0187111D01*
X0057232Y0187127D01*
X0057289Y0187147D01*
X0057344Y0187170D01*
X0057399Y0187197D01*
X0057451Y0187226D01*
X0057502Y0187259D01*
X0057551Y0187295D01*
X0057597Y0187333D01*
X0057641Y0187375D01*
X0057683Y0187419D01*
X0057721Y0187465D01*
X0057757Y0187514D01*
X0057790Y0187565D01*
X0057819Y0187617D01*
X0057846Y0187672D01*
X0057869Y0187727D01*
X0057889Y0187784D01*
X0057905Y0187843D01*
X0057918Y0187902D01*
X0057927Y0187961D01*
X0057932Y0188022D01*
X0057934Y0188082D01*
X0057934Y0189582D01*
X0057434Y0190082D01*
X0057434Y0204082D01*
X0057934Y0204582D01*
X0057934Y0206082D01*
X0057932Y0206142D01*
X0057927Y0206203D01*
X0057918Y0206262D01*
X0057905Y0206321D01*
X0057889Y0206380D01*
X0057869Y0206437D01*
X0057846Y0206492D01*
X0057819Y0206547D01*
X0057790Y0206599D01*
X0057757Y0206650D01*
X0057721Y0206699D01*
X0057683Y0206745D01*
X0057641Y0206789D01*
X0057597Y0206831D01*
X0057551Y0206869D01*
X0057502Y0206905D01*
X0057451Y0206938D01*
X0057399Y0206967D01*
X0057344Y0206994D01*
X0057289Y0207017D01*
X0057232Y0207037D01*
X0057173Y0207053D01*
X0057114Y0207066D01*
X0057055Y0207075D01*
X0056994Y0207080D01*
X0056934Y0207082D01*
X0058902Y0159838D02*
X0052902Y0159838D01*
X0052842Y0159836D01*
X0052781Y0159831D01*
X0052722Y0159822D01*
X0052663Y0159809D01*
X0052604Y0159793D01*
X0052547Y0159773D01*
X0052492Y0159750D01*
X0052437Y0159723D01*
X0052385Y0159694D01*
X0052334Y0159661D01*
X0052285Y0159625D01*
X0052239Y0159587D01*
X0052195Y0159545D01*
X0052153Y0159501D01*
X0052115Y0159455D01*
X0052079Y0159406D01*
X0052046Y0159355D01*
X0052017Y0159303D01*
X0051990Y0159248D01*
X0051967Y0159193D01*
X0051947Y0159136D01*
X0051931Y0159077D01*
X0051918Y0159018D01*
X0051909Y0158959D01*
X0051904Y0158898D01*
X0051902Y0158838D01*
X0051902Y0157338D01*
X0052402Y0156838D01*
X0052402Y0142838D01*
X0051902Y0142338D01*
X0051902Y0140838D01*
X0051904Y0140778D01*
X0051909Y0140717D01*
X0051918Y0140658D01*
X0051931Y0140599D01*
X0051947Y0140540D01*
X0051967Y0140483D01*
X0051990Y0140428D01*
X0052017Y0140373D01*
X0052046Y0140321D01*
X0052079Y0140270D01*
X0052115Y0140221D01*
X0052153Y0140175D01*
X0052195Y0140131D01*
X0052239Y0140089D01*
X0052285Y0140051D01*
X0052334Y0140015D01*
X0052385Y0139982D01*
X0052437Y0139953D01*
X0052492Y0139926D01*
X0052547Y0139903D01*
X0052604Y0139883D01*
X0052663Y0139867D01*
X0052722Y0139854D01*
X0052781Y0139845D01*
X0052842Y0139840D01*
X0052902Y0139838D01*
X0058902Y0139838D01*
X0058962Y0139840D01*
X0059023Y0139845D01*
X0059082Y0139854D01*
X0059141Y0139867D01*
X0059200Y0139883D01*
X0059257Y0139903D01*
X0059312Y0139926D01*
X0059367Y0139953D01*
X0059419Y0139982D01*
X0059470Y0140015D01*
X0059519Y0140051D01*
X0059565Y0140089D01*
X0059609Y0140131D01*
X0059651Y0140175D01*
X0059689Y0140221D01*
X0059725Y0140270D01*
X0059758Y0140321D01*
X0059787Y0140373D01*
X0059814Y0140428D01*
X0059837Y0140483D01*
X0059857Y0140540D01*
X0059873Y0140599D01*
X0059886Y0140658D01*
X0059895Y0140717D01*
X0059900Y0140778D01*
X0059902Y0140838D01*
X0059902Y0142338D01*
X0059402Y0142838D01*
X0059402Y0156838D01*
X0059902Y0157338D01*
X0059902Y0158838D01*
X0059900Y0158898D01*
X0059895Y0158959D01*
X0059886Y0159018D01*
X0059873Y0159077D01*
X0059857Y0159136D01*
X0059837Y0159193D01*
X0059814Y0159248D01*
X0059787Y0159303D01*
X0059758Y0159355D01*
X0059725Y0159406D01*
X0059689Y0159455D01*
X0059651Y0159501D01*
X0059609Y0159545D01*
X0059565Y0159587D01*
X0059519Y0159625D01*
X0059470Y0159661D01*
X0059419Y0159694D01*
X0059367Y0159723D01*
X0059312Y0159750D01*
X0059257Y0159773D01*
X0059200Y0159793D01*
X0059141Y0159809D01*
X0059082Y0159822D01*
X0059023Y0159831D01*
X0058962Y0159836D01*
X0058902Y0159838D01*
X0075189Y0116570D02*
X0075191Y0116702D01*
X0075197Y0116833D01*
X0075207Y0116964D01*
X0075221Y0117095D01*
X0075239Y0117225D01*
X0075261Y0117355D01*
X0075286Y0117484D01*
X0075316Y0117612D01*
X0075350Y0117740D01*
X0075387Y0117866D01*
X0075428Y0117991D01*
X0075473Y0118114D01*
X0075522Y0118237D01*
X0075575Y0118357D01*
X0075631Y0118476D01*
X0075690Y0118594D01*
X0075753Y0118709D01*
X0075820Y0118822D01*
X0075890Y0118934D01*
X0075964Y0119043D01*
X0076040Y0119150D01*
X0076120Y0119254D01*
X0076203Y0119356D01*
X0076289Y0119456D01*
X0076378Y0119553D01*
X0076470Y0119647D01*
X0076565Y0119738D01*
X0076663Y0119827D01*
X0076763Y0119912D01*
X0076865Y0119994D01*
X0076971Y0120073D01*
X0077078Y0120149D01*
X0077188Y0120222D01*
X0077300Y0120291D01*
X0077414Y0120357D01*
X0077530Y0120419D01*
X0077647Y0120478D01*
X0077767Y0120533D01*
X0077888Y0120584D01*
X0078010Y0120632D01*
X0078134Y0120676D01*
X0078260Y0120717D01*
X0078386Y0120753D01*
X0078514Y0120786D01*
X0078642Y0120814D01*
X0078771Y0120839D01*
X0078901Y0120860D01*
X0079032Y0120877D01*
X0079163Y0120890D01*
X0079294Y0120899D01*
X0079425Y0120904D01*
X0079557Y0120905D01*
X0079688Y0120902D01*
X0079820Y0120895D01*
X0079951Y0120884D01*
X0080082Y0120869D01*
X0080212Y0120850D01*
X0080341Y0120827D01*
X0080470Y0120800D01*
X0080598Y0120770D01*
X0080725Y0120735D01*
X0080851Y0120697D01*
X0080976Y0120655D01*
X0081099Y0120609D01*
X0081221Y0120559D01*
X0081341Y0120506D01*
X0081460Y0120449D01*
X0081577Y0120388D01*
X0081691Y0120324D01*
X0081804Y0120257D01*
X0081915Y0120186D01*
X0082024Y0120112D01*
X0082130Y0120034D01*
X0082234Y0119953D01*
X0082336Y0119870D01*
X0082434Y0119783D01*
X0082531Y0119693D01*
X0082624Y0119600D01*
X0082715Y0119505D01*
X0082802Y0119407D01*
X0082887Y0119306D01*
X0082968Y0119202D01*
X0083046Y0119097D01*
X0083122Y0118989D01*
X0083193Y0118878D01*
X0083262Y0118766D01*
X0083327Y0118651D01*
X0083388Y0118535D01*
X0083446Y0118417D01*
X0083500Y0118297D01*
X0083551Y0118176D01*
X0083598Y0118053D01*
X0083641Y0117928D01*
X0083680Y0117803D01*
X0083716Y0117676D01*
X0083747Y0117548D01*
X0083775Y0117420D01*
X0083799Y0117290D01*
X0083819Y0117160D01*
X0083835Y0117030D01*
X0083847Y0116899D01*
X0083855Y0116767D01*
X0083859Y0116636D01*
X0083859Y0116504D01*
X0083855Y0116373D01*
X0083847Y0116241D01*
X0083835Y0116110D01*
X0083819Y0115980D01*
X0083799Y0115850D01*
X0083775Y0115720D01*
X0083747Y0115592D01*
X0083716Y0115464D01*
X0083680Y0115337D01*
X0083641Y0115212D01*
X0083598Y0115087D01*
X0083551Y0114964D01*
X0083500Y0114843D01*
X0083446Y0114723D01*
X0083388Y0114605D01*
X0083327Y0114489D01*
X0083262Y0114374D01*
X0083193Y0114262D01*
X0083122Y0114151D01*
X0083046Y0114043D01*
X0082968Y0113938D01*
X0082887Y0113834D01*
X0082802Y0113733D01*
X0082715Y0113635D01*
X0082624Y0113540D01*
X0082531Y0113447D01*
X0082434Y0113357D01*
X0082336Y0113270D01*
X0082234Y0113187D01*
X0082130Y0113106D01*
X0082024Y0113028D01*
X0081915Y0112954D01*
X0081804Y0112883D01*
X0081692Y0112816D01*
X0081577Y0112752D01*
X0081460Y0112691D01*
X0081341Y0112634D01*
X0081221Y0112581D01*
X0081099Y0112531D01*
X0080976Y0112485D01*
X0080851Y0112443D01*
X0080725Y0112405D01*
X0080598Y0112370D01*
X0080470Y0112340D01*
X0080341Y0112313D01*
X0080212Y0112290D01*
X0080082Y0112271D01*
X0079951Y0112256D01*
X0079820Y0112245D01*
X0079688Y0112238D01*
X0079557Y0112235D01*
X0079425Y0112236D01*
X0079294Y0112241D01*
X0079163Y0112250D01*
X0079032Y0112263D01*
X0078901Y0112280D01*
X0078771Y0112301D01*
X0078642Y0112326D01*
X0078514Y0112354D01*
X0078386Y0112387D01*
X0078260Y0112423D01*
X0078134Y0112464D01*
X0078010Y0112508D01*
X0077888Y0112556D01*
X0077767Y0112607D01*
X0077647Y0112662D01*
X0077530Y0112721D01*
X0077414Y0112783D01*
X0077300Y0112849D01*
X0077188Y0112918D01*
X0077078Y0112991D01*
X0076971Y0113067D01*
X0076865Y0113146D01*
X0076763Y0113228D01*
X0076663Y0113313D01*
X0076565Y0113402D01*
X0076470Y0113493D01*
X0076378Y0113587D01*
X0076289Y0113684D01*
X0076203Y0113784D01*
X0076120Y0113886D01*
X0076040Y0113990D01*
X0075964Y0114097D01*
X0075890Y0114206D01*
X0075820Y0114318D01*
X0075753Y0114431D01*
X0075690Y0114546D01*
X0075631Y0114664D01*
X0075575Y0114783D01*
X0075522Y0114903D01*
X0075473Y0115026D01*
X0075428Y0115149D01*
X0075387Y0115274D01*
X0075350Y0115400D01*
X0075316Y0115528D01*
X0075286Y0115656D01*
X0075261Y0115785D01*
X0075239Y0115915D01*
X0075221Y0116045D01*
X0075207Y0116176D01*
X0075197Y0116307D01*
X0075191Y0116438D01*
X0075189Y0116570D01*
X0158609Y0098625D02*
X0158609Y0096356D01*
X0158609Y0097491D02*
X0162012Y0097491D01*
X0162012Y0094942D02*
X0162012Y0092673D01*
X0158609Y0092673D01*
X0158609Y0094942D01*
X0160310Y0093807D02*
X0160310Y0092673D01*
X0160877Y0091259D02*
X0160310Y0090691D01*
X0160310Y0089557D01*
X0159743Y0088990D01*
X0159176Y0088990D01*
X0158609Y0089557D01*
X0158609Y0090691D01*
X0159176Y0091259D01*
X0160877Y0091259D02*
X0161445Y0091259D01*
X0162012Y0090691D01*
X0162012Y0089557D01*
X0161445Y0088990D01*
X0162012Y0087575D02*
X0162012Y0085307D01*
X0158609Y0085307D01*
X0158609Y0087575D01*
X0160310Y0086441D02*
X0160310Y0085307D01*
X0160310Y0083892D02*
X0160877Y0083325D01*
X0160877Y0081624D01*
X0160877Y0082758D02*
X0162012Y0083892D01*
X0160310Y0083892D02*
X0159176Y0083892D01*
X0158609Y0083325D01*
X0158609Y0081624D01*
X0162012Y0081624D01*
X0168609Y0081624D02*
X0168609Y0083892D01*
X0169743Y0083325D02*
X0170310Y0083892D01*
X0171445Y0083892D01*
X0172012Y0083325D01*
X0172012Y0082191D01*
X0171445Y0081624D01*
X0170310Y0081624D02*
X0169743Y0082758D01*
X0169743Y0083325D01*
X0170310Y0081624D02*
X0168609Y0081624D01*
X0168609Y0085307D02*
X0170877Y0085307D01*
X0172012Y0086441D01*
X0170877Y0087575D01*
X0168609Y0087575D01*
X0178609Y0087575D02*
X0180877Y0087575D01*
X0182012Y0086441D01*
X0180877Y0085307D01*
X0178609Y0085307D01*
X0178609Y0083892D02*
X0178609Y0081624D01*
X0180310Y0081624D01*
X0179743Y0082758D01*
X0179743Y0083325D01*
X0180310Y0083892D01*
X0181445Y0083892D01*
X0182012Y0083325D01*
X0182012Y0082191D01*
X0181445Y0081624D01*
X0188609Y0082191D02*
X0189176Y0081624D01*
X0191445Y0081624D01*
X0192012Y0082191D01*
X0192012Y0083325D01*
X0191445Y0083892D01*
X0190310Y0083892D01*
X0190310Y0082758D01*
X0189176Y0083892D02*
X0188609Y0083325D01*
X0188609Y0082191D01*
X0188609Y0085307D02*
X0192012Y0087575D01*
X0188609Y0087575D01*
X0188609Y0088990D02*
X0188609Y0090691D01*
X0189176Y0091259D01*
X0191445Y0091259D01*
X0192012Y0090691D01*
X0192012Y0088990D01*
X0188609Y0088990D01*
X0188609Y0085307D02*
X0192012Y0085307D01*
X0198609Y0085307D02*
X0202012Y0087575D01*
X0198609Y0087575D01*
X0198609Y0088990D02*
X0198609Y0090691D01*
X0199176Y0091259D01*
X0201445Y0091259D01*
X0202012Y0090691D01*
X0202012Y0088990D01*
X0198609Y0088990D01*
X0198609Y0085307D02*
X0202012Y0085307D01*
X0201445Y0083892D02*
X0200310Y0083892D01*
X0200310Y0082758D01*
X0199176Y0083892D02*
X0198609Y0083325D01*
X0198609Y0082191D01*
X0199176Y0081624D01*
X0201445Y0081624D01*
X0202012Y0082191D01*
X0202012Y0083325D01*
X0201445Y0083892D01*
X0208042Y0085874D02*
X0208609Y0085874D01*
X0209743Y0085874D02*
X0212012Y0085874D01*
X0212012Y0085307D02*
X0212012Y0086441D01*
X0212012Y0087762D02*
X0209743Y0087762D01*
X0209743Y0089464D01*
X0210310Y0090031D01*
X0212012Y0090031D01*
X0209743Y0085874D02*
X0209743Y0085307D01*
X0210877Y0083892D02*
X0208609Y0083892D01*
X0210877Y0083892D02*
X0212012Y0082758D01*
X0210877Y0081624D01*
X0208609Y0081624D01*
X0264438Y0052476D02*
X0264438Y0042476D01*
X0280438Y0042476D01*
X0280438Y0052476D01*
X0264438Y0052476D01*
X0269938Y0047476D02*
X0272438Y0047476D01*
X0272438Y0049976D01*
X0273438Y0049976D01*
X0272438Y0047476D02*
X0272438Y0044976D01*
X0272438Y0047476D02*
X0276438Y0049976D01*
X0276438Y0044976D01*
X0272438Y0047476D01*
X0278438Y0047476D01*
X0280438Y0026885D02*
X0264438Y0026885D01*
X0264438Y0016885D01*
X0280438Y0016885D01*
X0280438Y0026885D01*
X0276438Y0024385D02*
X0272438Y0021885D01*
X0272438Y0024385D01*
X0273438Y0024385D01*
X0272438Y0021885D02*
X0272438Y0019385D01*
X0272438Y0021885D02*
X0278438Y0021885D01*
X0276438Y0024385D02*
X0276438Y0019385D01*
X0272438Y0021885D01*
X0269938Y0021885D01*
X0213540Y0017885D02*
X0213540Y0025885D01*
X0212540Y0026885D01*
X0204540Y0026885D01*
X0203540Y0025885D01*
X0202540Y0026885D01*
X0194540Y0026885D01*
X0193540Y0025885D01*
X0193540Y0017885D01*
X0194540Y0016885D01*
X0202540Y0016885D01*
X0203540Y0017885D01*
X0204540Y0016885D01*
X0212540Y0016885D01*
X0213540Y0017885D01*
X0261469Y0118279D02*
X0262969Y0118279D01*
X0263469Y0118779D01*
X0277469Y0118779D01*
X0277969Y0118279D01*
X0279469Y0118279D01*
X0279529Y0118281D01*
X0279590Y0118286D01*
X0279649Y0118295D01*
X0279708Y0118308D01*
X0279767Y0118324D01*
X0279824Y0118344D01*
X0279879Y0118367D01*
X0279934Y0118394D01*
X0279986Y0118423D01*
X0280037Y0118456D01*
X0280086Y0118492D01*
X0280132Y0118530D01*
X0280176Y0118572D01*
X0280218Y0118616D01*
X0280256Y0118662D01*
X0280292Y0118711D01*
X0280325Y0118762D01*
X0280354Y0118814D01*
X0280381Y0118869D01*
X0280404Y0118924D01*
X0280424Y0118981D01*
X0280440Y0119040D01*
X0280453Y0119099D01*
X0280462Y0119158D01*
X0280467Y0119219D01*
X0280469Y0119279D01*
X0280469Y0125279D01*
X0280467Y0125339D01*
X0280462Y0125400D01*
X0280453Y0125459D01*
X0280440Y0125518D01*
X0280424Y0125577D01*
X0280404Y0125634D01*
X0280381Y0125689D01*
X0280354Y0125744D01*
X0280325Y0125796D01*
X0280292Y0125847D01*
X0280256Y0125896D01*
X0280218Y0125942D01*
X0280176Y0125986D01*
X0280132Y0126028D01*
X0280086Y0126066D01*
X0280037Y0126102D01*
X0279986Y0126135D01*
X0279934Y0126164D01*
X0279879Y0126191D01*
X0279824Y0126214D01*
X0279767Y0126234D01*
X0279708Y0126250D01*
X0279649Y0126263D01*
X0279590Y0126272D01*
X0279529Y0126277D01*
X0279469Y0126279D01*
X0277969Y0126279D01*
X0277469Y0125779D01*
X0263469Y0125779D01*
X0262969Y0126279D01*
X0261469Y0126279D01*
X0261409Y0126277D01*
X0261348Y0126272D01*
X0261289Y0126263D01*
X0261230Y0126250D01*
X0261171Y0126234D01*
X0261114Y0126214D01*
X0261059Y0126191D01*
X0261004Y0126164D01*
X0260952Y0126135D01*
X0260901Y0126102D01*
X0260852Y0126066D01*
X0260806Y0126028D01*
X0260762Y0125986D01*
X0260720Y0125942D01*
X0260682Y0125896D01*
X0260646Y0125847D01*
X0260613Y0125796D01*
X0260584Y0125744D01*
X0260557Y0125689D01*
X0260534Y0125634D01*
X0260514Y0125577D01*
X0260498Y0125518D01*
X0260485Y0125459D01*
X0260476Y0125400D01*
X0260471Y0125339D01*
X0260469Y0125279D01*
X0260469Y0119279D01*
X0260471Y0119219D01*
X0260476Y0119158D01*
X0260485Y0119099D01*
X0260498Y0119040D01*
X0260514Y0118981D01*
X0260534Y0118924D01*
X0260557Y0118869D01*
X0260584Y0118814D01*
X0260613Y0118762D01*
X0260646Y0118711D01*
X0260682Y0118662D01*
X0260720Y0118616D01*
X0260762Y0118572D01*
X0260806Y0118530D01*
X0260852Y0118492D01*
X0260901Y0118456D01*
X0260952Y0118423D01*
X0261004Y0118394D01*
X0261059Y0118367D01*
X0261114Y0118344D01*
X0261171Y0118324D01*
X0261230Y0118308D01*
X0261289Y0118295D01*
X0261348Y0118286D01*
X0261409Y0118281D01*
X0261469Y0118279D01*
X0325524Y0121153D02*
X0325524Y0122653D01*
X0326024Y0123153D01*
X0326024Y0137153D01*
X0325524Y0137653D01*
X0325524Y0139153D01*
X0325526Y0139213D01*
X0325531Y0139274D01*
X0325540Y0139333D01*
X0325553Y0139392D01*
X0325569Y0139451D01*
X0325589Y0139508D01*
X0325612Y0139563D01*
X0325639Y0139618D01*
X0325668Y0139670D01*
X0325701Y0139721D01*
X0325737Y0139770D01*
X0325775Y0139816D01*
X0325817Y0139860D01*
X0325861Y0139902D01*
X0325907Y0139940D01*
X0325956Y0139976D01*
X0326007Y0140009D01*
X0326059Y0140038D01*
X0326114Y0140065D01*
X0326169Y0140088D01*
X0326226Y0140108D01*
X0326285Y0140124D01*
X0326344Y0140137D01*
X0326403Y0140146D01*
X0326464Y0140151D01*
X0326524Y0140153D01*
X0332524Y0140153D01*
X0332584Y0140151D01*
X0332645Y0140146D01*
X0332704Y0140137D01*
X0332763Y0140124D01*
X0332822Y0140108D01*
X0332879Y0140088D01*
X0332934Y0140065D01*
X0332989Y0140038D01*
X0333041Y0140009D01*
X0333092Y0139976D01*
X0333141Y0139940D01*
X0333187Y0139902D01*
X0333231Y0139860D01*
X0333273Y0139816D01*
X0333311Y0139770D01*
X0333347Y0139721D01*
X0333380Y0139670D01*
X0333409Y0139618D01*
X0333436Y0139563D01*
X0333459Y0139508D01*
X0333479Y0139451D01*
X0333495Y0139392D01*
X0333508Y0139333D01*
X0333517Y0139274D01*
X0333522Y0139213D01*
X0333524Y0139153D01*
X0333524Y0137653D01*
X0333024Y0137153D01*
X0333024Y0123153D01*
X0333524Y0122653D01*
X0333524Y0121153D01*
X0333522Y0121093D01*
X0333517Y0121032D01*
X0333508Y0120973D01*
X0333495Y0120914D01*
X0333479Y0120855D01*
X0333459Y0120798D01*
X0333436Y0120743D01*
X0333409Y0120688D01*
X0333380Y0120636D01*
X0333347Y0120585D01*
X0333311Y0120536D01*
X0333273Y0120490D01*
X0333231Y0120446D01*
X0333187Y0120404D01*
X0333141Y0120366D01*
X0333092Y0120330D01*
X0333041Y0120297D01*
X0332989Y0120268D01*
X0332934Y0120241D01*
X0332879Y0120218D01*
X0332822Y0120198D01*
X0332763Y0120182D01*
X0332704Y0120169D01*
X0332645Y0120160D01*
X0332584Y0120155D01*
X0332524Y0120153D01*
X0326524Y0120153D01*
X0326464Y0120155D01*
X0326403Y0120160D01*
X0326344Y0120169D01*
X0326285Y0120182D01*
X0326226Y0120198D01*
X0326169Y0120218D01*
X0326114Y0120241D01*
X0326059Y0120268D01*
X0326007Y0120297D01*
X0325956Y0120330D01*
X0325907Y0120366D01*
X0325861Y0120404D01*
X0325817Y0120446D01*
X0325775Y0120490D01*
X0325737Y0120536D01*
X0325701Y0120585D01*
X0325668Y0120636D01*
X0325639Y0120688D01*
X0325612Y0120743D01*
X0325589Y0120798D01*
X0325569Y0120855D01*
X0325553Y0120914D01*
X0325540Y0120973D01*
X0325531Y0121032D01*
X0325526Y0121093D01*
X0325524Y0121153D01*
X0347178Y0121153D02*
X0347178Y0122653D01*
X0347678Y0123153D01*
X0347678Y0137153D01*
X0347178Y0137653D01*
X0347178Y0139153D01*
X0347180Y0139213D01*
X0347185Y0139274D01*
X0347194Y0139333D01*
X0347207Y0139392D01*
X0347223Y0139451D01*
X0347243Y0139508D01*
X0347266Y0139563D01*
X0347293Y0139618D01*
X0347322Y0139670D01*
X0347355Y0139721D01*
X0347391Y0139770D01*
X0347429Y0139816D01*
X0347471Y0139860D01*
X0347515Y0139902D01*
X0347561Y0139940D01*
X0347610Y0139976D01*
X0347661Y0140009D01*
X0347713Y0140038D01*
X0347768Y0140065D01*
X0347823Y0140088D01*
X0347880Y0140108D01*
X0347939Y0140124D01*
X0347998Y0140137D01*
X0348057Y0140146D01*
X0348118Y0140151D01*
X0348178Y0140153D01*
X0354178Y0140153D01*
X0354238Y0140151D01*
X0354299Y0140146D01*
X0354358Y0140137D01*
X0354417Y0140124D01*
X0354476Y0140108D01*
X0354533Y0140088D01*
X0354588Y0140065D01*
X0354643Y0140038D01*
X0354695Y0140009D01*
X0354746Y0139976D01*
X0354795Y0139940D01*
X0354841Y0139902D01*
X0354885Y0139860D01*
X0354927Y0139816D01*
X0354965Y0139770D01*
X0355001Y0139721D01*
X0355034Y0139670D01*
X0355063Y0139618D01*
X0355090Y0139563D01*
X0355113Y0139508D01*
X0355133Y0139451D01*
X0355149Y0139392D01*
X0355162Y0139333D01*
X0355171Y0139274D01*
X0355176Y0139213D01*
X0355178Y0139153D01*
X0355178Y0137653D01*
X0354678Y0137153D01*
X0354678Y0123153D01*
X0355178Y0122653D01*
X0355178Y0121153D01*
X0355176Y0121093D01*
X0355171Y0121032D01*
X0355162Y0120973D01*
X0355149Y0120914D01*
X0355133Y0120855D01*
X0355113Y0120798D01*
X0355090Y0120743D01*
X0355063Y0120688D01*
X0355034Y0120636D01*
X0355001Y0120585D01*
X0354965Y0120536D01*
X0354927Y0120490D01*
X0354885Y0120446D01*
X0354841Y0120404D01*
X0354795Y0120366D01*
X0354746Y0120330D01*
X0354695Y0120297D01*
X0354643Y0120268D01*
X0354588Y0120241D01*
X0354533Y0120218D01*
X0354476Y0120198D01*
X0354417Y0120182D01*
X0354358Y0120169D01*
X0354299Y0120160D01*
X0354238Y0120155D01*
X0354178Y0120153D01*
X0348178Y0120153D01*
X0348118Y0120155D01*
X0348057Y0120160D01*
X0347998Y0120169D01*
X0347939Y0120182D01*
X0347880Y0120198D01*
X0347823Y0120218D01*
X0347768Y0120241D01*
X0347713Y0120268D01*
X0347661Y0120297D01*
X0347610Y0120330D01*
X0347561Y0120366D01*
X0347515Y0120404D01*
X0347471Y0120446D01*
X0347429Y0120490D01*
X0347391Y0120536D01*
X0347355Y0120585D01*
X0347322Y0120636D01*
X0347293Y0120688D01*
X0347266Y0120743D01*
X0347243Y0120798D01*
X0347223Y0120855D01*
X0347207Y0120914D01*
X0347194Y0120973D01*
X0347185Y0121032D01*
X0347180Y0121093D01*
X0347178Y0121153D01*
X0457320Y0133058D02*
X0457320Y0139058D01*
X0457322Y0139118D01*
X0457327Y0139179D01*
X0457336Y0139238D01*
X0457349Y0139297D01*
X0457365Y0139356D01*
X0457385Y0139413D01*
X0457408Y0139468D01*
X0457435Y0139523D01*
X0457464Y0139575D01*
X0457497Y0139626D01*
X0457533Y0139675D01*
X0457571Y0139721D01*
X0457613Y0139765D01*
X0457657Y0139807D01*
X0457703Y0139845D01*
X0457752Y0139881D01*
X0457803Y0139914D01*
X0457855Y0139943D01*
X0457910Y0139970D01*
X0457965Y0139993D01*
X0458022Y0140013D01*
X0458081Y0140029D01*
X0458140Y0140042D01*
X0458199Y0140051D01*
X0458260Y0140056D01*
X0458320Y0140058D01*
X0459820Y0140058D01*
X0460320Y0139558D01*
X0474320Y0139558D01*
X0474820Y0140058D01*
X0476320Y0140058D01*
X0476380Y0140056D01*
X0476441Y0140051D01*
X0476500Y0140042D01*
X0476559Y0140029D01*
X0476618Y0140013D01*
X0476675Y0139993D01*
X0476730Y0139970D01*
X0476785Y0139943D01*
X0476837Y0139914D01*
X0476888Y0139881D01*
X0476937Y0139845D01*
X0476983Y0139807D01*
X0477027Y0139765D01*
X0477069Y0139721D01*
X0477107Y0139675D01*
X0477143Y0139626D01*
X0477176Y0139575D01*
X0477205Y0139523D01*
X0477232Y0139468D01*
X0477255Y0139413D01*
X0477275Y0139356D01*
X0477291Y0139297D01*
X0477304Y0139238D01*
X0477313Y0139179D01*
X0477318Y0139118D01*
X0477320Y0139058D01*
X0477320Y0133058D01*
X0477318Y0132998D01*
X0477313Y0132937D01*
X0477304Y0132878D01*
X0477291Y0132819D01*
X0477275Y0132760D01*
X0477255Y0132703D01*
X0477232Y0132648D01*
X0477205Y0132593D01*
X0477176Y0132541D01*
X0477143Y0132490D01*
X0477107Y0132441D01*
X0477069Y0132395D01*
X0477027Y0132351D01*
X0476983Y0132309D01*
X0476937Y0132271D01*
X0476888Y0132235D01*
X0476837Y0132202D01*
X0476785Y0132173D01*
X0476730Y0132146D01*
X0476675Y0132123D01*
X0476618Y0132103D01*
X0476559Y0132087D01*
X0476500Y0132074D01*
X0476441Y0132065D01*
X0476380Y0132060D01*
X0476320Y0132058D01*
X0474820Y0132058D01*
X0474320Y0132558D01*
X0460320Y0132558D01*
X0459820Y0132058D01*
X0458320Y0132058D01*
X0458260Y0132060D01*
X0458199Y0132065D01*
X0458140Y0132074D01*
X0458081Y0132087D01*
X0458022Y0132103D01*
X0457965Y0132123D01*
X0457910Y0132146D01*
X0457855Y0132173D01*
X0457803Y0132202D01*
X0457752Y0132235D01*
X0457703Y0132271D01*
X0457657Y0132309D01*
X0457613Y0132351D01*
X0457571Y0132395D01*
X0457533Y0132441D01*
X0457497Y0132490D01*
X0457464Y0132541D01*
X0457435Y0132593D01*
X0457408Y0132648D01*
X0457385Y0132703D01*
X0457365Y0132760D01*
X0457349Y0132819D01*
X0457336Y0132878D01*
X0457327Y0132937D01*
X0457322Y0132998D01*
X0457320Y0133058D01*
X0468162Y0027854D02*
X0469662Y0027854D01*
X0470162Y0027354D01*
X0484162Y0027354D01*
X0484662Y0027854D01*
X0486162Y0027854D01*
X0486222Y0027852D01*
X0486283Y0027847D01*
X0486342Y0027838D01*
X0486401Y0027825D01*
X0486460Y0027809D01*
X0486517Y0027789D01*
X0486572Y0027766D01*
X0486627Y0027739D01*
X0486679Y0027710D01*
X0486730Y0027677D01*
X0486779Y0027641D01*
X0486825Y0027603D01*
X0486869Y0027561D01*
X0486911Y0027517D01*
X0486949Y0027471D01*
X0486985Y0027422D01*
X0487018Y0027371D01*
X0487047Y0027319D01*
X0487074Y0027264D01*
X0487097Y0027209D01*
X0487117Y0027152D01*
X0487133Y0027093D01*
X0487146Y0027034D01*
X0487155Y0026975D01*
X0487160Y0026914D01*
X0487162Y0026854D01*
X0487162Y0020854D01*
X0487160Y0020794D01*
X0487155Y0020733D01*
X0487146Y0020674D01*
X0487133Y0020615D01*
X0487117Y0020556D01*
X0487097Y0020499D01*
X0487074Y0020444D01*
X0487047Y0020389D01*
X0487018Y0020337D01*
X0486985Y0020286D01*
X0486949Y0020237D01*
X0486911Y0020191D01*
X0486869Y0020147D01*
X0486825Y0020105D01*
X0486779Y0020067D01*
X0486730Y0020031D01*
X0486679Y0019998D01*
X0486627Y0019969D01*
X0486572Y0019942D01*
X0486517Y0019919D01*
X0486460Y0019899D01*
X0486401Y0019883D01*
X0486342Y0019870D01*
X0486283Y0019861D01*
X0486222Y0019856D01*
X0486162Y0019854D01*
X0484662Y0019854D01*
X0484162Y0020354D01*
X0470162Y0020354D01*
X0469662Y0019854D01*
X0468162Y0019854D01*
X0468102Y0019856D01*
X0468041Y0019861D01*
X0467982Y0019870D01*
X0467923Y0019883D01*
X0467864Y0019899D01*
X0467807Y0019919D01*
X0467752Y0019942D01*
X0467697Y0019969D01*
X0467645Y0019998D01*
X0467594Y0020031D01*
X0467545Y0020067D01*
X0467499Y0020105D01*
X0467455Y0020147D01*
X0467413Y0020191D01*
X0467375Y0020237D01*
X0467339Y0020286D01*
X0467306Y0020337D01*
X0467277Y0020389D01*
X0467250Y0020444D01*
X0467227Y0020499D01*
X0467207Y0020556D01*
X0467191Y0020615D01*
X0467178Y0020674D01*
X0467169Y0020733D01*
X0467164Y0020794D01*
X0467162Y0020854D01*
X0467162Y0026854D01*
X0467164Y0026914D01*
X0467169Y0026975D01*
X0467178Y0027034D01*
X0467191Y0027093D01*
X0467207Y0027152D01*
X0467227Y0027209D01*
X0467250Y0027264D01*
X0467277Y0027319D01*
X0467306Y0027371D01*
X0467339Y0027422D01*
X0467375Y0027471D01*
X0467413Y0027517D01*
X0467455Y0027561D01*
X0467499Y0027603D01*
X0467545Y0027641D01*
X0467594Y0027677D01*
X0467645Y0027710D01*
X0467697Y0027739D01*
X0467752Y0027766D01*
X0467807Y0027789D01*
X0467864Y0027809D01*
X0467923Y0027825D01*
X0467982Y0027838D01*
X0468041Y0027847D01*
X0468102Y0027852D01*
X0468162Y0027854D01*
D12*
X0266938Y0021885D03*
X0266938Y0047476D03*
D13*
X0260688Y0047476D03*
X0284188Y0047476D03*
X0284188Y0021885D03*
X0260688Y0021885D03*
D14*
X0265188Y0028635D02*
X0267440Y0028635D01*
X0268190Y0029386D01*
X0268190Y0032388D01*
X0267440Y0033139D01*
X0265188Y0033139D01*
X0265188Y0028635D01*
X0269792Y0028635D02*
X0272794Y0028635D01*
X0271293Y0028635D02*
X0271293Y0033139D01*
X0269792Y0031638D01*
X0269792Y0054226D02*
X0272794Y0057228D01*
X0272794Y0057979D01*
X0272044Y0058729D01*
X0270542Y0058729D01*
X0269792Y0057979D01*
X0268190Y0057979D02*
X0268190Y0054976D01*
X0267440Y0054226D01*
X0265188Y0054226D01*
X0265188Y0058729D01*
X0267440Y0058729D01*
X0268190Y0057979D01*
X0269792Y0054226D02*
X0272794Y0054226D01*
X0341400Y0020913D02*
X0341967Y0021480D01*
X0343101Y0021480D01*
X0343668Y0020913D01*
X0343668Y0020346D01*
X0341400Y0018078D01*
X0343668Y0018078D01*
X0361400Y0018078D02*
X0363668Y0018078D01*
X0362534Y0018078D02*
X0362534Y0021480D01*
X0361400Y0020346D01*
X0398486Y0020913D02*
X0399054Y0021480D01*
X0400188Y0021480D01*
X0400755Y0020913D01*
X0400755Y0020346D01*
X0398486Y0018078D01*
X0400755Y0018078D01*
X0418486Y0018078D02*
X0420755Y0018078D01*
X0419621Y0018078D02*
X0419621Y0021480D01*
X0418486Y0020346D01*
X0437781Y0051505D02*
X0437781Y0053757D01*
X0438531Y0054508D01*
X0440033Y0054508D01*
X0440783Y0053757D01*
X0440783Y0051505D01*
X0440783Y0053006D02*
X0442285Y0054508D01*
X0442285Y0056109D02*
X0442285Y0059112D01*
X0442285Y0057610D02*
X0437781Y0057610D01*
X0439282Y0056109D01*
X0439282Y0060713D02*
X0437781Y0062214D01*
X0442285Y0062214D01*
X0442285Y0060713D02*
X0442285Y0063716D01*
X0442285Y0051505D02*
X0437781Y0051505D01*
X0472299Y0050003D02*
X0472299Y0045500D01*
X0472299Y0047001D02*
X0474551Y0047001D01*
X0475301Y0047752D01*
X0475301Y0049253D01*
X0474551Y0050003D01*
X0472299Y0050003D01*
X0473800Y0047001D02*
X0475301Y0045500D01*
X0476903Y0045500D02*
X0476903Y0046250D01*
X0479905Y0049253D01*
X0479905Y0050003D01*
X0476903Y0050003D01*
X0477653Y0061248D02*
X0476903Y0061998D01*
X0477653Y0061248D02*
X0479155Y0061248D01*
X0479905Y0061998D01*
X0479905Y0062749D01*
X0479155Y0063500D01*
X0478404Y0063500D01*
X0479155Y0063500D02*
X0479905Y0064250D01*
X0479905Y0065001D01*
X0479155Y0065751D01*
X0477653Y0065751D01*
X0476903Y0065001D01*
X0475301Y0065001D02*
X0475301Y0063500D01*
X0474551Y0062749D01*
X0472299Y0062749D01*
X0473800Y0062749D02*
X0475301Y0061248D01*
X0472299Y0061248D02*
X0472299Y0065751D01*
X0474551Y0065751D01*
X0475301Y0065001D01*
X0471563Y0080781D02*
X0468560Y0080781D01*
X0470061Y0080781D02*
X0470061Y0085285D01*
X0468560Y0083783D01*
X0466959Y0084534D02*
X0466208Y0085285D01*
X0464707Y0085285D01*
X0463956Y0084534D01*
X0463956Y0081531D01*
X0464707Y0080781D01*
X0466208Y0080781D01*
X0466959Y0081531D01*
X0462388Y0080781D02*
X0460887Y0080781D01*
X0461638Y0080781D02*
X0461638Y0085285D01*
X0462388Y0085285D02*
X0460887Y0085285D01*
X0434410Y0094812D02*
X0429907Y0094812D01*
X0429907Y0097064D01*
X0430657Y0097815D01*
X0432159Y0097815D01*
X0432909Y0097064D01*
X0432909Y0094812D01*
X0432909Y0096313D02*
X0434410Y0097815D01*
X0434410Y0099416D02*
X0434410Y0102419D01*
X0434410Y0100917D02*
X0429907Y0100917D01*
X0431408Y0099416D01*
X0430657Y0104020D02*
X0429907Y0104771D01*
X0429907Y0106272D01*
X0430657Y0107023D01*
X0433660Y0104020D01*
X0434410Y0104771D01*
X0434410Y0106272D01*
X0433660Y0107023D01*
X0430657Y0107023D01*
X0430657Y0104020D02*
X0433660Y0104020D01*
X0463475Y0141408D02*
X0463475Y0145912D01*
X0465727Y0145912D01*
X0466478Y0145161D01*
X0466478Y0143660D01*
X0465727Y0142910D01*
X0463475Y0142910D01*
X0464976Y0142910D02*
X0466478Y0141408D01*
X0468079Y0142159D02*
X0468079Y0142910D01*
X0468830Y0143660D01*
X0470331Y0143660D01*
X0471082Y0142910D01*
X0471082Y0142159D01*
X0470331Y0141408D01*
X0468830Y0141408D01*
X0468079Y0142159D01*
X0468830Y0143660D02*
X0468079Y0144411D01*
X0468079Y0145161D01*
X0468830Y0145912D01*
X0470331Y0145912D01*
X0471082Y0145161D01*
X0471082Y0144411D01*
X0470331Y0143660D01*
X0477151Y0207017D02*
X0477151Y0209269D01*
X0477901Y0210019D01*
X0479403Y0210019D01*
X0480153Y0209269D01*
X0480153Y0207017D01*
X0480153Y0208518D02*
X0481655Y0210019D01*
X0481655Y0211621D02*
X0481655Y0214623D01*
X0481655Y0213122D02*
X0477151Y0213122D01*
X0478652Y0211621D01*
X0477151Y0207017D02*
X0481655Y0207017D01*
X0468145Y0213174D02*
X0465142Y0213174D01*
X0466643Y0213174D02*
X0466643Y0217678D01*
X0465142Y0216177D01*
X0463541Y0216928D02*
X0462790Y0217678D01*
X0461289Y0217678D01*
X0460538Y0216928D01*
X0460538Y0213925D01*
X0461289Y0213174D01*
X0462790Y0213174D01*
X0463541Y0213925D01*
X0477151Y0216225D02*
X0477151Y0219227D01*
X0478652Y0218477D02*
X0479403Y0219227D01*
X0480904Y0219227D01*
X0481655Y0218477D01*
X0481655Y0216975D01*
X0480904Y0216225D01*
X0479403Y0216225D02*
X0478652Y0217726D01*
X0478652Y0218477D01*
X0479403Y0216225D02*
X0477151Y0216225D01*
X0467626Y0234324D02*
X0464623Y0234324D01*
X0467626Y0237327D01*
X0467626Y0238077D01*
X0466875Y0238828D01*
X0465374Y0238828D01*
X0464623Y0238077D01*
X0463022Y0238077D02*
X0462271Y0238828D01*
X0460770Y0238828D01*
X0460019Y0238077D01*
X0460019Y0235075D01*
X0460770Y0234324D01*
X0462271Y0234324D01*
X0463022Y0235075D01*
X0458451Y0234324D02*
X0456950Y0234324D01*
X0457701Y0234324D02*
X0457701Y0238828D01*
X0458451Y0238828D02*
X0456950Y0238828D01*
X0395786Y0269474D02*
X0394785Y0268474D01*
X0393784Y0269474D01*
X0393784Y0271476D01*
X0392563Y0271476D02*
X0390562Y0271476D01*
X0390562Y0269975D01*
X0391563Y0270475D01*
X0392063Y0270475D01*
X0392563Y0269975D01*
X0392563Y0268974D01*
X0392063Y0268474D01*
X0391062Y0268474D01*
X0390562Y0268974D01*
X0395786Y0269474D02*
X0395786Y0271476D01*
X0414212Y0285508D02*
X0414963Y0284757D01*
X0416464Y0284757D01*
X0417215Y0285508D01*
X0418816Y0285508D02*
X0419567Y0284757D01*
X0421068Y0284757D01*
X0421819Y0285508D01*
X0421819Y0286258D01*
X0421068Y0287009D01*
X0420317Y0287009D01*
X0421068Y0287009D02*
X0421819Y0287760D01*
X0421819Y0288510D01*
X0421068Y0289261D01*
X0419567Y0289261D01*
X0418816Y0288510D01*
X0417215Y0288510D02*
X0416464Y0289261D01*
X0414963Y0289261D01*
X0414212Y0288510D01*
X0414212Y0285508D01*
X0455884Y0287626D02*
X0455884Y0292129D01*
X0458136Y0292129D01*
X0458886Y0291379D01*
X0458886Y0289878D01*
X0458136Y0289127D01*
X0455884Y0289127D01*
X0457385Y0289127D02*
X0458886Y0287626D01*
X0460488Y0287626D02*
X0463490Y0287626D01*
X0461989Y0287626D02*
X0461989Y0292129D01*
X0460488Y0290628D01*
X0465092Y0289878D02*
X0468094Y0289878D01*
X0467344Y0292129D02*
X0467344Y0287626D01*
X0465092Y0289878D02*
X0467344Y0292129D01*
X0465375Y0309279D02*
X0466126Y0310030D01*
X0466126Y0310780D01*
X0465375Y0311531D01*
X0463123Y0311531D01*
X0463123Y0310030D01*
X0463874Y0309279D01*
X0465375Y0309279D01*
X0463123Y0311531D02*
X0464624Y0313032D01*
X0466126Y0313783D01*
X0460020Y0313783D02*
X0460020Y0309279D01*
X0458519Y0309279D02*
X0461522Y0309279D01*
X0458519Y0312282D02*
X0460020Y0313783D01*
X0456918Y0313032D02*
X0456918Y0311531D01*
X0456167Y0310780D01*
X0453915Y0310780D01*
X0453915Y0309279D02*
X0453915Y0313783D01*
X0456167Y0313783D01*
X0456918Y0313032D01*
X0455417Y0310780D02*
X0456918Y0309279D01*
X0360277Y0132896D02*
X0359527Y0132896D01*
X0358776Y0132145D01*
X0358776Y0129893D01*
X0360277Y0129893D01*
X0361028Y0130644D01*
X0361028Y0132145D01*
X0360277Y0132896D01*
X0357275Y0131395D02*
X0358776Y0129893D01*
X0358776Y0128292D02*
X0357275Y0128292D01*
X0356524Y0127541D01*
X0356524Y0125289D01*
X0361028Y0125289D01*
X0359527Y0125289D02*
X0359527Y0127541D01*
X0358776Y0128292D01*
X0359527Y0126791D02*
X0361028Y0128292D01*
X0357275Y0131395D02*
X0356524Y0132896D01*
X0324174Y0127259D02*
X0324174Y0125757D01*
X0323424Y0125007D01*
X0321922Y0125007D02*
X0321172Y0126508D01*
X0321172Y0127259D01*
X0321922Y0128009D01*
X0323424Y0128009D01*
X0324174Y0127259D01*
X0321922Y0125007D02*
X0319670Y0125007D01*
X0319670Y0128009D01*
X0320421Y0123405D02*
X0321922Y0123405D01*
X0322673Y0122655D01*
X0322673Y0120403D01*
X0322673Y0121904D02*
X0324174Y0123405D01*
X0324174Y0120403D02*
X0319670Y0120403D01*
X0319670Y0122655D01*
X0320421Y0123405D01*
X0279118Y0116182D02*
X0278367Y0116933D01*
X0276866Y0116933D01*
X0276115Y0116182D01*
X0279118Y0116182D02*
X0279118Y0115431D01*
X0276115Y0112429D01*
X0279118Y0112429D01*
X0274514Y0112429D02*
X0271511Y0112429D01*
X0273013Y0112429D02*
X0273013Y0116933D01*
X0271511Y0115431D01*
X0269910Y0114681D02*
X0269910Y0116182D01*
X0269159Y0116933D01*
X0266907Y0116933D01*
X0266907Y0112429D01*
X0266907Y0113930D02*
X0269159Y0113930D01*
X0269910Y0114681D01*
X0268409Y0113930D02*
X0269910Y0112429D01*
X0191168Y0026597D02*
X0191168Y0023594D01*
X0188165Y0026597D01*
X0187415Y0026597D01*
X0186664Y0025846D01*
X0186664Y0024345D01*
X0187415Y0023594D01*
X0187415Y0021993D02*
X0188916Y0021993D01*
X0189667Y0021242D01*
X0189667Y0018990D01*
X0191168Y0018990D02*
X0186664Y0018990D01*
X0186664Y0021242D01*
X0187415Y0021993D01*
X0186664Y0017389D02*
X0186664Y0015888D01*
X0186664Y0016638D02*
X0190417Y0016638D01*
X0191168Y0015888D01*
X0191168Y0015137D01*
X0190417Y0014386D01*
X0086079Y0127056D02*
X0083077Y0127056D01*
X0084578Y0127056D02*
X0084578Y0131560D01*
X0083077Y0130059D01*
X0081475Y0128558D02*
X0081475Y0131560D01*
X0078473Y0131560D02*
X0078473Y0128558D01*
X0079974Y0127056D01*
X0081475Y0128558D01*
X0076871Y0129308D02*
X0076871Y0130809D01*
X0076121Y0131560D01*
X0073869Y0131560D01*
X0073869Y0127056D01*
X0073869Y0128558D02*
X0076121Y0128558D01*
X0076871Y0129308D01*
X0075370Y0128558D02*
X0076871Y0127056D01*
X0050552Y0140088D02*
X0046048Y0140088D01*
X0046048Y0142340D01*
X0046799Y0143090D01*
X0048300Y0143090D01*
X0049051Y0142340D01*
X0049051Y0140088D01*
X0049051Y0141589D02*
X0050552Y0143090D01*
X0049802Y0144692D02*
X0050552Y0145442D01*
X0050552Y0146944D01*
X0049802Y0147694D01*
X0046799Y0147694D01*
X0046048Y0146944D01*
X0046048Y0145442D01*
X0046799Y0144692D01*
X0047550Y0144692D01*
X0048300Y0145442D01*
X0048300Y0147694D01*
X0048584Y0193237D02*
X0044080Y0193237D01*
X0044080Y0195489D01*
X0044831Y0196240D01*
X0046332Y0196240D01*
X0047082Y0195489D01*
X0047082Y0193237D01*
X0047082Y0194739D02*
X0048584Y0196240D01*
X0048584Y0197841D02*
X0048584Y0200844D01*
X0048584Y0199343D02*
X0044080Y0199343D01*
X0045581Y0197841D01*
X0044831Y0202445D02*
X0044080Y0203196D01*
X0044080Y0204697D01*
X0044831Y0205448D01*
X0045581Y0205448D01*
X0046332Y0204697D01*
X0047082Y0205448D01*
X0047833Y0205448D01*
X0048584Y0204697D01*
X0048584Y0203196D01*
X0047833Y0202445D01*
X0046332Y0203947D02*
X0046332Y0204697D01*
X0061248Y0239463D02*
X0061248Y0241715D01*
X0061999Y0242465D01*
X0063500Y0242465D01*
X0064251Y0241715D01*
X0064251Y0239463D01*
X0064251Y0240964D02*
X0065752Y0242465D01*
X0063500Y0244067D02*
X0063500Y0247069D01*
X0065752Y0246318D02*
X0061248Y0246318D01*
X0063500Y0244067D01*
X0065752Y0239463D02*
X0061248Y0239463D01*
X0186664Y0315100D02*
X0186664Y0316601D01*
X0186664Y0315851D02*
X0190417Y0315851D01*
X0191168Y0315100D01*
X0191168Y0314349D01*
X0190417Y0313599D01*
X0189667Y0318203D02*
X0189667Y0320455D01*
X0188916Y0321205D01*
X0187415Y0321205D01*
X0186664Y0320455D01*
X0186664Y0318203D01*
X0191168Y0318203D01*
X0191168Y0322807D02*
X0191168Y0325809D01*
X0191168Y0324308D02*
X0186664Y0324308D01*
X0188165Y0322807D01*
X0472299Y0034255D02*
X0474551Y0034255D01*
X0475301Y0033505D01*
X0475301Y0032003D01*
X0474551Y0031253D01*
X0472299Y0031253D01*
X0473800Y0031253D02*
X0475301Y0029752D01*
X0476903Y0029752D02*
X0479905Y0032754D01*
X0479905Y0033505D01*
X0479155Y0034255D01*
X0477653Y0034255D01*
X0476903Y0033505D01*
X0476903Y0029752D02*
X0479905Y0029752D01*
X0472299Y0029752D02*
X0472299Y0034255D01*
X0472299Y0018507D02*
X0474551Y0018507D01*
X0475301Y0017757D01*
X0475301Y0016255D01*
X0474551Y0015505D01*
X0472299Y0015505D01*
X0473800Y0015505D02*
X0475301Y0014004D01*
X0476903Y0014004D02*
X0479905Y0014004D01*
X0478404Y0014004D02*
X0478404Y0018507D01*
X0476903Y0017006D01*
X0472299Y0018507D02*
X0472299Y0014004D01*
D15*
X0404327Y0031728D03*
X0347241Y0031728D03*
D16*
X0439760Y0085625D02*
X0439760Y0089125D01*
X0447635Y0070350D02*
X0447635Y0066850D01*
X0462162Y0071098D02*
X0465662Y0071098D01*
X0465662Y0055350D02*
X0462162Y0055350D01*
X0447635Y0043850D02*
X0447635Y0040350D01*
X0462162Y0039602D02*
X0465662Y0039602D01*
X0465662Y0023854D02*
X0462162Y0023854D01*
X0488662Y0023854D02*
X0492162Y0023854D01*
X0492162Y0039602D02*
X0488662Y0039602D01*
X0488662Y0055350D02*
X0492162Y0055350D01*
X0492162Y0071098D02*
X0488662Y0071098D01*
X0439760Y0112125D02*
X0439760Y0115625D01*
X0452320Y0136058D02*
X0455820Y0136058D01*
X0478820Y0136058D02*
X0482320Y0136058D01*
X0487005Y0201767D02*
X0487005Y0205267D01*
X0487005Y0228267D02*
X0487005Y0231767D01*
X0478383Y0297476D02*
X0474883Y0297476D01*
X0451883Y0297476D02*
X0448383Y0297476D01*
X0448383Y0319129D02*
X0451883Y0319129D01*
X0474883Y0319129D02*
X0478383Y0319129D01*
X0351178Y0145153D02*
X0351178Y0141653D01*
X0329524Y0141653D02*
X0329524Y0145153D01*
X0329524Y0118653D02*
X0329524Y0115153D01*
X0351178Y0115153D02*
X0351178Y0118653D01*
X0285469Y0122279D02*
X0281969Y0122279D01*
X0258969Y0122279D02*
X0255469Y0122279D01*
X0055902Y0134838D02*
X0055902Y0138338D01*
X0055902Y0161338D02*
X0055902Y0164838D01*
X0053934Y0182082D02*
X0053934Y0185582D01*
X0053934Y0208582D02*
X0053934Y0212082D01*
X0055902Y0229326D02*
X0055902Y0232826D01*
X0055902Y0255826D02*
X0055902Y0259326D01*
D17*
X0259719Y0122279D03*
X0281219Y0122279D03*
X0456570Y0136058D03*
X0478070Y0136058D03*
X0487912Y0071098D03*
X0487912Y0055350D03*
X0487912Y0039602D03*
X0487912Y0023854D03*
X0466412Y0023854D03*
X0466412Y0039602D03*
X0466412Y0055350D03*
X0466412Y0071098D03*
X0474133Y0297476D03*
X0452633Y0297476D03*
X0452633Y0319129D03*
X0474133Y0319129D03*
D18*
X0415312Y0265724D02*
X0412812Y0268224D01*
X0397812Y0268224D01*
X0395312Y0265724D01*
X0395312Y0260724D01*
X0397812Y0258224D01*
X0412812Y0258224D01*
X0415312Y0260724D01*
X0415312Y0265724D01*
X0392171Y0254627D02*
X0391370Y0255428D01*
X0389769Y0255428D01*
X0388968Y0254627D01*
X0387014Y0254627D02*
X0386214Y0255428D01*
X0384612Y0255428D01*
X0383812Y0254627D01*
X0387014Y0254627D02*
X0387014Y0253826D01*
X0383812Y0250624D01*
X0387014Y0250624D01*
X0388968Y0250624D02*
X0392171Y0253826D01*
X0392171Y0254627D01*
X0392171Y0250624D02*
X0388968Y0250624D01*
X0391370Y0245428D02*
X0388968Y0243026D01*
X0392171Y0243026D01*
X0391370Y0240624D02*
X0391370Y0245428D01*
X0387014Y0244627D02*
X0387014Y0243826D01*
X0383812Y0240624D01*
X0387014Y0240624D01*
X0386214Y0235428D02*
X0384612Y0235428D01*
X0383812Y0234627D01*
X0386214Y0235428D02*
X0387014Y0234627D01*
X0387014Y0233826D01*
X0383812Y0230624D01*
X0387014Y0230624D01*
X0388968Y0231424D02*
X0389769Y0230624D01*
X0391370Y0230624D01*
X0392171Y0231424D01*
X0392171Y0232225D01*
X0391370Y0233026D01*
X0388968Y0233026D01*
X0388968Y0231424D01*
X0388968Y0233026D02*
X0390569Y0234627D01*
X0392171Y0235428D01*
X0391370Y0225428D02*
X0392171Y0224627D01*
X0392171Y0223826D01*
X0391370Y0223026D01*
X0389769Y0223026D01*
X0388968Y0223826D01*
X0388968Y0224627D01*
X0389769Y0225428D01*
X0391370Y0225428D01*
X0391370Y0223026D02*
X0392171Y0222225D01*
X0392171Y0221424D01*
X0391370Y0220624D01*
X0389769Y0220624D01*
X0388968Y0221424D01*
X0388968Y0222225D01*
X0389769Y0223026D01*
X0387014Y0223826D02*
X0387014Y0224627D01*
X0386214Y0225428D01*
X0384612Y0225428D01*
X0383812Y0224627D01*
X0387014Y0223826D02*
X0383812Y0220624D01*
X0387014Y0220624D01*
X0386214Y0215428D02*
X0387014Y0214627D01*
X0387014Y0213826D01*
X0386214Y0213026D01*
X0387014Y0212225D01*
X0387014Y0211424D01*
X0386214Y0210624D01*
X0384612Y0210624D01*
X0383812Y0211424D01*
X0385413Y0213026D02*
X0386214Y0213026D01*
X0386214Y0215428D02*
X0384612Y0215428D01*
X0383812Y0214627D01*
X0388968Y0214627D02*
X0388968Y0211424D01*
X0392171Y0214627D01*
X0392171Y0211424D01*
X0391370Y0210624D01*
X0389769Y0210624D01*
X0388968Y0211424D01*
X0388968Y0214627D02*
X0389769Y0215428D01*
X0391370Y0215428D01*
X0392171Y0214627D01*
X0391370Y0205428D02*
X0389769Y0205428D01*
X0388968Y0204627D01*
X0387014Y0204627D02*
X0387014Y0203826D01*
X0386214Y0203026D01*
X0387014Y0202225D01*
X0387014Y0201424D01*
X0386214Y0200624D01*
X0384612Y0200624D01*
X0383812Y0201424D01*
X0385413Y0203026D02*
X0386214Y0203026D01*
X0387014Y0204627D02*
X0386214Y0205428D01*
X0384612Y0205428D01*
X0383812Y0204627D01*
X0388968Y0200624D02*
X0392171Y0203826D01*
X0392171Y0204627D01*
X0391370Y0205428D01*
X0392171Y0200624D02*
X0388968Y0200624D01*
X0391370Y0195428D02*
X0388968Y0193026D01*
X0392171Y0193026D01*
X0391370Y0190624D02*
X0391370Y0195428D01*
X0387014Y0194627D02*
X0387014Y0193826D01*
X0386214Y0193026D01*
X0387014Y0192225D01*
X0387014Y0191424D01*
X0386214Y0190624D01*
X0384612Y0190624D01*
X0383812Y0191424D01*
X0385413Y0193026D02*
X0386214Y0193026D01*
X0387014Y0194627D02*
X0386214Y0195428D01*
X0384612Y0195428D01*
X0383812Y0194627D01*
X0384612Y0185428D02*
X0383812Y0184627D01*
X0384612Y0185428D02*
X0386214Y0185428D01*
X0387014Y0184627D01*
X0387014Y0183826D01*
X0386214Y0183026D01*
X0387014Y0182225D01*
X0387014Y0181424D01*
X0386214Y0180624D01*
X0384612Y0180624D01*
X0383812Y0181424D01*
X0385413Y0183026D02*
X0386214Y0183026D01*
X0388968Y0183026D02*
X0391370Y0183026D01*
X0392171Y0182225D01*
X0392171Y0181424D01*
X0391370Y0180624D01*
X0389769Y0180624D01*
X0388968Y0181424D01*
X0388968Y0183026D01*
X0390569Y0184627D01*
X0392171Y0185428D01*
X0391370Y0175428D02*
X0392171Y0174627D01*
X0392171Y0173826D01*
X0391370Y0173026D01*
X0389769Y0173026D01*
X0388968Y0173826D01*
X0388968Y0174627D01*
X0389769Y0175428D01*
X0391370Y0175428D01*
X0391370Y0173026D02*
X0392171Y0172225D01*
X0392171Y0171424D01*
X0391370Y0170624D01*
X0389769Y0170624D01*
X0388968Y0171424D01*
X0388968Y0172225D01*
X0389769Y0173026D01*
X0387014Y0173826D02*
X0386214Y0173026D01*
X0387014Y0172225D01*
X0387014Y0171424D01*
X0386214Y0170624D01*
X0384612Y0170624D01*
X0383812Y0171424D01*
X0385413Y0173026D02*
X0386214Y0173026D01*
X0387014Y0173826D02*
X0387014Y0174627D01*
X0386214Y0175428D01*
X0384612Y0175428D01*
X0383812Y0174627D01*
X0386214Y0165428D02*
X0383812Y0163026D01*
X0387014Y0163026D01*
X0388968Y0164627D02*
X0389769Y0165428D01*
X0391370Y0165428D01*
X0392171Y0164627D01*
X0388968Y0161424D01*
X0389769Y0160624D01*
X0391370Y0160624D01*
X0392171Y0161424D01*
X0392171Y0164627D01*
X0388968Y0164627D02*
X0388968Y0161424D01*
X0386214Y0160624D02*
X0386214Y0165428D01*
X0386214Y0155428D02*
X0383812Y0153026D01*
X0387014Y0153026D01*
X0388968Y0154627D02*
X0389769Y0155428D01*
X0391370Y0155428D01*
X0392171Y0154627D01*
X0392171Y0153826D01*
X0388968Y0150624D01*
X0392171Y0150624D01*
X0391370Y0145428D02*
X0388968Y0143026D01*
X0392171Y0143026D01*
X0391370Y0140624D02*
X0391370Y0145428D01*
X0387014Y0143026D02*
X0383812Y0143026D01*
X0386214Y0145428D01*
X0386214Y0140624D01*
X0386214Y0135428D02*
X0383812Y0133026D01*
X0387014Y0133026D01*
X0388968Y0133026D02*
X0391370Y0133026D01*
X0392171Y0132225D01*
X0392171Y0131424D01*
X0391370Y0130624D01*
X0389769Y0130624D01*
X0388968Y0131424D01*
X0388968Y0133026D01*
X0390569Y0134627D01*
X0392171Y0135428D01*
X0386214Y0135428D02*
X0386214Y0130624D01*
X0386214Y0125428D02*
X0383812Y0123026D01*
X0387014Y0123026D01*
X0388968Y0123826D02*
X0388968Y0124627D01*
X0389769Y0125428D01*
X0391370Y0125428D01*
X0392171Y0124627D01*
X0392171Y0123826D01*
X0391370Y0123026D01*
X0389769Y0123026D01*
X0388968Y0123826D01*
X0389769Y0123026D02*
X0388968Y0122225D01*
X0388968Y0121424D01*
X0389769Y0120624D01*
X0391370Y0120624D01*
X0392171Y0121424D01*
X0392171Y0122225D01*
X0391370Y0123026D01*
X0386214Y0120624D02*
X0386214Y0125428D01*
X0387014Y0115428D02*
X0383812Y0115428D01*
X0383812Y0113026D01*
X0385413Y0113826D01*
X0386214Y0113826D01*
X0387014Y0113026D01*
X0387014Y0111424D01*
X0386214Y0110624D01*
X0384612Y0110624D01*
X0383812Y0111424D01*
X0388968Y0111424D02*
X0392171Y0114627D01*
X0392171Y0111424D01*
X0391370Y0110624D01*
X0389769Y0110624D01*
X0388968Y0111424D01*
X0388968Y0114627D01*
X0389769Y0115428D01*
X0391370Y0115428D01*
X0392171Y0114627D01*
X0391370Y0105428D02*
X0389769Y0105428D01*
X0388968Y0104627D01*
X0387014Y0105428D02*
X0383812Y0105428D01*
X0383812Y0103026D01*
X0385413Y0103826D01*
X0386214Y0103826D01*
X0387014Y0103026D01*
X0387014Y0101424D01*
X0386214Y0100624D01*
X0384612Y0100624D01*
X0383812Y0101424D01*
X0388968Y0100624D02*
X0392171Y0103826D01*
X0392171Y0104627D01*
X0391370Y0105428D01*
X0392171Y0100624D02*
X0388968Y0100624D01*
X0390010Y0095239D02*
X0391611Y0095239D01*
X0392412Y0094438D01*
X0392412Y0092837D01*
X0391611Y0092036D01*
X0390010Y0092036D02*
X0389209Y0093638D01*
X0389209Y0094438D01*
X0390010Y0095239D01*
X0387608Y0095239D02*
X0387608Y0092036D01*
X0390010Y0092036D01*
X0392412Y0090083D02*
X0392412Y0086880D01*
X0392412Y0088481D02*
X0387608Y0088481D01*
X0389209Y0086880D01*
X0389209Y0084926D02*
X0387608Y0083325D01*
X0389209Y0081724D01*
X0392412Y0081724D01*
X0390010Y0081724D02*
X0390010Y0084926D01*
X0389209Y0084926D02*
X0392412Y0084926D01*
X0397812Y0088224D02*
X0412812Y0088224D01*
X0415312Y0090724D01*
X0415312Y0095724D01*
X0412812Y0098224D01*
X0397812Y0098224D01*
X0395312Y0095724D01*
X0395312Y0090724D01*
X0397812Y0088224D01*
X0392812Y0078224D02*
X0387812Y0078224D01*
X0385312Y0075724D01*
X0382812Y0078224D01*
X0377812Y0078224D01*
X0375312Y0075724D01*
X0372812Y0078224D01*
X0367812Y0078224D01*
X0365312Y0075724D01*
X0362812Y0078224D01*
X0357812Y0078224D01*
X0355312Y0075724D01*
X0352812Y0078224D01*
X0347812Y0078224D01*
X0345312Y0075724D01*
X0342812Y0078224D01*
X0337812Y0078224D01*
X0335312Y0075724D01*
X0332812Y0078224D01*
X0327812Y0078224D01*
X0325312Y0075724D01*
X0322812Y0078224D01*
X0317812Y0078224D01*
X0315312Y0075724D01*
X0315312Y0070724D01*
X0317812Y0068224D01*
X0322812Y0068224D01*
X0325312Y0070724D01*
X0327812Y0068224D01*
X0332812Y0068224D01*
X0335312Y0070724D01*
X0337812Y0068224D01*
X0342812Y0068224D01*
X0345312Y0070724D01*
X0347812Y0068224D01*
X0352812Y0068224D01*
X0355312Y0070724D01*
X0357812Y0068224D01*
X0362812Y0068224D01*
X0365312Y0070724D01*
X0367812Y0068224D01*
X0372812Y0068224D01*
X0375312Y0070724D01*
X0377812Y0068224D01*
X0382812Y0068224D01*
X0385312Y0070724D01*
X0387812Y0068224D01*
X0392812Y0068224D01*
X0395312Y0070724D01*
X0395312Y0075724D01*
X0392812Y0078224D01*
X0382912Y0081724D02*
X0379709Y0081724D01*
X0378108Y0083325D01*
X0379709Y0084926D01*
X0382912Y0084926D01*
X0382912Y0086880D02*
X0382912Y0090083D01*
X0382912Y0088481D02*
X0378108Y0088481D01*
X0379709Y0086880D01*
X0380510Y0084926D02*
X0380510Y0081724D01*
X0372912Y0081724D02*
X0369709Y0081724D01*
X0368108Y0083325D01*
X0369709Y0084926D01*
X0372912Y0084926D01*
X0372912Y0086880D02*
X0372912Y0090083D01*
X0372912Y0088481D02*
X0368108Y0088481D01*
X0369709Y0086880D01*
X0370510Y0084926D02*
X0370510Y0081724D01*
X0362912Y0081724D02*
X0359709Y0081724D01*
X0358108Y0083325D01*
X0359709Y0084926D01*
X0362912Y0084926D01*
X0362912Y0086880D02*
X0362912Y0090083D01*
X0362912Y0088481D02*
X0358108Y0088481D01*
X0359709Y0086880D01*
X0360510Y0084926D02*
X0360510Y0081724D01*
X0352912Y0081724D02*
X0349709Y0081724D01*
X0348108Y0083325D01*
X0349709Y0084926D01*
X0352912Y0084926D01*
X0352912Y0086880D02*
X0352912Y0090083D01*
X0352912Y0088481D02*
X0348108Y0088481D01*
X0349709Y0086880D01*
X0350510Y0084926D02*
X0350510Y0081724D01*
X0342912Y0081724D02*
X0339709Y0081724D01*
X0338108Y0083325D01*
X0339709Y0084926D01*
X0342912Y0084926D01*
X0342912Y0086880D02*
X0342912Y0090083D01*
X0342912Y0088481D02*
X0338108Y0088481D01*
X0339709Y0086880D01*
X0340510Y0084926D02*
X0340510Y0081724D01*
X0332912Y0081724D02*
X0329709Y0081724D01*
X0328108Y0083325D01*
X0329709Y0084926D01*
X0332912Y0084926D01*
X0332111Y0086880D02*
X0332912Y0087681D01*
X0332912Y0089282D01*
X0332111Y0090083D01*
X0328908Y0090083D01*
X0328108Y0089282D01*
X0328108Y0087681D01*
X0328908Y0086880D01*
X0329709Y0086880D01*
X0330510Y0087681D01*
X0330510Y0090083D01*
X0322912Y0089282D02*
X0322912Y0087681D01*
X0322111Y0086880D01*
X0321310Y0086880D01*
X0320510Y0087681D01*
X0320510Y0089282D01*
X0321310Y0090083D01*
X0322111Y0090083D01*
X0322912Y0089282D01*
X0320510Y0089282D02*
X0319709Y0090083D01*
X0318908Y0090083D01*
X0318108Y0089282D01*
X0318108Y0087681D01*
X0318908Y0086880D01*
X0319709Y0086880D01*
X0320510Y0087681D01*
X0320510Y0084926D02*
X0320510Y0081724D01*
X0319709Y0081724D02*
X0318108Y0083325D01*
X0319709Y0084926D01*
X0322912Y0084926D01*
X0322912Y0081724D02*
X0319709Y0081724D01*
X0330510Y0081724D02*
X0330510Y0084926D01*
X0338108Y0092837D02*
X0338108Y0094438D01*
X0338908Y0095239D01*
X0342111Y0092036D01*
X0342912Y0092837D01*
X0342912Y0094438D01*
X0342111Y0095239D01*
X0338908Y0095239D01*
X0338108Y0092837D02*
X0338908Y0092036D01*
X0342111Y0092036D01*
X0348108Y0093638D02*
X0349709Y0092036D01*
X0348108Y0093638D02*
X0352912Y0093638D01*
X0352912Y0095239D02*
X0352912Y0092036D01*
X0358108Y0092837D02*
X0358108Y0094438D01*
X0358908Y0095239D01*
X0359709Y0095239D01*
X0362912Y0092036D01*
X0362912Y0095239D01*
X0358908Y0092036D02*
X0358108Y0092837D01*
X0368108Y0092837D02*
X0368108Y0094438D01*
X0368908Y0095239D01*
X0369709Y0095239D01*
X0370510Y0094438D01*
X0371310Y0095239D01*
X0372111Y0095239D01*
X0372912Y0094438D01*
X0372912Y0092837D01*
X0372111Y0092036D01*
X0370510Y0093638D02*
X0370510Y0094438D01*
X0368108Y0092837D02*
X0368908Y0092036D01*
X0378108Y0094438D02*
X0380510Y0092036D01*
X0380510Y0095239D01*
X0382912Y0094438D02*
X0378108Y0094438D01*
X0418212Y0101524D02*
X0419012Y0100724D01*
X0420614Y0100724D01*
X0421414Y0101524D01*
X0421414Y0103126D01*
X0420614Y0103926D01*
X0419813Y0103926D01*
X0418212Y0103126D01*
X0418212Y0105528D01*
X0421414Y0105528D01*
X0423368Y0104727D02*
X0424169Y0105528D01*
X0425770Y0105528D01*
X0426571Y0104727D01*
X0426571Y0103926D01*
X0425770Y0103126D01*
X0426571Y0102325D01*
X0426571Y0101524D01*
X0425770Y0100724D01*
X0424169Y0100724D01*
X0423368Y0101524D01*
X0424969Y0103126D02*
X0425770Y0103126D01*
X0424969Y0110724D02*
X0424969Y0115528D01*
X0423368Y0113926D01*
X0421414Y0113126D02*
X0421414Y0111524D01*
X0420614Y0110724D01*
X0419012Y0110724D01*
X0418212Y0111524D01*
X0418212Y0113126D02*
X0419813Y0113926D01*
X0420614Y0113926D01*
X0421414Y0113126D01*
X0421414Y0115528D02*
X0418212Y0115528D01*
X0418212Y0113126D01*
X0423368Y0110724D02*
X0426571Y0110724D01*
X0425770Y0120724D02*
X0424169Y0120724D01*
X0423368Y0121524D01*
X0424169Y0123126D02*
X0426571Y0123126D01*
X0426571Y0124727D02*
X0425770Y0125528D01*
X0424169Y0125528D01*
X0423368Y0124727D01*
X0423368Y0123926D01*
X0424169Y0123126D01*
X0421414Y0123126D02*
X0418212Y0123126D01*
X0420614Y0125528D01*
X0420614Y0120724D01*
X0425770Y0120724D02*
X0426571Y0121524D01*
X0426571Y0124727D01*
X0423368Y0130724D02*
X0423368Y0131524D01*
X0426571Y0134727D01*
X0426571Y0135528D01*
X0423368Y0135528D01*
X0420614Y0135528D02*
X0418212Y0133126D01*
X0421414Y0133126D01*
X0420614Y0130724D02*
X0420614Y0135528D01*
X0420614Y0140724D02*
X0420614Y0145528D01*
X0418212Y0143126D01*
X0421414Y0143126D01*
X0423368Y0143126D02*
X0424969Y0143926D01*
X0425770Y0143926D01*
X0426571Y0143126D01*
X0426571Y0141524D01*
X0425770Y0140724D01*
X0424169Y0140724D01*
X0423368Y0141524D01*
X0423368Y0143126D02*
X0423368Y0145528D01*
X0426571Y0145528D01*
X0425770Y0150724D02*
X0424169Y0150724D01*
X0423368Y0151524D01*
X0424969Y0153126D02*
X0425770Y0153126D01*
X0426571Y0152325D01*
X0426571Y0151524D01*
X0425770Y0150724D01*
X0425770Y0153126D02*
X0426571Y0153926D01*
X0426571Y0154727D01*
X0425770Y0155528D01*
X0424169Y0155528D01*
X0423368Y0154727D01*
X0421414Y0153126D02*
X0418212Y0153126D01*
X0420614Y0155528D01*
X0420614Y0150724D01*
X0420614Y0160724D02*
X0420614Y0165528D01*
X0418212Y0163126D01*
X0421414Y0163126D01*
X0423368Y0163926D02*
X0424969Y0165528D01*
X0424969Y0160724D01*
X0423368Y0160724D02*
X0426571Y0160724D01*
X0425770Y0170724D02*
X0424169Y0170724D01*
X0423368Y0171524D01*
X0424169Y0173126D02*
X0426571Y0173126D01*
X0426571Y0174727D02*
X0425770Y0175528D01*
X0424169Y0175528D01*
X0423368Y0174727D01*
X0423368Y0173926D01*
X0424169Y0173126D01*
X0421414Y0173926D02*
X0420614Y0173126D01*
X0421414Y0172325D01*
X0421414Y0171524D01*
X0420614Y0170724D01*
X0419012Y0170724D01*
X0418212Y0171524D01*
X0419813Y0173126D02*
X0420614Y0173126D01*
X0421414Y0173926D02*
X0421414Y0174727D01*
X0420614Y0175528D01*
X0419012Y0175528D01*
X0418212Y0174727D01*
X0419012Y0180724D02*
X0418212Y0181524D01*
X0419012Y0180724D02*
X0420614Y0180724D01*
X0421414Y0181524D01*
X0421414Y0182325D01*
X0420614Y0183126D01*
X0419813Y0183126D01*
X0420614Y0183126D02*
X0421414Y0183926D01*
X0421414Y0184727D01*
X0420614Y0185528D01*
X0419012Y0185528D01*
X0418212Y0184727D01*
X0423368Y0185528D02*
X0426571Y0185528D01*
X0426571Y0184727D01*
X0423368Y0181524D01*
X0423368Y0180724D01*
X0426571Y0174727D02*
X0426571Y0171524D01*
X0425770Y0170724D01*
X0425770Y0190724D02*
X0424169Y0190724D01*
X0423368Y0191524D01*
X0423368Y0193126D02*
X0424969Y0193926D01*
X0425770Y0193926D01*
X0426571Y0193126D01*
X0426571Y0191524D01*
X0425770Y0190724D01*
X0423368Y0193126D02*
X0423368Y0195528D01*
X0426571Y0195528D01*
X0421414Y0194727D02*
X0421414Y0193926D01*
X0420614Y0193126D01*
X0421414Y0192325D01*
X0421414Y0191524D01*
X0420614Y0190724D01*
X0419012Y0190724D01*
X0418212Y0191524D01*
X0419813Y0193126D02*
X0420614Y0193126D01*
X0421414Y0194727D02*
X0420614Y0195528D01*
X0419012Y0195528D01*
X0418212Y0194727D01*
X0419012Y0200724D02*
X0418212Y0201524D01*
X0419012Y0200724D02*
X0420614Y0200724D01*
X0421414Y0201524D01*
X0421414Y0202325D01*
X0420614Y0203126D01*
X0419813Y0203126D01*
X0420614Y0203126D02*
X0421414Y0203926D01*
X0421414Y0204727D01*
X0420614Y0205528D01*
X0419012Y0205528D01*
X0418212Y0204727D01*
X0423368Y0204727D02*
X0424169Y0205528D01*
X0425770Y0205528D01*
X0426571Y0204727D01*
X0426571Y0203926D01*
X0425770Y0203126D01*
X0426571Y0202325D01*
X0426571Y0201524D01*
X0425770Y0200724D01*
X0424169Y0200724D01*
X0423368Y0201524D01*
X0424969Y0203126D02*
X0425770Y0203126D01*
X0424969Y0210724D02*
X0424969Y0215528D01*
X0423368Y0213926D01*
X0421414Y0213926D02*
X0420614Y0213126D01*
X0421414Y0212325D01*
X0421414Y0211524D01*
X0420614Y0210724D01*
X0419012Y0210724D01*
X0418212Y0211524D01*
X0419813Y0213126D02*
X0420614Y0213126D01*
X0421414Y0213926D02*
X0421414Y0214727D01*
X0420614Y0215528D01*
X0419012Y0215528D01*
X0418212Y0214727D01*
X0423368Y0210724D02*
X0426571Y0210724D01*
X0387014Y0244627D02*
X0386214Y0245428D01*
X0384612Y0245428D01*
X0383812Y0244627D01*
X0371412Y0248124D02*
X0368209Y0251326D01*
X0367408Y0251326D01*
X0366608Y0250526D01*
X0366608Y0248924D01*
X0367408Y0248124D01*
X0371412Y0248124D02*
X0371412Y0251326D01*
X0371412Y0253280D02*
X0371412Y0256483D01*
X0371412Y0254881D02*
X0366608Y0254881D01*
X0368209Y0253280D01*
X0367812Y0258224D02*
X0372812Y0258224D01*
X0375312Y0260724D01*
X0375312Y0265724D01*
X0372812Y0268224D01*
X0367812Y0268224D01*
X0365312Y0265724D01*
X0362812Y0268224D01*
X0357812Y0268224D01*
X0355312Y0265724D01*
X0352812Y0268224D01*
X0347812Y0268224D01*
X0345312Y0265724D01*
X0342812Y0268224D01*
X0337812Y0268224D01*
X0335312Y0265724D01*
X0332812Y0268224D01*
X0327812Y0268224D01*
X0325312Y0265724D01*
X0322812Y0268224D01*
X0317812Y0268224D01*
X0315312Y0265724D01*
X0312812Y0268224D01*
X0307812Y0268224D01*
X0305312Y0265724D01*
X0302812Y0268224D01*
X0297812Y0268224D01*
X0295312Y0265724D01*
X0295312Y0260724D01*
X0297812Y0258224D01*
X0302812Y0258224D01*
X0305312Y0260724D01*
X0307812Y0258224D01*
X0312812Y0258224D01*
X0315312Y0260724D01*
X0317812Y0258224D01*
X0322812Y0258224D01*
X0325312Y0260724D01*
X0327812Y0258224D01*
X0332812Y0258224D01*
X0335312Y0260724D01*
X0337812Y0258224D01*
X0342812Y0258224D01*
X0345312Y0260724D01*
X0347812Y0258224D01*
X0352812Y0258224D01*
X0355312Y0260724D01*
X0357812Y0258224D01*
X0362812Y0258224D01*
X0365312Y0260724D01*
X0367812Y0258224D01*
X0361412Y0255682D02*
X0361412Y0254081D01*
X0360611Y0253280D01*
X0357408Y0256483D01*
X0360611Y0256483D01*
X0361412Y0255682D01*
X0360611Y0253280D02*
X0357408Y0253280D01*
X0356608Y0254081D01*
X0356608Y0255682D01*
X0357408Y0256483D01*
X0351412Y0255682D02*
X0351412Y0254081D01*
X0350611Y0253280D01*
X0349010Y0254081D02*
X0349010Y0256483D01*
X0350611Y0256483D02*
X0347408Y0256483D01*
X0346608Y0255682D01*
X0346608Y0254081D01*
X0347408Y0253280D01*
X0348209Y0253280D01*
X0349010Y0254081D01*
X0351412Y0255682D02*
X0350611Y0256483D01*
X0351412Y0251326D02*
X0351412Y0248124D01*
X0351412Y0249725D02*
X0346608Y0249725D01*
X0348209Y0248124D01*
X0356608Y0248924D02*
X0357408Y0248124D01*
X0356608Y0248924D02*
X0356608Y0250526D01*
X0357408Y0251326D01*
X0358209Y0251326D01*
X0361412Y0248124D01*
X0361412Y0251326D01*
X0341412Y0251326D02*
X0341412Y0248124D01*
X0341412Y0249725D02*
X0336608Y0249725D01*
X0338209Y0248124D01*
X0338209Y0253280D02*
X0337408Y0253280D01*
X0336608Y0254081D01*
X0336608Y0255682D01*
X0337408Y0256483D01*
X0338209Y0256483D01*
X0339010Y0255682D01*
X0339010Y0254081D01*
X0338209Y0253280D01*
X0339010Y0254081D02*
X0339810Y0253280D01*
X0340611Y0253280D01*
X0341412Y0254081D01*
X0341412Y0255682D01*
X0340611Y0256483D01*
X0339810Y0256483D01*
X0339010Y0255682D01*
X0331412Y0253280D02*
X0330611Y0253280D01*
X0327408Y0256483D01*
X0326608Y0256483D01*
X0326608Y0253280D01*
X0326608Y0249725D02*
X0331412Y0249725D01*
X0331412Y0248124D02*
X0331412Y0251326D01*
X0328209Y0248124D02*
X0326608Y0249725D01*
X0321412Y0249725D02*
X0316608Y0249725D01*
X0318209Y0248124D01*
X0321412Y0248124D02*
X0321412Y0251326D01*
X0320611Y0253280D02*
X0321412Y0254081D01*
X0321412Y0255682D01*
X0320611Y0256483D01*
X0319810Y0256483D01*
X0319010Y0255682D01*
X0319010Y0253280D01*
X0320611Y0253280D01*
X0319010Y0253280D02*
X0317408Y0254881D01*
X0316608Y0256483D01*
X0311412Y0255682D02*
X0311412Y0254081D01*
X0310611Y0253280D01*
X0309010Y0253280D02*
X0308209Y0254881D01*
X0308209Y0255682D01*
X0309010Y0256483D01*
X0310611Y0256483D01*
X0311412Y0255682D01*
X0309010Y0253280D02*
X0306608Y0253280D01*
X0306608Y0256483D01*
X0301412Y0255682D02*
X0296608Y0255682D01*
X0299010Y0253280D01*
X0299010Y0256483D01*
X0301412Y0251326D02*
X0301412Y0248124D01*
X0301412Y0249725D02*
X0296608Y0249725D01*
X0298209Y0248124D01*
X0306608Y0249725D02*
X0311412Y0249725D01*
X0311412Y0248124D02*
X0311412Y0251326D01*
X0308209Y0248124D02*
X0306608Y0249725D01*
X0285312Y0260724D02*
X0285312Y0265724D01*
X0282812Y0268224D01*
X0277812Y0268224D01*
X0275312Y0265724D01*
X0272812Y0268224D01*
X0267812Y0268224D01*
X0265312Y0265724D01*
X0262812Y0268224D01*
X0257812Y0268224D01*
X0255312Y0265724D01*
X0252812Y0268224D01*
X0247812Y0268224D01*
X0245312Y0265724D01*
X0242812Y0268224D01*
X0237812Y0268224D01*
X0235312Y0265724D01*
X0232812Y0268224D01*
X0227812Y0268224D01*
X0225312Y0265724D01*
X0222812Y0268224D01*
X0217812Y0268224D01*
X0215312Y0265724D01*
X0212812Y0268224D01*
X0207812Y0268224D01*
X0205312Y0265724D01*
X0205312Y0260724D01*
X0207812Y0258224D01*
X0212812Y0258224D01*
X0215312Y0260724D01*
X0217812Y0258224D01*
X0222812Y0258224D01*
X0225312Y0260724D01*
X0227812Y0258224D01*
X0232812Y0258224D01*
X0235312Y0260724D01*
X0237812Y0258224D01*
X0242812Y0258224D01*
X0245312Y0260724D01*
X0247812Y0258224D01*
X0252812Y0258224D01*
X0255312Y0260724D01*
X0257812Y0258224D01*
X0262812Y0258224D01*
X0265312Y0260724D01*
X0267812Y0258224D01*
X0272812Y0258224D01*
X0275312Y0260724D01*
X0277812Y0258224D01*
X0282812Y0258224D01*
X0285312Y0260724D01*
X0280611Y0254826D02*
X0277408Y0254826D01*
X0280611Y0251624D01*
X0281412Y0252424D01*
X0281412Y0254026D01*
X0280611Y0254826D01*
X0280611Y0251624D02*
X0277408Y0251624D01*
X0276608Y0252424D01*
X0276608Y0254026D01*
X0277408Y0254826D01*
X0271412Y0254826D02*
X0271412Y0251624D01*
X0271412Y0253225D02*
X0266608Y0253225D01*
X0268209Y0251624D01*
X0269812Y0248224D02*
X0271812Y0246224D01*
X0269812Y0248224D02*
X0269812Y0243224D01*
X0267812Y0246224D02*
X0269812Y0248224D01*
X0277812Y0245224D02*
X0279812Y0243224D01*
X0281812Y0245224D01*
X0279812Y0243224D02*
X0279812Y0248224D01*
X0261412Y0251624D02*
X0258209Y0254826D01*
X0257408Y0254826D01*
X0256608Y0254026D01*
X0256608Y0252424D01*
X0257408Y0251624D01*
X0261412Y0251624D02*
X0261412Y0254826D01*
X0251412Y0254026D02*
X0251412Y0252424D01*
X0250611Y0251624D01*
X0249010Y0253225D02*
X0249010Y0254026D01*
X0249810Y0254826D01*
X0250611Y0254826D01*
X0251412Y0254026D01*
X0249010Y0254026D02*
X0248209Y0254826D01*
X0247408Y0254826D01*
X0246608Y0254026D01*
X0246608Y0252424D01*
X0247408Y0251624D01*
X0241412Y0254026D02*
X0236608Y0254026D01*
X0239010Y0251624D01*
X0239010Y0254826D01*
X0231412Y0254026D02*
X0231412Y0252424D01*
X0230611Y0251624D01*
X0229010Y0251624D02*
X0228209Y0253225D01*
X0228209Y0254026D01*
X0229010Y0254826D01*
X0230611Y0254826D01*
X0231412Y0254026D01*
X0229010Y0251624D02*
X0226608Y0251624D01*
X0226608Y0254826D01*
X0221412Y0254026D02*
X0220611Y0254826D01*
X0219810Y0254826D01*
X0219010Y0254026D01*
X0219010Y0251624D01*
X0220611Y0251624D01*
X0221412Y0252424D01*
X0221412Y0254026D01*
X0219010Y0251624D02*
X0217408Y0253225D01*
X0216608Y0254826D01*
X0211412Y0251624D02*
X0210611Y0251624D01*
X0207408Y0254826D01*
X0206608Y0254826D01*
X0206608Y0251624D01*
X0196412Y0252424D02*
X0195611Y0251624D01*
X0194810Y0251624D01*
X0194010Y0252424D01*
X0194010Y0254026D01*
X0194810Y0254826D01*
X0195611Y0254826D01*
X0196412Y0254026D01*
X0196412Y0252424D01*
X0194010Y0252424D02*
X0193209Y0251624D01*
X0192408Y0251624D01*
X0191608Y0252424D01*
X0191608Y0254026D01*
X0192408Y0254826D01*
X0193209Y0254826D01*
X0194010Y0254026D01*
X0191812Y0258224D02*
X0196812Y0258224D01*
X0199312Y0260724D01*
X0199312Y0265724D01*
X0196812Y0268224D01*
X0191812Y0268224D01*
X0189312Y0265724D01*
X0186812Y0268224D01*
X0181812Y0268224D01*
X0179312Y0265724D01*
X0176812Y0268224D01*
X0171812Y0268224D01*
X0169312Y0265724D01*
X0166812Y0268224D01*
X0161812Y0268224D01*
X0159312Y0265724D01*
X0156812Y0268224D01*
X0151812Y0268224D01*
X0149312Y0265724D01*
X0146812Y0268224D01*
X0141812Y0268224D01*
X0139312Y0265724D01*
X0136812Y0268224D01*
X0131812Y0268224D01*
X0129312Y0265724D01*
X0126812Y0268224D01*
X0121812Y0268224D01*
X0119312Y0265724D01*
X0119312Y0260724D01*
X0121812Y0258224D01*
X0126812Y0258224D01*
X0129312Y0260724D01*
X0131812Y0258224D01*
X0136812Y0258224D01*
X0139312Y0260724D01*
X0141812Y0258224D01*
X0146812Y0258224D01*
X0149312Y0260724D01*
X0151812Y0258224D01*
X0156812Y0258224D01*
X0159312Y0260724D01*
X0161812Y0258224D01*
X0166812Y0258224D01*
X0169312Y0260724D01*
X0171812Y0258224D01*
X0176812Y0258224D01*
X0179312Y0260724D01*
X0181812Y0258224D01*
X0186812Y0258224D01*
X0189312Y0260724D01*
X0191812Y0258224D01*
X0186412Y0254026D02*
X0185611Y0254826D01*
X0182408Y0254826D01*
X0181608Y0254026D01*
X0181608Y0252424D01*
X0182408Y0251624D01*
X0183209Y0251624D01*
X0184010Y0252424D01*
X0184010Y0254826D01*
X0186412Y0254026D02*
X0186412Y0252424D01*
X0185611Y0251624D01*
X0176412Y0252581D02*
X0175611Y0251780D01*
X0172408Y0254983D01*
X0175611Y0254983D01*
X0176412Y0254182D01*
X0176412Y0252581D01*
X0175611Y0251780D02*
X0172408Y0251780D01*
X0171608Y0252581D01*
X0171608Y0254182D01*
X0172408Y0254983D01*
X0166412Y0254983D02*
X0166412Y0251780D01*
X0166412Y0253381D02*
X0161608Y0253381D01*
X0163209Y0251780D01*
X0166412Y0249826D02*
X0166412Y0246624D01*
X0166412Y0248225D02*
X0161608Y0248225D01*
X0163209Y0246624D01*
X0156412Y0246624D02*
X0156412Y0249826D01*
X0156412Y0248225D02*
X0151608Y0248225D01*
X0153209Y0246624D01*
X0146412Y0246624D02*
X0146412Y0249826D01*
X0146412Y0248225D02*
X0141608Y0248225D01*
X0143209Y0246624D01*
X0136512Y0246311D02*
X0131708Y0246311D01*
X0136512Y0249514D01*
X0131708Y0249514D01*
X0131708Y0251467D02*
X0131708Y0253869D01*
X0132508Y0254670D01*
X0135711Y0254670D01*
X0136512Y0253869D01*
X0136512Y0251467D01*
X0131708Y0251467D01*
X0127012Y0251467D02*
X0122208Y0251467D01*
X0122208Y0254670D01*
X0124610Y0253069D02*
X0124610Y0251467D01*
X0127012Y0249514D02*
X0127012Y0246311D01*
X0122208Y0246311D01*
X0122208Y0249514D01*
X0124610Y0247912D02*
X0124610Y0246311D01*
X0124610Y0244357D02*
X0125410Y0243556D01*
X0125410Y0241154D01*
X0127012Y0241154D02*
X0122208Y0241154D01*
X0122208Y0243556D01*
X0123008Y0244357D01*
X0124610Y0244357D01*
X0125410Y0242756D02*
X0127012Y0244357D01*
X0131708Y0243556D02*
X0131708Y0241955D01*
X0132508Y0241154D01*
X0135711Y0241154D01*
X0136512Y0241955D01*
X0136512Y0243556D01*
X0135711Y0244357D01*
X0134110Y0244357D01*
X0134110Y0242756D01*
X0132508Y0244357D02*
X0131708Y0243556D01*
X0127012Y0239201D02*
X0123809Y0239201D01*
X0122208Y0237599D01*
X0123809Y0235998D01*
X0127012Y0235998D01*
X0124610Y0235998D02*
X0124610Y0239201D01*
X0141608Y0252581D02*
X0141608Y0254182D01*
X0142408Y0254983D01*
X0143209Y0254983D01*
X0144010Y0254182D01*
X0144810Y0254983D01*
X0145611Y0254983D01*
X0146412Y0254182D01*
X0146412Y0252581D01*
X0145611Y0251780D01*
X0144010Y0253381D02*
X0144010Y0254182D01*
X0141608Y0252581D02*
X0142408Y0251780D01*
X0151608Y0252581D02*
X0152408Y0251780D01*
X0151608Y0252581D02*
X0151608Y0254182D01*
X0152408Y0254983D01*
X0153209Y0254983D01*
X0156412Y0251780D01*
X0156412Y0254983D01*
X0171608Y0248225D02*
X0173209Y0246624D01*
X0171608Y0248225D02*
X0176412Y0248225D01*
X0176412Y0246624D02*
X0176412Y0249826D01*
X0386214Y0155428D02*
X0386214Y0150624D01*
X0302912Y0086880D02*
X0302111Y0086880D01*
X0298908Y0090083D01*
X0298108Y0090083D01*
X0298108Y0086880D01*
X0299709Y0084926D02*
X0302912Y0084926D01*
X0300510Y0084926D02*
X0300510Y0081724D01*
X0299709Y0081724D02*
X0298108Y0083325D01*
X0299709Y0084926D01*
X0299709Y0081724D02*
X0302912Y0081724D01*
X0302812Y0078224D02*
X0297812Y0078224D01*
X0295312Y0075724D01*
X0292812Y0078224D01*
X0287812Y0078224D01*
X0285312Y0075724D01*
X0282812Y0078224D01*
X0277812Y0078224D01*
X0275312Y0075724D01*
X0272812Y0078224D01*
X0267812Y0078224D01*
X0265312Y0075724D01*
X0262812Y0078224D01*
X0257812Y0078224D01*
X0255312Y0075724D01*
X0252812Y0078224D01*
X0247812Y0078224D01*
X0245312Y0075724D01*
X0242812Y0078224D01*
X0237812Y0078224D01*
X0235312Y0075724D01*
X0232812Y0078224D01*
X0227812Y0078224D01*
X0225312Y0075724D01*
X0225312Y0070724D01*
X0227812Y0068224D01*
X0232812Y0068224D01*
X0235312Y0070724D01*
X0237812Y0068224D01*
X0242812Y0068224D01*
X0245312Y0070724D01*
X0247812Y0068224D01*
X0252812Y0068224D01*
X0255312Y0070724D01*
X0257812Y0068224D01*
X0262812Y0068224D01*
X0265312Y0070724D01*
X0267812Y0068224D01*
X0272812Y0068224D01*
X0275312Y0070724D01*
X0277812Y0068224D01*
X0282812Y0068224D01*
X0285312Y0070724D01*
X0287812Y0068224D01*
X0292812Y0068224D01*
X0295312Y0070724D01*
X0297812Y0068224D01*
X0302812Y0068224D01*
X0305312Y0070724D01*
X0305312Y0075724D01*
X0302812Y0078224D01*
X0292412Y0082524D02*
X0292412Y0084126D01*
X0291611Y0084926D01*
X0290810Y0084926D01*
X0290010Y0084126D01*
X0290010Y0081724D01*
X0291611Y0081724D01*
X0292412Y0082524D01*
X0290010Y0081724D02*
X0288408Y0083325D01*
X0287608Y0084926D01*
X0282412Y0084926D02*
X0279209Y0084926D01*
X0277608Y0083325D01*
X0279209Y0081724D01*
X0282412Y0081724D01*
X0280010Y0081724D02*
X0280010Y0084926D01*
X0280010Y0086880D02*
X0279209Y0088481D01*
X0279209Y0089282D01*
X0280010Y0090083D01*
X0281611Y0090083D01*
X0282412Y0089282D01*
X0282412Y0087681D01*
X0281611Y0086880D01*
X0280010Y0086880D02*
X0277608Y0086880D01*
X0277608Y0090083D01*
X0272912Y0089282D02*
X0268108Y0089282D01*
X0270510Y0086880D01*
X0270510Y0090083D01*
X0270510Y0084926D02*
X0270510Y0081724D01*
X0269709Y0081724D02*
X0272912Y0081724D01*
X0272912Y0084926D02*
X0269709Y0084926D01*
X0268108Y0083325D01*
X0269709Y0081724D01*
X0262912Y0081724D02*
X0259709Y0081724D01*
X0258108Y0083325D01*
X0259709Y0084926D01*
X0262912Y0084926D01*
X0262111Y0086880D02*
X0262912Y0087681D01*
X0262912Y0089282D01*
X0262111Y0090083D01*
X0261310Y0090083D01*
X0260510Y0089282D01*
X0260510Y0088481D01*
X0260510Y0089282D02*
X0259709Y0090083D01*
X0258908Y0090083D01*
X0258108Y0089282D01*
X0258108Y0087681D01*
X0258908Y0086880D01*
X0260510Y0084926D02*
X0260510Y0081724D01*
X0252912Y0081724D02*
X0249709Y0081724D01*
X0248108Y0083325D01*
X0249709Y0084926D01*
X0252912Y0084926D01*
X0252912Y0086880D02*
X0249709Y0090083D01*
X0248908Y0090083D01*
X0248108Y0089282D01*
X0248108Y0087681D01*
X0248908Y0086880D01*
X0250510Y0084926D02*
X0250510Y0081724D01*
X0252912Y0086880D02*
X0252912Y0090083D01*
X0241912Y0090083D02*
X0241912Y0086880D01*
X0241912Y0088481D02*
X0237108Y0088481D01*
X0238709Y0086880D01*
X0238709Y0084926D02*
X0237108Y0083325D01*
X0238709Y0081724D01*
X0241912Y0081724D01*
X0239510Y0081724D02*
X0239510Y0084926D01*
X0238709Y0084926D02*
X0241912Y0084926D01*
X0232912Y0084926D02*
X0229709Y0084926D01*
X0228108Y0083325D01*
X0229709Y0081724D01*
X0232912Y0081724D01*
X0230510Y0081724D02*
X0230510Y0084926D01*
X0232111Y0086880D02*
X0228908Y0090083D01*
X0232111Y0090083D01*
X0232912Y0089282D01*
X0232912Y0087681D01*
X0232111Y0086880D01*
X0228908Y0086880D01*
X0228108Y0087681D01*
X0228108Y0089282D01*
X0228908Y0090083D01*
X0215312Y0075724D02*
X0215312Y0070724D01*
X0212812Y0068224D01*
X0207812Y0068224D01*
X0205312Y0070724D01*
X0202812Y0068224D01*
X0197812Y0068224D01*
X0195312Y0070724D01*
X0192812Y0068224D01*
X0187812Y0068224D01*
X0185312Y0070724D01*
X0182812Y0068224D01*
X0177812Y0068224D01*
X0175312Y0070724D01*
X0172812Y0068224D01*
X0167812Y0068224D01*
X0165312Y0070724D01*
X0162812Y0068224D01*
X0157812Y0068224D01*
X0155312Y0070724D01*
X0155312Y0075724D01*
X0157812Y0078224D01*
X0162812Y0078224D01*
X0165312Y0075724D01*
X0167812Y0078224D01*
X0172812Y0078224D01*
X0175312Y0075724D01*
X0177812Y0078224D01*
X0182812Y0078224D01*
X0185312Y0075724D01*
X0187812Y0078224D01*
X0192812Y0078224D01*
X0195312Y0075724D01*
X0197812Y0078224D01*
X0202812Y0078224D01*
X0205312Y0075724D01*
X0207812Y0078224D01*
X0212812Y0078224D01*
X0215312Y0075724D01*
D19*
X0213812Y0104824D02*
X0156812Y0104824D01*
X0226812Y0104824D02*
X0369812Y0104824D01*
X0376512Y0098124D01*
X0427212Y0098124D01*
X0427112Y0088224D02*
X0415312Y0088224D01*
X0410312Y0088024D02*
X0410312Y0085024D01*
X0400312Y0085024D01*
X0400312Y0087924D01*
X0369912Y0108224D02*
X0369912Y0218924D01*
X0377912Y0226924D01*
X0377912Y0254724D01*
X0397312Y0271024D02*
X0400312Y0271024D01*
X0410312Y0271024D01*
X0410312Y0268424D01*
X0400312Y0268524D02*
X0400312Y0271024D01*
X0416807Y0294976D02*
X0416807Y0297476D01*
X0416807Y0299976D01*
X0419307Y0299976D02*
X0419307Y0297476D01*
X0419307Y0294976D01*
X0366812Y0219724D02*
X0266312Y0219724D01*
X0264312Y0232724D02*
X0140812Y0232724D01*
D20*
X0145762Y0236174D02*
X0145762Y0241278D01*
X0148314Y0241278D01*
X0149165Y0240427D01*
X0149165Y0238726D01*
X0148314Y0237875D01*
X0145762Y0237875D01*
X0151286Y0236174D02*
X0152988Y0237875D01*
X0154689Y0236174D01*
X0154689Y0241278D01*
X0156811Y0241278D02*
X0158513Y0239577D01*
X0160214Y0241278D01*
X0160214Y0236174D01*
X0156811Y0236174D02*
X0156811Y0241278D01*
X0151286Y0241278D02*
X0151286Y0236174D01*
X0268762Y0226427D02*
X0268762Y0223024D01*
X0269612Y0222174D01*
X0271314Y0222174D01*
X0272165Y0223024D01*
X0274286Y0223024D02*
X0275137Y0222174D01*
X0276839Y0222174D01*
X0277689Y0223024D01*
X0277689Y0226427D01*
X0276839Y0227278D01*
X0275137Y0227278D01*
X0274286Y0226427D01*
X0274286Y0223024D01*
X0272165Y0226427D02*
X0271314Y0227278D01*
X0269612Y0227278D01*
X0268762Y0226427D01*
X0279811Y0227278D02*
X0279811Y0222174D01*
X0283214Y0222174D02*
X0283214Y0227278D01*
X0281513Y0225577D01*
X0279811Y0227278D01*
X0285336Y0227278D02*
X0285336Y0222174D01*
X0288739Y0222174D02*
X0288739Y0227278D01*
X0287037Y0225577D01*
X0285336Y0227278D01*
X0290861Y0227278D02*
X0290861Y0223024D01*
X0291711Y0222174D01*
X0293413Y0222174D01*
X0294263Y0223024D01*
X0294263Y0227278D01*
X0296385Y0227278D02*
X0299788Y0222174D01*
X0299788Y0227278D01*
X0301910Y0227278D02*
X0303611Y0227278D01*
X0302761Y0227278D02*
X0302761Y0222174D01*
X0303611Y0222174D02*
X0301910Y0222174D01*
X0305593Y0223024D02*
X0306444Y0222174D01*
X0308145Y0222174D01*
X0308996Y0223024D01*
X0311118Y0222174D02*
X0311118Y0225577D01*
X0312819Y0227278D01*
X0314521Y0225577D01*
X0314521Y0222174D01*
X0314521Y0224726D02*
X0311118Y0224726D01*
X0308996Y0226427D02*
X0308145Y0227278D01*
X0306444Y0227278D01*
X0305593Y0226427D01*
X0305593Y0223024D01*
X0296385Y0222174D02*
X0296385Y0227278D01*
X0316643Y0227278D02*
X0320045Y0227278D01*
X0318344Y0227278D02*
X0318344Y0222174D01*
X0322167Y0222174D02*
X0323869Y0222174D01*
X0323018Y0222174D02*
X0323018Y0227278D01*
X0322167Y0227278D02*
X0323869Y0227278D01*
X0325850Y0226427D02*
X0325850Y0223024D01*
X0326701Y0222174D01*
X0328403Y0222174D01*
X0329253Y0223024D01*
X0329253Y0226427D01*
X0328403Y0227278D01*
X0326701Y0227278D01*
X0325850Y0226427D01*
X0331375Y0227278D02*
X0334778Y0222174D01*
X0334778Y0227278D01*
X0331375Y0227278D02*
X0331375Y0222174D01*
X0378362Y0142542D02*
X0378362Y0139139D01*
X0373257Y0139139D01*
X0374959Y0137017D02*
X0373257Y0135316D01*
X0374959Y0133614D01*
X0378362Y0133614D01*
X0375809Y0133614D02*
X0375809Y0137017D01*
X0374959Y0137017D02*
X0378362Y0137017D01*
X0378362Y0129791D02*
X0373257Y0129791D01*
X0373257Y0131492D02*
X0373257Y0128089D01*
X0373257Y0126108D02*
X0373257Y0124406D01*
X0373257Y0125257D02*
X0378362Y0125257D01*
X0378362Y0124406D02*
X0378362Y0126108D01*
X0377511Y0122284D02*
X0375809Y0122284D01*
X0375809Y0120583D01*
X0374108Y0122284D02*
X0373257Y0121434D01*
X0373257Y0119732D01*
X0374108Y0118881D01*
X0377511Y0118881D01*
X0378362Y0119732D01*
X0378362Y0121434D01*
X0377511Y0122284D01*
X0378362Y0116900D02*
X0378362Y0115198D01*
X0378362Y0116049D02*
X0373257Y0116049D01*
X0373257Y0115198D02*
X0373257Y0116900D01*
X0374108Y0113077D02*
X0373257Y0112226D01*
X0373257Y0109674D01*
X0378362Y0109674D01*
X0378362Y0112226D01*
X0377511Y0113077D01*
X0374108Y0113077D01*
X0277521Y0100778D02*
X0277521Y0095674D01*
X0274118Y0100778D01*
X0274118Y0095674D01*
X0272136Y0095674D02*
X0270435Y0095674D01*
X0271285Y0095674D02*
X0271285Y0100778D01*
X0270435Y0100778D02*
X0272136Y0100778D01*
X0262788Y0099927D02*
X0261937Y0100778D01*
X0260236Y0100778D01*
X0259385Y0099927D01*
X0259385Y0096524D01*
X0260236Y0095674D01*
X0261937Y0095674D01*
X0262788Y0096524D01*
X0262788Y0098226D01*
X0261087Y0098226D01*
X0257263Y0096524D02*
X0257263Y0099927D01*
X0256413Y0100778D01*
X0254711Y0100778D01*
X0253861Y0099927D01*
X0253861Y0096524D01*
X0254711Y0095674D01*
X0256413Y0095674D01*
X0257263Y0096524D01*
X0251739Y0095674D02*
X0248336Y0095674D01*
X0248336Y0100778D01*
X0246214Y0099077D02*
X0244513Y0100778D01*
X0242811Y0099077D01*
X0242811Y0095674D01*
X0240689Y0095674D02*
X0240689Y0100778D01*
X0242811Y0098226D02*
X0246214Y0098226D01*
X0246214Y0099077D02*
X0246214Y0095674D01*
X0240689Y0095674D02*
X0237286Y0100778D01*
X0237286Y0095674D01*
X0235165Y0095674D02*
X0235165Y0099077D01*
X0233463Y0100778D01*
X0231762Y0099077D01*
X0231762Y0095674D01*
X0231762Y0098226D02*
X0235165Y0098226D01*
X0212263Y0098226D02*
X0211413Y0097375D01*
X0208861Y0097375D01*
X0210562Y0097375D02*
X0212263Y0095674D01*
X0212263Y0098226D02*
X0212263Y0099927D01*
X0211413Y0100778D01*
X0208861Y0100778D01*
X0208861Y0095674D01*
X0206739Y0095674D02*
X0203336Y0095674D01*
X0203336Y0100778D01*
X0206739Y0100778D01*
X0205037Y0098226D02*
X0203336Y0098226D01*
X0201214Y0095674D02*
X0201214Y0100778D01*
X0197811Y0100778D02*
X0197811Y0095674D01*
X0199513Y0097375D01*
X0201214Y0095674D01*
X0195689Y0096524D02*
X0195689Y0099927D01*
X0194839Y0100778D01*
X0193137Y0100778D01*
X0192286Y0099927D01*
X0192286Y0096524D01*
X0193137Y0095674D01*
X0194839Y0095674D01*
X0195689Y0096524D01*
X0190165Y0098226D02*
X0189314Y0097375D01*
X0186762Y0097375D01*
X0186762Y0095674D02*
X0186762Y0100778D01*
X0189314Y0100778D01*
X0190165Y0099927D01*
X0190165Y0098226D01*
D21*
X0237005Y0014011D02*
X0095272Y0014011D01*
X0095272Y0328972D01*
X0237005Y0328972D01*
X0237005Y0014011D01*
X0213383Y0029759D02*
X0118894Y0029759D01*
X0118894Y0313224D01*
X0213383Y0313224D01*
X0213383Y0029759D01*
X0205509Y0037633D02*
X0201572Y0037633D01*
X0201572Y0305350D01*
X0205509Y0305350D01*
X0205509Y0037633D01*
X0181886Y0045507D02*
X0150390Y0045507D01*
X0150105Y0045510D01*
X0149819Y0045521D01*
X0149534Y0045538D01*
X0149250Y0045562D01*
X0148966Y0045593D01*
X0148683Y0045631D01*
X0148402Y0045676D01*
X0148121Y0045727D01*
X0147841Y0045785D01*
X0147563Y0045850D01*
X0147287Y0045922D01*
X0147013Y0046000D01*
X0146740Y0046085D01*
X0146470Y0046177D01*
X0146202Y0046275D01*
X0145936Y0046379D01*
X0145673Y0046490D01*
X0145413Y0046607D01*
X0145155Y0046730D01*
X0144901Y0046860D01*
X0144650Y0046996D01*
X0144402Y0047137D01*
X0144158Y0047285D01*
X0143917Y0047438D01*
X0143681Y0047598D01*
X0143448Y0047763D01*
X0143219Y0047933D01*
X0142994Y0048109D01*
X0142774Y0048291D01*
X0142558Y0048477D01*
X0142347Y0048669D01*
X0142140Y0048866D01*
X0141938Y0049068D01*
X0141741Y0049275D01*
X0141549Y0049486D01*
X0141363Y0049702D01*
X0141181Y0049922D01*
X0141005Y0050147D01*
X0140835Y0050376D01*
X0140670Y0050609D01*
X0140510Y0050845D01*
X0140357Y0051086D01*
X0140209Y0051330D01*
X0140068Y0051578D01*
X0139932Y0051829D01*
X0139802Y0052083D01*
X0139679Y0052341D01*
X0139562Y0052601D01*
X0139451Y0052864D01*
X0139347Y0053130D01*
X0139249Y0053398D01*
X0139157Y0053668D01*
X0139072Y0053941D01*
X0138994Y0054215D01*
X0138922Y0054491D01*
X0138857Y0054769D01*
X0138799Y0055049D01*
X0138748Y0055330D01*
X0138703Y0055611D01*
X0138665Y0055894D01*
X0138634Y0056178D01*
X0138610Y0056462D01*
X0138593Y0056747D01*
X0138582Y0057033D01*
X0138579Y0057318D01*
X0138579Y0285665D01*
X0138582Y0285950D01*
X0138593Y0286236D01*
X0138610Y0286521D01*
X0138634Y0286805D01*
X0138665Y0287089D01*
X0138703Y0287372D01*
X0138748Y0287653D01*
X0138799Y0287934D01*
X0138857Y0288214D01*
X0138922Y0288492D01*
X0138994Y0288768D01*
X0139072Y0289042D01*
X0139157Y0289315D01*
X0139249Y0289585D01*
X0139347Y0289853D01*
X0139451Y0290119D01*
X0139562Y0290382D01*
X0139679Y0290642D01*
X0139802Y0290900D01*
X0139932Y0291154D01*
X0140068Y0291405D01*
X0140209Y0291653D01*
X0140357Y0291897D01*
X0140510Y0292138D01*
X0140670Y0292374D01*
X0140835Y0292607D01*
X0141005Y0292836D01*
X0141181Y0293061D01*
X0141363Y0293281D01*
X0141549Y0293497D01*
X0141741Y0293708D01*
X0141938Y0293915D01*
X0142140Y0294117D01*
X0142347Y0294314D01*
X0142558Y0294506D01*
X0142774Y0294692D01*
X0142994Y0294874D01*
X0143219Y0295050D01*
X0143448Y0295220D01*
X0143681Y0295385D01*
X0143917Y0295545D01*
X0144158Y0295698D01*
X0144402Y0295846D01*
X0144650Y0295987D01*
X0144901Y0296123D01*
X0145155Y0296253D01*
X0145413Y0296376D01*
X0145673Y0296493D01*
X0145936Y0296604D01*
X0146202Y0296708D01*
X0146470Y0296806D01*
X0146740Y0296898D01*
X0147013Y0296983D01*
X0147287Y0297061D01*
X0147563Y0297133D01*
X0147841Y0297198D01*
X0148121Y0297256D01*
X0148402Y0297307D01*
X0148683Y0297352D01*
X0148966Y0297390D01*
X0149250Y0297421D01*
X0149534Y0297445D01*
X0149819Y0297462D01*
X0150105Y0297473D01*
X0150390Y0297476D01*
X0181886Y0297476D01*
X0182171Y0297473D01*
X0182457Y0297462D01*
X0182742Y0297445D01*
X0183026Y0297421D01*
X0183310Y0297390D01*
X0183593Y0297352D01*
X0183874Y0297307D01*
X0184155Y0297256D01*
X0184435Y0297198D01*
X0184713Y0297133D01*
X0184989Y0297061D01*
X0185263Y0296983D01*
X0185536Y0296898D01*
X0185806Y0296806D01*
X0186074Y0296708D01*
X0186340Y0296604D01*
X0186603Y0296493D01*
X0186863Y0296376D01*
X0187121Y0296253D01*
X0187375Y0296123D01*
X0187626Y0295987D01*
X0187874Y0295846D01*
X0188118Y0295698D01*
X0188359Y0295545D01*
X0188595Y0295385D01*
X0188828Y0295220D01*
X0189057Y0295050D01*
X0189282Y0294874D01*
X0189502Y0294692D01*
X0189718Y0294506D01*
X0189929Y0294314D01*
X0190136Y0294117D01*
X0190338Y0293915D01*
X0190535Y0293708D01*
X0190727Y0293497D01*
X0190913Y0293281D01*
X0191095Y0293061D01*
X0191271Y0292836D01*
X0191441Y0292607D01*
X0191606Y0292374D01*
X0191766Y0292138D01*
X0191919Y0291897D01*
X0192067Y0291653D01*
X0192208Y0291405D01*
X0192344Y0291154D01*
X0192474Y0290900D01*
X0192597Y0290642D01*
X0192714Y0290382D01*
X0192825Y0290119D01*
X0192929Y0289853D01*
X0193027Y0289585D01*
X0193119Y0289315D01*
X0193204Y0289042D01*
X0193282Y0288768D01*
X0193354Y0288492D01*
X0193419Y0288214D01*
X0193477Y0287934D01*
X0193528Y0287653D01*
X0193573Y0287372D01*
X0193611Y0287089D01*
X0193642Y0286805D01*
X0193666Y0286521D01*
X0193683Y0286236D01*
X0193694Y0285950D01*
X0193697Y0285665D01*
X0193698Y0285665D02*
X0193698Y0057318D01*
X0193697Y0057318D02*
X0193694Y0057033D01*
X0193683Y0056747D01*
X0193666Y0056462D01*
X0193642Y0056178D01*
X0193611Y0055894D01*
X0193573Y0055611D01*
X0193528Y0055330D01*
X0193477Y0055049D01*
X0193419Y0054769D01*
X0193354Y0054491D01*
X0193282Y0054215D01*
X0193204Y0053941D01*
X0193119Y0053668D01*
X0193027Y0053398D01*
X0192929Y0053130D01*
X0192825Y0052864D01*
X0192714Y0052601D01*
X0192597Y0052341D01*
X0192474Y0052083D01*
X0192344Y0051829D01*
X0192208Y0051578D01*
X0192067Y0051330D01*
X0191919Y0051086D01*
X0191766Y0050845D01*
X0191606Y0050609D01*
X0191441Y0050376D01*
X0191271Y0050147D01*
X0191095Y0049922D01*
X0190913Y0049702D01*
X0190727Y0049486D01*
X0190535Y0049275D01*
X0190338Y0049068D01*
X0190136Y0048866D01*
X0189929Y0048669D01*
X0189718Y0048477D01*
X0189502Y0048291D01*
X0189282Y0048109D01*
X0189057Y0047933D01*
X0188828Y0047763D01*
X0188595Y0047598D01*
X0188359Y0047438D01*
X0188118Y0047285D01*
X0187874Y0047137D01*
X0187626Y0046996D01*
X0187375Y0046860D01*
X0187121Y0046730D01*
X0186863Y0046607D01*
X0186603Y0046490D01*
X0186340Y0046379D01*
X0186074Y0046275D01*
X0185806Y0046177D01*
X0185536Y0046085D01*
X0185263Y0046000D01*
X0184989Y0045922D01*
X0184713Y0045850D01*
X0184435Y0045785D01*
X0184155Y0045727D01*
X0183874Y0045676D01*
X0183593Y0045631D01*
X0183310Y0045593D01*
X0183026Y0045562D01*
X0182742Y0045538D01*
X0182457Y0045521D01*
X0182171Y0045510D01*
X0181886Y0045507D01*
X0130705Y0037633D02*
X0126768Y0037633D01*
X0126768Y0305350D01*
X0130705Y0305350D01*
X0130705Y0037633D01*
D22*
X0055902Y0139088D03*
X0055902Y0160588D03*
X0053934Y0186332D03*
X0053934Y0207832D03*
X0055902Y0233576D03*
X0055902Y0255076D03*
X0329524Y0140903D03*
X0351178Y0140903D03*
X0351178Y0119403D03*
X0329524Y0119403D03*
X0439760Y0111375D03*
X0439760Y0089875D03*
X0447635Y0066100D03*
X0447635Y0044600D03*
X0487005Y0206017D03*
X0487005Y0227517D03*
D23*
X0464383Y0227641D02*
X0464383Y0224641D01*
X0464383Y0221641D01*
X0462383Y0221641D02*
X0462383Y0224641D01*
X0462383Y0227641D01*
X0088383Y0124838D02*
X0088383Y0088224D01*
X0070666Y0088224D01*
X0070666Y0124838D01*
X0088383Y0124838D01*
D24*
X0253454Y0284280D02*
X0254412Y0283792D01*
X0255396Y0283358D01*
X0256401Y0282978D01*
X0257426Y0282653D01*
X0258467Y0282385D01*
X0259521Y0282173D01*
X0260584Y0282020D01*
X0261655Y0281925D01*
X0262546Y0281894D01*
X0262547Y0281890D01*
X0262549Y0281883D01*
X0262549Y0300585D01*
X0263252Y0300567D01*
X0264291Y0300472D01*
X0265321Y0300312D01*
X0266340Y0300088D01*
X0267341Y0299797D01*
X0268320Y0299437D01*
X0269269Y0299005D01*
X0270176Y0298491D01*
X0271024Y0297884D01*
X0271781Y0297169D01*
X0272397Y0296329D01*
X0272791Y0295366D01*
X0272317Y0294442D01*
X0271748Y0293574D01*
X0271092Y0292769D01*
X0270356Y0292037D01*
X0269596Y0291429D01*
X0268779Y0290900D01*
X0267914Y0290456D01*
X0267009Y0290098D01*
X0266075Y0289827D01*
X0265120Y0289642D01*
X0264152Y0289545D01*
X0264154Y0288667D01*
X0264158Y0287790D01*
X0264165Y0286912D01*
X0264173Y0286035D01*
X0265256Y0286179D01*
X0266328Y0286395D01*
X0267382Y0286684D01*
X0268413Y0287044D01*
X0269418Y0287475D01*
X0270389Y0287976D01*
X0271323Y0288544D01*
X0272214Y0289175D01*
X0273060Y0289868D01*
X0273855Y0290617D01*
X0274597Y0291420D01*
X0275280Y0292272D01*
X0275903Y0293170D01*
X0276462Y0294109D01*
X0276953Y0295085D01*
X0277375Y0296094D01*
X0277723Y0297130D01*
X0277995Y0298188D01*
X0278189Y0299264D01*
X0278298Y0300328D01*
X0278326Y0301397D01*
X0278272Y0302465D01*
X0278140Y0303526D01*
X0277931Y0304574D01*
X0277650Y0305606D01*
X0277298Y0306616D01*
X0276880Y0307599D01*
X0276397Y0308554D01*
X0275853Y0309475D01*
X0275252Y0310359D01*
X0274597Y0311204D01*
X0273888Y0312005D01*
X0273129Y0312759D01*
X0272325Y0313463D01*
X0271476Y0314113D01*
X0270586Y0314706D01*
X0269658Y0315237D01*
X0268696Y0315705D01*
X0267703Y0316104D01*
X0266686Y0316431D01*
X0265648Y0316685D01*
X0264593Y0316862D01*
X0263528Y0316963D01*
X0262547Y0316982D01*
X0262547Y0320935D01*
X0263357Y0320926D01*
X0264444Y0320851D01*
X0265524Y0320714D01*
X0266596Y0320517D01*
X0267654Y0320259D01*
X0268696Y0319941D01*
X0269719Y0319566D01*
X0270718Y0319135D01*
X0271693Y0318649D01*
X0272639Y0318110D01*
X0273554Y0317519D01*
X0274436Y0316880D01*
X0275281Y0316193D01*
X0276088Y0315461D01*
X0276854Y0314686D01*
X0277576Y0313870D01*
X0278253Y0313017D01*
X0278881Y0312128D01*
X0279460Y0311205D01*
X0279986Y0310251D01*
X0280458Y0309270D01*
X0280873Y0308264D01*
X0281232Y0307235D01*
X0281532Y0306188D01*
X0281771Y0305125D01*
X0281949Y0304051D01*
X0282066Y0302968D01*
X0282121Y0301880D01*
X0282117Y0300813D01*
X0282053Y0299747D01*
X0281931Y0298686D01*
X0281749Y0297635D01*
X0281509Y0296594D01*
X0281212Y0295569D01*
X0280858Y0294561D01*
X0280450Y0293575D01*
X0279988Y0292612D01*
X0279476Y0291677D01*
X0278912Y0290769D01*
X0278302Y0289894D01*
X0277645Y0289053D01*
X0276943Y0288248D01*
X0276200Y0287482D01*
X0275417Y0286757D01*
X0274595Y0286074D01*
X0273739Y0285437D01*
X0272849Y0284846D01*
X0271929Y0284305D01*
X0270981Y0283814D01*
X0270007Y0283377D01*
X0269011Y0282993D01*
X0267996Y0282665D01*
X0266963Y0282392D01*
X0265917Y0282177D01*
X0264860Y0282021D01*
X0263798Y0281923D01*
X0262731Y0281883D01*
X0262547Y0281890D01*
X0262547Y0300591D01*
X0262207Y0300600D01*
X0261138Y0300516D01*
X0260080Y0300341D01*
X0259040Y0300077D01*
X0258026Y0299727D01*
X0257043Y0299299D01*
X0256093Y0298799D01*
X0255183Y0298232D01*
X0254313Y0297605D01*
X0253485Y0296923D01*
X0252703Y0296189D01*
X0251969Y0295406D01*
X0252457Y0294470D01*
X0253039Y0293590D01*
X0253709Y0292776D01*
X0254461Y0292036D01*
X0255288Y0291380D01*
X0256099Y0290859D01*
X0256958Y0290419D01*
X0257854Y0290065D01*
X0258781Y0289798D01*
X0259729Y0289621D01*
X0260689Y0289534D01*
X0260691Y0288664D01*
X0260695Y0287793D01*
X0260698Y0286923D01*
X0260699Y0286053D01*
X0259645Y0286203D01*
X0258603Y0286423D01*
X0257579Y0286713D01*
X0256578Y0287074D01*
X0255606Y0287506D01*
X0254667Y0288008D01*
X0253767Y0288577D01*
X0252911Y0289208D01*
X0252103Y0289901D01*
X0251346Y0290649D01*
X0250643Y0291448D01*
X0249998Y0292295D01*
X0249413Y0293183D01*
X0248889Y0294109D01*
X0248429Y0295069D01*
X0248033Y0296056D01*
X0247704Y0297069D01*
X0247444Y0298101D01*
X0247254Y0299148D01*
X0247136Y0300240D01*
X0247104Y0301338D01*
X0247157Y0302434D01*
X0247291Y0303525D01*
X0247506Y0304602D01*
X0247797Y0305661D01*
X0248161Y0306697D01*
X0248595Y0307706D01*
X0249096Y0308684D01*
X0249660Y0309626D01*
X0250285Y0310529D01*
X0250967Y0311390D01*
X0251705Y0312204D01*
X0252494Y0312968D01*
X0253333Y0313676D01*
X0254217Y0314327D01*
X0255144Y0314915D01*
X0256110Y0315438D01*
X0257111Y0315890D01*
X0258142Y0316268D01*
X0259198Y0316569D01*
X0260274Y0316791D01*
X0261363Y0316931D01*
X0262460Y0316988D01*
X0262548Y0316986D01*
X0262548Y0320939D01*
X0262269Y0320942D01*
X0261205Y0320894D01*
X0260145Y0320787D01*
X0259092Y0320621D01*
X0258050Y0320397D01*
X0257023Y0320116D01*
X0256012Y0319779D01*
X0255022Y0319387D01*
X0254054Y0318940D01*
X0253113Y0318442D01*
X0252199Y0317894D01*
X0251316Y0317298D01*
X0250466Y0316655D01*
X0249652Y0315968D01*
X0248876Y0315238D01*
X0248140Y0314469D01*
X0247445Y0313661D01*
X0246795Y0312818D01*
X0246191Y0311940D01*
X0245635Y0311032D01*
X0245129Y0310094D01*
X0244675Y0309130D01*
X0244275Y0308143D01*
X0243930Y0307135D01*
X0243641Y0306110D01*
X0243410Y0305070D01*
X0247635Y0305070D01*
X0247581Y0304875D02*
X0243377Y0304875D01*
X0243410Y0305070D02*
X0243237Y0304019D01*
X0243123Y0302959D01*
X0243069Y0301895D01*
X0243076Y0300821D01*
X0243143Y0299748D01*
X0243271Y0298681D01*
X0243459Y0297623D01*
X0243707Y0296577D01*
X0244014Y0295546D01*
X0244377Y0294534D01*
X0244796Y0293544D01*
X0245269Y0292578D01*
X0245794Y0291640D01*
X0246368Y0290732D01*
X0246991Y0289855D01*
X0247660Y0289014D01*
X0248374Y0288210D01*
X0249129Y0287445D01*
X0249923Y0286720D01*
X0250756Y0286040D01*
X0251623Y0285405D01*
X0252524Y0284818D01*
X0253454Y0284280D01*
X0253312Y0284362D02*
X0262547Y0284362D01*
X0262549Y0284362D02*
X0272025Y0284362D01*
X0272358Y0284557D02*
X0262549Y0284557D01*
X0262547Y0284557D02*
X0252974Y0284557D01*
X0252636Y0284753D02*
X0262547Y0284753D01*
X0262549Y0284753D02*
X0272690Y0284753D01*
X0273002Y0284948D02*
X0262549Y0284948D01*
X0262547Y0284948D02*
X0252324Y0284948D01*
X0252025Y0285143D02*
X0262547Y0285143D01*
X0262549Y0285143D02*
X0273296Y0285143D01*
X0273591Y0285339D02*
X0262549Y0285339D01*
X0262547Y0285339D02*
X0251725Y0285339D01*
X0251447Y0285534D02*
X0262547Y0285534D01*
X0262549Y0285534D02*
X0273869Y0285534D01*
X0274132Y0285729D02*
X0262549Y0285729D01*
X0262547Y0285729D02*
X0251180Y0285729D01*
X0250913Y0285925D02*
X0262547Y0285925D01*
X0262549Y0285925D02*
X0274394Y0285925D01*
X0274651Y0286120D02*
X0264814Y0286120D01*
X0264172Y0286120D02*
X0262549Y0286120D01*
X0262547Y0286120D02*
X0260699Y0286120D01*
X0260699Y0286315D02*
X0262547Y0286315D01*
X0262549Y0286315D02*
X0264170Y0286315D01*
X0264168Y0286511D02*
X0262549Y0286511D01*
X0262547Y0286511D02*
X0260698Y0286511D01*
X0260698Y0286706D02*
X0262547Y0286706D01*
X0262549Y0286706D02*
X0264167Y0286706D01*
X0264165Y0286902D02*
X0262549Y0286902D01*
X0262547Y0286902D02*
X0260698Y0286902D01*
X0260697Y0287097D02*
X0262547Y0287097D01*
X0262549Y0287097D02*
X0264164Y0287097D01*
X0264162Y0287292D02*
X0262549Y0287292D01*
X0262547Y0287292D02*
X0260697Y0287292D01*
X0260696Y0287488D02*
X0262547Y0287488D01*
X0262549Y0287488D02*
X0264161Y0287488D01*
X0264159Y0287683D02*
X0262549Y0287683D01*
X0262547Y0287683D02*
X0260695Y0287683D01*
X0260694Y0287878D02*
X0262547Y0287878D01*
X0262549Y0287878D02*
X0264158Y0287878D01*
X0264157Y0288074D02*
X0262549Y0288074D01*
X0262547Y0288074D02*
X0260694Y0288074D01*
X0260693Y0288269D02*
X0262547Y0288269D01*
X0262549Y0288269D02*
X0264156Y0288269D01*
X0264155Y0288464D02*
X0262549Y0288464D01*
X0262547Y0288464D02*
X0260692Y0288464D01*
X0260691Y0288660D02*
X0262547Y0288660D01*
X0262549Y0288660D02*
X0264154Y0288660D01*
X0264153Y0288855D02*
X0262549Y0288855D01*
X0262547Y0288855D02*
X0260691Y0288855D01*
X0260690Y0289051D02*
X0262547Y0289051D01*
X0262549Y0289051D02*
X0264153Y0289051D01*
X0264152Y0289246D02*
X0262549Y0289246D01*
X0262547Y0289246D02*
X0260690Y0289246D01*
X0260689Y0289441D02*
X0262547Y0289441D01*
X0262549Y0289441D02*
X0264152Y0289441D01*
X0265070Y0289637D02*
X0262549Y0289637D01*
X0262547Y0289637D02*
X0259644Y0289637D01*
X0258663Y0289832D02*
X0262547Y0289832D01*
X0262549Y0289832D02*
X0266093Y0289832D01*
X0266766Y0290027D02*
X0262549Y0290027D01*
X0262547Y0290027D02*
X0257984Y0290027D01*
X0257454Y0290223D02*
X0262547Y0290223D01*
X0262549Y0290223D02*
X0267324Y0290223D01*
X0267818Y0290418D02*
X0262549Y0290418D01*
X0262547Y0290418D02*
X0256959Y0290418D01*
X0256578Y0290613D02*
X0262547Y0290613D01*
X0262549Y0290613D02*
X0268220Y0290613D01*
X0268601Y0290809D02*
X0262549Y0290809D01*
X0262547Y0290809D02*
X0256196Y0290809D01*
X0255872Y0291004D02*
X0262547Y0291004D01*
X0262549Y0291004D02*
X0268940Y0291004D01*
X0269242Y0291200D02*
X0262549Y0291200D01*
X0262547Y0291200D02*
X0255568Y0291200D01*
X0255269Y0291395D02*
X0262547Y0291395D01*
X0262549Y0291395D02*
X0269544Y0291395D01*
X0269798Y0291590D02*
X0262549Y0291590D01*
X0262547Y0291590D02*
X0255023Y0291590D01*
X0254776Y0291786D02*
X0262547Y0291786D01*
X0262549Y0291786D02*
X0270042Y0291786D01*
X0270286Y0291981D02*
X0262549Y0291981D01*
X0262547Y0291981D02*
X0254530Y0291981D01*
X0254318Y0292176D02*
X0262547Y0292176D01*
X0262549Y0292176D02*
X0270496Y0292176D01*
X0270692Y0292372D02*
X0262549Y0292372D01*
X0262547Y0292372D02*
X0254120Y0292372D01*
X0253921Y0292567D02*
X0262547Y0292567D01*
X0262549Y0292567D02*
X0270889Y0292567D01*
X0271086Y0292762D02*
X0262549Y0292762D01*
X0262547Y0292762D02*
X0253722Y0292762D01*
X0253559Y0292958D02*
X0262547Y0292958D01*
X0262549Y0292958D02*
X0271246Y0292958D01*
X0271405Y0293153D02*
X0262549Y0293153D01*
X0262547Y0293153D02*
X0253398Y0293153D01*
X0253238Y0293348D02*
X0262547Y0293348D01*
X0262549Y0293348D02*
X0271564Y0293348D01*
X0271724Y0293544D02*
X0262549Y0293544D01*
X0262547Y0293544D02*
X0253077Y0293544D01*
X0252940Y0293739D02*
X0262547Y0293739D01*
X0262549Y0293739D02*
X0271856Y0293739D01*
X0271984Y0293935D02*
X0262549Y0293935D01*
X0262547Y0293935D02*
X0252811Y0293935D01*
X0252682Y0294130D02*
X0262547Y0294130D01*
X0262549Y0294130D02*
X0272112Y0294130D01*
X0272240Y0294325D02*
X0262549Y0294325D01*
X0262547Y0294325D02*
X0252552Y0294325D01*
X0252430Y0294521D02*
X0262547Y0294521D01*
X0262549Y0294521D02*
X0272357Y0294521D01*
X0272457Y0294716D02*
X0262549Y0294716D01*
X0262547Y0294716D02*
X0252329Y0294716D01*
X0252227Y0294911D02*
X0262547Y0294911D01*
X0262549Y0294911D02*
X0272558Y0294911D01*
X0272658Y0295107D02*
X0262549Y0295107D01*
X0262547Y0295107D02*
X0252125Y0295107D01*
X0252023Y0295302D02*
X0262547Y0295302D01*
X0262549Y0295302D02*
X0272758Y0295302D01*
X0272737Y0295497D02*
X0262549Y0295497D01*
X0262547Y0295497D02*
X0252055Y0295497D01*
X0252238Y0295693D02*
X0262547Y0295693D01*
X0262549Y0295693D02*
X0272657Y0295693D01*
X0272577Y0295888D02*
X0262549Y0295888D01*
X0262547Y0295888D02*
X0252421Y0295888D01*
X0252604Y0296084D02*
X0262547Y0296084D01*
X0262549Y0296084D02*
X0272498Y0296084D01*
X0272418Y0296279D02*
X0262549Y0296279D01*
X0262547Y0296279D02*
X0252799Y0296279D01*
X0253007Y0296474D02*
X0262547Y0296474D01*
X0262549Y0296474D02*
X0272290Y0296474D01*
X0272147Y0296670D02*
X0262549Y0296670D01*
X0262547Y0296670D02*
X0253215Y0296670D01*
X0253424Y0296865D02*
X0262547Y0296865D01*
X0262549Y0296865D02*
X0272004Y0296865D01*
X0271860Y0297060D02*
X0262549Y0297060D01*
X0262547Y0297060D02*
X0253652Y0297060D01*
X0253889Y0297256D02*
X0262547Y0297256D01*
X0262549Y0297256D02*
X0271689Y0297256D01*
X0271482Y0297451D02*
X0262549Y0297451D01*
X0262547Y0297451D02*
X0254126Y0297451D01*
X0254371Y0297646D02*
X0262547Y0297646D01*
X0262549Y0297646D02*
X0271275Y0297646D01*
X0271068Y0297842D02*
X0262549Y0297842D01*
X0262547Y0297842D02*
X0254641Y0297842D01*
X0254912Y0298037D02*
X0262547Y0298037D01*
X0262549Y0298037D02*
X0270810Y0298037D01*
X0270537Y0298233D02*
X0262549Y0298233D01*
X0262547Y0298233D02*
X0255183Y0298233D01*
X0255497Y0298428D02*
X0262547Y0298428D01*
X0262549Y0298428D02*
X0270265Y0298428D01*
X0269943Y0298623D02*
X0262549Y0298623D01*
X0262547Y0298623D02*
X0255811Y0298623D01*
X0256131Y0298819D02*
X0262547Y0298819D01*
X0262549Y0298819D02*
X0269598Y0298819D01*
X0269249Y0299014D02*
X0262549Y0299014D01*
X0262547Y0299014D02*
X0256501Y0299014D01*
X0256872Y0299209D02*
X0262547Y0299209D01*
X0262549Y0299209D02*
X0268820Y0299209D01*
X0268391Y0299405D02*
X0262549Y0299405D01*
X0262547Y0299405D02*
X0257285Y0299405D01*
X0257734Y0299600D02*
X0262547Y0299600D01*
X0262549Y0299600D02*
X0267876Y0299600D01*
X0267344Y0299795D02*
X0262549Y0299795D01*
X0262547Y0299795D02*
X0258224Y0299795D01*
X0258791Y0299991D02*
X0262547Y0299991D01*
X0262549Y0299991D02*
X0266673Y0299991D01*
X0265893Y0300186D02*
X0262549Y0300186D01*
X0262547Y0300186D02*
X0259471Y0300186D01*
X0260324Y0300382D02*
X0262547Y0300382D01*
X0262549Y0300382D02*
X0264876Y0300382D01*
X0264975Y0302335D02*
X0274289Y0302335D01*
X0274305Y0302140D02*
X0265947Y0302140D01*
X0266469Y0302017D02*
X0267518Y0301688D01*
X0268541Y0301283D01*
X0269533Y0300809D01*
X0270490Y0300268D01*
X0271410Y0299665D01*
X0272287Y0299003D01*
X0273118Y0298285D01*
X0273894Y0297505D01*
X0274116Y0298583D01*
X0274264Y0299674D01*
X0274335Y0300771D01*
X0274328Y0301872D01*
X0274237Y0302969D01*
X0274062Y0304055D01*
X0273800Y0305125D01*
X0273447Y0306168D01*
X0273003Y0307174D01*
X0272466Y0308134D01*
X0271836Y0309037D01*
X0271118Y0309869D01*
X0270314Y0310621D01*
X0269487Y0311247D01*
X0268602Y0311789D01*
X0267668Y0312242D01*
X0266697Y0312608D01*
X0265698Y0312888D01*
X0264680Y0313084D01*
X0263648Y0313194D01*
X0262790Y0313203D01*
X0262790Y0302533D01*
X0262789Y0302533D01*
X0263217Y0302530D01*
X0264313Y0302439D01*
X0265398Y0302269D01*
X0266469Y0302017D01*
X0266700Y0301944D02*
X0274322Y0301944D01*
X0274328Y0301749D02*
X0267323Y0301749D01*
X0267857Y0301554D02*
X0274330Y0301554D01*
X0274331Y0301358D02*
X0268351Y0301358D01*
X0268792Y0301163D02*
X0274333Y0301163D01*
X0274334Y0300968D02*
X0269201Y0300968D01*
X0269598Y0300772D02*
X0274335Y0300772D01*
X0274323Y0300577D02*
X0269944Y0300577D01*
X0270289Y0300382D02*
X0274310Y0300382D01*
X0274297Y0300186D02*
X0270615Y0300186D01*
X0270912Y0299991D02*
X0274284Y0299991D01*
X0274272Y0299795D02*
X0271210Y0299795D01*
X0271495Y0299600D02*
X0274254Y0299600D01*
X0274227Y0299405D02*
X0271755Y0299405D01*
X0272014Y0299209D02*
X0274201Y0299209D01*
X0274174Y0299014D02*
X0272273Y0299014D01*
X0272501Y0298819D02*
X0274148Y0298819D01*
X0274121Y0298623D02*
X0272727Y0298623D01*
X0272953Y0298428D02*
X0274084Y0298428D01*
X0274044Y0298233D02*
X0273170Y0298233D01*
X0273365Y0298037D02*
X0274004Y0298037D01*
X0273964Y0297842D02*
X0273559Y0297842D01*
X0273754Y0297646D02*
X0273923Y0297646D01*
X0277502Y0296474D02*
X0281475Y0296474D01*
X0281527Y0296670D02*
X0277568Y0296670D01*
X0277634Y0296865D02*
X0281572Y0296865D01*
X0281617Y0297060D02*
X0277699Y0297060D01*
X0277755Y0297256D02*
X0281662Y0297256D01*
X0281706Y0297451D02*
X0277805Y0297451D01*
X0277856Y0297646D02*
X0281751Y0297646D01*
X0281784Y0297842D02*
X0277906Y0297842D01*
X0277956Y0298037D02*
X0281818Y0298037D01*
X0281852Y0298233D02*
X0278003Y0298233D01*
X0278038Y0298428D02*
X0281886Y0298428D01*
X0281920Y0298623D02*
X0278074Y0298623D01*
X0278109Y0298819D02*
X0281946Y0298819D01*
X0281968Y0299014D02*
X0278144Y0299014D01*
X0278179Y0299209D02*
X0281991Y0299209D01*
X0282013Y0299405D02*
X0278204Y0299405D01*
X0278224Y0299600D02*
X0282036Y0299600D01*
X0282056Y0299795D02*
X0278244Y0299795D01*
X0278264Y0299991D02*
X0282068Y0299991D01*
X0282079Y0300186D02*
X0278284Y0300186D01*
X0278300Y0300382D02*
X0282091Y0300382D01*
X0282103Y0300577D02*
X0278305Y0300577D01*
X0278310Y0300772D02*
X0282114Y0300772D01*
X0282118Y0300968D02*
X0278315Y0300968D01*
X0278320Y0301163D02*
X0282118Y0301163D01*
X0282119Y0301358D02*
X0278325Y0301358D01*
X0278318Y0301554D02*
X0282120Y0301554D01*
X0282121Y0301749D02*
X0278308Y0301749D01*
X0278298Y0301944D02*
X0282118Y0301944D01*
X0282108Y0302140D02*
X0278288Y0302140D01*
X0278278Y0302335D02*
X0282098Y0302335D01*
X0282088Y0302530D02*
X0278264Y0302530D01*
X0278239Y0302726D02*
X0282078Y0302726D01*
X0282069Y0302921D02*
X0278215Y0302921D01*
X0278191Y0303117D02*
X0282050Y0303117D01*
X0282029Y0303312D02*
X0278166Y0303312D01*
X0278142Y0303507D02*
X0282008Y0303507D01*
X0281987Y0303703D02*
X0278104Y0303703D01*
X0278066Y0303898D02*
X0281966Y0303898D01*
X0281942Y0304093D02*
X0278027Y0304093D01*
X0277988Y0304289D02*
X0281910Y0304289D01*
X0281877Y0304484D02*
X0277949Y0304484D01*
X0277903Y0304679D02*
X0281845Y0304679D01*
X0281812Y0304875D02*
X0277849Y0304875D01*
X0277796Y0305070D02*
X0281780Y0305070D01*
X0281739Y0305266D02*
X0277743Y0305266D01*
X0277690Y0305461D02*
X0281695Y0305461D01*
X0281651Y0305656D02*
X0277633Y0305656D01*
X0277565Y0305852D02*
X0281607Y0305852D01*
X0281563Y0306047D02*
X0277497Y0306047D01*
X0277428Y0306242D02*
X0281516Y0306242D01*
X0281460Y0306438D02*
X0277360Y0306438D01*
X0277291Y0306633D02*
X0281404Y0306633D01*
X0281348Y0306828D02*
X0277208Y0306828D01*
X0277125Y0307024D02*
X0281292Y0307024D01*
X0281236Y0307219D02*
X0277041Y0307219D01*
X0276958Y0307415D02*
X0281169Y0307415D01*
X0281101Y0307610D02*
X0276874Y0307610D01*
X0276775Y0307805D02*
X0281033Y0307805D01*
X0280965Y0308001D02*
X0276676Y0308001D01*
X0276578Y0308196D02*
X0280897Y0308196D01*
X0280821Y0308391D02*
X0276479Y0308391D01*
X0276377Y0308587D02*
X0280740Y0308587D01*
X0280659Y0308782D02*
X0276262Y0308782D01*
X0276147Y0308977D02*
X0280579Y0308977D01*
X0280498Y0309173D02*
X0276032Y0309173D01*
X0275916Y0309368D02*
X0280411Y0309368D01*
X0280317Y0309564D02*
X0275793Y0309564D01*
X0275661Y0309759D02*
X0280223Y0309759D01*
X0280129Y0309954D02*
X0275528Y0309954D01*
X0275395Y0310150D02*
X0280035Y0310150D01*
X0279934Y0310345D02*
X0275262Y0310345D01*
X0275112Y0310540D02*
X0279827Y0310540D01*
X0279719Y0310736D02*
X0274960Y0310736D01*
X0274808Y0310931D02*
X0279611Y0310931D01*
X0279503Y0311126D02*
X0274657Y0311126D01*
X0274492Y0311322D02*
X0279387Y0311322D01*
X0279264Y0311517D02*
X0274319Y0311517D01*
X0274147Y0311713D02*
X0279142Y0311713D01*
X0279019Y0311908D02*
X0273974Y0311908D01*
X0273789Y0312103D02*
X0278897Y0312103D01*
X0278761Y0312299D02*
X0273593Y0312299D01*
X0273396Y0312494D02*
X0278623Y0312494D01*
X0278485Y0312689D02*
X0273200Y0312689D01*
X0272986Y0312885D02*
X0278347Y0312885D01*
X0278203Y0313080D02*
X0272762Y0313080D01*
X0272539Y0313275D02*
X0278048Y0313275D01*
X0277893Y0313471D02*
X0272314Y0313471D01*
X0272059Y0313666D02*
X0277738Y0313666D01*
X0277583Y0313861D02*
X0271804Y0313861D01*
X0271549Y0314057D02*
X0277411Y0314057D01*
X0277238Y0314252D02*
X0271267Y0314252D01*
X0270974Y0314448D02*
X0277065Y0314448D01*
X0276892Y0314643D02*
X0270681Y0314643D01*
X0270355Y0314838D02*
X0276704Y0314838D01*
X0276511Y0315034D02*
X0270014Y0315034D01*
X0269672Y0315229D02*
X0276318Y0315229D01*
X0276124Y0315424D02*
X0269273Y0315424D01*
X0268871Y0315620D02*
X0275913Y0315620D01*
X0275698Y0315815D02*
X0268421Y0315815D01*
X0267935Y0316010D02*
X0275482Y0316010D01*
X0275265Y0316206D02*
X0267386Y0316206D01*
X0266779Y0316401D02*
X0275025Y0316401D01*
X0274784Y0316597D02*
X0266009Y0316597D01*
X0265010Y0316792D02*
X0274544Y0316792D01*
X0274287Y0316987D02*
X0262547Y0316987D01*
X0262548Y0316987D02*
X0262484Y0316987D01*
X0262448Y0316987D02*
X0250905Y0316987D01*
X0250647Y0316792D02*
X0260284Y0316792D01*
X0259332Y0316597D02*
X0250397Y0316597D01*
X0250165Y0316401D02*
X0258609Y0316401D01*
X0257972Y0316206D02*
X0249934Y0316206D01*
X0249702Y0316010D02*
X0257439Y0316010D01*
X0256945Y0315815D02*
X0249490Y0315815D01*
X0249282Y0315620D02*
X0256513Y0315620D01*
X0256085Y0315424D02*
X0249074Y0315424D01*
X0248867Y0315229D02*
X0255724Y0315229D01*
X0255363Y0315034D02*
X0248680Y0315034D01*
X0248493Y0314838D02*
X0255023Y0314838D01*
X0254715Y0314643D02*
X0248306Y0314643D01*
X0248121Y0314448D02*
X0254407Y0314448D01*
X0254116Y0314252D02*
X0247954Y0314252D01*
X0247786Y0314057D02*
X0253850Y0314057D01*
X0253585Y0313861D02*
X0247618Y0313861D01*
X0247450Y0313666D02*
X0253321Y0313666D01*
X0253090Y0313471D02*
X0247299Y0313471D01*
X0247148Y0313275D02*
X0252859Y0313275D01*
X0252627Y0313080D02*
X0246997Y0313080D01*
X0246847Y0312885D02*
X0252409Y0312885D01*
X0252207Y0312689D02*
X0246707Y0312689D01*
X0246572Y0312494D02*
X0252005Y0312494D01*
X0251803Y0312299D02*
X0246438Y0312299D01*
X0246303Y0312103D02*
X0251614Y0312103D01*
X0251437Y0311908D02*
X0246171Y0311908D01*
X0246052Y0311713D02*
X0251260Y0311713D01*
X0251083Y0311517D02*
X0245932Y0311517D01*
X0245813Y0311322D02*
X0250913Y0311322D01*
X0250758Y0311126D02*
X0245693Y0311126D01*
X0245581Y0310931D02*
X0250604Y0310931D01*
X0250449Y0310736D02*
X0245476Y0310736D01*
X0245370Y0310540D02*
X0250294Y0310540D01*
X0250158Y0310345D02*
X0245265Y0310345D01*
X0245159Y0310150D02*
X0250022Y0310150D01*
X0249887Y0309954D02*
X0245064Y0309954D01*
X0244971Y0309759D02*
X0249752Y0309759D01*
X0249622Y0309564D02*
X0244879Y0309564D01*
X0244787Y0309368D02*
X0249505Y0309368D01*
X0249388Y0309173D02*
X0244695Y0309173D01*
X0244613Y0308977D02*
X0249271Y0308977D01*
X0249154Y0308782D02*
X0244534Y0308782D01*
X0244455Y0308587D02*
X0249046Y0308587D01*
X0248946Y0308391D02*
X0244376Y0308391D01*
X0244297Y0308196D02*
X0248846Y0308196D01*
X0248746Y0308001D02*
X0244226Y0308001D01*
X0244159Y0307805D02*
X0248646Y0307805D01*
X0248554Y0307610D02*
X0244093Y0307610D01*
X0244026Y0307415D02*
X0248470Y0307415D01*
X0248386Y0307219D02*
X0243959Y0307219D01*
X0243899Y0307024D02*
X0248301Y0307024D01*
X0248217Y0306828D02*
X0243844Y0306828D01*
X0243789Y0306633D02*
X0248138Y0306633D01*
X0248070Y0306438D02*
X0243734Y0306438D01*
X0243678Y0306242D02*
X0248001Y0306242D01*
X0247933Y0306047D02*
X0243627Y0306047D01*
X0243584Y0305852D02*
X0247864Y0305852D01*
X0247796Y0305656D02*
X0243540Y0305656D01*
X0243497Y0305461D02*
X0247742Y0305461D01*
X0247688Y0305266D02*
X0243453Y0305266D01*
X0243345Y0304679D02*
X0247527Y0304679D01*
X0247483Y0304484D02*
X0243313Y0304484D01*
X0243281Y0304289D02*
X0247444Y0304289D01*
X0247405Y0304093D02*
X0243249Y0304093D01*
X0243224Y0303898D02*
X0247366Y0303898D01*
X0247327Y0303703D02*
X0243203Y0303703D01*
X0243182Y0303507D02*
X0247289Y0303507D01*
X0247265Y0303312D02*
X0243161Y0303312D01*
X0243140Y0303117D02*
X0247241Y0303117D01*
X0247217Y0302921D02*
X0243121Y0302921D01*
X0243111Y0302726D02*
X0247192Y0302726D01*
X0247168Y0302530D02*
X0243101Y0302530D01*
X0243091Y0302335D02*
X0247152Y0302335D01*
X0247142Y0302140D02*
X0243081Y0302140D01*
X0243071Y0301944D02*
X0247133Y0301944D01*
X0247123Y0301749D02*
X0243070Y0301749D01*
X0243071Y0301554D02*
X0247114Y0301554D01*
X0247105Y0301358D02*
X0243072Y0301358D01*
X0243073Y0301163D02*
X0247109Y0301163D01*
X0247114Y0300968D02*
X0243075Y0300968D01*
X0243079Y0300772D02*
X0247120Y0300772D01*
X0247126Y0300577D02*
X0243091Y0300577D01*
X0243103Y0300382D02*
X0247131Y0300382D01*
X0247141Y0300186D02*
X0243115Y0300186D01*
X0243128Y0299991D02*
X0247163Y0299991D01*
X0247184Y0299795D02*
X0243140Y0299795D01*
X0243161Y0299600D02*
X0247205Y0299600D01*
X0247226Y0299405D02*
X0243184Y0299405D01*
X0243207Y0299209D02*
X0247247Y0299209D01*
X0247278Y0299014D02*
X0243231Y0299014D01*
X0243254Y0298819D02*
X0247314Y0298819D01*
X0247349Y0298623D02*
X0243281Y0298623D01*
X0243316Y0298428D02*
X0247385Y0298428D01*
X0247420Y0298233D02*
X0243351Y0298233D01*
X0243385Y0298037D02*
X0247460Y0298037D01*
X0247510Y0297842D02*
X0243420Y0297842D01*
X0243455Y0297646D02*
X0247559Y0297646D01*
X0247608Y0297451D02*
X0243500Y0297451D01*
X0243546Y0297256D02*
X0247657Y0297256D01*
X0247707Y0297060D02*
X0243593Y0297060D01*
X0243639Y0296865D02*
X0247771Y0296865D01*
X0247834Y0296670D02*
X0243685Y0296670D01*
X0243738Y0296474D02*
X0247897Y0296474D01*
X0247961Y0296279D02*
X0243796Y0296279D01*
X0243854Y0296084D02*
X0248024Y0296084D01*
X0248100Y0295888D02*
X0243912Y0295888D01*
X0243970Y0295693D02*
X0248179Y0295693D01*
X0248257Y0295497D02*
X0244031Y0295497D01*
X0244101Y0295302D02*
X0248335Y0295302D01*
X0248413Y0295107D02*
X0244172Y0295107D01*
X0244242Y0294911D02*
X0248504Y0294911D01*
X0248598Y0294716D02*
X0244312Y0294716D01*
X0244383Y0294521D02*
X0248692Y0294521D01*
X0248786Y0294325D02*
X0244466Y0294325D01*
X0244548Y0294130D02*
X0248880Y0294130D01*
X0248988Y0293935D02*
X0244631Y0293935D01*
X0244714Y0293739D02*
X0249099Y0293739D01*
X0249209Y0293544D02*
X0244796Y0293544D01*
X0244892Y0293348D02*
X0249320Y0293348D01*
X0249433Y0293153D02*
X0244988Y0293153D01*
X0245083Y0292958D02*
X0249562Y0292958D01*
X0249690Y0292762D02*
X0245179Y0292762D01*
X0245276Y0292567D02*
X0249819Y0292567D01*
X0249948Y0292372D02*
X0245385Y0292372D01*
X0245494Y0292176D02*
X0250089Y0292176D01*
X0250238Y0291981D02*
X0245603Y0291981D01*
X0245713Y0291786D02*
X0250386Y0291786D01*
X0250535Y0291590D02*
X0245826Y0291590D01*
X0245949Y0291395D02*
X0250690Y0291395D01*
X0250862Y0291200D02*
X0246073Y0291200D01*
X0246196Y0291004D02*
X0251034Y0291004D01*
X0251205Y0290809D02*
X0246320Y0290809D01*
X0246452Y0290613D02*
X0251382Y0290613D01*
X0251579Y0290418D02*
X0246591Y0290418D01*
X0246730Y0290223D02*
X0251777Y0290223D01*
X0251975Y0290027D02*
X0246869Y0290027D01*
X0247010Y0289832D02*
X0252183Y0289832D01*
X0252411Y0289637D02*
X0247165Y0289637D01*
X0247321Y0289441D02*
X0252639Y0289441D01*
X0252867Y0289246D02*
X0247476Y0289246D01*
X0247632Y0289051D02*
X0253125Y0289051D01*
X0253390Y0288855D02*
X0247801Y0288855D01*
X0247975Y0288660D02*
X0253655Y0288660D01*
X0253945Y0288464D02*
X0248148Y0288464D01*
X0248321Y0288269D02*
X0254254Y0288269D01*
X0254563Y0288074D02*
X0248508Y0288074D01*
X0248700Y0287878D02*
X0254909Y0287878D01*
X0255275Y0287683D02*
X0248893Y0287683D01*
X0249086Y0287488D02*
X0255648Y0287488D01*
X0256088Y0287292D02*
X0249296Y0287292D01*
X0249510Y0287097D02*
X0256527Y0287097D01*
X0257056Y0286902D02*
X0249725Y0286902D01*
X0249941Y0286706D02*
X0257602Y0286706D01*
X0258292Y0286511D02*
X0250180Y0286511D01*
X0250419Y0286315D02*
X0259113Y0286315D01*
X0260230Y0286120D02*
X0250658Y0286120D01*
X0253677Y0284166D02*
X0262547Y0284166D01*
X0262549Y0284166D02*
X0271661Y0284166D01*
X0271284Y0283971D02*
X0262549Y0283971D01*
X0262547Y0283971D02*
X0254061Y0283971D01*
X0254450Y0283776D02*
X0262547Y0283776D01*
X0262549Y0283776D02*
X0270895Y0283776D01*
X0270460Y0283580D02*
X0262549Y0283580D01*
X0262547Y0283580D02*
X0254892Y0283580D01*
X0255335Y0283385D02*
X0262547Y0283385D01*
X0262549Y0283385D02*
X0270026Y0283385D01*
X0269521Y0283190D02*
X0262549Y0283190D01*
X0262547Y0283190D02*
X0255841Y0283190D01*
X0256357Y0282994D02*
X0262547Y0282994D01*
X0262549Y0282994D02*
X0269014Y0282994D01*
X0268410Y0282799D02*
X0262549Y0282799D01*
X0262547Y0282799D02*
X0256965Y0282799D01*
X0257616Y0282604D02*
X0262547Y0282604D01*
X0262549Y0282604D02*
X0267764Y0282604D01*
X0267023Y0282408D02*
X0262549Y0282408D01*
X0262547Y0282408D02*
X0258375Y0282408D01*
X0259322Y0282213D02*
X0262547Y0282213D01*
X0262549Y0282213D02*
X0266089Y0282213D01*
X0264823Y0282018D02*
X0262549Y0282018D01*
X0262547Y0282018D02*
X0260611Y0282018D01*
X0265933Y0286315D02*
X0274886Y0286315D01*
X0275121Y0286511D02*
X0266750Y0286511D01*
X0267445Y0286706D02*
X0275356Y0286706D01*
X0275573Y0286902D02*
X0268005Y0286902D01*
X0268536Y0287097D02*
X0275784Y0287097D01*
X0275995Y0287292D02*
X0268991Y0287292D01*
X0269441Y0287488D02*
X0276206Y0287488D01*
X0276395Y0287683D02*
X0269820Y0287683D01*
X0270200Y0287878D02*
X0276585Y0287878D01*
X0276774Y0288074D02*
X0270550Y0288074D01*
X0270871Y0288269D02*
X0276962Y0288269D01*
X0277132Y0288464D02*
X0271192Y0288464D01*
X0271487Y0288660D02*
X0277302Y0288660D01*
X0277472Y0288855D02*
X0271762Y0288855D01*
X0272038Y0289051D02*
X0277643Y0289051D01*
X0277795Y0289246D02*
X0272301Y0289246D01*
X0272539Y0289441D02*
X0277948Y0289441D01*
X0278101Y0289637D02*
X0272778Y0289637D01*
X0273016Y0289832D02*
X0278253Y0289832D01*
X0278395Y0290027D02*
X0273229Y0290027D01*
X0273436Y0290223D02*
X0278531Y0290223D01*
X0278667Y0290418D02*
X0273644Y0290418D01*
X0273851Y0290613D02*
X0278804Y0290613D01*
X0278937Y0290809D02*
X0274032Y0290809D01*
X0274212Y0291004D02*
X0279058Y0291004D01*
X0279179Y0291200D02*
X0274393Y0291200D01*
X0274574Y0291395D02*
X0279301Y0291395D01*
X0279422Y0291590D02*
X0274733Y0291590D01*
X0274890Y0291786D02*
X0279535Y0291786D01*
X0279642Y0291981D02*
X0275047Y0291981D01*
X0275203Y0292176D02*
X0279749Y0292176D01*
X0279856Y0292372D02*
X0275349Y0292372D01*
X0275485Y0292567D02*
X0279963Y0292567D01*
X0280060Y0292762D02*
X0275620Y0292762D01*
X0275756Y0292958D02*
X0280154Y0292958D01*
X0280248Y0293153D02*
X0275891Y0293153D01*
X0276009Y0293348D02*
X0280341Y0293348D01*
X0280435Y0293544D02*
X0276125Y0293544D01*
X0276241Y0293739D02*
X0280518Y0293739D01*
X0280599Y0293935D02*
X0276358Y0293935D01*
X0276472Y0294130D02*
X0280680Y0294130D01*
X0280760Y0294325D02*
X0276571Y0294325D01*
X0276669Y0294521D02*
X0280841Y0294521D01*
X0280912Y0294716D02*
X0276767Y0294716D01*
X0276866Y0294911D02*
X0280981Y0294911D01*
X0281049Y0295107D02*
X0276962Y0295107D01*
X0277044Y0295302D02*
X0281118Y0295302D01*
X0281187Y0295497D02*
X0277126Y0295497D01*
X0277207Y0295693D02*
X0281248Y0295693D01*
X0281305Y0295888D02*
X0277289Y0295888D01*
X0277370Y0296084D02*
X0281361Y0296084D01*
X0281418Y0296279D02*
X0277437Y0296279D01*
X0274273Y0302530D02*
X0263121Y0302530D01*
X0262789Y0302533D02*
X0262788Y0302533D01*
X0262117Y0302539D01*
X0261087Y0302476D01*
X0260064Y0302342D01*
X0259053Y0302137D01*
X0258059Y0301863D01*
X0257086Y0301521D01*
X0256137Y0301115D01*
X0255218Y0300648D01*
X0254331Y0300122D01*
X0253477Y0299542D01*
X0252663Y0298911D01*
X0251889Y0298228D01*
X0251165Y0297494D01*
X0250991Y0298523D01*
X0250887Y0299561D01*
X0250855Y0300604D01*
X0250896Y0301647D01*
X0251010Y0302684D01*
X0251201Y0303709D01*
X0251468Y0304718D01*
X0251812Y0305702D01*
X0252234Y0306656D01*
X0252733Y0307572D01*
X0253309Y0308442D01*
X0253959Y0309257D01*
X0254681Y0310010D01*
X0255469Y0310693D01*
X0256359Y0311324D01*
X0257306Y0311866D01*
X0258300Y0312315D01*
X0259332Y0312673D01*
X0260390Y0312939D01*
X0261467Y0313117D01*
X0262555Y0313205D01*
X0262789Y0313203D01*
X0262789Y0302533D01*
X0262790Y0302726D02*
X0274257Y0302726D01*
X0274241Y0302921D02*
X0262790Y0302921D01*
X0262789Y0302921D02*
X0251055Y0302921D01*
X0251018Y0302726D02*
X0262789Y0302726D01*
X0262790Y0303117D02*
X0274213Y0303117D01*
X0274182Y0303312D02*
X0262790Y0303312D01*
X0262789Y0303312D02*
X0251127Y0303312D01*
X0251164Y0303507D02*
X0262789Y0303507D01*
X0262790Y0303507D02*
X0274150Y0303507D01*
X0274119Y0303703D02*
X0262790Y0303703D01*
X0262789Y0303703D02*
X0251200Y0303703D01*
X0251251Y0303898D02*
X0262789Y0303898D01*
X0262790Y0303898D02*
X0274087Y0303898D01*
X0274053Y0304093D02*
X0262790Y0304093D01*
X0262789Y0304093D02*
X0251303Y0304093D01*
X0251354Y0304289D02*
X0262789Y0304289D01*
X0262790Y0304289D02*
X0274005Y0304289D01*
X0273957Y0304484D02*
X0262790Y0304484D01*
X0262789Y0304484D02*
X0251406Y0304484D01*
X0251458Y0304679D02*
X0262789Y0304679D01*
X0262790Y0304679D02*
X0273909Y0304679D01*
X0273861Y0304875D02*
X0262790Y0304875D01*
X0262789Y0304875D02*
X0251523Y0304875D01*
X0251591Y0305070D02*
X0262789Y0305070D01*
X0262790Y0305070D02*
X0273813Y0305070D01*
X0273752Y0305266D02*
X0262790Y0305266D01*
X0262789Y0305266D02*
X0251659Y0305266D01*
X0251727Y0305461D02*
X0262789Y0305461D01*
X0262790Y0305461D02*
X0273686Y0305461D01*
X0273620Y0305656D02*
X0262790Y0305656D01*
X0262789Y0305656D02*
X0251796Y0305656D01*
X0251878Y0305852D02*
X0262789Y0305852D01*
X0262790Y0305852D02*
X0273554Y0305852D01*
X0273488Y0306047D02*
X0262790Y0306047D01*
X0262789Y0306047D02*
X0251964Y0306047D01*
X0252051Y0306242D02*
X0262789Y0306242D01*
X0262790Y0306242D02*
X0273414Y0306242D01*
X0273328Y0306438D02*
X0262790Y0306438D01*
X0262789Y0306438D02*
X0252137Y0306438D01*
X0252224Y0306633D02*
X0262789Y0306633D01*
X0262790Y0306633D02*
X0273241Y0306633D01*
X0273155Y0306828D02*
X0262790Y0306828D01*
X0262789Y0306828D02*
X0252328Y0306828D01*
X0252435Y0307024D02*
X0262789Y0307024D01*
X0262790Y0307024D02*
X0273069Y0307024D01*
X0272977Y0307219D02*
X0262790Y0307219D01*
X0262789Y0307219D02*
X0252541Y0307219D01*
X0252648Y0307415D02*
X0262789Y0307415D01*
X0262790Y0307415D02*
X0272868Y0307415D01*
X0272759Y0307610D02*
X0262790Y0307610D01*
X0262789Y0307610D02*
X0252759Y0307610D01*
X0252888Y0307805D02*
X0262789Y0307805D01*
X0262790Y0307805D02*
X0272650Y0307805D01*
X0272540Y0308001D02*
X0262790Y0308001D01*
X0262789Y0308001D02*
X0253017Y0308001D01*
X0253146Y0308196D02*
X0262789Y0308196D01*
X0262790Y0308196D02*
X0272423Y0308196D01*
X0272286Y0308391D02*
X0262790Y0308391D01*
X0262789Y0308391D02*
X0253276Y0308391D01*
X0253424Y0308587D02*
X0262789Y0308587D01*
X0262790Y0308587D02*
X0272150Y0308587D01*
X0272014Y0308782D02*
X0262790Y0308782D01*
X0262789Y0308782D02*
X0253580Y0308782D01*
X0253736Y0308977D02*
X0262789Y0308977D01*
X0262790Y0308977D02*
X0271878Y0308977D01*
X0271719Y0309173D02*
X0262790Y0309173D01*
X0262789Y0309173D02*
X0253892Y0309173D01*
X0254065Y0309368D02*
X0262789Y0309368D01*
X0262790Y0309368D02*
X0271550Y0309368D01*
X0271382Y0309564D02*
X0262790Y0309564D01*
X0262789Y0309564D02*
X0254253Y0309564D01*
X0254440Y0309759D02*
X0262789Y0309759D01*
X0262790Y0309759D02*
X0271213Y0309759D01*
X0271027Y0309954D02*
X0262790Y0309954D01*
X0262789Y0309954D02*
X0254627Y0309954D01*
X0254842Y0310150D02*
X0262789Y0310150D01*
X0262790Y0310150D02*
X0270818Y0310150D01*
X0270609Y0310345D02*
X0262790Y0310345D01*
X0262789Y0310345D02*
X0255068Y0310345D01*
X0255293Y0310540D02*
X0262789Y0310540D01*
X0262790Y0310540D02*
X0270400Y0310540D01*
X0270163Y0310736D02*
X0262790Y0310736D01*
X0262789Y0310736D02*
X0255530Y0310736D01*
X0255805Y0310931D02*
X0262789Y0310931D01*
X0262790Y0310931D02*
X0269905Y0310931D01*
X0269647Y0311126D02*
X0262790Y0311126D01*
X0262789Y0311126D02*
X0256080Y0311126D01*
X0256355Y0311322D02*
X0262789Y0311322D01*
X0262790Y0311322D02*
X0269365Y0311322D01*
X0269046Y0311517D02*
X0262790Y0311517D01*
X0262789Y0311517D02*
X0256696Y0311517D01*
X0257038Y0311713D02*
X0262789Y0311713D01*
X0262790Y0311713D02*
X0268726Y0311713D01*
X0268356Y0311908D02*
X0262790Y0311908D01*
X0262789Y0311908D02*
X0257399Y0311908D01*
X0257831Y0312103D02*
X0262789Y0312103D01*
X0262790Y0312103D02*
X0267953Y0312103D01*
X0267517Y0312299D02*
X0262790Y0312299D01*
X0262789Y0312299D02*
X0258263Y0312299D01*
X0258816Y0312494D02*
X0262789Y0312494D01*
X0262790Y0312494D02*
X0266999Y0312494D01*
X0266405Y0312689D02*
X0262790Y0312689D01*
X0262789Y0312689D02*
X0259398Y0312689D01*
X0260173Y0312885D02*
X0262789Y0312885D01*
X0262790Y0312885D02*
X0265709Y0312885D01*
X0264699Y0313080D02*
X0262790Y0313080D01*
X0262789Y0313080D02*
X0261244Y0313080D01*
X0262547Y0317183D02*
X0274018Y0317183D01*
X0273749Y0317378D02*
X0262547Y0317378D01*
X0262548Y0317378D02*
X0251435Y0317378D01*
X0251164Y0317183D02*
X0262548Y0317183D01*
X0262547Y0317573D02*
X0273470Y0317573D01*
X0273167Y0317769D02*
X0262547Y0317769D01*
X0262548Y0317769D02*
X0252013Y0317769D01*
X0251724Y0317573D02*
X0262548Y0317573D01*
X0262547Y0317964D02*
X0272865Y0317964D01*
X0272552Y0318159D02*
X0262547Y0318159D01*
X0262548Y0318159D02*
X0252641Y0318159D01*
X0252316Y0317964D02*
X0262548Y0317964D01*
X0262547Y0318355D02*
X0272209Y0318355D01*
X0271867Y0318550D02*
X0262547Y0318550D01*
X0262548Y0318550D02*
X0253317Y0318550D01*
X0252967Y0318355D02*
X0262548Y0318355D01*
X0262547Y0318746D02*
X0271500Y0318746D01*
X0271108Y0318941D02*
X0262547Y0318941D01*
X0262548Y0318941D02*
X0254056Y0318941D01*
X0253686Y0318746D02*
X0262548Y0318746D01*
X0262547Y0319136D02*
X0270716Y0319136D01*
X0270263Y0319332D02*
X0262547Y0319332D01*
X0262548Y0319332D02*
X0254903Y0319332D01*
X0254479Y0319136D02*
X0262548Y0319136D01*
X0262547Y0319527D02*
X0269810Y0319527D01*
X0269293Y0319722D02*
X0262547Y0319722D01*
X0262548Y0319722D02*
X0255869Y0319722D01*
X0255376Y0319527D02*
X0262548Y0319527D01*
X0262548Y0319918D02*
X0256427Y0319918D01*
X0257013Y0320113D02*
X0262548Y0320113D01*
X0262547Y0320113D02*
X0268131Y0320113D01*
X0268760Y0319918D02*
X0262547Y0319918D01*
X0262547Y0320308D02*
X0267449Y0320308D01*
X0266648Y0320504D02*
X0262547Y0320504D01*
X0262548Y0320504D02*
X0258545Y0320504D01*
X0257725Y0320308D02*
X0262548Y0320308D01*
X0262547Y0320699D02*
X0265604Y0320699D01*
X0263807Y0320895D02*
X0262547Y0320895D01*
X0262548Y0320895D02*
X0261226Y0320895D01*
X0262548Y0320699D02*
X0259588Y0320699D01*
X0262789Y0303117D02*
X0251091Y0303117D01*
X0250993Y0302530D02*
X0261984Y0302530D01*
X0261910Y0300577D02*
X0262547Y0300577D01*
X0262549Y0300577D02*
X0262861Y0300577D01*
X0260028Y0302335D02*
X0250972Y0302335D01*
X0250950Y0302140D02*
X0259065Y0302140D01*
X0258354Y0301944D02*
X0250929Y0301944D01*
X0250907Y0301749D02*
X0257735Y0301749D01*
X0257178Y0301554D02*
X0250892Y0301554D01*
X0250884Y0301358D02*
X0256705Y0301358D01*
X0256249Y0301163D02*
X0250877Y0301163D01*
X0250869Y0300968D02*
X0255847Y0300968D01*
X0255462Y0300772D02*
X0250862Y0300772D01*
X0250856Y0300577D02*
X0255098Y0300577D01*
X0254768Y0300382D02*
X0250862Y0300382D01*
X0250868Y0300186D02*
X0254439Y0300186D01*
X0254137Y0299991D02*
X0250874Y0299991D01*
X0250880Y0299795D02*
X0253850Y0299795D01*
X0253562Y0299600D02*
X0250886Y0299600D01*
X0250903Y0299405D02*
X0253300Y0299405D01*
X0253048Y0299209D02*
X0250922Y0299209D01*
X0250942Y0299014D02*
X0252796Y0299014D01*
X0252558Y0298819D02*
X0250961Y0298819D01*
X0250981Y0298623D02*
X0252337Y0298623D01*
X0252115Y0298428D02*
X0251007Y0298428D01*
X0251040Y0298233D02*
X0251894Y0298233D01*
X0251700Y0298037D02*
X0251073Y0298037D01*
X0251106Y0297842D02*
X0251508Y0297842D01*
X0251315Y0297646D02*
X0251139Y0297646D01*
M02*
