G75*
%MOIN*%
%OFA0B0*%
%FSLAX25Y25*%
%IPPOS*%
%LPD*%
%AMOC8*
5,1,8,0,0,1.08239X$1,22.5*
%
%ADD10OC8,0.07296*%
%ADD11C,0.07296*%
%ADD12C,0.06000*%
%ADD13OC8,0.06400*%
%ADD14OC8,0.38202*%
%ADD15OC8,0.37414*%
D10*
X0124247Y0100562D03*
X0202987Y0108562D03*
D11*
X0202987Y0100562D03*
X0124247Y0108562D03*
D12*
X0102477Y0109562D02*
X0097277Y0109562D01*
X0097277Y0119562D02*
X0102477Y0119562D01*
X0102477Y0099562D02*
X0097277Y0099562D01*
X0097277Y0089562D02*
X0102477Y0089562D01*
X0072477Y0089562D02*
X0067277Y0089562D01*
X0067277Y0099562D02*
X0072477Y0099562D01*
X0072477Y0109562D02*
X0067277Y0109562D01*
X0067277Y0119562D02*
X0072477Y0119562D01*
X0224757Y0119562D02*
X0229957Y0119562D01*
X0229957Y0109562D02*
X0224757Y0109562D01*
X0224757Y0099562D02*
X0229957Y0099562D01*
X0229957Y0089562D02*
X0224757Y0089562D01*
X0254757Y0089562D02*
X0259957Y0089562D01*
X0259957Y0099562D02*
X0254757Y0099562D01*
X0254757Y0109562D02*
X0259957Y0109562D01*
X0259957Y0119562D02*
X0254757Y0119562D01*
D13*
X0281728Y0119562D03*
X0301413Y0119562D03*
X0257357Y0141964D03*
X0257357Y0159680D03*
X0227357Y0159680D03*
X0227357Y0141964D03*
X0178617Y0104562D03*
X0148617Y0104562D03*
X0148617Y0078972D03*
X0178617Y0078972D03*
X0226609Y0050665D03*
X0240389Y0055350D03*
X0250231Y0050665D03*
X0240389Y0075035D03*
X0281728Y0089562D03*
X0301413Y0089562D03*
X0250231Y0020665D03*
X0226609Y0020665D03*
X0092751Y0102594D03*
X0080940Y0102594D03*
D14*
X0033696Y0033696D03*
X0033696Y0175428D03*
X0163617Y0175428D03*
X0293539Y0175428D03*
X0293539Y0033696D03*
D15*
X0163617Y0033696D03*
M02*
