%
M48
M72
T01C0.0236
T02C0.0276
T03C0.0315
T04C0.0320
T05C0.1969
%
T01
X8094Y10259
X9275Y10259
X24039Y7503
X24039Y5535
T02
X25023Y5066
X22661Y5066
X22661Y2066
X25023Y2066
X17862Y7897
X14862Y7897
X14862Y10456
X17862Y10456
X22736Y14196
X22736Y15968
X25736Y15968
X25736Y14196
X28173Y11956
X30141Y11956
X30141Y8956
X28173Y8956
T03
X20299Y10056
X20299Y10856
X12425Y10856
X12425Y10056
T04
X9988Y9956
X9988Y8956
X9988Y10956
X9988Y11956
X6988Y11956
X6988Y10956
X6988Y9956
X6988Y8956
X22736Y8956
X22736Y9956
X22736Y10956
X22736Y11956
X25736Y11956
X25736Y10956
X25736Y9956
X25736Y8956
T05
X3370Y3370
X16362Y3370
X29354Y3370
X29354Y17543
X16362Y17543
X3370Y17543
M30
