G75*
%MOIN*%
%OFA0B0*%
%FSLAX25Y25*%
%IPPOS*%
%LPD*%
%AMOC8*
5,1,8,0,0,1.08239X$1,22.5*
%
%ADD10OC8,0.07296*%
%ADD11C,0.07296*%
%ADD12C,0.06000*%
%ADD13OC8,0.06400*%
%ADD14OC8,0.38202*%
%ADD15OC8,0.37414*%
D10*
X0120710Y0120773D03*
X0207324Y0120773D03*
D11*
X0207324Y0112773D03*
X0120710Y0112773D03*
D12*
X0146417Y0109962D02*
X0151617Y0109962D01*
X0151617Y0119962D02*
X0146417Y0119962D01*
X0146417Y0099962D02*
X0151617Y0099962D01*
X0151617Y0089962D02*
X0146417Y0089962D01*
X0176417Y0089962D02*
X0181617Y0089962D01*
X0181617Y0099962D02*
X0176417Y0099962D01*
X0176417Y0109962D02*
X0181617Y0109962D01*
X0181617Y0119962D02*
X0176417Y0119962D01*
X0244843Y0119962D02*
X0250043Y0119962D01*
X0250043Y0109962D02*
X0244843Y0109962D01*
X0244843Y0099962D02*
X0250043Y0099962D01*
X0250043Y0089962D02*
X0244843Y0089962D01*
X0274843Y0089962D02*
X0280043Y0089962D01*
X0280043Y0099962D02*
X0274843Y0099962D01*
X0274843Y0109962D02*
X0280043Y0109962D01*
X0280043Y0119962D02*
X0274843Y0119962D01*
X0083192Y0119962D02*
X0077992Y0119962D01*
X0077992Y0109962D02*
X0083192Y0109962D01*
X0083192Y0099962D02*
X0077992Y0099962D01*
X0077992Y0089962D02*
X0083192Y0089962D01*
X0053192Y0089962D02*
X0047992Y0089962D01*
X0047992Y0099962D02*
X0053192Y0099962D01*
X0053192Y0109962D02*
X0047992Y0109962D01*
X0047992Y0119962D02*
X0053192Y0119962D01*
D13*
X0093151Y0131773D03*
X0093151Y0101773D03*
X0093151Y0092403D03*
X0105710Y0093151D03*
X0135710Y0093151D03*
X0135710Y0069529D03*
X0132521Y0051813D03*
X0108899Y0051813D03*
X0093151Y0062403D03*
X0105710Y0069529D03*
X0192324Y0069529D03*
X0222324Y0069529D03*
X0230946Y0062403D03*
X0247443Y0069529D03*
X0254569Y0079372D03*
X0272285Y0079372D03*
X0277443Y0069529D03*
X0293939Y0062403D03*
X0277443Y0053781D03*
X0247443Y0053781D03*
X0230946Y0092403D03*
X0222324Y0093151D03*
X0230946Y0101773D03*
X0192324Y0093151D03*
X0230946Y0131773D03*
X0247443Y0140395D03*
X0277443Y0140395D03*
X0293939Y0131773D03*
X0293939Y0101773D03*
X0293939Y0092403D03*
X0179017Y0140395D03*
X0175828Y0132521D03*
X0152206Y0132521D03*
X0149017Y0140395D03*
D14*
X0034096Y0034096D03*
X0034096Y0175828D03*
X0164017Y0175828D03*
X0293939Y0175828D03*
X0293939Y0034096D03*
D15*
X0164017Y0034096D03*
M02*
