%
M48
M72
T01C0.0236
T02C0.0276
T03C0.0315
T04C0.0320
T05C0.1969
%
T01
X10890Y5181
X13252Y5181
X25457Y7937
X27229Y7937
X17583Y13252
X15221Y13252
T02
X14902Y14040
X17902Y14040
X23095Y13177
X24744Y14040
X27744Y14040
X29394Y13177
X29394Y10177
X29394Y9240
X27744Y6953
X29394Y6240
X27744Y5378
X24744Y5378
X23095Y6240
X22232Y6953
X24744Y6953
X23095Y9240
X22232Y9315
X23095Y10177
X19232Y9315
X19232Y6953
X13571Y6953
X10571Y6953
X9315Y6240
X9315Y9240
X9315Y10177
X10571Y9315
X13571Y9315
X9315Y13177
T03
X12071Y12077
X12071Y11277
X20732Y11277
X20732Y12077
T04
X17902Y11996
X17902Y10996
X17902Y9996
X17902Y8996
X14902Y8996
X14902Y9996
X14902Y10996
X14902Y11996
X8059Y11996
X8059Y10996
X8059Y9996
X8059Y8996
X5059Y8996
X5059Y9996
X5059Y10996
X5059Y11996
X24744Y11996
X24744Y10996
X24744Y9996
X24744Y8996
X27744Y8996
X27744Y9996
X27744Y10996
X27744Y11996
T05
X3410Y3410
X16402Y3410
X29394Y3410
X29394Y17583
X16402Y17583
X3410Y17583
M30
