G75*
%MOIN*%
%OFA0B0*%
%FSLAX25Y25*%
%IPPOS*%
%LPD*%
%AMOC8*
5,1,8,0,0,1.08239X$1,22.5*
%
%ADD10C,0.00500*%
%ADD11C,0.00700*%
%ADD12C,0.00600*%
%ADD13C,0.02000*%
%ADD14R,0.01500X0.02000*%
%ADD15R,0.02000X0.01500*%
%ADD16C,0.00197*%
D10*
X0084503Y0043931D02*
X0084503Y0048435D01*
X0086755Y0048435D01*
X0087506Y0047684D01*
X0087506Y0046183D01*
X0086755Y0045432D01*
X0084503Y0045432D01*
X0086005Y0045432D02*
X0087506Y0043931D01*
X0089107Y0043931D02*
X0092110Y0043931D01*
X0090609Y0043931D02*
X0090609Y0048435D01*
X0089107Y0046934D01*
X0089474Y0059679D02*
X0087973Y0061180D01*
X0088724Y0061180D02*
X0086472Y0061180D01*
X0086472Y0059679D02*
X0086472Y0064183D01*
X0088724Y0064183D01*
X0089474Y0063432D01*
X0089474Y0061931D01*
X0088724Y0061180D01*
X0091076Y0060430D02*
X0091826Y0059679D01*
X0093328Y0059679D01*
X0094078Y0060430D01*
X0094078Y0061180D01*
X0093328Y0061931D01*
X0092577Y0061931D01*
X0093328Y0061931D02*
X0094078Y0062682D01*
X0094078Y0063432D01*
X0093328Y0064183D01*
X0091826Y0064183D01*
X0091076Y0063432D01*
X0111088Y0071354D02*
X0111088Y0073606D01*
X0111838Y0074356D01*
X0113340Y0074356D01*
X0114090Y0073606D01*
X0114090Y0071354D01*
X0114090Y0072855D02*
X0115592Y0074356D01*
X0115592Y0075958D02*
X0115592Y0078960D01*
X0115592Y0077459D02*
X0111088Y0077459D01*
X0112589Y0075958D01*
X0111838Y0080562D02*
X0111088Y0081312D01*
X0111088Y0082814D01*
X0111838Y0083564D01*
X0112589Y0083564D01*
X0113340Y0082814D01*
X0114090Y0083564D01*
X0114841Y0083564D01*
X0115592Y0082814D01*
X0115592Y0081312D01*
X0114841Y0080562D01*
X0113340Y0082063D02*
X0113340Y0082814D01*
X0115592Y0071354D02*
X0111088Y0071354D01*
X0136986Y0064183D02*
X0136986Y0059679D01*
X0136986Y0061180D02*
X0139238Y0061180D01*
X0139989Y0061931D01*
X0139989Y0063432D01*
X0139238Y0064183D01*
X0136986Y0064183D01*
X0138487Y0061180D02*
X0139989Y0059679D01*
X0141590Y0059679D02*
X0144593Y0059679D01*
X0143091Y0059679D02*
X0143091Y0064183D01*
X0141590Y0062682D01*
X0146194Y0061931D02*
X0149197Y0061931D01*
X0148446Y0059679D02*
X0148446Y0064183D01*
X0146194Y0061931D01*
X0144225Y0099049D02*
X0144225Y0099800D01*
X0147228Y0102802D01*
X0147228Y0103553D01*
X0144225Y0103553D01*
X0142624Y0102802D02*
X0142624Y0101301D01*
X0141873Y0100550D01*
X0139622Y0100550D01*
X0139622Y0099049D02*
X0139622Y0103553D01*
X0141873Y0103553D01*
X0142624Y0102802D01*
X0141123Y0100550D02*
X0142624Y0099049D01*
X0114965Y0109274D02*
X0110461Y0109274D01*
X0110461Y0111526D01*
X0111212Y0112277D01*
X0112713Y0112277D01*
X0113464Y0111526D01*
X0113464Y0109274D01*
X0113464Y0110776D02*
X0114965Y0112277D01*
X0114965Y0113878D02*
X0114965Y0116881D01*
X0114965Y0115380D02*
X0110461Y0115380D01*
X0111962Y0113878D01*
X0111212Y0118482D02*
X0110461Y0119233D01*
X0110461Y0120734D01*
X0111212Y0121485D01*
X0111962Y0121485D01*
X0114965Y0118482D01*
X0114965Y0121485D01*
X0096667Y0126212D02*
X0093664Y0126212D01*
X0095165Y0126212D02*
X0095165Y0130716D01*
X0093664Y0129215D01*
X0092063Y0129965D02*
X0091312Y0130716D01*
X0089811Y0130716D01*
X0089060Y0129965D01*
X0089060Y0126963D01*
X0089811Y0126212D01*
X0091312Y0126212D01*
X0092063Y0126963D01*
X0087492Y0126212D02*
X0085991Y0126212D01*
X0086741Y0126212D02*
X0086741Y0130716D01*
X0085991Y0130716D02*
X0087492Y0130716D01*
X0067721Y0118766D02*
X0066970Y0119516D01*
X0066219Y0119516D01*
X0065469Y0118766D01*
X0065469Y0116514D01*
X0066970Y0116514D01*
X0067721Y0117264D01*
X0067721Y0118766D01*
X0065469Y0116514D02*
X0063968Y0118015D01*
X0063217Y0119516D01*
X0063968Y0114912D02*
X0063217Y0114162D01*
X0063217Y0111910D01*
X0067721Y0111910D01*
X0066219Y0111910D02*
X0066219Y0114162D01*
X0065469Y0114912D01*
X0063968Y0114912D01*
X0066219Y0113411D02*
X0067721Y0114912D01*
X0067721Y0082115D02*
X0067721Y0079112D01*
X0064718Y0082115D01*
X0063968Y0082115D01*
X0063217Y0081364D01*
X0063217Y0079863D01*
X0063968Y0079112D01*
X0063968Y0077511D02*
X0065469Y0077511D01*
X0066219Y0076760D01*
X0066219Y0074508D01*
X0066219Y0076010D02*
X0067721Y0077511D01*
X0063968Y0077511D02*
X0063217Y0076760D01*
X0063217Y0074508D01*
X0067721Y0074508D01*
X0139267Y0130467D02*
X0140018Y0129716D01*
X0141519Y0129716D01*
X0142270Y0130467D01*
X0143871Y0129716D02*
X0146874Y0129716D01*
X0145372Y0129716D02*
X0145372Y0134220D01*
X0143871Y0132719D01*
X0142270Y0133469D02*
X0141519Y0134220D01*
X0140018Y0134220D01*
X0139267Y0133469D01*
X0139267Y0130467D01*
X0182448Y0130716D02*
X0183949Y0130716D01*
X0183198Y0130716D02*
X0183198Y0126212D01*
X0182448Y0126212D02*
X0183949Y0126212D01*
X0185517Y0126963D02*
X0186267Y0126212D01*
X0187769Y0126212D01*
X0188519Y0126963D01*
X0190121Y0126212D02*
X0193123Y0129215D01*
X0193123Y0129965D01*
X0192373Y0130716D01*
X0190871Y0130716D01*
X0190121Y0129965D01*
X0188519Y0129965D02*
X0187769Y0130716D01*
X0186267Y0130716D01*
X0185517Y0129965D01*
X0185517Y0126963D01*
X0190121Y0126212D02*
X0193123Y0126212D01*
X0190803Y0145745D02*
X0189302Y0145745D01*
X0188551Y0146496D01*
X0188551Y0147997D02*
X0190053Y0148748D01*
X0190803Y0148748D01*
X0191554Y0147997D01*
X0191554Y0146496D01*
X0190803Y0145745D01*
X0188551Y0147997D02*
X0188551Y0150249D01*
X0191554Y0150249D01*
X0186950Y0149498D02*
X0186950Y0147997D01*
X0186199Y0147247D01*
X0183948Y0147247D01*
X0185449Y0147247D02*
X0186950Y0145745D01*
X0183948Y0145745D02*
X0183948Y0150249D01*
X0186199Y0150249D01*
X0186950Y0149498D01*
X0214207Y0170573D02*
X0215960Y0169756D01*
X0215083Y0170165D02*
X0217536Y0175425D01*
X0216660Y0175834D02*
X0218413Y0175016D01*
X0220164Y0174200D02*
X0222794Y0172973D01*
X0223262Y0171688D01*
X0222445Y0169934D01*
X0221159Y0169466D01*
X0218529Y0170693D01*
X0220282Y0169875D02*
X0221218Y0167304D01*
X0223377Y0167365D02*
X0223845Y0166079D01*
X0225598Y0165262D01*
X0226884Y0165729D01*
X0228634Y0164913D02*
X0229102Y0163628D01*
X0230855Y0162810D01*
X0232141Y0163278D01*
X0234185Y0167662D01*
X0235935Y0166846D02*
X0237688Y0166028D01*
X0236811Y0166437D02*
X0234358Y0161177D01*
X0233482Y0161585D02*
X0235235Y0160768D01*
X0238740Y0159134D02*
X0241193Y0164394D01*
X0242946Y0163576D02*
X0239439Y0165212D01*
X0244287Y0161884D02*
X0242652Y0158377D01*
X0243120Y0157091D01*
X0244873Y0156274D01*
X0246159Y0156741D01*
X0247794Y0160248D01*
X0247326Y0161534D01*
X0245573Y0162352D01*
X0244287Y0161884D01*
X0249544Y0159432D02*
X0249135Y0158556D01*
X0249603Y0157270D01*
X0251356Y0156452D01*
X0251824Y0155167D01*
X0251415Y0154290D01*
X0250130Y0153822D01*
X0248376Y0154640D01*
X0247909Y0155925D01*
X0249544Y0159432D02*
X0250829Y0159900D01*
X0252583Y0159083D01*
X0253051Y0157797D01*
X0256901Y0163460D02*
X0254134Y0164750D01*
X0253642Y0166102D01*
X0254994Y0166594D01*
X0257761Y0165304D01*
X0258191Y0166226D02*
X0256901Y0163460D01*
X0259150Y0163534D02*
X0260010Y0165378D01*
X0261362Y0165870D01*
X0264129Y0164580D01*
X0264989Y0166425D02*
X0262409Y0160892D01*
X0259642Y0162182D01*
X0259150Y0163534D01*
X0258191Y0166226D02*
X0257699Y0167579D01*
X0255854Y0168439D01*
X0253113Y0169717D02*
X0250346Y0171007D01*
X0248994Y0170515D01*
X0248134Y0168671D01*
X0248626Y0167318D01*
X0251393Y0166028D01*
X0245877Y0168601D02*
X0244032Y0169461D01*
X0244955Y0169031D02*
X0246675Y0172719D01*
X0245752Y0173149D01*
X0243929Y0174000D02*
X0243007Y0174430D01*
X0240303Y0173445D01*
X0239443Y0171601D02*
X0241163Y0175290D01*
X0238914Y0175216D02*
X0238421Y0176568D01*
X0235655Y0177858D01*
X0236515Y0179702D02*
X0233935Y0174169D01*
X0236701Y0172879D01*
X0238054Y0173371D01*
X0238914Y0175216D01*
X0232976Y0176862D02*
X0230209Y0178152D01*
X0228857Y0177660D01*
X0229349Y0176307D01*
X0232116Y0175017D01*
X0233406Y0177784D01*
X0232914Y0179136D01*
X0231069Y0179996D01*
X0229188Y0183119D02*
X0225499Y0184839D01*
X0222919Y0179306D01*
X0224209Y0182072D02*
X0226054Y0181212D01*
X0220164Y0174200D02*
X0217711Y0168939D01*
X0212866Y0172266D02*
X0211580Y0171798D01*
X0209827Y0172616D01*
X0209359Y0173901D01*
X0210994Y0177408D01*
X0212280Y0177876D01*
X0214033Y0177059D01*
X0214501Y0175773D01*
X0225012Y0170872D02*
X0223377Y0167365D01*
X0226298Y0171340D02*
X0228051Y0170522D01*
X0228519Y0169236D01*
X0230678Y0169297D02*
X0228634Y0164913D01*
X0226298Y0171340D02*
X0225012Y0170872D01*
X0247535Y0174564D02*
X0247965Y0175486D01*
X0265518Y0162810D02*
X0264658Y0160966D01*
X0265150Y0159613D01*
X0266994Y0158753D01*
X0268346Y0159245D01*
X0269206Y0161090D01*
X0268714Y0162442D01*
X0266870Y0163302D01*
X0265518Y0162810D01*
X0261343Y0154998D02*
X0260057Y0154530D01*
X0258422Y0151023D01*
X0258890Y0149737D01*
X0260643Y0148920D01*
X0261929Y0149388D01*
X0264088Y0149448D02*
X0266718Y0148222D01*
X0268003Y0148690D01*
X0268821Y0150443D01*
X0268353Y0151729D01*
X0265723Y0152955D01*
X0263270Y0147695D01*
X0265841Y0148631D02*
X0266777Y0146060D01*
X0268527Y0145244D02*
X0272034Y0143608D01*
X0273784Y0142792D02*
X0275419Y0146299D01*
X0277990Y0147235D01*
X0278926Y0144664D01*
X0277290Y0141157D01*
X0280794Y0139523D02*
X0283247Y0144784D01*
X0281493Y0145601D02*
X0285000Y0143966D01*
X0286750Y0143150D02*
X0288504Y0142332D01*
X0287627Y0142741D02*
X0285174Y0137481D01*
X0284297Y0137890D02*
X0286051Y0137072D01*
X0288619Y0138009D02*
X0289555Y0135438D01*
X0292126Y0136374D01*
X0293762Y0139881D01*
X0295103Y0138188D02*
X0293467Y0134681D01*
X0293935Y0133395D01*
X0295689Y0132578D01*
X0296974Y0133046D01*
X0298609Y0136553D01*
X0298142Y0137838D01*
X0296388Y0138656D01*
X0295103Y0138188D01*
X0290255Y0141516D02*
X0288619Y0138009D01*
X0298724Y0132230D02*
X0299192Y0130944D01*
X0300945Y0130127D01*
X0302231Y0130594D01*
X0302640Y0131471D01*
X0302172Y0132757D01*
X0300418Y0133574D01*
X0299951Y0134860D01*
X0300359Y0135737D01*
X0301645Y0136205D01*
X0303398Y0135387D01*
X0303866Y0134101D01*
X0313327Y0125100D02*
X0314344Y0126118D01*
X0315362Y0126118D01*
X0319432Y0122048D01*
X0319432Y0126118D01*
X0313327Y0125100D02*
X0313327Y0123065D01*
X0314344Y0122048D01*
X0320449Y0120040D02*
X0320449Y0115970D01*
X0319432Y0113963D02*
X0319432Y0110911D01*
X0318414Y0109893D01*
X0317397Y0110911D01*
X0317397Y0113963D01*
X0316379Y0113963D02*
X0319432Y0113963D01*
X0316379Y0113963D02*
X0315362Y0112946D01*
X0315362Y0110911D01*
X0315362Y0107877D02*
X0315362Y0105842D01*
X0314344Y0106859D02*
X0318414Y0106859D01*
X0319432Y0107877D01*
X0319432Y0103835D02*
X0316379Y0103835D01*
X0315362Y0102817D01*
X0315362Y0099764D01*
X0319432Y0099764D01*
X0319432Y0097757D02*
X0316379Y0097757D01*
X0315362Y0096740D01*
X0315362Y0094705D01*
X0317397Y0094705D02*
X0317397Y0097757D01*
X0319432Y0097757D02*
X0319432Y0094705D01*
X0318414Y0093687D01*
X0317397Y0094705D01*
X0319432Y0091671D02*
X0319432Y0089636D01*
X0319432Y0090653D02*
X0313327Y0090653D01*
X0313327Y0089636D01*
X0314344Y0087629D02*
X0316379Y0087629D01*
X0317397Y0086611D01*
X0317397Y0083559D01*
X0319432Y0083559D02*
X0313327Y0083559D01*
X0313327Y0086611D01*
X0314344Y0087629D01*
X0327173Y0088254D02*
X0327173Y0086219D01*
X0328190Y0085201D01*
X0330225Y0085201D01*
X0331243Y0086219D01*
X0331243Y0088254D01*
X0329208Y0089271D02*
X0329208Y0085201D01*
X0327173Y0083189D02*
X0327173Y0082172D01*
X0329208Y0080137D01*
X0331243Y0080137D02*
X0327173Y0080137D01*
X0328190Y0078130D02*
X0327173Y0077112D01*
X0327173Y0074059D01*
X0325138Y0074059D02*
X0331243Y0074059D01*
X0331243Y0077112D01*
X0330225Y0078130D01*
X0328190Y0078130D01*
X0328190Y0072052D02*
X0327173Y0071035D01*
X0327173Y0069000D01*
X0328190Y0067982D01*
X0330225Y0067982D01*
X0331243Y0069000D01*
X0331243Y0071035D01*
X0330225Y0072052D01*
X0328190Y0072052D01*
X0329208Y0065975D02*
X0330225Y0065975D01*
X0331243Y0064958D01*
X0331243Y0062923D01*
X0330225Y0061905D01*
X0328190Y0062923D02*
X0328190Y0064958D01*
X0329208Y0065975D01*
X0326155Y0065975D02*
X0325138Y0064958D01*
X0325138Y0062923D01*
X0326155Y0061905D01*
X0327173Y0061905D01*
X0328190Y0062923D01*
X0327173Y0088254D02*
X0328190Y0089271D01*
X0329208Y0089271D01*
X0330225Y0091278D02*
X0329208Y0092296D01*
X0329208Y0095348D01*
X0328190Y0095348D02*
X0331243Y0095348D01*
X0331243Y0092296D01*
X0330225Y0091278D01*
X0327173Y0092296D02*
X0327173Y0094331D01*
X0328190Y0095348D01*
X0327173Y0097355D02*
X0327173Y0098373D01*
X0328190Y0099390D01*
X0327173Y0100408D01*
X0328190Y0101426D01*
X0331243Y0101426D01*
X0331243Y0099390D02*
X0328190Y0099390D01*
X0327173Y0097355D02*
X0331243Y0097355D01*
X0330225Y0103433D02*
X0331243Y0104450D01*
X0331243Y0106485D01*
X0330225Y0107503D01*
X0328190Y0107503D01*
X0327173Y0106485D01*
X0327173Y0104450D01*
X0328190Y0103433D01*
X0330225Y0103433D01*
X0329208Y0109510D02*
X0327173Y0111545D01*
X0327173Y0112562D01*
X0327173Y0114574D02*
X0327173Y0116609D01*
X0326155Y0115592D02*
X0330225Y0115592D01*
X0331243Y0116609D01*
X0331243Y0118626D02*
X0331243Y0120661D01*
X0331243Y0119643D02*
X0327173Y0119643D01*
X0327173Y0118626D01*
X0325138Y0119643D02*
X0324120Y0119643D01*
X0327173Y0123695D02*
X0328190Y0122677D01*
X0330225Y0122677D01*
X0331243Y0123695D01*
X0331243Y0126747D01*
X0332260Y0126747D02*
X0327173Y0126747D01*
X0327173Y0123695D01*
X0327173Y0128754D02*
X0330225Y0128754D01*
X0331243Y0129772D01*
X0331243Y0132824D01*
X0327173Y0132824D01*
X0327173Y0135849D02*
X0327173Y0137884D01*
X0328190Y0138902D01*
X0331243Y0138902D01*
X0331243Y0135849D01*
X0330225Y0134831D01*
X0329208Y0135849D01*
X0329208Y0138902D01*
X0330225Y0140909D02*
X0328190Y0140909D01*
X0327173Y0141926D01*
X0327173Y0144979D01*
X0325138Y0144979D02*
X0331243Y0144979D01*
X0331243Y0141926D01*
X0330225Y0140909D01*
X0330225Y0146986D02*
X0329208Y0148003D01*
X0329208Y0151056D01*
X0328190Y0151056D02*
X0331243Y0151056D01*
X0331243Y0148003D01*
X0330225Y0146986D01*
X0327173Y0148003D02*
X0327173Y0150038D01*
X0328190Y0151056D01*
X0293491Y0150889D02*
X0293061Y0149966D01*
X0292139Y0150396D01*
X0292569Y0151319D01*
X0293491Y0150889D01*
X0290745Y0152169D02*
X0289823Y0152599D01*
X0287119Y0151614D01*
X0286259Y0149770D02*
X0287979Y0153459D01*
X0285730Y0153385D02*
X0285238Y0154737D01*
X0283393Y0155597D01*
X0282041Y0155105D01*
X0281181Y0153261D01*
X0281673Y0151908D01*
X0283518Y0151048D01*
X0284870Y0151540D01*
X0285730Y0153385D01*
X0280222Y0155953D02*
X0279730Y0157305D01*
X0276963Y0158595D01*
X0274383Y0153062D01*
X0275243Y0154907D02*
X0278010Y0153617D01*
X0279362Y0154109D01*
X0280222Y0155953D01*
X0274487Y0148869D02*
X0270980Y0150504D01*
X0268527Y0145244D01*
X0269753Y0147874D02*
X0271507Y0147056D01*
X0275010Y0145422D02*
X0278517Y0143787D01*
X0290849Y0147630D02*
X0291279Y0148552D01*
X0292201Y0148122D01*
X0291771Y0147200D01*
X0290849Y0147630D01*
X0290798Y0130716D02*
X0291548Y0129965D01*
X0291548Y0129215D01*
X0290798Y0128464D01*
X0291548Y0127713D01*
X0291548Y0126963D01*
X0290798Y0126212D01*
X0289297Y0126212D01*
X0288546Y0126963D01*
X0286945Y0126963D02*
X0286194Y0126212D01*
X0284693Y0126212D01*
X0283942Y0126963D01*
X0283942Y0129965D01*
X0284693Y0130716D01*
X0286194Y0130716D01*
X0286945Y0129965D01*
X0288546Y0129965D02*
X0289297Y0130716D01*
X0290798Y0130716D01*
X0290798Y0128464D02*
X0290047Y0128464D01*
X0282374Y0126212D02*
X0280873Y0126212D01*
X0281623Y0126212D02*
X0281623Y0130716D01*
X0280873Y0130716D02*
X0282374Y0130716D01*
X0253308Y0119785D02*
X0253308Y0118283D01*
X0252557Y0117533D01*
X0251056Y0118283D02*
X0251056Y0120535D01*
X0252557Y0120535D02*
X0249555Y0120535D01*
X0248804Y0119785D01*
X0248804Y0118283D01*
X0249555Y0117533D01*
X0250306Y0117533D01*
X0251056Y0118283D01*
X0251056Y0115931D02*
X0249555Y0115931D01*
X0248804Y0115181D01*
X0248804Y0112929D01*
X0253308Y0112929D01*
X0251807Y0112929D02*
X0251807Y0115181D01*
X0251056Y0115931D01*
X0251807Y0114430D02*
X0253308Y0115931D01*
X0253308Y0119785D02*
X0252557Y0120535D01*
X0233055Y0129283D02*
X0230052Y0129283D01*
X0233055Y0132286D01*
X0233055Y0133036D01*
X0232304Y0133787D01*
X0230803Y0133787D01*
X0230052Y0133036D01*
X0228451Y0133036D02*
X0227700Y0133787D01*
X0226199Y0133787D01*
X0225448Y0133036D01*
X0225448Y0130034D01*
X0226199Y0129283D01*
X0227700Y0129283D01*
X0228451Y0130034D01*
X0261343Y0154998D02*
X0263096Y0154180D01*
X0263564Y0152894D01*
X0327173Y0109510D02*
X0331243Y0109510D01*
X0333278Y0124712D02*
X0333278Y0125730D01*
X0332260Y0126747D01*
X0253308Y0083050D02*
X0253308Y0081549D01*
X0252557Y0080798D01*
X0249555Y0083801D01*
X0252557Y0083801D01*
X0253308Y0083050D01*
X0252557Y0080798D02*
X0249555Y0080798D01*
X0248804Y0081549D01*
X0248804Y0083050D01*
X0249555Y0083801D01*
X0253308Y0079197D02*
X0253308Y0076194D01*
X0253308Y0077695D02*
X0248804Y0077695D01*
X0250306Y0076194D01*
X0251056Y0074593D02*
X0249555Y0074593D01*
X0248804Y0073842D01*
X0248804Y0071590D01*
X0253308Y0071590D01*
X0251807Y0071590D02*
X0251807Y0073842D01*
X0251056Y0074593D01*
X0251807Y0073091D02*
X0253308Y0074593D01*
X0237496Y0074879D02*
X0234494Y0074879D01*
X0235995Y0074879D02*
X0235995Y0079383D01*
X0234494Y0077882D01*
X0231391Y0079383D02*
X0231391Y0074879D01*
X0229890Y0074879D02*
X0232893Y0074879D01*
X0229890Y0077882D02*
X0231391Y0079383D01*
X0228289Y0078632D02*
X0228289Y0077131D01*
X0227538Y0076380D01*
X0225286Y0076380D01*
X0225286Y0074879D02*
X0225286Y0079383D01*
X0227538Y0079383D01*
X0228289Y0078632D01*
X0226787Y0076380D02*
X0228289Y0074879D01*
X0227255Y0098501D02*
X0227255Y0103005D01*
X0229507Y0103005D01*
X0230257Y0102254D01*
X0230257Y0100753D01*
X0229507Y0100002D01*
X0227255Y0100002D01*
X0228756Y0100002D02*
X0230257Y0098501D01*
X0231859Y0099252D02*
X0231859Y0100002D01*
X0232609Y0100753D01*
X0234110Y0100753D01*
X0234861Y0100002D01*
X0234861Y0099252D01*
X0234110Y0098501D01*
X0232609Y0098501D01*
X0231859Y0099252D01*
X0232609Y0100753D02*
X0231859Y0101504D01*
X0231859Y0102254D01*
X0232609Y0103005D01*
X0234110Y0103005D01*
X0234861Y0102254D01*
X0234861Y0101504D01*
X0234110Y0100753D01*
X0092110Y0148545D02*
X0089107Y0148545D01*
X0091359Y0150797D01*
X0091359Y0146293D01*
X0087506Y0146293D02*
X0086005Y0147795D01*
X0086755Y0147795D02*
X0084503Y0147795D01*
X0084503Y0146293D02*
X0084503Y0150797D01*
X0086755Y0150797D01*
X0087506Y0150047D01*
X0087506Y0148545D01*
X0086755Y0147795D01*
D11*
X0079142Y0031176D02*
X0079142Y0028541D01*
X0079142Y0029858D02*
X0087048Y0029858D01*
X0087048Y0028541D02*
X0087048Y0031176D01*
X0087048Y0033820D02*
X0079142Y0033820D01*
X0087048Y0039091D01*
X0079142Y0039091D01*
X0157882Y0038473D02*
X0157882Y0042426D01*
X0159199Y0043744D01*
X0164471Y0043744D01*
X0165788Y0042426D01*
X0165788Y0038473D01*
X0157882Y0038473D01*
X0157882Y0035825D02*
X0165788Y0035825D01*
X0157882Y0030554D01*
X0165788Y0030554D01*
X0164471Y0027906D02*
X0161835Y0027906D01*
X0161835Y0025271D01*
X0159199Y0027906D02*
X0157882Y0026588D01*
X0157882Y0023953D01*
X0159199Y0022635D01*
X0164471Y0022635D01*
X0165788Y0023953D01*
X0165788Y0026588D01*
X0164471Y0027906D01*
X0287803Y0028557D02*
X0287803Y0025921D01*
X0289121Y0024604D01*
X0294392Y0024604D01*
X0295710Y0025921D01*
X0295710Y0028557D01*
X0294392Y0029875D01*
X0289121Y0029875D01*
X0287803Y0028557D01*
X0287803Y0032522D02*
X0294392Y0032522D01*
X0295710Y0033840D01*
X0295710Y0036476D01*
X0294392Y0037793D01*
X0287803Y0037793D01*
X0287803Y0040441D02*
X0287803Y0045712D01*
X0287803Y0043077D02*
X0295710Y0043077D01*
X0291756Y0158462D02*
X0291756Y0163733D01*
X0290439Y0166381D02*
X0287803Y0169016D01*
X0295710Y0169016D01*
X0295710Y0166381D02*
X0295710Y0171652D01*
X0295710Y0174299D02*
X0290439Y0179570D01*
X0289121Y0179570D01*
X0287803Y0178253D01*
X0287803Y0175617D01*
X0289121Y0174299D01*
X0295710Y0174299D02*
X0295710Y0179570D01*
X0293074Y0182218D02*
X0295710Y0184854D01*
X0293074Y0187489D01*
X0287803Y0187489D01*
X0287803Y0182218D02*
X0293074Y0182218D01*
X0165788Y0182173D02*
X0165788Y0186127D01*
X0164471Y0187445D01*
X0159199Y0187445D01*
X0157882Y0186127D01*
X0157882Y0182173D01*
X0165788Y0182173D01*
X0165788Y0179526D02*
X0157882Y0179526D01*
X0157882Y0174255D02*
X0165788Y0179526D01*
X0165788Y0174255D02*
X0157882Y0174255D01*
X0159199Y0171607D02*
X0157882Y0170289D01*
X0157882Y0167654D01*
X0159199Y0166336D01*
X0164471Y0166336D01*
X0165788Y0167654D01*
X0165788Y0170289D01*
X0164471Y0171607D01*
X0161835Y0171607D01*
X0161835Y0168971D01*
X0087048Y0169016D02*
X0079142Y0169016D01*
X0081777Y0166381D01*
X0087048Y0166381D02*
X0087048Y0171652D01*
X0087048Y0174299D02*
X0081777Y0179570D01*
X0080459Y0179570D01*
X0079142Y0178253D01*
X0079142Y0175617D01*
X0080459Y0174299D01*
X0087048Y0174299D02*
X0087048Y0179570D01*
X0084413Y0182218D02*
X0087048Y0184854D01*
X0084413Y0187489D01*
X0079142Y0187489D01*
X0079142Y0182218D02*
X0084413Y0182218D01*
X0083095Y0163733D02*
X0083095Y0158462D01*
X0085730Y0161097D02*
X0080459Y0161097D01*
D12*
X0080367Y0144395D02*
X0081867Y0144395D01*
X0082367Y0143895D01*
X0096367Y0143895D01*
X0096867Y0144395D01*
X0098367Y0144395D01*
X0098427Y0144393D01*
X0098488Y0144388D01*
X0098547Y0144379D01*
X0098606Y0144366D01*
X0098665Y0144350D01*
X0098722Y0144330D01*
X0098777Y0144307D01*
X0098832Y0144280D01*
X0098884Y0144251D01*
X0098935Y0144218D01*
X0098984Y0144182D01*
X0099030Y0144144D01*
X0099074Y0144102D01*
X0099116Y0144058D01*
X0099154Y0144012D01*
X0099190Y0143963D01*
X0099223Y0143912D01*
X0099252Y0143860D01*
X0099279Y0143805D01*
X0099302Y0143750D01*
X0099322Y0143693D01*
X0099338Y0143634D01*
X0099351Y0143575D01*
X0099360Y0143516D01*
X0099365Y0143455D01*
X0099367Y0143395D01*
X0099367Y0137395D01*
X0099365Y0137335D01*
X0099360Y0137274D01*
X0099351Y0137215D01*
X0099338Y0137156D01*
X0099322Y0137097D01*
X0099302Y0137040D01*
X0099279Y0136985D01*
X0099252Y0136930D01*
X0099223Y0136878D01*
X0099190Y0136827D01*
X0099154Y0136778D01*
X0099116Y0136732D01*
X0099074Y0136688D01*
X0099030Y0136646D01*
X0098984Y0136608D01*
X0098935Y0136572D01*
X0098884Y0136539D01*
X0098832Y0136510D01*
X0098777Y0136483D01*
X0098722Y0136460D01*
X0098665Y0136440D01*
X0098606Y0136424D01*
X0098547Y0136411D01*
X0098488Y0136402D01*
X0098427Y0136397D01*
X0098367Y0136395D01*
X0096867Y0136395D01*
X0096367Y0136895D01*
X0082367Y0136895D01*
X0081867Y0136395D01*
X0080367Y0136395D01*
X0080307Y0136397D01*
X0080246Y0136402D01*
X0080187Y0136411D01*
X0080128Y0136424D01*
X0080069Y0136440D01*
X0080012Y0136460D01*
X0079957Y0136483D01*
X0079902Y0136510D01*
X0079850Y0136539D01*
X0079799Y0136572D01*
X0079750Y0136608D01*
X0079704Y0136646D01*
X0079660Y0136688D01*
X0079618Y0136732D01*
X0079580Y0136778D01*
X0079544Y0136827D01*
X0079511Y0136878D01*
X0079482Y0136930D01*
X0079455Y0136985D01*
X0079432Y0137040D01*
X0079412Y0137097D01*
X0079396Y0137156D01*
X0079383Y0137215D01*
X0079374Y0137274D01*
X0079369Y0137335D01*
X0079367Y0137395D01*
X0079367Y0143395D01*
X0079369Y0143455D01*
X0079374Y0143516D01*
X0079383Y0143575D01*
X0079396Y0143634D01*
X0079412Y0143693D01*
X0079432Y0143750D01*
X0079455Y0143805D01*
X0079482Y0143860D01*
X0079511Y0143912D01*
X0079544Y0143963D01*
X0079580Y0144012D01*
X0079618Y0144058D01*
X0079660Y0144102D01*
X0079704Y0144144D01*
X0079750Y0144182D01*
X0079799Y0144218D01*
X0079850Y0144251D01*
X0079902Y0144280D01*
X0079957Y0144307D01*
X0080012Y0144330D01*
X0080069Y0144350D01*
X0080128Y0144366D01*
X0080187Y0144379D01*
X0080246Y0144388D01*
X0080307Y0144393D01*
X0080367Y0144395D01*
X0061871Y0125773D02*
X0061871Y0124273D01*
X0061371Y0123773D01*
X0061371Y0109773D01*
X0061871Y0109273D01*
X0061871Y0107773D01*
X0061869Y0107713D01*
X0061864Y0107652D01*
X0061855Y0107593D01*
X0061842Y0107534D01*
X0061826Y0107475D01*
X0061806Y0107418D01*
X0061783Y0107363D01*
X0061756Y0107308D01*
X0061727Y0107256D01*
X0061694Y0107205D01*
X0061658Y0107156D01*
X0061620Y0107110D01*
X0061578Y0107066D01*
X0061534Y0107024D01*
X0061488Y0106986D01*
X0061439Y0106950D01*
X0061388Y0106917D01*
X0061336Y0106888D01*
X0061281Y0106861D01*
X0061226Y0106838D01*
X0061169Y0106818D01*
X0061110Y0106802D01*
X0061051Y0106789D01*
X0060992Y0106780D01*
X0060931Y0106775D01*
X0060871Y0106773D01*
X0054871Y0106773D01*
X0054811Y0106775D01*
X0054750Y0106780D01*
X0054691Y0106789D01*
X0054632Y0106802D01*
X0054573Y0106818D01*
X0054516Y0106838D01*
X0054461Y0106861D01*
X0054406Y0106888D01*
X0054354Y0106917D01*
X0054303Y0106950D01*
X0054254Y0106986D01*
X0054208Y0107024D01*
X0054164Y0107066D01*
X0054122Y0107110D01*
X0054084Y0107156D01*
X0054048Y0107205D01*
X0054015Y0107256D01*
X0053986Y0107308D01*
X0053959Y0107363D01*
X0053936Y0107418D01*
X0053916Y0107475D01*
X0053900Y0107534D01*
X0053887Y0107593D01*
X0053878Y0107652D01*
X0053873Y0107713D01*
X0053871Y0107773D01*
X0053871Y0109273D01*
X0054371Y0109773D01*
X0054371Y0123773D01*
X0053871Y0124273D01*
X0053871Y0125773D01*
X0053873Y0125833D01*
X0053878Y0125894D01*
X0053887Y0125953D01*
X0053900Y0126012D01*
X0053916Y0126071D01*
X0053936Y0126128D01*
X0053959Y0126183D01*
X0053986Y0126238D01*
X0054015Y0126290D01*
X0054048Y0126341D01*
X0054084Y0126390D01*
X0054122Y0126436D01*
X0054164Y0126480D01*
X0054208Y0126522D01*
X0054254Y0126560D01*
X0054303Y0126596D01*
X0054354Y0126629D01*
X0054406Y0126658D01*
X0054461Y0126685D01*
X0054516Y0126708D01*
X0054573Y0126728D01*
X0054632Y0126744D01*
X0054691Y0126757D01*
X0054750Y0126766D01*
X0054811Y0126771D01*
X0054871Y0126773D01*
X0060871Y0126773D01*
X0060931Y0126771D01*
X0060992Y0126766D01*
X0061051Y0126757D01*
X0061110Y0126744D01*
X0061169Y0126728D01*
X0061226Y0126708D01*
X0061281Y0126685D01*
X0061336Y0126658D01*
X0061388Y0126629D01*
X0061439Y0126596D01*
X0061488Y0126560D01*
X0061534Y0126522D01*
X0061578Y0126480D01*
X0061620Y0126436D01*
X0061658Y0126390D01*
X0061694Y0126341D01*
X0061727Y0126290D01*
X0061756Y0126238D01*
X0061783Y0126183D01*
X0061806Y0126128D01*
X0061826Y0126071D01*
X0061842Y0126012D01*
X0061855Y0125953D01*
X0061864Y0125894D01*
X0061869Y0125833D01*
X0061871Y0125773D01*
X0077867Y0124962D02*
X0085367Y0124962D01*
X0085369Y0124836D01*
X0085375Y0124711D01*
X0085385Y0124586D01*
X0085399Y0124461D01*
X0085416Y0124336D01*
X0085438Y0124212D01*
X0085463Y0124089D01*
X0085493Y0123967D01*
X0085526Y0123846D01*
X0085563Y0123726D01*
X0085603Y0123607D01*
X0085648Y0123490D01*
X0085696Y0123373D01*
X0085748Y0123259D01*
X0085803Y0123146D01*
X0085862Y0123035D01*
X0085924Y0122926D01*
X0085990Y0122819D01*
X0086059Y0122714D01*
X0086131Y0122611D01*
X0086206Y0122510D01*
X0086285Y0122412D01*
X0086367Y0122317D01*
X0086451Y0122224D01*
X0086539Y0122134D01*
X0086629Y0122046D01*
X0086722Y0121962D01*
X0086817Y0121880D01*
X0086915Y0121801D01*
X0087016Y0121726D01*
X0087119Y0121654D01*
X0087224Y0121585D01*
X0087331Y0121519D01*
X0087440Y0121457D01*
X0087551Y0121398D01*
X0087664Y0121343D01*
X0087778Y0121291D01*
X0087895Y0121243D01*
X0088012Y0121198D01*
X0088131Y0121158D01*
X0088251Y0121121D01*
X0088372Y0121088D01*
X0088494Y0121058D01*
X0088617Y0121033D01*
X0088741Y0121011D01*
X0088866Y0120994D01*
X0088991Y0120980D01*
X0089116Y0120970D01*
X0089241Y0120964D01*
X0089367Y0120962D01*
X0089493Y0120964D01*
X0089618Y0120970D01*
X0089743Y0120980D01*
X0089868Y0120994D01*
X0089993Y0121011D01*
X0090117Y0121033D01*
X0090240Y0121058D01*
X0090362Y0121088D01*
X0090483Y0121121D01*
X0090603Y0121158D01*
X0090722Y0121198D01*
X0090839Y0121243D01*
X0090956Y0121291D01*
X0091070Y0121343D01*
X0091183Y0121398D01*
X0091294Y0121457D01*
X0091403Y0121519D01*
X0091510Y0121585D01*
X0091615Y0121654D01*
X0091718Y0121726D01*
X0091819Y0121801D01*
X0091917Y0121880D01*
X0092012Y0121962D01*
X0092105Y0122046D01*
X0092195Y0122134D01*
X0092283Y0122224D01*
X0092367Y0122317D01*
X0092449Y0122412D01*
X0092528Y0122510D01*
X0092603Y0122611D01*
X0092675Y0122714D01*
X0092744Y0122819D01*
X0092810Y0122926D01*
X0092872Y0123035D01*
X0092931Y0123146D01*
X0092986Y0123259D01*
X0093038Y0123373D01*
X0093086Y0123490D01*
X0093131Y0123607D01*
X0093171Y0123726D01*
X0093208Y0123846D01*
X0093241Y0123967D01*
X0093271Y0124089D01*
X0093296Y0124212D01*
X0093318Y0124336D01*
X0093335Y0124461D01*
X0093349Y0124586D01*
X0093359Y0124711D01*
X0093365Y0124836D01*
X0093367Y0124962D01*
X0100867Y0124962D01*
X0100867Y0084962D01*
X0077867Y0084962D01*
X0077867Y0124962D01*
X0116863Y0124273D02*
X0117363Y0123773D01*
X0117363Y0109773D01*
X0116863Y0109273D01*
X0116863Y0107773D01*
X0116865Y0107713D01*
X0116870Y0107652D01*
X0116879Y0107593D01*
X0116892Y0107534D01*
X0116908Y0107475D01*
X0116928Y0107418D01*
X0116951Y0107363D01*
X0116978Y0107308D01*
X0117007Y0107256D01*
X0117040Y0107205D01*
X0117076Y0107156D01*
X0117114Y0107110D01*
X0117156Y0107066D01*
X0117200Y0107024D01*
X0117246Y0106986D01*
X0117295Y0106950D01*
X0117346Y0106917D01*
X0117398Y0106888D01*
X0117453Y0106861D01*
X0117508Y0106838D01*
X0117565Y0106818D01*
X0117624Y0106802D01*
X0117683Y0106789D01*
X0117742Y0106780D01*
X0117803Y0106775D01*
X0117863Y0106773D01*
X0123863Y0106773D01*
X0123923Y0106775D01*
X0123984Y0106780D01*
X0124043Y0106789D01*
X0124102Y0106802D01*
X0124161Y0106818D01*
X0124218Y0106838D01*
X0124273Y0106861D01*
X0124328Y0106888D01*
X0124380Y0106917D01*
X0124431Y0106950D01*
X0124480Y0106986D01*
X0124526Y0107024D01*
X0124570Y0107066D01*
X0124612Y0107110D01*
X0124650Y0107156D01*
X0124686Y0107205D01*
X0124719Y0107256D01*
X0124748Y0107308D01*
X0124775Y0107363D01*
X0124798Y0107418D01*
X0124818Y0107475D01*
X0124834Y0107534D01*
X0124847Y0107593D01*
X0124856Y0107652D01*
X0124861Y0107713D01*
X0124863Y0107773D01*
X0124863Y0109273D01*
X0124363Y0109773D01*
X0124363Y0123773D01*
X0124863Y0124273D01*
X0124863Y0125773D01*
X0124861Y0125833D01*
X0124856Y0125894D01*
X0124847Y0125953D01*
X0124834Y0126012D01*
X0124818Y0126071D01*
X0124798Y0126128D01*
X0124775Y0126183D01*
X0124748Y0126238D01*
X0124719Y0126290D01*
X0124686Y0126341D01*
X0124650Y0126390D01*
X0124612Y0126436D01*
X0124570Y0126480D01*
X0124526Y0126522D01*
X0124480Y0126560D01*
X0124431Y0126596D01*
X0124380Y0126629D01*
X0124328Y0126658D01*
X0124273Y0126685D01*
X0124218Y0126708D01*
X0124161Y0126728D01*
X0124102Y0126744D01*
X0124043Y0126757D01*
X0123984Y0126766D01*
X0123923Y0126771D01*
X0123863Y0126773D01*
X0117863Y0126773D01*
X0117803Y0126771D01*
X0117742Y0126766D01*
X0117683Y0126757D01*
X0117624Y0126744D01*
X0117565Y0126728D01*
X0117508Y0126708D01*
X0117453Y0126685D01*
X0117398Y0126658D01*
X0117346Y0126629D01*
X0117295Y0126596D01*
X0117246Y0126560D01*
X0117200Y0126522D01*
X0117156Y0126480D01*
X0117114Y0126436D01*
X0117076Y0126390D01*
X0117040Y0126341D01*
X0117007Y0126290D01*
X0116978Y0126238D01*
X0116951Y0126183D01*
X0116928Y0126128D01*
X0116908Y0126071D01*
X0116892Y0126012D01*
X0116879Y0125953D01*
X0116870Y0125894D01*
X0116865Y0125833D01*
X0116863Y0125773D01*
X0116863Y0124273D01*
X0136485Y0112773D02*
X0138485Y0112773D01*
X0137485Y0111773D02*
X0137485Y0113773D01*
X0134485Y0116773D02*
X0134488Y0117018D01*
X0134497Y0117264D01*
X0134512Y0117509D01*
X0134533Y0117753D01*
X0134560Y0117997D01*
X0134593Y0118240D01*
X0134632Y0118483D01*
X0134677Y0118724D01*
X0134728Y0118964D01*
X0134785Y0119203D01*
X0134847Y0119440D01*
X0134916Y0119676D01*
X0134990Y0119910D01*
X0135070Y0120142D01*
X0135155Y0120372D01*
X0135246Y0120600D01*
X0135343Y0120825D01*
X0135445Y0121049D01*
X0135553Y0121269D01*
X0135666Y0121487D01*
X0135784Y0121702D01*
X0135908Y0121914D01*
X0136036Y0122123D01*
X0136170Y0122329D01*
X0136309Y0122531D01*
X0136453Y0122730D01*
X0136602Y0122925D01*
X0136755Y0123117D01*
X0136913Y0123305D01*
X0137075Y0123489D01*
X0137243Y0123668D01*
X0137414Y0123844D01*
X0137590Y0124015D01*
X0137769Y0124183D01*
X0137953Y0124345D01*
X0138141Y0124503D01*
X0138333Y0124656D01*
X0138528Y0124805D01*
X0138727Y0124949D01*
X0138929Y0125088D01*
X0139135Y0125222D01*
X0139344Y0125350D01*
X0139556Y0125474D01*
X0139771Y0125592D01*
X0139989Y0125705D01*
X0140209Y0125813D01*
X0140433Y0125915D01*
X0140658Y0126012D01*
X0140886Y0126103D01*
X0141116Y0126188D01*
X0141348Y0126268D01*
X0141582Y0126342D01*
X0141818Y0126411D01*
X0142055Y0126473D01*
X0142294Y0126530D01*
X0142534Y0126581D01*
X0142775Y0126626D01*
X0143018Y0126665D01*
X0143261Y0126698D01*
X0143505Y0126725D01*
X0143749Y0126746D01*
X0143994Y0126761D01*
X0144240Y0126770D01*
X0144485Y0126773D01*
X0144730Y0126770D01*
X0144976Y0126761D01*
X0145221Y0126746D01*
X0145465Y0126725D01*
X0145709Y0126698D01*
X0145952Y0126665D01*
X0146195Y0126626D01*
X0146436Y0126581D01*
X0146676Y0126530D01*
X0146915Y0126473D01*
X0147152Y0126411D01*
X0147388Y0126342D01*
X0147622Y0126268D01*
X0147854Y0126188D01*
X0148084Y0126103D01*
X0148312Y0126012D01*
X0148537Y0125915D01*
X0148761Y0125813D01*
X0148981Y0125705D01*
X0149199Y0125592D01*
X0149414Y0125474D01*
X0149626Y0125350D01*
X0149835Y0125222D01*
X0150041Y0125088D01*
X0150243Y0124949D01*
X0150442Y0124805D01*
X0150637Y0124656D01*
X0150829Y0124503D01*
X0151017Y0124345D01*
X0151201Y0124183D01*
X0151380Y0124015D01*
X0151556Y0123844D01*
X0151727Y0123668D01*
X0151895Y0123489D01*
X0152057Y0123305D01*
X0152215Y0123117D01*
X0152368Y0122925D01*
X0152517Y0122730D01*
X0152661Y0122531D01*
X0152800Y0122329D01*
X0152934Y0122123D01*
X0153062Y0121914D01*
X0153186Y0121702D01*
X0153304Y0121487D01*
X0153417Y0121269D01*
X0153525Y0121049D01*
X0153627Y0120825D01*
X0153724Y0120600D01*
X0153815Y0120372D01*
X0153900Y0120142D01*
X0153980Y0119910D01*
X0154054Y0119676D01*
X0154123Y0119440D01*
X0154185Y0119203D01*
X0154242Y0118964D01*
X0154293Y0118724D01*
X0154338Y0118483D01*
X0154377Y0118240D01*
X0154410Y0117997D01*
X0154437Y0117753D01*
X0154458Y0117509D01*
X0154473Y0117264D01*
X0154482Y0117018D01*
X0154485Y0116773D01*
X0154482Y0116528D01*
X0154473Y0116282D01*
X0154458Y0116037D01*
X0154437Y0115793D01*
X0154410Y0115549D01*
X0154377Y0115306D01*
X0154338Y0115063D01*
X0154293Y0114822D01*
X0154242Y0114582D01*
X0154185Y0114343D01*
X0154123Y0114106D01*
X0154054Y0113870D01*
X0153980Y0113636D01*
X0153900Y0113404D01*
X0153815Y0113174D01*
X0153724Y0112946D01*
X0153627Y0112721D01*
X0153525Y0112497D01*
X0153417Y0112277D01*
X0153304Y0112059D01*
X0153186Y0111844D01*
X0153062Y0111632D01*
X0152934Y0111423D01*
X0152800Y0111217D01*
X0152661Y0111015D01*
X0152517Y0110816D01*
X0152368Y0110621D01*
X0152215Y0110429D01*
X0152057Y0110241D01*
X0151895Y0110057D01*
X0151727Y0109878D01*
X0151556Y0109702D01*
X0151380Y0109531D01*
X0151201Y0109363D01*
X0151017Y0109201D01*
X0150829Y0109043D01*
X0150637Y0108890D01*
X0150442Y0108741D01*
X0150243Y0108597D01*
X0150041Y0108458D01*
X0149835Y0108324D01*
X0149626Y0108196D01*
X0149414Y0108072D01*
X0149199Y0107954D01*
X0148981Y0107841D01*
X0148761Y0107733D01*
X0148537Y0107631D01*
X0148312Y0107534D01*
X0148084Y0107443D01*
X0147854Y0107358D01*
X0147622Y0107278D01*
X0147388Y0107204D01*
X0147152Y0107135D01*
X0146915Y0107073D01*
X0146676Y0107016D01*
X0146436Y0106965D01*
X0146195Y0106920D01*
X0145952Y0106881D01*
X0145709Y0106848D01*
X0145465Y0106821D01*
X0145221Y0106800D01*
X0144976Y0106785D01*
X0144730Y0106776D01*
X0144485Y0106773D01*
X0144240Y0106776D01*
X0143994Y0106785D01*
X0143749Y0106800D01*
X0143505Y0106821D01*
X0143261Y0106848D01*
X0143018Y0106881D01*
X0142775Y0106920D01*
X0142534Y0106965D01*
X0142294Y0107016D01*
X0142055Y0107073D01*
X0141818Y0107135D01*
X0141582Y0107204D01*
X0141348Y0107278D01*
X0141116Y0107358D01*
X0140886Y0107443D01*
X0140658Y0107534D01*
X0140433Y0107631D01*
X0140209Y0107733D01*
X0139989Y0107841D01*
X0139771Y0107954D01*
X0139556Y0108072D01*
X0139344Y0108196D01*
X0139135Y0108324D01*
X0138929Y0108458D01*
X0138727Y0108597D01*
X0138528Y0108741D01*
X0138333Y0108890D01*
X0138141Y0109043D01*
X0137953Y0109201D01*
X0137769Y0109363D01*
X0137590Y0109531D01*
X0137414Y0109702D01*
X0137243Y0109878D01*
X0137075Y0110057D01*
X0136913Y0110241D01*
X0136755Y0110429D01*
X0136602Y0110621D01*
X0136453Y0110816D01*
X0136309Y0111015D01*
X0136170Y0111217D01*
X0136036Y0111423D01*
X0135908Y0111632D01*
X0135784Y0111844D01*
X0135666Y0112059D01*
X0135553Y0112277D01*
X0135445Y0112497D01*
X0135343Y0112721D01*
X0135246Y0112946D01*
X0135155Y0113174D01*
X0135070Y0113404D01*
X0134990Y0113636D01*
X0134916Y0113870D01*
X0134847Y0114106D01*
X0134785Y0114343D01*
X0134728Y0114582D01*
X0134677Y0114822D01*
X0134632Y0115063D01*
X0134593Y0115306D01*
X0134560Y0115549D01*
X0134533Y0115793D01*
X0134512Y0116037D01*
X0134497Y0116282D01*
X0134488Y0116528D01*
X0134485Y0116773D01*
X0135485Y0097151D02*
X0136985Y0097151D01*
X0137485Y0096651D01*
X0151485Y0096651D01*
X0151985Y0097151D01*
X0153485Y0097151D01*
X0153545Y0097149D01*
X0153606Y0097144D01*
X0153665Y0097135D01*
X0153724Y0097122D01*
X0153783Y0097106D01*
X0153840Y0097086D01*
X0153895Y0097063D01*
X0153950Y0097036D01*
X0154002Y0097007D01*
X0154053Y0096974D01*
X0154102Y0096938D01*
X0154148Y0096900D01*
X0154192Y0096858D01*
X0154234Y0096814D01*
X0154272Y0096768D01*
X0154308Y0096719D01*
X0154341Y0096668D01*
X0154370Y0096616D01*
X0154397Y0096561D01*
X0154420Y0096506D01*
X0154440Y0096449D01*
X0154456Y0096390D01*
X0154469Y0096331D01*
X0154478Y0096272D01*
X0154483Y0096211D01*
X0154485Y0096151D01*
X0154485Y0090151D01*
X0154483Y0090091D01*
X0154478Y0090030D01*
X0154469Y0089971D01*
X0154456Y0089912D01*
X0154440Y0089853D01*
X0154420Y0089796D01*
X0154397Y0089741D01*
X0154370Y0089686D01*
X0154341Y0089634D01*
X0154308Y0089583D01*
X0154272Y0089534D01*
X0154234Y0089488D01*
X0154192Y0089444D01*
X0154148Y0089402D01*
X0154102Y0089364D01*
X0154053Y0089328D01*
X0154002Y0089295D01*
X0153950Y0089266D01*
X0153895Y0089239D01*
X0153840Y0089216D01*
X0153783Y0089196D01*
X0153724Y0089180D01*
X0153665Y0089167D01*
X0153606Y0089158D01*
X0153545Y0089153D01*
X0153485Y0089151D01*
X0151985Y0089151D01*
X0151485Y0089651D01*
X0137485Y0089651D01*
X0136985Y0089151D01*
X0135485Y0089151D01*
X0135425Y0089153D01*
X0135364Y0089158D01*
X0135305Y0089167D01*
X0135246Y0089180D01*
X0135187Y0089196D01*
X0135130Y0089216D01*
X0135075Y0089239D01*
X0135020Y0089266D01*
X0134968Y0089295D01*
X0134917Y0089328D01*
X0134868Y0089364D01*
X0134822Y0089402D01*
X0134778Y0089444D01*
X0134736Y0089488D01*
X0134698Y0089534D01*
X0134662Y0089583D01*
X0134629Y0089634D01*
X0134600Y0089686D01*
X0134573Y0089741D01*
X0134550Y0089796D01*
X0134530Y0089853D01*
X0134514Y0089912D01*
X0134501Y0089971D01*
X0134492Y0090030D01*
X0134487Y0090091D01*
X0134485Y0090151D01*
X0134485Y0096151D01*
X0134487Y0096211D01*
X0134492Y0096272D01*
X0134501Y0096331D01*
X0134514Y0096390D01*
X0134530Y0096449D01*
X0134550Y0096506D01*
X0134573Y0096561D01*
X0134600Y0096616D01*
X0134629Y0096668D01*
X0134662Y0096719D01*
X0134698Y0096768D01*
X0134736Y0096814D01*
X0134778Y0096858D01*
X0134822Y0096900D01*
X0134868Y0096938D01*
X0134917Y0096974D01*
X0134968Y0097007D01*
X0135020Y0097036D01*
X0135075Y0097063D01*
X0135130Y0097086D01*
X0135187Y0097106D01*
X0135246Y0097122D01*
X0135305Y0097135D01*
X0135364Y0097144D01*
X0135425Y0097149D01*
X0135485Y0097151D01*
X0123863Y0087403D02*
X0117863Y0087403D01*
X0117803Y0087401D01*
X0117742Y0087396D01*
X0117683Y0087387D01*
X0117624Y0087374D01*
X0117565Y0087358D01*
X0117508Y0087338D01*
X0117453Y0087315D01*
X0117398Y0087288D01*
X0117346Y0087259D01*
X0117295Y0087226D01*
X0117246Y0087190D01*
X0117200Y0087152D01*
X0117156Y0087110D01*
X0117114Y0087066D01*
X0117076Y0087020D01*
X0117040Y0086971D01*
X0117007Y0086920D01*
X0116978Y0086868D01*
X0116951Y0086813D01*
X0116928Y0086758D01*
X0116908Y0086701D01*
X0116892Y0086642D01*
X0116879Y0086583D01*
X0116870Y0086524D01*
X0116865Y0086463D01*
X0116863Y0086403D01*
X0116863Y0084903D01*
X0117363Y0084403D01*
X0117363Y0070403D01*
X0116863Y0069903D01*
X0116863Y0068403D01*
X0116865Y0068343D01*
X0116870Y0068282D01*
X0116879Y0068223D01*
X0116892Y0068164D01*
X0116908Y0068105D01*
X0116928Y0068048D01*
X0116951Y0067993D01*
X0116978Y0067938D01*
X0117007Y0067886D01*
X0117040Y0067835D01*
X0117076Y0067786D01*
X0117114Y0067740D01*
X0117156Y0067696D01*
X0117200Y0067654D01*
X0117246Y0067616D01*
X0117295Y0067580D01*
X0117346Y0067547D01*
X0117398Y0067518D01*
X0117453Y0067491D01*
X0117508Y0067468D01*
X0117565Y0067448D01*
X0117624Y0067432D01*
X0117683Y0067419D01*
X0117742Y0067410D01*
X0117803Y0067405D01*
X0117863Y0067403D01*
X0123863Y0067403D01*
X0123923Y0067405D01*
X0123984Y0067410D01*
X0124043Y0067419D01*
X0124102Y0067432D01*
X0124161Y0067448D01*
X0124218Y0067468D01*
X0124273Y0067491D01*
X0124328Y0067518D01*
X0124380Y0067547D01*
X0124431Y0067580D01*
X0124480Y0067616D01*
X0124526Y0067654D01*
X0124570Y0067696D01*
X0124612Y0067740D01*
X0124650Y0067786D01*
X0124686Y0067835D01*
X0124719Y0067886D01*
X0124748Y0067938D01*
X0124775Y0067993D01*
X0124798Y0068048D01*
X0124818Y0068105D01*
X0124834Y0068164D01*
X0124847Y0068223D01*
X0124856Y0068282D01*
X0124861Y0068343D01*
X0124863Y0068403D01*
X0124863Y0069903D01*
X0124363Y0070403D01*
X0124363Y0084403D01*
X0124863Y0084903D01*
X0124863Y0086403D01*
X0124861Y0086463D01*
X0124856Y0086524D01*
X0124847Y0086583D01*
X0124834Y0086642D01*
X0124818Y0086701D01*
X0124798Y0086758D01*
X0124775Y0086813D01*
X0124748Y0086868D01*
X0124719Y0086920D01*
X0124686Y0086971D01*
X0124650Y0087020D01*
X0124612Y0087066D01*
X0124570Y0087110D01*
X0124526Y0087152D01*
X0124480Y0087190D01*
X0124431Y0087226D01*
X0124380Y0087259D01*
X0124328Y0087288D01*
X0124273Y0087315D01*
X0124218Y0087338D01*
X0124161Y0087358D01*
X0124102Y0087374D01*
X0124043Y0087387D01*
X0123984Y0087396D01*
X0123923Y0087401D01*
X0123863Y0087403D01*
X0135485Y0073529D02*
X0136985Y0073529D01*
X0137485Y0073029D01*
X0151485Y0073029D01*
X0151985Y0073529D01*
X0153485Y0073529D01*
X0153545Y0073527D01*
X0153606Y0073522D01*
X0153665Y0073513D01*
X0153724Y0073500D01*
X0153783Y0073484D01*
X0153840Y0073464D01*
X0153895Y0073441D01*
X0153950Y0073414D01*
X0154002Y0073385D01*
X0154053Y0073352D01*
X0154102Y0073316D01*
X0154148Y0073278D01*
X0154192Y0073236D01*
X0154234Y0073192D01*
X0154272Y0073146D01*
X0154308Y0073097D01*
X0154341Y0073046D01*
X0154370Y0072994D01*
X0154397Y0072939D01*
X0154420Y0072884D01*
X0154440Y0072827D01*
X0154456Y0072768D01*
X0154469Y0072709D01*
X0154478Y0072650D01*
X0154483Y0072589D01*
X0154485Y0072529D01*
X0154485Y0066529D01*
X0154483Y0066469D01*
X0154478Y0066408D01*
X0154469Y0066349D01*
X0154456Y0066290D01*
X0154440Y0066231D01*
X0154420Y0066174D01*
X0154397Y0066119D01*
X0154370Y0066064D01*
X0154341Y0066012D01*
X0154308Y0065961D01*
X0154272Y0065912D01*
X0154234Y0065866D01*
X0154192Y0065822D01*
X0154148Y0065780D01*
X0154102Y0065742D01*
X0154053Y0065706D01*
X0154002Y0065673D01*
X0153950Y0065644D01*
X0153895Y0065617D01*
X0153840Y0065594D01*
X0153783Y0065574D01*
X0153724Y0065558D01*
X0153665Y0065545D01*
X0153606Y0065536D01*
X0153545Y0065531D01*
X0153485Y0065529D01*
X0151985Y0065529D01*
X0151485Y0066029D01*
X0137485Y0066029D01*
X0136985Y0065529D01*
X0135485Y0065529D01*
X0135425Y0065531D01*
X0135364Y0065536D01*
X0135305Y0065545D01*
X0135246Y0065558D01*
X0135187Y0065574D01*
X0135130Y0065594D01*
X0135075Y0065617D01*
X0135020Y0065644D01*
X0134968Y0065673D01*
X0134917Y0065706D01*
X0134868Y0065742D01*
X0134822Y0065780D01*
X0134778Y0065822D01*
X0134736Y0065866D01*
X0134698Y0065912D01*
X0134662Y0065961D01*
X0134629Y0066012D01*
X0134600Y0066064D01*
X0134573Y0066119D01*
X0134550Y0066174D01*
X0134530Y0066231D01*
X0134514Y0066290D01*
X0134501Y0066349D01*
X0134492Y0066408D01*
X0134487Y0066469D01*
X0134485Y0066529D01*
X0134485Y0072529D01*
X0134487Y0072589D01*
X0134492Y0072650D01*
X0134501Y0072709D01*
X0134514Y0072768D01*
X0134530Y0072827D01*
X0134550Y0072884D01*
X0134573Y0072939D01*
X0134600Y0072994D01*
X0134629Y0073046D01*
X0134662Y0073097D01*
X0134698Y0073146D01*
X0134736Y0073192D01*
X0134778Y0073236D01*
X0134822Y0073278D01*
X0134868Y0073316D01*
X0134917Y0073352D01*
X0134968Y0073385D01*
X0135020Y0073414D01*
X0135075Y0073441D01*
X0135130Y0073464D01*
X0135187Y0073484D01*
X0135246Y0073500D01*
X0135305Y0073513D01*
X0135364Y0073522D01*
X0135425Y0073527D01*
X0135485Y0073529D01*
X0099367Y0072529D02*
X0099367Y0066529D01*
X0099365Y0066469D01*
X0099360Y0066408D01*
X0099351Y0066349D01*
X0099338Y0066290D01*
X0099322Y0066231D01*
X0099302Y0066174D01*
X0099279Y0066119D01*
X0099252Y0066064D01*
X0099223Y0066012D01*
X0099190Y0065961D01*
X0099154Y0065912D01*
X0099116Y0065866D01*
X0099074Y0065822D01*
X0099030Y0065780D01*
X0098984Y0065742D01*
X0098935Y0065706D01*
X0098884Y0065673D01*
X0098832Y0065644D01*
X0098777Y0065617D01*
X0098722Y0065594D01*
X0098665Y0065574D01*
X0098606Y0065558D01*
X0098547Y0065545D01*
X0098488Y0065536D01*
X0098427Y0065531D01*
X0098367Y0065529D01*
X0096867Y0065529D01*
X0096367Y0066029D01*
X0082367Y0066029D01*
X0081867Y0065529D01*
X0080367Y0065529D01*
X0080307Y0065531D01*
X0080246Y0065536D01*
X0080187Y0065545D01*
X0080128Y0065558D01*
X0080069Y0065574D01*
X0080012Y0065594D01*
X0079957Y0065617D01*
X0079902Y0065644D01*
X0079850Y0065673D01*
X0079799Y0065706D01*
X0079750Y0065742D01*
X0079704Y0065780D01*
X0079660Y0065822D01*
X0079618Y0065866D01*
X0079580Y0065912D01*
X0079544Y0065961D01*
X0079511Y0066012D01*
X0079482Y0066064D01*
X0079455Y0066119D01*
X0079432Y0066174D01*
X0079412Y0066231D01*
X0079396Y0066290D01*
X0079383Y0066349D01*
X0079374Y0066408D01*
X0079369Y0066469D01*
X0079367Y0066529D01*
X0079367Y0072529D01*
X0079369Y0072589D01*
X0079374Y0072650D01*
X0079383Y0072709D01*
X0079396Y0072768D01*
X0079412Y0072827D01*
X0079432Y0072884D01*
X0079455Y0072939D01*
X0079482Y0072994D01*
X0079511Y0073046D01*
X0079544Y0073097D01*
X0079580Y0073146D01*
X0079618Y0073192D01*
X0079660Y0073236D01*
X0079704Y0073278D01*
X0079750Y0073316D01*
X0079799Y0073352D01*
X0079850Y0073385D01*
X0079902Y0073414D01*
X0079957Y0073441D01*
X0080012Y0073464D01*
X0080069Y0073484D01*
X0080128Y0073500D01*
X0080187Y0073513D01*
X0080246Y0073522D01*
X0080307Y0073527D01*
X0080367Y0073529D01*
X0081867Y0073529D01*
X0082367Y0073029D01*
X0096367Y0073029D01*
X0096867Y0073529D01*
X0098367Y0073529D01*
X0098427Y0073527D01*
X0098488Y0073522D01*
X0098547Y0073513D01*
X0098606Y0073500D01*
X0098665Y0073484D01*
X0098722Y0073464D01*
X0098777Y0073441D01*
X0098832Y0073414D01*
X0098884Y0073385D01*
X0098935Y0073352D01*
X0098984Y0073316D01*
X0099030Y0073278D01*
X0099074Y0073236D01*
X0099116Y0073192D01*
X0099154Y0073146D01*
X0099190Y0073097D01*
X0099223Y0073046D01*
X0099252Y0072994D01*
X0099279Y0072939D01*
X0099302Y0072884D01*
X0099322Y0072827D01*
X0099338Y0072768D01*
X0099351Y0072709D01*
X0099360Y0072650D01*
X0099365Y0072589D01*
X0099367Y0072529D01*
X0098367Y0057781D02*
X0096867Y0057781D01*
X0096367Y0057281D01*
X0082367Y0057281D01*
X0081867Y0057781D01*
X0080367Y0057781D01*
X0080307Y0057779D01*
X0080246Y0057774D01*
X0080187Y0057765D01*
X0080128Y0057752D01*
X0080069Y0057736D01*
X0080012Y0057716D01*
X0079957Y0057693D01*
X0079902Y0057666D01*
X0079850Y0057637D01*
X0079799Y0057604D01*
X0079750Y0057568D01*
X0079704Y0057530D01*
X0079660Y0057488D01*
X0079618Y0057444D01*
X0079580Y0057398D01*
X0079544Y0057349D01*
X0079511Y0057298D01*
X0079482Y0057246D01*
X0079455Y0057191D01*
X0079432Y0057136D01*
X0079412Y0057079D01*
X0079396Y0057020D01*
X0079383Y0056961D01*
X0079374Y0056902D01*
X0079369Y0056841D01*
X0079367Y0056781D01*
X0079367Y0050781D01*
X0079369Y0050721D01*
X0079374Y0050660D01*
X0079383Y0050601D01*
X0079396Y0050542D01*
X0079412Y0050483D01*
X0079432Y0050426D01*
X0079455Y0050371D01*
X0079482Y0050316D01*
X0079511Y0050264D01*
X0079544Y0050213D01*
X0079580Y0050164D01*
X0079618Y0050118D01*
X0079660Y0050074D01*
X0079704Y0050032D01*
X0079750Y0049994D01*
X0079799Y0049958D01*
X0079850Y0049925D01*
X0079902Y0049896D01*
X0079957Y0049869D01*
X0080012Y0049846D01*
X0080069Y0049826D01*
X0080128Y0049810D01*
X0080187Y0049797D01*
X0080246Y0049788D01*
X0080307Y0049783D01*
X0080367Y0049781D01*
X0081867Y0049781D01*
X0082367Y0050281D01*
X0096367Y0050281D01*
X0096867Y0049781D01*
X0098367Y0049781D01*
X0098427Y0049783D01*
X0098488Y0049788D01*
X0098547Y0049797D01*
X0098606Y0049810D01*
X0098665Y0049826D01*
X0098722Y0049846D01*
X0098777Y0049869D01*
X0098832Y0049896D01*
X0098884Y0049925D01*
X0098935Y0049958D01*
X0098984Y0049994D01*
X0099030Y0050032D01*
X0099074Y0050074D01*
X0099116Y0050118D01*
X0099154Y0050164D01*
X0099190Y0050213D01*
X0099223Y0050264D01*
X0099252Y0050316D01*
X0099279Y0050371D01*
X0099302Y0050426D01*
X0099322Y0050483D01*
X0099338Y0050542D01*
X0099351Y0050601D01*
X0099360Y0050660D01*
X0099365Y0050721D01*
X0099367Y0050781D01*
X0099367Y0056781D01*
X0099365Y0056841D01*
X0099360Y0056902D01*
X0099351Y0056961D01*
X0099338Y0057020D01*
X0099322Y0057079D01*
X0099302Y0057136D01*
X0099279Y0057191D01*
X0099252Y0057246D01*
X0099223Y0057298D01*
X0099190Y0057349D01*
X0099154Y0057398D01*
X0099116Y0057444D01*
X0099074Y0057488D01*
X0099030Y0057530D01*
X0098984Y0057568D01*
X0098935Y0057604D01*
X0098884Y0057637D01*
X0098832Y0057666D01*
X0098777Y0057693D01*
X0098722Y0057716D01*
X0098665Y0057736D01*
X0098606Y0057752D01*
X0098547Y0057765D01*
X0098488Y0057774D01*
X0098427Y0057779D01*
X0098367Y0057781D01*
X0061871Y0068403D02*
X0061871Y0069903D01*
X0061371Y0070403D01*
X0061371Y0084403D01*
X0061871Y0084903D01*
X0061871Y0086403D01*
X0061869Y0086463D01*
X0061864Y0086524D01*
X0061855Y0086583D01*
X0061842Y0086642D01*
X0061826Y0086701D01*
X0061806Y0086758D01*
X0061783Y0086813D01*
X0061756Y0086868D01*
X0061727Y0086920D01*
X0061694Y0086971D01*
X0061658Y0087020D01*
X0061620Y0087066D01*
X0061578Y0087110D01*
X0061534Y0087152D01*
X0061488Y0087190D01*
X0061439Y0087226D01*
X0061388Y0087259D01*
X0061336Y0087288D01*
X0061281Y0087315D01*
X0061226Y0087338D01*
X0061169Y0087358D01*
X0061110Y0087374D01*
X0061051Y0087387D01*
X0060992Y0087396D01*
X0060931Y0087401D01*
X0060871Y0087403D01*
X0054871Y0087403D01*
X0054811Y0087401D01*
X0054750Y0087396D01*
X0054691Y0087387D01*
X0054632Y0087374D01*
X0054573Y0087358D01*
X0054516Y0087338D01*
X0054461Y0087315D01*
X0054406Y0087288D01*
X0054354Y0087259D01*
X0054303Y0087226D01*
X0054254Y0087190D01*
X0054208Y0087152D01*
X0054164Y0087110D01*
X0054122Y0087066D01*
X0054084Y0087020D01*
X0054048Y0086971D01*
X0054015Y0086920D01*
X0053986Y0086868D01*
X0053959Y0086813D01*
X0053936Y0086758D01*
X0053916Y0086701D01*
X0053900Y0086642D01*
X0053887Y0086583D01*
X0053878Y0086524D01*
X0053873Y0086463D01*
X0053871Y0086403D01*
X0053871Y0084903D01*
X0054371Y0084403D01*
X0054371Y0070403D01*
X0053871Y0069903D01*
X0053871Y0068403D01*
X0053873Y0068343D01*
X0053878Y0068282D01*
X0053887Y0068223D01*
X0053900Y0068164D01*
X0053916Y0068105D01*
X0053936Y0068048D01*
X0053959Y0067993D01*
X0053986Y0067938D01*
X0054015Y0067886D01*
X0054048Y0067835D01*
X0054084Y0067786D01*
X0054122Y0067740D01*
X0054164Y0067696D01*
X0054208Y0067654D01*
X0054254Y0067616D01*
X0054303Y0067580D01*
X0054354Y0067547D01*
X0054406Y0067518D01*
X0054461Y0067491D01*
X0054516Y0067468D01*
X0054573Y0067448D01*
X0054632Y0067432D01*
X0054691Y0067419D01*
X0054750Y0067410D01*
X0054811Y0067405D01*
X0054871Y0067403D01*
X0060871Y0067403D01*
X0060931Y0067405D01*
X0060992Y0067410D01*
X0061051Y0067419D01*
X0061110Y0067432D01*
X0061169Y0067448D01*
X0061226Y0067468D01*
X0061281Y0067491D01*
X0061336Y0067518D01*
X0061388Y0067547D01*
X0061439Y0067580D01*
X0061488Y0067616D01*
X0061534Y0067654D01*
X0061578Y0067696D01*
X0061620Y0067740D01*
X0061658Y0067786D01*
X0061694Y0067835D01*
X0061727Y0067886D01*
X0061756Y0067938D01*
X0061783Y0067993D01*
X0061806Y0068048D01*
X0061826Y0068105D01*
X0061842Y0068164D01*
X0061855Y0068223D01*
X0061864Y0068282D01*
X0061869Y0068343D01*
X0061871Y0068403D01*
X0176292Y0084962D02*
X0199292Y0084962D01*
X0199292Y0124962D01*
X0191792Y0124962D01*
X0191790Y0124836D01*
X0191784Y0124711D01*
X0191774Y0124586D01*
X0191760Y0124461D01*
X0191743Y0124336D01*
X0191721Y0124212D01*
X0191696Y0124089D01*
X0191666Y0123967D01*
X0191633Y0123846D01*
X0191596Y0123726D01*
X0191556Y0123607D01*
X0191511Y0123490D01*
X0191463Y0123373D01*
X0191411Y0123259D01*
X0191356Y0123146D01*
X0191297Y0123035D01*
X0191235Y0122926D01*
X0191169Y0122819D01*
X0191100Y0122714D01*
X0191028Y0122611D01*
X0190953Y0122510D01*
X0190874Y0122412D01*
X0190792Y0122317D01*
X0190708Y0122224D01*
X0190620Y0122134D01*
X0190530Y0122046D01*
X0190437Y0121962D01*
X0190342Y0121880D01*
X0190244Y0121801D01*
X0190143Y0121726D01*
X0190040Y0121654D01*
X0189935Y0121585D01*
X0189828Y0121519D01*
X0189719Y0121457D01*
X0189608Y0121398D01*
X0189495Y0121343D01*
X0189381Y0121291D01*
X0189264Y0121243D01*
X0189147Y0121198D01*
X0189028Y0121158D01*
X0188908Y0121121D01*
X0188787Y0121088D01*
X0188665Y0121058D01*
X0188542Y0121033D01*
X0188418Y0121011D01*
X0188293Y0120994D01*
X0188168Y0120980D01*
X0188043Y0120970D01*
X0187918Y0120964D01*
X0187792Y0120962D01*
X0187666Y0120964D01*
X0187541Y0120970D01*
X0187416Y0120980D01*
X0187291Y0120994D01*
X0187166Y0121011D01*
X0187042Y0121033D01*
X0186919Y0121058D01*
X0186797Y0121088D01*
X0186676Y0121121D01*
X0186556Y0121158D01*
X0186437Y0121198D01*
X0186320Y0121243D01*
X0186203Y0121291D01*
X0186089Y0121343D01*
X0185976Y0121398D01*
X0185865Y0121457D01*
X0185756Y0121519D01*
X0185649Y0121585D01*
X0185544Y0121654D01*
X0185441Y0121726D01*
X0185340Y0121801D01*
X0185242Y0121880D01*
X0185147Y0121962D01*
X0185054Y0122046D01*
X0184964Y0122134D01*
X0184876Y0122224D01*
X0184792Y0122317D01*
X0184710Y0122412D01*
X0184631Y0122510D01*
X0184556Y0122611D01*
X0184484Y0122714D01*
X0184415Y0122819D01*
X0184349Y0122926D01*
X0184287Y0123035D01*
X0184228Y0123146D01*
X0184173Y0123259D01*
X0184121Y0123373D01*
X0184073Y0123490D01*
X0184028Y0123607D01*
X0183988Y0123726D01*
X0183951Y0123846D01*
X0183918Y0123967D01*
X0183888Y0124089D01*
X0183863Y0124212D01*
X0183841Y0124336D01*
X0183824Y0124461D01*
X0183810Y0124586D01*
X0183800Y0124711D01*
X0183794Y0124836D01*
X0183792Y0124962D01*
X0176292Y0124962D01*
X0176292Y0084962D01*
X0221099Y0090151D02*
X0221099Y0096151D01*
X0221101Y0096211D01*
X0221106Y0096272D01*
X0221115Y0096331D01*
X0221128Y0096390D01*
X0221144Y0096449D01*
X0221164Y0096506D01*
X0221187Y0096561D01*
X0221214Y0096616D01*
X0221243Y0096668D01*
X0221276Y0096719D01*
X0221312Y0096768D01*
X0221350Y0096814D01*
X0221392Y0096858D01*
X0221436Y0096900D01*
X0221482Y0096938D01*
X0221531Y0096974D01*
X0221582Y0097007D01*
X0221634Y0097036D01*
X0221689Y0097063D01*
X0221744Y0097086D01*
X0221801Y0097106D01*
X0221860Y0097122D01*
X0221919Y0097135D01*
X0221978Y0097144D01*
X0222039Y0097149D01*
X0222099Y0097151D01*
X0223599Y0097151D01*
X0224099Y0096651D01*
X0238099Y0096651D01*
X0238599Y0097151D01*
X0240099Y0097151D01*
X0240159Y0097149D01*
X0240220Y0097144D01*
X0240279Y0097135D01*
X0240338Y0097122D01*
X0240397Y0097106D01*
X0240454Y0097086D01*
X0240509Y0097063D01*
X0240564Y0097036D01*
X0240616Y0097007D01*
X0240667Y0096974D01*
X0240716Y0096938D01*
X0240762Y0096900D01*
X0240806Y0096858D01*
X0240848Y0096814D01*
X0240886Y0096768D01*
X0240922Y0096719D01*
X0240955Y0096668D01*
X0240984Y0096616D01*
X0241011Y0096561D01*
X0241034Y0096506D01*
X0241054Y0096449D01*
X0241070Y0096390D01*
X0241083Y0096331D01*
X0241092Y0096272D01*
X0241097Y0096211D01*
X0241099Y0096151D01*
X0241099Y0090151D01*
X0241097Y0090091D01*
X0241092Y0090030D01*
X0241083Y0089971D01*
X0241070Y0089912D01*
X0241054Y0089853D01*
X0241034Y0089796D01*
X0241011Y0089741D01*
X0240984Y0089686D01*
X0240955Y0089634D01*
X0240922Y0089583D01*
X0240886Y0089534D01*
X0240848Y0089488D01*
X0240806Y0089444D01*
X0240762Y0089402D01*
X0240716Y0089364D01*
X0240667Y0089328D01*
X0240616Y0089295D01*
X0240564Y0089266D01*
X0240509Y0089239D01*
X0240454Y0089216D01*
X0240397Y0089196D01*
X0240338Y0089180D01*
X0240279Y0089167D01*
X0240220Y0089158D01*
X0240159Y0089153D01*
X0240099Y0089151D01*
X0238599Y0089151D01*
X0238099Y0089651D01*
X0224099Y0089651D01*
X0223599Y0089151D01*
X0222099Y0089151D01*
X0222039Y0089153D01*
X0221978Y0089158D01*
X0221919Y0089167D01*
X0221860Y0089180D01*
X0221801Y0089196D01*
X0221744Y0089216D01*
X0221689Y0089239D01*
X0221634Y0089266D01*
X0221582Y0089295D01*
X0221531Y0089328D01*
X0221482Y0089364D01*
X0221436Y0089402D01*
X0221392Y0089444D01*
X0221350Y0089488D01*
X0221312Y0089534D01*
X0221276Y0089583D01*
X0221243Y0089634D01*
X0221214Y0089686D01*
X0221187Y0089741D01*
X0221164Y0089796D01*
X0221144Y0089853D01*
X0221128Y0089912D01*
X0221115Y0089971D01*
X0221106Y0090030D01*
X0221101Y0090091D01*
X0221099Y0090151D01*
X0222099Y0073529D02*
X0223599Y0073529D01*
X0224099Y0073029D01*
X0238099Y0073029D01*
X0238599Y0073529D01*
X0240099Y0073529D01*
X0240159Y0073527D01*
X0240220Y0073522D01*
X0240279Y0073513D01*
X0240338Y0073500D01*
X0240397Y0073484D01*
X0240454Y0073464D01*
X0240509Y0073441D01*
X0240564Y0073414D01*
X0240616Y0073385D01*
X0240667Y0073352D01*
X0240716Y0073316D01*
X0240762Y0073278D01*
X0240806Y0073236D01*
X0240848Y0073192D01*
X0240886Y0073146D01*
X0240922Y0073097D01*
X0240955Y0073046D01*
X0240984Y0072994D01*
X0241011Y0072939D01*
X0241034Y0072884D01*
X0241054Y0072827D01*
X0241070Y0072768D01*
X0241083Y0072709D01*
X0241092Y0072650D01*
X0241097Y0072589D01*
X0241099Y0072529D01*
X0241099Y0066529D01*
X0241097Y0066469D01*
X0241092Y0066408D01*
X0241083Y0066349D01*
X0241070Y0066290D01*
X0241054Y0066231D01*
X0241034Y0066174D01*
X0241011Y0066119D01*
X0240984Y0066064D01*
X0240955Y0066012D01*
X0240922Y0065961D01*
X0240886Y0065912D01*
X0240848Y0065866D01*
X0240806Y0065822D01*
X0240762Y0065780D01*
X0240716Y0065742D01*
X0240667Y0065706D01*
X0240616Y0065673D01*
X0240564Y0065644D01*
X0240509Y0065617D01*
X0240454Y0065594D01*
X0240397Y0065574D01*
X0240338Y0065558D01*
X0240279Y0065545D01*
X0240220Y0065536D01*
X0240159Y0065531D01*
X0240099Y0065529D01*
X0238599Y0065529D01*
X0238099Y0066029D01*
X0224099Y0066029D01*
X0223599Y0065529D01*
X0222099Y0065529D01*
X0222039Y0065531D01*
X0221978Y0065536D01*
X0221919Y0065545D01*
X0221860Y0065558D01*
X0221801Y0065574D01*
X0221744Y0065594D01*
X0221689Y0065617D01*
X0221634Y0065644D01*
X0221582Y0065673D01*
X0221531Y0065706D01*
X0221482Y0065742D01*
X0221436Y0065780D01*
X0221392Y0065822D01*
X0221350Y0065866D01*
X0221312Y0065912D01*
X0221276Y0065961D01*
X0221243Y0066012D01*
X0221214Y0066064D01*
X0221187Y0066119D01*
X0221164Y0066174D01*
X0221144Y0066231D01*
X0221128Y0066290D01*
X0221115Y0066349D01*
X0221106Y0066408D01*
X0221101Y0066469D01*
X0221099Y0066529D01*
X0221099Y0072529D01*
X0221101Y0072589D01*
X0221106Y0072650D01*
X0221115Y0072709D01*
X0221128Y0072768D01*
X0221144Y0072827D01*
X0221164Y0072884D01*
X0221187Y0072939D01*
X0221214Y0072994D01*
X0221243Y0073046D01*
X0221276Y0073097D01*
X0221312Y0073146D01*
X0221350Y0073192D01*
X0221392Y0073236D01*
X0221436Y0073278D01*
X0221482Y0073316D01*
X0221531Y0073352D01*
X0221582Y0073385D01*
X0221634Y0073414D01*
X0221689Y0073441D01*
X0221744Y0073464D01*
X0221801Y0073484D01*
X0221860Y0073500D01*
X0221919Y0073513D01*
X0221978Y0073522D01*
X0222039Y0073527D01*
X0222099Y0073529D01*
X0254658Y0069903D02*
X0255158Y0070403D01*
X0255158Y0084403D01*
X0254658Y0084903D01*
X0254658Y0086403D01*
X0254660Y0086463D01*
X0254665Y0086524D01*
X0254674Y0086583D01*
X0254687Y0086642D01*
X0254703Y0086701D01*
X0254723Y0086758D01*
X0254746Y0086813D01*
X0254773Y0086868D01*
X0254802Y0086920D01*
X0254835Y0086971D01*
X0254871Y0087020D01*
X0254909Y0087066D01*
X0254951Y0087110D01*
X0254995Y0087152D01*
X0255041Y0087190D01*
X0255090Y0087226D01*
X0255141Y0087259D01*
X0255193Y0087288D01*
X0255248Y0087315D01*
X0255303Y0087338D01*
X0255360Y0087358D01*
X0255419Y0087374D01*
X0255478Y0087387D01*
X0255537Y0087396D01*
X0255598Y0087401D01*
X0255658Y0087403D01*
X0261658Y0087403D01*
X0261718Y0087401D01*
X0261779Y0087396D01*
X0261838Y0087387D01*
X0261897Y0087374D01*
X0261956Y0087358D01*
X0262013Y0087338D01*
X0262068Y0087315D01*
X0262123Y0087288D01*
X0262175Y0087259D01*
X0262226Y0087226D01*
X0262275Y0087190D01*
X0262321Y0087152D01*
X0262365Y0087110D01*
X0262407Y0087066D01*
X0262445Y0087020D01*
X0262481Y0086971D01*
X0262514Y0086920D01*
X0262543Y0086868D01*
X0262570Y0086813D01*
X0262593Y0086758D01*
X0262613Y0086701D01*
X0262629Y0086642D01*
X0262642Y0086583D01*
X0262651Y0086524D01*
X0262656Y0086463D01*
X0262658Y0086403D01*
X0262658Y0084903D01*
X0262158Y0084403D01*
X0262158Y0070403D01*
X0262658Y0069903D01*
X0262658Y0068403D01*
X0262656Y0068343D01*
X0262651Y0068282D01*
X0262642Y0068223D01*
X0262629Y0068164D01*
X0262613Y0068105D01*
X0262593Y0068048D01*
X0262570Y0067993D01*
X0262543Y0067938D01*
X0262514Y0067886D01*
X0262481Y0067835D01*
X0262445Y0067786D01*
X0262407Y0067740D01*
X0262365Y0067696D01*
X0262321Y0067654D01*
X0262275Y0067616D01*
X0262226Y0067580D01*
X0262175Y0067547D01*
X0262123Y0067518D01*
X0262068Y0067491D01*
X0262013Y0067468D01*
X0261956Y0067448D01*
X0261897Y0067432D01*
X0261838Y0067419D01*
X0261779Y0067410D01*
X0261718Y0067405D01*
X0261658Y0067403D01*
X0255658Y0067403D01*
X0255598Y0067405D01*
X0255537Y0067410D01*
X0255478Y0067419D01*
X0255419Y0067432D01*
X0255360Y0067448D01*
X0255303Y0067468D01*
X0255248Y0067491D01*
X0255193Y0067518D01*
X0255141Y0067547D01*
X0255090Y0067580D01*
X0255041Y0067616D01*
X0254995Y0067654D01*
X0254951Y0067696D01*
X0254909Y0067740D01*
X0254871Y0067786D01*
X0254835Y0067835D01*
X0254802Y0067886D01*
X0254773Y0067938D01*
X0254746Y0067993D01*
X0254723Y0068048D01*
X0254703Y0068105D01*
X0254687Y0068164D01*
X0254674Y0068223D01*
X0254665Y0068282D01*
X0254660Y0068343D01*
X0254658Y0068403D01*
X0254658Y0069903D01*
X0274717Y0084962D02*
X0297717Y0084962D01*
X0297717Y0124962D01*
X0290217Y0124962D01*
X0290215Y0124836D01*
X0290209Y0124711D01*
X0290199Y0124586D01*
X0290185Y0124461D01*
X0290168Y0124336D01*
X0290146Y0124212D01*
X0290121Y0124089D01*
X0290091Y0123967D01*
X0290058Y0123846D01*
X0290021Y0123726D01*
X0289981Y0123607D01*
X0289936Y0123490D01*
X0289888Y0123373D01*
X0289836Y0123259D01*
X0289781Y0123146D01*
X0289722Y0123035D01*
X0289660Y0122926D01*
X0289594Y0122819D01*
X0289525Y0122714D01*
X0289453Y0122611D01*
X0289378Y0122510D01*
X0289299Y0122412D01*
X0289217Y0122317D01*
X0289133Y0122224D01*
X0289045Y0122134D01*
X0288955Y0122046D01*
X0288862Y0121962D01*
X0288767Y0121880D01*
X0288669Y0121801D01*
X0288568Y0121726D01*
X0288465Y0121654D01*
X0288360Y0121585D01*
X0288253Y0121519D01*
X0288144Y0121457D01*
X0288033Y0121398D01*
X0287920Y0121343D01*
X0287806Y0121291D01*
X0287689Y0121243D01*
X0287572Y0121198D01*
X0287453Y0121158D01*
X0287333Y0121121D01*
X0287212Y0121088D01*
X0287090Y0121058D01*
X0286967Y0121033D01*
X0286843Y0121011D01*
X0286718Y0120994D01*
X0286593Y0120980D01*
X0286468Y0120970D01*
X0286343Y0120964D01*
X0286217Y0120962D01*
X0286091Y0120964D01*
X0285966Y0120970D01*
X0285841Y0120980D01*
X0285716Y0120994D01*
X0285591Y0121011D01*
X0285467Y0121033D01*
X0285344Y0121058D01*
X0285222Y0121088D01*
X0285101Y0121121D01*
X0284981Y0121158D01*
X0284862Y0121198D01*
X0284745Y0121243D01*
X0284628Y0121291D01*
X0284514Y0121343D01*
X0284401Y0121398D01*
X0284290Y0121457D01*
X0284181Y0121519D01*
X0284074Y0121585D01*
X0283969Y0121654D01*
X0283866Y0121726D01*
X0283765Y0121801D01*
X0283667Y0121880D01*
X0283572Y0121962D01*
X0283479Y0122046D01*
X0283389Y0122134D01*
X0283301Y0122224D01*
X0283217Y0122317D01*
X0283135Y0122412D01*
X0283056Y0122510D01*
X0282981Y0122611D01*
X0282909Y0122714D01*
X0282840Y0122819D01*
X0282774Y0122926D01*
X0282712Y0123035D01*
X0282653Y0123146D01*
X0282598Y0123259D01*
X0282546Y0123373D01*
X0282498Y0123490D01*
X0282453Y0123607D01*
X0282413Y0123726D01*
X0282376Y0123846D01*
X0282343Y0123967D01*
X0282313Y0124089D01*
X0282288Y0124212D01*
X0282266Y0124336D01*
X0282249Y0124461D01*
X0282235Y0124586D01*
X0282225Y0124711D01*
X0282219Y0124836D01*
X0282217Y0124962D01*
X0274717Y0124962D01*
X0274717Y0084962D01*
X0261658Y0106773D02*
X0255658Y0106773D01*
X0255598Y0106775D01*
X0255537Y0106780D01*
X0255478Y0106789D01*
X0255419Y0106802D01*
X0255360Y0106818D01*
X0255303Y0106838D01*
X0255248Y0106861D01*
X0255193Y0106888D01*
X0255141Y0106917D01*
X0255090Y0106950D01*
X0255041Y0106986D01*
X0254995Y0107024D01*
X0254951Y0107066D01*
X0254909Y0107110D01*
X0254871Y0107156D01*
X0254835Y0107205D01*
X0254802Y0107256D01*
X0254773Y0107308D01*
X0254746Y0107363D01*
X0254723Y0107418D01*
X0254703Y0107475D01*
X0254687Y0107534D01*
X0254674Y0107593D01*
X0254665Y0107652D01*
X0254660Y0107713D01*
X0254658Y0107773D01*
X0254658Y0109273D01*
X0255158Y0109773D01*
X0255158Y0123773D01*
X0254658Y0124273D01*
X0254658Y0125773D01*
X0254660Y0125833D01*
X0254665Y0125894D01*
X0254674Y0125953D01*
X0254687Y0126012D01*
X0254703Y0126071D01*
X0254723Y0126128D01*
X0254746Y0126183D01*
X0254773Y0126238D01*
X0254802Y0126290D01*
X0254835Y0126341D01*
X0254871Y0126390D01*
X0254909Y0126436D01*
X0254951Y0126480D01*
X0254995Y0126522D01*
X0255041Y0126560D01*
X0255090Y0126596D01*
X0255141Y0126629D01*
X0255193Y0126658D01*
X0255248Y0126685D01*
X0255303Y0126708D01*
X0255360Y0126728D01*
X0255419Y0126744D01*
X0255478Y0126757D01*
X0255537Y0126766D01*
X0255598Y0126771D01*
X0255658Y0126773D01*
X0261658Y0126773D01*
X0261718Y0126771D01*
X0261779Y0126766D01*
X0261838Y0126757D01*
X0261897Y0126744D01*
X0261956Y0126728D01*
X0262013Y0126708D01*
X0262068Y0126685D01*
X0262123Y0126658D01*
X0262175Y0126629D01*
X0262226Y0126596D01*
X0262275Y0126560D01*
X0262321Y0126522D01*
X0262365Y0126480D01*
X0262407Y0126436D01*
X0262445Y0126390D01*
X0262481Y0126341D01*
X0262514Y0126290D01*
X0262543Y0126238D01*
X0262570Y0126183D01*
X0262593Y0126128D01*
X0262613Y0126071D01*
X0262629Y0126012D01*
X0262642Y0125953D01*
X0262651Y0125894D01*
X0262656Y0125833D01*
X0262658Y0125773D01*
X0262658Y0124273D01*
X0262158Y0123773D01*
X0262158Y0109773D01*
X0262658Y0109273D01*
X0262658Y0107773D01*
X0262656Y0107713D01*
X0262651Y0107652D01*
X0262642Y0107593D01*
X0262629Y0107534D01*
X0262613Y0107475D01*
X0262593Y0107418D01*
X0262570Y0107363D01*
X0262543Y0107308D01*
X0262514Y0107256D01*
X0262481Y0107205D01*
X0262445Y0107156D01*
X0262407Y0107110D01*
X0262365Y0107066D01*
X0262321Y0107024D01*
X0262275Y0106986D01*
X0262226Y0106950D01*
X0262175Y0106917D01*
X0262123Y0106888D01*
X0262068Y0106861D01*
X0262013Y0106838D01*
X0261956Y0106818D01*
X0261897Y0106802D01*
X0261838Y0106789D01*
X0261779Y0106780D01*
X0261718Y0106775D01*
X0261658Y0106773D01*
X0221099Y0116773D02*
X0221102Y0117018D01*
X0221111Y0117264D01*
X0221126Y0117509D01*
X0221147Y0117753D01*
X0221174Y0117997D01*
X0221207Y0118240D01*
X0221246Y0118483D01*
X0221291Y0118724D01*
X0221342Y0118964D01*
X0221399Y0119203D01*
X0221461Y0119440D01*
X0221530Y0119676D01*
X0221604Y0119910D01*
X0221684Y0120142D01*
X0221769Y0120372D01*
X0221860Y0120600D01*
X0221957Y0120825D01*
X0222059Y0121049D01*
X0222167Y0121269D01*
X0222280Y0121487D01*
X0222398Y0121702D01*
X0222522Y0121914D01*
X0222650Y0122123D01*
X0222784Y0122329D01*
X0222923Y0122531D01*
X0223067Y0122730D01*
X0223216Y0122925D01*
X0223369Y0123117D01*
X0223527Y0123305D01*
X0223689Y0123489D01*
X0223857Y0123668D01*
X0224028Y0123844D01*
X0224204Y0124015D01*
X0224383Y0124183D01*
X0224567Y0124345D01*
X0224755Y0124503D01*
X0224947Y0124656D01*
X0225142Y0124805D01*
X0225341Y0124949D01*
X0225543Y0125088D01*
X0225749Y0125222D01*
X0225958Y0125350D01*
X0226170Y0125474D01*
X0226385Y0125592D01*
X0226603Y0125705D01*
X0226823Y0125813D01*
X0227047Y0125915D01*
X0227272Y0126012D01*
X0227500Y0126103D01*
X0227730Y0126188D01*
X0227962Y0126268D01*
X0228196Y0126342D01*
X0228432Y0126411D01*
X0228669Y0126473D01*
X0228908Y0126530D01*
X0229148Y0126581D01*
X0229389Y0126626D01*
X0229632Y0126665D01*
X0229875Y0126698D01*
X0230119Y0126725D01*
X0230363Y0126746D01*
X0230608Y0126761D01*
X0230854Y0126770D01*
X0231099Y0126773D01*
X0231344Y0126770D01*
X0231590Y0126761D01*
X0231835Y0126746D01*
X0232079Y0126725D01*
X0232323Y0126698D01*
X0232566Y0126665D01*
X0232809Y0126626D01*
X0233050Y0126581D01*
X0233290Y0126530D01*
X0233529Y0126473D01*
X0233766Y0126411D01*
X0234002Y0126342D01*
X0234236Y0126268D01*
X0234468Y0126188D01*
X0234698Y0126103D01*
X0234926Y0126012D01*
X0235151Y0125915D01*
X0235375Y0125813D01*
X0235595Y0125705D01*
X0235813Y0125592D01*
X0236028Y0125474D01*
X0236240Y0125350D01*
X0236449Y0125222D01*
X0236655Y0125088D01*
X0236857Y0124949D01*
X0237056Y0124805D01*
X0237251Y0124656D01*
X0237443Y0124503D01*
X0237631Y0124345D01*
X0237815Y0124183D01*
X0237994Y0124015D01*
X0238170Y0123844D01*
X0238341Y0123668D01*
X0238509Y0123489D01*
X0238671Y0123305D01*
X0238829Y0123117D01*
X0238982Y0122925D01*
X0239131Y0122730D01*
X0239275Y0122531D01*
X0239414Y0122329D01*
X0239548Y0122123D01*
X0239676Y0121914D01*
X0239800Y0121702D01*
X0239918Y0121487D01*
X0240031Y0121269D01*
X0240139Y0121049D01*
X0240241Y0120825D01*
X0240338Y0120600D01*
X0240429Y0120372D01*
X0240514Y0120142D01*
X0240594Y0119910D01*
X0240668Y0119676D01*
X0240737Y0119440D01*
X0240799Y0119203D01*
X0240856Y0118964D01*
X0240907Y0118724D01*
X0240952Y0118483D01*
X0240991Y0118240D01*
X0241024Y0117997D01*
X0241051Y0117753D01*
X0241072Y0117509D01*
X0241087Y0117264D01*
X0241096Y0117018D01*
X0241099Y0116773D01*
X0241096Y0116528D01*
X0241087Y0116282D01*
X0241072Y0116037D01*
X0241051Y0115793D01*
X0241024Y0115549D01*
X0240991Y0115306D01*
X0240952Y0115063D01*
X0240907Y0114822D01*
X0240856Y0114582D01*
X0240799Y0114343D01*
X0240737Y0114106D01*
X0240668Y0113870D01*
X0240594Y0113636D01*
X0240514Y0113404D01*
X0240429Y0113174D01*
X0240338Y0112946D01*
X0240241Y0112721D01*
X0240139Y0112497D01*
X0240031Y0112277D01*
X0239918Y0112059D01*
X0239800Y0111844D01*
X0239676Y0111632D01*
X0239548Y0111423D01*
X0239414Y0111217D01*
X0239275Y0111015D01*
X0239131Y0110816D01*
X0238982Y0110621D01*
X0238829Y0110429D01*
X0238671Y0110241D01*
X0238509Y0110057D01*
X0238341Y0109878D01*
X0238170Y0109702D01*
X0237994Y0109531D01*
X0237815Y0109363D01*
X0237631Y0109201D01*
X0237443Y0109043D01*
X0237251Y0108890D01*
X0237056Y0108741D01*
X0236857Y0108597D01*
X0236655Y0108458D01*
X0236449Y0108324D01*
X0236240Y0108196D01*
X0236028Y0108072D01*
X0235813Y0107954D01*
X0235595Y0107841D01*
X0235375Y0107733D01*
X0235151Y0107631D01*
X0234926Y0107534D01*
X0234698Y0107443D01*
X0234468Y0107358D01*
X0234236Y0107278D01*
X0234002Y0107204D01*
X0233766Y0107135D01*
X0233529Y0107073D01*
X0233290Y0107016D01*
X0233050Y0106965D01*
X0232809Y0106920D01*
X0232566Y0106881D01*
X0232323Y0106848D01*
X0232079Y0106821D01*
X0231835Y0106800D01*
X0231590Y0106785D01*
X0231344Y0106776D01*
X0231099Y0106773D01*
X0230854Y0106776D01*
X0230608Y0106785D01*
X0230363Y0106800D01*
X0230119Y0106821D01*
X0229875Y0106848D01*
X0229632Y0106881D01*
X0229389Y0106920D01*
X0229148Y0106965D01*
X0228908Y0107016D01*
X0228669Y0107073D01*
X0228432Y0107135D01*
X0228196Y0107204D01*
X0227962Y0107278D01*
X0227730Y0107358D01*
X0227500Y0107443D01*
X0227272Y0107534D01*
X0227047Y0107631D01*
X0226823Y0107733D01*
X0226603Y0107841D01*
X0226385Y0107954D01*
X0226170Y0108072D01*
X0225958Y0108196D01*
X0225749Y0108324D01*
X0225543Y0108458D01*
X0225341Y0108597D01*
X0225142Y0108741D01*
X0224947Y0108890D01*
X0224755Y0109043D01*
X0224567Y0109201D01*
X0224383Y0109363D01*
X0224204Y0109531D01*
X0224028Y0109702D01*
X0223857Y0109878D01*
X0223689Y0110057D01*
X0223527Y0110241D01*
X0223369Y0110429D01*
X0223216Y0110621D01*
X0223067Y0110816D01*
X0222923Y0111015D01*
X0222784Y0111217D01*
X0222650Y0111423D01*
X0222522Y0111632D01*
X0222398Y0111844D01*
X0222280Y0112059D01*
X0222167Y0112277D01*
X0222059Y0112497D01*
X0221957Y0112721D01*
X0221860Y0112946D01*
X0221769Y0113174D01*
X0221684Y0113404D01*
X0221604Y0113636D01*
X0221530Y0113870D01*
X0221461Y0114106D01*
X0221399Y0114343D01*
X0221342Y0114582D01*
X0221291Y0114822D01*
X0221246Y0115063D01*
X0221207Y0115306D01*
X0221174Y0115549D01*
X0221147Y0115793D01*
X0221126Y0116037D01*
X0221111Y0116282D01*
X0221102Y0116528D01*
X0221099Y0116773D01*
X0224099Y0113773D02*
X0224099Y0111773D01*
X0225099Y0112773D02*
X0223099Y0112773D01*
X0196792Y0136395D02*
X0195292Y0136395D01*
X0194792Y0136895D01*
X0180792Y0136895D01*
X0180292Y0136395D01*
X0178792Y0136395D01*
X0178732Y0136397D01*
X0178671Y0136402D01*
X0178612Y0136411D01*
X0178553Y0136424D01*
X0178494Y0136440D01*
X0178437Y0136460D01*
X0178382Y0136483D01*
X0178327Y0136510D01*
X0178275Y0136539D01*
X0178224Y0136572D01*
X0178175Y0136608D01*
X0178129Y0136646D01*
X0178085Y0136688D01*
X0178043Y0136732D01*
X0178005Y0136778D01*
X0177969Y0136827D01*
X0177936Y0136878D01*
X0177907Y0136930D01*
X0177880Y0136985D01*
X0177857Y0137040D01*
X0177837Y0137097D01*
X0177821Y0137156D01*
X0177808Y0137215D01*
X0177799Y0137274D01*
X0177794Y0137335D01*
X0177792Y0137395D01*
X0177792Y0143395D01*
X0177794Y0143455D01*
X0177799Y0143516D01*
X0177808Y0143575D01*
X0177821Y0143634D01*
X0177837Y0143693D01*
X0177857Y0143750D01*
X0177880Y0143805D01*
X0177907Y0143860D01*
X0177936Y0143912D01*
X0177969Y0143963D01*
X0178005Y0144012D01*
X0178043Y0144058D01*
X0178085Y0144102D01*
X0178129Y0144144D01*
X0178175Y0144182D01*
X0178224Y0144218D01*
X0178275Y0144251D01*
X0178327Y0144280D01*
X0178382Y0144307D01*
X0178437Y0144330D01*
X0178494Y0144350D01*
X0178553Y0144366D01*
X0178612Y0144379D01*
X0178671Y0144388D01*
X0178732Y0144393D01*
X0178792Y0144395D01*
X0180292Y0144395D01*
X0180792Y0143895D01*
X0194792Y0143895D01*
X0195292Y0144395D01*
X0196792Y0144395D01*
X0196852Y0144393D01*
X0196913Y0144388D01*
X0196972Y0144379D01*
X0197031Y0144366D01*
X0197090Y0144350D01*
X0197147Y0144330D01*
X0197202Y0144307D01*
X0197257Y0144280D01*
X0197309Y0144251D01*
X0197360Y0144218D01*
X0197409Y0144182D01*
X0197455Y0144144D01*
X0197499Y0144102D01*
X0197541Y0144058D01*
X0197579Y0144012D01*
X0197615Y0143963D01*
X0197648Y0143912D01*
X0197677Y0143860D01*
X0197704Y0143805D01*
X0197727Y0143750D01*
X0197747Y0143693D01*
X0197763Y0143634D01*
X0197776Y0143575D01*
X0197785Y0143516D01*
X0197790Y0143455D01*
X0197792Y0143395D01*
X0197792Y0137395D01*
X0197790Y0137335D01*
X0197785Y0137274D01*
X0197776Y0137215D01*
X0197763Y0137156D01*
X0197747Y0137097D01*
X0197727Y0137040D01*
X0197704Y0136985D01*
X0197677Y0136930D01*
X0197648Y0136878D01*
X0197615Y0136827D01*
X0197579Y0136778D01*
X0197541Y0136732D01*
X0197499Y0136688D01*
X0197455Y0136646D01*
X0197409Y0136608D01*
X0197360Y0136572D01*
X0197309Y0136539D01*
X0197257Y0136510D01*
X0197202Y0136483D01*
X0197147Y0136460D01*
X0197090Y0136440D01*
X0197031Y0136424D01*
X0196972Y0136411D01*
X0196913Y0136402D01*
X0196852Y0136397D01*
X0196792Y0136395D01*
D13*
X0199292Y0140395D02*
X0202792Y0140395D01*
X0176292Y0140395D02*
X0172792Y0140395D01*
X0120863Y0131773D02*
X0120863Y0128273D01*
X0104367Y0140395D02*
X0100867Y0140395D01*
X0077867Y0140395D02*
X0074367Y0140395D01*
X0057871Y0131773D02*
X0057871Y0128273D01*
X0057871Y0105273D02*
X0057871Y0101773D01*
X0057871Y0092403D02*
X0057871Y0088903D01*
X0074367Y0069529D02*
X0077867Y0069529D01*
X0057871Y0065903D02*
X0057871Y0062403D01*
X0074367Y0053781D02*
X0077867Y0053781D01*
X0100867Y0053781D02*
X0104367Y0053781D01*
X0120863Y0062403D02*
X0120863Y0065903D01*
X0129485Y0069529D02*
X0132985Y0069529D01*
X0155985Y0069529D02*
X0159485Y0069529D01*
X0159485Y0093151D02*
X0155985Y0093151D01*
X0132985Y0093151D02*
X0129485Y0093151D01*
X0120863Y0092403D02*
X0120863Y0088903D01*
X0120863Y0101773D02*
X0120863Y0105273D01*
X0104367Y0069529D02*
X0100867Y0069529D01*
X0216099Y0069529D02*
X0219599Y0069529D01*
X0242599Y0069529D02*
X0246099Y0069529D01*
X0258658Y0065903D02*
X0258658Y0062403D01*
X0258658Y0088903D02*
X0258658Y0092403D01*
X0258658Y0101773D02*
X0258658Y0105273D01*
X0246099Y0093151D02*
X0242599Y0093151D01*
X0219599Y0093151D02*
X0216099Y0093151D01*
X0258658Y0128273D02*
X0258658Y0131773D01*
D14*
X0241849Y0093151D03*
X0220349Y0093151D03*
X0220349Y0069529D03*
X0241849Y0069529D03*
X0155235Y0069529D03*
X0133735Y0069529D03*
X0133735Y0093151D03*
X0155235Y0093151D03*
X0100117Y0069529D03*
X0078617Y0069529D03*
X0078617Y0053781D03*
X0100117Y0053781D03*
X0100117Y0140395D03*
X0078617Y0140395D03*
X0177042Y0140395D03*
X0198542Y0140395D03*
D15*
X0258658Y0127523D03*
X0258658Y0106023D03*
X0258658Y0088153D03*
X0258658Y0066653D03*
X0120863Y0066653D03*
X0120863Y0088153D03*
X0120863Y0106023D03*
X0120863Y0127523D03*
X0057871Y0127523D03*
X0057871Y0106023D03*
X0057871Y0088153D03*
X0057871Y0066653D03*
D16*
X0112700Y0157394D02*
X0113725Y0157068D01*
X0114766Y0156800D01*
X0115820Y0156589D01*
X0116884Y0156436D01*
X0117954Y0156341D01*
X0118845Y0156310D01*
X0118846Y0156306D01*
X0118848Y0156299D01*
X0118848Y0175000D01*
X0119551Y0174983D01*
X0120590Y0174888D01*
X0121620Y0174728D01*
X0122639Y0174503D01*
X0123640Y0174212D01*
X0124619Y0173853D01*
X0125568Y0173421D01*
X0126475Y0172907D01*
X0127323Y0172300D01*
X0128080Y0171584D01*
X0128697Y0170744D01*
X0129090Y0169782D01*
X0128616Y0168858D01*
X0128047Y0167989D01*
X0127391Y0167185D01*
X0126655Y0166453D01*
X0125895Y0165844D01*
X0125079Y0165316D01*
X0124213Y0164872D01*
X0123308Y0164514D01*
X0122375Y0164243D01*
X0121419Y0164057D01*
X0120451Y0163960D01*
X0120453Y0163083D01*
X0120458Y0162205D01*
X0120464Y0161328D01*
X0120472Y0160450D01*
X0121555Y0160595D01*
X0122627Y0160811D01*
X0123681Y0161100D01*
X0124713Y0161460D01*
X0125717Y0161891D01*
X0126688Y0162392D01*
X0127622Y0162959D01*
X0128514Y0163591D01*
X0129359Y0164283D01*
X0130154Y0165033D01*
X0130896Y0165835D01*
X0131579Y0166688D01*
X0132202Y0167586D01*
X0132761Y0168525D01*
X0133253Y0169501D01*
X0133674Y0170509D01*
X0134022Y0171546D01*
X0134294Y0172604D01*
X0134488Y0173680D01*
X0134598Y0174744D01*
X0134625Y0175813D01*
X0134571Y0176881D01*
X0134439Y0177942D01*
X0134230Y0178990D01*
X0133949Y0180022D01*
X0133598Y0181031D01*
X0133179Y0182015D01*
X0132696Y0182969D01*
X0132152Y0183891D01*
X0131552Y0184775D01*
X0130896Y0185620D01*
X0130187Y0186421D01*
X0129429Y0187175D01*
X0128624Y0187878D01*
X0127775Y0188529D01*
X0126885Y0189122D01*
X0125957Y0189653D01*
X0124995Y0190120D01*
X0124003Y0190520D01*
X0122985Y0190847D01*
X0121947Y0191100D01*
X0120892Y0191278D01*
X0119827Y0191378D01*
X0118846Y0191398D01*
X0118846Y0195351D01*
X0119656Y0195341D01*
X0120743Y0195266D01*
X0121823Y0195130D01*
X0122895Y0194932D01*
X0123953Y0194674D01*
X0124995Y0194357D01*
X0126018Y0193982D01*
X0127018Y0193551D01*
X0127992Y0193065D01*
X0128938Y0192526D01*
X0129853Y0191935D01*
X0130735Y0191296D01*
X0131580Y0190609D01*
X0132387Y0189877D01*
X0133153Y0189102D01*
X0133875Y0188286D01*
X0134552Y0187433D01*
X0135181Y0186543D01*
X0135759Y0185621D01*
X0136285Y0184667D01*
X0136757Y0183686D01*
X0137173Y0182680D01*
X0137531Y0181651D01*
X0137831Y0180604D01*
X0138070Y0179541D01*
X0138249Y0178466D01*
X0138365Y0177384D01*
X0138420Y0176296D01*
X0138416Y0175229D01*
X0138352Y0174163D01*
X0138230Y0173102D01*
X0138048Y0172051D01*
X0137809Y0171010D01*
X0137511Y0169985D01*
X0137157Y0168977D01*
X0136749Y0167991D01*
X0136287Y0167028D01*
X0135775Y0166092D01*
X0135212Y0165185D01*
X0134601Y0164310D01*
X0133944Y0163469D01*
X0133243Y0162664D01*
X0132500Y0161898D01*
X0131716Y0161172D01*
X0130895Y0160490D01*
X0130038Y0159853D01*
X0129149Y0159262D01*
X0128228Y0158721D01*
X0127280Y0158230D01*
X0126307Y0157793D01*
X0125310Y0157409D01*
X0124295Y0157080D01*
X0123262Y0156808D01*
X0122216Y0156593D01*
X0121160Y0156437D01*
X0120097Y0156339D01*
X0119030Y0156299D01*
X0118846Y0156306D01*
X0118846Y0175007D01*
X0118506Y0175016D01*
X0117437Y0174932D01*
X0116379Y0174757D01*
X0115339Y0174492D01*
X0114325Y0174143D01*
X0113342Y0173715D01*
X0112393Y0173215D01*
X0111482Y0172648D01*
X0110612Y0172021D01*
X0109784Y0171338D01*
X0109002Y0170604D01*
X0108269Y0169822D01*
X0108756Y0168886D01*
X0109338Y0168006D01*
X0110008Y0167191D01*
X0110760Y0166452D01*
X0111587Y0165796D01*
X0112398Y0165274D01*
X0113257Y0164834D01*
X0114153Y0164481D01*
X0115080Y0164214D01*
X0116028Y0164036D01*
X0116988Y0163949D01*
X0116991Y0163080D01*
X0116994Y0162209D01*
X0116997Y0161339D01*
X0116998Y0160469D01*
X0115944Y0160619D01*
X0114903Y0160838D01*
X0113879Y0161128D01*
X0112878Y0161490D01*
X0111905Y0161922D01*
X0110966Y0162424D01*
X0110067Y0162992D01*
X0109210Y0163624D01*
X0108402Y0164316D01*
X0107645Y0165065D01*
X0106943Y0165864D01*
X0106298Y0166711D01*
X0105712Y0167599D01*
X0105189Y0168525D01*
X0104728Y0169484D01*
X0104332Y0170472D01*
X0104004Y0171485D01*
X0103743Y0172517D01*
X0103553Y0173564D01*
X0103435Y0174655D01*
X0103403Y0175753D01*
X0103456Y0176850D01*
X0103590Y0177940D01*
X0103805Y0179017D01*
X0104096Y0180077D01*
X0104460Y0181113D01*
X0104894Y0182122D01*
X0105395Y0183100D01*
X0105959Y0184042D01*
X0106584Y0184945D01*
X0107267Y0185806D01*
X0108004Y0186619D01*
X0108793Y0187383D01*
X0109632Y0188092D01*
X0110516Y0188743D01*
X0111443Y0189331D01*
X0112409Y0189854D01*
X0113410Y0190306D01*
X0114441Y0190684D01*
X0115497Y0190985D01*
X0116573Y0191206D01*
X0117662Y0191346D01*
X0118759Y0191404D01*
X0118847Y0191401D01*
X0118847Y0195354D01*
X0118568Y0195358D01*
X0117504Y0195309D01*
X0116444Y0195202D01*
X0115391Y0195037D01*
X0114349Y0194813D01*
X0113322Y0194532D01*
X0112311Y0194195D01*
X0111321Y0193802D01*
X0110353Y0193356D01*
X0109412Y0192858D01*
X0108498Y0192310D01*
X0107615Y0191713D01*
X0106765Y0191071D01*
X0105952Y0190384D01*
X0105175Y0189654D01*
X0104439Y0188885D01*
X0103745Y0188077D01*
X0103094Y0187233D01*
X0102490Y0186356D01*
X0101935Y0185448D01*
X0101429Y0184509D01*
X0100974Y0183546D01*
X0100574Y0182558D01*
X0105118Y0182558D01*
X0105218Y0182753D02*
X0100653Y0182753D01*
X0100574Y0182558D02*
X0100229Y0181551D01*
X0099940Y0180526D01*
X0099709Y0179486D01*
X0099536Y0178434D01*
X0099422Y0177375D01*
X0099368Y0176311D01*
X0099375Y0175236D01*
X0099442Y0174164D01*
X0099570Y0173097D01*
X0099758Y0172038D01*
X0100006Y0170992D01*
X0100313Y0169962D01*
X0100677Y0168950D01*
X0101096Y0167960D01*
X0101569Y0166994D01*
X0102093Y0166056D01*
X0102668Y0165148D01*
X0103290Y0164271D01*
X0103960Y0163430D01*
X0104673Y0162625D01*
X0105428Y0161860D01*
X0106223Y0161136D01*
X0107055Y0160456D01*
X0107923Y0159821D01*
X0108823Y0159233D01*
X0109754Y0158695D01*
X0110712Y0158208D01*
X0111695Y0157774D01*
X0112700Y0157394D01*
X0112818Y0157356D02*
X0118846Y0157356D01*
X0118848Y0157356D02*
X0125147Y0157356D01*
X0125681Y0157552D02*
X0118848Y0157552D01*
X0118846Y0157552D02*
X0112282Y0157552D01*
X0111766Y0157747D02*
X0118846Y0157747D01*
X0118848Y0157747D02*
X0126188Y0157747D01*
X0126640Y0157942D02*
X0118848Y0157942D01*
X0118846Y0157942D02*
X0111313Y0157942D01*
X0110871Y0158138D02*
X0118846Y0158138D01*
X0118848Y0158138D02*
X0127074Y0158138D01*
X0127479Y0158333D02*
X0118848Y0158333D01*
X0118846Y0158333D02*
X0110466Y0158333D01*
X0110082Y0158528D02*
X0118846Y0158528D01*
X0118848Y0158528D02*
X0127856Y0158528D01*
X0128233Y0158724D02*
X0118848Y0158724D01*
X0118846Y0158724D02*
X0109705Y0158724D01*
X0109367Y0158919D02*
X0118846Y0158919D01*
X0118848Y0158919D02*
X0128565Y0158919D01*
X0128898Y0159115D02*
X0118848Y0159115D01*
X0118846Y0159115D02*
X0109029Y0159115D01*
X0108706Y0159310D02*
X0118846Y0159310D01*
X0118848Y0159310D02*
X0129221Y0159310D01*
X0129515Y0159505D02*
X0118848Y0159505D01*
X0118846Y0159505D02*
X0108406Y0159505D01*
X0108107Y0159701D02*
X0118846Y0159701D01*
X0118848Y0159701D02*
X0129809Y0159701D01*
X0130096Y0159896D02*
X0118848Y0159896D01*
X0118846Y0159896D02*
X0107820Y0159896D01*
X0107553Y0160091D02*
X0118846Y0160091D01*
X0118848Y0160091D02*
X0130359Y0160091D01*
X0130621Y0160287D02*
X0118848Y0160287D01*
X0118846Y0160287D02*
X0107286Y0160287D01*
X0107023Y0160482D02*
X0116908Y0160482D01*
X0116998Y0160482D02*
X0118846Y0160482D01*
X0118848Y0160482D02*
X0120472Y0160482D01*
X0120470Y0160677D02*
X0118848Y0160677D01*
X0118846Y0160677D02*
X0116998Y0160677D01*
X0116998Y0160873D02*
X0118846Y0160873D01*
X0118848Y0160873D02*
X0120468Y0160873D01*
X0120466Y0161068D02*
X0118848Y0161068D01*
X0118846Y0161068D02*
X0116998Y0161068D01*
X0116997Y0161263D02*
X0118846Y0161263D01*
X0118848Y0161263D02*
X0120465Y0161263D01*
X0120463Y0161459D02*
X0118848Y0161459D01*
X0118846Y0161459D02*
X0116997Y0161459D01*
X0116996Y0161654D02*
X0118846Y0161654D01*
X0118848Y0161654D02*
X0120462Y0161654D01*
X0120460Y0161850D02*
X0118848Y0161850D01*
X0118846Y0161850D02*
X0116995Y0161850D01*
X0116995Y0162045D02*
X0118846Y0162045D01*
X0118848Y0162045D02*
X0120459Y0162045D01*
X0120457Y0162240D02*
X0118848Y0162240D01*
X0118846Y0162240D02*
X0116994Y0162240D01*
X0116993Y0162436D02*
X0118846Y0162436D01*
X0118848Y0162436D02*
X0120456Y0162436D01*
X0120455Y0162631D02*
X0118848Y0162631D01*
X0118846Y0162631D02*
X0116992Y0162631D01*
X0116992Y0162826D02*
X0118846Y0162826D01*
X0118848Y0162826D02*
X0120454Y0162826D01*
X0120453Y0163022D02*
X0118848Y0163022D01*
X0118846Y0163022D02*
X0116991Y0163022D01*
X0116990Y0163217D02*
X0118846Y0163217D01*
X0118848Y0163217D02*
X0120453Y0163217D01*
X0120452Y0163412D02*
X0118848Y0163412D01*
X0118846Y0163412D02*
X0116990Y0163412D01*
X0116989Y0163608D02*
X0118846Y0163608D01*
X0118848Y0163608D02*
X0120452Y0163608D01*
X0120451Y0163803D02*
X0118848Y0163803D01*
X0118846Y0163803D02*
X0116989Y0163803D01*
X0116445Y0163999D02*
X0118846Y0163999D01*
X0118848Y0163999D02*
X0120832Y0163999D01*
X0122124Y0164194D02*
X0118848Y0164194D01*
X0118846Y0164194D02*
X0115187Y0164194D01*
X0114471Y0164389D02*
X0118846Y0164389D01*
X0118848Y0164389D02*
X0122880Y0164389D01*
X0123487Y0164585D02*
X0118848Y0164585D01*
X0118846Y0164585D02*
X0113890Y0164585D01*
X0113395Y0164780D02*
X0118846Y0164780D01*
X0118848Y0164780D02*
X0123981Y0164780D01*
X0124415Y0164975D02*
X0118848Y0164975D01*
X0118846Y0164975D02*
X0112982Y0164975D01*
X0112600Y0165171D02*
X0118846Y0165171D01*
X0118848Y0165171D02*
X0124795Y0165171D01*
X0125156Y0165366D02*
X0118848Y0165366D01*
X0118846Y0165366D02*
X0112255Y0165366D01*
X0111951Y0165561D02*
X0118846Y0165561D01*
X0118848Y0165561D02*
X0125458Y0165561D01*
X0125760Y0165757D02*
X0118848Y0165757D01*
X0118846Y0165757D02*
X0111647Y0165757D01*
X0111390Y0165952D02*
X0118846Y0165952D01*
X0118848Y0165952D02*
X0126030Y0165952D01*
X0126274Y0166148D02*
X0118848Y0166148D01*
X0118846Y0166148D02*
X0111143Y0166148D01*
X0110897Y0166343D02*
X0118846Y0166343D01*
X0118848Y0166343D02*
X0126518Y0166343D01*
X0126741Y0166538D02*
X0118848Y0166538D01*
X0118846Y0166538D02*
X0110672Y0166538D01*
X0110473Y0166734D02*
X0118846Y0166734D01*
X0118848Y0166734D02*
X0126938Y0166734D01*
X0127134Y0166929D02*
X0118848Y0166929D01*
X0118846Y0166929D02*
X0110275Y0166929D01*
X0110076Y0167124D02*
X0118846Y0167124D01*
X0118848Y0167124D02*
X0127331Y0167124D01*
X0127501Y0167320D02*
X0118848Y0167320D01*
X0118846Y0167320D02*
X0109903Y0167320D01*
X0109742Y0167515D02*
X0118846Y0167515D01*
X0118848Y0167515D02*
X0127661Y0167515D01*
X0127820Y0167710D02*
X0118848Y0167710D01*
X0118846Y0167710D02*
X0109581Y0167710D01*
X0109420Y0167906D02*
X0118846Y0167906D01*
X0118848Y0167906D02*
X0127979Y0167906D01*
X0128120Y0168101D02*
X0118848Y0168101D01*
X0118846Y0168101D02*
X0109275Y0168101D01*
X0109146Y0168297D02*
X0118846Y0168297D01*
X0118848Y0168297D02*
X0128248Y0168297D01*
X0128376Y0168492D02*
X0118848Y0168492D01*
X0118846Y0168492D02*
X0109016Y0168492D01*
X0108887Y0168687D02*
X0118846Y0168687D01*
X0118848Y0168687D02*
X0128504Y0168687D01*
X0128629Y0168883D02*
X0118848Y0168883D01*
X0118846Y0168883D02*
X0108758Y0168883D01*
X0108656Y0169078D02*
X0118846Y0169078D01*
X0118848Y0169078D02*
X0128729Y0169078D01*
X0128829Y0169273D02*
X0118848Y0169273D01*
X0118846Y0169273D02*
X0108554Y0169273D01*
X0108452Y0169469D02*
X0118846Y0169469D01*
X0118848Y0169469D02*
X0128929Y0169469D01*
X0129030Y0169664D02*
X0118848Y0169664D01*
X0118846Y0169664D02*
X0108351Y0169664D01*
X0108304Y0169859D02*
X0118846Y0169859D01*
X0118848Y0169859D02*
X0129058Y0169859D01*
X0128979Y0170055D02*
X0118848Y0170055D01*
X0118846Y0170055D02*
X0108487Y0170055D01*
X0108670Y0170250D02*
X0118846Y0170250D01*
X0118848Y0170250D02*
X0128899Y0170250D01*
X0128819Y0170445D02*
X0118848Y0170445D01*
X0118846Y0170445D02*
X0108853Y0170445D01*
X0109041Y0170641D02*
X0118846Y0170641D01*
X0118848Y0170641D02*
X0128739Y0170641D01*
X0128629Y0170836D02*
X0118848Y0170836D01*
X0118846Y0170836D02*
X0109249Y0170836D01*
X0109457Y0171032D02*
X0118846Y0171032D01*
X0118848Y0171032D02*
X0128486Y0171032D01*
X0128342Y0171227D02*
X0118848Y0171227D01*
X0118846Y0171227D02*
X0109666Y0171227D01*
X0109886Y0171422D02*
X0118846Y0171422D01*
X0118848Y0171422D02*
X0128199Y0171422D01*
X0128045Y0171618D02*
X0118848Y0171618D01*
X0118846Y0171618D02*
X0110123Y0171618D01*
X0110360Y0171813D02*
X0118846Y0171813D01*
X0118848Y0171813D02*
X0127838Y0171813D01*
X0127631Y0172008D02*
X0118848Y0172008D01*
X0118846Y0172008D02*
X0110597Y0172008D01*
X0110866Y0172204D02*
X0118846Y0172204D01*
X0118848Y0172204D02*
X0127425Y0172204D01*
X0127184Y0172399D02*
X0118848Y0172399D01*
X0118846Y0172399D02*
X0111137Y0172399D01*
X0111408Y0172594D02*
X0118846Y0172594D01*
X0118848Y0172594D02*
X0126912Y0172594D01*
X0126639Y0172790D02*
X0118848Y0172790D01*
X0118846Y0172790D02*
X0111710Y0172790D01*
X0112024Y0172985D02*
X0118846Y0172985D01*
X0118848Y0172985D02*
X0126337Y0172985D01*
X0125992Y0173181D02*
X0118848Y0173181D01*
X0118846Y0173181D02*
X0112338Y0173181D01*
X0112698Y0173376D02*
X0118846Y0173376D01*
X0118848Y0173376D02*
X0125647Y0173376D01*
X0125238Y0173571D02*
X0118848Y0173571D01*
X0118846Y0173571D02*
X0113069Y0173571D01*
X0113460Y0173767D02*
X0118846Y0173767D01*
X0118848Y0173767D02*
X0124808Y0173767D01*
X0124322Y0173962D02*
X0118848Y0173962D01*
X0118846Y0173962D02*
X0113909Y0173962D01*
X0114367Y0174157D02*
X0118846Y0174157D01*
X0118848Y0174157D02*
X0123790Y0174157D01*
X0123157Y0174353D02*
X0118848Y0174353D01*
X0118846Y0174353D02*
X0114934Y0174353D01*
X0115558Y0174548D02*
X0118846Y0174548D01*
X0118848Y0174548D02*
X0122436Y0174548D01*
X0121522Y0174743D02*
X0118848Y0174743D01*
X0118846Y0174743D02*
X0116326Y0174743D01*
X0117522Y0174939D02*
X0118846Y0174939D01*
X0118848Y0174939D02*
X0120034Y0174939D01*
X0120160Y0176892D02*
X0130577Y0176892D01*
X0130593Y0176697D02*
X0121616Y0176697D01*
X0121698Y0176684D02*
X0122768Y0176433D01*
X0123818Y0176103D01*
X0124840Y0175699D01*
X0125833Y0175225D01*
X0126789Y0174683D01*
X0127709Y0174080D01*
X0128586Y0173419D01*
X0129418Y0172700D01*
X0130194Y0171921D01*
X0130415Y0172999D01*
X0130563Y0174089D01*
X0130635Y0175187D01*
X0130627Y0176287D01*
X0130536Y0177384D01*
X0130361Y0178471D01*
X0130099Y0179540D01*
X0129746Y0180583D01*
X0129302Y0181590D01*
X0128765Y0182550D01*
X0128135Y0183453D01*
X0127417Y0184285D01*
X0126613Y0185037D01*
X0125786Y0185663D01*
X0124901Y0186204D01*
X0123967Y0186657D01*
X0122996Y0187023D01*
X0121998Y0187303D01*
X0120979Y0187500D01*
X0119947Y0187610D01*
X0119089Y0187619D01*
X0119089Y0176949D01*
X0119088Y0176949D01*
X0119516Y0176946D01*
X0120612Y0176855D01*
X0121698Y0176684D01*
X0122475Y0176502D02*
X0130609Y0176502D01*
X0130625Y0176306D02*
X0123171Y0176306D01*
X0123793Y0176111D02*
X0130628Y0176111D01*
X0130629Y0175916D02*
X0124292Y0175916D01*
X0124786Y0175720D02*
X0130631Y0175720D01*
X0130632Y0175525D02*
X0125204Y0175525D01*
X0125613Y0175330D02*
X0130634Y0175330D01*
X0130631Y0175134D02*
X0125993Y0175134D01*
X0126338Y0174939D02*
X0130618Y0174939D01*
X0130606Y0174743D02*
X0126683Y0174743D01*
X0126996Y0174548D02*
X0130593Y0174548D01*
X0130580Y0174353D02*
X0127294Y0174353D01*
X0127592Y0174157D02*
X0130567Y0174157D01*
X0130546Y0173962D02*
X0127866Y0173962D01*
X0128125Y0173767D02*
X0130519Y0173767D01*
X0130493Y0173571D02*
X0128384Y0173571D01*
X0128636Y0173376D02*
X0130466Y0173376D01*
X0130440Y0173181D02*
X0128862Y0173181D01*
X0129088Y0172985D02*
X0130412Y0172985D01*
X0130372Y0172790D02*
X0129314Y0172790D01*
X0129523Y0172594D02*
X0130332Y0172594D01*
X0130292Y0172399D02*
X0129717Y0172399D01*
X0129912Y0172204D02*
X0130252Y0172204D01*
X0130212Y0172008D02*
X0130106Y0172008D01*
X0133647Y0170445D02*
X0137645Y0170445D01*
X0137588Y0170250D02*
X0133565Y0170250D01*
X0133484Y0170055D02*
X0137531Y0170055D01*
X0137467Y0169859D02*
X0133402Y0169859D01*
X0133321Y0169664D02*
X0137398Y0169664D01*
X0137330Y0169469D02*
X0133236Y0169469D01*
X0133138Y0169273D02*
X0137261Y0169273D01*
X0137193Y0169078D02*
X0133040Y0169078D01*
X0132941Y0168883D02*
X0137118Y0168883D01*
X0137037Y0168687D02*
X0132843Y0168687D01*
X0132741Y0168492D02*
X0136957Y0168492D01*
X0136876Y0168297D02*
X0132625Y0168297D01*
X0132509Y0168101D02*
X0136795Y0168101D01*
X0136709Y0167906D02*
X0132392Y0167906D01*
X0132276Y0167710D02*
X0136615Y0167710D01*
X0136521Y0167515D02*
X0132153Y0167515D01*
X0132017Y0167320D02*
X0136427Y0167320D01*
X0136334Y0167124D02*
X0131882Y0167124D01*
X0131747Y0166929D02*
X0136233Y0166929D01*
X0136126Y0166734D02*
X0131611Y0166734D01*
X0131459Y0166538D02*
X0136019Y0166538D01*
X0135912Y0166343D02*
X0131303Y0166343D01*
X0131146Y0166148D02*
X0135805Y0166148D01*
X0135688Y0165952D02*
X0130989Y0165952D01*
X0130823Y0165757D02*
X0135567Y0165757D01*
X0135445Y0165561D02*
X0130642Y0165561D01*
X0130462Y0165366D02*
X0135324Y0165366D01*
X0135202Y0165171D02*
X0130281Y0165171D01*
X0130093Y0164975D02*
X0135065Y0164975D01*
X0134929Y0164780D02*
X0129886Y0164780D01*
X0129679Y0164585D02*
X0134793Y0164585D01*
X0134656Y0164389D02*
X0129471Y0164389D01*
X0129250Y0164194D02*
X0134510Y0164194D01*
X0134358Y0163999D02*
X0129011Y0163999D01*
X0128773Y0163803D02*
X0134205Y0163803D01*
X0134052Y0163608D02*
X0128534Y0163608D01*
X0128261Y0163412D02*
X0133895Y0163412D01*
X0133725Y0163217D02*
X0127986Y0163217D01*
X0127710Y0163022D02*
X0133554Y0163022D01*
X0133384Y0162826D02*
X0127403Y0162826D01*
X0127082Y0162631D02*
X0133211Y0162631D01*
X0133021Y0162436D02*
X0126760Y0162436D01*
X0126394Y0162240D02*
X0132832Y0162240D01*
X0132642Y0162045D02*
X0126015Y0162045D01*
X0125620Y0161850D02*
X0132448Y0161850D01*
X0132236Y0161654D02*
X0125165Y0161654D01*
X0124709Y0161459D02*
X0132025Y0161459D01*
X0131814Y0161263D02*
X0124150Y0161263D01*
X0123566Y0161068D02*
X0131590Y0161068D01*
X0131355Y0160873D02*
X0122853Y0160873D01*
X0121965Y0160677D02*
X0131120Y0160677D01*
X0130884Y0160482D02*
X0120709Y0160482D01*
X0118848Y0157161D02*
X0124543Y0157161D01*
X0123859Y0156966D02*
X0118848Y0156966D01*
X0118846Y0156966D02*
X0114125Y0156966D01*
X0113434Y0157161D02*
X0118846Y0157161D01*
X0118848Y0156770D02*
X0123077Y0156770D01*
X0122091Y0156575D02*
X0118848Y0156575D01*
X0118846Y0156575D02*
X0115917Y0156575D01*
X0114917Y0156770D02*
X0118846Y0156770D01*
X0118848Y0156379D02*
X0120540Y0156379D01*
X0118846Y0156379D02*
X0117518Y0156379D01*
X0115667Y0160677D02*
X0106784Y0160677D01*
X0106545Y0160873D02*
X0114781Y0160873D01*
X0114091Y0161068D02*
X0106306Y0161068D01*
X0106083Y0161263D02*
X0113505Y0161263D01*
X0112964Y0161459D02*
X0105868Y0161459D01*
X0105654Y0161654D02*
X0112508Y0161654D01*
X0112068Y0161850D02*
X0105440Y0161850D01*
X0105246Y0162045D02*
X0111675Y0162045D01*
X0111309Y0162240D02*
X0105053Y0162240D01*
X0104860Y0162436D02*
X0110947Y0162436D01*
X0110638Y0162631D02*
X0104668Y0162631D01*
X0104495Y0162826D02*
X0110329Y0162826D01*
X0110027Y0163022D02*
X0104321Y0163022D01*
X0104148Y0163217D02*
X0109762Y0163217D01*
X0109497Y0163412D02*
X0103975Y0163412D01*
X0103818Y0163608D02*
X0109232Y0163608D01*
X0109001Y0163803D02*
X0103663Y0163803D01*
X0103507Y0163999D02*
X0108773Y0163999D01*
X0108545Y0164194D02*
X0103352Y0164194D01*
X0103206Y0164389D02*
X0108328Y0164389D01*
X0108131Y0164585D02*
X0103068Y0164585D01*
X0102929Y0164780D02*
X0107933Y0164780D01*
X0107735Y0164975D02*
X0102790Y0164975D01*
X0102653Y0165171D02*
X0107552Y0165171D01*
X0107380Y0165366D02*
X0102529Y0165366D01*
X0102406Y0165561D02*
X0107208Y0165561D01*
X0107037Y0165757D02*
X0102282Y0165757D01*
X0102159Y0165952D02*
X0106875Y0165952D01*
X0106727Y0166148D02*
X0102042Y0166148D01*
X0101933Y0166343D02*
X0106578Y0166343D01*
X0106429Y0166538D02*
X0101823Y0166538D01*
X0101714Y0166734D02*
X0106283Y0166734D01*
X0106154Y0166929D02*
X0101605Y0166929D01*
X0101505Y0167124D02*
X0106025Y0167124D01*
X0105896Y0167320D02*
X0101409Y0167320D01*
X0101313Y0167515D02*
X0105768Y0167515D01*
X0105649Y0167710D02*
X0101218Y0167710D01*
X0101122Y0167906D02*
X0105539Y0167906D01*
X0105428Y0168101D02*
X0101036Y0168101D01*
X0100953Y0168297D02*
X0105318Y0168297D01*
X0105208Y0168492D02*
X0100870Y0168492D01*
X0100788Y0168687D02*
X0105111Y0168687D01*
X0105017Y0168883D02*
X0100705Y0168883D01*
X0100631Y0169078D02*
X0104923Y0169078D01*
X0104829Y0169273D02*
X0100560Y0169273D01*
X0100490Y0169469D02*
X0104735Y0169469D01*
X0104656Y0169664D02*
X0100420Y0169664D01*
X0100350Y0169859D02*
X0104578Y0169859D01*
X0104499Y0170055D02*
X0100285Y0170055D01*
X0100227Y0170250D02*
X0104421Y0170250D01*
X0104343Y0170445D02*
X0100169Y0170445D01*
X0100111Y0170641D02*
X0104277Y0170641D01*
X0104214Y0170836D02*
X0100053Y0170836D01*
X0099997Y0171032D02*
X0104151Y0171032D01*
X0104087Y0171227D02*
X0099951Y0171227D01*
X0099905Y0171422D02*
X0104024Y0171422D01*
X0103970Y0171618D02*
X0099858Y0171618D01*
X0099812Y0171813D02*
X0103921Y0171813D01*
X0103872Y0172008D02*
X0099766Y0172008D01*
X0099729Y0172204D02*
X0103822Y0172204D01*
X0103773Y0172399D02*
X0099694Y0172399D01*
X0099659Y0172594D02*
X0103729Y0172594D01*
X0103694Y0172790D02*
X0099625Y0172790D01*
X0099590Y0172985D02*
X0103658Y0172985D01*
X0103623Y0173181D02*
X0099560Y0173181D01*
X0099536Y0173376D02*
X0103587Y0173376D01*
X0103552Y0173571D02*
X0099513Y0173571D01*
X0099490Y0173767D02*
X0103531Y0173767D01*
X0103510Y0173962D02*
X0099466Y0173962D01*
X0099443Y0174157D02*
X0103489Y0174157D01*
X0103468Y0174353D02*
X0099430Y0174353D01*
X0099418Y0174548D02*
X0103446Y0174548D01*
X0103432Y0174743D02*
X0099406Y0174743D01*
X0099393Y0174939D02*
X0103427Y0174939D01*
X0103421Y0175134D02*
X0099381Y0175134D01*
X0099374Y0175330D02*
X0103415Y0175330D01*
X0103410Y0175525D02*
X0099373Y0175525D01*
X0099372Y0175720D02*
X0103404Y0175720D01*
X0103411Y0175916D02*
X0099371Y0175916D01*
X0099369Y0176111D02*
X0103420Y0176111D01*
X0103430Y0176306D02*
X0099368Y0176306D01*
X0099378Y0176502D02*
X0103439Y0176502D01*
X0103448Y0176697D02*
X0099388Y0176697D01*
X0099398Y0176892D02*
X0103461Y0176892D01*
X0103485Y0177088D02*
X0099408Y0177088D01*
X0099418Y0177283D02*
X0103509Y0177283D01*
X0103533Y0177479D02*
X0099433Y0177479D01*
X0099454Y0177674D02*
X0103557Y0177674D01*
X0103581Y0177869D02*
X0099475Y0177869D01*
X0099496Y0178065D02*
X0103615Y0178065D01*
X0103654Y0178260D02*
X0099517Y0178260D01*
X0099539Y0178455D02*
X0103693Y0178455D01*
X0103732Y0178651D02*
X0099571Y0178651D01*
X0099604Y0178846D02*
X0103771Y0178846D01*
X0103812Y0179041D02*
X0099636Y0179041D01*
X0099668Y0179237D02*
X0103865Y0179237D01*
X0103919Y0179432D02*
X0099700Y0179432D01*
X0099740Y0179627D02*
X0103973Y0179627D01*
X0104026Y0179823D02*
X0099784Y0179823D01*
X0099827Y0180018D02*
X0104080Y0180018D01*
X0104144Y0180214D02*
X0099871Y0180214D01*
X0099914Y0180409D02*
X0104213Y0180409D01*
X0104281Y0180604D02*
X0099963Y0180604D01*
X0100018Y0180800D02*
X0104350Y0180800D01*
X0104419Y0180995D02*
X0100073Y0180995D01*
X0100128Y0181190D02*
X0104493Y0181190D01*
X0104577Y0181386D02*
X0100183Y0181386D01*
X0100240Y0181581D02*
X0104662Y0181581D01*
X0104746Y0181776D02*
X0100306Y0181776D01*
X0100373Y0181972D02*
X0104830Y0181972D01*
X0104918Y0182167D02*
X0100440Y0182167D01*
X0100507Y0182363D02*
X0105018Y0182363D01*
X0105318Y0182949D02*
X0100732Y0182949D01*
X0100812Y0183144D02*
X0105421Y0183144D01*
X0105538Y0183339D02*
X0100891Y0183339D01*
X0100970Y0183535D02*
X0105655Y0183535D01*
X0105772Y0183730D02*
X0101061Y0183730D01*
X0101153Y0183925D02*
X0105889Y0183925D01*
X0106014Y0184121D02*
X0101245Y0184121D01*
X0101337Y0184316D02*
X0106149Y0184316D01*
X0106284Y0184512D02*
X0101430Y0184512D01*
X0101535Y0184707D02*
X0106420Y0184707D01*
X0106555Y0184902D02*
X0101640Y0184902D01*
X0101746Y0185098D02*
X0106705Y0185098D01*
X0106860Y0185293D02*
X0101851Y0185293D01*
X0101959Y0185488D02*
X0107015Y0185488D01*
X0107170Y0185684D02*
X0102079Y0185684D01*
X0102198Y0185879D02*
X0107333Y0185879D01*
X0107510Y0186074D02*
X0102318Y0186074D01*
X0102437Y0186270D02*
X0107687Y0186270D01*
X0107864Y0186465D02*
X0102565Y0186465D01*
X0102700Y0186661D02*
X0108047Y0186661D01*
X0108248Y0186856D02*
X0102834Y0186856D01*
X0102969Y0187051D02*
X0108450Y0187051D01*
X0108652Y0187247D02*
X0103104Y0187247D01*
X0103255Y0187442D02*
X0108863Y0187442D01*
X0109094Y0187637D02*
X0103406Y0187637D01*
X0103556Y0187833D02*
X0109325Y0187833D01*
X0109556Y0188028D02*
X0103707Y0188028D01*
X0103871Y0188223D02*
X0109811Y0188223D01*
X0110076Y0188419D02*
X0104039Y0188419D01*
X0104207Y0188614D02*
X0110342Y0188614D01*
X0110622Y0188809D02*
X0104374Y0188809D01*
X0104554Y0189005D02*
X0110930Y0189005D01*
X0111237Y0189200D02*
X0104741Y0189200D01*
X0104928Y0189396D02*
X0111562Y0189396D01*
X0111924Y0189591D02*
X0105115Y0189591D01*
X0105316Y0189786D02*
X0112285Y0189786D01*
X0112693Y0189982D02*
X0105524Y0189982D01*
X0105731Y0190177D02*
X0113125Y0190177D01*
X0113592Y0190372D02*
X0105939Y0190372D01*
X0106169Y0190568D02*
X0114124Y0190568D01*
X0114719Y0190763D02*
X0106401Y0190763D01*
X0106632Y0190958D02*
X0115405Y0190958D01*
X0116318Y0191154D02*
X0106875Y0191154D01*
X0107133Y0191349D02*
X0117717Y0191349D01*
X0118846Y0191545D02*
X0130391Y0191545D01*
X0130122Y0191740D02*
X0118846Y0191740D01*
X0118847Y0191740D02*
X0107654Y0191740D01*
X0107392Y0191545D02*
X0118847Y0191545D01*
X0118846Y0191935D02*
X0129852Y0191935D01*
X0129550Y0192131D02*
X0118846Y0192131D01*
X0118847Y0192131D02*
X0108233Y0192131D01*
X0107944Y0191935D02*
X0118847Y0191935D01*
X0118846Y0192326D02*
X0129247Y0192326D01*
X0128945Y0192521D02*
X0118846Y0192521D01*
X0118847Y0192521D02*
X0108851Y0192521D01*
X0108525Y0192326D02*
X0118847Y0192326D01*
X0118846Y0192717D02*
X0128603Y0192717D01*
X0128260Y0192912D02*
X0118846Y0192912D01*
X0118847Y0192912D02*
X0109515Y0192912D01*
X0109177Y0192717D02*
X0118847Y0192717D01*
X0118846Y0193107D02*
X0127907Y0193107D01*
X0127515Y0193303D02*
X0118846Y0193303D01*
X0118847Y0193303D02*
X0110253Y0193303D01*
X0109884Y0193107D02*
X0118847Y0193107D01*
X0118846Y0193498D02*
X0127124Y0193498D01*
X0126687Y0193694D02*
X0118846Y0193694D01*
X0118847Y0193694D02*
X0111085Y0193694D01*
X0110662Y0193498D02*
X0118847Y0193498D01*
X0118846Y0193889D02*
X0126234Y0193889D01*
X0125739Y0194084D02*
X0118846Y0194084D01*
X0118847Y0194084D02*
X0112032Y0194084D01*
X0111539Y0193889D02*
X0118847Y0193889D01*
X0118846Y0194280D02*
X0125206Y0194280D01*
X0124607Y0194475D02*
X0118846Y0194475D01*
X0118847Y0194475D02*
X0113151Y0194475D01*
X0112565Y0194280D02*
X0118847Y0194280D01*
X0118846Y0194670D02*
X0123966Y0194670D01*
X0123168Y0194866D02*
X0118846Y0194866D01*
X0118847Y0194866D02*
X0114594Y0194866D01*
X0113827Y0194670D02*
X0118847Y0194670D01*
X0118846Y0195061D02*
X0122196Y0195061D01*
X0120821Y0195256D02*
X0118846Y0195256D01*
X0118847Y0195256D02*
X0116980Y0195256D01*
X0115544Y0195061D02*
X0118847Y0195061D01*
X0120136Y0191349D02*
X0130661Y0191349D01*
X0130909Y0191154D02*
X0121630Y0191154D01*
X0122528Y0190958D02*
X0131150Y0190958D01*
X0131390Y0190763D02*
X0123246Y0190763D01*
X0123853Y0190568D02*
X0131626Y0190568D01*
X0131841Y0190372D02*
X0124369Y0190372D01*
X0124854Y0190177D02*
X0132056Y0190177D01*
X0132272Y0189982D02*
X0125281Y0189982D01*
X0125683Y0189786D02*
X0132477Y0189786D01*
X0132670Y0189591D02*
X0126066Y0189591D01*
X0126407Y0189396D02*
X0132863Y0189396D01*
X0133056Y0189200D02*
X0126748Y0189200D01*
X0127061Y0189005D02*
X0133239Y0189005D01*
X0133412Y0188809D02*
X0127354Y0188809D01*
X0127647Y0188614D02*
X0133585Y0188614D01*
X0133758Y0188419D02*
X0127918Y0188419D01*
X0128173Y0188223D02*
X0133925Y0188223D01*
X0134080Y0188028D02*
X0128428Y0188028D01*
X0128676Y0187833D02*
X0134235Y0187833D01*
X0134390Y0187637D02*
X0128900Y0187637D01*
X0129123Y0187442D02*
X0134545Y0187442D01*
X0134684Y0187247D02*
X0129347Y0187247D01*
X0129553Y0187051D02*
X0134822Y0187051D01*
X0134960Y0186856D02*
X0129749Y0186856D01*
X0129946Y0186661D02*
X0135098Y0186661D01*
X0135230Y0186465D02*
X0130142Y0186465D01*
X0130321Y0186270D02*
X0135352Y0186270D01*
X0135475Y0186074D02*
X0130493Y0186074D01*
X0130666Y0185879D02*
X0135597Y0185879D01*
X0135720Y0185684D02*
X0130839Y0185684D01*
X0130998Y0185488D02*
X0135832Y0185488D01*
X0135940Y0185293D02*
X0131149Y0185293D01*
X0131301Y0185098D02*
X0136048Y0185098D01*
X0136156Y0184902D02*
X0131453Y0184902D01*
X0131598Y0184707D02*
X0136263Y0184707D01*
X0136360Y0184512D02*
X0131731Y0184512D01*
X0131864Y0184316D02*
X0136454Y0184316D01*
X0136548Y0184121D02*
X0131996Y0184121D01*
X0132129Y0183925D02*
X0136642Y0183925D01*
X0136736Y0183730D02*
X0132247Y0183730D01*
X0132363Y0183535D02*
X0136820Y0183535D01*
X0136900Y0183339D02*
X0132478Y0183339D01*
X0132593Y0183144D02*
X0136981Y0183144D01*
X0137062Y0182949D02*
X0132706Y0182949D01*
X0132805Y0182753D02*
X0137142Y0182753D01*
X0137215Y0182558D02*
X0132904Y0182558D01*
X0133003Y0182363D02*
X0137283Y0182363D01*
X0137351Y0182167D02*
X0133102Y0182167D01*
X0133197Y0181972D02*
X0137419Y0181972D01*
X0137487Y0181776D02*
X0133280Y0181776D01*
X0133364Y0181581D02*
X0137551Y0181581D01*
X0137607Y0181386D02*
X0133447Y0181386D01*
X0133530Y0181190D02*
X0137663Y0181190D01*
X0137719Y0180995D02*
X0133610Y0180995D01*
X0133678Y0180800D02*
X0137775Y0180800D01*
X0137831Y0180604D02*
X0133746Y0180604D01*
X0133814Y0180409D02*
X0137875Y0180409D01*
X0137919Y0180214D02*
X0133882Y0180214D01*
X0133950Y0180018D02*
X0137963Y0180018D01*
X0138007Y0179823D02*
X0134003Y0179823D01*
X0134057Y0179627D02*
X0138051Y0179627D01*
X0138088Y0179432D02*
X0134110Y0179432D01*
X0134163Y0179237D02*
X0138121Y0179237D01*
X0138153Y0179041D02*
X0134216Y0179041D01*
X0134259Y0178846D02*
X0138185Y0178846D01*
X0138218Y0178651D02*
X0134298Y0178651D01*
X0134337Y0178455D02*
X0138250Y0178455D01*
X0138271Y0178260D02*
X0134375Y0178260D01*
X0134414Y0178065D02*
X0138292Y0178065D01*
X0138313Y0177869D02*
X0134448Y0177869D01*
X0134472Y0177674D02*
X0138334Y0177674D01*
X0138355Y0177479D02*
X0134497Y0177479D01*
X0134521Y0177283D02*
X0138370Y0177283D01*
X0138380Y0177088D02*
X0134545Y0177088D01*
X0134570Y0176892D02*
X0138390Y0176892D01*
X0138400Y0176697D02*
X0134580Y0176697D01*
X0134590Y0176502D02*
X0138410Y0176502D01*
X0138420Y0176306D02*
X0134600Y0176306D01*
X0134610Y0176111D02*
X0138420Y0176111D01*
X0138419Y0175916D02*
X0134620Y0175916D01*
X0134623Y0175720D02*
X0138418Y0175720D01*
X0138417Y0175525D02*
X0134618Y0175525D01*
X0134613Y0175330D02*
X0138416Y0175330D01*
X0138410Y0175134D02*
X0134608Y0175134D01*
X0134603Y0174939D02*
X0138399Y0174939D01*
X0138387Y0174743D02*
X0134597Y0174743D01*
X0134577Y0174548D02*
X0138375Y0174548D01*
X0138364Y0174353D02*
X0134557Y0174353D01*
X0134537Y0174157D02*
X0138352Y0174157D01*
X0138329Y0173962D02*
X0134517Y0173962D01*
X0134497Y0173767D02*
X0138306Y0173767D01*
X0138284Y0173571D02*
X0134469Y0173571D01*
X0134434Y0173376D02*
X0138261Y0173376D01*
X0138239Y0173181D02*
X0134398Y0173181D01*
X0134363Y0172985D02*
X0138210Y0172985D01*
X0138176Y0172790D02*
X0134328Y0172790D01*
X0134292Y0172594D02*
X0138142Y0172594D01*
X0138108Y0172399D02*
X0134242Y0172399D01*
X0134191Y0172204D02*
X0138074Y0172204D01*
X0138038Y0172008D02*
X0134141Y0172008D01*
X0134091Y0171813D02*
X0137993Y0171813D01*
X0137948Y0171618D02*
X0134041Y0171618D01*
X0133981Y0171422D02*
X0137903Y0171422D01*
X0137859Y0171227D02*
X0133915Y0171227D01*
X0133849Y0171032D02*
X0137814Y0171032D01*
X0137758Y0170836D02*
X0133784Y0170836D01*
X0133718Y0170641D02*
X0137702Y0170641D01*
X0130561Y0177088D02*
X0119089Y0177088D01*
X0119088Y0177088D02*
X0107308Y0177088D01*
X0107310Y0177100D02*
X0107195Y0176063D01*
X0107154Y0175020D01*
X0107186Y0173977D01*
X0107290Y0172938D01*
X0107464Y0171910D01*
X0108188Y0172644D01*
X0108962Y0173326D01*
X0109777Y0173958D01*
X0110630Y0174538D01*
X0111517Y0175064D01*
X0112437Y0175531D01*
X0113385Y0175937D01*
X0114358Y0176279D01*
X0115352Y0176553D01*
X0116363Y0176758D01*
X0117386Y0176891D01*
X0118416Y0176954D01*
X0119087Y0176949D01*
X0119088Y0176949D01*
X0119088Y0187619D01*
X0118855Y0187621D01*
X0117767Y0187533D01*
X0116690Y0187355D01*
X0115631Y0187088D01*
X0114600Y0186731D01*
X0113605Y0186281D01*
X0112658Y0185740D01*
X0111769Y0185109D01*
X0110980Y0184426D01*
X0110258Y0183673D01*
X0109608Y0182857D01*
X0109033Y0181988D01*
X0108533Y0181072D01*
X0108111Y0180118D01*
X0107767Y0179134D01*
X0107500Y0178125D01*
X0107310Y0177100D01*
X0107344Y0177283D02*
X0119088Y0177283D01*
X0119089Y0177283D02*
X0130545Y0177283D01*
X0130521Y0177479D02*
X0119089Y0177479D01*
X0119088Y0177479D02*
X0107380Y0177479D01*
X0107416Y0177674D02*
X0119088Y0177674D01*
X0119089Y0177674D02*
X0130490Y0177674D01*
X0130458Y0177869D02*
X0119089Y0177869D01*
X0119088Y0177869D02*
X0107453Y0177869D01*
X0107489Y0178065D02*
X0119088Y0178065D01*
X0119089Y0178065D02*
X0130427Y0178065D01*
X0130395Y0178260D02*
X0119089Y0178260D01*
X0119088Y0178260D02*
X0107536Y0178260D01*
X0107588Y0178455D02*
X0119088Y0178455D01*
X0119089Y0178455D02*
X0130364Y0178455D01*
X0130317Y0178651D02*
X0119089Y0178651D01*
X0119088Y0178651D02*
X0107639Y0178651D01*
X0107691Y0178846D02*
X0119088Y0178846D01*
X0119089Y0178846D02*
X0130269Y0178846D01*
X0130221Y0179041D02*
X0119089Y0179041D01*
X0119088Y0179041D02*
X0107743Y0179041D01*
X0107803Y0179237D02*
X0119088Y0179237D01*
X0119089Y0179237D02*
X0130173Y0179237D01*
X0130125Y0179432D02*
X0119089Y0179432D01*
X0119088Y0179432D02*
X0107871Y0179432D01*
X0107940Y0179627D02*
X0119088Y0179627D01*
X0119089Y0179627D02*
X0130069Y0179627D01*
X0130003Y0179823D02*
X0119089Y0179823D01*
X0119088Y0179823D02*
X0108008Y0179823D01*
X0108076Y0180018D02*
X0119088Y0180018D01*
X0119089Y0180018D02*
X0129937Y0180018D01*
X0129871Y0180214D02*
X0119089Y0180214D01*
X0119088Y0180214D02*
X0108153Y0180214D01*
X0108240Y0180409D02*
X0119088Y0180409D01*
X0119089Y0180409D02*
X0129805Y0180409D01*
X0129737Y0180604D02*
X0119089Y0180604D01*
X0119088Y0180604D02*
X0108326Y0180604D01*
X0108413Y0180800D02*
X0119088Y0180800D01*
X0119089Y0180800D02*
X0129651Y0180800D01*
X0129564Y0180995D02*
X0119089Y0180995D01*
X0119088Y0180995D02*
X0108499Y0180995D01*
X0108598Y0181190D02*
X0119088Y0181190D01*
X0119089Y0181190D02*
X0129478Y0181190D01*
X0129392Y0181386D02*
X0119089Y0181386D01*
X0119088Y0181386D02*
X0108704Y0181386D01*
X0108811Y0181581D02*
X0119088Y0181581D01*
X0119089Y0181581D02*
X0129306Y0181581D01*
X0129197Y0181776D02*
X0119089Y0181776D01*
X0119088Y0181776D02*
X0108917Y0181776D01*
X0109024Y0181972D02*
X0119088Y0181972D01*
X0119089Y0181972D02*
X0129088Y0181972D01*
X0128979Y0182167D02*
X0119089Y0182167D01*
X0119088Y0182167D02*
X0109151Y0182167D01*
X0109281Y0182363D02*
X0119088Y0182363D01*
X0119089Y0182363D02*
X0128870Y0182363D01*
X0128759Y0182558D02*
X0119089Y0182558D01*
X0119088Y0182558D02*
X0109410Y0182558D01*
X0109539Y0182753D02*
X0119088Y0182753D01*
X0119089Y0182753D02*
X0128623Y0182753D01*
X0128487Y0182949D02*
X0119089Y0182949D01*
X0119088Y0182949D02*
X0109681Y0182949D01*
X0109837Y0183144D02*
X0119088Y0183144D01*
X0119089Y0183144D02*
X0128351Y0183144D01*
X0128215Y0183339D02*
X0119089Y0183339D01*
X0119088Y0183339D02*
X0109992Y0183339D01*
X0110148Y0183535D02*
X0119088Y0183535D01*
X0119089Y0183535D02*
X0128065Y0183535D01*
X0127896Y0183730D02*
X0119089Y0183730D01*
X0119088Y0183730D02*
X0110313Y0183730D01*
X0110500Y0183925D02*
X0119088Y0183925D01*
X0119089Y0183925D02*
X0127727Y0183925D01*
X0127559Y0184121D02*
X0119089Y0184121D01*
X0119088Y0184121D02*
X0110688Y0184121D01*
X0110875Y0184316D02*
X0119088Y0184316D01*
X0119089Y0184316D02*
X0127383Y0184316D01*
X0127175Y0184512D02*
X0119089Y0184512D01*
X0119088Y0184512D02*
X0111079Y0184512D01*
X0111305Y0184707D02*
X0119088Y0184707D01*
X0119089Y0184707D02*
X0126966Y0184707D01*
X0126757Y0184902D02*
X0119089Y0184902D01*
X0119088Y0184902D02*
X0111530Y0184902D01*
X0111756Y0185098D02*
X0119088Y0185098D01*
X0119089Y0185098D02*
X0126533Y0185098D01*
X0126275Y0185293D02*
X0119089Y0185293D01*
X0119088Y0185293D02*
X0112029Y0185293D01*
X0112304Y0185488D02*
X0119088Y0185488D01*
X0119089Y0185488D02*
X0126017Y0185488D01*
X0125752Y0185684D02*
X0119089Y0185684D01*
X0119088Y0185684D02*
X0112579Y0185684D01*
X0112901Y0185879D02*
X0119088Y0185879D01*
X0119089Y0185879D02*
X0125433Y0185879D01*
X0125113Y0186074D02*
X0119089Y0186074D01*
X0119088Y0186074D02*
X0113243Y0186074D01*
X0113585Y0186270D02*
X0119088Y0186270D01*
X0119089Y0186270D02*
X0124766Y0186270D01*
X0124363Y0186465D02*
X0119089Y0186465D01*
X0119088Y0186465D02*
X0114011Y0186465D01*
X0114443Y0186661D02*
X0119088Y0186661D01*
X0119089Y0186661D02*
X0123959Y0186661D01*
X0123441Y0186856D02*
X0119089Y0186856D01*
X0119088Y0186856D02*
X0114960Y0186856D01*
X0115524Y0187051D02*
X0119088Y0187051D01*
X0119089Y0187051D02*
X0122897Y0187051D01*
X0122200Y0187247D02*
X0119089Y0187247D01*
X0119088Y0187247D02*
X0116259Y0187247D01*
X0117217Y0187442D02*
X0119088Y0187442D01*
X0119089Y0187442D02*
X0121278Y0187442D01*
X0117401Y0176892D02*
X0107287Y0176892D01*
X0107265Y0176697D02*
X0116062Y0176697D01*
X0115166Y0176502D02*
X0107244Y0176502D01*
X0107222Y0176306D02*
X0114459Y0176306D01*
X0113881Y0176111D02*
X0107200Y0176111D01*
X0107189Y0175916D02*
X0113335Y0175916D01*
X0112879Y0175720D02*
X0107182Y0175720D01*
X0107174Y0175525D02*
X0112424Y0175525D01*
X0112040Y0175330D02*
X0107166Y0175330D01*
X0107159Y0175134D02*
X0111656Y0175134D01*
X0111306Y0174939D02*
X0107157Y0174939D01*
X0107163Y0174743D02*
X0110977Y0174743D01*
X0110647Y0174548D02*
X0107169Y0174548D01*
X0107175Y0174353D02*
X0110357Y0174353D01*
X0110070Y0174157D02*
X0107181Y0174157D01*
X0107188Y0173962D02*
X0109782Y0173962D01*
X0109530Y0173767D02*
X0107207Y0173767D01*
X0107227Y0173571D02*
X0109278Y0173571D01*
X0109026Y0173376D02*
X0107246Y0173376D01*
X0107266Y0173181D02*
X0108797Y0173181D01*
X0108575Y0172985D02*
X0107285Y0172985D01*
X0107315Y0172790D02*
X0108353Y0172790D01*
X0108139Y0172594D02*
X0107348Y0172594D01*
X0107381Y0172399D02*
X0107947Y0172399D01*
X0107754Y0172204D02*
X0107414Y0172204D01*
X0107447Y0172008D02*
X0107561Y0172008D01*
M02*
