G75*
%MOIN*%
%OFA0B0*%
%FSLAX25Y25*%
%IPPOS*%
%LPD*%
%AMOC8*
5,1,8,0,0,1.08239X$1,22.5*
%
%ADD10OC8,0.07296*%
%ADD11C,0.07296*%
%ADD12C,0.06000*%
%ADD13OC8,0.06400*%
%ADD14OC8,0.38202*%
%ADD15OC8,0.37414*%
D10*
X0085277Y0108962D03*
X0203387Y0108962D03*
D11*
X0203387Y0100962D03*
X0085277Y0100962D03*
D12*
X0107047Y0099962D02*
X0112247Y0099962D01*
X0112247Y0089962D02*
X0107047Y0089962D01*
X0137047Y0089962D02*
X0142247Y0089962D01*
X0142247Y0099962D02*
X0137047Y0099962D01*
X0137047Y0109962D02*
X0142247Y0109962D01*
X0142247Y0119962D02*
X0137047Y0119962D01*
X0112247Y0119962D02*
X0107047Y0119962D01*
X0107047Y0109962D02*
X0112247Y0109962D01*
X0225157Y0109962D02*
X0230357Y0109962D01*
X0230357Y0119962D02*
X0225157Y0119962D01*
X0225157Y0099962D02*
X0230357Y0099962D01*
X0230357Y0089962D02*
X0225157Y0089962D01*
X0255157Y0089962D02*
X0260357Y0089962D01*
X0260357Y0099962D02*
X0255157Y0099962D01*
X0255157Y0109962D02*
X0260357Y0109962D01*
X0260357Y0119962D02*
X0255157Y0119962D01*
D13*
X0274254Y0109647D03*
X0293939Y0109647D03*
X0293939Y0094372D03*
X0274254Y0094372D03*
X0257757Y0071498D03*
X0274254Y0064372D03*
X0293939Y0064372D03*
X0227757Y0071498D03*
X0183702Y0064372D03*
X0164017Y0064372D03*
X0139647Y0071498D03*
X0109647Y0071498D03*
X0065592Y0089962D03*
X0065592Y0119962D03*
X0109647Y0140395D03*
X0139647Y0140395D03*
X0164017Y0139647D03*
X0183702Y0139647D03*
X0227757Y0140395D03*
X0227757Y0156143D03*
X0257757Y0156143D03*
X0257757Y0140395D03*
X0274254Y0139647D03*
X0293939Y0139647D03*
X0183702Y0109647D03*
X0164017Y0109647D03*
X0164017Y0094372D03*
X0183702Y0094372D03*
D14*
X0034096Y0034096D03*
X0034096Y0175828D03*
X0164017Y0175828D03*
X0293939Y0175828D03*
X0293939Y0034096D03*
D15*
X0164017Y0034096D03*
M02*
