G75*
%MOIN*%
%OFA0B0*%
%FSLAX25Y25*%
%IPPOS*%
%LPD*%
%AMOC8*
5,1,8,0,0,1.08239X$1,22.5*
%
%ADD10OC8,0.06496*%
%ADD11C,0.06496*%
%ADD12C,0.05200*%
%ADD13OC8,0.05600*%
%ADD14OC8,0.37402*%
%ADD15C,0.02362*%
%ADD16C,0.02400*%
%ADD17C,0.03200*%
%ADD18OC8,0.36614*%
D10*
X0085277Y0108962D03*
X0203387Y0108962D03*
D11*
X0203387Y0100962D03*
X0085277Y0100962D03*
D12*
X0107047Y0099962D02*
X0112247Y0099962D01*
X0112247Y0089962D02*
X0107047Y0089962D01*
X0137047Y0089962D02*
X0142247Y0089962D01*
X0142247Y0099962D02*
X0137047Y0099962D01*
X0137047Y0109962D02*
X0142247Y0109962D01*
X0142247Y0119962D02*
X0137047Y0119962D01*
X0112247Y0119962D02*
X0107047Y0119962D01*
X0107047Y0109962D02*
X0112247Y0109962D01*
X0225157Y0109962D02*
X0230357Y0109962D01*
X0230357Y0119962D02*
X0225157Y0119962D01*
X0225157Y0099962D02*
X0230357Y0099962D01*
X0230357Y0089962D02*
X0225157Y0089962D01*
X0255157Y0089962D02*
X0260357Y0089962D01*
X0260357Y0099962D02*
X0255157Y0099962D01*
X0255157Y0109962D02*
X0260357Y0109962D01*
X0260357Y0119962D02*
X0255157Y0119962D01*
D13*
X0274254Y0109647D03*
X0293939Y0109647D03*
X0293939Y0094372D03*
X0274254Y0094372D03*
X0257757Y0071498D03*
X0274254Y0064372D03*
X0293939Y0064372D03*
X0227757Y0071498D03*
X0183702Y0064372D03*
X0164017Y0064372D03*
X0139647Y0071498D03*
X0109647Y0071498D03*
X0065592Y0089962D03*
X0065592Y0119962D03*
X0109647Y0140395D03*
X0139647Y0140395D03*
X0164017Y0139647D03*
X0183702Y0139647D03*
X0227757Y0140395D03*
X0227757Y0156143D03*
X0257757Y0156143D03*
X0257757Y0140395D03*
X0274254Y0139647D03*
X0293939Y0139647D03*
X0183702Y0109647D03*
X0164017Y0109647D03*
X0164017Y0094372D03*
X0183702Y0094372D03*
D14*
X0293939Y0034096D03*
X0293939Y0175828D03*
X0164017Y0175828D03*
X0034096Y0175828D03*
X0034096Y0034096D03*
D15*
X0126456Y0076057D02*
X0138043Y0064470D01*
X0155423Y0064470D01*
X0178596Y0087643D01*
X0186320Y0087643D01*
X0192114Y0093437D01*
X0192114Y0112748D01*
X0184389Y0108885D02*
X0183702Y0109647D01*
X0184389Y0108885D02*
X0184389Y0095368D01*
X0183702Y0094372D01*
X0176665Y0099230D02*
X0176665Y0132059D01*
X0182458Y0137852D01*
X0183702Y0139647D01*
X0184389Y0139783D01*
X0199838Y0155232D01*
X0226874Y0155232D01*
X0227757Y0156143D01*
X0228805Y0162956D02*
X0211261Y0162956D01*
X0205356Y0162956D01*
X0182458Y0162956D01*
X0167009Y0147507D01*
X0138043Y0147507D01*
X0130319Y0139783D01*
X0130319Y0097299D01*
X0138043Y0089574D01*
X0139647Y0089962D01*
X0126456Y0076057D02*
X0126456Y0105023D01*
X0112939Y0118541D01*
X0111007Y0118541D01*
X0109647Y0119962D01*
X0109076Y0101161D02*
X0109647Y0099962D01*
X0109076Y0101161D02*
X0091183Y0101161D01*
X0085903Y0101161D01*
X0085277Y0100962D01*
X0058868Y0112748D02*
X0058868Y0122403D01*
X0109612Y0173147D01*
X0111007Y0174543D01*
X0128387Y0197716D02*
X0130553Y0197716D01*
X0172803Y0197716D01*
X0228805Y0147507D02*
X0234598Y0141714D01*
X0234598Y0126265D01*
X0257771Y0120472D02*
X0257757Y0119962D01*
X0257771Y0120472D02*
X0275151Y0137852D01*
X0274254Y0139647D01*
X0273220Y0139783D01*
X0257771Y0155232D01*
X0257757Y0156143D01*
X0292531Y0137852D02*
X0293939Y0139647D01*
X0292531Y0137852D02*
X0292531Y0128196D01*
X0275151Y0110817D01*
X0274254Y0109647D01*
X0277082Y0103092D02*
X0266380Y0103092D01*
X0277082Y0103092D02*
X0282876Y0108885D01*
X0292531Y0108885D01*
X0293939Y0109647D01*
X0292531Y0095368D02*
X0293939Y0094372D01*
X0292531Y0095368D02*
X0275151Y0095368D01*
X0274254Y0094372D01*
X0257757Y0071498D02*
X0257771Y0070263D01*
X0263565Y0064470D01*
X0273220Y0064470D01*
X0274254Y0064372D01*
X0201769Y0074126D02*
X0201769Y0093151D01*
X0201769Y0099230D01*
X0203387Y0100962D01*
X0176665Y0099230D02*
X0165078Y0087643D01*
X0139647Y0119962D02*
X0139974Y0120472D01*
X0139974Y0139783D01*
X0139647Y0140395D01*
X0139974Y0139783D02*
X0163147Y0139783D01*
X0164017Y0139647D01*
X0155423Y0012330D02*
X0176665Y0012330D01*
D16*
X0034096Y0020317D02*
X0034096Y0034096D01*
X0034096Y0020317D02*
X0042082Y0012330D01*
X0155423Y0012330D01*
X0176665Y0012330D02*
X0209181Y0012330D01*
X0235868Y0039017D01*
X0235868Y0105946D01*
X0231852Y0109962D01*
X0227757Y0109962D01*
X0224726Y0106931D01*
X0217167Y0106931D01*
X0211261Y0112836D01*
X0211261Y0118742D01*
X0227757Y0135238D01*
X0227757Y0140395D01*
X0228805Y0147507D02*
X0202626Y0147507D01*
X0192114Y0136996D01*
X0192114Y0112748D01*
X0196990Y0104470D02*
X0201419Y0108899D01*
X0203387Y0108962D02*
X0207261Y0108962D01*
X0209293Y0106931D01*
X0217167Y0106931D01*
X0208580Y0099962D02*
X0227757Y0099962D01*
X0245218Y0098565D02*
X0245218Y0147777D01*
X0230039Y0162956D01*
X0228805Y0162956D01*
X0211261Y0162956D02*
X0207563Y0162956D01*
X0205356Y0162956D02*
X0211261Y0168862D01*
X0211261Y0183702D01*
X0197248Y0197716D01*
X0172803Y0197716D01*
X0164017Y0175828D02*
X0112293Y0175828D01*
X0109612Y0173147D01*
X0095354Y0197716D02*
X0130553Y0197716D01*
X0095354Y0197716D02*
X0073466Y0175828D01*
X0034096Y0175828D01*
X0095120Y0136458D02*
X0095120Y0105098D01*
X0091183Y0101161D01*
X0085277Y0108962D02*
X0081403Y0108962D01*
X0077403Y0104962D01*
X0077403Y0097088D01*
X0083309Y0091183D01*
X0083309Y0075435D01*
X0087246Y0071498D01*
X0109647Y0071498D01*
X0116773Y0069529D02*
X0126616Y0059687D01*
X0091183Y0059687D01*
X0075435Y0075435D01*
X0075435Y0093151D01*
X0067561Y0101025D01*
X0062805Y0101025D01*
X0058868Y0097088D01*
X0058868Y0112748D01*
X0065592Y0119962D02*
X0069529Y0119962D01*
X0077403Y0112088D01*
X0077403Y0126616D01*
X0099057Y0148269D01*
X0114805Y0148269D01*
X0118742Y0144332D01*
X0118742Y0136458D01*
X0114805Y0132521D01*
X0108899Y0132521D01*
X0101025Y0124647D01*
X0101025Y0114805D01*
X0105868Y0109962D01*
X0109647Y0109962D01*
X0139647Y0109962D02*
X0155080Y0109962D01*
X0164017Y0101025D01*
X0164017Y0109647D01*
X0164017Y0101025D02*
X0164017Y0094372D01*
X0165078Y0087643D02*
X0164681Y0087246D01*
X0158112Y0087246D01*
X0154175Y0091183D01*
X0154175Y0075435D01*
X0150238Y0071498D01*
X0139647Y0071498D01*
X0126616Y0059687D02*
X0159332Y0059687D01*
X0164017Y0064372D01*
X0183702Y0064372D02*
X0196990Y0077659D01*
X0196990Y0104470D01*
X0201769Y0093151D02*
X0208580Y0099962D01*
X0245218Y0098565D02*
X0253820Y0089962D01*
X0257757Y0089962D01*
X0263348Y0094372D02*
X0257757Y0099962D01*
X0263348Y0094372D02*
X0274254Y0094372D01*
X0266380Y0103092D02*
X0259509Y0109962D01*
X0257757Y0109962D01*
X0253506Y0109962D01*
X0249647Y0113820D01*
X0249647Y0135474D01*
X0254569Y0140395D01*
X0257757Y0140395D01*
X0201769Y0074126D02*
X0183393Y0055750D01*
X0077403Y0055750D01*
X0065592Y0067561D01*
X0065592Y0089962D01*
X0058868Y0097088D02*
X0058868Y0056569D01*
X0109647Y0089962D02*
X0114057Y0089962D01*
X0116773Y0087246D01*
X0116773Y0069529D01*
X0154175Y0091183D02*
X0154175Y0097088D01*
X0151301Y0099962D01*
X0139647Y0099962D01*
X0099057Y0140395D02*
X0095120Y0136458D01*
X0099057Y0140395D02*
X0109647Y0140395D01*
X0077403Y0112088D02*
X0077403Y0110868D01*
X0077403Y0104962D01*
X0293939Y0064372D02*
X0293939Y0034096D01*
D17*
X0229068Y0041834D02*
X0229068Y0065098D01*
X0227758Y0065098D01*
X0227758Y0071498D01*
X0227758Y0077898D01*
X0229068Y0077898D01*
X0229068Y0083762D01*
X0227758Y0083762D01*
X0227758Y0089962D01*
X0227757Y0089962D01*
X0227757Y0089962D01*
X0218957Y0089962D01*
X0218957Y0089474D01*
X0219110Y0088510D01*
X0219412Y0087582D01*
X0219855Y0086713D01*
X0220428Y0085923D01*
X0221118Y0085233D01*
X0221908Y0084659D01*
X0222778Y0084216D01*
X0223706Y0083915D01*
X0224670Y0083762D01*
X0227757Y0083762D01*
X0227757Y0089962D01*
X0218957Y0089962D01*
X0218957Y0090450D01*
X0219110Y0091414D01*
X0219412Y0092342D01*
X0219830Y0093162D01*
X0211397Y0093162D01*
X0208550Y0090316D01*
X0208550Y0075524D01*
X0208569Y0075478D01*
X0208569Y0072773D01*
X0207534Y0070274D01*
X0187245Y0049985D01*
X0184746Y0048950D01*
X0076051Y0048950D01*
X0073551Y0049985D01*
X0071638Y0051898D01*
X0061740Y0061796D01*
X0059827Y0063709D01*
X0058792Y0066208D01*
X0058792Y0084883D01*
X0057192Y0086483D01*
X0057192Y0093442D01*
X0062113Y0098362D01*
X0069072Y0098362D01*
X0070603Y0096831D01*
X0070603Y0109272D01*
X0068313Y0111562D01*
X0062113Y0111562D01*
X0057192Y0116483D01*
X0057192Y0123442D01*
X0062113Y0128362D01*
X0069072Y0128362D01*
X0070603Y0126831D01*
X0070603Y0127968D01*
X0071638Y0130468D01*
X0073551Y0132380D01*
X0095205Y0154034D01*
X0097704Y0155069D01*
X0116157Y0155069D01*
X0118657Y0154034D01*
X0120569Y0152121D01*
X0124506Y0148184D01*
X0125542Y0145685D01*
X0125542Y0144596D01*
X0126477Y0145532D01*
X0134202Y0153256D01*
X0136694Y0154289D01*
X0164201Y0154289D01*
X0178617Y0168705D01*
X0181109Y0169737D01*
X0202520Y0169737D01*
X0204461Y0171678D01*
X0204461Y0180886D01*
X0194431Y0190916D01*
X0171450Y0190916D01*
X0171405Y0190935D01*
X0131951Y0190935D01*
X0131905Y0190916D01*
X0098171Y0190916D01*
X0077318Y0170064D01*
X0074819Y0169028D01*
X0058397Y0169028D01*
X0058397Y0165763D01*
X0044162Y0151528D01*
X0024030Y0151528D01*
X0012637Y0162921D01*
X0012637Y0047003D01*
X0024030Y0058397D01*
X0044162Y0058397D01*
X0058397Y0044162D01*
X0058397Y0024030D01*
X0053497Y0019130D01*
X0156775Y0019130D01*
X0156821Y0019111D01*
X0175267Y0019111D01*
X0175312Y0019130D01*
X0206364Y0019130D01*
X0229068Y0041834D01*
X0228954Y0041721D02*
X0058397Y0041721D01*
X0057639Y0044919D02*
X0229068Y0044919D01*
X0229068Y0048118D02*
X0054441Y0048118D01*
X0051242Y0051316D02*
X0072220Y0051316D01*
X0071638Y0051898D02*
X0071638Y0051898D01*
X0069021Y0054515D02*
X0048044Y0054515D01*
X0044845Y0057713D02*
X0065823Y0057713D01*
X0062624Y0060912D02*
X0012637Y0060912D01*
X0012637Y0057713D02*
X0023347Y0057713D01*
X0020148Y0054515D02*
X0012637Y0054515D01*
X0012637Y0051316D02*
X0016950Y0051316D01*
X0013751Y0048118D02*
X0012637Y0048118D01*
X0012637Y0064110D02*
X0059661Y0064110D01*
X0061740Y0061796D02*
X0061740Y0061796D01*
X0058792Y0067309D02*
X0012637Y0067309D01*
X0012637Y0070507D02*
X0058792Y0070507D01*
X0058792Y0073706D02*
X0012637Y0073706D01*
X0012637Y0076904D02*
X0058792Y0076904D01*
X0058792Y0080103D02*
X0012637Y0080103D01*
X0012637Y0083301D02*
X0058792Y0083301D01*
X0057192Y0086500D02*
X0012637Y0086500D01*
X0012637Y0089698D02*
X0057192Y0089698D01*
X0057192Y0092897D02*
X0012637Y0092897D01*
X0012637Y0096095D02*
X0059846Y0096095D01*
X0070603Y0099294D02*
X0012637Y0099294D01*
X0012637Y0102492D02*
X0070603Y0102492D01*
X0070603Y0105691D02*
X0012637Y0105691D01*
X0012637Y0108889D02*
X0070603Y0108889D01*
X0061587Y0112088D02*
X0012637Y0112088D01*
X0012637Y0115286D02*
X0058389Y0115286D01*
X0057192Y0118485D02*
X0012637Y0118485D01*
X0012637Y0121683D02*
X0057192Y0121683D01*
X0058632Y0124882D02*
X0012637Y0124882D01*
X0012637Y0128080D02*
X0061831Y0128080D01*
X0069353Y0128080D02*
X0070650Y0128080D01*
X0072450Y0131279D02*
X0012637Y0131279D01*
X0012637Y0134477D02*
X0075648Y0134477D01*
X0078847Y0137676D02*
X0012637Y0137676D01*
X0012637Y0140874D02*
X0082045Y0140874D01*
X0085244Y0144073D02*
X0012637Y0144073D01*
X0012637Y0147272D02*
X0088442Y0147272D01*
X0091641Y0150470D02*
X0012637Y0150470D01*
X0012637Y0153669D02*
X0021889Y0153669D01*
X0018691Y0156867D02*
X0012637Y0156867D01*
X0012637Y0160066D02*
X0015492Y0160066D01*
X0046303Y0153669D02*
X0094839Y0153669D01*
X0119022Y0153669D02*
X0135197Y0153669D01*
X0131416Y0150470D02*
X0122221Y0150470D01*
X0124885Y0147272D02*
X0128217Y0147272D01*
X0166779Y0156867D02*
X0049501Y0156867D01*
X0052700Y0160066D02*
X0169978Y0160066D01*
X0173176Y0163264D02*
X0055898Y0163264D01*
X0058397Y0166463D02*
X0176375Y0166463D01*
X0180925Y0169661D02*
X0076346Y0169661D01*
X0080114Y0172860D02*
X0204461Y0172860D01*
X0204461Y0176058D02*
X0083313Y0176058D01*
X0086511Y0179257D02*
X0204461Y0179257D01*
X0202892Y0182455D02*
X0089710Y0182455D01*
X0092908Y0185654D02*
X0199693Y0185654D01*
X0196495Y0188852D02*
X0096107Y0188852D01*
X0235631Y0119962D02*
X0240297Y0115297D01*
X0240297Y0087738D01*
X0244726Y0083309D01*
X0297876Y0083309D01*
X0305750Y0091183D01*
X0305750Y0164017D01*
X0293939Y0175828D01*
X0219694Y0092897D02*
X0211132Y0092897D01*
X0208550Y0089698D02*
X0218957Y0089698D01*
X0220009Y0086500D02*
X0208550Y0086500D01*
X0208550Y0083301D02*
X0229068Y0083301D01*
X0229068Y0080103D02*
X0208550Y0080103D01*
X0208550Y0076904D02*
X0224113Y0076904D01*
X0225107Y0077898D02*
X0227757Y0077898D01*
X0227757Y0071498D01*
X0221357Y0071498D01*
X0221357Y0074149D01*
X0225107Y0077898D01*
X0227757Y0076904D02*
X0227758Y0076904D01*
X0227758Y0073706D02*
X0227757Y0073706D01*
X0227757Y0071498D02*
X0227758Y0071498D01*
X0227757Y0071498D02*
X0227757Y0089962D01*
X0227758Y0089698D02*
X0227757Y0089698D01*
X0227758Y0086500D02*
X0227757Y0086500D01*
X0221357Y0073706D02*
X0208569Y0073706D01*
X0207631Y0070507D02*
X0221357Y0070507D01*
X0221357Y0071498D02*
X0221357Y0068847D01*
X0225107Y0065098D01*
X0227757Y0065098D01*
X0227757Y0071498D01*
X0227757Y0071498D01*
X0221357Y0071498D01*
X0222895Y0067309D02*
X0204569Y0067309D01*
X0201371Y0064110D02*
X0229068Y0064110D01*
X0227758Y0067309D02*
X0227757Y0067309D01*
X0227758Y0070507D02*
X0227757Y0070507D01*
X0227758Y0071498D02*
X0227757Y0071498D01*
X0227757Y0050592D01*
X0211261Y0034096D01*
X0164017Y0034096D01*
X0081340Y0034096D01*
X0058868Y0056569D01*
X0075461Y0067309D02*
X0081818Y0067309D01*
X0081481Y0067646D02*
X0077544Y0071583D01*
X0076509Y0074082D01*
X0076509Y0088366D01*
X0073992Y0090883D01*
X0073992Y0086483D01*
X0072392Y0084883D01*
X0072392Y0070377D01*
X0080220Y0062550D01*
X0130373Y0062550D01*
X0120708Y0072216D01*
X0119675Y0074708D01*
X0119675Y0096467D01*
X0119199Y0095317D01*
X0117358Y0093476D01*
X0117550Y0093212D01*
X0117993Y0092342D01*
X0118295Y0091414D01*
X0118447Y0090450D01*
X0118447Y0089962D01*
X0118447Y0089474D01*
X0118295Y0088510D01*
X0117993Y0087582D01*
X0117550Y0086713D01*
X0116976Y0085923D01*
X0116286Y0085233D01*
X0115497Y0084659D01*
X0114627Y0084216D01*
X0113699Y0083915D01*
X0112735Y0083762D01*
X0109647Y0083762D01*
X0106559Y0083762D01*
X0105595Y0083915D01*
X0104667Y0084216D01*
X0103798Y0084659D01*
X0103008Y0085233D01*
X0102318Y0085923D01*
X0101745Y0086713D01*
X0101301Y0087582D01*
X0101000Y0088510D01*
X0100847Y0089474D01*
X0100847Y0089962D01*
X0109647Y0089962D01*
X0109647Y0089962D01*
X0109647Y0083762D01*
X0109647Y0089962D01*
X0109647Y0089962D01*
X0100847Y0089962D01*
X0100847Y0090450D01*
X0101000Y0091414D01*
X0101301Y0092342D01*
X0101745Y0093212D01*
X0101937Y0093476D01*
X0101033Y0094380D01*
X0092581Y0094380D01*
X0092535Y0094361D01*
X0091189Y0094361D01*
X0090289Y0093461D01*
X0089808Y0093262D01*
X0090109Y0092535D01*
X0090109Y0078298D01*
X0104568Y0078298D01*
X0106168Y0079898D01*
X0113127Y0079898D01*
X0118047Y0074977D01*
X0118047Y0068018D01*
X0113127Y0063098D01*
X0106168Y0063098D01*
X0104568Y0064698D01*
X0085893Y0064698D01*
X0083394Y0065733D01*
X0081481Y0067646D01*
X0078619Y0070507D02*
X0072392Y0070507D01*
X0072392Y0073706D02*
X0076665Y0073706D01*
X0076509Y0076904D02*
X0072392Y0076904D01*
X0072392Y0080103D02*
X0076509Y0080103D01*
X0076509Y0083301D02*
X0072392Y0083301D01*
X0073992Y0086500D02*
X0076509Y0086500D01*
X0075176Y0089698D02*
X0073992Y0089698D01*
X0090109Y0089698D02*
X0100847Y0089698D01*
X0101584Y0092897D02*
X0089959Y0092897D01*
X0090109Y0086500D02*
X0101899Y0086500D01*
X0109647Y0086500D02*
X0109647Y0086500D01*
X0109647Y0089698D02*
X0109647Y0089698D01*
X0109647Y0089962D02*
X0118447Y0089962D01*
X0109647Y0089962D01*
X0109647Y0089962D01*
X0117395Y0086500D02*
X0119675Y0086500D01*
X0119675Y0083301D02*
X0090109Y0083301D01*
X0090109Y0080103D02*
X0119675Y0080103D01*
X0119675Y0076904D02*
X0116120Y0076904D01*
X0118047Y0073706D02*
X0120090Y0073706D01*
X0118047Y0070507D02*
X0122416Y0070507D01*
X0125614Y0067309D02*
X0117338Y0067309D01*
X0114139Y0064110D02*
X0128813Y0064110D01*
X0105155Y0064110D02*
X0078659Y0064110D01*
X0118447Y0089698D02*
X0119675Y0089698D01*
X0119675Y0092897D02*
X0117710Y0092897D01*
X0119521Y0096095D02*
X0119675Y0096095D01*
X0164914Y0064372D02*
X0170417Y0064372D01*
X0164914Y0064372D01*
X0164914Y0064372D01*
X0170417Y0064372D02*
X0170417Y0062550D01*
X0175302Y0062550D01*
X0175302Y0067851D01*
X0180223Y0072772D01*
X0182486Y0072772D01*
X0190190Y0080476D01*
X0190190Y0081923D01*
X0190162Y0081895D01*
X0187669Y0080862D01*
X0181405Y0080862D01*
X0168991Y0068449D01*
X0170417Y0067023D01*
X0170417Y0064372D01*
X0170417Y0064110D02*
X0175302Y0064110D01*
X0175302Y0067309D02*
X0170131Y0067309D01*
X0171050Y0070507D02*
X0177959Y0070507D01*
X0174248Y0073706D02*
X0183420Y0073706D01*
X0186618Y0076904D02*
X0177447Y0076904D01*
X0180645Y0080103D02*
X0189817Y0080103D01*
X0198172Y0060912D02*
X0229068Y0060912D01*
X0229068Y0057713D02*
X0194974Y0057713D01*
X0191775Y0054515D02*
X0229068Y0054515D01*
X0229068Y0051316D02*
X0188577Y0051316D01*
X0219359Y0032125D02*
X0058397Y0032125D01*
X0058397Y0035324D02*
X0222557Y0035324D01*
X0225756Y0038522D02*
X0058397Y0038522D01*
X0058397Y0028927D02*
X0216160Y0028927D01*
X0212962Y0025728D02*
X0058397Y0025728D01*
X0056896Y0022530D02*
X0209763Y0022530D01*
X0206565Y0019331D02*
X0053698Y0019331D01*
D18*
X0164017Y0034096D03*
M02*
