%
M48
M72
T01C0.0276
T02C0.0315
T03C0.0320
T04C0.1969
%
T01
X10965Y7150
X13965Y7150
X16402Y6437
X18370Y6437
X22776Y7150
X25776Y7150
X27425Y6437
X29394Y6437
X29394Y9437
X27425Y9437
X27425Y10965
X29394Y10965
X29394Y13965
X27425Y13965
X25776Y14040
X25776Y15614
X22776Y15614
X22776Y14040
X18370Y13965
X16402Y13965
X13965Y14040
X10965Y14040
X6559Y11996
X6559Y8996
X16402Y9437
X18370Y9437
X18370Y10965
X16402Y10965
T02
X20339Y10896
X20339Y10096
X8528Y10096
X8528Y10896
T03
X10965Y10996
X10965Y11996
X13965Y11996
X13965Y10996
X13965Y9996
X13965Y8996
X10965Y8996
X10965Y9996
X22776Y9996
X22776Y8996
X22776Y10996
X22776Y11996
X25776Y11996
X25776Y10996
X25776Y9996
X25776Y8996
T04
X3410Y3410
X16402Y3410
X29394Y3410
X29394Y17583
X16402Y17583
X3410Y17583
M30
