G75*
%MOIN*%
%OFA0B0*%
%FSLAX25Y25*%
%IPPOS*%
%LPD*%
%AMOC8*
5,1,8,0,0,1.08239X$1,22.5*
%
%ADD10C,0.00500*%
%ADD11C,0.00700*%
%ADD12C,0.00600*%
%ADD13C,0.02000*%
%ADD14R,0.01500X0.02000*%
%ADD15R,0.02000X0.01500*%
%ADD16C,0.00197*%
D10*
X0048017Y0073559D02*
X0048017Y0075811D01*
X0048768Y0076561D01*
X0050269Y0076561D01*
X0051019Y0075811D01*
X0051019Y0073559D01*
X0051019Y0075060D02*
X0052521Y0076561D01*
X0052521Y0078163D02*
X0052521Y0081165D01*
X0052521Y0079664D02*
X0048017Y0079664D01*
X0049518Y0078163D01*
X0050269Y0082767D02*
X0050269Y0085769D01*
X0052521Y0085018D02*
X0048017Y0085018D01*
X0050269Y0082767D01*
X0052521Y0073559D02*
X0048017Y0073559D01*
X0067702Y0073559D02*
X0067702Y0075811D01*
X0068453Y0076561D01*
X0069954Y0076561D01*
X0070704Y0075811D01*
X0070704Y0073559D01*
X0070704Y0075060D02*
X0072206Y0076561D01*
X0072206Y0078163D02*
X0072206Y0081165D01*
X0072206Y0079664D02*
X0067702Y0079664D01*
X0069203Y0078163D01*
X0068453Y0082767D02*
X0067702Y0083517D01*
X0067702Y0085018D01*
X0068453Y0085769D01*
X0069203Y0085769D01*
X0069954Y0085018D01*
X0070704Y0085769D01*
X0071455Y0085769D01*
X0072206Y0085018D01*
X0072206Y0083517D01*
X0071455Y0082767D01*
X0069954Y0084268D02*
X0069954Y0085018D01*
X0072206Y0073559D02*
X0067702Y0073559D01*
X0103239Y0076848D02*
X0103239Y0081351D01*
X0105491Y0081351D01*
X0106241Y0080601D01*
X0106241Y0079100D01*
X0105491Y0078349D01*
X0103239Y0078349D01*
X0104740Y0078349D02*
X0106241Y0076848D01*
X0107843Y0076848D02*
X0110845Y0076848D01*
X0109344Y0076848D02*
X0109344Y0081351D01*
X0107843Y0079850D01*
X0112447Y0080601D02*
X0112447Y0077598D01*
X0115449Y0080601D01*
X0115449Y0077598D01*
X0114699Y0076848D01*
X0113197Y0076848D01*
X0112447Y0077598D01*
X0112447Y0080601D02*
X0113197Y0081351D01*
X0114699Y0081351D01*
X0115449Y0080601D01*
X0145963Y0115897D02*
X0147464Y0115897D01*
X0148215Y0116648D01*
X0149816Y0115897D02*
X0152819Y0118900D01*
X0152819Y0119650D01*
X0152068Y0120401D01*
X0150567Y0120401D01*
X0149816Y0119650D01*
X0148215Y0119650D02*
X0147464Y0120401D01*
X0145963Y0120401D01*
X0145212Y0119650D01*
X0145212Y0116648D01*
X0145963Y0115897D01*
X0149816Y0115897D02*
X0152819Y0115897D01*
X0173453Y0119784D02*
X0173453Y0122036D01*
X0174204Y0122786D01*
X0175705Y0122786D01*
X0176456Y0122036D01*
X0176456Y0119784D01*
X0177957Y0119784D02*
X0173453Y0119784D01*
X0176456Y0121285D02*
X0177957Y0122786D01*
X0177957Y0124388D02*
X0174954Y0127390D01*
X0174204Y0127390D01*
X0173453Y0126640D01*
X0173453Y0125138D01*
X0174204Y0124388D01*
X0177957Y0124388D02*
X0177957Y0127390D01*
X0193138Y0125422D02*
X0193889Y0123921D01*
X0195390Y0122419D01*
X0195390Y0124671D01*
X0196141Y0125422D01*
X0196891Y0125422D01*
X0197642Y0124671D01*
X0197642Y0123170D01*
X0196891Y0122419D01*
X0195390Y0122419D01*
X0195390Y0120818D02*
X0196141Y0120067D01*
X0196141Y0117815D01*
X0197642Y0117815D02*
X0193138Y0117815D01*
X0193138Y0120067D01*
X0193889Y0120818D01*
X0195390Y0120818D01*
X0196141Y0119317D02*
X0197642Y0120818D01*
X0221818Y0128181D02*
X0223319Y0128181D01*
X0222568Y0128181D02*
X0222568Y0132685D01*
X0221818Y0132685D02*
X0223319Y0132685D01*
X0224887Y0131934D02*
X0224887Y0128931D01*
X0225637Y0128181D01*
X0227139Y0128181D01*
X0227889Y0128931D01*
X0229491Y0128181D02*
X0232493Y0128181D01*
X0230992Y0128181D02*
X0230992Y0132685D01*
X0229491Y0131183D01*
X0227889Y0131934D02*
X0227139Y0132685D01*
X0225637Y0132685D01*
X0224887Y0131934D01*
X0225301Y0144325D02*
X0223800Y0145826D01*
X0224551Y0145826D02*
X0222299Y0145826D01*
X0222299Y0144325D02*
X0222299Y0148829D01*
X0224551Y0148829D01*
X0225301Y0148078D01*
X0225301Y0146577D01*
X0224551Y0145826D01*
X0226903Y0145075D02*
X0226903Y0144325D01*
X0226903Y0145075D02*
X0229905Y0148078D01*
X0229905Y0148829D01*
X0226903Y0148829D01*
X0246013Y0151036D02*
X0246505Y0149684D01*
X0248350Y0148823D01*
X0249702Y0149316D01*
X0250132Y0150238D01*
X0249640Y0151590D01*
X0247795Y0152450D01*
X0247303Y0153802D01*
X0247733Y0154725D01*
X0249086Y0155217D01*
X0250930Y0154357D01*
X0251422Y0153004D01*
X0252811Y0151234D02*
X0255516Y0152218D01*
X0256500Y0149514D01*
X0254780Y0145825D01*
X0257029Y0145899D02*
X0257521Y0144547D01*
X0259365Y0143687D01*
X0260718Y0144179D01*
X0261148Y0145101D01*
X0260655Y0146453D01*
X0258811Y0147313D01*
X0258319Y0148666D01*
X0258749Y0149588D01*
X0260101Y0150080D01*
X0261946Y0149220D01*
X0262438Y0147868D01*
X0266777Y0151965D02*
X0265841Y0154536D01*
X0266718Y0154127D02*
X0264088Y0155354D01*
X0263270Y0153600D02*
X0265723Y0158861D01*
X0268353Y0157634D01*
X0268821Y0156349D01*
X0268003Y0154595D01*
X0266718Y0154127D01*
X0269753Y0153779D02*
X0271507Y0152962D01*
X0274487Y0154774D02*
X0270980Y0156409D01*
X0268527Y0151149D01*
X0272034Y0149514D01*
X0273784Y0148698D02*
X0275419Y0152205D01*
X0277990Y0153141D01*
X0278926Y0150569D01*
X0277290Y0147063D01*
X0278517Y0149693D02*
X0275010Y0151328D01*
X0276352Y0156999D02*
X0278932Y0162532D01*
X0281698Y0161242D01*
X0282191Y0159890D01*
X0281331Y0158046D01*
X0279978Y0157554D01*
X0277212Y0158844D01*
X0283150Y0157198D02*
X0283642Y0155845D01*
X0285486Y0154985D01*
X0286838Y0155477D01*
X0287698Y0157322D01*
X0287206Y0158674D01*
X0285362Y0159534D01*
X0284010Y0159042D01*
X0283150Y0157198D01*
X0289087Y0155551D02*
X0291792Y0156536D01*
X0292714Y0156106D01*
X0294537Y0155256D02*
X0294107Y0154333D01*
X0295029Y0153903D01*
X0295459Y0154826D01*
X0294537Y0155256D01*
X0289947Y0157396D02*
X0288227Y0153707D01*
X0285000Y0149872D02*
X0281493Y0151507D01*
X0283247Y0150689D02*
X0280794Y0145429D01*
X0284297Y0143795D02*
X0286051Y0142978D01*
X0285174Y0143386D02*
X0287627Y0148647D01*
X0286750Y0149056D02*
X0288504Y0148238D01*
X0290255Y0147421D02*
X0288619Y0143915D01*
X0289555Y0141343D01*
X0292126Y0142279D01*
X0293762Y0145786D01*
X0295103Y0144093D02*
X0293467Y0140587D01*
X0293935Y0139301D01*
X0295689Y0138483D01*
X0296974Y0138951D01*
X0298609Y0142458D01*
X0298142Y0143744D01*
X0296388Y0144561D01*
X0295103Y0144093D01*
X0300359Y0141642D02*
X0299951Y0140765D01*
X0300418Y0139480D01*
X0302172Y0138662D01*
X0302640Y0137377D01*
X0302231Y0136500D01*
X0300945Y0136032D01*
X0299192Y0136850D01*
X0298724Y0138135D01*
X0300359Y0141642D02*
X0301645Y0142110D01*
X0303398Y0141292D01*
X0303866Y0140007D01*
X0313327Y0137774D02*
X0319432Y0137774D01*
X0319432Y0134722D01*
X0318414Y0133704D01*
X0316379Y0133704D01*
X0315362Y0134722D01*
X0315362Y0137774D01*
X0315362Y0140799D02*
X0315362Y0142834D01*
X0316379Y0143851D01*
X0319432Y0143851D01*
X0319432Y0140799D01*
X0318414Y0139781D01*
X0317397Y0140799D01*
X0317397Y0143851D01*
X0317397Y0131697D02*
X0317397Y0128644D01*
X0318414Y0127627D01*
X0319432Y0128644D01*
X0319432Y0131697D01*
X0316379Y0131697D01*
X0315362Y0130679D01*
X0315362Y0128644D01*
X0315362Y0125620D02*
X0319432Y0125620D01*
X0319432Y0122567D01*
X0318414Y0121550D01*
X0315362Y0121550D01*
X0315362Y0119543D02*
X0315362Y0116490D01*
X0316379Y0115472D01*
X0318414Y0115472D01*
X0319432Y0116490D01*
X0319432Y0119543D01*
X0320449Y0119543D02*
X0315362Y0119543D01*
X0320449Y0119543D02*
X0321467Y0118525D01*
X0321467Y0117508D01*
X0319432Y0113456D02*
X0319432Y0111421D01*
X0319432Y0112439D02*
X0315362Y0112439D01*
X0315362Y0111421D01*
X0315362Y0109405D02*
X0315362Y0107370D01*
X0314344Y0108387D02*
X0318414Y0108387D01*
X0319432Y0109405D01*
X0313327Y0112439D02*
X0312309Y0112439D01*
X0308638Y0114002D02*
X0308638Y0118072D01*
X0307621Y0120079D02*
X0303551Y0124149D01*
X0302533Y0124149D01*
X0301516Y0123132D01*
X0301516Y0121097D01*
X0302533Y0120079D01*
X0307621Y0120079D02*
X0307621Y0124149D01*
X0307621Y0111995D02*
X0304568Y0111995D01*
X0303551Y0110977D01*
X0303551Y0108942D01*
X0305586Y0108942D02*
X0305586Y0111995D01*
X0307621Y0111995D02*
X0307621Y0108942D01*
X0306603Y0107925D01*
X0305586Y0108942D01*
X0307621Y0105908D02*
X0306603Y0104891D01*
X0302533Y0104891D01*
X0303551Y0105908D02*
X0303551Y0103873D01*
X0304568Y0101866D02*
X0307621Y0101866D01*
X0304568Y0101866D02*
X0303551Y0100849D01*
X0303551Y0097796D01*
X0307621Y0097796D01*
X0307621Y0095789D02*
X0307621Y0092736D01*
X0306603Y0091719D01*
X0305586Y0092736D01*
X0305586Y0095789D01*
X0304568Y0095789D02*
X0307621Y0095789D01*
X0304568Y0095789D02*
X0303551Y0094771D01*
X0303551Y0092736D01*
X0307621Y0089702D02*
X0307621Y0087667D01*
X0307621Y0088685D02*
X0301516Y0088685D01*
X0301516Y0087667D01*
X0302533Y0085660D02*
X0304568Y0085660D01*
X0305586Y0084643D01*
X0305586Y0081590D01*
X0307621Y0081590D02*
X0301516Y0081590D01*
X0301516Y0084643D01*
X0302533Y0085660D01*
X0315362Y0085091D02*
X0315362Y0087126D01*
X0316379Y0088144D01*
X0319432Y0088144D01*
X0319432Y0085091D01*
X0318414Y0084074D01*
X0317397Y0085091D01*
X0317397Y0088144D01*
X0319432Y0090151D02*
X0315362Y0090151D01*
X0315362Y0091168D01*
X0316379Y0092186D01*
X0315362Y0093203D01*
X0316379Y0094221D01*
X0319432Y0094221D01*
X0319432Y0092186D02*
X0316379Y0092186D01*
X0316379Y0096228D02*
X0318414Y0096228D01*
X0319432Y0097246D01*
X0319432Y0099281D01*
X0318414Y0100298D01*
X0316379Y0100298D01*
X0315362Y0099281D01*
X0315362Y0097246D01*
X0316379Y0096228D01*
X0315362Y0102305D02*
X0319432Y0102305D01*
X0317397Y0102305D02*
X0315362Y0104340D01*
X0315362Y0105358D01*
X0296067Y0105453D02*
X0295317Y0104703D01*
X0294566Y0104703D01*
X0293815Y0105453D01*
X0293815Y0106955D01*
X0294566Y0107705D01*
X0295317Y0107705D01*
X0296067Y0106955D01*
X0296067Y0105453D01*
X0293815Y0105453D02*
X0293065Y0104703D01*
X0292314Y0104703D01*
X0291563Y0105453D01*
X0291563Y0106955D01*
X0292314Y0107705D01*
X0293065Y0107705D01*
X0293815Y0106955D01*
X0293815Y0103101D02*
X0294566Y0102351D01*
X0294566Y0100099D01*
X0294566Y0101600D02*
X0296067Y0103101D01*
X0293815Y0103101D02*
X0292314Y0103101D01*
X0291563Y0102351D01*
X0291563Y0100099D01*
X0296067Y0100099D01*
X0315362Y0081049D02*
X0316379Y0082067D01*
X0318414Y0082067D01*
X0319432Y0081049D01*
X0319432Y0077997D01*
X0313327Y0077997D01*
X0315362Y0077997D02*
X0315362Y0081049D01*
X0315362Y0075989D02*
X0319432Y0075989D01*
X0319432Y0072937D01*
X0318414Y0071919D01*
X0315362Y0071919D01*
X0314344Y0069912D02*
X0313327Y0068895D01*
X0313327Y0066860D01*
X0314344Y0065842D01*
X0315362Y0065842D01*
X0316379Y0066860D01*
X0316379Y0068895D01*
X0317397Y0069912D01*
X0318414Y0069912D01*
X0319432Y0068895D01*
X0319432Y0066860D01*
X0318414Y0065842D01*
X0269039Y0116055D02*
X0266036Y0116055D01*
X0267538Y0116055D02*
X0267538Y0120559D01*
X0266036Y0119057D01*
X0264435Y0119808D02*
X0263684Y0120559D01*
X0262183Y0120559D01*
X0261433Y0119808D01*
X0261433Y0116805D01*
X0262183Y0116055D01*
X0263684Y0116055D01*
X0264435Y0116805D01*
X0251091Y0147545D02*
X0252811Y0151234D01*
X0252381Y0150312D02*
X0256070Y0148592D01*
X0258890Y0155643D02*
X0260643Y0154825D01*
X0261929Y0155293D01*
X0258890Y0155643D02*
X0258422Y0156928D01*
X0260057Y0160435D01*
X0261343Y0160903D01*
X0263096Y0160086D01*
X0263564Y0158800D01*
X0267118Y0163550D02*
X0266626Y0164903D01*
X0267486Y0166747D01*
X0268838Y0167239D01*
X0270683Y0166379D01*
X0271175Y0165027D01*
X0270315Y0163182D01*
X0268963Y0162690D01*
X0267118Y0163550D01*
X0264377Y0164829D02*
X0261610Y0166119D01*
X0261118Y0167471D01*
X0261978Y0169315D01*
X0263331Y0169807D01*
X0266097Y0168517D01*
X0266957Y0170362D02*
X0264377Y0164829D01*
X0258869Y0167397D02*
X0260159Y0170163D01*
X0259667Y0171516D01*
X0257823Y0172376D01*
X0256963Y0170531D02*
X0255611Y0170039D01*
X0256103Y0168687D01*
X0258869Y0167397D01*
X0259729Y0169241D02*
X0256963Y0170531D01*
X0253361Y0169965D02*
X0250595Y0171255D01*
X0250103Y0172608D01*
X0250963Y0174452D01*
X0252315Y0174944D01*
X0255082Y0173654D01*
X0248643Y0176656D02*
X0246923Y0172968D01*
X0246001Y0173398D02*
X0247845Y0172538D01*
X0242946Y0169482D02*
X0239439Y0171117D01*
X0237688Y0171934D02*
X0235935Y0172751D01*
X0236811Y0172343D02*
X0234358Y0167082D01*
X0233482Y0167491D02*
X0235235Y0166673D01*
X0238740Y0165039D02*
X0241193Y0170299D01*
X0244287Y0167789D02*
X0242652Y0164282D01*
X0243120Y0162997D01*
X0244873Y0162179D01*
X0246159Y0162647D01*
X0247794Y0166154D01*
X0247326Y0167439D01*
X0245573Y0168257D01*
X0244287Y0167789D01*
X0249544Y0165338D02*
X0249135Y0164461D01*
X0249603Y0163176D01*
X0251356Y0162358D01*
X0251824Y0161072D01*
X0251415Y0160196D01*
X0250130Y0159728D01*
X0248376Y0160545D01*
X0247909Y0161831D01*
X0249544Y0165338D02*
X0250829Y0165806D01*
X0252583Y0164988D01*
X0253051Y0163703D01*
X0234185Y0173567D02*
X0232141Y0169184D01*
X0230855Y0168716D01*
X0229102Y0169533D01*
X0228634Y0170819D01*
X0230678Y0175203D01*
X0228519Y0175142D02*
X0228051Y0176427D01*
X0226298Y0177245D01*
X0225012Y0176777D01*
X0223377Y0173270D01*
X0223845Y0171985D01*
X0225598Y0171167D01*
X0226884Y0171635D01*
X0221218Y0173210D02*
X0220282Y0175781D01*
X0221159Y0175372D02*
X0218529Y0176598D01*
X0217711Y0174845D02*
X0220164Y0180105D01*
X0222794Y0178879D01*
X0223262Y0177593D01*
X0222445Y0175840D01*
X0221159Y0175372D01*
X0215960Y0175661D02*
X0214207Y0176479D01*
X0215083Y0176070D02*
X0217536Y0181331D01*
X0216660Y0181739D02*
X0218413Y0180922D01*
X0224888Y0183243D02*
X0227468Y0188776D01*
X0231157Y0187056D01*
X0228022Y0185149D02*
X0226178Y0186009D01*
X0230825Y0181597D02*
X0232178Y0182089D01*
X0234944Y0180799D01*
X0235374Y0181721D02*
X0234084Y0178954D01*
X0231318Y0180244D01*
X0230825Y0181597D01*
X0233038Y0183933D02*
X0234882Y0183073D01*
X0235374Y0181721D01*
X0237623Y0181795D02*
X0240390Y0180505D01*
X0240882Y0179153D01*
X0240022Y0177308D01*
X0238670Y0176816D01*
X0235903Y0178106D01*
X0238483Y0183639D01*
X0243131Y0179227D02*
X0241411Y0175538D01*
X0242271Y0177382D02*
X0244976Y0178367D01*
X0245898Y0177937D01*
X0247721Y0177086D02*
X0248643Y0176656D01*
X0249503Y0178501D02*
X0249933Y0179423D01*
X0214501Y0181679D02*
X0214033Y0182964D01*
X0212280Y0183782D01*
X0210994Y0183314D01*
X0209359Y0179807D01*
X0209827Y0178521D01*
X0211580Y0177704D01*
X0212866Y0178172D01*
X0292817Y0151567D02*
X0293247Y0152489D01*
X0294169Y0152059D01*
X0293739Y0151137D01*
X0292817Y0151567D01*
X0198190Y0082383D02*
X0198190Y0080882D01*
X0197439Y0080131D01*
X0195938Y0080131D02*
X0195187Y0081632D01*
X0195187Y0082383D01*
X0195938Y0083134D01*
X0197439Y0083134D01*
X0198190Y0082383D01*
X0195938Y0080131D02*
X0193686Y0080131D01*
X0193686Y0083134D01*
X0194437Y0078530D02*
X0195938Y0078530D01*
X0196689Y0077779D01*
X0196689Y0075527D01*
X0198190Y0075527D02*
X0193686Y0075527D01*
X0193686Y0077779D01*
X0194437Y0078530D01*
X0196689Y0077028D02*
X0198190Y0078530D01*
X0177957Y0077511D02*
X0176456Y0076010D01*
X0176456Y0076760D02*
X0176456Y0074508D01*
X0177957Y0074508D02*
X0173453Y0074508D01*
X0173453Y0076760D01*
X0174204Y0077511D01*
X0175705Y0077511D01*
X0176456Y0076760D01*
X0177206Y0079112D02*
X0177957Y0079863D01*
X0177957Y0081364D01*
X0177206Y0082115D01*
X0176456Y0082115D01*
X0175705Y0081364D01*
X0175705Y0080613D01*
X0175705Y0081364D02*
X0174954Y0082115D01*
X0174204Y0082115D01*
X0173453Y0081364D01*
X0173453Y0079863D01*
X0174204Y0079112D01*
X0223318Y0078349D02*
X0225570Y0078349D01*
X0226320Y0079100D01*
X0226320Y0080601D01*
X0225570Y0081351D01*
X0223318Y0081351D01*
X0223318Y0076848D01*
X0224819Y0078349D02*
X0226320Y0076848D01*
X0227922Y0079100D02*
X0230924Y0079100D01*
X0230173Y0081351D02*
X0230173Y0076848D01*
X0227922Y0079100D02*
X0230173Y0081351D01*
X0116352Y0128181D02*
X0113349Y0128181D01*
X0116352Y0131183D01*
X0116352Y0131934D01*
X0115601Y0132685D01*
X0114100Y0132685D01*
X0113349Y0131934D01*
X0111748Y0131934D02*
X0110997Y0132685D01*
X0109496Y0132685D01*
X0108745Y0131934D01*
X0108745Y0128931D01*
X0109496Y0128181D01*
X0110997Y0128181D01*
X0111748Y0128931D01*
X0107177Y0128181D02*
X0105676Y0128181D01*
X0106426Y0128181D02*
X0106426Y0132685D01*
X0105676Y0132685D02*
X0107177Y0132685D01*
X0105680Y0145430D02*
X0105680Y0149934D01*
X0107932Y0149934D01*
X0108682Y0149184D01*
X0108682Y0147682D01*
X0107932Y0146932D01*
X0105680Y0146932D01*
X0107181Y0146932D02*
X0108682Y0145430D01*
X0110284Y0146181D02*
X0111034Y0145430D01*
X0112536Y0145430D01*
X0113286Y0146181D01*
X0113286Y0149184D01*
X0112536Y0149934D01*
X0111034Y0149934D01*
X0110284Y0149184D01*
X0110284Y0148433D01*
X0111034Y0147682D01*
X0113286Y0147682D01*
X0112814Y0161493D02*
X0109811Y0161493D01*
X0111313Y0161493D02*
X0111313Y0165997D01*
X0109811Y0164496D01*
X0108210Y0165247D02*
X0108210Y0163745D01*
X0107459Y0162995D01*
X0105207Y0162995D01*
X0106709Y0162995D02*
X0108210Y0161493D01*
X0105207Y0161493D02*
X0105207Y0165997D01*
X0107459Y0165997D01*
X0108210Y0165247D01*
X0072206Y0131045D02*
X0072206Y0128042D01*
X0069203Y0131045D01*
X0068453Y0131045D01*
X0067702Y0130294D01*
X0067702Y0128793D01*
X0068453Y0128042D01*
X0072206Y0126441D02*
X0072206Y0123438D01*
X0072206Y0124939D02*
X0067702Y0124939D01*
X0069203Y0123438D01*
X0068453Y0121837D02*
X0069954Y0121837D01*
X0070704Y0121086D01*
X0070704Y0118834D01*
X0070704Y0120336D02*
X0072206Y0121837D01*
X0072206Y0118834D02*
X0067702Y0118834D01*
X0067702Y0121086D01*
X0068453Y0121837D01*
X0052521Y0121837D02*
X0051019Y0120336D01*
X0051019Y0121086D02*
X0051019Y0118834D01*
X0052521Y0118834D02*
X0048017Y0118834D01*
X0048017Y0121086D01*
X0048768Y0121837D01*
X0050269Y0121837D01*
X0051019Y0121086D01*
X0049518Y0123438D02*
X0048017Y0124939D01*
X0052521Y0124939D01*
X0052521Y0123438D02*
X0052521Y0126441D01*
X0052521Y0128042D02*
X0052521Y0131045D01*
X0052521Y0129543D02*
X0048017Y0129543D01*
X0049518Y0128042D01*
D11*
X0079142Y0029252D02*
X0087048Y0029252D01*
X0087048Y0026617D02*
X0087048Y0031888D01*
X0087048Y0034536D02*
X0081777Y0039807D01*
X0080459Y0039807D01*
X0079142Y0038489D01*
X0079142Y0035853D01*
X0080459Y0034536D01*
X0087048Y0034536D02*
X0087048Y0039807D01*
X0084413Y0042454D02*
X0087048Y0045090D01*
X0084413Y0047725D01*
X0079142Y0047725D01*
X0079142Y0042454D02*
X0084413Y0042454D01*
X0079142Y0029252D02*
X0081777Y0026617D01*
X0083095Y0023969D02*
X0083095Y0018698D01*
X0157882Y0023953D02*
X0159199Y0022635D01*
X0164471Y0022635D01*
X0165788Y0023953D01*
X0165788Y0026588D01*
X0164471Y0027906D01*
X0161835Y0027906D01*
X0161835Y0025271D01*
X0159199Y0027906D02*
X0157882Y0026588D01*
X0157882Y0023953D01*
X0157882Y0030554D02*
X0165788Y0035825D01*
X0157882Y0035825D01*
X0157882Y0038473D02*
X0157882Y0042426D01*
X0159199Y0043744D01*
X0164471Y0043744D01*
X0165788Y0042426D01*
X0165788Y0038473D01*
X0157882Y0038473D01*
X0157882Y0030554D02*
X0165788Y0030554D01*
X0287803Y0032522D02*
X0294392Y0032522D01*
X0295710Y0033840D01*
X0295710Y0036476D01*
X0294392Y0037793D01*
X0287803Y0037793D01*
X0287803Y0040441D02*
X0287803Y0045712D01*
X0287803Y0043077D02*
X0295710Y0043077D01*
X0294392Y0029875D02*
X0289121Y0029875D01*
X0287803Y0028557D01*
X0287803Y0025921D01*
X0289121Y0024604D01*
X0294392Y0024604D01*
X0295710Y0025921D01*
X0295710Y0028557D01*
X0294392Y0029875D01*
X0291756Y0160430D02*
X0291756Y0165701D01*
X0290439Y0168349D02*
X0287803Y0170985D01*
X0295710Y0170985D01*
X0295710Y0173620D02*
X0295710Y0168349D01*
X0295710Y0176268D02*
X0290439Y0181539D01*
X0289121Y0181539D01*
X0287803Y0180221D01*
X0287803Y0177586D01*
X0289121Y0176268D01*
X0295710Y0176268D02*
X0295710Y0181539D01*
X0293074Y0184187D02*
X0295710Y0186822D01*
X0293074Y0189458D01*
X0287803Y0189458D01*
X0287803Y0184187D02*
X0293074Y0184187D01*
X0165788Y0186127D02*
X0165788Y0182173D01*
X0157882Y0182173D01*
X0157882Y0186127D01*
X0159199Y0187445D01*
X0164471Y0187445D01*
X0165788Y0186127D01*
X0165788Y0179526D02*
X0157882Y0179526D01*
X0157882Y0174255D02*
X0165788Y0179526D01*
X0165788Y0174255D02*
X0157882Y0174255D01*
X0159199Y0171607D02*
X0157882Y0170289D01*
X0157882Y0167654D01*
X0159199Y0166336D01*
X0164471Y0166336D01*
X0165788Y0167654D01*
X0165788Y0170289D01*
X0164471Y0171607D01*
X0161835Y0171607D01*
X0161835Y0168971D01*
X0087048Y0169016D02*
X0079142Y0169016D01*
X0081777Y0166381D01*
X0087048Y0166381D02*
X0087048Y0171652D01*
X0087048Y0174299D02*
X0081777Y0179570D01*
X0080459Y0179570D01*
X0079142Y0178253D01*
X0079142Y0175617D01*
X0080459Y0174299D01*
X0087048Y0174299D02*
X0087048Y0179570D01*
X0084413Y0182218D02*
X0087048Y0184854D01*
X0084413Y0187489D01*
X0079142Y0187489D01*
X0079142Y0182218D02*
X0084413Y0182218D01*
X0083095Y0163733D02*
X0083095Y0158462D01*
D12*
X0099052Y0159143D02*
X0099052Y0153143D01*
X0099054Y0153083D01*
X0099059Y0153022D01*
X0099068Y0152963D01*
X0099081Y0152904D01*
X0099097Y0152845D01*
X0099117Y0152788D01*
X0099140Y0152733D01*
X0099167Y0152678D01*
X0099196Y0152626D01*
X0099229Y0152575D01*
X0099265Y0152526D01*
X0099303Y0152480D01*
X0099345Y0152436D01*
X0099389Y0152394D01*
X0099435Y0152356D01*
X0099484Y0152320D01*
X0099535Y0152287D01*
X0099587Y0152258D01*
X0099642Y0152231D01*
X0099697Y0152208D01*
X0099754Y0152188D01*
X0099813Y0152172D01*
X0099872Y0152159D01*
X0099931Y0152150D01*
X0099992Y0152145D01*
X0100052Y0152143D01*
X0101552Y0152143D01*
X0102052Y0152643D01*
X0116052Y0152643D01*
X0116552Y0152143D01*
X0118052Y0152143D01*
X0118112Y0152145D01*
X0118173Y0152150D01*
X0118232Y0152159D01*
X0118291Y0152172D01*
X0118350Y0152188D01*
X0118407Y0152208D01*
X0118462Y0152231D01*
X0118517Y0152258D01*
X0118569Y0152287D01*
X0118620Y0152320D01*
X0118669Y0152356D01*
X0118715Y0152394D01*
X0118759Y0152436D01*
X0118801Y0152480D01*
X0118839Y0152526D01*
X0118875Y0152575D01*
X0118908Y0152626D01*
X0118937Y0152678D01*
X0118964Y0152733D01*
X0118987Y0152788D01*
X0119007Y0152845D01*
X0119023Y0152904D01*
X0119036Y0152963D01*
X0119045Y0153022D01*
X0119050Y0153083D01*
X0119052Y0153143D01*
X0119052Y0159143D01*
X0119050Y0159203D01*
X0119045Y0159264D01*
X0119036Y0159323D01*
X0119023Y0159382D01*
X0119007Y0159441D01*
X0118987Y0159498D01*
X0118964Y0159553D01*
X0118937Y0159608D01*
X0118908Y0159660D01*
X0118875Y0159711D01*
X0118839Y0159760D01*
X0118801Y0159806D01*
X0118759Y0159850D01*
X0118715Y0159892D01*
X0118669Y0159930D01*
X0118620Y0159966D01*
X0118569Y0159999D01*
X0118517Y0160028D01*
X0118462Y0160055D01*
X0118407Y0160078D01*
X0118350Y0160098D01*
X0118291Y0160114D01*
X0118232Y0160127D01*
X0118173Y0160136D01*
X0118112Y0160141D01*
X0118052Y0160143D01*
X0116552Y0160143D01*
X0116052Y0159643D01*
X0102052Y0159643D01*
X0101552Y0160143D01*
X0100052Y0160143D01*
X0099992Y0160141D01*
X0099931Y0160136D01*
X0099872Y0160127D01*
X0099813Y0160114D01*
X0099754Y0160098D01*
X0099697Y0160078D01*
X0099642Y0160055D01*
X0099587Y0160028D01*
X0099535Y0159999D01*
X0099484Y0159966D01*
X0099435Y0159930D01*
X0099389Y0159892D01*
X0099345Y0159850D01*
X0099303Y0159806D01*
X0099265Y0159760D01*
X0099229Y0159711D01*
X0099196Y0159660D01*
X0099167Y0159608D01*
X0099140Y0159553D01*
X0099117Y0159498D01*
X0099097Y0159441D01*
X0099081Y0159382D01*
X0099068Y0159323D01*
X0099059Y0159264D01*
X0099054Y0159203D01*
X0099052Y0159143D01*
X0100052Y0144395D02*
X0101552Y0144395D01*
X0102052Y0143895D01*
X0116052Y0143895D01*
X0116552Y0144395D01*
X0118052Y0144395D01*
X0118112Y0144393D01*
X0118173Y0144388D01*
X0118232Y0144379D01*
X0118291Y0144366D01*
X0118350Y0144350D01*
X0118407Y0144330D01*
X0118462Y0144307D01*
X0118517Y0144280D01*
X0118569Y0144251D01*
X0118620Y0144218D01*
X0118669Y0144182D01*
X0118715Y0144144D01*
X0118759Y0144102D01*
X0118801Y0144058D01*
X0118839Y0144012D01*
X0118875Y0143963D01*
X0118908Y0143912D01*
X0118937Y0143860D01*
X0118964Y0143805D01*
X0118987Y0143750D01*
X0119007Y0143693D01*
X0119023Y0143634D01*
X0119036Y0143575D01*
X0119045Y0143516D01*
X0119050Y0143455D01*
X0119052Y0143395D01*
X0119052Y0137395D01*
X0119050Y0137335D01*
X0119045Y0137274D01*
X0119036Y0137215D01*
X0119023Y0137156D01*
X0119007Y0137097D01*
X0118987Y0137040D01*
X0118964Y0136985D01*
X0118937Y0136930D01*
X0118908Y0136878D01*
X0118875Y0136827D01*
X0118839Y0136778D01*
X0118801Y0136732D01*
X0118759Y0136688D01*
X0118715Y0136646D01*
X0118669Y0136608D01*
X0118620Y0136572D01*
X0118569Y0136539D01*
X0118517Y0136510D01*
X0118462Y0136483D01*
X0118407Y0136460D01*
X0118350Y0136440D01*
X0118291Y0136424D01*
X0118232Y0136411D01*
X0118173Y0136402D01*
X0118112Y0136397D01*
X0118052Y0136395D01*
X0116552Y0136395D01*
X0116052Y0136895D01*
X0102052Y0136895D01*
X0101552Y0136395D01*
X0100052Y0136395D01*
X0099992Y0136397D01*
X0099931Y0136402D01*
X0099872Y0136411D01*
X0099813Y0136424D01*
X0099754Y0136440D01*
X0099697Y0136460D01*
X0099642Y0136483D01*
X0099587Y0136510D01*
X0099535Y0136539D01*
X0099484Y0136572D01*
X0099435Y0136608D01*
X0099389Y0136646D01*
X0099345Y0136688D01*
X0099303Y0136732D01*
X0099265Y0136778D01*
X0099229Y0136827D01*
X0099196Y0136878D01*
X0099167Y0136930D01*
X0099140Y0136985D01*
X0099117Y0137040D01*
X0099097Y0137097D01*
X0099081Y0137156D01*
X0099068Y0137215D01*
X0099059Y0137274D01*
X0099054Y0137335D01*
X0099052Y0137395D01*
X0099052Y0143395D01*
X0099054Y0143455D01*
X0099059Y0143516D01*
X0099068Y0143575D01*
X0099081Y0143634D01*
X0099097Y0143693D01*
X0099117Y0143750D01*
X0099140Y0143805D01*
X0099167Y0143860D01*
X0099196Y0143912D01*
X0099229Y0143963D01*
X0099265Y0144012D01*
X0099303Y0144058D01*
X0099345Y0144102D01*
X0099389Y0144144D01*
X0099435Y0144182D01*
X0099484Y0144218D01*
X0099535Y0144251D01*
X0099587Y0144280D01*
X0099642Y0144307D01*
X0099697Y0144330D01*
X0099754Y0144350D01*
X0099813Y0144366D01*
X0099872Y0144379D01*
X0099931Y0144388D01*
X0099992Y0144393D01*
X0100052Y0144395D01*
X0081556Y0133647D02*
X0081556Y0132147D01*
X0081056Y0131647D01*
X0081056Y0117647D01*
X0081556Y0117147D01*
X0081556Y0115647D01*
X0081554Y0115587D01*
X0081549Y0115526D01*
X0081540Y0115467D01*
X0081527Y0115408D01*
X0081511Y0115349D01*
X0081491Y0115292D01*
X0081468Y0115237D01*
X0081441Y0115182D01*
X0081412Y0115130D01*
X0081379Y0115079D01*
X0081343Y0115030D01*
X0081305Y0114984D01*
X0081263Y0114940D01*
X0081219Y0114898D01*
X0081173Y0114860D01*
X0081124Y0114824D01*
X0081073Y0114791D01*
X0081021Y0114762D01*
X0080966Y0114735D01*
X0080911Y0114712D01*
X0080854Y0114692D01*
X0080795Y0114676D01*
X0080736Y0114663D01*
X0080677Y0114654D01*
X0080616Y0114649D01*
X0080556Y0114647D01*
X0074556Y0114647D01*
X0074496Y0114649D01*
X0074435Y0114654D01*
X0074376Y0114663D01*
X0074317Y0114676D01*
X0074258Y0114692D01*
X0074201Y0114712D01*
X0074146Y0114735D01*
X0074091Y0114762D01*
X0074039Y0114791D01*
X0073988Y0114824D01*
X0073939Y0114860D01*
X0073893Y0114898D01*
X0073849Y0114940D01*
X0073807Y0114984D01*
X0073769Y0115030D01*
X0073733Y0115079D01*
X0073700Y0115130D01*
X0073671Y0115182D01*
X0073644Y0115237D01*
X0073621Y0115292D01*
X0073601Y0115349D01*
X0073585Y0115408D01*
X0073572Y0115467D01*
X0073563Y0115526D01*
X0073558Y0115587D01*
X0073556Y0115647D01*
X0073556Y0117147D01*
X0074056Y0117647D01*
X0074056Y0131647D01*
X0073556Y0132147D01*
X0073556Y0133647D01*
X0073558Y0133707D01*
X0073563Y0133768D01*
X0073572Y0133827D01*
X0073585Y0133886D01*
X0073601Y0133945D01*
X0073621Y0134002D01*
X0073644Y0134057D01*
X0073671Y0134112D01*
X0073700Y0134164D01*
X0073733Y0134215D01*
X0073769Y0134264D01*
X0073807Y0134310D01*
X0073849Y0134354D01*
X0073893Y0134396D01*
X0073939Y0134434D01*
X0073988Y0134470D01*
X0074039Y0134503D01*
X0074091Y0134532D01*
X0074146Y0134559D01*
X0074201Y0134582D01*
X0074258Y0134602D01*
X0074317Y0134618D01*
X0074376Y0134631D01*
X0074435Y0134640D01*
X0074496Y0134645D01*
X0074556Y0134647D01*
X0080556Y0134647D01*
X0080616Y0134645D01*
X0080677Y0134640D01*
X0080736Y0134631D01*
X0080795Y0134618D01*
X0080854Y0134602D01*
X0080911Y0134582D01*
X0080966Y0134559D01*
X0081021Y0134532D01*
X0081073Y0134503D01*
X0081124Y0134470D01*
X0081173Y0134434D01*
X0081219Y0134396D01*
X0081263Y0134354D01*
X0081305Y0134310D01*
X0081343Y0134264D01*
X0081379Y0134215D01*
X0081412Y0134164D01*
X0081441Y0134112D01*
X0081468Y0134057D01*
X0081491Y0134002D01*
X0081511Y0133945D01*
X0081527Y0133886D01*
X0081540Y0133827D01*
X0081549Y0133768D01*
X0081554Y0133707D01*
X0081556Y0133647D01*
X0097552Y0124962D02*
X0105052Y0124962D01*
X0105054Y0124836D01*
X0105060Y0124711D01*
X0105070Y0124586D01*
X0105084Y0124461D01*
X0105101Y0124336D01*
X0105123Y0124212D01*
X0105148Y0124089D01*
X0105178Y0123967D01*
X0105211Y0123846D01*
X0105248Y0123726D01*
X0105288Y0123607D01*
X0105333Y0123490D01*
X0105381Y0123373D01*
X0105433Y0123259D01*
X0105488Y0123146D01*
X0105547Y0123035D01*
X0105609Y0122926D01*
X0105675Y0122819D01*
X0105744Y0122714D01*
X0105816Y0122611D01*
X0105891Y0122510D01*
X0105970Y0122412D01*
X0106052Y0122317D01*
X0106136Y0122224D01*
X0106224Y0122134D01*
X0106314Y0122046D01*
X0106407Y0121962D01*
X0106502Y0121880D01*
X0106600Y0121801D01*
X0106701Y0121726D01*
X0106804Y0121654D01*
X0106909Y0121585D01*
X0107016Y0121519D01*
X0107125Y0121457D01*
X0107236Y0121398D01*
X0107349Y0121343D01*
X0107463Y0121291D01*
X0107580Y0121243D01*
X0107697Y0121198D01*
X0107816Y0121158D01*
X0107936Y0121121D01*
X0108057Y0121088D01*
X0108179Y0121058D01*
X0108302Y0121033D01*
X0108426Y0121011D01*
X0108551Y0120994D01*
X0108676Y0120980D01*
X0108801Y0120970D01*
X0108926Y0120964D01*
X0109052Y0120962D01*
X0109178Y0120964D01*
X0109303Y0120970D01*
X0109428Y0120980D01*
X0109553Y0120994D01*
X0109678Y0121011D01*
X0109802Y0121033D01*
X0109925Y0121058D01*
X0110047Y0121088D01*
X0110168Y0121121D01*
X0110288Y0121158D01*
X0110407Y0121198D01*
X0110524Y0121243D01*
X0110641Y0121291D01*
X0110755Y0121343D01*
X0110868Y0121398D01*
X0110979Y0121457D01*
X0111088Y0121519D01*
X0111195Y0121585D01*
X0111300Y0121654D01*
X0111403Y0121726D01*
X0111504Y0121801D01*
X0111602Y0121880D01*
X0111697Y0121962D01*
X0111790Y0122046D01*
X0111880Y0122134D01*
X0111968Y0122224D01*
X0112052Y0122317D01*
X0112134Y0122412D01*
X0112213Y0122510D01*
X0112288Y0122611D01*
X0112360Y0122714D01*
X0112429Y0122819D01*
X0112495Y0122926D01*
X0112557Y0123035D01*
X0112616Y0123146D01*
X0112671Y0123259D01*
X0112723Y0123373D01*
X0112771Y0123490D01*
X0112816Y0123607D01*
X0112856Y0123726D01*
X0112893Y0123846D01*
X0112926Y0123967D01*
X0112956Y0124089D01*
X0112981Y0124212D01*
X0113003Y0124336D01*
X0113020Y0124461D01*
X0113034Y0124586D01*
X0113044Y0124711D01*
X0113050Y0124836D01*
X0113052Y0124962D01*
X0120552Y0124962D01*
X0120552Y0084962D01*
X0097552Y0084962D01*
X0097552Y0124962D01*
X0061871Y0132147D02*
X0061371Y0131647D01*
X0061371Y0117647D01*
X0061871Y0117147D01*
X0061871Y0115647D01*
X0061869Y0115587D01*
X0061864Y0115526D01*
X0061855Y0115467D01*
X0061842Y0115408D01*
X0061826Y0115349D01*
X0061806Y0115292D01*
X0061783Y0115237D01*
X0061756Y0115182D01*
X0061727Y0115130D01*
X0061694Y0115079D01*
X0061658Y0115030D01*
X0061620Y0114984D01*
X0061578Y0114940D01*
X0061534Y0114898D01*
X0061488Y0114860D01*
X0061439Y0114824D01*
X0061388Y0114791D01*
X0061336Y0114762D01*
X0061281Y0114735D01*
X0061226Y0114712D01*
X0061169Y0114692D01*
X0061110Y0114676D01*
X0061051Y0114663D01*
X0060992Y0114654D01*
X0060931Y0114649D01*
X0060871Y0114647D01*
X0054871Y0114647D01*
X0054811Y0114649D01*
X0054750Y0114654D01*
X0054691Y0114663D01*
X0054632Y0114676D01*
X0054573Y0114692D01*
X0054516Y0114712D01*
X0054461Y0114735D01*
X0054406Y0114762D01*
X0054354Y0114791D01*
X0054303Y0114824D01*
X0054254Y0114860D01*
X0054208Y0114898D01*
X0054164Y0114940D01*
X0054122Y0114984D01*
X0054084Y0115030D01*
X0054048Y0115079D01*
X0054015Y0115130D01*
X0053986Y0115182D01*
X0053959Y0115237D01*
X0053936Y0115292D01*
X0053916Y0115349D01*
X0053900Y0115408D01*
X0053887Y0115467D01*
X0053878Y0115526D01*
X0053873Y0115587D01*
X0053871Y0115647D01*
X0053871Y0117147D01*
X0054371Y0117647D01*
X0054371Y0131647D01*
X0053871Y0132147D01*
X0053871Y0133647D01*
X0053873Y0133707D01*
X0053878Y0133768D01*
X0053887Y0133827D01*
X0053900Y0133886D01*
X0053916Y0133945D01*
X0053936Y0134002D01*
X0053959Y0134057D01*
X0053986Y0134112D01*
X0054015Y0134164D01*
X0054048Y0134215D01*
X0054084Y0134264D01*
X0054122Y0134310D01*
X0054164Y0134354D01*
X0054208Y0134396D01*
X0054254Y0134434D01*
X0054303Y0134470D01*
X0054354Y0134503D01*
X0054406Y0134532D01*
X0054461Y0134559D01*
X0054516Y0134582D01*
X0054573Y0134602D01*
X0054632Y0134618D01*
X0054691Y0134631D01*
X0054750Y0134640D01*
X0054811Y0134645D01*
X0054871Y0134647D01*
X0060871Y0134647D01*
X0060931Y0134645D01*
X0060992Y0134640D01*
X0061051Y0134631D01*
X0061110Y0134618D01*
X0061169Y0134602D01*
X0061226Y0134582D01*
X0061281Y0134559D01*
X0061336Y0134532D01*
X0061388Y0134503D01*
X0061439Y0134470D01*
X0061488Y0134434D01*
X0061534Y0134396D01*
X0061578Y0134354D01*
X0061620Y0134310D01*
X0061658Y0134264D01*
X0061694Y0134215D01*
X0061727Y0134164D01*
X0061756Y0134112D01*
X0061783Y0134057D01*
X0061806Y0134002D01*
X0061826Y0133945D01*
X0061842Y0133886D01*
X0061855Y0133827D01*
X0061864Y0133768D01*
X0061869Y0133707D01*
X0061871Y0133647D01*
X0061871Y0132147D01*
X0060871Y0089372D02*
X0054871Y0089372D01*
X0054811Y0089370D01*
X0054750Y0089365D01*
X0054691Y0089356D01*
X0054632Y0089343D01*
X0054573Y0089327D01*
X0054516Y0089307D01*
X0054461Y0089284D01*
X0054406Y0089257D01*
X0054354Y0089228D01*
X0054303Y0089195D01*
X0054254Y0089159D01*
X0054208Y0089121D01*
X0054164Y0089079D01*
X0054122Y0089035D01*
X0054084Y0088989D01*
X0054048Y0088940D01*
X0054015Y0088889D01*
X0053986Y0088837D01*
X0053959Y0088782D01*
X0053936Y0088727D01*
X0053916Y0088670D01*
X0053900Y0088611D01*
X0053887Y0088552D01*
X0053878Y0088493D01*
X0053873Y0088432D01*
X0053871Y0088372D01*
X0053871Y0086872D01*
X0054371Y0086372D01*
X0054371Y0072372D01*
X0053871Y0071872D01*
X0053871Y0070372D01*
X0053873Y0070312D01*
X0053878Y0070251D01*
X0053887Y0070192D01*
X0053900Y0070133D01*
X0053916Y0070074D01*
X0053936Y0070017D01*
X0053959Y0069962D01*
X0053986Y0069907D01*
X0054015Y0069855D01*
X0054048Y0069804D01*
X0054084Y0069755D01*
X0054122Y0069709D01*
X0054164Y0069665D01*
X0054208Y0069623D01*
X0054254Y0069585D01*
X0054303Y0069549D01*
X0054354Y0069516D01*
X0054406Y0069487D01*
X0054461Y0069460D01*
X0054516Y0069437D01*
X0054573Y0069417D01*
X0054632Y0069401D01*
X0054691Y0069388D01*
X0054750Y0069379D01*
X0054811Y0069374D01*
X0054871Y0069372D01*
X0060871Y0069372D01*
X0060931Y0069374D01*
X0060992Y0069379D01*
X0061051Y0069388D01*
X0061110Y0069401D01*
X0061169Y0069417D01*
X0061226Y0069437D01*
X0061281Y0069460D01*
X0061336Y0069487D01*
X0061388Y0069516D01*
X0061439Y0069549D01*
X0061488Y0069585D01*
X0061534Y0069623D01*
X0061578Y0069665D01*
X0061620Y0069709D01*
X0061658Y0069755D01*
X0061694Y0069804D01*
X0061727Y0069855D01*
X0061756Y0069907D01*
X0061783Y0069962D01*
X0061806Y0070017D01*
X0061826Y0070074D01*
X0061842Y0070133D01*
X0061855Y0070192D01*
X0061864Y0070251D01*
X0061869Y0070312D01*
X0061871Y0070372D01*
X0061871Y0071872D01*
X0061371Y0072372D01*
X0061371Y0086372D01*
X0061871Y0086872D01*
X0061871Y0088372D01*
X0061869Y0088432D01*
X0061864Y0088493D01*
X0061855Y0088552D01*
X0061842Y0088611D01*
X0061826Y0088670D01*
X0061806Y0088727D01*
X0061783Y0088782D01*
X0061756Y0088837D01*
X0061727Y0088889D01*
X0061694Y0088940D01*
X0061658Y0088989D01*
X0061620Y0089035D01*
X0061578Y0089079D01*
X0061534Y0089121D01*
X0061488Y0089159D01*
X0061439Y0089195D01*
X0061388Y0089228D01*
X0061336Y0089257D01*
X0061281Y0089284D01*
X0061226Y0089307D01*
X0061169Y0089327D01*
X0061110Y0089343D01*
X0061051Y0089356D01*
X0060992Y0089365D01*
X0060931Y0089370D01*
X0060871Y0089372D01*
X0073556Y0088372D02*
X0073556Y0086872D01*
X0074056Y0086372D01*
X0074056Y0072372D01*
X0073556Y0071872D01*
X0073556Y0070372D01*
X0073558Y0070312D01*
X0073563Y0070251D01*
X0073572Y0070192D01*
X0073585Y0070133D01*
X0073601Y0070074D01*
X0073621Y0070017D01*
X0073644Y0069962D01*
X0073671Y0069907D01*
X0073700Y0069855D01*
X0073733Y0069804D01*
X0073769Y0069755D01*
X0073807Y0069709D01*
X0073849Y0069665D01*
X0073893Y0069623D01*
X0073939Y0069585D01*
X0073988Y0069549D01*
X0074039Y0069516D01*
X0074091Y0069487D01*
X0074146Y0069460D01*
X0074201Y0069437D01*
X0074258Y0069417D01*
X0074317Y0069401D01*
X0074376Y0069388D01*
X0074435Y0069379D01*
X0074496Y0069374D01*
X0074556Y0069372D01*
X0080556Y0069372D01*
X0080616Y0069374D01*
X0080677Y0069379D01*
X0080736Y0069388D01*
X0080795Y0069401D01*
X0080854Y0069417D01*
X0080911Y0069437D01*
X0080966Y0069460D01*
X0081021Y0069487D01*
X0081073Y0069516D01*
X0081124Y0069549D01*
X0081173Y0069585D01*
X0081219Y0069623D01*
X0081263Y0069665D01*
X0081305Y0069709D01*
X0081343Y0069755D01*
X0081379Y0069804D01*
X0081412Y0069855D01*
X0081441Y0069907D01*
X0081468Y0069962D01*
X0081491Y0070017D01*
X0081511Y0070074D01*
X0081527Y0070133D01*
X0081540Y0070192D01*
X0081549Y0070251D01*
X0081554Y0070312D01*
X0081556Y0070372D01*
X0081556Y0071872D01*
X0081056Y0072372D01*
X0081056Y0086372D01*
X0081556Y0086872D01*
X0081556Y0088372D01*
X0081554Y0088432D01*
X0081549Y0088493D01*
X0081540Y0088552D01*
X0081527Y0088611D01*
X0081511Y0088670D01*
X0081491Y0088727D01*
X0081468Y0088782D01*
X0081441Y0088837D01*
X0081412Y0088889D01*
X0081379Y0088940D01*
X0081343Y0088989D01*
X0081305Y0089035D01*
X0081263Y0089079D01*
X0081219Y0089121D01*
X0081173Y0089159D01*
X0081124Y0089195D01*
X0081073Y0089228D01*
X0081021Y0089257D01*
X0080966Y0089284D01*
X0080911Y0089307D01*
X0080854Y0089327D01*
X0080795Y0089343D01*
X0080736Y0089356D01*
X0080677Y0089365D01*
X0080616Y0089370D01*
X0080556Y0089372D01*
X0074556Y0089372D01*
X0074496Y0089370D01*
X0074435Y0089365D01*
X0074376Y0089356D01*
X0074317Y0089343D01*
X0074258Y0089327D01*
X0074201Y0089307D01*
X0074146Y0089284D01*
X0074091Y0089257D01*
X0074039Y0089228D01*
X0073988Y0089195D01*
X0073939Y0089159D01*
X0073893Y0089121D01*
X0073849Y0089079D01*
X0073807Y0089035D01*
X0073769Y0088989D01*
X0073733Y0088940D01*
X0073700Y0088889D01*
X0073671Y0088837D01*
X0073644Y0088782D01*
X0073621Y0088727D01*
X0073601Y0088670D01*
X0073585Y0088611D01*
X0073572Y0088552D01*
X0073563Y0088493D01*
X0073558Y0088432D01*
X0073556Y0088372D01*
X0099052Y0074498D02*
X0099052Y0068498D01*
X0099054Y0068438D01*
X0099059Y0068377D01*
X0099068Y0068318D01*
X0099081Y0068259D01*
X0099097Y0068200D01*
X0099117Y0068143D01*
X0099140Y0068088D01*
X0099167Y0068033D01*
X0099196Y0067981D01*
X0099229Y0067930D01*
X0099265Y0067881D01*
X0099303Y0067835D01*
X0099345Y0067791D01*
X0099389Y0067749D01*
X0099435Y0067711D01*
X0099484Y0067675D01*
X0099535Y0067642D01*
X0099587Y0067613D01*
X0099642Y0067586D01*
X0099697Y0067563D01*
X0099754Y0067543D01*
X0099813Y0067527D01*
X0099872Y0067514D01*
X0099931Y0067505D01*
X0099992Y0067500D01*
X0100052Y0067498D01*
X0101552Y0067498D01*
X0102052Y0067998D01*
X0116052Y0067998D01*
X0116552Y0067498D01*
X0118052Y0067498D01*
X0118112Y0067500D01*
X0118173Y0067505D01*
X0118232Y0067514D01*
X0118291Y0067527D01*
X0118350Y0067543D01*
X0118407Y0067563D01*
X0118462Y0067586D01*
X0118517Y0067613D01*
X0118569Y0067642D01*
X0118620Y0067675D01*
X0118669Y0067711D01*
X0118715Y0067749D01*
X0118759Y0067791D01*
X0118801Y0067835D01*
X0118839Y0067881D01*
X0118875Y0067930D01*
X0118908Y0067981D01*
X0118937Y0068033D01*
X0118964Y0068088D01*
X0118987Y0068143D01*
X0119007Y0068200D01*
X0119023Y0068259D01*
X0119036Y0068318D01*
X0119045Y0068377D01*
X0119050Y0068438D01*
X0119052Y0068498D01*
X0119052Y0074498D01*
X0119050Y0074558D01*
X0119045Y0074619D01*
X0119036Y0074678D01*
X0119023Y0074737D01*
X0119007Y0074796D01*
X0118987Y0074853D01*
X0118964Y0074908D01*
X0118937Y0074963D01*
X0118908Y0075015D01*
X0118875Y0075066D01*
X0118839Y0075115D01*
X0118801Y0075161D01*
X0118759Y0075205D01*
X0118715Y0075247D01*
X0118669Y0075285D01*
X0118620Y0075321D01*
X0118569Y0075354D01*
X0118517Y0075383D01*
X0118462Y0075410D01*
X0118407Y0075433D01*
X0118350Y0075453D01*
X0118291Y0075469D01*
X0118232Y0075482D01*
X0118173Y0075491D01*
X0118112Y0075496D01*
X0118052Y0075498D01*
X0116552Y0075498D01*
X0116052Y0074998D01*
X0102052Y0074998D01*
X0101552Y0075498D01*
X0100052Y0075498D01*
X0099992Y0075496D01*
X0099931Y0075491D01*
X0099872Y0075482D01*
X0099813Y0075469D01*
X0099754Y0075453D01*
X0099697Y0075433D01*
X0099642Y0075410D01*
X0099587Y0075383D01*
X0099535Y0075354D01*
X0099484Y0075321D01*
X0099435Y0075285D01*
X0099389Y0075247D01*
X0099345Y0075205D01*
X0099303Y0075161D01*
X0099265Y0075115D01*
X0099229Y0075066D01*
X0099196Y0075015D01*
X0099167Y0074963D01*
X0099140Y0074908D01*
X0099117Y0074853D01*
X0099097Y0074796D01*
X0099081Y0074737D01*
X0099068Y0074678D01*
X0099059Y0074619D01*
X0099054Y0074558D01*
X0099052Y0074498D01*
X0140422Y0100962D02*
X0142422Y0100962D01*
X0141422Y0099962D02*
X0141422Y0101962D01*
X0138422Y0104962D02*
X0138425Y0105207D01*
X0138434Y0105453D01*
X0138449Y0105698D01*
X0138470Y0105942D01*
X0138497Y0106186D01*
X0138530Y0106429D01*
X0138569Y0106672D01*
X0138614Y0106913D01*
X0138665Y0107153D01*
X0138722Y0107392D01*
X0138784Y0107629D01*
X0138853Y0107865D01*
X0138927Y0108099D01*
X0139007Y0108331D01*
X0139092Y0108561D01*
X0139183Y0108789D01*
X0139280Y0109014D01*
X0139382Y0109238D01*
X0139490Y0109458D01*
X0139603Y0109676D01*
X0139721Y0109891D01*
X0139845Y0110103D01*
X0139973Y0110312D01*
X0140107Y0110518D01*
X0140246Y0110720D01*
X0140390Y0110919D01*
X0140539Y0111114D01*
X0140692Y0111306D01*
X0140850Y0111494D01*
X0141012Y0111678D01*
X0141180Y0111857D01*
X0141351Y0112033D01*
X0141527Y0112204D01*
X0141706Y0112372D01*
X0141890Y0112534D01*
X0142078Y0112692D01*
X0142270Y0112845D01*
X0142465Y0112994D01*
X0142664Y0113138D01*
X0142866Y0113277D01*
X0143072Y0113411D01*
X0143281Y0113539D01*
X0143493Y0113663D01*
X0143708Y0113781D01*
X0143926Y0113894D01*
X0144146Y0114002D01*
X0144370Y0114104D01*
X0144595Y0114201D01*
X0144823Y0114292D01*
X0145053Y0114377D01*
X0145285Y0114457D01*
X0145519Y0114531D01*
X0145755Y0114600D01*
X0145992Y0114662D01*
X0146231Y0114719D01*
X0146471Y0114770D01*
X0146712Y0114815D01*
X0146955Y0114854D01*
X0147198Y0114887D01*
X0147442Y0114914D01*
X0147686Y0114935D01*
X0147931Y0114950D01*
X0148177Y0114959D01*
X0148422Y0114962D01*
X0148667Y0114959D01*
X0148913Y0114950D01*
X0149158Y0114935D01*
X0149402Y0114914D01*
X0149646Y0114887D01*
X0149889Y0114854D01*
X0150132Y0114815D01*
X0150373Y0114770D01*
X0150613Y0114719D01*
X0150852Y0114662D01*
X0151089Y0114600D01*
X0151325Y0114531D01*
X0151559Y0114457D01*
X0151791Y0114377D01*
X0152021Y0114292D01*
X0152249Y0114201D01*
X0152474Y0114104D01*
X0152698Y0114002D01*
X0152918Y0113894D01*
X0153136Y0113781D01*
X0153351Y0113663D01*
X0153563Y0113539D01*
X0153772Y0113411D01*
X0153978Y0113277D01*
X0154180Y0113138D01*
X0154379Y0112994D01*
X0154574Y0112845D01*
X0154766Y0112692D01*
X0154954Y0112534D01*
X0155138Y0112372D01*
X0155317Y0112204D01*
X0155493Y0112033D01*
X0155664Y0111857D01*
X0155832Y0111678D01*
X0155994Y0111494D01*
X0156152Y0111306D01*
X0156305Y0111114D01*
X0156454Y0110919D01*
X0156598Y0110720D01*
X0156737Y0110518D01*
X0156871Y0110312D01*
X0156999Y0110103D01*
X0157123Y0109891D01*
X0157241Y0109676D01*
X0157354Y0109458D01*
X0157462Y0109238D01*
X0157564Y0109014D01*
X0157661Y0108789D01*
X0157752Y0108561D01*
X0157837Y0108331D01*
X0157917Y0108099D01*
X0157991Y0107865D01*
X0158060Y0107629D01*
X0158122Y0107392D01*
X0158179Y0107153D01*
X0158230Y0106913D01*
X0158275Y0106672D01*
X0158314Y0106429D01*
X0158347Y0106186D01*
X0158374Y0105942D01*
X0158395Y0105698D01*
X0158410Y0105453D01*
X0158419Y0105207D01*
X0158422Y0104962D01*
X0158419Y0104717D01*
X0158410Y0104471D01*
X0158395Y0104226D01*
X0158374Y0103982D01*
X0158347Y0103738D01*
X0158314Y0103495D01*
X0158275Y0103252D01*
X0158230Y0103011D01*
X0158179Y0102771D01*
X0158122Y0102532D01*
X0158060Y0102295D01*
X0157991Y0102059D01*
X0157917Y0101825D01*
X0157837Y0101593D01*
X0157752Y0101363D01*
X0157661Y0101135D01*
X0157564Y0100910D01*
X0157462Y0100686D01*
X0157354Y0100466D01*
X0157241Y0100248D01*
X0157123Y0100033D01*
X0156999Y0099821D01*
X0156871Y0099612D01*
X0156737Y0099406D01*
X0156598Y0099204D01*
X0156454Y0099005D01*
X0156305Y0098810D01*
X0156152Y0098618D01*
X0155994Y0098430D01*
X0155832Y0098246D01*
X0155664Y0098067D01*
X0155493Y0097891D01*
X0155317Y0097720D01*
X0155138Y0097552D01*
X0154954Y0097390D01*
X0154766Y0097232D01*
X0154574Y0097079D01*
X0154379Y0096930D01*
X0154180Y0096786D01*
X0153978Y0096647D01*
X0153772Y0096513D01*
X0153563Y0096385D01*
X0153351Y0096261D01*
X0153136Y0096143D01*
X0152918Y0096030D01*
X0152698Y0095922D01*
X0152474Y0095820D01*
X0152249Y0095723D01*
X0152021Y0095632D01*
X0151791Y0095547D01*
X0151559Y0095467D01*
X0151325Y0095393D01*
X0151089Y0095324D01*
X0150852Y0095262D01*
X0150613Y0095205D01*
X0150373Y0095154D01*
X0150132Y0095109D01*
X0149889Y0095070D01*
X0149646Y0095037D01*
X0149402Y0095010D01*
X0149158Y0094989D01*
X0148913Y0094974D01*
X0148667Y0094965D01*
X0148422Y0094962D01*
X0148177Y0094965D01*
X0147931Y0094974D01*
X0147686Y0094989D01*
X0147442Y0095010D01*
X0147198Y0095037D01*
X0146955Y0095070D01*
X0146712Y0095109D01*
X0146471Y0095154D01*
X0146231Y0095205D01*
X0145992Y0095262D01*
X0145755Y0095324D01*
X0145519Y0095393D01*
X0145285Y0095467D01*
X0145053Y0095547D01*
X0144823Y0095632D01*
X0144595Y0095723D01*
X0144370Y0095820D01*
X0144146Y0095922D01*
X0143926Y0096030D01*
X0143708Y0096143D01*
X0143493Y0096261D01*
X0143281Y0096385D01*
X0143072Y0096513D01*
X0142866Y0096647D01*
X0142664Y0096786D01*
X0142465Y0096930D01*
X0142270Y0097079D01*
X0142078Y0097232D01*
X0141890Y0097390D01*
X0141706Y0097552D01*
X0141527Y0097720D01*
X0141351Y0097891D01*
X0141180Y0098067D01*
X0141012Y0098246D01*
X0140850Y0098430D01*
X0140692Y0098618D01*
X0140539Y0098810D01*
X0140390Y0099005D01*
X0140246Y0099204D01*
X0140107Y0099406D01*
X0139973Y0099612D01*
X0139845Y0099821D01*
X0139721Y0100033D01*
X0139603Y0100248D01*
X0139490Y0100466D01*
X0139382Y0100686D01*
X0139280Y0100910D01*
X0139183Y0101135D01*
X0139092Y0101363D01*
X0139007Y0101593D01*
X0138927Y0101825D01*
X0138853Y0102059D01*
X0138784Y0102295D01*
X0138722Y0102532D01*
X0138665Y0102771D01*
X0138614Y0103011D01*
X0138569Y0103252D01*
X0138530Y0103495D01*
X0138497Y0103738D01*
X0138470Y0103982D01*
X0138449Y0104226D01*
X0138434Y0104471D01*
X0138425Y0104717D01*
X0138422Y0104962D01*
X0164107Y0115647D02*
X0164107Y0117147D01*
X0164607Y0117647D01*
X0164607Y0131647D01*
X0164107Y0132147D01*
X0164107Y0133647D01*
X0164109Y0133707D01*
X0164114Y0133768D01*
X0164123Y0133827D01*
X0164136Y0133886D01*
X0164152Y0133945D01*
X0164172Y0134002D01*
X0164195Y0134057D01*
X0164222Y0134112D01*
X0164251Y0134164D01*
X0164284Y0134215D01*
X0164320Y0134264D01*
X0164358Y0134310D01*
X0164400Y0134354D01*
X0164444Y0134396D01*
X0164490Y0134434D01*
X0164539Y0134470D01*
X0164590Y0134503D01*
X0164642Y0134532D01*
X0164697Y0134559D01*
X0164752Y0134582D01*
X0164809Y0134602D01*
X0164868Y0134618D01*
X0164927Y0134631D01*
X0164986Y0134640D01*
X0165047Y0134645D01*
X0165107Y0134647D01*
X0171107Y0134647D01*
X0171167Y0134645D01*
X0171228Y0134640D01*
X0171287Y0134631D01*
X0171346Y0134618D01*
X0171405Y0134602D01*
X0171462Y0134582D01*
X0171517Y0134559D01*
X0171572Y0134532D01*
X0171624Y0134503D01*
X0171675Y0134470D01*
X0171724Y0134434D01*
X0171770Y0134396D01*
X0171814Y0134354D01*
X0171856Y0134310D01*
X0171894Y0134264D01*
X0171930Y0134215D01*
X0171963Y0134164D01*
X0171992Y0134112D01*
X0172019Y0134057D01*
X0172042Y0134002D01*
X0172062Y0133945D01*
X0172078Y0133886D01*
X0172091Y0133827D01*
X0172100Y0133768D01*
X0172105Y0133707D01*
X0172107Y0133647D01*
X0172107Y0132147D01*
X0171607Y0131647D01*
X0171607Y0117647D01*
X0172107Y0117147D01*
X0172107Y0115647D01*
X0172105Y0115587D01*
X0172100Y0115526D01*
X0172091Y0115467D01*
X0172078Y0115408D01*
X0172062Y0115349D01*
X0172042Y0115292D01*
X0172019Y0115237D01*
X0171992Y0115182D01*
X0171963Y0115130D01*
X0171930Y0115079D01*
X0171894Y0115030D01*
X0171856Y0114984D01*
X0171814Y0114940D01*
X0171770Y0114898D01*
X0171724Y0114860D01*
X0171675Y0114824D01*
X0171624Y0114791D01*
X0171572Y0114762D01*
X0171517Y0114735D01*
X0171462Y0114712D01*
X0171405Y0114692D01*
X0171346Y0114676D01*
X0171287Y0114663D01*
X0171228Y0114654D01*
X0171167Y0114649D01*
X0171107Y0114647D01*
X0165107Y0114647D01*
X0165047Y0114649D01*
X0164986Y0114654D01*
X0164927Y0114663D01*
X0164868Y0114676D01*
X0164809Y0114692D01*
X0164752Y0114712D01*
X0164697Y0114735D01*
X0164642Y0114762D01*
X0164590Y0114791D01*
X0164539Y0114824D01*
X0164490Y0114860D01*
X0164444Y0114898D01*
X0164400Y0114940D01*
X0164358Y0114984D01*
X0164320Y0115030D01*
X0164284Y0115079D01*
X0164251Y0115130D01*
X0164222Y0115182D01*
X0164195Y0115237D01*
X0164172Y0115292D01*
X0164152Y0115349D01*
X0164136Y0115408D01*
X0164123Y0115467D01*
X0164114Y0115526D01*
X0164109Y0115587D01*
X0164107Y0115647D01*
X0183792Y0115647D02*
X0183792Y0117147D01*
X0184292Y0117647D01*
X0184292Y0131647D01*
X0183792Y0132147D01*
X0183792Y0133647D01*
X0183794Y0133707D01*
X0183799Y0133768D01*
X0183808Y0133827D01*
X0183821Y0133886D01*
X0183837Y0133945D01*
X0183857Y0134002D01*
X0183880Y0134057D01*
X0183907Y0134112D01*
X0183936Y0134164D01*
X0183969Y0134215D01*
X0184005Y0134264D01*
X0184043Y0134310D01*
X0184085Y0134354D01*
X0184129Y0134396D01*
X0184175Y0134434D01*
X0184224Y0134470D01*
X0184275Y0134503D01*
X0184327Y0134532D01*
X0184382Y0134559D01*
X0184437Y0134582D01*
X0184494Y0134602D01*
X0184553Y0134618D01*
X0184612Y0134631D01*
X0184671Y0134640D01*
X0184732Y0134645D01*
X0184792Y0134647D01*
X0190792Y0134647D01*
X0190852Y0134645D01*
X0190913Y0134640D01*
X0190972Y0134631D01*
X0191031Y0134618D01*
X0191090Y0134602D01*
X0191147Y0134582D01*
X0191202Y0134559D01*
X0191257Y0134532D01*
X0191309Y0134503D01*
X0191360Y0134470D01*
X0191409Y0134434D01*
X0191455Y0134396D01*
X0191499Y0134354D01*
X0191541Y0134310D01*
X0191579Y0134264D01*
X0191615Y0134215D01*
X0191648Y0134164D01*
X0191677Y0134112D01*
X0191704Y0134057D01*
X0191727Y0134002D01*
X0191747Y0133945D01*
X0191763Y0133886D01*
X0191776Y0133827D01*
X0191785Y0133768D01*
X0191790Y0133707D01*
X0191792Y0133647D01*
X0191792Y0132147D01*
X0191292Y0131647D01*
X0191292Y0117647D01*
X0191792Y0117147D01*
X0191792Y0115647D01*
X0191790Y0115587D01*
X0191785Y0115526D01*
X0191776Y0115467D01*
X0191763Y0115408D01*
X0191747Y0115349D01*
X0191727Y0115292D01*
X0191704Y0115237D01*
X0191677Y0115182D01*
X0191648Y0115130D01*
X0191615Y0115079D01*
X0191579Y0115030D01*
X0191541Y0114984D01*
X0191499Y0114940D01*
X0191455Y0114898D01*
X0191409Y0114860D01*
X0191360Y0114824D01*
X0191309Y0114791D01*
X0191257Y0114762D01*
X0191202Y0114735D01*
X0191147Y0114712D01*
X0191090Y0114692D01*
X0191031Y0114676D01*
X0190972Y0114663D01*
X0190913Y0114654D01*
X0190852Y0114649D01*
X0190792Y0114647D01*
X0184792Y0114647D01*
X0184732Y0114649D01*
X0184671Y0114654D01*
X0184612Y0114663D01*
X0184553Y0114676D01*
X0184494Y0114692D01*
X0184437Y0114712D01*
X0184382Y0114735D01*
X0184327Y0114762D01*
X0184275Y0114791D01*
X0184224Y0114824D01*
X0184175Y0114860D01*
X0184129Y0114898D01*
X0184085Y0114940D01*
X0184043Y0114984D01*
X0184005Y0115030D01*
X0183969Y0115079D01*
X0183936Y0115130D01*
X0183907Y0115182D01*
X0183880Y0115237D01*
X0183857Y0115292D01*
X0183837Y0115349D01*
X0183821Y0115408D01*
X0183808Y0115467D01*
X0183799Y0115526D01*
X0183794Y0115587D01*
X0183792Y0115647D01*
X0215662Y0124962D02*
X0223162Y0124962D01*
X0223164Y0124836D01*
X0223170Y0124711D01*
X0223180Y0124586D01*
X0223194Y0124461D01*
X0223211Y0124336D01*
X0223233Y0124212D01*
X0223258Y0124089D01*
X0223288Y0123967D01*
X0223321Y0123846D01*
X0223358Y0123726D01*
X0223398Y0123607D01*
X0223443Y0123490D01*
X0223491Y0123373D01*
X0223543Y0123259D01*
X0223598Y0123146D01*
X0223657Y0123035D01*
X0223719Y0122926D01*
X0223785Y0122819D01*
X0223854Y0122714D01*
X0223926Y0122611D01*
X0224001Y0122510D01*
X0224080Y0122412D01*
X0224162Y0122317D01*
X0224246Y0122224D01*
X0224334Y0122134D01*
X0224424Y0122046D01*
X0224517Y0121962D01*
X0224612Y0121880D01*
X0224710Y0121801D01*
X0224811Y0121726D01*
X0224914Y0121654D01*
X0225019Y0121585D01*
X0225126Y0121519D01*
X0225235Y0121457D01*
X0225346Y0121398D01*
X0225459Y0121343D01*
X0225573Y0121291D01*
X0225690Y0121243D01*
X0225807Y0121198D01*
X0225926Y0121158D01*
X0226046Y0121121D01*
X0226167Y0121088D01*
X0226289Y0121058D01*
X0226412Y0121033D01*
X0226536Y0121011D01*
X0226661Y0120994D01*
X0226786Y0120980D01*
X0226911Y0120970D01*
X0227036Y0120964D01*
X0227162Y0120962D01*
X0227288Y0120964D01*
X0227413Y0120970D01*
X0227538Y0120980D01*
X0227663Y0120994D01*
X0227788Y0121011D01*
X0227912Y0121033D01*
X0228035Y0121058D01*
X0228157Y0121088D01*
X0228278Y0121121D01*
X0228398Y0121158D01*
X0228517Y0121198D01*
X0228634Y0121243D01*
X0228751Y0121291D01*
X0228865Y0121343D01*
X0228978Y0121398D01*
X0229089Y0121457D01*
X0229198Y0121519D01*
X0229305Y0121585D01*
X0229410Y0121654D01*
X0229513Y0121726D01*
X0229614Y0121801D01*
X0229712Y0121880D01*
X0229807Y0121962D01*
X0229900Y0122046D01*
X0229990Y0122134D01*
X0230078Y0122224D01*
X0230162Y0122317D01*
X0230244Y0122412D01*
X0230323Y0122510D01*
X0230398Y0122611D01*
X0230470Y0122714D01*
X0230539Y0122819D01*
X0230605Y0122926D01*
X0230667Y0123035D01*
X0230726Y0123146D01*
X0230781Y0123259D01*
X0230833Y0123373D01*
X0230881Y0123490D01*
X0230926Y0123607D01*
X0230966Y0123726D01*
X0231003Y0123846D01*
X0231036Y0123967D01*
X0231066Y0124089D01*
X0231091Y0124212D01*
X0231113Y0124336D01*
X0231130Y0124461D01*
X0231144Y0124586D01*
X0231154Y0124711D01*
X0231160Y0124836D01*
X0231162Y0124962D01*
X0238662Y0124962D01*
X0238662Y0084962D01*
X0215662Y0084962D01*
X0215662Y0124962D01*
X0218162Y0136395D02*
X0219662Y0136395D01*
X0220162Y0136895D01*
X0234162Y0136895D01*
X0234662Y0136395D01*
X0236162Y0136395D01*
X0236222Y0136397D01*
X0236283Y0136402D01*
X0236342Y0136411D01*
X0236401Y0136424D01*
X0236460Y0136440D01*
X0236517Y0136460D01*
X0236572Y0136483D01*
X0236627Y0136510D01*
X0236679Y0136539D01*
X0236730Y0136572D01*
X0236779Y0136608D01*
X0236825Y0136646D01*
X0236869Y0136688D01*
X0236911Y0136732D01*
X0236949Y0136778D01*
X0236985Y0136827D01*
X0237018Y0136878D01*
X0237047Y0136930D01*
X0237074Y0136985D01*
X0237097Y0137040D01*
X0237117Y0137097D01*
X0237133Y0137156D01*
X0237146Y0137215D01*
X0237155Y0137274D01*
X0237160Y0137335D01*
X0237162Y0137395D01*
X0237162Y0143395D01*
X0237160Y0143455D01*
X0237155Y0143516D01*
X0237146Y0143575D01*
X0237133Y0143634D01*
X0237117Y0143693D01*
X0237097Y0143750D01*
X0237074Y0143805D01*
X0237047Y0143860D01*
X0237018Y0143912D01*
X0236985Y0143963D01*
X0236949Y0144012D01*
X0236911Y0144058D01*
X0236869Y0144102D01*
X0236825Y0144144D01*
X0236779Y0144182D01*
X0236730Y0144218D01*
X0236679Y0144251D01*
X0236627Y0144280D01*
X0236572Y0144307D01*
X0236517Y0144330D01*
X0236460Y0144350D01*
X0236401Y0144366D01*
X0236342Y0144379D01*
X0236283Y0144388D01*
X0236222Y0144393D01*
X0236162Y0144395D01*
X0234662Y0144395D01*
X0234162Y0143895D01*
X0220162Y0143895D01*
X0219662Y0144395D01*
X0218162Y0144395D01*
X0218102Y0144393D01*
X0218041Y0144388D01*
X0217982Y0144379D01*
X0217923Y0144366D01*
X0217864Y0144350D01*
X0217807Y0144330D01*
X0217752Y0144307D01*
X0217697Y0144280D01*
X0217645Y0144251D01*
X0217594Y0144218D01*
X0217545Y0144182D01*
X0217499Y0144144D01*
X0217455Y0144102D01*
X0217413Y0144058D01*
X0217375Y0144012D01*
X0217339Y0143963D01*
X0217306Y0143912D01*
X0217277Y0143860D01*
X0217250Y0143805D01*
X0217227Y0143750D01*
X0217207Y0143693D01*
X0217191Y0143634D01*
X0217178Y0143575D01*
X0217169Y0143516D01*
X0217164Y0143455D01*
X0217162Y0143395D01*
X0217162Y0137395D01*
X0217164Y0137335D01*
X0217169Y0137274D01*
X0217178Y0137215D01*
X0217191Y0137156D01*
X0217207Y0137097D01*
X0217227Y0137040D01*
X0217250Y0136985D01*
X0217277Y0136930D01*
X0217306Y0136878D01*
X0217339Y0136827D01*
X0217375Y0136778D01*
X0217413Y0136732D01*
X0217455Y0136688D01*
X0217499Y0136646D01*
X0217545Y0136608D01*
X0217594Y0136572D01*
X0217645Y0136539D01*
X0217697Y0136510D01*
X0217752Y0136483D01*
X0217807Y0136460D01*
X0217864Y0136440D01*
X0217923Y0136424D01*
X0217982Y0136411D01*
X0218041Y0136402D01*
X0218102Y0136397D01*
X0218162Y0136395D01*
X0256532Y0104962D02*
X0256535Y0105207D01*
X0256544Y0105453D01*
X0256559Y0105698D01*
X0256580Y0105942D01*
X0256607Y0106186D01*
X0256640Y0106429D01*
X0256679Y0106672D01*
X0256724Y0106913D01*
X0256775Y0107153D01*
X0256832Y0107392D01*
X0256894Y0107629D01*
X0256963Y0107865D01*
X0257037Y0108099D01*
X0257117Y0108331D01*
X0257202Y0108561D01*
X0257293Y0108789D01*
X0257390Y0109014D01*
X0257492Y0109238D01*
X0257600Y0109458D01*
X0257713Y0109676D01*
X0257831Y0109891D01*
X0257955Y0110103D01*
X0258083Y0110312D01*
X0258217Y0110518D01*
X0258356Y0110720D01*
X0258500Y0110919D01*
X0258649Y0111114D01*
X0258802Y0111306D01*
X0258960Y0111494D01*
X0259122Y0111678D01*
X0259290Y0111857D01*
X0259461Y0112033D01*
X0259637Y0112204D01*
X0259816Y0112372D01*
X0260000Y0112534D01*
X0260188Y0112692D01*
X0260380Y0112845D01*
X0260575Y0112994D01*
X0260774Y0113138D01*
X0260976Y0113277D01*
X0261182Y0113411D01*
X0261391Y0113539D01*
X0261603Y0113663D01*
X0261818Y0113781D01*
X0262036Y0113894D01*
X0262256Y0114002D01*
X0262480Y0114104D01*
X0262705Y0114201D01*
X0262933Y0114292D01*
X0263163Y0114377D01*
X0263395Y0114457D01*
X0263629Y0114531D01*
X0263865Y0114600D01*
X0264102Y0114662D01*
X0264341Y0114719D01*
X0264581Y0114770D01*
X0264822Y0114815D01*
X0265065Y0114854D01*
X0265308Y0114887D01*
X0265552Y0114914D01*
X0265796Y0114935D01*
X0266041Y0114950D01*
X0266287Y0114959D01*
X0266532Y0114962D01*
X0266777Y0114959D01*
X0267023Y0114950D01*
X0267268Y0114935D01*
X0267512Y0114914D01*
X0267756Y0114887D01*
X0267999Y0114854D01*
X0268242Y0114815D01*
X0268483Y0114770D01*
X0268723Y0114719D01*
X0268962Y0114662D01*
X0269199Y0114600D01*
X0269435Y0114531D01*
X0269669Y0114457D01*
X0269901Y0114377D01*
X0270131Y0114292D01*
X0270359Y0114201D01*
X0270584Y0114104D01*
X0270808Y0114002D01*
X0271028Y0113894D01*
X0271246Y0113781D01*
X0271461Y0113663D01*
X0271673Y0113539D01*
X0271882Y0113411D01*
X0272088Y0113277D01*
X0272290Y0113138D01*
X0272489Y0112994D01*
X0272684Y0112845D01*
X0272876Y0112692D01*
X0273064Y0112534D01*
X0273248Y0112372D01*
X0273427Y0112204D01*
X0273603Y0112033D01*
X0273774Y0111857D01*
X0273942Y0111678D01*
X0274104Y0111494D01*
X0274262Y0111306D01*
X0274415Y0111114D01*
X0274564Y0110919D01*
X0274708Y0110720D01*
X0274847Y0110518D01*
X0274981Y0110312D01*
X0275109Y0110103D01*
X0275233Y0109891D01*
X0275351Y0109676D01*
X0275464Y0109458D01*
X0275572Y0109238D01*
X0275674Y0109014D01*
X0275771Y0108789D01*
X0275862Y0108561D01*
X0275947Y0108331D01*
X0276027Y0108099D01*
X0276101Y0107865D01*
X0276170Y0107629D01*
X0276232Y0107392D01*
X0276289Y0107153D01*
X0276340Y0106913D01*
X0276385Y0106672D01*
X0276424Y0106429D01*
X0276457Y0106186D01*
X0276484Y0105942D01*
X0276505Y0105698D01*
X0276520Y0105453D01*
X0276529Y0105207D01*
X0276532Y0104962D01*
X0276529Y0104717D01*
X0276520Y0104471D01*
X0276505Y0104226D01*
X0276484Y0103982D01*
X0276457Y0103738D01*
X0276424Y0103495D01*
X0276385Y0103252D01*
X0276340Y0103011D01*
X0276289Y0102771D01*
X0276232Y0102532D01*
X0276170Y0102295D01*
X0276101Y0102059D01*
X0276027Y0101825D01*
X0275947Y0101593D01*
X0275862Y0101363D01*
X0275771Y0101135D01*
X0275674Y0100910D01*
X0275572Y0100686D01*
X0275464Y0100466D01*
X0275351Y0100248D01*
X0275233Y0100033D01*
X0275109Y0099821D01*
X0274981Y0099612D01*
X0274847Y0099406D01*
X0274708Y0099204D01*
X0274564Y0099005D01*
X0274415Y0098810D01*
X0274262Y0098618D01*
X0274104Y0098430D01*
X0273942Y0098246D01*
X0273774Y0098067D01*
X0273603Y0097891D01*
X0273427Y0097720D01*
X0273248Y0097552D01*
X0273064Y0097390D01*
X0272876Y0097232D01*
X0272684Y0097079D01*
X0272489Y0096930D01*
X0272290Y0096786D01*
X0272088Y0096647D01*
X0271882Y0096513D01*
X0271673Y0096385D01*
X0271461Y0096261D01*
X0271246Y0096143D01*
X0271028Y0096030D01*
X0270808Y0095922D01*
X0270584Y0095820D01*
X0270359Y0095723D01*
X0270131Y0095632D01*
X0269901Y0095547D01*
X0269669Y0095467D01*
X0269435Y0095393D01*
X0269199Y0095324D01*
X0268962Y0095262D01*
X0268723Y0095205D01*
X0268483Y0095154D01*
X0268242Y0095109D01*
X0267999Y0095070D01*
X0267756Y0095037D01*
X0267512Y0095010D01*
X0267268Y0094989D01*
X0267023Y0094974D01*
X0266777Y0094965D01*
X0266532Y0094962D01*
X0266287Y0094965D01*
X0266041Y0094974D01*
X0265796Y0094989D01*
X0265552Y0095010D01*
X0265308Y0095037D01*
X0265065Y0095070D01*
X0264822Y0095109D01*
X0264581Y0095154D01*
X0264341Y0095205D01*
X0264102Y0095262D01*
X0263865Y0095324D01*
X0263629Y0095393D01*
X0263395Y0095467D01*
X0263163Y0095547D01*
X0262933Y0095632D01*
X0262705Y0095723D01*
X0262480Y0095820D01*
X0262256Y0095922D01*
X0262036Y0096030D01*
X0261818Y0096143D01*
X0261603Y0096261D01*
X0261391Y0096385D01*
X0261182Y0096513D01*
X0260976Y0096647D01*
X0260774Y0096786D01*
X0260575Y0096930D01*
X0260380Y0097079D01*
X0260188Y0097232D01*
X0260000Y0097390D01*
X0259816Y0097552D01*
X0259637Y0097720D01*
X0259461Y0097891D01*
X0259290Y0098067D01*
X0259122Y0098246D01*
X0258960Y0098430D01*
X0258802Y0098618D01*
X0258649Y0098810D01*
X0258500Y0099005D01*
X0258356Y0099204D01*
X0258217Y0099406D01*
X0258083Y0099612D01*
X0257955Y0099821D01*
X0257831Y0100033D01*
X0257713Y0100248D01*
X0257600Y0100466D01*
X0257492Y0100686D01*
X0257390Y0100910D01*
X0257293Y0101135D01*
X0257202Y0101363D01*
X0257117Y0101593D01*
X0257037Y0101825D01*
X0256963Y0102059D01*
X0256894Y0102295D01*
X0256832Y0102532D01*
X0256775Y0102771D01*
X0256724Y0103011D01*
X0256679Y0103252D01*
X0256640Y0103495D01*
X0256607Y0103738D01*
X0256580Y0103982D01*
X0256559Y0104226D01*
X0256544Y0104471D01*
X0256535Y0104717D01*
X0256532Y0104962D01*
X0259532Y0101962D02*
X0259532Y0099962D01*
X0260532Y0100962D02*
X0258532Y0100962D01*
X0282217Y0097462D02*
X0282717Y0097962D01*
X0282717Y0111962D01*
X0282217Y0112462D01*
X0282217Y0113962D01*
X0282219Y0114022D01*
X0282224Y0114083D01*
X0282233Y0114142D01*
X0282246Y0114201D01*
X0282262Y0114260D01*
X0282282Y0114317D01*
X0282305Y0114372D01*
X0282332Y0114427D01*
X0282361Y0114479D01*
X0282394Y0114530D01*
X0282430Y0114579D01*
X0282468Y0114625D01*
X0282510Y0114669D01*
X0282554Y0114711D01*
X0282600Y0114749D01*
X0282649Y0114785D01*
X0282700Y0114818D01*
X0282752Y0114847D01*
X0282807Y0114874D01*
X0282862Y0114897D01*
X0282919Y0114917D01*
X0282978Y0114933D01*
X0283037Y0114946D01*
X0283096Y0114955D01*
X0283157Y0114960D01*
X0283217Y0114962D01*
X0289217Y0114962D01*
X0289277Y0114960D01*
X0289338Y0114955D01*
X0289397Y0114946D01*
X0289456Y0114933D01*
X0289515Y0114917D01*
X0289572Y0114897D01*
X0289627Y0114874D01*
X0289682Y0114847D01*
X0289734Y0114818D01*
X0289785Y0114785D01*
X0289834Y0114749D01*
X0289880Y0114711D01*
X0289924Y0114669D01*
X0289966Y0114625D01*
X0290004Y0114579D01*
X0290040Y0114530D01*
X0290073Y0114479D01*
X0290102Y0114427D01*
X0290129Y0114372D01*
X0290152Y0114317D01*
X0290172Y0114260D01*
X0290188Y0114201D01*
X0290201Y0114142D01*
X0290210Y0114083D01*
X0290215Y0114022D01*
X0290217Y0113962D01*
X0290217Y0112462D01*
X0289717Y0111962D01*
X0289717Y0097962D01*
X0290217Y0097462D01*
X0290217Y0095962D01*
X0290215Y0095902D01*
X0290210Y0095841D01*
X0290201Y0095782D01*
X0290188Y0095723D01*
X0290172Y0095664D01*
X0290152Y0095607D01*
X0290129Y0095552D01*
X0290102Y0095497D01*
X0290073Y0095445D01*
X0290040Y0095394D01*
X0290004Y0095345D01*
X0289966Y0095299D01*
X0289924Y0095255D01*
X0289880Y0095213D01*
X0289834Y0095175D01*
X0289785Y0095139D01*
X0289734Y0095106D01*
X0289682Y0095077D01*
X0289627Y0095050D01*
X0289572Y0095027D01*
X0289515Y0095007D01*
X0289456Y0094991D01*
X0289397Y0094978D01*
X0289338Y0094969D01*
X0289277Y0094964D01*
X0289217Y0094962D01*
X0283217Y0094962D01*
X0283157Y0094964D01*
X0283096Y0094969D01*
X0283037Y0094978D01*
X0282978Y0094991D01*
X0282919Y0095007D01*
X0282862Y0095027D01*
X0282807Y0095050D01*
X0282752Y0095077D01*
X0282700Y0095106D01*
X0282649Y0095139D01*
X0282600Y0095175D01*
X0282554Y0095213D01*
X0282510Y0095255D01*
X0282468Y0095299D01*
X0282430Y0095345D01*
X0282394Y0095394D01*
X0282361Y0095445D01*
X0282332Y0095497D01*
X0282305Y0095552D01*
X0282282Y0095607D01*
X0282262Y0095664D01*
X0282246Y0095723D01*
X0282233Y0095782D01*
X0282224Y0095841D01*
X0282219Y0095902D01*
X0282217Y0095962D01*
X0282217Y0097462D01*
X0237162Y0074498D02*
X0237162Y0068498D01*
X0237160Y0068438D01*
X0237155Y0068377D01*
X0237146Y0068318D01*
X0237133Y0068259D01*
X0237117Y0068200D01*
X0237097Y0068143D01*
X0237074Y0068088D01*
X0237047Y0068033D01*
X0237018Y0067981D01*
X0236985Y0067930D01*
X0236949Y0067881D01*
X0236911Y0067835D01*
X0236869Y0067791D01*
X0236825Y0067749D01*
X0236779Y0067711D01*
X0236730Y0067675D01*
X0236679Y0067642D01*
X0236627Y0067613D01*
X0236572Y0067586D01*
X0236517Y0067563D01*
X0236460Y0067543D01*
X0236401Y0067527D01*
X0236342Y0067514D01*
X0236283Y0067505D01*
X0236222Y0067500D01*
X0236162Y0067498D01*
X0234662Y0067498D01*
X0234162Y0067998D01*
X0220162Y0067998D01*
X0219662Y0067498D01*
X0218162Y0067498D01*
X0218102Y0067500D01*
X0218041Y0067505D01*
X0217982Y0067514D01*
X0217923Y0067527D01*
X0217864Y0067543D01*
X0217807Y0067563D01*
X0217752Y0067586D01*
X0217697Y0067613D01*
X0217645Y0067642D01*
X0217594Y0067675D01*
X0217545Y0067711D01*
X0217499Y0067749D01*
X0217455Y0067791D01*
X0217413Y0067835D01*
X0217375Y0067881D01*
X0217339Y0067930D01*
X0217306Y0067981D01*
X0217277Y0068033D01*
X0217250Y0068088D01*
X0217227Y0068143D01*
X0217207Y0068200D01*
X0217191Y0068259D01*
X0217178Y0068318D01*
X0217169Y0068377D01*
X0217164Y0068438D01*
X0217162Y0068498D01*
X0217162Y0074498D01*
X0217164Y0074558D01*
X0217169Y0074619D01*
X0217178Y0074678D01*
X0217191Y0074737D01*
X0217207Y0074796D01*
X0217227Y0074853D01*
X0217250Y0074908D01*
X0217277Y0074963D01*
X0217306Y0075015D01*
X0217339Y0075066D01*
X0217375Y0075115D01*
X0217413Y0075161D01*
X0217455Y0075205D01*
X0217499Y0075247D01*
X0217545Y0075285D01*
X0217594Y0075321D01*
X0217645Y0075354D01*
X0217697Y0075383D01*
X0217752Y0075410D01*
X0217807Y0075433D01*
X0217864Y0075453D01*
X0217923Y0075469D01*
X0217982Y0075482D01*
X0218041Y0075491D01*
X0218102Y0075496D01*
X0218162Y0075498D01*
X0219662Y0075498D01*
X0220162Y0074998D01*
X0234162Y0074998D01*
X0234662Y0075498D01*
X0236162Y0075498D01*
X0236222Y0075496D01*
X0236283Y0075491D01*
X0236342Y0075482D01*
X0236401Y0075469D01*
X0236460Y0075453D01*
X0236517Y0075433D01*
X0236572Y0075410D01*
X0236627Y0075383D01*
X0236679Y0075354D01*
X0236730Y0075321D01*
X0236779Y0075285D01*
X0236825Y0075247D01*
X0236869Y0075205D01*
X0236911Y0075161D01*
X0236949Y0075115D01*
X0236985Y0075066D01*
X0237018Y0075015D01*
X0237047Y0074963D01*
X0237074Y0074908D01*
X0237097Y0074853D01*
X0237117Y0074796D01*
X0237133Y0074737D01*
X0237146Y0074678D01*
X0237155Y0074619D01*
X0237160Y0074558D01*
X0237162Y0074498D01*
X0191792Y0071872D02*
X0191792Y0070372D01*
X0191790Y0070312D01*
X0191785Y0070251D01*
X0191776Y0070192D01*
X0191763Y0070133D01*
X0191747Y0070074D01*
X0191727Y0070017D01*
X0191704Y0069962D01*
X0191677Y0069907D01*
X0191648Y0069855D01*
X0191615Y0069804D01*
X0191579Y0069755D01*
X0191541Y0069709D01*
X0191499Y0069665D01*
X0191455Y0069623D01*
X0191409Y0069585D01*
X0191360Y0069549D01*
X0191309Y0069516D01*
X0191257Y0069487D01*
X0191202Y0069460D01*
X0191147Y0069437D01*
X0191090Y0069417D01*
X0191031Y0069401D01*
X0190972Y0069388D01*
X0190913Y0069379D01*
X0190852Y0069374D01*
X0190792Y0069372D01*
X0184792Y0069372D01*
X0184732Y0069374D01*
X0184671Y0069379D01*
X0184612Y0069388D01*
X0184553Y0069401D01*
X0184494Y0069417D01*
X0184437Y0069437D01*
X0184382Y0069460D01*
X0184327Y0069487D01*
X0184275Y0069516D01*
X0184224Y0069549D01*
X0184175Y0069585D01*
X0184129Y0069623D01*
X0184085Y0069665D01*
X0184043Y0069709D01*
X0184005Y0069755D01*
X0183969Y0069804D01*
X0183936Y0069855D01*
X0183907Y0069907D01*
X0183880Y0069962D01*
X0183857Y0070017D01*
X0183837Y0070074D01*
X0183821Y0070133D01*
X0183808Y0070192D01*
X0183799Y0070251D01*
X0183794Y0070312D01*
X0183792Y0070372D01*
X0183792Y0071872D01*
X0184292Y0072372D01*
X0184292Y0086372D01*
X0183792Y0086872D01*
X0183792Y0088372D01*
X0183794Y0088432D01*
X0183799Y0088493D01*
X0183808Y0088552D01*
X0183821Y0088611D01*
X0183837Y0088670D01*
X0183857Y0088727D01*
X0183880Y0088782D01*
X0183907Y0088837D01*
X0183936Y0088889D01*
X0183969Y0088940D01*
X0184005Y0088989D01*
X0184043Y0089035D01*
X0184085Y0089079D01*
X0184129Y0089121D01*
X0184175Y0089159D01*
X0184224Y0089195D01*
X0184275Y0089228D01*
X0184327Y0089257D01*
X0184382Y0089284D01*
X0184437Y0089307D01*
X0184494Y0089327D01*
X0184553Y0089343D01*
X0184612Y0089356D01*
X0184671Y0089365D01*
X0184732Y0089370D01*
X0184792Y0089372D01*
X0190792Y0089372D01*
X0190852Y0089370D01*
X0190913Y0089365D01*
X0190972Y0089356D01*
X0191031Y0089343D01*
X0191090Y0089327D01*
X0191147Y0089307D01*
X0191202Y0089284D01*
X0191257Y0089257D01*
X0191309Y0089228D01*
X0191360Y0089195D01*
X0191409Y0089159D01*
X0191455Y0089121D01*
X0191499Y0089079D01*
X0191541Y0089035D01*
X0191579Y0088989D01*
X0191615Y0088940D01*
X0191648Y0088889D01*
X0191677Y0088837D01*
X0191704Y0088782D01*
X0191727Y0088727D01*
X0191747Y0088670D01*
X0191763Y0088611D01*
X0191776Y0088552D01*
X0191785Y0088493D01*
X0191790Y0088432D01*
X0191792Y0088372D01*
X0191792Y0086872D01*
X0191292Y0086372D01*
X0191292Y0072372D01*
X0191792Y0071872D01*
X0172107Y0071872D02*
X0172107Y0070372D01*
X0172105Y0070312D01*
X0172100Y0070251D01*
X0172091Y0070192D01*
X0172078Y0070133D01*
X0172062Y0070074D01*
X0172042Y0070017D01*
X0172019Y0069962D01*
X0171992Y0069907D01*
X0171963Y0069855D01*
X0171930Y0069804D01*
X0171894Y0069755D01*
X0171856Y0069709D01*
X0171814Y0069665D01*
X0171770Y0069623D01*
X0171724Y0069585D01*
X0171675Y0069549D01*
X0171624Y0069516D01*
X0171572Y0069487D01*
X0171517Y0069460D01*
X0171462Y0069437D01*
X0171405Y0069417D01*
X0171346Y0069401D01*
X0171287Y0069388D01*
X0171228Y0069379D01*
X0171167Y0069374D01*
X0171107Y0069372D01*
X0165107Y0069372D01*
X0165047Y0069374D01*
X0164986Y0069379D01*
X0164927Y0069388D01*
X0164868Y0069401D01*
X0164809Y0069417D01*
X0164752Y0069437D01*
X0164697Y0069460D01*
X0164642Y0069487D01*
X0164590Y0069516D01*
X0164539Y0069549D01*
X0164490Y0069585D01*
X0164444Y0069623D01*
X0164400Y0069665D01*
X0164358Y0069709D01*
X0164320Y0069755D01*
X0164284Y0069804D01*
X0164251Y0069855D01*
X0164222Y0069907D01*
X0164195Y0069962D01*
X0164172Y0070017D01*
X0164152Y0070074D01*
X0164136Y0070133D01*
X0164123Y0070192D01*
X0164114Y0070251D01*
X0164109Y0070312D01*
X0164107Y0070372D01*
X0164107Y0071872D01*
X0164607Y0072372D01*
X0164607Y0086372D01*
X0164107Y0086872D01*
X0164107Y0088372D01*
X0164109Y0088432D01*
X0164114Y0088493D01*
X0164123Y0088552D01*
X0164136Y0088611D01*
X0164152Y0088670D01*
X0164172Y0088727D01*
X0164195Y0088782D01*
X0164222Y0088837D01*
X0164251Y0088889D01*
X0164284Y0088940D01*
X0164320Y0088989D01*
X0164358Y0089035D01*
X0164400Y0089079D01*
X0164444Y0089121D01*
X0164490Y0089159D01*
X0164539Y0089195D01*
X0164590Y0089228D01*
X0164642Y0089257D01*
X0164697Y0089284D01*
X0164752Y0089307D01*
X0164809Y0089327D01*
X0164868Y0089343D01*
X0164927Y0089356D01*
X0164986Y0089365D01*
X0165047Y0089370D01*
X0165107Y0089372D01*
X0171107Y0089372D01*
X0171167Y0089370D01*
X0171228Y0089365D01*
X0171287Y0089356D01*
X0171346Y0089343D01*
X0171405Y0089327D01*
X0171462Y0089307D01*
X0171517Y0089284D01*
X0171572Y0089257D01*
X0171624Y0089228D01*
X0171675Y0089195D01*
X0171724Y0089159D01*
X0171770Y0089121D01*
X0171814Y0089079D01*
X0171856Y0089035D01*
X0171894Y0088989D01*
X0171930Y0088940D01*
X0171963Y0088889D01*
X0171992Y0088837D01*
X0172019Y0088782D01*
X0172042Y0088727D01*
X0172062Y0088670D01*
X0172078Y0088611D01*
X0172091Y0088552D01*
X0172100Y0088493D01*
X0172105Y0088432D01*
X0172107Y0088372D01*
X0172107Y0086872D01*
X0171607Y0086372D01*
X0171607Y0072372D01*
X0172107Y0071872D01*
D13*
X0168107Y0067872D02*
X0168107Y0064372D01*
X0187792Y0064372D02*
X0187792Y0067872D01*
X0212162Y0071498D02*
X0215662Y0071498D01*
X0238662Y0071498D02*
X0242162Y0071498D01*
X0286217Y0089962D02*
X0286217Y0093462D01*
X0286217Y0116462D02*
X0286217Y0119962D01*
X0242162Y0140395D02*
X0238662Y0140395D01*
X0215662Y0140395D02*
X0212162Y0140395D01*
X0187792Y0139647D02*
X0187792Y0136147D01*
X0168107Y0136147D02*
X0168107Y0139647D01*
X0168107Y0113147D02*
X0168107Y0109647D01*
X0187792Y0109647D02*
X0187792Y0113147D01*
X0187792Y0094372D02*
X0187792Y0090872D01*
X0168107Y0090872D02*
X0168107Y0094372D01*
X0124052Y0071498D02*
X0120552Y0071498D01*
X0097552Y0071498D02*
X0094052Y0071498D01*
X0077556Y0067872D02*
X0077556Y0064372D01*
X0057871Y0064372D02*
X0057871Y0067872D01*
X0057871Y0090872D02*
X0057871Y0094372D01*
X0077556Y0094372D02*
X0077556Y0090872D01*
X0077556Y0109647D02*
X0077556Y0113147D01*
X0057871Y0113147D02*
X0057871Y0109647D01*
X0057871Y0136147D02*
X0057871Y0139647D01*
X0077556Y0139647D02*
X0077556Y0136147D01*
X0094052Y0140395D02*
X0097552Y0140395D01*
X0097552Y0156143D02*
X0094052Y0156143D01*
X0120552Y0156143D02*
X0124052Y0156143D01*
X0124052Y0140395D02*
X0120552Y0140395D01*
D14*
X0119802Y0140395D03*
X0119802Y0156143D03*
X0098302Y0156143D03*
X0098302Y0140395D03*
X0098302Y0071498D03*
X0119802Y0071498D03*
X0216412Y0071498D03*
X0237912Y0071498D03*
X0237912Y0140395D03*
X0216412Y0140395D03*
D15*
X0187792Y0135397D03*
X0168107Y0135397D03*
X0168107Y0113897D03*
X0187792Y0113897D03*
X0187792Y0090122D03*
X0168107Y0090122D03*
X0168107Y0068622D03*
X0187792Y0068622D03*
X0286217Y0094212D03*
X0286217Y0115712D03*
X0077556Y0113897D03*
X0057871Y0113897D03*
X0057871Y0135397D03*
X0077556Y0135397D03*
X0077556Y0090122D03*
X0057871Y0090122D03*
X0057871Y0068622D03*
X0077556Y0068622D03*
D16*
X0237780Y0041691D02*
X0237607Y0040639D01*
X0237494Y0039580D01*
X0237440Y0038516D01*
X0237446Y0037441D01*
X0237514Y0036369D01*
X0237642Y0035301D01*
X0237830Y0034243D01*
X0238078Y0033197D01*
X0238385Y0032166D01*
X0238748Y0031154D01*
X0239167Y0030164D01*
X0239640Y0029199D01*
X0244183Y0029199D01*
X0244311Y0029004D02*
X0239749Y0029004D01*
X0239640Y0029199D02*
X0240165Y0028261D01*
X0240739Y0027352D01*
X0241362Y0026476D01*
X0242031Y0025635D01*
X0242744Y0024830D01*
X0243500Y0024065D01*
X0244294Y0023341D01*
X0245127Y0022661D01*
X0245994Y0022026D01*
X0246895Y0021438D01*
X0247825Y0020900D01*
X0248783Y0020413D01*
X0249766Y0019979D01*
X0250772Y0019598D01*
X0251797Y0019273D01*
X0252838Y0019005D01*
X0253891Y0018794D01*
X0254955Y0018640D01*
X0256026Y0018546D01*
X0256916Y0018515D01*
X0256917Y0018510D01*
X0256920Y0018504D01*
X0256920Y0037205D01*
X0257623Y0037188D01*
X0258661Y0037093D01*
X0259692Y0036933D01*
X0260711Y0036708D01*
X0261712Y0036417D01*
X0262691Y0036058D01*
X0263640Y0035626D01*
X0264547Y0035112D01*
X0265395Y0034504D01*
X0266152Y0033789D01*
X0266768Y0032949D01*
X0267162Y0031987D01*
X0266688Y0031063D01*
X0266119Y0030194D01*
X0265463Y0029389D01*
X0264727Y0028657D01*
X0263967Y0028049D01*
X0263150Y0027521D01*
X0262285Y0027077D01*
X0261380Y0026718D01*
X0260446Y0026447D01*
X0259490Y0026262D01*
X0258523Y0026165D01*
X0258525Y0025288D01*
X0258529Y0024410D01*
X0258536Y0023533D01*
X0258543Y0022655D01*
X0259627Y0022800D01*
X0260699Y0023016D01*
X0261752Y0023304D01*
X0262784Y0023665D01*
X0263788Y0024096D01*
X0264760Y0024596D01*
X0265693Y0025164D01*
X0266585Y0025796D01*
X0267431Y0026488D01*
X0268226Y0027238D01*
X0268967Y0028040D01*
X0269651Y0028892D01*
X0270274Y0029791D01*
X0270833Y0030730D01*
X0271324Y0031706D01*
X0271745Y0032714D01*
X0272094Y0033750D01*
X0272366Y0034809D01*
X0272560Y0035885D01*
X0272669Y0036948D01*
X0272697Y0038018D01*
X0272643Y0039086D01*
X0272510Y0040146D01*
X0272302Y0041195D01*
X0272021Y0042226D01*
X0271669Y0043236D01*
X0271250Y0044220D01*
X0270768Y0045174D01*
X0270224Y0046096D01*
X0269623Y0046980D01*
X0268967Y0047824D01*
X0268259Y0048626D01*
X0267500Y0049380D01*
X0266695Y0050083D01*
X0265847Y0050733D01*
X0264957Y0051326D01*
X0264029Y0051858D01*
X0263066Y0052325D01*
X0262074Y0052724D01*
X0261057Y0053052D01*
X0260018Y0053305D01*
X0258963Y0053483D01*
X0257899Y0053583D01*
X0256917Y0053603D01*
X0256917Y0057556D01*
X0257728Y0057546D01*
X0258815Y0057471D01*
X0259895Y0057334D01*
X0260966Y0057137D01*
X0262025Y0056879D01*
X0263066Y0056562D01*
X0264089Y0056187D01*
X0265089Y0055756D01*
X0266064Y0055270D01*
X0267010Y0054731D01*
X0267925Y0054140D01*
X0268806Y0053500D01*
X0269652Y0052814D01*
X0270459Y0052082D01*
X0271225Y0051307D01*
X0271947Y0050491D01*
X0272624Y0049638D01*
X0273252Y0048748D01*
X0273831Y0047825D01*
X0274357Y0046872D01*
X0274829Y0045891D01*
X0275244Y0044884D01*
X0275603Y0043856D01*
X0275902Y0042809D01*
X0276142Y0041746D01*
X0276320Y0040671D01*
X0276437Y0039589D01*
X0276492Y0038500D01*
X0276488Y0037433D01*
X0276424Y0036367D01*
X0276301Y0035307D01*
X0276120Y0034255D01*
X0275880Y0033215D01*
X0275583Y0032189D01*
X0275229Y0031182D01*
X0274821Y0030195D01*
X0274359Y0029233D01*
X0273846Y0028297D01*
X0273283Y0027390D01*
X0272672Y0026514D01*
X0272015Y0025673D01*
X0271314Y0024869D01*
X0270571Y0024103D01*
X0269788Y0023377D01*
X0268966Y0022695D01*
X0268110Y0022058D01*
X0267220Y0021467D01*
X0266300Y0020926D01*
X0265352Y0020435D01*
X0264378Y0019997D01*
X0263382Y0019614D01*
X0262366Y0019285D01*
X0261334Y0019013D01*
X0260287Y0018798D01*
X0259231Y0018641D01*
X0258169Y0018543D01*
X0257102Y0018504D01*
X0256917Y0018510D01*
X0256917Y0037212D01*
X0256578Y0037221D01*
X0255509Y0037137D01*
X0254450Y0036962D01*
X0253411Y0036697D01*
X0252397Y0036348D01*
X0251413Y0035920D01*
X0250464Y0035419D01*
X0249554Y0034853D01*
X0248684Y0034226D01*
X0247856Y0033543D01*
X0247073Y0032809D01*
X0246340Y0032026D01*
X0246828Y0031090D01*
X0247410Y0030211D01*
X0248080Y0029396D01*
X0248832Y0028656D01*
X0249658Y0028000D01*
X0250470Y0027479D01*
X0251329Y0027039D01*
X0252225Y0026685D01*
X0253152Y0026419D01*
X0254100Y0026241D01*
X0255060Y0026154D01*
X0255062Y0025284D01*
X0255066Y0024413D01*
X0255069Y0023544D01*
X0255070Y0022674D01*
X0254016Y0022824D01*
X0252974Y0023043D01*
X0251950Y0023333D01*
X0250949Y0023695D01*
X0249977Y0024127D01*
X0249038Y0024628D01*
X0248138Y0025197D01*
X0247282Y0025829D01*
X0246474Y0026521D01*
X0245716Y0027270D01*
X0245014Y0028069D01*
X0244369Y0028915D01*
X0243784Y0029804D01*
X0243260Y0030730D01*
X0242800Y0031689D01*
X0242404Y0032677D01*
X0242075Y0033690D01*
X0241815Y0034722D01*
X0241624Y0035769D01*
X0241506Y0036860D01*
X0241474Y0037958D01*
X0241527Y0039055D01*
X0241662Y0040145D01*
X0241877Y0041222D01*
X0242168Y0042282D01*
X0242532Y0043318D01*
X0242966Y0044326D01*
X0243466Y0045304D01*
X0244031Y0046247D01*
X0244656Y0047150D01*
X0245338Y0048011D01*
X0246076Y0048824D01*
X0246865Y0049588D01*
X0247704Y0050297D01*
X0248588Y0050947D01*
X0249515Y0051536D01*
X0250481Y0052058D01*
X0251482Y0052510D01*
X0252512Y0052889D01*
X0253569Y0053189D01*
X0254644Y0053411D01*
X0255734Y0053551D01*
X0256830Y0053608D01*
X0256919Y0053606D01*
X0256919Y0057559D01*
X0256640Y0057563D01*
X0255576Y0057514D01*
X0254515Y0057407D01*
X0253463Y0057242D01*
X0252421Y0057018D01*
X0251394Y0056737D01*
X0250383Y0056400D01*
X0249393Y0056007D01*
X0248425Y0055561D01*
X0247483Y0055062D01*
X0246570Y0054514D01*
X0245687Y0053918D01*
X0244837Y0053275D01*
X0244023Y0052589D01*
X0243247Y0051859D01*
X0242511Y0051089D01*
X0241816Y0050281D01*
X0241166Y0049438D01*
X0240562Y0048561D01*
X0240006Y0047652D01*
X0239500Y0046714D01*
X0239046Y0045751D01*
X0238646Y0044763D01*
X0238301Y0043755D01*
X0238012Y0042730D01*
X0237780Y0041691D01*
X0237783Y0041702D02*
X0242009Y0041702D01*
X0241955Y0041507D02*
X0237750Y0041507D01*
X0237718Y0041311D02*
X0241901Y0041311D01*
X0241856Y0041116D02*
X0237686Y0041116D01*
X0237654Y0040921D02*
X0241817Y0040921D01*
X0241778Y0040725D02*
X0237622Y0040725D01*
X0237596Y0040530D02*
X0241739Y0040530D01*
X0241700Y0040335D02*
X0237575Y0040335D01*
X0237554Y0040139D02*
X0241661Y0040139D01*
X0241637Y0039944D02*
X0237533Y0039944D01*
X0237512Y0039748D02*
X0241613Y0039748D01*
X0241589Y0039553D02*
X0237493Y0039553D01*
X0237483Y0039358D02*
X0241565Y0039358D01*
X0241541Y0039162D02*
X0237473Y0039162D01*
X0237463Y0038967D02*
X0241523Y0038967D01*
X0241514Y0038772D02*
X0237453Y0038772D01*
X0237443Y0038576D02*
X0241504Y0038576D01*
X0241495Y0038381D02*
X0237441Y0038381D01*
X0237442Y0038186D02*
X0241485Y0038186D01*
X0241476Y0037990D02*
X0237443Y0037990D01*
X0237444Y0037795D02*
X0241479Y0037795D01*
X0241485Y0037600D02*
X0237445Y0037600D01*
X0237449Y0037404D02*
X0241491Y0037404D01*
X0241496Y0037209D02*
X0237461Y0037209D01*
X0237473Y0037013D02*
X0241502Y0037013D01*
X0241511Y0036818D02*
X0237486Y0036818D01*
X0237498Y0036623D02*
X0241532Y0036623D01*
X0241553Y0036427D02*
X0237510Y0036427D01*
X0237530Y0036232D02*
X0241574Y0036232D01*
X0241595Y0036037D02*
X0237553Y0036037D01*
X0237577Y0035841D02*
X0241617Y0035841D01*
X0241647Y0035646D02*
X0237600Y0035646D01*
X0237624Y0035451D02*
X0241682Y0035451D01*
X0241718Y0035255D02*
X0237650Y0035255D01*
X0237685Y0035060D02*
X0241754Y0035060D01*
X0241789Y0034864D02*
X0237719Y0034864D01*
X0237754Y0034669D02*
X0241828Y0034669D01*
X0241878Y0034474D02*
X0237789Y0034474D01*
X0237824Y0034278D02*
X0241927Y0034278D01*
X0241976Y0034083D02*
X0237868Y0034083D01*
X0237914Y0033888D02*
X0242025Y0033888D01*
X0242075Y0033692D02*
X0237961Y0033692D01*
X0238007Y0033497D02*
X0242138Y0033497D01*
X0242201Y0033302D02*
X0238053Y0033302D01*
X0238105Y0033106D02*
X0242265Y0033106D01*
X0242328Y0032911D02*
X0238163Y0032911D01*
X0238221Y0032715D02*
X0242391Y0032715D01*
X0242467Y0032520D02*
X0238279Y0032520D01*
X0238337Y0032325D02*
X0242545Y0032325D01*
X0242623Y0032129D02*
X0238398Y0032129D01*
X0238468Y0031934D02*
X0242701Y0031934D01*
X0242780Y0031739D02*
X0238538Y0031739D01*
X0238609Y0031543D02*
X0242870Y0031543D01*
X0242963Y0031348D02*
X0238679Y0031348D01*
X0238749Y0031153D02*
X0243057Y0031153D01*
X0243151Y0030957D02*
X0238832Y0030957D01*
X0238914Y0030762D02*
X0243245Y0030762D01*
X0243353Y0030566D02*
X0238997Y0030566D01*
X0239080Y0030371D02*
X0243463Y0030371D01*
X0243574Y0030176D02*
X0239162Y0030176D01*
X0239257Y0029980D02*
X0243684Y0029980D01*
X0243796Y0029785D02*
X0239353Y0029785D01*
X0239449Y0029590D02*
X0243925Y0029590D01*
X0244054Y0029394D02*
X0239544Y0029394D01*
X0239859Y0028808D02*
X0244451Y0028808D01*
X0244600Y0028613D02*
X0239968Y0028613D01*
X0240077Y0028418D02*
X0244749Y0028418D01*
X0244897Y0028222D02*
X0240189Y0028222D01*
X0240313Y0028027D02*
X0245051Y0028027D01*
X0245223Y0027831D02*
X0240436Y0027831D01*
X0240560Y0027636D02*
X0245394Y0027636D01*
X0245566Y0027441D02*
X0240683Y0027441D01*
X0240815Y0027245D02*
X0245741Y0027245D01*
X0245939Y0027050D02*
X0240954Y0027050D01*
X0241093Y0026855D02*
X0246136Y0026855D01*
X0246334Y0026659D02*
X0241232Y0026659D01*
X0241372Y0026464D02*
X0246540Y0026464D01*
X0246768Y0026269D02*
X0241527Y0026269D01*
X0241682Y0026073D02*
X0246997Y0026073D01*
X0247225Y0025878D02*
X0241838Y0025878D01*
X0241993Y0025682D02*
X0247480Y0025682D01*
X0247745Y0025487D02*
X0242162Y0025487D01*
X0242335Y0025292D02*
X0248010Y0025292D01*
X0248298Y0025096D02*
X0242508Y0025096D01*
X0242682Y0024901D02*
X0248607Y0024901D01*
X0248916Y0024706D02*
X0242867Y0024706D01*
X0243060Y0024510D02*
X0249259Y0024510D01*
X0249625Y0024315D02*
X0243253Y0024315D01*
X0243446Y0024120D02*
X0249993Y0024120D01*
X0250433Y0023924D02*
X0243654Y0023924D01*
X0243868Y0023729D02*
X0250872Y0023729D01*
X0251395Y0023533D02*
X0244083Y0023533D01*
X0244298Y0023338D02*
X0251936Y0023338D01*
X0252622Y0023143D02*
X0244537Y0023143D01*
X0244776Y0022947D02*
X0253429Y0022947D01*
X0254520Y0022752D02*
X0245015Y0022752D01*
X0245269Y0022557D02*
X0256917Y0022557D01*
X0256920Y0022557D02*
X0268781Y0022557D01*
X0269035Y0022752D02*
X0259271Y0022752D01*
X0258543Y0022752D02*
X0256920Y0022752D01*
X0256917Y0022752D02*
X0255070Y0022752D01*
X0255070Y0022947D02*
X0256917Y0022947D01*
X0256920Y0022947D02*
X0258541Y0022947D01*
X0258539Y0023143D02*
X0256920Y0023143D01*
X0256917Y0023143D02*
X0255069Y0023143D01*
X0255069Y0023338D02*
X0256917Y0023338D01*
X0256920Y0023338D02*
X0258537Y0023338D01*
X0258536Y0023533D02*
X0256920Y0023533D01*
X0256917Y0023533D02*
X0255069Y0023533D01*
X0255068Y0023729D02*
X0256917Y0023729D01*
X0256920Y0023729D02*
X0258534Y0023729D01*
X0258533Y0023924D02*
X0256920Y0023924D01*
X0256917Y0023924D02*
X0255067Y0023924D01*
X0255067Y0024120D02*
X0256917Y0024120D01*
X0256920Y0024120D02*
X0258531Y0024120D01*
X0258530Y0024315D02*
X0256920Y0024315D01*
X0256917Y0024315D02*
X0255066Y0024315D01*
X0255065Y0024510D02*
X0256917Y0024510D01*
X0256920Y0024510D02*
X0258529Y0024510D01*
X0258528Y0024706D02*
X0256920Y0024706D01*
X0256917Y0024706D02*
X0255064Y0024706D01*
X0255064Y0024901D02*
X0256917Y0024901D01*
X0256920Y0024901D02*
X0258527Y0024901D01*
X0258526Y0025096D02*
X0256920Y0025096D01*
X0256917Y0025096D02*
X0255063Y0025096D01*
X0255062Y0025292D02*
X0256917Y0025292D01*
X0256920Y0025292D02*
X0258525Y0025292D01*
X0258524Y0025487D02*
X0256920Y0025487D01*
X0256917Y0025487D02*
X0255062Y0025487D01*
X0255061Y0025682D02*
X0256917Y0025682D01*
X0256920Y0025682D02*
X0258524Y0025682D01*
X0258523Y0025878D02*
X0256920Y0025878D01*
X0256917Y0025878D02*
X0255061Y0025878D01*
X0255060Y0026073D02*
X0256917Y0026073D01*
X0256920Y0026073D02*
X0258523Y0026073D01*
X0259524Y0026269D02*
X0256920Y0026269D01*
X0256917Y0026269D02*
X0253953Y0026269D01*
X0252994Y0026464D02*
X0256917Y0026464D01*
X0256920Y0026464D02*
X0260503Y0026464D01*
X0261176Y0026659D02*
X0256920Y0026659D01*
X0256917Y0026659D02*
X0252315Y0026659D01*
X0251796Y0026855D02*
X0256917Y0026855D01*
X0256920Y0026855D02*
X0261724Y0026855D01*
X0262217Y0027050D02*
X0256920Y0027050D01*
X0256917Y0027050D02*
X0251307Y0027050D01*
X0250926Y0027245D02*
X0256917Y0027245D01*
X0256920Y0027245D02*
X0262613Y0027245D01*
X0262994Y0027441D02*
X0256920Y0027441D01*
X0256917Y0027441D02*
X0250545Y0027441D01*
X0250225Y0027636D02*
X0256917Y0027636D01*
X0256920Y0027636D02*
X0263328Y0027636D01*
X0263631Y0027831D02*
X0256920Y0027831D01*
X0256917Y0027831D02*
X0249921Y0027831D01*
X0249625Y0028027D02*
X0256917Y0028027D01*
X0256920Y0028027D02*
X0263933Y0028027D01*
X0264183Y0028222D02*
X0256920Y0028222D01*
X0256917Y0028222D02*
X0249379Y0028222D01*
X0249133Y0028418D02*
X0256917Y0028418D01*
X0256920Y0028418D02*
X0264427Y0028418D01*
X0264671Y0028613D02*
X0256920Y0028613D01*
X0256917Y0028613D02*
X0248886Y0028613D01*
X0248677Y0028808D02*
X0256917Y0028808D01*
X0256920Y0028808D02*
X0264878Y0028808D01*
X0265075Y0029004D02*
X0256920Y0029004D01*
X0256917Y0029004D02*
X0248479Y0029004D01*
X0248280Y0029199D02*
X0256917Y0029199D01*
X0256920Y0029199D02*
X0265271Y0029199D01*
X0265467Y0029394D02*
X0256920Y0029394D01*
X0256917Y0029394D02*
X0248082Y0029394D01*
X0247921Y0029590D02*
X0256917Y0029590D01*
X0256920Y0029590D02*
X0265626Y0029590D01*
X0265785Y0029785D02*
X0256920Y0029785D01*
X0256917Y0029785D02*
X0247760Y0029785D01*
X0247599Y0029980D02*
X0256917Y0029980D01*
X0256920Y0029980D02*
X0265945Y0029980D01*
X0266104Y0030176D02*
X0256920Y0030176D01*
X0256917Y0030176D02*
X0247438Y0030176D01*
X0247303Y0030371D02*
X0256917Y0030371D01*
X0256920Y0030371D02*
X0266235Y0030371D01*
X0266363Y0030566D02*
X0256920Y0030566D01*
X0256917Y0030566D02*
X0247174Y0030566D01*
X0247045Y0030762D02*
X0256917Y0030762D01*
X0256920Y0030762D02*
X0266491Y0030762D01*
X0266619Y0030957D02*
X0256920Y0030957D01*
X0256917Y0030957D02*
X0246916Y0030957D01*
X0246795Y0031153D02*
X0256917Y0031153D01*
X0256920Y0031153D02*
X0266734Y0031153D01*
X0266834Y0031348D02*
X0256920Y0031348D01*
X0256917Y0031348D02*
X0246693Y0031348D01*
X0246592Y0031543D02*
X0256917Y0031543D01*
X0256920Y0031543D02*
X0266934Y0031543D01*
X0267034Y0031739D02*
X0256920Y0031739D01*
X0256917Y0031739D02*
X0246490Y0031739D01*
X0246388Y0031934D02*
X0256917Y0031934D01*
X0256920Y0031934D02*
X0267135Y0031934D01*
X0267103Y0032129D02*
X0256920Y0032129D01*
X0256917Y0032129D02*
X0246437Y0032129D01*
X0246620Y0032325D02*
X0256917Y0032325D01*
X0256920Y0032325D02*
X0267023Y0032325D01*
X0266944Y0032520D02*
X0256920Y0032520D01*
X0256917Y0032520D02*
X0246803Y0032520D01*
X0246986Y0032715D02*
X0256917Y0032715D01*
X0256920Y0032715D02*
X0266864Y0032715D01*
X0266784Y0032911D02*
X0256920Y0032911D01*
X0256917Y0032911D02*
X0247182Y0032911D01*
X0247390Y0033106D02*
X0256917Y0033106D01*
X0256920Y0033106D02*
X0266653Y0033106D01*
X0266510Y0033302D02*
X0256920Y0033302D01*
X0256917Y0033302D02*
X0247599Y0033302D01*
X0247807Y0033497D02*
X0256917Y0033497D01*
X0256920Y0033497D02*
X0266366Y0033497D01*
X0266223Y0033692D02*
X0256920Y0033692D01*
X0256917Y0033692D02*
X0248037Y0033692D01*
X0248274Y0033888D02*
X0256917Y0033888D01*
X0256920Y0033888D02*
X0266048Y0033888D01*
X0265841Y0034083D02*
X0256920Y0034083D01*
X0256917Y0034083D02*
X0248511Y0034083D01*
X0248757Y0034278D02*
X0256917Y0034278D01*
X0256920Y0034278D02*
X0265634Y0034278D01*
X0265427Y0034474D02*
X0256920Y0034474D01*
X0256917Y0034474D02*
X0249028Y0034474D01*
X0249299Y0034669D02*
X0256917Y0034669D01*
X0256920Y0034669D02*
X0265165Y0034669D01*
X0264892Y0034864D02*
X0256920Y0034864D01*
X0256917Y0034864D02*
X0249573Y0034864D01*
X0249886Y0035060D02*
X0256917Y0035060D01*
X0256920Y0035060D02*
X0264619Y0035060D01*
X0264294Y0035255D02*
X0256920Y0035255D01*
X0256917Y0035255D02*
X0250200Y0035255D01*
X0250523Y0035451D02*
X0256917Y0035451D01*
X0256920Y0035451D02*
X0263949Y0035451D01*
X0263595Y0035646D02*
X0256920Y0035646D01*
X0256917Y0035646D02*
X0250894Y0035646D01*
X0251264Y0035841D02*
X0256917Y0035841D01*
X0256920Y0035841D02*
X0263166Y0035841D01*
X0262737Y0036037D02*
X0256920Y0036037D01*
X0256917Y0036037D02*
X0251682Y0036037D01*
X0252131Y0036232D02*
X0256917Y0036232D01*
X0256920Y0036232D02*
X0262216Y0036232D01*
X0261676Y0036427D02*
X0256920Y0036427D01*
X0256917Y0036427D02*
X0252628Y0036427D01*
X0253195Y0036623D02*
X0256917Y0036623D01*
X0256920Y0036623D02*
X0261004Y0036623D01*
X0260212Y0036818D02*
X0256920Y0036818D01*
X0256917Y0036818D02*
X0253887Y0036818D01*
X0254764Y0037013D02*
X0256917Y0037013D01*
X0256920Y0037013D02*
X0259173Y0037013D01*
X0259273Y0038967D02*
X0268659Y0038967D01*
X0268675Y0038772D02*
X0260269Y0038772D01*
X0259769Y0038889D02*
X0260840Y0038638D01*
X0261889Y0038308D01*
X0262912Y0037903D01*
X0263904Y0037429D01*
X0264861Y0036888D01*
X0265780Y0036285D01*
X0266658Y0035624D01*
X0267489Y0034905D01*
X0268265Y0034126D01*
X0268487Y0035204D01*
X0268634Y0036294D01*
X0268706Y0037392D01*
X0268698Y0038492D01*
X0268608Y0039589D01*
X0268433Y0040676D01*
X0268170Y0041745D01*
X0267818Y0042788D01*
X0267373Y0043794D01*
X0266837Y0044755D01*
X0266207Y0045657D01*
X0265488Y0046490D01*
X0264685Y0047242D01*
X0263858Y0047868D01*
X0262973Y0048409D01*
X0262039Y0048862D01*
X0261068Y0049228D01*
X0260069Y0049508D01*
X0259051Y0049704D01*
X0258019Y0049814D01*
X0257161Y0049823D01*
X0257161Y0039154D01*
X0257160Y0039154D01*
X0257588Y0039150D01*
X0258683Y0039060D01*
X0259769Y0038889D01*
X0261035Y0038576D02*
X0268691Y0038576D01*
X0268699Y0038381D02*
X0261657Y0038381D01*
X0262199Y0038186D02*
X0268701Y0038186D01*
X0268702Y0037990D02*
X0262693Y0037990D01*
X0263139Y0037795D02*
X0268703Y0037795D01*
X0268705Y0037600D02*
X0263548Y0037600D01*
X0263949Y0037404D02*
X0268706Y0037404D01*
X0268694Y0037209D02*
X0264294Y0037209D01*
X0264640Y0037013D02*
X0268681Y0037013D01*
X0268669Y0036818D02*
X0264968Y0036818D01*
X0265266Y0036623D02*
X0268656Y0036623D01*
X0268643Y0036427D02*
X0265564Y0036427D01*
X0265851Y0036232D02*
X0268626Y0036232D01*
X0268600Y0036037D02*
X0266110Y0036037D01*
X0266369Y0035841D02*
X0268573Y0035841D01*
X0268547Y0035646D02*
X0266629Y0035646D01*
X0266858Y0035451D02*
X0268520Y0035451D01*
X0268494Y0035255D02*
X0267084Y0035255D01*
X0267310Y0035060D02*
X0268457Y0035060D01*
X0268417Y0034864D02*
X0267530Y0034864D01*
X0267724Y0034669D02*
X0268377Y0034669D01*
X0268337Y0034474D02*
X0267919Y0034474D01*
X0268113Y0034278D02*
X0268297Y0034278D01*
X0271877Y0033106D02*
X0275849Y0033106D01*
X0275900Y0033302D02*
X0271943Y0033302D01*
X0272009Y0033497D02*
X0275945Y0033497D01*
X0275990Y0033692D02*
X0272074Y0033692D01*
X0272129Y0033888D02*
X0276035Y0033888D01*
X0276080Y0034083D02*
X0272179Y0034083D01*
X0272230Y0034278D02*
X0276124Y0034278D01*
X0276157Y0034474D02*
X0272280Y0034474D01*
X0272330Y0034669D02*
X0276191Y0034669D01*
X0276225Y0034864D02*
X0272376Y0034864D01*
X0272411Y0035060D02*
X0276259Y0035060D01*
X0276292Y0035255D02*
X0272447Y0035255D01*
X0272482Y0035451D02*
X0276318Y0035451D01*
X0276341Y0035646D02*
X0272517Y0035646D01*
X0272552Y0035841D02*
X0276363Y0035841D01*
X0276386Y0036037D02*
X0272576Y0036037D01*
X0272596Y0036232D02*
X0276408Y0036232D01*
X0276427Y0036427D02*
X0272616Y0036427D01*
X0272636Y0036623D02*
X0276439Y0036623D01*
X0276451Y0036818D02*
X0272656Y0036818D01*
X0272671Y0037013D02*
X0276463Y0037013D01*
X0276474Y0037209D02*
X0272676Y0037209D01*
X0272681Y0037404D02*
X0276486Y0037404D01*
X0276488Y0037600D02*
X0272686Y0037600D01*
X0272691Y0037795D02*
X0276489Y0037795D01*
X0276490Y0037990D02*
X0272696Y0037990D01*
X0272688Y0038186D02*
X0276491Y0038186D01*
X0276492Y0038381D02*
X0272678Y0038381D01*
X0272668Y0038576D02*
X0276488Y0038576D01*
X0276478Y0038772D02*
X0272659Y0038772D01*
X0272649Y0038967D02*
X0276468Y0038967D01*
X0276459Y0039162D02*
X0272633Y0039162D01*
X0272609Y0039358D02*
X0276449Y0039358D01*
X0276439Y0039553D02*
X0272584Y0039553D01*
X0272560Y0039748D02*
X0276420Y0039748D01*
X0276399Y0039944D02*
X0272536Y0039944D01*
X0272511Y0040139D02*
X0276378Y0040139D01*
X0276356Y0040335D02*
X0272473Y0040335D01*
X0272434Y0040530D02*
X0276335Y0040530D01*
X0276311Y0040725D02*
X0272395Y0040725D01*
X0272356Y0040921D02*
X0276279Y0040921D01*
X0276246Y0041116D02*
X0272318Y0041116D01*
X0272270Y0041311D02*
X0276214Y0041311D01*
X0276181Y0041507D02*
X0272217Y0041507D01*
X0272164Y0041702D02*
X0276149Y0041702D01*
X0276107Y0041897D02*
X0272111Y0041897D01*
X0272057Y0042093D02*
X0276063Y0042093D01*
X0276019Y0042288D02*
X0271999Y0042288D01*
X0271931Y0042484D02*
X0275976Y0042484D01*
X0275932Y0042679D02*
X0271863Y0042679D01*
X0271795Y0042874D02*
X0275884Y0042874D01*
X0275828Y0043070D02*
X0271727Y0043070D01*
X0271657Y0043265D02*
X0275772Y0043265D01*
X0275716Y0043460D02*
X0271574Y0043460D01*
X0271491Y0043656D02*
X0275660Y0043656D01*
X0275604Y0043851D02*
X0271407Y0043851D01*
X0271324Y0044046D02*
X0275536Y0044046D01*
X0275468Y0044242D02*
X0271239Y0044242D01*
X0271140Y0044437D02*
X0275400Y0044437D01*
X0275332Y0044633D02*
X0271041Y0044633D01*
X0270943Y0044828D02*
X0275264Y0044828D01*
X0275187Y0045023D02*
X0270844Y0045023D01*
X0270741Y0045219D02*
X0275106Y0045219D01*
X0275026Y0045414D02*
X0270626Y0045414D01*
X0270511Y0045609D02*
X0274945Y0045609D01*
X0274864Y0045805D02*
X0270396Y0045805D01*
X0270280Y0046000D02*
X0274776Y0046000D01*
X0274682Y0046195D02*
X0270156Y0046195D01*
X0270024Y0046391D02*
X0274588Y0046391D01*
X0274494Y0046586D02*
X0269891Y0046586D01*
X0269758Y0046782D02*
X0274400Y0046782D01*
X0274299Y0046977D02*
X0269625Y0046977D01*
X0269474Y0047172D02*
X0274191Y0047172D01*
X0274083Y0047368D02*
X0269322Y0047368D01*
X0269170Y0047563D02*
X0273976Y0047563D01*
X0273868Y0047758D02*
X0269019Y0047758D01*
X0268853Y0047954D02*
X0273751Y0047954D01*
X0273628Y0048149D02*
X0268680Y0048149D01*
X0268507Y0048344D02*
X0273505Y0048344D01*
X0273383Y0048540D02*
X0268335Y0048540D01*
X0268148Y0048735D02*
X0273260Y0048735D01*
X0273123Y0048930D02*
X0267952Y0048930D01*
X0267755Y0049126D02*
X0272985Y0049126D01*
X0272847Y0049321D02*
X0267559Y0049321D01*
X0267344Y0049517D02*
X0272709Y0049517D01*
X0272565Y0049712D02*
X0267120Y0049712D01*
X0266896Y0049907D02*
X0272410Y0049907D01*
X0272255Y0050103D02*
X0266670Y0050103D01*
X0266415Y0050298D02*
X0272100Y0050298D01*
X0271945Y0050493D02*
X0266160Y0050493D01*
X0265905Y0050689D02*
X0271772Y0050689D01*
X0271599Y0050884D02*
X0265621Y0050884D01*
X0265327Y0051079D02*
X0271426Y0051079D01*
X0271253Y0051275D02*
X0265034Y0051275D01*
X0264706Y0051470D02*
X0271063Y0051470D01*
X0270870Y0051666D02*
X0264365Y0051666D01*
X0264022Y0051861D02*
X0270677Y0051861D01*
X0270484Y0052056D02*
X0263620Y0052056D01*
X0263218Y0052252D02*
X0270271Y0052252D01*
X0270056Y0052447D02*
X0262764Y0052447D01*
X0262278Y0052642D02*
X0269841Y0052642D01*
X0269622Y0052838D02*
X0261722Y0052838D01*
X0261115Y0053033D02*
X0269382Y0053033D01*
X0269141Y0053228D02*
X0260333Y0053228D01*
X0259313Y0053424D02*
X0268901Y0053424D01*
X0268643Y0053619D02*
X0256917Y0053619D01*
X0256919Y0053619D02*
X0245291Y0053619D01*
X0245033Y0053424D02*
X0254744Y0053424D01*
X0253758Y0053228D02*
X0244781Y0053228D01*
X0244550Y0053033D02*
X0253020Y0053033D01*
X0252374Y0052838D02*
X0244318Y0052838D01*
X0244087Y0052642D02*
X0251841Y0052642D01*
X0251341Y0052447D02*
X0243873Y0052447D01*
X0243665Y0052252D02*
X0250909Y0052252D01*
X0250477Y0052056D02*
X0243457Y0052056D01*
X0243249Y0051861D02*
X0250116Y0051861D01*
X0249755Y0051666D02*
X0243062Y0051666D01*
X0242875Y0051470D02*
X0249412Y0051470D01*
X0249104Y0051275D02*
X0242688Y0051275D01*
X0242502Y0051079D02*
X0248796Y0051079D01*
X0248502Y0050884D02*
X0242334Y0050884D01*
X0242166Y0050689D02*
X0248237Y0050689D01*
X0247971Y0050493D02*
X0241998Y0050493D01*
X0241830Y0050298D02*
X0247706Y0050298D01*
X0247474Y0050103D02*
X0241678Y0050103D01*
X0241528Y0049907D02*
X0247243Y0049907D01*
X0247012Y0049712D02*
X0241377Y0049712D01*
X0241226Y0049517D02*
X0246791Y0049517D01*
X0246589Y0049321D02*
X0241085Y0049321D01*
X0240951Y0049126D02*
X0246388Y0049126D01*
X0246186Y0048930D02*
X0240816Y0048930D01*
X0240682Y0048735D02*
X0245995Y0048735D01*
X0245818Y0048540D02*
X0240549Y0048540D01*
X0240429Y0048344D02*
X0245641Y0048344D01*
X0245464Y0048149D02*
X0240310Y0048149D01*
X0240191Y0047954D02*
X0245293Y0047954D01*
X0245138Y0047758D02*
X0240071Y0047758D01*
X0239958Y0047563D02*
X0244984Y0047563D01*
X0244829Y0047368D02*
X0239853Y0047368D01*
X0239747Y0047172D02*
X0244674Y0047172D01*
X0244536Y0046977D02*
X0239642Y0046977D01*
X0239536Y0046782D02*
X0244401Y0046782D01*
X0244266Y0046586D02*
X0239440Y0046586D01*
X0239348Y0046391D02*
X0244131Y0046391D01*
X0244000Y0046195D02*
X0239256Y0046195D01*
X0239164Y0046000D02*
X0243883Y0046000D01*
X0243766Y0045805D02*
X0239071Y0045805D01*
X0238989Y0045609D02*
X0243649Y0045609D01*
X0243532Y0045414D02*
X0238910Y0045414D01*
X0238830Y0045219D02*
X0243423Y0045219D01*
X0243323Y0045023D02*
X0238751Y0045023D01*
X0238672Y0044828D02*
X0243223Y0044828D01*
X0243123Y0044633D02*
X0238601Y0044633D01*
X0238534Y0044437D02*
X0243023Y0044437D01*
X0242930Y0044242D02*
X0238467Y0044242D01*
X0238400Y0044046D02*
X0242845Y0044046D01*
X0242761Y0043851D02*
X0238334Y0043851D01*
X0238273Y0043656D02*
X0242677Y0043656D01*
X0242593Y0043460D02*
X0238218Y0043460D01*
X0238163Y0043265D02*
X0242513Y0043265D01*
X0242445Y0043070D02*
X0238108Y0043070D01*
X0238053Y0042874D02*
X0242376Y0042874D01*
X0242307Y0042679D02*
X0238001Y0042679D01*
X0237957Y0042484D02*
X0242239Y0042484D01*
X0242170Y0042288D02*
X0237914Y0042288D01*
X0237870Y0042093D02*
X0242116Y0042093D01*
X0242062Y0041897D02*
X0237827Y0041897D01*
X0245572Y0040330D02*
X0245381Y0039305D01*
X0245267Y0038267D01*
X0245226Y0037224D01*
X0245258Y0036182D01*
X0245361Y0035143D01*
X0245536Y0034115D01*
X0246260Y0034849D01*
X0247034Y0035531D01*
X0247848Y0036163D01*
X0248702Y0036743D01*
X0249589Y0037269D01*
X0250508Y0037736D01*
X0251456Y0038142D01*
X0252430Y0038483D01*
X0253424Y0038758D01*
X0254435Y0038963D01*
X0255458Y0039096D01*
X0256488Y0039159D01*
X0257159Y0039154D01*
X0257160Y0039154D01*
X0257160Y0049823D01*
X0256926Y0049826D01*
X0255838Y0049737D01*
X0254761Y0049560D01*
X0253703Y0049293D01*
X0252671Y0048936D01*
X0251677Y0048486D01*
X0250730Y0047945D01*
X0249840Y0047313D01*
X0249052Y0046631D01*
X0248330Y0045878D01*
X0247680Y0045062D01*
X0247104Y0044192D01*
X0246605Y0043276D01*
X0246183Y0042323D01*
X0245839Y0041338D01*
X0245572Y0040330D01*
X0245573Y0040335D02*
X0257160Y0040335D01*
X0257161Y0040335D02*
X0268488Y0040335D01*
X0268456Y0040530D02*
X0257161Y0040530D01*
X0257160Y0040530D02*
X0245625Y0040530D01*
X0245677Y0040725D02*
X0257160Y0040725D01*
X0257161Y0040725D02*
X0268421Y0040725D01*
X0268373Y0040921D02*
X0257161Y0040921D01*
X0257160Y0040921D02*
X0245728Y0040921D01*
X0245780Y0041116D02*
X0257160Y0041116D01*
X0257161Y0041116D02*
X0268325Y0041116D01*
X0268277Y0041311D02*
X0257161Y0041311D01*
X0257160Y0041311D02*
X0245832Y0041311D01*
X0245898Y0041507D02*
X0257160Y0041507D01*
X0257161Y0041507D02*
X0268229Y0041507D01*
X0268181Y0041702D02*
X0257161Y0041702D01*
X0257160Y0041702D02*
X0245966Y0041702D01*
X0246034Y0041897D02*
X0257160Y0041897D01*
X0257161Y0041897D02*
X0268119Y0041897D01*
X0268053Y0042093D02*
X0257161Y0042093D01*
X0257160Y0042093D02*
X0246102Y0042093D01*
X0246171Y0042288D02*
X0257160Y0042288D01*
X0257161Y0042288D02*
X0267987Y0042288D01*
X0267921Y0042484D02*
X0257161Y0042484D01*
X0257160Y0042484D02*
X0246254Y0042484D01*
X0246340Y0042679D02*
X0257160Y0042679D01*
X0257161Y0042679D02*
X0267855Y0042679D01*
X0267780Y0042874D02*
X0257161Y0042874D01*
X0257160Y0042874D02*
X0246427Y0042874D01*
X0246513Y0043070D02*
X0257160Y0043070D01*
X0257161Y0043070D02*
X0267693Y0043070D01*
X0267607Y0043265D02*
X0257161Y0043265D01*
X0257160Y0043265D02*
X0246600Y0043265D01*
X0246705Y0043460D02*
X0257160Y0043460D01*
X0257161Y0043460D02*
X0267521Y0043460D01*
X0267435Y0043656D02*
X0257161Y0043656D01*
X0257160Y0043656D02*
X0246812Y0043656D01*
X0246918Y0043851D02*
X0257160Y0043851D01*
X0257161Y0043851D02*
X0267342Y0043851D01*
X0267233Y0044046D02*
X0257161Y0044046D01*
X0257160Y0044046D02*
X0247025Y0044046D01*
X0247137Y0044242D02*
X0257160Y0044242D01*
X0257161Y0044242D02*
X0267123Y0044242D01*
X0267014Y0044437D02*
X0257161Y0044437D01*
X0257160Y0044437D02*
X0247266Y0044437D01*
X0247395Y0044633D02*
X0257160Y0044633D01*
X0257161Y0044633D02*
X0266905Y0044633D01*
X0266785Y0044828D02*
X0257161Y0044828D01*
X0257160Y0044828D02*
X0247525Y0044828D01*
X0247654Y0045023D02*
X0257160Y0045023D01*
X0257161Y0045023D02*
X0266649Y0045023D01*
X0266513Y0045219D02*
X0257161Y0045219D01*
X0257160Y0045219D02*
X0247804Y0045219D01*
X0247960Y0045414D02*
X0257160Y0045414D01*
X0257161Y0045414D02*
X0266377Y0045414D01*
X0266241Y0045609D02*
X0257161Y0045609D01*
X0257160Y0045609D02*
X0248116Y0045609D01*
X0248272Y0045805D02*
X0257160Y0045805D01*
X0257161Y0045805D02*
X0266080Y0045805D01*
X0265911Y0046000D02*
X0257161Y0046000D01*
X0257160Y0046000D02*
X0248447Y0046000D01*
X0248635Y0046195D02*
X0257160Y0046195D01*
X0257161Y0046195D02*
X0265743Y0046195D01*
X0265574Y0046391D02*
X0257161Y0046391D01*
X0257160Y0046391D02*
X0248822Y0046391D01*
X0249009Y0046586D02*
X0257160Y0046586D01*
X0257161Y0046586D02*
X0265385Y0046586D01*
X0265176Y0046782D02*
X0257161Y0046782D01*
X0257160Y0046782D02*
X0249226Y0046782D01*
X0249452Y0046977D02*
X0257160Y0046977D01*
X0257161Y0046977D02*
X0264968Y0046977D01*
X0264759Y0047172D02*
X0257161Y0047172D01*
X0257160Y0047172D02*
X0249677Y0047172D01*
X0249917Y0047368D02*
X0257160Y0047368D01*
X0257161Y0047368D02*
X0264518Y0047368D01*
X0264260Y0047563D02*
X0257161Y0047563D01*
X0257160Y0047563D02*
X0250192Y0047563D01*
X0250467Y0047758D02*
X0257160Y0047758D01*
X0257161Y0047758D02*
X0264002Y0047758D01*
X0263717Y0047954D02*
X0257161Y0047954D01*
X0257160Y0047954D02*
X0250745Y0047954D01*
X0251087Y0048149D02*
X0257160Y0048149D01*
X0257161Y0048149D02*
X0263398Y0048149D01*
X0263078Y0048344D02*
X0257161Y0048344D01*
X0257160Y0048344D02*
X0251429Y0048344D01*
X0251795Y0048540D02*
X0257160Y0048540D01*
X0257161Y0048540D02*
X0262703Y0048540D01*
X0262301Y0048735D02*
X0257161Y0048735D01*
X0257160Y0048735D02*
X0252227Y0048735D01*
X0252659Y0048930D02*
X0257160Y0048930D01*
X0257161Y0048930D02*
X0261857Y0048930D01*
X0261339Y0049126D02*
X0257161Y0049126D01*
X0257160Y0049126D02*
X0253220Y0049126D01*
X0253815Y0049321D02*
X0257160Y0049321D01*
X0257161Y0049321D02*
X0260735Y0049321D01*
X0260025Y0049517D02*
X0257161Y0049517D01*
X0257160Y0049517D02*
X0254590Y0049517D01*
X0255684Y0049712D02*
X0257160Y0049712D01*
X0257161Y0049712D02*
X0258979Y0049712D01*
X0256919Y0053815D02*
X0245550Y0053815D01*
X0245823Y0054010D02*
X0256919Y0054010D01*
X0256917Y0054010D02*
X0268104Y0054010D01*
X0268373Y0053815D02*
X0256917Y0053815D01*
X0256917Y0054205D02*
X0267823Y0054205D01*
X0267521Y0054401D02*
X0256917Y0054401D01*
X0256919Y0054401D02*
X0246401Y0054401D01*
X0246112Y0054205D02*
X0256919Y0054205D01*
X0256917Y0054596D02*
X0267218Y0054596D01*
X0266903Y0054791D02*
X0256917Y0054791D01*
X0256919Y0054791D02*
X0247031Y0054791D01*
X0246706Y0054596D02*
X0256919Y0054596D01*
X0256917Y0054987D02*
X0266560Y0054987D01*
X0266217Y0055182D02*
X0256917Y0055182D01*
X0256919Y0055182D02*
X0247710Y0055182D01*
X0247357Y0054987D02*
X0256919Y0054987D01*
X0256917Y0055377D02*
X0265848Y0055377D01*
X0265456Y0055573D02*
X0256917Y0055573D01*
X0256919Y0055573D02*
X0248451Y0055573D01*
X0248079Y0055377D02*
X0256919Y0055377D01*
X0256917Y0055768D02*
X0265060Y0055768D01*
X0264607Y0055964D02*
X0256917Y0055964D01*
X0256919Y0055964D02*
X0249298Y0055964D01*
X0248875Y0055768D02*
X0256919Y0055768D01*
X0256917Y0056159D02*
X0264154Y0056159D01*
X0263632Y0056354D02*
X0256917Y0056354D01*
X0256919Y0056354D02*
X0250268Y0056354D01*
X0249776Y0056159D02*
X0256919Y0056159D01*
X0256917Y0056550D02*
X0263099Y0056550D01*
X0262465Y0056745D02*
X0256917Y0056745D01*
X0256919Y0056745D02*
X0251423Y0056745D01*
X0250832Y0056550D02*
X0256919Y0056550D01*
X0256917Y0056940D02*
X0261773Y0056940D01*
X0260972Y0057136D02*
X0256917Y0057136D01*
X0256919Y0057136D02*
X0252969Y0057136D01*
X0252137Y0056940D02*
X0256919Y0056940D01*
X0256919Y0057331D02*
X0254031Y0057331D01*
X0255848Y0057526D02*
X0256919Y0057526D01*
X0256917Y0057526D02*
X0258012Y0057526D01*
X0256917Y0057331D02*
X0259913Y0057331D01*
X0257161Y0040139D02*
X0268519Y0040139D01*
X0268551Y0039944D02*
X0257161Y0039944D01*
X0257160Y0039944D02*
X0245500Y0039944D01*
X0245537Y0040139D02*
X0257160Y0040139D01*
X0257161Y0039748D02*
X0268582Y0039748D01*
X0268611Y0039553D02*
X0257161Y0039553D01*
X0257160Y0039553D02*
X0245428Y0039553D01*
X0245391Y0039358D02*
X0257160Y0039358D01*
X0257161Y0039358D02*
X0268627Y0039358D01*
X0268643Y0039162D02*
X0257161Y0039162D01*
X0257160Y0039162D02*
X0245366Y0039162D01*
X0245344Y0038967D02*
X0254467Y0038967D01*
X0253493Y0038772D02*
X0245322Y0038772D01*
X0245301Y0038576D02*
X0252767Y0038576D01*
X0252138Y0038381D02*
X0245279Y0038381D01*
X0245263Y0038186D02*
X0251582Y0038186D01*
X0251103Y0037990D02*
X0245256Y0037990D01*
X0245248Y0037795D02*
X0250646Y0037795D01*
X0250240Y0037600D02*
X0245241Y0037600D01*
X0245233Y0037404D02*
X0249856Y0037404D01*
X0249488Y0037209D02*
X0245226Y0037209D01*
X0245232Y0037013D02*
X0249159Y0037013D01*
X0248829Y0036818D02*
X0245238Y0036818D01*
X0245244Y0036623D02*
X0248525Y0036623D01*
X0248238Y0036427D02*
X0245250Y0036427D01*
X0245256Y0036232D02*
X0247950Y0036232D01*
X0247686Y0036037D02*
X0245272Y0036037D01*
X0245292Y0035841D02*
X0247434Y0035841D01*
X0247182Y0035646D02*
X0245311Y0035646D01*
X0245331Y0035451D02*
X0246942Y0035451D01*
X0246721Y0035255D02*
X0245350Y0035255D01*
X0245376Y0035060D02*
X0246499Y0035060D01*
X0246278Y0034864D02*
X0245409Y0034864D01*
X0245442Y0034669D02*
X0246083Y0034669D01*
X0245890Y0034474D02*
X0245475Y0034474D01*
X0245508Y0034278D02*
X0245697Y0034278D01*
X0245464Y0039748D02*
X0257160Y0039748D01*
X0256917Y0037209D02*
X0256427Y0037209D01*
X0268413Y0027441D02*
X0273315Y0027441D01*
X0273436Y0027636D02*
X0268594Y0027636D01*
X0268774Y0027831D02*
X0273557Y0027831D01*
X0273679Y0028027D02*
X0268955Y0028027D01*
X0269113Y0028222D02*
X0273800Y0028222D01*
X0273912Y0028418D02*
X0269270Y0028418D01*
X0269427Y0028613D02*
X0274019Y0028613D01*
X0274126Y0028808D02*
X0269583Y0028808D01*
X0269728Y0029004D02*
X0274233Y0029004D01*
X0274340Y0029199D02*
X0269863Y0029199D01*
X0269999Y0029394D02*
X0274437Y0029394D01*
X0274530Y0029590D02*
X0270134Y0029590D01*
X0270270Y0029785D02*
X0274624Y0029785D01*
X0274718Y0029980D02*
X0270387Y0029980D01*
X0270503Y0030176D02*
X0274812Y0030176D01*
X0274894Y0030371D02*
X0270619Y0030371D01*
X0270735Y0030566D02*
X0274974Y0030566D01*
X0275055Y0030762D02*
X0270849Y0030762D01*
X0270947Y0030957D02*
X0275136Y0030957D01*
X0275217Y0031153D02*
X0271046Y0031153D01*
X0271144Y0031348D02*
X0275287Y0031348D01*
X0275356Y0031543D02*
X0271243Y0031543D01*
X0271338Y0031739D02*
X0275424Y0031739D01*
X0275493Y0031934D02*
X0271420Y0031934D01*
X0271501Y0032129D02*
X0275562Y0032129D01*
X0275622Y0032325D02*
X0271583Y0032325D01*
X0271664Y0032520D02*
X0275679Y0032520D01*
X0275735Y0032715D02*
X0271746Y0032715D01*
X0271811Y0032911D02*
X0275792Y0032911D01*
X0273182Y0027245D02*
X0268233Y0027245D01*
X0268027Y0027050D02*
X0273046Y0027050D01*
X0272910Y0026855D02*
X0267819Y0026855D01*
X0267612Y0026659D02*
X0272773Y0026659D01*
X0272633Y0026464D02*
X0267401Y0026464D01*
X0267163Y0026269D02*
X0272480Y0026269D01*
X0272328Y0026073D02*
X0266924Y0026073D01*
X0266685Y0025878D02*
X0272175Y0025878D01*
X0272023Y0025682D02*
X0266425Y0025682D01*
X0266149Y0025487D02*
X0271853Y0025487D01*
X0271683Y0025292D02*
X0265874Y0025292D01*
X0265582Y0025096D02*
X0271513Y0025096D01*
X0271343Y0024901D02*
X0265261Y0024901D01*
X0264939Y0024706D02*
X0271156Y0024706D01*
X0270967Y0024510D02*
X0264593Y0024510D01*
X0264214Y0024315D02*
X0270777Y0024315D01*
X0270588Y0024120D02*
X0263834Y0024120D01*
X0263388Y0023924D02*
X0270379Y0023924D01*
X0270168Y0023729D02*
X0262933Y0023729D01*
X0262408Y0023533D02*
X0269956Y0023533D01*
X0269741Y0023338D02*
X0261849Y0023338D01*
X0261163Y0023143D02*
X0269505Y0023143D01*
X0269270Y0022947D02*
X0260360Y0022947D01*
X0256920Y0022361D02*
X0268518Y0022361D01*
X0268255Y0022166D02*
X0256920Y0022166D01*
X0256917Y0022166D02*
X0245802Y0022166D01*
X0245536Y0022361D02*
X0256917Y0022361D01*
X0256920Y0021971D02*
X0267979Y0021971D01*
X0267685Y0021775D02*
X0256920Y0021775D01*
X0256917Y0021775D02*
X0246378Y0021775D01*
X0246678Y0021580D02*
X0256917Y0021580D01*
X0256920Y0021580D02*
X0267390Y0021580D01*
X0267080Y0021384D02*
X0256920Y0021384D01*
X0256917Y0021384D02*
X0246988Y0021384D01*
X0247325Y0021189D02*
X0256917Y0021189D01*
X0256920Y0021189D02*
X0266748Y0021189D01*
X0266416Y0020994D02*
X0256920Y0020994D01*
X0256917Y0020994D02*
X0247663Y0020994D01*
X0248025Y0020798D02*
X0256917Y0020798D01*
X0256920Y0020798D02*
X0266054Y0020798D01*
X0265676Y0020603D02*
X0256920Y0020603D01*
X0256917Y0020603D02*
X0248409Y0020603D01*
X0248795Y0020408D02*
X0256917Y0020408D01*
X0256920Y0020408D02*
X0265291Y0020408D01*
X0264856Y0020212D02*
X0256920Y0020212D01*
X0256917Y0020212D02*
X0249237Y0020212D01*
X0249680Y0020017D02*
X0256917Y0020017D01*
X0256920Y0020017D02*
X0264422Y0020017D01*
X0263922Y0019822D02*
X0256920Y0019822D01*
X0256917Y0019822D02*
X0250181Y0019822D01*
X0250698Y0019626D02*
X0256917Y0019626D01*
X0256920Y0019626D02*
X0263414Y0019626D01*
X0262817Y0019431D02*
X0256920Y0019431D01*
X0256917Y0019431D02*
X0251299Y0019431D01*
X0251943Y0019236D02*
X0256917Y0019236D01*
X0256920Y0019236D02*
X0262178Y0019236D01*
X0261437Y0019040D02*
X0256920Y0019040D01*
X0256917Y0019040D02*
X0252702Y0019040D01*
X0253636Y0018845D02*
X0256917Y0018845D01*
X0256920Y0018845D02*
X0260515Y0018845D01*
X0259285Y0018649D02*
X0256920Y0018649D01*
X0256917Y0018649D02*
X0254892Y0018649D01*
X0256917Y0021971D02*
X0246079Y0021971D01*
M02*
