G75*
%MOIN*%
%OFA0B0*%
%FSLAX25Y25*%
%IPPOS*%
%LPD*%
%AMOC8*
5,1,8,0,0,1.08239X$1,22.5*
%
%ADD10C,0.01000*%
%ADD11OC8,0.10700*%
%ADD12C,0.10300*%
%ADD13OC8,0.12400*%
%ADD14C,0.12400*%
%ADD15OC8,0.05600*%
%ADD16OC8,0.06200*%
%ADD17C,0.06200*%
%ADD18C,0.07480*%
%ADD19C,0.06800*%
%ADD20OC8,0.11811*%
%ADD21OC8,0.05440*%
%ADD22OC8,0.05000*%
%ADD23OC8,0.06800*%
%ADD24C,0.10693*%
%ADD25C,0.05000*%
%ADD26C,0.04000*%
%ADD27C,0.02756*%
%ADD28C,0.16598*%
D10*
X0032280Y0007437D02*
X0032280Y0322398D01*
X0583461Y0322398D01*
X0583461Y0007437D01*
X0032280Y0007437D01*
D11*
X0140548Y0135390D03*
X0140548Y0194445D03*
X0404327Y0086177D03*
X0420075Y0086177D03*
X0435823Y0086177D03*
X0475194Y0086177D03*
D12*
X0112233Y0134917D02*
X0101933Y0134917D01*
X0101933Y0154917D02*
X0112233Y0154917D01*
X0112233Y0174917D02*
X0101933Y0174917D01*
X0101933Y0194917D02*
X0112233Y0194917D01*
D13*
X0056650Y0243657D03*
X0086650Y0086177D03*
D14*
X0056650Y0086177D03*
X0086650Y0243657D03*
D15*
X0186572Y0188539D03*
X0216572Y0188539D03*
X0268501Y0182476D03*
X0268501Y0202476D03*
X0335430Y0202476D03*
X0355115Y0207476D03*
X0367674Y0208224D03*
X0397674Y0208224D03*
X0355115Y0177476D03*
X0335430Y0182476D03*
X0374800Y0152358D03*
X0355115Y0147358D03*
X0355115Y0127358D03*
X0374800Y0122358D03*
X0396453Y0122358D03*
X0396453Y0152358D03*
X0455509Y0182476D03*
X0477162Y0177476D03*
X0455509Y0202476D03*
X0477162Y0207476D03*
X0216572Y0141295D03*
X0186572Y0141295D03*
D16*
X0268501Y0132358D03*
X0335430Y0132358D03*
D17*
X0335430Y0142358D03*
X0268501Y0142358D03*
D18*
X0292123Y0157358D03*
X0311808Y0157358D03*
X0311808Y0172476D03*
X0292123Y0172476D03*
X0292123Y0212476D03*
X0311808Y0212476D03*
X0408264Y0212476D03*
X0429918Y0212476D03*
X0429918Y0172476D03*
X0408264Y0172476D03*
X0311808Y0117358D03*
X0292123Y0117358D03*
D19*
X0292871Y0077766D02*
X0292871Y0070966D01*
X0302871Y0070966D02*
X0302871Y0077766D01*
X0312871Y0077766D02*
X0312871Y0070966D01*
X0309091Y0252069D02*
X0309091Y0258869D01*
X0299091Y0258869D02*
X0299091Y0252069D01*
X0289091Y0252069D02*
X0289091Y0258869D01*
X0460351Y0258869D02*
X0460351Y0252069D01*
X0470351Y0252069D02*
X0470351Y0258869D01*
X0480351Y0258869D02*
X0480351Y0252069D01*
D20*
X0520469Y0269248D03*
X0422044Y0269248D03*
X0349209Y0269248D03*
X0250784Y0269248D03*
X0252753Y0060587D03*
X0351178Y0060587D03*
D21*
X0425981Y0132358D03*
X0425981Y0142358D03*
X0465351Y0142358D03*
X0465351Y0132358D03*
X0382674Y0181571D03*
X0382674Y0191571D03*
X0237005Y0187476D03*
X0237005Y0197476D03*
X0237005Y0142358D03*
X0237005Y0132358D03*
D22*
X0170745Y0140114D03*
X0160745Y0140114D03*
X0165745Y0147220D03*
X0170745Y0187358D03*
X0160745Y0187358D03*
X0165745Y0194465D03*
D23*
X0203264Y0243657D03*
X0203264Y0290902D03*
X0113264Y0290902D03*
X0113264Y0243657D03*
X0113264Y0086177D03*
X0113264Y0038933D03*
X0203264Y0038933D03*
X0203264Y0086177D03*
D24*
X0061249Y0149327D02*
X0050556Y0149327D01*
X0050556Y0164917D02*
X0061249Y0164917D01*
X0061249Y0180508D02*
X0050556Y0180508D01*
X0404485Y0040343D02*
X0404485Y0029650D01*
X0420075Y0029650D02*
X0420075Y0040343D01*
X0435666Y0040343D02*
X0435666Y0029650D01*
X0467398Y0029650D02*
X0467398Y0040343D01*
X0482989Y0040343D02*
X0482989Y0029650D01*
D25*
X0482989Y0034996D02*
X0482989Y0078382D01*
X0475194Y0086177D01*
X0494879Y0105862D01*
X0494879Y0240941D01*
X0480351Y0255469D01*
X0480351Y0219287D01*
X0473540Y0212476D01*
X0449603Y0212476D01*
X0455509Y0206571D01*
X0455509Y0202476D01*
X0465809Y0202476D02*
X0465809Y0198210D01*
X0459775Y0192176D01*
X0451242Y0192176D01*
X0445209Y0198210D01*
X0445209Y0202476D01*
X0435077Y0202476D01*
X0434256Y0202002D01*
X0433341Y0201757D01*
X0418264Y0186681D01*
X0418264Y0177636D01*
X0418738Y0176815D01*
X0419504Y0173956D01*
X0419504Y0170997D01*
X0418738Y0168138D01*
X0418106Y0167043D01*
X0423701Y0167043D01*
X0423052Y0167889D01*
X0422512Y0168824D01*
X0422099Y0169822D01*
X0421819Y0170865D01*
X0421678Y0171936D01*
X0421678Y0172476D01*
X0429918Y0172476D01*
X0429918Y0172476D01*
X0438158Y0172476D01*
X0438158Y0171936D01*
X0438017Y0170865D01*
X0437737Y0169822D01*
X0437324Y0168824D01*
X0436784Y0167889D01*
X0436126Y0167032D01*
X0436052Y0166957D01*
X0439520Y0165521D01*
X0453299Y0151741D01*
X0456112Y0148928D01*
X0456509Y0147970D01*
X0461118Y0152578D01*
X0463016Y0152578D01*
X0468284Y0157847D01*
X0468284Y0171788D01*
X0466862Y0173210D01*
X0466862Y0181743D01*
X0472896Y0187776D01*
X0481428Y0187776D01*
X0484879Y0184326D01*
X0484879Y0200627D01*
X0481428Y0197176D01*
X0472896Y0197176D01*
X0467596Y0202476D01*
X0465809Y0202476D01*
X0465809Y0202379D02*
X0467693Y0202379D01*
X0464979Y0197380D02*
X0472692Y0197380D01*
X0481633Y0197380D02*
X0484879Y0197380D01*
X0484879Y0192382D02*
X0459980Y0192382D01*
X0458532Y0189776D02*
X0455509Y0189776D01*
X0455509Y0182477D01*
X0455508Y0182477D01*
X0455508Y0189776D01*
X0452485Y0189776D01*
X0448209Y0185500D01*
X0448209Y0182476D01*
X0448209Y0179453D01*
X0452485Y0175176D01*
X0455508Y0175176D01*
X0455508Y0182476D01*
X0448209Y0182476D01*
X0455508Y0182476D01*
X0455508Y0182476D01*
X0455509Y0182476D01*
X0455509Y0182476D01*
X0462809Y0182476D01*
X0462809Y0179453D01*
X0458532Y0175176D01*
X0455509Y0175176D01*
X0455509Y0182476D01*
X0462809Y0182476D01*
X0462809Y0185500D01*
X0458532Y0189776D01*
X0460925Y0187383D02*
X0472503Y0187383D01*
X0467504Y0182385D02*
X0462809Y0182385D01*
X0460742Y0177386D02*
X0466862Y0177386D01*
X0467684Y0172388D02*
X0438158Y0172388D01*
X0438158Y0172476D02*
X0438158Y0173016D01*
X0438017Y0174087D01*
X0437737Y0175131D01*
X0437324Y0176129D01*
X0436784Y0177064D01*
X0436126Y0177921D01*
X0435363Y0178685D01*
X0434506Y0179342D01*
X0433570Y0179882D01*
X0432572Y0180296D01*
X0431529Y0180575D01*
X0430458Y0180716D01*
X0429918Y0180716D01*
X0429918Y0172477D01*
X0429918Y0180716D01*
X0429378Y0180716D01*
X0428307Y0180575D01*
X0427264Y0180296D01*
X0426266Y0179882D01*
X0425330Y0179342D01*
X0424473Y0178685D01*
X0423710Y0177921D01*
X0423052Y0177064D01*
X0422512Y0176129D01*
X0422099Y0175131D01*
X0421819Y0174087D01*
X0421678Y0173016D01*
X0421678Y0172476D01*
X0429918Y0172476D01*
X0429918Y0172476D01*
X0445509Y0172476D01*
X0455509Y0182476D01*
X0455509Y0137358D01*
X0455509Y0074366D01*
X0467398Y0062476D01*
X0467398Y0034996D01*
X0457552Y0034996D01*
X0457552Y0029097D01*
X0457676Y0027998D01*
X0457922Y0026919D01*
X0458287Y0025876D01*
X0458767Y0024879D01*
X0459355Y0023943D01*
X0460045Y0023078D01*
X0460827Y0022296D01*
X0461691Y0021607D01*
X0462628Y0021018D01*
X0463624Y0020538D01*
X0464668Y0020173D01*
X0465746Y0019927D01*
X0466845Y0019803D01*
X0467398Y0019803D01*
X0467398Y0034996D01*
X0467398Y0034996D01*
X0457552Y0034996D01*
X0457552Y0040895D01*
X0457676Y0041994D01*
X0457922Y0043073D01*
X0458287Y0044117D01*
X0458767Y0045113D01*
X0459355Y0046049D01*
X0460045Y0046914D01*
X0460827Y0047696D01*
X0461691Y0048386D01*
X0462628Y0048974D01*
X0463624Y0049454D01*
X0464668Y0049819D01*
X0465746Y0050065D01*
X0466845Y0050189D01*
X0467398Y0050189D01*
X0467398Y0034996D01*
X0467398Y0034996D01*
X0467398Y0034996D01*
X0467398Y0027201D01*
X0459446Y0019248D01*
X0416138Y0019248D01*
X0288186Y0019248D01*
X0091335Y0019248D01*
X0040154Y0070429D01*
X0040154Y0102673D01*
X0056650Y0086177D01*
X0045950Y0086177D01*
X0045950Y0085576D01*
X0046085Y0084382D01*
X0046352Y0083210D01*
X0046749Y0082076D01*
X0047271Y0080993D01*
X0047910Y0079976D01*
X0048659Y0079036D01*
X0049509Y0078186D01*
X0050449Y0077437D01*
X0051466Y0076798D01*
X0052549Y0076276D01*
X0053683Y0075879D01*
X0054855Y0075612D01*
X0056049Y0075477D01*
X0056650Y0075477D01*
X0056650Y0086177D01*
X0056650Y0086177D01*
X0056650Y0086177D01*
X0045950Y0086177D01*
X0045950Y0086778D01*
X0046085Y0087972D01*
X0046352Y0089144D01*
X0046749Y0090278D01*
X0047271Y0091361D01*
X0047910Y0092379D01*
X0048659Y0093318D01*
X0049509Y0094168D01*
X0050449Y0094917D01*
X0051466Y0095557D01*
X0052549Y0096078D01*
X0053683Y0096475D01*
X0054855Y0096743D01*
X0056049Y0096877D01*
X0056650Y0096877D01*
X0056650Y0086177D01*
X0056650Y0075477D01*
X0057251Y0075477D01*
X0058445Y0075612D01*
X0059617Y0075879D01*
X0060751Y0076276D01*
X0061834Y0076798D01*
X0062852Y0077437D01*
X0063791Y0078186D01*
X0064641Y0079036D01*
X0065391Y0079976D01*
X0066030Y0080993D01*
X0066551Y0082076D01*
X0066948Y0083210D01*
X0067216Y0084382D01*
X0067350Y0085576D01*
X0067350Y0086177D01*
X0056650Y0086177D01*
X0056650Y0086177D01*
X0056650Y0086177D01*
X0056650Y0096877D01*
X0057251Y0096877D01*
X0058445Y0096743D01*
X0059617Y0096475D01*
X0060751Y0096078D01*
X0061834Y0095557D01*
X0062852Y0094917D01*
X0063791Y0094168D01*
X0064641Y0093318D01*
X0065391Y0092379D01*
X0066030Y0091361D01*
X0066551Y0090278D01*
X0066948Y0089144D01*
X0067216Y0087972D01*
X0067350Y0086778D01*
X0067350Y0086177D01*
X0056650Y0086177D01*
X0056650Y0087413D02*
X0056650Y0087413D01*
X0056650Y0082415D02*
X0056650Y0082415D01*
X0056650Y0077416D02*
X0056650Y0077416D01*
X0050482Y0077416D02*
X0040280Y0077416D01*
X0040280Y0072418D02*
X0130548Y0072418D01*
X0130548Y0070359D02*
X0110022Y0049833D01*
X0108750Y0049833D01*
X0102364Y0043448D01*
X0102364Y0034418D01*
X0108750Y0028033D01*
X0117779Y0028033D01*
X0124164Y0034418D01*
X0124164Y0035691D01*
X0146212Y0057739D01*
X0149025Y0060552D01*
X0150548Y0064227D01*
X0150548Y0127217D01*
X0153398Y0130067D01*
X0153398Y0131236D01*
X0155481Y0131236D01*
X0156603Y0130114D01*
X0164887Y0130114D01*
X0165745Y0130972D01*
X0166603Y0130114D01*
X0174887Y0130114D01*
X0177190Y0132417D01*
X0180883Y0132417D01*
X0182305Y0130995D01*
X0190838Y0130995D01*
X0194386Y0134544D01*
X0194386Y0092714D01*
X0192364Y0090692D01*
X0192364Y0081662D01*
X0194490Y0079537D01*
X0194787Y0078820D01*
X0202936Y0070670D01*
X0205749Y0067857D01*
X0209425Y0066335D01*
X0239542Y0066335D01*
X0239347Y0066139D01*
X0239347Y0055034D01*
X0245448Y0048933D01*
X0208679Y0048933D01*
X0207779Y0049833D01*
X0198750Y0049833D01*
X0192364Y0043448D01*
X0192364Y0034418D01*
X0198750Y0028033D01*
X0207779Y0028033D01*
X0208679Y0028933D01*
X0294112Y0028933D01*
X0297787Y0030455D01*
X0311348Y0044017D01*
X0312871Y0047692D01*
X0312871Y0066487D01*
X0312871Y0063066D01*
X0313389Y0063066D01*
X0314415Y0063201D01*
X0315416Y0063469D01*
X0316372Y0063866D01*
X0317269Y0064383D01*
X0318091Y0065014D01*
X0318823Y0065746D01*
X0319453Y0066568D01*
X0319971Y0067465D01*
X0320368Y0068421D01*
X0320636Y0069422D01*
X0320771Y0070448D01*
X0320771Y0074366D01*
X0313771Y0074366D01*
X0313771Y0074366D01*
X0320771Y0074366D01*
X0320771Y0078284D01*
X0320636Y0079311D01*
X0320368Y0080311D01*
X0319971Y0081268D01*
X0319453Y0082165D01*
X0318823Y0082986D01*
X0318091Y0083718D01*
X0317269Y0084349D01*
X0316372Y0084867D01*
X0315416Y0085263D01*
X0314415Y0085531D01*
X0313389Y0085666D01*
X0312871Y0085666D01*
X0312871Y0082246D01*
X0312871Y0085666D01*
X0312353Y0085666D01*
X0311326Y0085531D01*
X0310691Y0085361D01*
X0310038Y0086014D01*
X0312013Y0087988D01*
X0388374Y0087988D01*
X0391477Y0084885D01*
X0391477Y0080855D01*
X0394485Y0077847D01*
X0394485Y0048510D01*
X0394205Y0048230D01*
X0392514Y0045301D01*
X0391638Y0042034D01*
X0391638Y0027958D01*
X0392514Y0024691D01*
X0394205Y0021762D01*
X0396597Y0019370D01*
X0399526Y0017679D01*
X0402794Y0016803D01*
X0406176Y0016803D01*
X0409443Y0017679D01*
X0412373Y0019370D01*
X0414517Y0021514D01*
X0415305Y0021018D01*
X0416301Y0020538D01*
X0417345Y0020173D01*
X0418423Y0019927D01*
X0419522Y0019803D01*
X0420075Y0019803D01*
X0420075Y0034996D01*
X0420076Y0034996D01*
X0420076Y0019803D01*
X0420628Y0019803D01*
X0421727Y0019927D01*
X0422806Y0020173D01*
X0423849Y0020538D01*
X0424846Y0021018D01*
X0425634Y0021514D01*
X0427778Y0019370D01*
X0430707Y0017679D01*
X0433975Y0016803D01*
X0437357Y0016803D01*
X0440625Y0017679D01*
X0443554Y0019370D01*
X0445946Y0021762D01*
X0447637Y0024691D01*
X0448512Y0027958D01*
X0448512Y0042034D01*
X0447637Y0045301D01*
X0445946Y0048230D01*
X0445666Y0048510D01*
X0445666Y0077847D01*
X0448673Y0080855D01*
X0448673Y0084885D01*
X0456112Y0092324D01*
X0457634Y0095999D01*
X0457634Y0135622D01*
X0458131Y0135125D01*
X0458131Y0132358D01*
X0458131Y0129368D01*
X0462360Y0125138D01*
X0465351Y0125138D01*
X0465351Y0132138D01*
X0465351Y0132138D01*
X0465351Y0125138D01*
X0468342Y0125138D01*
X0472571Y0129368D01*
X0472571Y0132358D01*
X0469804Y0132358D01*
X0469804Y0132358D01*
X0472571Y0132358D01*
X0472571Y0135125D01*
X0475571Y0138125D01*
X0475571Y0140023D01*
X0484688Y0149140D01*
X0484879Y0149599D01*
X0484879Y0110004D01*
X0473901Y0099027D01*
X0469871Y0099027D01*
X0462344Y0091500D01*
X0462344Y0080855D01*
X0469871Y0073327D01*
X0472989Y0073327D01*
X0472989Y0048510D01*
X0472957Y0048478D01*
X0472169Y0048974D01*
X0471172Y0049454D01*
X0470128Y0049819D01*
X0469050Y0050065D01*
X0467951Y0050189D01*
X0467398Y0050189D01*
X0467398Y0034996D01*
X0467398Y0019803D01*
X0467951Y0019803D01*
X0469050Y0019927D01*
X0470128Y0020173D01*
X0471172Y0020538D01*
X0472169Y0021018D01*
X0472957Y0021514D01*
X0475101Y0019370D01*
X0478030Y0017679D01*
X0481298Y0016803D01*
X0484680Y0016803D01*
X0487947Y0017679D01*
X0490877Y0019370D01*
X0493269Y0021762D01*
X0494960Y0024691D01*
X0495835Y0027958D01*
X0495835Y0042034D01*
X0494960Y0045301D01*
X0493269Y0048230D01*
X0492989Y0048510D01*
X0492989Y0080371D01*
X0491466Y0084046D01*
X0489336Y0086177D01*
X0500543Y0097385D01*
X0503356Y0100198D01*
X0504879Y0103873D01*
X0504879Y0242930D01*
X0503356Y0246605D01*
X0491251Y0258711D01*
X0491251Y0260304D01*
X0490508Y0263076D01*
X0489073Y0265561D01*
X0487044Y0267591D01*
X0484558Y0269026D01*
X0481786Y0269768D01*
X0478916Y0269768D01*
X0476144Y0269026D01*
X0473658Y0267591D01*
X0472531Y0266463D01*
X0471896Y0266633D01*
X0470869Y0266768D01*
X0470351Y0266768D01*
X0469833Y0266768D01*
X0468807Y0266633D01*
X0468171Y0266463D01*
X0467044Y0267591D01*
X0464558Y0269026D01*
X0461786Y0269768D01*
X0458916Y0269768D01*
X0456144Y0269026D01*
X0453658Y0267591D01*
X0451629Y0265561D01*
X0451575Y0265468D01*
X0435449Y0265468D01*
X0435449Y0274801D01*
X0427597Y0282654D01*
X0416491Y0282654D01*
X0408638Y0274801D01*
X0408638Y0263695D01*
X0414352Y0257982D01*
X0408264Y0251894D01*
X0399025Y0261133D01*
X0396212Y0263946D01*
X0392537Y0265468D01*
X0362615Y0265468D01*
X0362615Y0274801D01*
X0354762Y0282654D01*
X0343657Y0282654D01*
X0335804Y0274801D01*
X0335804Y0265468D01*
X0317867Y0265468D01*
X0317813Y0265561D01*
X0315784Y0267591D01*
X0313298Y0269026D01*
X0310526Y0269768D01*
X0307656Y0269768D01*
X0304884Y0269026D01*
X0302398Y0267591D01*
X0301271Y0266463D01*
X0300636Y0266633D01*
X0299609Y0266768D01*
X0299091Y0266768D01*
X0299091Y0263348D01*
X0299091Y0276237D01*
X0297569Y0279913D01*
X0294756Y0282726D01*
X0278102Y0299379D01*
X0274427Y0300902D01*
X0208679Y0300902D01*
X0207779Y0301802D01*
X0198750Y0301802D01*
X0192364Y0295416D01*
X0192364Y0286387D01*
X0198750Y0280002D01*
X0207779Y0280002D01*
X0208679Y0280902D01*
X0243479Y0280902D01*
X0237379Y0274801D01*
X0237379Y0263695D01*
X0245231Y0255843D01*
X0256337Y0255843D01*
X0264190Y0263695D01*
X0264190Y0274801D01*
X0258089Y0280902D01*
X0268296Y0280902D01*
X0279091Y0270106D01*
X0279091Y0263348D01*
X0278934Y0263076D01*
X0278191Y0260304D01*
X0278191Y0250633D01*
X0278789Y0248403D01*
X0274647Y0244261D01*
X0271834Y0241448D01*
X0269485Y0239099D01*
X0256449Y0252135D01*
X0252773Y0253657D01*
X0208679Y0253657D01*
X0207779Y0254557D01*
X0198750Y0254557D01*
X0192364Y0248172D01*
X0192364Y0245313D01*
X0158218Y0211167D01*
X0156867Y0207904D01*
X0156867Y0199729D01*
X0155745Y0198607D01*
X0155745Y0196500D01*
X0155481Y0196236D01*
X0153398Y0196236D01*
X0153398Y0199768D01*
X0150548Y0202618D01*
X0150548Y0265607D01*
X0149025Y0269283D01*
X0146212Y0272096D01*
X0124164Y0294144D01*
X0124164Y0295416D01*
X0117779Y0301802D01*
X0108750Y0301802D01*
X0102364Y0295416D01*
X0102364Y0286387D01*
X0108750Y0280002D01*
X0110022Y0280002D01*
X0130548Y0259476D01*
X0130548Y0240516D01*
X0124164Y0246900D01*
X0124164Y0248172D01*
X0117779Y0254557D01*
X0108750Y0254557D01*
X0107850Y0253657D01*
X0096025Y0253657D01*
X0095062Y0254620D01*
X0091938Y0256424D01*
X0088454Y0257357D01*
X0084847Y0257357D01*
X0081362Y0256424D01*
X0078238Y0254620D01*
X0075688Y0252069D01*
X0073884Y0248945D01*
X0072950Y0245461D01*
X0072950Y0241854D01*
X0073884Y0238369D01*
X0075688Y0235245D01*
X0078238Y0232695D01*
X0081362Y0230891D01*
X0084847Y0229957D01*
X0086208Y0229957D01*
X0097083Y0219082D01*
X0097083Y0206714D01*
X0097051Y0206705D01*
X0094166Y0205040D01*
X0091811Y0202685D01*
X0090145Y0199800D01*
X0089283Y0196583D01*
X0089283Y0193252D01*
X0090019Y0190508D01*
X0069416Y0190508D01*
X0069137Y0190788D01*
X0066207Y0192479D01*
X0062940Y0193354D01*
X0048864Y0193354D01*
X0045597Y0192479D01*
X0042668Y0190788D01*
X0040280Y0188400D01*
X0040280Y0292054D01*
X0042264Y0290070D01*
X0045867Y0287990D01*
X0049885Y0286913D01*
X0054045Y0286913D01*
X0058063Y0287990D01*
X0061666Y0290070D01*
X0064608Y0293012D01*
X0066688Y0296614D01*
X0067764Y0300633D01*
X0067764Y0304793D01*
X0066688Y0308811D01*
X0064608Y0312414D01*
X0062624Y0314398D01*
X0553118Y0314398D01*
X0551134Y0312414D01*
X0549054Y0308811D01*
X0547977Y0304793D01*
X0547977Y0300633D01*
X0549054Y0296614D01*
X0551134Y0293012D01*
X0554075Y0290070D01*
X0557678Y0287990D01*
X0561696Y0286913D01*
X0565856Y0286913D01*
X0569875Y0287990D01*
X0573477Y0290070D01*
X0575461Y0292054D01*
X0575461Y0037780D01*
X0573477Y0039765D01*
X0569875Y0041845D01*
X0565856Y0042921D01*
X0561696Y0042921D01*
X0557678Y0041845D01*
X0554075Y0039765D01*
X0551134Y0036823D01*
X0549054Y0033220D01*
X0547977Y0029202D01*
X0547977Y0025042D01*
X0549054Y0021024D01*
X0551134Y0017421D01*
X0553118Y0015437D01*
X0062624Y0015437D01*
X0064608Y0017421D01*
X0066688Y0021024D01*
X0067764Y0025042D01*
X0067764Y0029202D01*
X0066688Y0033220D01*
X0064608Y0036823D01*
X0061666Y0039765D01*
X0058063Y0041845D01*
X0054045Y0042921D01*
X0049885Y0042921D01*
X0045867Y0041845D01*
X0042264Y0039765D01*
X0040280Y0037780D01*
X0040280Y0141435D01*
X0042668Y0139047D01*
X0045597Y0137356D01*
X0048864Y0136480D01*
X0062940Y0136480D01*
X0066207Y0137356D01*
X0069137Y0139047D01*
X0069416Y0139327D01*
X0090019Y0139327D01*
X0089283Y0136583D01*
X0089283Y0133252D01*
X0090145Y0130035D01*
X0091811Y0127150D01*
X0094166Y0124795D01*
X0097051Y0123129D01*
X0097083Y0123121D01*
X0097083Y0110752D01*
X0086208Y0099877D01*
X0080976Y0099877D01*
X0072950Y0091852D01*
X0072950Y0080502D01*
X0080976Y0072477D01*
X0092325Y0072477D01*
X0095710Y0075862D01*
X0108164Y0075862D01*
X0108750Y0075277D01*
X0117779Y0075277D01*
X0124164Y0081662D01*
X0124164Y0082935D01*
X0130548Y0089319D01*
X0130548Y0070359D01*
X0127608Y0067419D02*
X0040280Y0067419D01*
X0040280Y0062421D02*
X0122610Y0062421D01*
X0117611Y0057422D02*
X0040280Y0057422D01*
X0040280Y0052424D02*
X0112613Y0052424D01*
X0106342Y0047425D02*
X0040280Y0047425D01*
X0040280Y0042427D02*
X0048039Y0042427D01*
X0055891Y0042427D02*
X0102364Y0042427D01*
X0102364Y0037428D02*
X0064003Y0037428D01*
X0066900Y0032430D02*
X0104353Y0032430D01*
X0113264Y0038933D02*
X0140548Y0066217D01*
X0140548Y0113461D01*
X0140548Y0135390D01*
X0130548Y0127217D02*
X0127698Y0130067D01*
X0127698Y0140712D01*
X0135225Y0148240D01*
X0141690Y0148240D01*
X0143506Y0148992D01*
X0155481Y0148992D01*
X0155745Y0149256D01*
X0155745Y0151363D01*
X0161603Y0157220D01*
X0161634Y0157220D01*
X0162549Y0158135D01*
X0165046Y0160633D01*
X0168310Y0161984D01*
X0197432Y0161984D01*
X0200695Y0160633D01*
X0208293Y0153034D01*
X0210791Y0150537D01*
X0210924Y0150214D01*
X0212305Y0151595D01*
X0220838Y0151595D01*
X0226872Y0145562D01*
X0226872Y0143551D01*
X0229186Y0141236D01*
X0229785Y0141236D01*
X0229785Y0142358D01*
X0232551Y0142358D01*
X0232551Y0142358D01*
X0229785Y0142358D01*
X0229785Y0145349D01*
X0234014Y0149578D01*
X0237005Y0149578D01*
X0237005Y0142578D01*
X0237005Y0142578D01*
X0237005Y0149578D01*
X0239995Y0149578D01*
X0244225Y0145349D01*
X0244225Y0142358D01*
X0241458Y0142358D01*
X0241458Y0142358D01*
X0244225Y0142358D01*
X0244225Y0139592D01*
X0247225Y0136592D01*
X0247225Y0128125D01*
X0241238Y0122138D01*
X0232771Y0122138D01*
X0231429Y0123480D01*
X0223743Y0123480D01*
X0220480Y0124832D01*
X0217982Y0127329D01*
X0214316Y0130995D01*
X0212305Y0130995D01*
X0212142Y0131158D01*
X0212142Y0092714D01*
X0214164Y0090692D01*
X0214164Y0087726D01*
X0215556Y0086335D01*
X0250579Y0086335D01*
X0258501Y0094256D01*
X0258501Y0127368D01*
X0257901Y0127968D01*
X0257901Y0136749D01*
X0261241Y0140089D01*
X0261031Y0140872D01*
X0260901Y0141860D01*
X0260901Y0142358D01*
X0263510Y0142358D01*
X0263510Y0142358D01*
X0260901Y0142358D01*
X0260901Y0142856D01*
X0261031Y0143844D01*
X0261289Y0144806D01*
X0261670Y0145727D01*
X0262168Y0146590D01*
X0262774Y0147380D01*
X0263479Y0148084D01*
X0264269Y0148691D01*
X0265132Y0149189D01*
X0266052Y0149570D01*
X0267015Y0149828D01*
X0268003Y0149958D01*
X0268501Y0149958D01*
X0268501Y0142958D01*
X0268501Y0142958D01*
X0268501Y0149958D01*
X0268999Y0149958D01*
X0269987Y0149828D01*
X0270949Y0149570D01*
X0271869Y0149189D01*
X0272732Y0148691D01*
X0273522Y0148084D01*
X0274227Y0147380D01*
X0274833Y0146590D01*
X0275331Y0145727D01*
X0275713Y0144806D01*
X0275971Y0143844D01*
X0276101Y0142856D01*
X0276101Y0142358D01*
X0273491Y0142358D01*
X0276101Y0142358D01*
X0276101Y0141860D01*
X0275971Y0140872D01*
X0275761Y0140089D01*
X0277252Y0138598D01*
X0282123Y0143469D01*
X0282123Y0152199D01*
X0281649Y0153020D01*
X0280883Y0155878D01*
X0280883Y0158838D01*
X0281649Y0161697D01*
X0283128Y0164260D01*
X0283786Y0164917D01*
X0283128Y0165575D01*
X0281649Y0168138D01*
X0280883Y0170997D01*
X0280883Y0173956D01*
X0281649Y0176815D01*
X0282123Y0177636D01*
X0282123Y0194780D01*
X0283645Y0198456D01*
X0286458Y0201269D01*
X0287409Y0202219D01*
X0285221Y0203482D01*
X0283128Y0205575D01*
X0281649Y0208138D01*
X0281403Y0209054D01*
X0278501Y0211956D01*
X0278501Y0207043D01*
X0278801Y0206743D01*
X0278801Y0198210D01*
X0272767Y0192176D01*
X0264234Y0192176D01*
X0258201Y0198210D01*
X0258201Y0206743D01*
X0258501Y0207043D01*
X0258501Y0221799D01*
X0246642Y0233657D01*
X0208679Y0233657D01*
X0207779Y0232757D01*
X0204920Y0232757D01*
X0174623Y0202460D01*
X0174623Y0199729D01*
X0175745Y0198607D01*
X0175745Y0197417D01*
X0180883Y0197417D01*
X0182305Y0198839D01*
X0190838Y0198839D01*
X0196872Y0192806D01*
X0196872Y0184273D01*
X0190838Y0178239D01*
X0182305Y0178239D01*
X0180883Y0179661D01*
X0177190Y0179661D01*
X0174887Y0177358D01*
X0166603Y0177358D01*
X0165745Y0178216D01*
X0164887Y0177358D01*
X0156603Y0177358D01*
X0155481Y0178480D01*
X0145869Y0178480D01*
X0142606Y0179832D01*
X0140843Y0181595D01*
X0135225Y0181595D01*
X0127698Y0189122D01*
X0127698Y0199768D01*
X0130548Y0202618D01*
X0130548Y0212232D01*
X0116742Y0226038D01*
X0117083Y0225214D01*
X0117083Y0206714D01*
X0117116Y0206705D01*
X0120001Y0205040D01*
X0122356Y0202685D01*
X0124021Y0199800D01*
X0124883Y0196583D01*
X0124883Y0193252D01*
X0124021Y0190035D01*
X0122356Y0187150D01*
X0120123Y0184917D01*
X0122356Y0182685D01*
X0124021Y0179800D01*
X0124883Y0176583D01*
X0124883Y0173252D01*
X0124021Y0170035D01*
X0122356Y0167150D01*
X0120123Y0164917D01*
X0122356Y0162685D01*
X0124021Y0159800D01*
X0124883Y0156583D01*
X0124883Y0153252D01*
X0124021Y0150035D01*
X0122356Y0147150D01*
X0120123Y0144917D01*
X0122356Y0142685D01*
X0124021Y0139800D01*
X0124883Y0136583D01*
X0124883Y0133252D01*
X0124021Y0130035D01*
X0122356Y0127150D01*
X0120001Y0124795D01*
X0117116Y0123129D01*
X0117083Y0123121D01*
X0117083Y0104621D01*
X0116742Y0103797D01*
X0130548Y0117603D01*
X0130548Y0127217D01*
X0130364Y0127401D02*
X0122501Y0127401D01*
X0124655Y0132400D02*
X0127698Y0132400D01*
X0127698Y0137398D02*
X0124665Y0137398D01*
X0122522Y0142397D02*
X0129382Y0142397D01*
X0134381Y0147395D02*
X0122497Y0147395D01*
X0124653Y0152394D02*
X0156776Y0152394D01*
X0161806Y0157392D02*
X0124666Y0157392D01*
X0122525Y0162391D02*
X0282049Y0162391D01*
X0282081Y0167389D02*
X0122494Y0167389D01*
X0124652Y0172388D02*
X0280883Y0172388D01*
X0281979Y0177386D02*
X0273734Y0177386D01*
X0275801Y0179453D02*
X0275801Y0182476D01*
X0268501Y0182476D01*
X0268501Y0182476D01*
X0268501Y0175176D01*
X0271524Y0175176D01*
X0275801Y0179453D01*
X0275801Y0182385D02*
X0282123Y0182385D01*
X0275801Y0182476D02*
X0275801Y0185500D01*
X0271524Y0189776D01*
X0268501Y0189776D01*
X0268501Y0182477D01*
X0268501Y0182477D01*
X0268501Y0182476D02*
X0275801Y0182476D01*
X0268501Y0182476D02*
X0268501Y0182476D01*
X0268501Y0175176D01*
X0265477Y0175176D01*
X0261201Y0179453D01*
X0261201Y0182476D01*
X0268501Y0182476D01*
X0268501Y0168854D01*
X0264564Y0164917D01*
X0268501Y0160980D01*
X0268501Y0142358D01*
X0273491Y0142358D02*
X0273491Y0142358D01*
X0276101Y0142397D02*
X0281051Y0142397D01*
X0282123Y0147395D02*
X0274212Y0147395D01*
X0268501Y0147395D02*
X0268501Y0147395D01*
X0262790Y0147395D02*
X0242178Y0147395D01*
X0237005Y0147395D02*
X0237005Y0147395D01*
X0237005Y0142358D02*
X0237005Y0157043D01*
X0244879Y0164917D01*
X0055902Y0164917D01*
X0040709Y0164917D01*
X0040709Y0164364D01*
X0040833Y0163265D01*
X0041079Y0162187D01*
X0041445Y0161143D01*
X0041924Y0160147D01*
X0042420Y0159358D01*
X0040280Y0157219D01*
X0040280Y0172616D01*
X0042420Y0170476D01*
X0041924Y0169688D01*
X0041445Y0168691D01*
X0041079Y0167647D01*
X0040833Y0166569D01*
X0040709Y0165470D01*
X0040709Y0164917D01*
X0055902Y0164917D01*
X0055902Y0164917D01*
X0049997Y0164917D01*
X0040154Y0155075D01*
X0040154Y0227161D01*
X0040154Y0263343D01*
X0083461Y0306650D01*
X0278343Y0306650D01*
X0433855Y0306650D01*
X0470351Y0270154D01*
X0470351Y0255469D01*
X0470351Y0263348D02*
X0470351Y0263348D01*
X0470351Y0263348D01*
X0470351Y0266768D01*
X0470351Y0263348D01*
X0467275Y0267360D02*
X0473427Y0267360D01*
X0487275Y0267360D02*
X0507064Y0267360D01*
X0507064Y0263695D02*
X0514916Y0255843D01*
X0526022Y0255843D01*
X0533875Y0263695D01*
X0533875Y0274801D01*
X0526022Y0282654D01*
X0514916Y0282654D01*
X0507064Y0274801D01*
X0507064Y0263695D01*
X0508398Y0262361D02*
X0490700Y0262361D01*
X0492599Y0257363D02*
X0513396Y0257363D01*
X0502596Y0247366D02*
X0575461Y0247366D01*
X0575461Y0252364D02*
X0497598Y0252364D01*
X0504879Y0242367D02*
X0575461Y0242367D01*
X0575461Y0237369D02*
X0504879Y0237369D01*
X0504879Y0232370D02*
X0575461Y0232370D01*
X0575461Y0227372D02*
X0504879Y0227372D01*
X0504879Y0222373D02*
X0575461Y0222373D01*
X0575461Y0217374D02*
X0504879Y0217374D01*
X0504879Y0212376D02*
X0575461Y0212376D01*
X0575461Y0207377D02*
X0504879Y0207377D01*
X0504879Y0202379D02*
X0575461Y0202379D01*
X0575461Y0197380D02*
X0504879Y0197380D01*
X0504879Y0192382D02*
X0575461Y0192382D01*
X0575461Y0187383D02*
X0504879Y0187383D01*
X0504879Y0182385D02*
X0575461Y0182385D01*
X0575461Y0177386D02*
X0504879Y0177386D01*
X0504879Y0172388D02*
X0575461Y0172388D01*
X0575461Y0167389D02*
X0504879Y0167389D01*
X0504879Y0162391D02*
X0575461Y0162391D01*
X0575461Y0157392D02*
X0504879Y0157392D01*
X0504879Y0152394D02*
X0575461Y0152394D01*
X0575461Y0147395D02*
X0504879Y0147395D01*
X0504879Y0142397D02*
X0575461Y0142397D01*
X0575461Y0137398D02*
X0504879Y0137398D01*
X0504879Y0132400D02*
X0575461Y0132400D01*
X0575461Y0127401D02*
X0504879Y0127401D01*
X0504879Y0122403D02*
X0575461Y0122403D01*
X0575461Y0117404D02*
X0504879Y0117404D01*
X0504879Y0112406D02*
X0575461Y0112406D01*
X0575461Y0107407D02*
X0504879Y0107407D01*
X0504272Y0102409D02*
X0575461Y0102409D01*
X0575461Y0097410D02*
X0500569Y0097410D01*
X0495570Y0092412D02*
X0575461Y0092412D01*
X0575461Y0087413D02*
X0490572Y0087413D01*
X0492142Y0082415D02*
X0575461Y0082415D01*
X0575461Y0077416D02*
X0492989Y0077416D01*
X0492989Y0072418D02*
X0575461Y0072418D01*
X0575461Y0067419D02*
X0492989Y0067419D01*
X0492989Y0062421D02*
X0575461Y0062421D01*
X0575461Y0057422D02*
X0492989Y0057422D01*
X0492989Y0052424D02*
X0575461Y0052424D01*
X0575461Y0047425D02*
X0493734Y0047425D01*
X0495730Y0042427D02*
X0559850Y0042427D01*
X0567702Y0042427D02*
X0575461Y0042427D01*
X0551739Y0037428D02*
X0495835Y0037428D01*
X0495835Y0032430D02*
X0548842Y0032430D01*
X0547977Y0027431D02*
X0495694Y0027431D01*
X0493656Y0022433D02*
X0548676Y0022433D01*
X0551126Y0017434D02*
X0487035Y0017434D01*
X0478943Y0017434D02*
X0439712Y0017434D01*
X0431620Y0017434D02*
X0408531Y0017434D01*
X0416138Y0019248D02*
X0420075Y0023185D01*
X0420075Y0034996D01*
X0420075Y0050189D01*
X0419522Y0050189D01*
X0418423Y0050065D01*
X0417345Y0049819D01*
X0416301Y0049454D01*
X0415305Y0048974D01*
X0414517Y0048478D01*
X0414485Y0048510D01*
X0414485Y0077838D01*
X0415995Y0076327D01*
X0420075Y0076327D01*
X0420075Y0086177D01*
X0420076Y0086177D01*
X0420076Y0076327D01*
X0424155Y0076327D01*
X0425666Y0077838D01*
X0425666Y0048510D01*
X0425634Y0048478D01*
X0424846Y0048974D01*
X0423849Y0049454D01*
X0422806Y0049819D01*
X0421727Y0050065D01*
X0420628Y0050189D01*
X0420076Y0050189D01*
X0420076Y0034996D01*
X0420075Y0034996D01*
X0420075Y0086177D01*
X0420075Y0096027D01*
X0415995Y0096027D01*
X0414323Y0094354D01*
X0409650Y0099027D01*
X0405620Y0099027D01*
X0400994Y0103653D01*
X0398181Y0106466D01*
X0394506Y0107988D01*
X0373310Y0107988D01*
X0374498Y0108480D01*
X0393219Y0108480D01*
X0396482Y0109832D01*
X0398709Y0112058D01*
X0400720Y0112058D01*
X0406753Y0118092D01*
X0406753Y0123480D01*
X0420406Y0123480D01*
X0421748Y0122138D01*
X0430214Y0122138D01*
X0436201Y0128125D01*
X0436201Y0136592D01*
X0433201Y0139592D01*
X0433201Y0142358D01*
X0430434Y0142358D01*
X0433201Y0142358D01*
X0433201Y0143555D01*
X0437635Y0139122D01*
X0437635Y0102130D01*
X0434531Y0099027D01*
X0430501Y0099027D01*
X0425828Y0094354D01*
X0424155Y0096027D01*
X0420076Y0096027D01*
X0420076Y0086177D01*
X0420075Y0086177D02*
X0420075Y0103894D01*
X0437792Y0121610D01*
X0437792Y0137358D01*
X0432792Y0142358D01*
X0425981Y0142358D01*
X0430434Y0142358D02*
X0430434Y0142358D01*
X0433201Y0142397D02*
X0434359Y0142397D01*
X0435394Y0137398D02*
X0437635Y0137398D01*
X0437635Y0132400D02*
X0436201Y0132400D01*
X0435477Y0127401D02*
X0437635Y0127401D01*
X0437635Y0122403D02*
X0430479Y0122403D01*
X0421483Y0122403D02*
X0406753Y0122403D01*
X0406066Y0117404D02*
X0437635Y0117404D01*
X0437635Y0112406D02*
X0401067Y0112406D01*
X0395908Y0107407D02*
X0437635Y0107407D01*
X0437635Y0102409D02*
X0402238Y0102409D01*
X0411267Y0097410D02*
X0428884Y0097410D01*
X0420076Y0092412D02*
X0420075Y0092412D01*
X0420075Y0087413D02*
X0420076Y0087413D01*
X0420076Y0086177D02*
X0420075Y0086177D01*
X0420075Y0082415D02*
X0420076Y0082415D01*
X0420075Y0077416D02*
X0420076Y0077416D01*
X0425244Y0077416D02*
X0425666Y0077416D01*
X0425666Y0072418D02*
X0414485Y0072418D01*
X0414485Y0077416D02*
X0414906Y0077416D01*
X0414485Y0067419D02*
X0425666Y0067419D01*
X0425666Y0062421D02*
X0414485Y0062421D01*
X0414485Y0057422D02*
X0425666Y0057422D01*
X0425666Y0052424D02*
X0414485Y0052424D01*
X0420075Y0047425D02*
X0420076Y0047425D01*
X0420075Y0042427D02*
X0420076Y0042427D01*
X0420075Y0037428D02*
X0420076Y0037428D01*
X0420075Y0032430D02*
X0420076Y0032430D01*
X0420075Y0027431D02*
X0420076Y0027431D01*
X0420075Y0022433D02*
X0420076Y0022433D01*
X0435666Y0034996D02*
X0435666Y0086020D01*
X0435823Y0086177D01*
X0447635Y0097988D01*
X0447635Y0143264D01*
X0433855Y0157043D01*
X0408264Y0157043D01*
X0396453Y0168854D01*
X0396453Y0192476D01*
X0408264Y0204287D01*
X0408264Y0212476D01*
X0408264Y0237752D01*
X0425981Y0255469D01*
X0460351Y0255469D01*
X0453427Y0267360D02*
X0435449Y0267360D01*
X0435449Y0272358D02*
X0507064Y0272358D01*
X0509620Y0277357D02*
X0432894Y0277357D01*
X0427895Y0282355D02*
X0514618Y0282355D01*
X0526320Y0282355D02*
X0575461Y0282355D01*
X0575461Y0287354D02*
X0567499Y0287354D01*
X0560053Y0287354D02*
X0290128Y0287354D01*
X0285129Y0292352D02*
X0551793Y0292352D01*
X0548856Y0297351D02*
X0280131Y0297351D01*
X0278343Y0306650D02*
X0299091Y0285902D01*
X0299091Y0255469D01*
X0299091Y0263348D02*
X0299091Y0263348D01*
X0299091Y0267360D02*
X0302167Y0267360D01*
X0299091Y0272358D02*
X0335804Y0272358D01*
X0338360Y0277357D02*
X0298627Y0277357D01*
X0295126Y0282355D02*
X0343358Y0282355D01*
X0355060Y0282355D02*
X0416193Y0282355D01*
X0411194Y0277357D02*
X0360059Y0277357D01*
X0362615Y0272358D02*
X0408638Y0272358D01*
X0408638Y0267360D02*
X0362615Y0267360D01*
X0349209Y0255469D02*
X0390548Y0255469D01*
X0408264Y0237752D01*
X0407794Y0252364D02*
X0408734Y0252364D01*
X0413733Y0257363D02*
X0402796Y0257363D01*
X0397797Y0262361D02*
X0409973Y0262361D01*
X0355115Y0233815D02*
X0333461Y0255469D01*
X0349209Y0255469D01*
X0333461Y0255469D02*
X0309091Y0255469D01*
X0313776Y0255469D01*
X0317713Y0251531D01*
X0335430Y0233815D01*
X0335430Y0202476D01*
X0325130Y0202379D02*
X0316798Y0202379D01*
X0316146Y0202002D02*
X0318709Y0203482D01*
X0320802Y0205575D01*
X0322282Y0208138D01*
X0322527Y0209054D01*
X0325430Y0211956D01*
X0325430Y0207043D01*
X0325130Y0206743D01*
X0325130Y0198210D01*
X0331163Y0192176D01*
X0339696Y0192176D01*
X0345730Y0198210D01*
X0345730Y0202295D01*
X0350848Y0197176D01*
X0359381Y0197176D01*
X0361768Y0199564D01*
X0363407Y0197924D01*
X0371940Y0197924D01*
X0373796Y0199780D01*
X0373796Y0197146D01*
X0372454Y0195804D01*
X0372454Y0187338D01*
X0375454Y0184338D01*
X0375454Y0181571D01*
X0378221Y0181571D01*
X0375454Y0181571D01*
X0375454Y0178580D01*
X0379683Y0174351D01*
X0382674Y0174351D01*
X0385664Y0174351D01*
X0386453Y0175140D01*
X0386453Y0166865D01*
X0387976Y0163190D01*
X0390347Y0160818D01*
X0386153Y0156625D01*
X0386153Y0148092D01*
X0387575Y0146670D01*
X0387575Y0135592D01*
X0388927Y0132329D01*
X0390393Y0130864D01*
X0386153Y0126625D01*
X0386153Y0126236D01*
X0385100Y0126236D01*
X0385100Y0126625D01*
X0379066Y0132658D01*
X0370533Y0132658D01*
X0365415Y0127540D01*
X0365415Y0131625D01*
X0359381Y0137658D01*
X0350848Y0137658D01*
X0346030Y0132840D01*
X0346030Y0136749D01*
X0342690Y0140089D01*
X0342900Y0140872D01*
X0343030Y0141860D01*
X0343030Y0142358D01*
X0340420Y0142358D01*
X0343030Y0142358D01*
X0343030Y0142856D01*
X0342900Y0143844D01*
X0342642Y0144806D01*
X0342261Y0145727D01*
X0341763Y0146590D01*
X0341156Y0147380D01*
X0340452Y0148084D01*
X0339661Y0148691D01*
X0338798Y0149189D01*
X0337878Y0149570D01*
X0336916Y0149828D01*
X0335928Y0149958D01*
X0335430Y0149958D01*
X0335430Y0142958D01*
X0335430Y0142958D01*
X0335430Y0149958D01*
X0334932Y0149958D01*
X0333944Y0149828D01*
X0332982Y0149570D01*
X0332061Y0149189D01*
X0331198Y0148691D01*
X0330408Y0148084D01*
X0329704Y0147380D01*
X0329097Y0146590D01*
X0328599Y0145727D01*
X0328218Y0144806D01*
X0327960Y0143844D01*
X0327830Y0142856D01*
X0327830Y0142358D01*
X0327830Y0141860D01*
X0327960Y0140872D01*
X0328170Y0140089D01*
X0324830Y0136749D01*
X0324830Y0131058D01*
X0321130Y0127358D01*
X0316967Y0127358D01*
X0316146Y0127832D01*
X0313288Y0128598D01*
X0310328Y0128598D01*
X0307469Y0127832D01*
X0306648Y0127358D01*
X0297282Y0127358D01*
X0296461Y0127832D01*
X0295128Y0128190D01*
X0300600Y0133662D01*
X0302123Y0137338D01*
X0302123Y0152199D01*
X0302597Y0153020D01*
X0303363Y0155878D01*
X0303363Y0158838D01*
X0302597Y0161697D01*
X0301117Y0164260D01*
X0300459Y0164917D01*
X0301117Y0165575D01*
X0302597Y0168138D01*
X0303363Y0170997D01*
X0303363Y0173956D01*
X0302597Y0176815D01*
X0302123Y0177636D01*
X0302123Y0188649D01*
X0315230Y0201757D01*
X0316146Y0202002D01*
X0321843Y0207377D02*
X0325430Y0207377D01*
X0325959Y0197380D02*
X0310854Y0197380D01*
X0305855Y0192382D02*
X0330958Y0192382D01*
X0332406Y0189776D02*
X0328130Y0185500D01*
X0328130Y0182476D01*
X0328130Y0179453D01*
X0332406Y0175176D01*
X0335430Y0175176D01*
X0338454Y0175176D01*
X0342730Y0179453D01*
X0342730Y0182476D01*
X0335430Y0182476D01*
X0335430Y0175176D01*
X0335430Y0182476D01*
X0335430Y0182476D01*
X0335430Y0182476D01*
X0342730Y0182476D01*
X0342730Y0185500D01*
X0338454Y0189776D01*
X0335430Y0189776D01*
X0335430Y0182477D01*
X0335430Y0182477D01*
X0335430Y0189776D01*
X0332406Y0189776D01*
X0330013Y0187383D02*
X0302123Y0187383D01*
X0302123Y0182385D02*
X0328130Y0182385D01*
X0328130Y0182476D02*
X0335430Y0182476D01*
X0325430Y0172476D01*
X0350115Y0172476D01*
X0373579Y0172476D01*
X0382674Y0181571D01*
X0382674Y0181351D02*
X0382674Y0174351D01*
X0382674Y0181351D01*
X0382674Y0181351D01*
X0382674Y0177386D02*
X0382674Y0177386D01*
X0376648Y0177386D02*
X0362415Y0177386D01*
X0362415Y0177476D02*
X0355115Y0177476D01*
X0355115Y0170176D01*
X0358139Y0170176D01*
X0362415Y0174453D01*
X0362415Y0177476D01*
X0362415Y0180500D01*
X0358139Y0184776D01*
X0355115Y0184776D01*
X0355115Y0177477D01*
X0355115Y0177477D01*
X0355115Y0184776D01*
X0352091Y0184776D01*
X0347815Y0180500D01*
X0347815Y0177476D01*
X0347815Y0174453D01*
X0352091Y0170176D01*
X0355115Y0170176D01*
X0355115Y0177476D01*
X0355115Y0177476D01*
X0355115Y0177476D01*
X0350115Y0172476D01*
X0349880Y0172388D02*
X0320048Y0172388D01*
X0320048Y0172476D02*
X0311808Y0172476D01*
X0311808Y0157358D01*
X0311808Y0157358D01*
X0320048Y0157358D01*
X0320048Y0156818D01*
X0319907Y0155747D01*
X0319627Y0154704D01*
X0319214Y0153706D01*
X0318674Y0152771D01*
X0318016Y0151914D01*
X0317252Y0151150D01*
X0316395Y0150492D01*
X0315460Y0149952D01*
X0314462Y0149539D01*
X0313419Y0149259D01*
X0312348Y0149118D01*
X0311808Y0149118D01*
X0311808Y0157358D01*
X0311808Y0157358D01*
X0320048Y0157358D01*
X0320048Y0157898D01*
X0319907Y0158969D01*
X0319627Y0160013D01*
X0319214Y0161011D01*
X0318674Y0161946D01*
X0318016Y0162803D01*
X0317252Y0163567D01*
X0316395Y0164224D01*
X0315460Y0164764D01*
X0315091Y0164917D01*
X0315460Y0165070D01*
X0316395Y0165610D01*
X0317252Y0166268D01*
X0318016Y0167032D01*
X0318674Y0167889D01*
X0319214Y0168824D01*
X0319627Y0169822D01*
X0319907Y0170865D01*
X0320048Y0171936D01*
X0320048Y0172476D01*
X0320048Y0173016D01*
X0319907Y0174087D01*
X0319627Y0175131D01*
X0319214Y0176129D01*
X0318674Y0177064D01*
X0318016Y0177921D01*
X0317252Y0178685D01*
X0316395Y0179342D01*
X0315460Y0179882D01*
X0314462Y0180296D01*
X0313419Y0180575D01*
X0312348Y0180716D01*
X0311808Y0180716D01*
X0311808Y0172477D01*
X0311808Y0172477D01*
X0311808Y0172476D02*
X0320048Y0172476D01*
X0318291Y0167389D02*
X0386453Y0167389D01*
X0386453Y0172388D02*
X0360350Y0172388D01*
X0355115Y0172388D02*
X0355115Y0172388D01*
X0355115Y0177386D02*
X0355115Y0177386D01*
X0355115Y0177476D02*
X0347815Y0177476D01*
X0355115Y0177476D01*
X0355115Y0177476D01*
X0362415Y0177476D01*
X0360530Y0182385D02*
X0375454Y0182385D01*
X0378221Y0181571D02*
X0378221Y0181571D01*
X0372454Y0187383D02*
X0340846Y0187383D01*
X0339902Y0192382D02*
X0372454Y0192382D01*
X0373796Y0197380D02*
X0359585Y0197380D01*
X0350644Y0197380D02*
X0344900Y0197380D01*
X0335430Y0187383D02*
X0335430Y0187383D01*
X0335430Y0182476D02*
X0328130Y0182476D01*
X0330196Y0177386D02*
X0318426Y0177386D01*
X0311808Y0177386D02*
X0311808Y0177386D01*
X0311808Y0180716D02*
X0311268Y0180716D01*
X0310197Y0180575D01*
X0309153Y0180296D01*
X0308155Y0179882D01*
X0307220Y0179342D01*
X0306363Y0178685D01*
X0305599Y0177921D01*
X0304942Y0177064D01*
X0304402Y0176129D01*
X0303988Y0175131D01*
X0303709Y0174087D01*
X0303568Y0173016D01*
X0303568Y0172476D01*
X0303568Y0171936D01*
X0303709Y0170865D01*
X0303988Y0169822D01*
X0304402Y0168824D01*
X0304942Y0167889D01*
X0305599Y0167032D01*
X0306363Y0166268D01*
X0307220Y0165610D01*
X0308155Y0165070D01*
X0308525Y0164917D01*
X0308155Y0164764D01*
X0307220Y0164224D01*
X0306363Y0163567D01*
X0305599Y0162803D01*
X0304942Y0161946D01*
X0304402Y0161011D01*
X0303988Y0160013D01*
X0303709Y0158969D01*
X0303568Y0157898D01*
X0303568Y0157358D01*
X0303568Y0156818D01*
X0303709Y0155747D01*
X0303988Y0154704D01*
X0304402Y0153706D01*
X0304942Y0152771D01*
X0305599Y0151914D01*
X0306363Y0151150D01*
X0307220Y0150492D01*
X0308155Y0149952D01*
X0309153Y0149539D01*
X0310197Y0149259D01*
X0311268Y0149118D01*
X0311808Y0149118D01*
X0311808Y0157358D01*
X0312123Y0157043D01*
X0327556Y0157043D01*
X0345430Y0157043D01*
X0370115Y0157043D01*
X0374800Y0152358D01*
X0374800Y0145058D01*
X0377824Y0145058D01*
X0382100Y0149335D01*
X0382100Y0152358D01*
X0374800Y0152358D01*
X0374800Y0152358D01*
X0374800Y0152358D01*
X0374800Y0145058D01*
X0371776Y0145058D01*
X0367500Y0149335D01*
X0367500Y0152358D01*
X0374800Y0152358D01*
X0382100Y0152358D01*
X0382100Y0155382D01*
X0377824Y0159658D01*
X0374800Y0159658D01*
X0374800Y0152358D01*
X0374800Y0152358D01*
X0374800Y0152358D01*
X0367500Y0152358D01*
X0367500Y0155382D01*
X0371776Y0159658D01*
X0374800Y0159658D01*
X0374800Y0152358D01*
X0374800Y0152394D02*
X0374800Y0152394D01*
X0374800Y0157392D02*
X0374800Y0157392D01*
X0380090Y0157392D02*
X0386921Y0157392D01*
X0386153Y0152394D02*
X0382100Y0152394D01*
X0380161Y0147395D02*
X0386850Y0147395D01*
X0387575Y0142397D02*
X0360477Y0142397D01*
X0362415Y0144335D02*
X0362415Y0147358D01*
X0355115Y0147358D01*
X0355115Y0140058D01*
X0358139Y0140058D01*
X0362415Y0144335D01*
X0362415Y0147358D02*
X0355115Y0147358D01*
X0355115Y0147358D01*
X0355115Y0147358D01*
X0355115Y0140058D01*
X0352091Y0140058D01*
X0347815Y0144335D01*
X0347815Y0147358D01*
X0355115Y0147358D01*
X0345430Y0157043D01*
X0349827Y0152394D02*
X0318385Y0152394D01*
X0320048Y0157392D02*
X0369510Y0157392D01*
X0367500Y0152394D02*
X0360403Y0152394D01*
X0362415Y0150382D02*
X0358139Y0154658D01*
X0355115Y0154658D01*
X0355115Y0147358D01*
X0355115Y0147358D01*
X0355115Y0147358D01*
X0347815Y0147358D01*
X0347815Y0150382D01*
X0352091Y0154658D01*
X0355115Y0154658D01*
X0355115Y0147358D01*
X0355115Y0147395D02*
X0355115Y0147395D01*
X0355115Y0142397D02*
X0355115Y0142397D01*
X0349753Y0142397D02*
X0343030Y0142397D01*
X0340420Y0142358D02*
X0340420Y0142358D01*
X0335430Y0142358D02*
X0335430Y0149169D01*
X0327556Y0157043D01*
X0318332Y0162391D02*
X0388775Y0162391D01*
X0408264Y0172476D02*
X0408264Y0190823D01*
X0429918Y0212476D01*
X0449603Y0212476D01*
X0445209Y0202379D02*
X0434909Y0202379D01*
X0428964Y0197380D02*
X0446038Y0197380D01*
X0451037Y0192382D02*
X0423966Y0192382D01*
X0418967Y0187383D02*
X0450092Y0187383D01*
X0455508Y0187383D02*
X0455509Y0187383D01*
X0455508Y0182385D02*
X0455509Y0182385D01*
X0455508Y0177386D02*
X0455509Y0177386D01*
X0450275Y0177386D02*
X0436537Y0177386D01*
X0429918Y0177386D02*
X0429918Y0177386D01*
X0423299Y0177386D02*
X0418408Y0177386D01*
X0418264Y0182385D02*
X0448209Y0182385D01*
X0438158Y0172476D02*
X0429918Y0172476D01*
X0429918Y0172477D02*
X0429918Y0172477D01*
X0421678Y0172388D02*
X0419504Y0172388D01*
X0418306Y0167389D02*
X0423435Y0167389D01*
X0436401Y0167389D02*
X0468284Y0167389D01*
X0468284Y0162391D02*
X0442650Y0162391D01*
X0447648Y0157392D02*
X0467830Y0157392D01*
X0460933Y0152394D02*
X0452647Y0152394D01*
X0477945Y0142397D02*
X0484879Y0142397D01*
X0484879Y0147395D02*
X0482943Y0147395D01*
X0484879Y0137398D02*
X0474844Y0137398D01*
X0472571Y0132400D02*
X0484879Y0132400D01*
X0484879Y0127401D02*
X0470605Y0127401D01*
X0465351Y0127401D02*
X0465351Y0127401D01*
X0465351Y0132358D02*
X0460509Y0132358D01*
X0455509Y0137358D01*
X0457634Y0132400D02*
X0458131Y0132400D01*
X0458131Y0132358D02*
X0460898Y0132358D01*
X0458131Y0132358D01*
X0460898Y0132358D02*
X0460898Y0132358D01*
X0460097Y0127401D02*
X0457634Y0127401D01*
X0457634Y0122403D02*
X0484879Y0122403D01*
X0484879Y0117404D02*
X0457634Y0117404D01*
X0457634Y0112406D02*
X0484879Y0112406D01*
X0482281Y0107407D02*
X0457634Y0107407D01*
X0457634Y0102409D02*
X0477283Y0102409D01*
X0468254Y0097410D02*
X0457634Y0097410D01*
X0456149Y0092412D02*
X0463255Y0092412D01*
X0462344Y0087413D02*
X0451202Y0087413D01*
X0448673Y0082415D02*
X0462344Y0082415D01*
X0465782Y0077416D02*
X0445666Y0077416D01*
X0445666Y0072418D02*
X0472989Y0072418D01*
X0472989Y0067419D02*
X0445666Y0067419D01*
X0445666Y0062421D02*
X0472989Y0062421D01*
X0472989Y0057422D02*
X0445666Y0057422D01*
X0445666Y0052424D02*
X0472989Y0052424D01*
X0467398Y0047425D02*
X0467398Y0047425D01*
X0467398Y0042427D02*
X0467398Y0042427D01*
X0467398Y0037428D02*
X0467398Y0037428D01*
X0467398Y0032430D02*
X0467398Y0032430D01*
X0467398Y0027431D02*
X0467398Y0027431D01*
X0467398Y0022433D02*
X0467398Y0022433D01*
X0460690Y0022433D02*
X0446333Y0022433D01*
X0448371Y0027431D02*
X0457805Y0027431D01*
X0457552Y0032430D02*
X0448512Y0032430D01*
X0448512Y0037428D02*
X0457552Y0037428D01*
X0457774Y0042427D02*
X0448407Y0042427D01*
X0446411Y0047425D02*
X0460556Y0047425D01*
X0404485Y0034996D02*
X0404485Y0086020D01*
X0404327Y0086177D01*
X0392516Y0097988D01*
X0307871Y0097988D01*
X0292871Y0082988D01*
X0292871Y0100705D01*
X0309524Y0117358D01*
X0311808Y0117358D01*
X0292123Y0117358D01*
X0297208Y0127401D02*
X0306723Y0127401D01*
X0299338Y0132400D02*
X0324830Y0132400D01*
X0325479Y0137398D02*
X0302123Y0137398D01*
X0302123Y0142397D02*
X0327830Y0142397D01*
X0327830Y0142358D02*
X0330439Y0142358D01*
X0327830Y0142358D01*
X0330439Y0142358D02*
X0330439Y0142358D01*
X0329719Y0147395D02*
X0302123Y0147395D01*
X0302235Y0152394D02*
X0305231Y0152394D01*
X0303568Y0157358D02*
X0311808Y0157358D01*
X0304249Y0164917D01*
X0311808Y0172476D01*
X0311808Y0172476D01*
X0311808Y0172476D01*
X0311808Y0165598D01*
X0311808Y0157358D01*
X0311808Y0157358D01*
X0311808Y0157358D01*
X0303568Y0157358D01*
X0303568Y0157392D02*
X0303363Y0157392D01*
X0311808Y0157392D02*
X0311808Y0157392D01*
X0311808Y0152394D02*
X0311808Y0152394D01*
X0311808Y0162391D02*
X0311808Y0162391D01*
X0311808Y0167389D02*
X0311808Y0167389D01*
X0311808Y0172388D02*
X0311808Y0172388D01*
X0311808Y0172476D02*
X0303568Y0172476D01*
X0311808Y0172476D01*
X0325430Y0172476D01*
X0335430Y0177386D02*
X0335430Y0177386D01*
X0335430Y0182385D02*
X0335430Y0182385D01*
X0335430Y0182476D02*
X0335430Y0182476D01*
X0340664Y0177386D02*
X0347815Y0177386D01*
X0349700Y0182385D02*
X0342730Y0182385D01*
X0355115Y0182385D02*
X0355115Y0182385D01*
X0355115Y0207476D02*
X0355115Y0233815D01*
X0317713Y0218382D02*
X0311808Y0212476D01*
X0292123Y0192791D01*
X0292123Y0172476D01*
X0303363Y0172388D02*
X0303568Y0172388D01*
X0302165Y0167389D02*
X0305325Y0167389D01*
X0305283Y0162391D02*
X0302196Y0162391D01*
X0292123Y0157358D02*
X0292123Y0139327D01*
X0268501Y0115705D01*
X0268501Y0090114D01*
X0254721Y0076335D01*
X0211414Y0076335D01*
X0203264Y0084484D01*
X0203264Y0086177D01*
X0192364Y0087413D02*
X0150548Y0087413D01*
X0150548Y0082415D02*
X0192364Y0082415D01*
X0196190Y0077416D02*
X0150548Y0077416D01*
X0150548Y0072418D02*
X0201189Y0072418D01*
X0206807Y0067419D02*
X0150548Y0067419D01*
X0149799Y0062421D02*
X0239347Y0062421D01*
X0239347Y0057422D02*
X0145896Y0057422D01*
X0140897Y0052424D02*
X0241957Y0052424D01*
X0252753Y0038933D02*
X0268501Y0054681D01*
X0268501Y0090114D01*
X0256656Y0092412D02*
X0212445Y0092412D01*
X0212142Y0097410D02*
X0258501Y0097410D01*
X0258501Y0102409D02*
X0212142Y0102409D01*
X0212142Y0107407D02*
X0258501Y0107407D01*
X0258501Y0112406D02*
X0212142Y0112406D01*
X0212142Y0117404D02*
X0258501Y0117404D01*
X0258501Y0122403D02*
X0241502Y0122403D01*
X0232507Y0122403D02*
X0212142Y0122403D01*
X0212142Y0127401D02*
X0217910Y0127401D01*
X0228025Y0142397D02*
X0229785Y0142397D01*
X0231831Y0147395D02*
X0225038Y0147395D01*
X0208934Y0152394D02*
X0282010Y0152394D01*
X0280883Y0157392D02*
X0203935Y0157392D01*
X0212305Y0178239D02*
X0220838Y0178239D01*
X0226872Y0184273D01*
X0226872Y0186284D01*
X0229186Y0188598D01*
X0229785Y0188598D01*
X0229785Y0187476D01*
X0229785Y0184486D01*
X0234014Y0180256D01*
X0237005Y0180256D01*
X0239995Y0180256D01*
X0244225Y0184486D01*
X0244225Y0187476D01*
X0241458Y0187476D01*
X0241458Y0187476D01*
X0244225Y0187476D01*
X0244225Y0190243D01*
X0247225Y0193243D01*
X0247225Y0201710D01*
X0241238Y0207696D01*
X0232771Y0207696D01*
X0231429Y0206354D01*
X0223743Y0206354D01*
X0220480Y0205003D01*
X0214316Y0198839D01*
X0212305Y0198839D01*
X0206272Y0192806D01*
X0206272Y0184273D01*
X0212305Y0178239D01*
X0208160Y0182385D02*
X0194983Y0182385D01*
X0196872Y0187383D02*
X0206272Y0187383D01*
X0206272Y0192382D02*
X0196872Y0192382D01*
X0192297Y0197380D02*
X0210846Y0197380D01*
X0217856Y0202379D02*
X0174623Y0202379D01*
X0179540Y0207377D02*
X0232452Y0207377D01*
X0241557Y0207377D02*
X0258501Y0207377D01*
X0258201Y0202379D02*
X0246555Y0202379D01*
X0247225Y0197380D02*
X0259030Y0197380D01*
X0264029Y0192382D02*
X0246363Y0192382D01*
X0244225Y0187383D02*
X0263084Y0187383D01*
X0261201Y0185500D02*
X0265477Y0189776D01*
X0268501Y0189776D01*
X0268501Y0182477D01*
X0268501Y0182476D02*
X0268501Y0182476D01*
X0261201Y0182476D01*
X0261201Y0185500D01*
X0261201Y0182385D02*
X0242124Y0182385D01*
X0237005Y0182385D02*
X0237005Y0182385D01*
X0237005Y0180256D02*
X0237005Y0187256D01*
X0237005Y0187256D01*
X0237005Y0180256D01*
X0231885Y0182385D02*
X0224983Y0182385D01*
X0227971Y0187383D02*
X0229785Y0187383D01*
X0229785Y0187476D02*
X0232551Y0187476D01*
X0232551Y0187476D01*
X0229785Y0187476D01*
X0237005Y0187476D02*
X0237005Y0172791D01*
X0244879Y0164917D01*
X0263267Y0177386D02*
X0174915Y0177386D01*
X0166574Y0177386D02*
X0164915Y0177386D01*
X0156574Y0177386D02*
X0124668Y0177386D01*
X0122529Y0182385D02*
X0134435Y0182385D01*
X0129437Y0187383D02*
X0122491Y0187383D01*
X0124650Y0192382D02*
X0127698Y0192382D01*
X0127698Y0197380D02*
X0124670Y0197380D01*
X0122532Y0202379D02*
X0130309Y0202379D01*
X0130548Y0207377D02*
X0117083Y0207377D01*
X0117083Y0212376D02*
X0130404Y0212376D01*
X0125405Y0217374D02*
X0117083Y0217374D01*
X0117083Y0222373D02*
X0120407Y0222373D01*
X0107083Y0223224D02*
X0086650Y0243657D01*
X0113264Y0243657D01*
X0140548Y0216374D01*
X0140548Y0263618D01*
X0113264Y0290902D01*
X0106396Y0282355D02*
X0040280Y0282355D01*
X0040280Y0287354D02*
X0048242Y0287354D01*
X0055688Y0287354D02*
X0102364Y0287354D01*
X0102364Y0292352D02*
X0063948Y0292352D01*
X0066885Y0297351D02*
X0104299Y0297351D01*
X0122230Y0297351D02*
X0194299Y0297351D01*
X0192364Y0292352D02*
X0125956Y0292352D01*
X0130954Y0287354D02*
X0192364Y0287354D01*
X0196396Y0282355D02*
X0135953Y0282355D01*
X0140952Y0277357D02*
X0239934Y0277357D01*
X0237379Y0272358D02*
X0145950Y0272358D01*
X0149822Y0267360D02*
X0237379Y0267360D01*
X0238713Y0262361D02*
X0150548Y0262361D01*
X0150548Y0257363D02*
X0243711Y0257363D01*
X0255896Y0252364D02*
X0278191Y0252364D01*
X0278191Y0257363D02*
X0257857Y0257363D01*
X0262855Y0262361D02*
X0278743Y0262361D01*
X0279091Y0267360D02*
X0264190Y0267360D01*
X0264190Y0272358D02*
X0276839Y0272358D01*
X0271840Y0277357D02*
X0261634Y0277357D01*
X0272438Y0290902D02*
X0289091Y0274248D01*
X0289091Y0255469D01*
X0289091Y0244563D01*
X0280312Y0235783D01*
X0280312Y0224287D01*
X0292123Y0212476D01*
X0282088Y0207377D02*
X0278501Y0207377D01*
X0278801Y0202379D02*
X0287132Y0202379D01*
X0283200Y0197380D02*
X0277971Y0197380D01*
X0282123Y0192382D02*
X0272973Y0192382D01*
X0273917Y0187383D02*
X0282123Y0187383D01*
X0268501Y0187383D02*
X0268501Y0187383D01*
X0268501Y0182385D02*
X0268501Y0182385D01*
X0268501Y0177386D02*
X0268501Y0177386D01*
X0302267Y0177386D02*
X0305189Y0177386D01*
X0311808Y0180716D02*
X0311808Y0172477D01*
X0311808Y0172476D02*
X0311808Y0172476D01*
X0335430Y0147395D02*
X0335430Y0147395D01*
X0341141Y0147395D02*
X0347815Y0147395D01*
X0355115Y0152394D02*
X0355115Y0152394D01*
X0362415Y0150382D02*
X0362415Y0147358D01*
X0362415Y0147395D02*
X0369439Y0147395D01*
X0374800Y0147395D02*
X0374800Y0147395D01*
X0387575Y0137398D02*
X0359641Y0137398D01*
X0364640Y0132400D02*
X0370275Y0132400D01*
X0379325Y0132400D02*
X0388898Y0132400D01*
X0386930Y0127401D02*
X0384323Y0127401D01*
X0374800Y0122358D02*
X0369800Y0117358D01*
X0345115Y0117358D01*
X0325272Y0117358D01*
X0311808Y0117358D01*
X0316893Y0127401D02*
X0321173Y0127401D01*
X0325272Y0117358D02*
X0335430Y0127516D01*
X0335430Y0132358D01*
X0345380Y0137398D02*
X0350588Y0137398D01*
X0355115Y0127358D02*
X0345115Y0117358D01*
X0311438Y0087413D02*
X0388949Y0087413D01*
X0391477Y0082415D02*
X0319262Y0082415D01*
X0320771Y0077416D02*
X0394485Y0077416D01*
X0394485Y0072418D02*
X0358305Y0072418D01*
X0356731Y0073992D02*
X0345625Y0073992D01*
X0337772Y0066139D01*
X0337772Y0055034D01*
X0345625Y0047181D01*
X0356731Y0047181D01*
X0364583Y0055034D01*
X0364583Y0066139D01*
X0356731Y0073992D01*
X0363304Y0067419D02*
X0394485Y0067419D01*
X0394485Y0062421D02*
X0364583Y0062421D01*
X0364583Y0057422D02*
X0394485Y0057422D01*
X0394485Y0052424D02*
X0361973Y0052424D01*
X0356975Y0047425D02*
X0393740Y0047425D01*
X0391744Y0042427D02*
X0309758Y0042427D01*
X0312871Y0043933D02*
X0288186Y0019248D01*
X0299761Y0032430D02*
X0391638Y0032430D01*
X0391638Y0037428D02*
X0304760Y0037428D01*
X0312871Y0043933D02*
X0312871Y0074366D01*
X0302871Y0074366D02*
X0302871Y0049681D01*
X0292123Y0038933D01*
X0252753Y0038933D01*
X0203264Y0038933D01*
X0196342Y0047425D02*
X0135899Y0047425D01*
X0130900Y0042427D02*
X0192364Y0042427D01*
X0192364Y0037428D02*
X0125902Y0037428D01*
X0122176Y0032430D02*
X0194353Y0032430D01*
X0130548Y0077416D02*
X0119918Y0077416D01*
X0124164Y0082415D02*
X0130548Y0082415D01*
X0130548Y0087413D02*
X0128643Y0087413D01*
X0113264Y0086177D02*
X0113264Y0085862D01*
X0086965Y0085862D01*
X0086650Y0086177D01*
X0107083Y0106610D01*
X0107083Y0134917D01*
X0091666Y0127401D02*
X0040280Y0127401D01*
X0040280Y0132400D02*
X0089512Y0132400D01*
X0089502Y0137398D02*
X0066281Y0137398D01*
X0055902Y0149327D02*
X0101493Y0149327D01*
X0107083Y0154917D01*
X0094044Y0164917D02*
X0091811Y0162685D01*
X0090145Y0159800D01*
X0090019Y0159327D01*
X0069416Y0159327D01*
X0069385Y0159358D01*
X0069880Y0160147D01*
X0070360Y0161143D01*
X0070725Y0162187D01*
X0070971Y0163265D01*
X0071095Y0164364D01*
X0071095Y0164917D01*
X0055902Y0164917D01*
X0055902Y0164917D01*
X0071095Y0164917D01*
X0071095Y0165470D01*
X0070971Y0166569D01*
X0070725Y0167647D01*
X0070360Y0168691D01*
X0069880Y0169688D01*
X0069385Y0170476D01*
X0069416Y0170508D01*
X0090019Y0170508D01*
X0090145Y0170035D01*
X0091811Y0167150D01*
X0094044Y0164917D01*
X0091673Y0167389D02*
X0070784Y0167389D01*
X0070772Y0162391D02*
X0091641Y0162391D01*
X0107083Y0174917D02*
X0101493Y0180508D01*
X0055902Y0180508D01*
X0045429Y0192382D02*
X0040280Y0192382D01*
X0040280Y0197380D02*
X0089497Y0197380D01*
X0089516Y0192382D02*
X0066375Y0192382D01*
X0091634Y0202379D02*
X0040280Y0202379D01*
X0040280Y0207377D02*
X0097083Y0207377D01*
X0097083Y0212376D02*
X0040280Y0212376D01*
X0040280Y0217374D02*
X0097083Y0217374D01*
X0093793Y0222373D02*
X0040280Y0222373D01*
X0040154Y0227161D02*
X0056650Y0243657D01*
X0056650Y0243657D01*
X0056650Y0232957D01*
X0052218Y0232957D01*
X0045950Y0239225D01*
X0045950Y0243657D01*
X0056650Y0243657D01*
X0056650Y0243658D01*
X0056650Y0254357D01*
X0052218Y0254357D01*
X0045950Y0248090D01*
X0045950Y0243658D01*
X0056650Y0243658D01*
X0056650Y0243658D01*
X0056650Y0254357D01*
X0061082Y0254357D01*
X0067350Y0248090D01*
X0067350Y0243658D01*
X0056650Y0243658D01*
X0056650Y0243657D01*
X0056650Y0232957D01*
X0061082Y0232957D01*
X0067350Y0239225D01*
X0067350Y0243657D01*
X0056650Y0243657D01*
X0056650Y0242367D02*
X0056650Y0242367D01*
X0056650Y0237369D02*
X0056650Y0237369D01*
X0047807Y0237369D02*
X0040280Y0237369D01*
X0040280Y0242367D02*
X0045950Y0242367D01*
X0045950Y0247366D02*
X0040280Y0247366D01*
X0040280Y0252364D02*
X0050225Y0252364D01*
X0056650Y0252364D02*
X0056650Y0252364D01*
X0056650Y0247366D02*
X0056650Y0247366D01*
X0063076Y0252364D02*
X0075982Y0252364D01*
X0073461Y0247366D02*
X0067350Y0247366D01*
X0067350Y0242367D02*
X0072950Y0242367D01*
X0074462Y0237369D02*
X0065493Y0237369D01*
X0078801Y0232370D02*
X0040280Y0232370D01*
X0040280Y0227372D02*
X0088794Y0227372D01*
X0107083Y0223224D02*
X0107083Y0194917D01*
X0140548Y0194445D02*
X0140548Y0216374D01*
X0150548Y0217374D02*
X0164426Y0217374D01*
X0159428Y0212376D02*
X0150548Y0212376D01*
X0150548Y0207377D02*
X0156867Y0207377D01*
X0156867Y0202379D02*
X0150786Y0202379D01*
X0153398Y0197380D02*
X0155745Y0197380D01*
X0184538Y0212376D02*
X0258501Y0212376D01*
X0258501Y0217374D02*
X0189537Y0217374D01*
X0194535Y0222373D02*
X0257926Y0222373D01*
X0252928Y0227372D02*
X0199534Y0227372D01*
X0204532Y0232370D02*
X0247929Y0232370D01*
X0250784Y0243657D02*
X0269485Y0224957D01*
X0268501Y0223972D01*
X0268501Y0202476D01*
X0269485Y0224957D02*
X0280312Y0235783D01*
X0272753Y0242367D02*
X0266217Y0242367D01*
X0261218Y0247366D02*
X0277752Y0247366D01*
X0250784Y0243657D02*
X0203264Y0243657D01*
X0196556Y0252364D02*
X0150548Y0252364D01*
X0150548Y0247366D02*
X0192364Y0247366D01*
X0189419Y0242367D02*
X0150548Y0242367D01*
X0150548Y0237369D02*
X0184420Y0237369D01*
X0179422Y0232370D02*
X0150548Y0232370D01*
X0150548Y0227372D02*
X0174423Y0227372D01*
X0169425Y0222373D02*
X0150548Y0222373D01*
X0130548Y0242367D02*
X0128697Y0242367D01*
X0130548Y0247366D02*
X0124164Y0247366D01*
X0119973Y0252364D02*
X0130548Y0252364D01*
X0130548Y0257363D02*
X0040280Y0257363D01*
X0040280Y0262361D02*
X0127663Y0262361D01*
X0122664Y0267360D02*
X0040280Y0267360D01*
X0040280Y0272358D02*
X0117666Y0272358D01*
X0112667Y0277357D02*
X0040280Y0277357D01*
X0067764Y0302349D02*
X0547977Y0302349D01*
X0548662Y0307348D02*
X0067080Y0307348D01*
X0064647Y0312346D02*
X0551095Y0312346D01*
X0531319Y0277357D02*
X0575461Y0277357D01*
X0575461Y0272358D02*
X0533875Y0272358D01*
X0533875Y0267360D02*
X0575461Y0267360D01*
X0575461Y0262361D02*
X0532540Y0262361D01*
X0527542Y0257363D02*
X0575461Y0257363D01*
X0484879Y0187383D02*
X0481821Y0187383D01*
X0335804Y0267360D02*
X0316015Y0267360D01*
X0317713Y0251531D02*
X0317713Y0218382D01*
X0272438Y0290902D02*
X0203264Y0290902D01*
X0040508Y0172388D02*
X0040280Y0172388D01*
X0040280Y0167389D02*
X0041020Y0167389D01*
X0041033Y0162391D02*
X0040280Y0162391D01*
X0040280Y0157392D02*
X0040454Y0157392D01*
X0040154Y0155075D02*
X0040154Y0102673D01*
X0040280Y0102409D02*
X0088740Y0102409D01*
X0093738Y0107407D02*
X0040280Y0107407D01*
X0040280Y0112406D02*
X0097083Y0112406D01*
X0097083Y0117404D02*
X0040280Y0117404D01*
X0040280Y0122403D02*
X0097083Y0122403D01*
X0117083Y0122403D02*
X0130548Y0122403D01*
X0130349Y0117404D02*
X0117083Y0117404D01*
X0117083Y0112406D02*
X0125351Y0112406D01*
X0120352Y0107407D02*
X0117083Y0107407D01*
X0113264Y0086177D02*
X0140548Y0113461D01*
X0150548Y0112406D02*
X0194386Y0112406D01*
X0194386Y0107407D02*
X0150548Y0107407D01*
X0150548Y0102409D02*
X0194386Y0102409D01*
X0194386Y0097410D02*
X0150548Y0097410D01*
X0150548Y0092412D02*
X0194084Y0092412D01*
X0214478Y0087413D02*
X0251658Y0087413D01*
X0292871Y0082988D02*
X0292871Y0074366D01*
X0312871Y0066487D02*
X0312871Y0066487D01*
X0312871Y0062421D02*
X0337772Y0062421D01*
X0337772Y0057422D02*
X0312871Y0057422D01*
X0312871Y0052424D02*
X0340383Y0052424D01*
X0345381Y0047425D02*
X0312760Y0047425D01*
X0319945Y0067419D02*
X0339052Y0067419D01*
X0344051Y0072418D02*
X0320771Y0072418D01*
X0312871Y0082246D02*
X0312871Y0082246D01*
X0312871Y0082415D02*
X0312871Y0082415D01*
X0268501Y0115705D02*
X0268501Y0132358D01*
X0257901Y0132400D02*
X0247225Y0132400D01*
X0246501Y0127401D02*
X0258467Y0127401D01*
X0258550Y0137398D02*
X0246418Y0137398D01*
X0244225Y0142397D02*
X0260901Y0142397D01*
X0194386Y0132400D02*
X0192242Y0132400D01*
X0194386Y0127401D02*
X0150732Y0127401D01*
X0150548Y0122403D02*
X0194386Y0122403D01*
X0194386Y0117404D02*
X0150548Y0117404D01*
X0177172Y0132400D02*
X0180901Y0132400D01*
X0078509Y0097410D02*
X0040280Y0097410D01*
X0040280Y0092412D02*
X0047936Y0092412D01*
X0056650Y0092412D02*
X0056650Y0092412D01*
X0065364Y0092412D02*
X0073510Y0092412D01*
X0072950Y0087413D02*
X0067279Y0087413D01*
X0066670Y0082415D02*
X0072950Y0082415D01*
X0076037Y0077416D02*
X0062819Y0077416D01*
X0046631Y0082415D02*
X0040280Y0082415D01*
X0040280Y0087413D02*
X0046022Y0087413D01*
X0045524Y0137398D02*
X0040280Y0137398D01*
X0067764Y0027431D02*
X0391780Y0027431D01*
X0393818Y0022433D02*
X0067065Y0022433D01*
X0064615Y0017434D02*
X0400439Y0017434D01*
D26*
X0304249Y0164917D02*
X0264564Y0164917D01*
X0244879Y0164917D01*
D27*
X0216572Y0141295D02*
X0225509Y0132358D01*
X0237005Y0132358D01*
X0203264Y0145508D02*
X0203264Y0086177D01*
X0145272Y0140114D02*
X0140548Y0135390D01*
X0145272Y0140114D02*
X0160745Y0140114D01*
X0170745Y0140114D02*
X0171926Y0141295D01*
X0186572Y0141295D01*
X0195666Y0153106D02*
X0170075Y0153106D01*
X0165745Y0148776D01*
X0165745Y0147220D01*
X0195666Y0153106D02*
X0203264Y0145508D01*
X0216572Y0188539D02*
X0225509Y0197476D01*
X0237005Y0197476D01*
X0186572Y0188539D02*
X0171926Y0188539D01*
X0170745Y0187358D01*
X0160745Y0187358D02*
X0147635Y0187358D01*
X0140548Y0194445D01*
X0165745Y0194465D02*
X0165745Y0206138D01*
X0203264Y0243657D01*
X0349209Y0255469D02*
X0367674Y0237004D01*
X0367674Y0208224D01*
X0382674Y0204287D02*
X0382674Y0191571D01*
X0382674Y0204287D02*
X0386611Y0208224D01*
X0397674Y0208224D01*
X0473540Y0212476D02*
X0477162Y0208854D01*
X0477162Y0207476D01*
X0477162Y0177476D02*
X0477162Y0154169D01*
X0465351Y0142358D01*
X0425981Y0132358D02*
X0401453Y0132358D01*
X0396453Y0137358D01*
X0396453Y0152358D01*
X0396453Y0122358D02*
X0391453Y0117358D01*
X0369800Y0117358D01*
D28*
X0563776Y0027122D03*
X0563776Y0302713D03*
X0051965Y0302713D03*
X0051965Y0027122D03*
M02*
