G75*
%MOIN*%
%OFA0B0*%
%FSLAX25Y25*%
%IPPOS*%
%LPD*%
%AMOC8*
5,1,8,0,0,1.08239X$1,22.5*
%
%ADD10OC8,0.11500*%
%ADD11C,0.11100*%
%ADD12OC8,0.13200*%
%ADD13C,0.13200*%
%ADD14OC8,0.06400*%
%ADD15OC8,0.07000*%
%ADD16C,0.07000*%
%ADD17C,0.08280*%
%ADD18C,0.07600*%
%ADD19OC8,0.12611*%
%ADD20OC8,0.06240*%
%ADD21OC8,0.05800*%
%ADD22OC8,0.07600*%
%ADD23C,0.11493*%
%ADD24C,0.17398*%
D10*
X0140548Y0135390D03*
X0140548Y0194445D03*
X0404327Y0086177D03*
X0420075Y0086177D03*
X0435823Y0086177D03*
X0475194Y0086177D03*
D11*
X0112233Y0134917D02*
X0101933Y0134917D01*
X0101933Y0154917D02*
X0112233Y0154917D01*
X0112233Y0174917D02*
X0101933Y0174917D01*
X0101933Y0194917D02*
X0112233Y0194917D01*
D12*
X0056650Y0243657D03*
X0086650Y0086177D03*
D13*
X0056650Y0086177D03*
X0086650Y0243657D03*
D14*
X0186572Y0188539D03*
X0216572Y0188539D03*
X0268501Y0182476D03*
X0268501Y0202476D03*
X0335430Y0202476D03*
X0355115Y0207476D03*
X0367674Y0208224D03*
X0397674Y0208224D03*
X0355115Y0177476D03*
X0335430Y0182476D03*
X0374800Y0152358D03*
X0355115Y0147358D03*
X0355115Y0127358D03*
X0374800Y0122358D03*
X0396453Y0122358D03*
X0396453Y0152358D03*
X0455509Y0182476D03*
X0477162Y0177476D03*
X0455509Y0202476D03*
X0477162Y0207476D03*
X0216572Y0141295D03*
X0186572Y0141295D03*
D15*
X0268501Y0132358D03*
X0335430Y0132358D03*
D16*
X0335430Y0142358D03*
X0268501Y0142358D03*
D17*
X0292123Y0157358D03*
X0311808Y0157358D03*
X0311808Y0172476D03*
X0292123Y0172476D03*
X0292123Y0212476D03*
X0311808Y0212476D03*
X0408264Y0212476D03*
X0429918Y0212476D03*
X0429918Y0172476D03*
X0408264Y0172476D03*
X0311808Y0117358D03*
X0292123Y0117358D03*
D18*
X0292871Y0077766D02*
X0292871Y0070966D01*
X0302871Y0070966D02*
X0302871Y0077766D01*
X0312871Y0077766D02*
X0312871Y0070966D01*
X0309091Y0252069D02*
X0309091Y0258869D01*
X0299091Y0258869D02*
X0299091Y0252069D01*
X0289091Y0252069D02*
X0289091Y0258869D01*
X0460351Y0258869D02*
X0460351Y0252069D01*
X0470351Y0252069D02*
X0470351Y0258869D01*
X0480351Y0258869D02*
X0480351Y0252069D01*
D19*
X0520469Y0269248D03*
X0422044Y0269248D03*
X0349209Y0269248D03*
X0250784Y0269248D03*
X0252753Y0060587D03*
X0351178Y0060587D03*
D20*
X0425981Y0132358D03*
X0425981Y0142358D03*
X0465351Y0142358D03*
X0465351Y0132358D03*
X0382674Y0181571D03*
X0382674Y0191571D03*
X0237005Y0187476D03*
X0237005Y0197476D03*
X0237005Y0142358D03*
X0237005Y0132358D03*
D21*
X0170745Y0140114D03*
X0160745Y0140114D03*
X0165745Y0147220D03*
X0170745Y0187358D03*
X0160745Y0187358D03*
X0165745Y0194465D03*
D22*
X0203264Y0243657D03*
X0203264Y0290902D03*
X0113264Y0290902D03*
X0113264Y0243657D03*
X0113264Y0086177D03*
X0113264Y0038933D03*
X0203264Y0038933D03*
X0203264Y0086177D03*
D23*
X0061249Y0149327D02*
X0050556Y0149327D01*
X0050556Y0164917D02*
X0061249Y0164917D01*
X0061249Y0180508D02*
X0050556Y0180508D01*
X0404485Y0040343D02*
X0404485Y0029650D01*
X0420075Y0029650D02*
X0420075Y0040343D01*
X0435666Y0040343D02*
X0435666Y0029650D01*
X0467398Y0029650D02*
X0467398Y0040343D01*
X0482989Y0040343D02*
X0482989Y0029650D01*
D24*
X0051965Y0027122D03*
X0051965Y0302713D03*
X0563776Y0302713D03*
X0563776Y0027122D03*
M02*
