%
M48
M72
T01C0.02756
T02C0.03200
T03C0.04000
T04C0.04400
T05C0.06299
T06C0.06300
T07C0.06693
T08C0.06700
T09C0.12598
%
T01
X160745Y140114
X170745Y140114
X165745Y147220
X186572Y141295
X216572Y141295
X268501Y142358
X268501Y132358
X335430Y132358
X335430Y142358
X355115Y147358
X374800Y152358
X396453Y152358
X355115Y127358
X374800Y122358
X396453Y122358
X355115Y177476
X335430Y182476
X335430Y202476
X355115Y207476
X367674Y208224
X397674Y208224
X455509Y202476
X477162Y207476
X455509Y182476
X477162Y177476
X268501Y182476
X268501Y202476
X216572Y188539
X186572Y188539
X170745Y187358
X160745Y187358
X165745Y194465
T02
X237005Y197476
X237005Y187476
X237005Y142358
X237005Y132358
X382674Y181571
X382674Y191571
X425981Y142358
X425981Y132358
X465351Y132358
X465351Y142358
T03
X312871Y74366
X302871Y74366
X292871Y74366
X203264Y86177
X203264Y38933
X113264Y38933
X113264Y86177
X86650Y86177
X56650Y86177
X56650Y243657
X86650Y243657
X113264Y243657
X113264Y290902
X203264Y290902
X203264Y243657
X289091Y255469
X299091Y255469
X309091Y255469
X460351Y255469
X470351Y255469
X480351Y255469
T04
X429918Y212476
X408264Y212476
X408264Y172476
X429918Y172476
X311808Y172476
X292123Y172476
X292123Y157358
X311808Y157358
X311808Y117358
X292123Y117358
X292123Y212476
X311808Y212476
T05
X349209Y269248
X422044Y269248
X520469Y269248
X250784Y269248
X252753Y60587
X351178Y60587
T06
X107083Y134917
X107083Y154917
X107083Y174917
X107083Y194917
T07
X55902Y180508
X55902Y164917
X55902Y149327
X404485Y34996
X420075Y34996
X435666Y34996
X467398Y34996
X482989Y34996
T08
X475194Y86177
X435823Y86177
X420075Y86177
X404327Y86177
X140548Y135390
X140548Y194445
T09
X51965Y27122
X51965Y302713
X563776Y302713
X563776Y27122
M30
